<?xml version="1.0" encoding="utf-8" standalone="no"?>
<!DOCTYPE svg PUBLIC "-//W3C//DTD SVG 1.1//EN"
  "http://www.w3.org/Graphics/SVG/1.1/DTD/svg11.dtd">
<!-- Created with matplotlib (https://matplotlib.org/) -->
<svg height="288pt" version="1.1" viewBox="0 0 576 288" width="576pt" xmlns="http://www.w3.org/2000/svg" xmlns:xlink="http://www.w3.org/1999/xlink">
 <defs>
  <style type="text/css">
*{stroke-linecap:butt;stroke-linejoin:round;}
  </style>
 </defs>
 <g id="figure_1">
  <g id="patch_1">
   <path d="M 0 288 
L 576 288 
L 576 0 
L 0 0 
z
" style="fill:#ffffff;"/>
  </g>
  <g id="axes_1">
   <g id="patch_2">
    <path d="M 72 252 
L 518.4 252 
L 518.4 34.56 
L 72 34.56 
z
" style="fill:#ffffff;"/>
   </g>
   <g id="matplotlib.axis_1">
    <g id="xtick_1">
     <g id="line2d_1">
      <path clip-path="url(#p1bb45fb823)" d="M 72 252 
L 72 34.56 
" style="fill:none;stroke:#b0b0b0;stroke-linecap:square;stroke-width:0.8;"/>
     </g>
     <g id="line2d_2">
      <defs>
       <path d="M 0 0 
L 0 3.5 
" id="mef8158acc9" style="stroke:#000000;stroke-width:0.8;"/>
      </defs>
      <g>
       <use style="stroke:#000000;stroke-width:0.8;" x="72" xlink:href="#mef8158acc9" y="252"/>
      </g>
     </g>
     <g id="text_1">
      <!-- 0.0 -->
      <defs>
       <path d="M 31.78125 66.40625 
Q 24.171875 66.40625 20.328125 58.90625 
Q 16.5 51.421875 16.5 36.375 
Q 16.5 21.390625 20.328125 13.890625 
Q 24.171875 6.390625 31.78125 6.390625 
Q 39.453125 6.390625 43.28125 13.890625 
Q 47.125 21.390625 47.125 36.375 
Q 47.125 51.421875 43.28125 58.90625 
Q 39.453125 66.40625 31.78125 66.40625 
z
M 31.78125 74.21875 
Q 44.046875 74.21875 50.515625 64.515625 
Q 56.984375 54.828125 56.984375 36.375 
Q 56.984375 17.96875 50.515625 8.265625 
Q 44.046875 -1.421875 31.78125 -1.421875 
Q 19.53125 -1.421875 13.0625 8.265625 
Q 6.59375 17.96875 6.59375 36.375 
Q 6.59375 54.828125 13.0625 64.515625 
Q 19.53125 74.21875 31.78125 74.21875 
z
" id="DejaVuSans-48"/>
       <path d="M 10.6875 12.40625 
L 21 12.40625 
L 21 0 
L 10.6875 0 
z
" id="DejaVuSans-46"/>
      </defs>
      <g transform="translate(64.048438 266.598437)scale(0.1 -0.1)">
       <use xlink:href="#DejaVuSans-48"/>
       <use x="63.623047" xlink:href="#DejaVuSans-46"/>
       <use x="95.410156" xlink:href="#DejaVuSans-48"/>
      </g>
     </g>
    </g>
    <g id="xtick_2">
     <g id="line2d_3">
      <path clip-path="url(#p1bb45fb823)" d="M 127.8 252 
L 127.8 34.56 
" style="fill:none;stroke:#b0b0b0;stroke-linecap:square;stroke-width:0.8;"/>
     </g>
     <g id="line2d_4">
      <g>
       <use style="stroke:#000000;stroke-width:0.8;" x="127.8" xlink:href="#mef8158acc9" y="252"/>
      </g>
     </g>
     <g id="text_2">
      <!-- 2.5 -->
      <defs>
       <path d="M 19.1875 8.296875 
L 53.609375 8.296875 
L 53.609375 0 
L 7.328125 0 
L 7.328125 8.296875 
Q 12.9375 14.109375 22.625 23.890625 
Q 32.328125 33.6875 34.8125 36.53125 
Q 39.546875 41.84375 41.421875 45.53125 
Q 43.3125 49.21875 43.3125 52.78125 
Q 43.3125 58.59375 39.234375 62.25 
Q 35.15625 65.921875 28.609375 65.921875 
Q 23.96875 65.921875 18.8125 64.3125 
Q 13.671875 62.703125 7.8125 59.421875 
L 7.8125 69.390625 
Q 13.765625 71.78125 18.9375 73 
Q 24.125 74.21875 28.421875 74.21875 
Q 39.75 74.21875 46.484375 68.546875 
Q 53.21875 62.890625 53.21875 53.421875 
Q 53.21875 48.921875 51.53125 44.890625 
Q 49.859375 40.875 45.40625 35.40625 
Q 44.1875 33.984375 37.640625 27.21875 
Q 31.109375 20.453125 19.1875 8.296875 
z
" id="DejaVuSans-50"/>
       <path d="M 10.796875 72.90625 
L 49.515625 72.90625 
L 49.515625 64.59375 
L 19.828125 64.59375 
L 19.828125 46.734375 
Q 21.96875 47.46875 24.109375 47.828125 
Q 26.265625 48.1875 28.421875 48.1875 
Q 40.625 48.1875 47.75 41.5 
Q 54.890625 34.8125 54.890625 23.390625 
Q 54.890625 11.625 47.5625 5.09375 
Q 40.234375 -1.421875 26.90625 -1.421875 
Q 22.3125 -1.421875 17.546875 -0.640625 
Q 12.796875 0.140625 7.71875 1.703125 
L 7.71875 11.625 
Q 12.109375 9.234375 16.796875 8.0625 
Q 21.484375 6.890625 26.703125 6.890625 
Q 35.15625 6.890625 40.078125 11.328125 
Q 45.015625 15.765625 45.015625 23.390625 
Q 45.015625 31 40.078125 35.4375 
Q 35.15625 39.890625 26.703125 39.890625 
Q 22.75 39.890625 18.8125 39.015625 
Q 14.890625 38.140625 10.796875 36.28125 
z
" id="DejaVuSans-53"/>
      </defs>
      <g transform="translate(119.848438 266.598437)scale(0.1 -0.1)">
       <use xlink:href="#DejaVuSans-50"/>
       <use x="63.623047" xlink:href="#DejaVuSans-46"/>
       <use x="95.410156" xlink:href="#DejaVuSans-53"/>
      </g>
     </g>
    </g>
    <g id="xtick_3">
     <g id="line2d_5">
      <path clip-path="url(#p1bb45fb823)" d="M 183.6 252 
L 183.6 34.56 
" style="fill:none;stroke:#b0b0b0;stroke-linecap:square;stroke-width:0.8;"/>
     </g>
     <g id="line2d_6">
      <g>
       <use style="stroke:#000000;stroke-width:0.8;" x="183.6" xlink:href="#mef8158acc9" y="252"/>
      </g>
     </g>
     <g id="text_3">
      <!-- 5.0 -->
      <g transform="translate(175.648438 266.598437)scale(0.1 -0.1)">
       <use xlink:href="#DejaVuSans-53"/>
       <use x="63.623047" xlink:href="#DejaVuSans-46"/>
       <use x="95.410156" xlink:href="#DejaVuSans-48"/>
      </g>
     </g>
    </g>
    <g id="xtick_4">
     <g id="line2d_7">
      <path clip-path="url(#p1bb45fb823)" d="M 239.4 252 
L 239.4 34.56 
" style="fill:none;stroke:#b0b0b0;stroke-linecap:square;stroke-width:0.8;"/>
     </g>
     <g id="line2d_8">
      <g>
       <use style="stroke:#000000;stroke-width:0.8;" x="239.4" xlink:href="#mef8158acc9" y="252"/>
      </g>
     </g>
     <g id="text_4">
      <!-- 7.5 -->
      <defs>
       <path d="M 8.203125 72.90625 
L 55.078125 72.90625 
L 55.078125 68.703125 
L 28.609375 0 
L 18.3125 0 
L 43.21875 64.59375 
L 8.203125 64.59375 
z
" id="DejaVuSans-55"/>
      </defs>
      <g transform="translate(231.448438 266.598437)scale(0.1 -0.1)">
       <use xlink:href="#DejaVuSans-55"/>
       <use x="63.623047" xlink:href="#DejaVuSans-46"/>
       <use x="95.410156" xlink:href="#DejaVuSans-53"/>
      </g>
     </g>
    </g>
    <g id="xtick_5">
     <g id="line2d_9">
      <path clip-path="url(#p1bb45fb823)" d="M 295.2 252 
L 295.2 34.56 
" style="fill:none;stroke:#b0b0b0;stroke-linecap:square;stroke-width:0.8;"/>
     </g>
     <g id="line2d_10">
      <g>
       <use style="stroke:#000000;stroke-width:0.8;" x="295.2" xlink:href="#mef8158acc9" y="252"/>
      </g>
     </g>
     <g id="text_5">
      <!-- 10.0 -->
      <defs>
       <path d="M 12.40625 8.296875 
L 28.515625 8.296875 
L 28.515625 63.921875 
L 10.984375 60.40625 
L 10.984375 69.390625 
L 28.421875 72.90625 
L 38.28125 72.90625 
L 38.28125 8.296875 
L 54.390625 8.296875 
L 54.390625 0 
L 12.40625 0 
z
" id="DejaVuSans-49"/>
      </defs>
      <g transform="translate(284.067187 266.598437)scale(0.1 -0.1)">
       <use xlink:href="#DejaVuSans-49"/>
       <use x="63.623047" xlink:href="#DejaVuSans-48"/>
       <use x="127.246094" xlink:href="#DejaVuSans-46"/>
       <use x="159.033203" xlink:href="#DejaVuSans-48"/>
      </g>
     </g>
    </g>
    <g id="xtick_6">
     <g id="line2d_11">
      <path clip-path="url(#p1bb45fb823)" d="M 351 252 
L 351 34.56 
" style="fill:none;stroke:#b0b0b0;stroke-linecap:square;stroke-width:0.8;"/>
     </g>
     <g id="line2d_12">
      <g>
       <use style="stroke:#000000;stroke-width:0.8;" x="351" xlink:href="#mef8158acc9" y="252"/>
      </g>
     </g>
     <g id="text_6">
      <!-- 12.5 -->
      <g transform="translate(339.867188 266.598437)scale(0.1 -0.1)">
       <use xlink:href="#DejaVuSans-49"/>
       <use x="63.623047" xlink:href="#DejaVuSans-50"/>
       <use x="127.246094" xlink:href="#DejaVuSans-46"/>
       <use x="159.033203" xlink:href="#DejaVuSans-53"/>
      </g>
     </g>
    </g>
    <g id="xtick_7">
     <g id="line2d_13">
      <path clip-path="url(#p1bb45fb823)" d="M 406.8 252 
L 406.8 34.56 
" style="fill:none;stroke:#b0b0b0;stroke-linecap:square;stroke-width:0.8;"/>
     </g>
     <g id="line2d_14">
      <g>
       <use style="stroke:#000000;stroke-width:0.8;" x="406.8" xlink:href="#mef8158acc9" y="252"/>
      </g>
     </g>
     <g id="text_7">
      <!-- 15.0 -->
      <g transform="translate(395.667188 266.598437)scale(0.1 -0.1)">
       <use xlink:href="#DejaVuSans-49"/>
       <use x="63.623047" xlink:href="#DejaVuSans-53"/>
       <use x="127.246094" xlink:href="#DejaVuSans-46"/>
       <use x="159.033203" xlink:href="#DejaVuSans-48"/>
      </g>
     </g>
    </g>
    <g id="xtick_8">
     <g id="line2d_15">
      <path clip-path="url(#p1bb45fb823)" d="M 462.6 252 
L 462.6 34.56 
" style="fill:none;stroke:#b0b0b0;stroke-linecap:square;stroke-width:0.8;"/>
     </g>
     <g id="line2d_16">
      <g>
       <use style="stroke:#000000;stroke-width:0.8;" x="462.6" xlink:href="#mef8158acc9" y="252"/>
      </g>
     </g>
     <g id="text_8">
      <!-- 17.5 -->
      <g transform="translate(451.467188 266.598437)scale(0.1 -0.1)">
       <use xlink:href="#DejaVuSans-49"/>
       <use x="63.623047" xlink:href="#DejaVuSans-55"/>
       <use x="127.246094" xlink:href="#DejaVuSans-46"/>
       <use x="159.033203" xlink:href="#DejaVuSans-53"/>
      </g>
     </g>
    </g>
    <g id="xtick_9">
     <g id="line2d_17">
      <path clip-path="url(#p1bb45fb823)" d="M 518.4 252 
L 518.4 34.56 
" style="fill:none;stroke:#b0b0b0;stroke-linecap:square;stroke-width:0.8;"/>
     </g>
     <g id="line2d_18">
      <g>
       <use style="stroke:#000000;stroke-width:0.8;" x="518.4" xlink:href="#mef8158acc9" y="252"/>
      </g>
     </g>
     <g id="text_9">
      <!-- 20.0 -->
      <g transform="translate(507.267187 266.598437)scale(0.1 -0.1)">
       <use xlink:href="#DejaVuSans-50"/>
       <use x="63.623047" xlink:href="#DejaVuSans-48"/>
       <use x="127.246094" xlink:href="#DejaVuSans-46"/>
       <use x="159.033203" xlink:href="#DejaVuSans-48"/>
      </g>
     </g>
    </g>
    <g id="text_10">
     <!-- Tempo (s) -->
     <defs>
      <path d="M -0.296875 72.90625 
L 61.375 72.90625 
L 61.375 64.59375 
L 35.5 64.59375 
L 35.5 0 
L 25.59375 0 
L 25.59375 64.59375 
L -0.296875 64.59375 
z
" id="DejaVuSans-84"/>
      <path d="M 56.203125 29.59375 
L 56.203125 25.203125 
L 14.890625 25.203125 
Q 15.484375 15.921875 20.484375 11.0625 
Q 25.484375 6.203125 34.421875 6.203125 
Q 39.59375 6.203125 44.453125 7.46875 
Q 49.3125 8.734375 54.109375 11.28125 
L 54.109375 2.78125 
Q 49.265625 0.734375 44.1875 -0.34375 
Q 39.109375 -1.421875 33.890625 -1.421875 
Q 20.796875 -1.421875 13.15625 6.1875 
Q 5.515625 13.8125 5.515625 26.8125 
Q 5.515625 40.234375 12.765625 48.109375 
Q 20.015625 56 32.328125 56 
Q 43.359375 56 49.78125 48.890625 
Q 56.203125 41.796875 56.203125 29.59375 
z
M 47.21875 32.234375 
Q 47.125 39.59375 43.09375 43.984375 
Q 39.0625 48.390625 32.421875 48.390625 
Q 24.90625 48.390625 20.390625 44.140625 
Q 15.875 39.890625 15.1875 32.171875 
z
" id="DejaVuSans-101"/>
      <path d="M 52 44.1875 
Q 55.375 50.25 60.0625 53.125 
Q 64.75 56 71.09375 56 
Q 79.640625 56 84.28125 50.015625 
Q 88.921875 44.046875 88.921875 33.015625 
L 88.921875 0 
L 79.890625 0 
L 79.890625 32.71875 
Q 79.890625 40.578125 77.09375 44.375 
Q 74.3125 48.1875 68.609375 48.1875 
Q 61.625 48.1875 57.5625 43.546875 
Q 53.515625 38.921875 53.515625 30.90625 
L 53.515625 0 
L 44.484375 0 
L 44.484375 32.71875 
Q 44.484375 40.625 41.703125 44.40625 
Q 38.921875 48.1875 33.109375 48.1875 
Q 26.21875 48.1875 22.15625 43.53125 
Q 18.109375 38.875 18.109375 30.90625 
L 18.109375 0 
L 9.078125 0 
L 9.078125 54.6875 
L 18.109375 54.6875 
L 18.109375 46.1875 
Q 21.1875 51.21875 25.484375 53.609375 
Q 29.78125 56 35.6875 56 
Q 41.65625 56 45.828125 52.96875 
Q 50 49.953125 52 44.1875 
z
" id="DejaVuSans-109"/>
      <path d="M 18.109375 8.203125 
L 18.109375 -20.796875 
L 9.078125 -20.796875 
L 9.078125 54.6875 
L 18.109375 54.6875 
L 18.109375 46.390625 
Q 20.953125 51.265625 25.265625 53.625 
Q 29.59375 56 35.59375 56 
Q 45.5625 56 51.78125 48.09375 
Q 58.015625 40.1875 58.015625 27.296875 
Q 58.015625 14.40625 51.78125 6.484375 
Q 45.5625 -1.421875 35.59375 -1.421875 
Q 29.59375 -1.421875 25.265625 0.953125 
Q 20.953125 3.328125 18.109375 8.203125 
z
M 48.6875 27.296875 
Q 48.6875 37.203125 44.609375 42.84375 
Q 40.53125 48.484375 33.40625 48.484375 
Q 26.265625 48.484375 22.1875 42.84375 
Q 18.109375 37.203125 18.109375 27.296875 
Q 18.109375 17.390625 22.1875 11.75 
Q 26.265625 6.109375 33.40625 6.109375 
Q 40.53125 6.109375 44.609375 11.75 
Q 48.6875 17.390625 48.6875 27.296875 
z
" id="DejaVuSans-112"/>
      <path d="M 30.609375 48.390625 
Q 23.390625 48.390625 19.1875 42.75 
Q 14.984375 37.109375 14.984375 27.296875 
Q 14.984375 17.484375 19.15625 11.84375 
Q 23.34375 6.203125 30.609375 6.203125 
Q 37.796875 6.203125 41.984375 11.859375 
Q 46.1875 17.53125 46.1875 27.296875 
Q 46.1875 37.015625 41.984375 42.703125 
Q 37.796875 48.390625 30.609375 48.390625 
z
M 30.609375 56 
Q 42.328125 56 49.015625 48.375 
Q 55.71875 40.765625 55.71875 27.296875 
Q 55.71875 13.875 49.015625 6.21875 
Q 42.328125 -1.421875 30.609375 -1.421875 
Q 18.84375 -1.421875 12.171875 6.21875 
Q 5.515625 13.875 5.515625 27.296875 
Q 5.515625 40.765625 12.171875 48.375 
Q 18.84375 56 30.609375 56 
z
" id="DejaVuSans-111"/>
      <path id="DejaVuSans-32"/>
      <path d="M 31 75.875 
Q 24.46875 64.65625 21.28125 53.65625 
Q 18.109375 42.671875 18.109375 31.390625 
Q 18.109375 20.125 21.3125 9.0625 
Q 24.515625 -2 31 -13.1875 
L 23.1875 -13.1875 
Q 15.875 -1.703125 12.234375 9.375 
Q 8.59375 20.453125 8.59375 31.390625 
Q 8.59375 42.28125 12.203125 53.3125 
Q 15.828125 64.359375 23.1875 75.875 
z
" id="DejaVuSans-40"/>
      <path d="M 44.28125 53.078125 
L 44.28125 44.578125 
Q 40.484375 46.53125 36.375 47.5 
Q 32.28125 48.484375 27.875 48.484375 
Q 21.1875 48.484375 17.84375 46.4375 
Q 14.5 44.390625 14.5 40.28125 
Q 14.5 37.15625 16.890625 35.375 
Q 19.28125 33.59375 26.515625 31.984375 
L 29.59375 31.296875 
Q 39.15625 29.25 43.1875 25.515625 
Q 47.21875 21.78125 47.21875 15.09375 
Q 47.21875 7.46875 41.1875 3.015625 
Q 35.15625 -1.421875 24.609375 -1.421875 
Q 20.21875 -1.421875 15.453125 -0.5625 
Q 10.6875 0.296875 5.421875 2 
L 5.421875 11.28125 
Q 10.40625 8.6875 15.234375 7.390625 
Q 20.0625 6.109375 24.8125 6.109375 
Q 31.15625 6.109375 34.5625 8.28125 
Q 37.984375 10.453125 37.984375 14.40625 
Q 37.984375 18.0625 35.515625 20.015625 
Q 33.0625 21.96875 24.703125 23.78125 
L 21.578125 24.515625 
Q 13.234375 26.265625 9.515625 29.90625 
Q 5.8125 33.546875 5.8125 39.890625 
Q 5.8125 47.609375 11.28125 51.796875 
Q 16.75 56 26.8125 56 
Q 31.78125 56 36.171875 55.265625 
Q 40.578125 54.546875 44.28125 53.078125 
z
" id="DejaVuSans-115"/>
      <path d="M 8.015625 75.875 
L 15.828125 75.875 
Q 23.140625 64.359375 26.78125 53.3125 
Q 30.421875 42.28125 30.421875 31.390625 
Q 30.421875 20.453125 26.78125 9.375 
Q 23.140625 -1.703125 15.828125 -13.1875 
L 8.015625 -13.1875 
Q 14.5 -2 17.703125 9.0625 
Q 20.90625 20.125 20.90625 31.390625 
Q 20.90625 42.671875 17.703125 53.65625 
Q 14.5 64.65625 8.015625 75.875 
z
" id="DejaVuSans-41"/>
     </defs>
     <g transform="translate(270.720312 280.276563)scale(0.1 -0.1)">
      <use xlink:href="#DejaVuSans-84"/>
      <use x="44.083984" xlink:href="#DejaVuSans-101"/>
      <use x="105.607422" xlink:href="#DejaVuSans-109"/>
      <use x="203.019531" xlink:href="#DejaVuSans-112"/>
      <use x="266.496094" xlink:href="#DejaVuSans-111"/>
      <use x="327.677734" xlink:href="#DejaVuSans-32"/>
      <use x="359.464844" xlink:href="#DejaVuSans-40"/>
      <use x="398.478516" xlink:href="#DejaVuSans-115"/>
      <use x="450.578125" xlink:href="#DejaVuSans-41"/>
     </g>
    </g>
   </g>
   <g id="matplotlib.axis_2">
    <g id="ytick_1">
     <g id="line2d_19">
      <path clip-path="url(#p1bb45fb823)" d="M 72 246.588655 
L 518.4 246.588655 
" style="fill:none;stroke:#b0b0b0;stroke-linecap:square;stroke-width:0.8;"/>
     </g>
     <g id="line2d_20">
      <defs>
       <path d="M 0 0 
L -3.5 0 
" id="mcebc3d1b17" style="stroke:#000000;stroke-width:0.8;"/>
      </defs>
      <g>
       <use style="stroke:#000000;stroke-width:0.8;" x="72" xlink:href="#mcebc3d1b17" y="246.588655"/>
      </g>
     </g>
     <g id="text_11">
      <!-- −4 -->
      <defs>
       <path d="M 10.59375 35.5 
L 73.1875 35.5 
L 73.1875 27.203125 
L 10.59375 27.203125 
z
" id="DejaVuSans-8722"/>
       <path d="M 37.796875 64.3125 
L 12.890625 25.390625 
L 37.796875 25.390625 
z
M 35.203125 72.90625 
L 47.609375 72.90625 
L 47.609375 25.390625 
L 58.015625 25.390625 
L 58.015625 17.1875 
L 47.609375 17.1875 
L 47.609375 0 
L 37.796875 0 
L 37.796875 17.1875 
L 4.890625 17.1875 
L 4.890625 26.703125 
z
" id="DejaVuSans-52"/>
      </defs>
      <g transform="translate(50.257812 250.387874)scale(0.1 -0.1)">
       <use xlink:href="#DejaVuSans-8722"/>
       <use x="83.789062" xlink:href="#DejaVuSans-52"/>
      </g>
     </g>
    </g>
    <g id="ytick_2">
     <g id="line2d_21">
      <path clip-path="url(#p1bb45fb823)" d="M 72 201.188314 
L 518.4 201.188314 
" style="fill:none;stroke:#b0b0b0;stroke-linecap:square;stroke-width:0.8;"/>
     </g>
     <g id="line2d_22">
      <g>
       <use style="stroke:#000000;stroke-width:0.8;" x="72" xlink:href="#mcebc3d1b17" y="201.188314"/>
      </g>
     </g>
     <g id="text_12">
      <!-- −2 -->
      <g transform="translate(50.257812 204.987533)scale(0.1 -0.1)">
       <use xlink:href="#DejaVuSans-8722"/>
       <use x="83.789062" xlink:href="#DejaVuSans-50"/>
      </g>
     </g>
    </g>
    <g id="ytick_3">
     <g id="line2d_23">
      <path clip-path="url(#p1bb45fb823)" d="M 72 155.787973 
L 518.4 155.787973 
" style="fill:none;stroke:#b0b0b0;stroke-linecap:square;stroke-width:0.8;"/>
     </g>
     <g id="line2d_24">
      <g>
       <use style="stroke:#000000;stroke-width:0.8;" x="72" xlink:href="#mcebc3d1b17" y="155.787973"/>
      </g>
     </g>
     <g id="text_13">
      <!-- 0 -->
      <g transform="translate(58.6375 159.587192)scale(0.1 -0.1)">
       <use xlink:href="#DejaVuSans-48"/>
      </g>
     </g>
    </g>
    <g id="ytick_4">
     <g id="line2d_25">
      <path clip-path="url(#p1bb45fb823)" d="M 72 110.387632 
L 518.4 110.387632 
" style="fill:none;stroke:#b0b0b0;stroke-linecap:square;stroke-width:0.8;"/>
     </g>
     <g id="line2d_26">
      <g>
       <use style="stroke:#000000;stroke-width:0.8;" x="72" xlink:href="#mcebc3d1b17" y="110.387632"/>
      </g>
     </g>
     <g id="text_14">
      <!-- 2 -->
      <g transform="translate(58.6375 114.186851)scale(0.1 -0.1)">
       <use xlink:href="#DejaVuSans-50"/>
      </g>
     </g>
    </g>
    <g id="ytick_5">
     <g id="line2d_27">
      <path clip-path="url(#p1bb45fb823)" d="M 72 64.987291 
L 518.4 64.987291 
" style="fill:none;stroke:#b0b0b0;stroke-linecap:square;stroke-width:0.8;"/>
     </g>
     <g id="line2d_28">
      <g>
       <use style="stroke:#000000;stroke-width:0.8;" x="72" xlink:href="#mcebc3d1b17" y="64.987291"/>
      </g>
     </g>
     <g id="text_15">
      <!-- 4 -->
      <g transform="translate(58.6375 68.786509)scale(0.1 -0.1)">
       <use xlink:href="#DejaVuSans-52"/>
      </g>
     </g>
    </g>
    <g id="text_16">
     <!-- Aceleração (m/s²) -->
     <defs>
      <path d="M 34.1875 63.1875 
L 20.796875 26.90625 
L 47.609375 26.90625 
z
M 28.609375 72.90625 
L 39.796875 72.90625 
L 67.578125 0 
L 57.328125 0 
L 50.6875 18.703125 
L 17.828125 18.703125 
L 11.1875 0 
L 0.78125 0 
z
" id="DejaVuSans-65"/>
      <path d="M 48.78125 52.59375 
L 48.78125 44.1875 
Q 44.96875 46.296875 41.140625 47.34375 
Q 37.3125 48.390625 33.40625 48.390625 
Q 24.65625 48.390625 19.8125 42.84375 
Q 14.984375 37.3125 14.984375 27.296875 
Q 14.984375 17.28125 19.8125 11.734375 
Q 24.65625 6.203125 33.40625 6.203125 
Q 37.3125 6.203125 41.140625 7.25 
Q 44.96875 8.296875 48.78125 10.40625 
L 48.78125 2.09375 
Q 45.015625 0.34375 40.984375 -0.53125 
Q 36.96875 -1.421875 32.421875 -1.421875 
Q 20.0625 -1.421875 12.78125 6.34375 
Q 5.515625 14.109375 5.515625 27.296875 
Q 5.515625 40.671875 12.859375 48.328125 
Q 20.21875 56 33.015625 56 
Q 37.15625 56 41.109375 55.140625 
Q 45.0625 54.296875 48.78125 52.59375 
z
" id="DejaVuSans-99"/>
      <path d="M 9.421875 75.984375 
L 18.40625 75.984375 
L 18.40625 0 
L 9.421875 0 
z
" id="DejaVuSans-108"/>
      <path d="M 41.109375 46.296875 
Q 39.59375 47.171875 37.8125 47.578125 
Q 36.03125 48 33.890625 48 
Q 26.265625 48 22.1875 43.046875 
Q 18.109375 38.09375 18.109375 28.8125 
L 18.109375 0 
L 9.078125 0 
L 9.078125 54.6875 
L 18.109375 54.6875 
L 18.109375 46.1875 
Q 20.953125 51.171875 25.484375 53.578125 
Q 30.03125 56 36.53125 56 
Q 37.453125 56 38.578125 55.875 
Q 39.703125 55.765625 41.0625 55.515625 
z
" id="DejaVuSans-114"/>
      <path d="M 34.28125 27.484375 
Q 23.390625 27.484375 19.1875 25 
Q 14.984375 22.515625 14.984375 16.5 
Q 14.984375 11.71875 18.140625 8.90625 
Q 21.296875 6.109375 26.703125 6.109375 
Q 34.1875 6.109375 38.703125 11.40625 
Q 43.21875 16.703125 43.21875 25.484375 
L 43.21875 27.484375 
z
M 52.203125 31.203125 
L 52.203125 0 
L 43.21875 0 
L 43.21875 8.296875 
Q 40.140625 3.328125 35.546875 0.953125 
Q 30.953125 -1.421875 24.3125 -1.421875 
Q 15.921875 -1.421875 10.953125 3.296875 
Q 6 8.015625 6 15.921875 
Q 6 25.140625 12.171875 29.828125 
Q 18.359375 34.515625 30.609375 34.515625 
L 43.21875 34.515625 
L 43.21875 35.40625 
Q 43.21875 41.609375 39.140625 45 
Q 35.0625 48.390625 27.6875 48.390625 
Q 23 48.390625 18.546875 47.265625 
Q 14.109375 46.140625 10.015625 43.890625 
L 10.015625 52.203125 
Q 14.9375 54.109375 19.578125 55.046875 
Q 24.21875 56 28.609375 56 
Q 40.484375 56 46.34375 49.84375 
Q 52.203125 43.703125 52.203125 31.203125 
z
" id="DejaVuSans-97"/>
      <path d="M 48.78125 52.59375 
L 48.78125 44.1875 
Q 44.96875 46.296875 41.140625 47.34375 
Q 37.3125 48.390625 33.40625 48.390625 
Q 24.65625 48.390625 19.8125 42.84375 
Q 14.984375 37.3125 14.984375 27.296875 
Q 14.984375 17.28125 19.8125 11.734375 
Q 24.65625 6.203125 33.40625 6.203125 
Q 37.3125 6.203125 41.140625 7.25 
Q 44.96875 8.296875 48.78125 10.40625 
L 48.78125 2.09375 
Q 45.015625 0.34375 40.984375 -0.53125 
Q 36.96875 -1.421875 32.421875 -1.421875 
Q 20.0625 -1.421875 12.78125 6.34375 
Q 5.515625 14.109375 5.515625 27.296875 
Q 5.515625 40.671875 12.859375 48.328125 
Q 20.21875 56 33.015625 56 
Q 37.15625 56 41.109375 55.140625 
Q 45.0625 54.296875 48.78125 52.59375 
z
M 36.078125 0 
Q 38.765625 -3.03125 40.078125 -5.59375 
Q 41.40625 -8.15625 41.40625 -10.5 
Q 41.40625 -14.84375 38.46875 -17.0625 
Q 35.546875 -19.28125 29.78125 -19.28125 
Q 27.546875 -19.28125 25.421875 -18.984375 
Q 23.296875 -18.703125 21.1875 -18.109375 
L 21.1875 -11.71875 
Q 22.859375 -12.546875 24.65625 -12.90625 
Q 26.46875 -13.28125 28.765625 -13.28125 
Q 31.640625 -13.28125 33.109375 -12.109375 
Q 34.578125 -10.9375 34.578125 -8.6875 
Q 34.578125 -7.234375 33.515625 -5.109375 
Q 32.46875 -2.984375 30.28125 0 
z
" id="DejaVuSans-231"/>
      <path d="M 34.28125 27.484375 
Q 23.390625 27.484375 19.1875 25 
Q 14.984375 22.515625 14.984375 16.5 
Q 14.984375 11.71875 18.140625 8.90625 
Q 21.296875 6.109375 26.703125 6.109375 
Q 34.1875 6.109375 38.703125 11.40625 
Q 43.21875 16.703125 43.21875 25.484375 
L 43.21875 27.484375 
z
M 52.203125 31.203125 
L 52.203125 0 
L 43.21875 0 
L 43.21875 8.296875 
Q 40.140625 3.328125 35.546875 0.953125 
Q 30.953125 -1.421875 24.3125 -1.421875 
Q 15.921875 -1.421875 10.953125 3.296875 
Q 6 8.015625 6 15.921875 
Q 6 25.140625 12.171875 29.828125 
Q 18.359375 34.515625 30.609375 34.515625 
L 43.21875 34.515625 
L 43.21875 35.40625 
Q 43.21875 41.609375 39.140625 45 
Q 35.0625 48.390625 27.6875 48.390625 
Q 23 48.390625 18.546875 47.265625 
Q 14.109375 46.140625 10.015625 43.890625 
L 10.015625 52.203125 
Q 14.9375 54.109375 19.578125 55.046875 
Q 24.21875 56 28.609375 56 
Q 40.484375 56 46.34375 49.84375 
Q 52.203125 43.703125 52.203125 31.203125 
z
M 28.8125 66.890625 
L 26.03125 69.578125 
Q 24.953125 70.5625 24.140625 71.015625 
Q 23.34375 71.484375 22.703125 71.484375 
Q 20.84375 71.484375 19.96875 69.703125 
Q 19.09375 67.921875 19 63.921875 
L 12.890625 63.921875 
Q 12.984375 70.515625 15.46875 74.09375 
Q 17.96875 77.6875 22.40625 77.6875 
Q 24.265625 77.6875 25.828125 77 
Q 27.390625 76.3125 29.203125 74.703125 
L 31.984375 72.015625 
Q 33.0625 71.046875 33.859375 70.578125 
Q 34.671875 70.125 35.296875 70.125 
Q 37.15625 70.125 38.03125 71.90625 
Q 38.921875 73.6875 39.015625 77.6875 
L 45.125 77.6875 
Q 45.015625 71.09375 42.53125 67.5 
Q 40.046875 63.921875 35.59375 63.921875 
Q 33.734375 63.921875 32.171875 64.59375 
Q 30.609375 65.28125 28.8125 66.890625 
z
" id="DejaVuSans-227"/>
      <path d="M 25.390625 72.90625 
L 33.6875 72.90625 
L 8.296875 -9.28125 
L 0 -9.28125 
z
" id="DejaVuSans-47"/>
      <path d="M 13.09375 38.1875 
L 33.796875 38.1875 
L 33.796875 32.625 
L 4.59375 32.625 
L 4.59375 37.984375 
Q 6.25 39.5 9.328125 42.234375 
Q 26.125 57.125 26.125 61.71875 
Q 26.125 64.9375 23.578125 66.90625 
Q 21.046875 68.890625 16.890625 68.890625 
Q 14.359375 68.890625 11.375 68.03125 
Q 8.40625 67.1875 4.890625 65.484375 
L 4.890625 71.484375 
Q 8.640625 72.859375 11.890625 73.53125 
Q 15.140625 74.21875 17.921875 74.21875 
Q 25 74.21875 29.25 71 
Q 33.5 67.78125 33.5 62.5 
Q 33.5 55.71875 17.328125 41.84375 
Q 14.59375 39.5 13.09375 38.1875 
z
" id="DejaVuSans-178"/>
     </defs>
     <g transform="translate(44.178125 187.551094)rotate(-90)scale(0.1 -0.1)">
      <use xlink:href="#DejaVuSans-65"/>
      <use x="66.658203" xlink:href="#DejaVuSans-99"/>
      <use x="121.638672" xlink:href="#DejaVuSans-101"/>
      <use x="183.162109" xlink:href="#DejaVuSans-108"/>
      <use x="210.945312" xlink:href="#DejaVuSans-101"/>
      <use x="272.46875" xlink:href="#DejaVuSans-114"/>
      <use x="313.582031" xlink:href="#DejaVuSans-97"/>
      <use x="374.861328" xlink:href="#DejaVuSans-231"/>
      <use x="429.841797" xlink:href="#DejaVuSans-227"/>
      <use x="491.121094" xlink:href="#DejaVuSans-111"/>
      <use x="552.302734" xlink:href="#DejaVuSans-32"/>
      <use x="584.089844" xlink:href="#DejaVuSans-40"/>
      <use x="623.103516" xlink:href="#DejaVuSans-109"/>
      <use x="720.515625" xlink:href="#DejaVuSans-47"/>
      <use x="754.207031" xlink:href="#DejaVuSans-115"/>
      <use x="806.306641" xlink:href="#DejaVuSans-178"/>
      <use x="846.394531" xlink:href="#DejaVuSans-41"/>
     </g>
    </g>
   </g>
   <g id="line2d_29">
    <path clip-path="url(#p1bb45fb823)" d="M 72 155.774509 
L 85.839323 155.828608 
L 86.732182 155.798553 
L 88.071471 155.749938 
L 88.741116 155.7821 
L 91.866124 155.543836 
L 92.982199 155.641342 
L 93.875058 155.683791 
L 96.330422 155.955798 
L 98.116141 156.356713 
L 98.785786 156.371965 
L 99.232215 156.513526 
L 99.678645 156.365376 
L 100.79472 155.766425 
L 101.241149 155.721429 
L 102.134009 155.756916 
L 102.580439 155.559434 
L 103.250083 155.089124 
L 105.035802 154.990201 
L 105.705447 155.25916 
L 106.151877 155.598073 
L 106.821521 156.110417 
L 107.044736 156.029571 
L 107.714381 155.458767 
L 107.937596 155.445466 
L 109.05367 156.327081 
L 109.723315 156.402219 
L 110.169745 156.345408 
L 110.39296 156.293468 
L 111.285819 156.699021 
L 111.509034 156.555344 
L 112.401893 155.263314 
L 112.625108 155.09067 
L 113.071538 155.088882 
L 113.517968 155.283005 
L 113.964398 155.719244 
L 114.634042 155.655325 
L 115.303687 155.55813 
L 115.750117 155.684413 
L 116.196546 155.57067 
L 116.642976 155.231937 
L 117.089406 155.207479 
L 117.759051 154.959127 
L 117.982265 155.02587 
L 118.428695 155.375701 
L 118.875125 155.348323 
L 119.321555 155.240824 
L 119.767985 155.527375 
L 120.214414 156.101478 
L 120.660844 156.234342 
L 120.884059 156.126412 
L 122.223348 154.632995 
L 122.446563 154.460809 
L 122.669778 154.456025 
L 123.116208 154.8565 
L 123.562638 155.970134 
L 124.009067 156.901245 
L 124.232282 156.829355 
L 124.678712 155.764395 
L 125.125142 154.558894 
L 125.571571 154.063659 
L 126.018001 154.048416 
L 126.464431 154.204935 
L 126.910861 154.530489 
L 127.35729 154.851404 
L 128.026935 155.668021 
L 128.473365 155.839973 
L 128.919795 155.826768 
L 130.035869 156.849979 
L 131.375158 155.478967 
L 132.491233 152.699194 
L 132.714448 152.620101 
L 133.160877 153.170014 
L 134.053737 154.989338 
L 135.169811 155.301288 
L 135.616241 155.819324 
L 135.839456 155.947368 
L 136.285886 155.777229 
L 136.732315 155.323165 
L 137.178745 154.542623 
L 137.84839 152.89501 
L 138.29482 152.367932 
L 138.518035 152.413127 
L 138.741249 152.639145 
L 138.964464 152.692587 
L 139.187679 152.928234 
L 139.634109 153.585136 
L 140.080539 154.050402 
L 140.973398 155.902873 
L 141.643043 156.394178 
L 142.535902 158.705939 
L 142.982332 158.563169 
L 143.428762 158.999174 
L 143.875192 159.911743 
L 144.321621 160.843691 
L 144.768051 160.577851 
L 144.991266 160.345563 
L 145.437696 159.354671 
L 146.55377 155.205864 
L 147.223415 154.459971 
L 147.669845 153.957689 
L 147.89306 153.959563 
L 148.339489 154.199054 
L 148.562704 154.223331 
L 149.232349 154.618503 
L 149.901993 156.216828 
L 150.348423 157.464138 
L 150.571638 157.31312 
L 151.018068 156.365505 
L 151.464498 154.822498 
L 151.687713 154.491711 
L 151.910927 154.580166 
L 152.134142 155.393466 
L 152.580572 158.296439 
L 153.027002 161.153094 
L 153.250217 161.814876 
L 153.473432 161.871263 
L 153.696646 161.539716 
L 154.589506 159.012224 
L 154.812721 159.096594 
L 155.259151 159.867731 
L 155.482365 159.975437 
L 155.70558 159.923756 
L 156.15201 160.018335 
L 156.59844 158.960785 
L 156.821655 158.118648 
L 157.268085 155.966464 
L 157.491299 156.103214 
L 158.384159 159.846865 
L 158.607374 159.500273 
L 159.277018 156.58666 
L 159.723448 155.677331 
L 160.169878 155.326369 
L 160.616308 154.60047 
L 161.062738 154.439486 
L 161.285952 154.669562 
L 161.732382 156.293995 
L 162.625242 159.605967 
L 162.848457 159.542143 
L 163.071671 158.808437 
L 163.518101 155.126416 
L 164.187746 148.610126 
L 164.410961 148.005398 
L 164.634176 148.287475 
L 165.30382 149.990828 
L 165.527035 150.122249 
L 165.75025 149.881783 
L 166.19668 148.440082 
L 166.866324 146.339285 
L 167.089539 146.50388 
L 167.312754 147.282496 
L 168.205614 152.59382 
L 168.428829 152.983724 
L 168.652043 153.002379 
L 169.098473 151.962871 
L 169.321688 151.389485 
L 169.544903 151.261224 
L 169.768118 151.349161 
L 169.991333 151.704113 
L 170.660977 153.26771 
L 171.107407 153.441545 
L 171.553837 153.216703 
L 171.777052 153.863854 
L 172.000267 155.174859 
L 172.446696 159.998453 
L 172.669911 162.668776 
L 172.893126 163.992459 
L 173.116341 163.932919 
L 173.339556 162.506945 
L 174.232415 153.56402 
L 174.678845 152.918294 
L 175.125275 153.191648 
L 175.34849 152.697294 
L 176.241349 149.146298 
L 176.464564 149.396955 
L 176.687779 149.924517 
L 177.580639 152.91914 
L 177.803854 152.822748 
L 178.250283 150.796718 
L 178.919928 147.555617 
L 179.366358 147.522427 
L 179.589573 147.718415 
L 180.036002 148.693451 
L 180.259217 148.354313 
L 180.482432 148.523623 
L 180.928862 150.387554 
L 181.821721 156.38359 
L 182.268151 159.584574 
L 182.714581 162.219703 
L 182.937796 162.978524 
L 183.161011 163.246861 
L 183.60744 162.943624 
L 184.05387 163.48427 
L 184.277085 164.424095 
L 184.723515 167.851295 
L 184.94673 168.699435 
L 185.169945 168.343663 
L 185.39316 167.050449 
L 186.062804 161.675379 
L 186.286019 160.816633 
L 186.509234 160.417514 
L 186.732449 160.316674 
L 186.955664 160.070922 
L 187.402093 157.507321 
L 187.848523 155.241852 
L 188.071738 154.617665 
L 188.518168 154.245104 
L 188.741383 154.366783 
L 188.964598 154.947606 
L 190.080672 160.898974 
L 191.196746 162.778615 
L 191.643176 161.85165 
L 191.866391 160.920833 
L 192.312821 156.823378 
L 192.982465 150.090389 
L 193.20568 149.055468 
L 193.428895 148.740218 
L 193.65211 148.624134 
L 193.875325 148.934375 
L 194.768185 154.021539 
L 194.991399 154.037059 
L 195.661044 151.058231 
L 195.884259 151.060667 
L 196.330689 153.541306 
L 197.893193 165.848713 
L 198.116408 165.54843 
L 199.009267 157.42593 
L 199.232482 156.309627 
L 199.902127 155.34093 
L 200.125342 155.502675 
L 200.348557 156.251831 
L 200.794986 160.097229 
L 201.241416 164.067286 
L 201.464631 165.2233 
L 201.687846 165.736326 
L 201.911061 165.541107 
L 202.134276 164.991013 
L 202.35749 163.455242 
L 202.80392 157.831674 
L 203.25035 150.328153 
L 203.473565 148.05143 
L 203.69678 147.205562 
L 203.919995 147.428677 
L 204.14321 147.990076 
L 204.589639 150.266842 
L 205.036069 153.827727 
L 205.259284 155.622523 
L 205.482499 156.460559 
L 205.705714 156.566762 
L 206.375358 155.988582 
L 206.598573 156.057873 
L 206.821788 157.300969 
L 207.268218 162.700826 
L 207.714648 169.565591 
L 207.937863 171.794709 
L 208.161077 172.622035 
L 208.384292 172.314195 
L 208.607507 170.596808 
L 209.277152 162.114778 
L 209.500367 160.615713 
L 209.946796 159.787697 
L 210.393226 157.198151 
L 210.616441 155.976154 
L 210.839656 155.502502 
L 211.062871 155.685544 
L 211.732516 158.172453 
L 212.178945 157.270033 
L 213.071805 155.114446 
L 213.518235 155.708293 
L 213.741449 156.452285 
L 214.857524 162.443225 
L 215.080739 162.723981 
L 215.303954 162.700325 
L 215.527168 162.862761 
L 215.750383 163.281623 
L 216.420028 166.419975 
L 216.643243 166.102825 
L 216.866458 164.628504 
L 217.312888 158.35116 
L 217.759317 151.489435 
L 217.982532 149.321196 
L 218.205747 148.767544 
L 218.428962 149.504618 
L 219.545036 156.901211 
L 220.214681 164.124287 
L 220.437896 165.043117 
L 220.661111 164.239006 
L 221.107541 157.611857 
L 221.55397 149.37887 
L 221.777185 146.931292 
L 222.0004 145.770839 
L 222.223615 145.518989 
L 222.44683 145.813365 
L 223.116474 147.948898 
L 223.339689 147.816508 
L 223.562904 147.190025 
L 224.232549 144.28972 
L 224.455764 144.42217 
L 224.678979 144.727082 
L 225.125408 144.983534 
L 225.571838 145.363152 
L 225.795053 145.886024 
L 226.241483 148.845972 
L 226.911127 154.429813 
L 227.134342 154.808524 
L 227.357557 154.050765 
L 227.803987 149.517461 
L 228.250417 145.655705 
L 228.473632 145.386523 
L 228.920061 146.897238 
L 229.366491 149.977787 
L 230.036136 157.743581 
L 230.259351 158.537337 
L 230.482566 157.90847 
L 231.59864 149.890826 
L 231.821855 149.494133 
L 232.268285 150.405777 
L 232.491499 150.10134 
L 232.937929 148.395777 
L 233.161144 148.268794 
L 233.384359 149.522228 
L 234.054004 155.432278 
L 234.277218 155.203005 
L 234.500433 153.721671 
L 235.170078 145.053395 
L 235.839723 136.81153 
L 236.062938 137.488235 
L 236.509367 145.288153 
L 237.179012 157.79477 
L 237.402227 159.993444 
L 237.625442 160.895484 
L 237.848657 161.063646 
L 238.071871 160.164706 
L 238.741516 154.663499 
L 238.964731 154.618434 
L 239.411161 158.584043 
L 239.857591 161.61431 
L 240.080805 161.90245 
L 240.30402 161.846278 
L 240.527235 161.338011 
L 240.973665 159.37013 
L 241.64331 154.189398 
L 241.866524 154.12636 
L 242.089739 155.655057 
L 242.536169 162.722737 
L 242.982599 169.196449 
L 243.205814 169.851675 
L 243.429029 168.813636 
L 243.875458 163.522547 
L 245.214748 144.613607 
L 245.437963 143.868172 
L 245.661177 144.182291 
L 245.884392 145.352097 
L 246.330822 150.483307 
L 247.446896 167.550218 
L 247.670111 168.614314 
L 247.893326 168.874618 
L 248.116541 168.212362 
L 248.339756 166.729473 
L 248.786186 160.976072 
L 249.232616 155.390374 
L 249.45583 153.9466 
L 249.679045 154.763614 
L 250.34869 160.330458 
L 250.571905 160.985382 
L 251.241549 160.984682 
L 251.464764 160.377682 
L 251.687979 159.168096 
L 251.911194 157.10745 
L 252.580839 147.613507 
L 252.804054 146.271402 
L 253.027268 147.053671 
L 253.473698 154.250035 
L 253.920128 162.153599 
L 254.366558 166.036125 
L 254.589773 166.898559 
L 254.812988 166.351125 
L 255.259417 161.96427 
L 255.705847 157.453541 
L 255.929062 157.484521 
L 256.152277 158.930911 
L 257.045136 168.277689 
L 257.268351 169.26118 
L 257.491566 169.362477 
L 257.714781 168.698796 
L 257.937996 167.218015 
L 258.607641 159.633673 
L 258.830855 157.016145 
L 259.05407 155.891378 
L 259.277285 155.883631 
L 259.723715 156.935048 
L 259.94693 157.076126 
L 260.170145 156.766723 
L 260.616574 154.659682 
L 261.509434 147.26087 
L 261.732649 146.941129 
L 261.955864 147.995302 
L 262.402293 151.9872 
L 262.625508 152.389523 
L 262.848723 151.404754 
L 263.295153 148.574682 
L 263.518368 148.711631 
L 263.741583 150.696906 
L 264.857657 167.798509 
L 265.080872 167.531554 
L 265.527302 163.733209 
L 265.973732 159.014487 
L 266.196946 157.949648 
L 266.866591 157.083985 
L 267.089806 156.257929 
L 267.536236 153.880919 
L 267.759451 153.654643 
L 267.982666 154.040194 
L 268.20588 155.047591 
L 268.65231 158.21732 
L 268.875525 159.181223 
L 269.09874 159.266846 
L 269.768385 155.717948 
L 271.330889 144.674511 
L 271.554104 145.329893 
L 272.670178 156.278259 
L 272.893393 155.979272 
L 273.339823 154.16785 
L 273.563038 154.308634 
L 274.009467 156.702994 
L 274.679112 161.414046 
L 275.125542 162.809344 
L 275.348757 162.742782 
L 275.795186 160.518501 
L 276.241616 157.145736 
L 276.688046 153.718 
L 277.134476 151.698879 
L 277.580905 150.746203 
L 277.80412 150.604314 
L 278.027335 150.65894 
L 278.25055 150.979751 
L 278.473765 151.500205 
L 278.69698 151.024558 
L 278.920195 149.596701 
L 279.366624 144.06524 
L 279.813054 138.872806 
L 280.036269 138.266013 
L 280.259484 139.286702 
L 280.482699 142.088662 
L 281.821988 166.003099 
L 282.045203 167.838462 
L 282.268418 168.463451 
L 282.491633 168.143909 
L 282.938063 166.096806 
L 283.830922 160.840539 
L 284.946996 146.243403 
L 285.170211 145.90264 
L 285.393426 147.028289 
L 285.616641 149.196865 
L 286.286286 158.455558 
L 286.509501 158.814906 
L 286.732716 157.484443 
L 287.625575 145.596908 
L 287.84879 145.364275 
L 288.072005 146.965164 
L 288.518435 154.909104 
L 288.964864 163.462972 
L 289.188079 165.812233 
L 289.411294 166.553237 
L 289.857724 166.269795 
L 290.080939 166.744691 
L 290.527368 170.613286 
L 290.750583 172.252988 
L 290.973798 172.787355 
L 291.197013 171.939975 
L 292.313088 161.77361 
L 293.205947 157.591371 
L 293.652377 158.244007 
L 293.875592 158.117421 
L 294.098807 157.265075 
L 294.545236 154.011244 
L 295.214881 149.095092 
L 295.438096 148.37295 
L 295.661311 148.054116 
L 296.330955 145.782386 
L 297.0006 142.610075 
L 297.223815 142.483774 
L 297.89346 142.960155 
L 298.116674 142.366033 
L 298.786319 137.83943 
L 299.009534 137.925381 
L 299.232749 139.56738 
L 300.795253 157.566101 
L 301.241683 161.178866 
L 301.911327 167.27144 
L 302.134542 168.382873 
L 302.357757 168.492461 
L 302.804187 165.791082 
L 304.589906 150.677923 
L 304.813121 149.93913 
L 305.036336 150.322547 
L 306.15241 157.505827 
L 306.822055 164.013092 
L 307.04527 164.180986 
L 307.268485 162.76123 
L 307.714914 157.550538 
L 308.161344 150.420235 
L 308.830989 139.106985 
L 309.054204 137.88548 
L 309.277418 139.265094 
L 309.723848 146.769211 
L 310.170278 153.969893 
L 310.393493 154.945231 
L 310.616708 154.97748 
L 311.286352 153.514982 
L 311.509567 153.794666 
L 311.732782 154.649396 
L 311.955997 156.234524 
L 312.625642 162.947977 
L 312.848857 163.431371 
L 313.072071 163.074787 
L 313.295286 162.484386 
L 313.518501 162.789946 
L 313.741716 164.75306 
L 314.634576 179.995309 
L 314.857791 181.447926 
L 315.081005 181.599083 
L 315.30422 180.690263 
L 315.75065 175.979469 
L 316.19708 170.289253 
L 316.420295 168.89868 
L 316.64351 168.488117 
L 316.866724 168.522931 
L 317.089939 168.187074 
L 317.313154 166.685366 
L 318.429229 154.614945 
L 318.652443 154.661712 
L 319.098873 156.550249 
L 319.322088 157.134759 
L 319.545303 156.87322 
L 319.991733 152.423508 
L 320.438163 146.750962 
L 320.661377 145.05419 
L 320.884592 144.235552 
L 321.107807 144.775723 
L 321.554237 148.242522 
L 321.777452 150.183301 
L 322.000667 150.849219 
L 322.223882 150.083048 
L 323.116741 141.883139 
L 323.339956 141.525329 
L 323.563171 142.570899 
L 324.009601 146.279054 
L 324.232816 148.242876 
L 324.45603 148.987956 
L 324.679245 148.395863 
L 325.125675 146.335053 
L 325.34889 146.26071 
L 325.572105 147.099065 
L 326.018535 151.637741 
L 326.911394 160.622458 
L 327.357824 163.695761 
L 327.581039 164.521022 
L 327.804254 164.386414 
L 328.250683 163.978779 
L 328.473898 163.217186 
L 328.697113 161.689897 
L 329.143543 155.889556 
L 329.589973 151.187744 
L 329.813188 151.075867 
L 330.036402 152.315008 
L 330.706047 157.453066 
L 330.929262 157.278652 
L 331.152477 155.551074 
L 331.598907 148.974285 
L 332.268551 137.647803 
L 332.491766 135.276166 
L 332.714981 134.455671 
L 332.938196 135.807311 
L 333.384626 143.351787 
L 333.831055 150.758294 
L 334.05427 152.168481 
L 334.277485 152.12269 
L 334.5007 150.700006 
L 334.94713 144.50819 
L 335.616774 134.819441 
L 335.839989 133.830371 
L 336.063204 134.384826 
L 336.509634 138.034987 
L 336.956064 141.578435 
L 337.402493 143.799452 
L 337.625708 146.411806 
L 338.072138 157.735739 
L 338.741783 177.713119 
L 338.964998 180.338472 
L 339.188213 180.305903 
L 339.857857 176.241087 
L 340.304287 175.023477 
L 340.750717 171.869155 
L 342.536436 153.77748 
L 342.759651 154.109588 
L 343.20608 155.985956 
L 343.429295 156.013913 
L 344.09894 154.384661 
L 344.322155 155.531693 
L 345.438229 167.588357 
L 345.661444 168.248057 
L 345.884659 168.224306 
L 346.107874 167.650531 
L 346.331089 165.997529 
L 346.777519 158.576391 
L 347.223948 150.540291 
L 347.670378 147.16269 
L 348.563238 143.043265 
L 348.786452 143.674075 
L 349.902527 152.952762 
L 350.795386 161.663745 
L 351.465031 162.718159 
L 351.688246 163.450432 
L 352.134676 166.050885 
L 352.357891 166.725544 
L 352.581105 167.03619 
L 352.80432 166.760582 
L 353.25075 164.425459 
L 353.473965 162.27458 
L 353.920395 154.512309 
L 354.590039 141.958873 
L 354.813254 139.822434 
L 355.259684 138.472271 
L 355.929329 136.466519 
L 356.152544 137.768119 
L 356.598973 145.199318 
L 357.045403 152.838121 
L 357.268618 154.437387 
L 357.491833 154.705006 
L 358.161477 152.86359 
L 358.384692 153.348539 
L 358.831122 155.308103 
L 359.277552 159.357115 
L 359.723982 163.031717 
L 359.947196 163.152826 
L 360.170411 161.525742 
L 360.840056 151.401178 
L 361.732916 139.451107 
L 361.95613 138.244785 
L 362.179345 138.352664 
L 362.40256 139.457679 
L 362.84899 143.572035 
L 363.518635 151.229666 
L 363.741849 152.370929 
L 364.188279 153.575325 
L 364.411494 155.175783 
L 364.857924 162.522292 
L 365.304354 168.379962 
L 365.527569 168.615402 
L 366.197213 163.287513 
L 366.420428 163.492768 
L 366.866858 165.722301 
L 367.090073 165.858334 
L 367.313288 165.037745 
L 368.429362 157.943266 
L 369.099007 150.088999 
L 369.322221 149.337251 
L 369.545436 149.9345 
L 369.991866 151.484832 
L 370.438296 151.891128 
L 370.661511 152.359857 
L 370.884726 153.465287 
L 371.331155 157.423365 
L 372.224015 166.501677 
L 372.670445 168.435953 
L 372.89366 168.363311 
L 373.116874 167.171041 
L 373.786519 161.949873 
L 374.232949 159.73073 
L 374.456164 158.95841 
L 375.349023 153.951229 
L 375.572238 153.690389 
L 375.795453 154.361558 
L 376.241883 157.232801 
L 376.465098 157.867982 
L 376.688313 156.840634 
L 377.134742 150.662774 
L 377.581172 145.295684 
L 377.804387 144.913829 
L 378.027602 146.406218 
L 378.474032 153.971939 
L 378.920461 161.78596 
L 379.143676 164.108784 
L 379.366891 164.444624 
L 379.813321 161.77564 
L 380.259751 159.176491 
L 380.482966 159.116631 
L 381.15261 162.41507 
L 381.375825 162.633124 
L 381.59904 161.441899 
L 382.715114 149.664696 
L 383.384759 144.423465 
L 383.607974 143.497044 
L 383.831189 143.357513 
L 384.054404 143.374207 
L 384.500833 142.805467 
L 384.947263 141.902304 
L 385.170478 141.764465 
L 385.393693 141.805523 
L 385.616908 141.397491 
L 386.063338 139.632145 
L 386.286552 139.143733 
L 386.509767 139.902494 
L 386.732982 142.624238 
L 387.625842 158.072814 
L 387.849057 158.166857 
L 388.072271 156.130981 
L 388.741916 145.461375 
L 388.965131 143.179963 
L 389.188346 142.141889 
L 389.411561 142.359469 
L 389.857991 144.135369 
L 391.19728 155.241532 
L 391.64371 162.507204 
L 392.313354 176.487944 
L 392.759784 182.204994 
L 392.982999 183.827821 
L 393.206214 184.430381 
L 393.429429 182.93801 
L 393.875858 173.220148 
L 394.322288 161.506958 
L 394.545503 158.32766 
L 394.768718 157.677374 
L 395.438363 160.937596 
L 395.661577 161.277659 
L 396.554437 159.052894 
L 396.777652 159.485298 
L 397.447296 161.438609 
L 397.670511 160.702415 
L 398.563371 155.597814 
L 398.786586 155.610104 
L 399.009801 156.597508 
L 399.679445 161.459993 
L 400.125875 162.700299 
L 400.79552 165.713535 
L 401.018735 165.343089 
L 401.465164 163.2812 
L 402.358024 157.214638 
L 402.804454 153.572872 
L 403.027669 153.491931 
L 403.250883 155.100084 
L 403.697313 159.982087 
L 403.920528 160.872252 
L 404.143743 160.704505 
L 404.366958 160.281809 
L 404.590173 160.919382 
L 405.259817 164.275884 
L 405.483032 164.407262 
L 405.706247 164.178257 
L 405.929462 164.374159 
L 406.375892 165.974996 
L 406.599107 165.862523 
L 406.822321 164.668603 
L 407.268751 159.480038 
L 407.715181 154.223961 
L 407.938396 153.658313 
L 408.161611 154.575122 
L 409.05447 161.648925 
L 409.277685 162.50571 
L 409.5009 162.381301 
L 409.94733 161.083648 
L 410.170545 159.943197 
L 410.39376 159.665827 
L 410.616974 160.930885 
L 411.063404 165.575152 
L 411.286619 166.719619 
L 411.509834 166.032109 
L 411.956264 160.67882 
L 413.072338 144.236131 
L 413.295553 142.768226 
L 413.518768 142.822274 
L 414.188413 146.840548 
L 414.411627 146.596187 
L 414.858057 144.493317 
L 415.304487 142.443908 
L 415.527702 142.366741 
L 415.750917 143.673462 
L 416.420561 152.852207 
L 416.866991 158.284754 
L 417.090206 159.814072 
L 417.536636 160.616707 
L 417.759851 161.585783 
L 418.20628 165.446882 
L 418.65271 169.844334 
L 418.875925 170.324429 
L 419.09914 169.724442 
L 419.991999 163.125596 
L 420.215214 163.444939 
L 421.108074 168.432282 
L 421.331289 168.621948 
L 421.554504 167.715685 
L 421.777719 165.926217 
L 422.893793 152.255286 
L 423.117008 151.297074 
L 423.563438 151.045691 
L 423.786652 151.153786 
L 424.009867 152.047967 
L 424.233082 154.636856 
L 424.902727 165.613411 
L 425.125942 167.269756 
L 425.349157 167.788983 
L 425.572371 167.085686 
L 426.911661 155.488139 
L 427.134876 154.040902 
L 427.358091 153.414565 
L 427.581305 154.356394 
L 428.25095 160.805034 
L 428.474165 161.008424 
L 428.69738 159.250445 
L 429.367024 150.459393 
L 429.590239 150.468712 
L 429.813454 152.437845 
L 430.483099 162.213882 
L 430.706314 164.012194 
L 430.929529 164.464229 
L 431.152744 163.696909 
L 431.375958 161.475944 
L 431.822388 152.575493 
L 432.268818 143.964668 
L 432.492033 143.009919 
L 432.715248 144.429131 
L 433.161677 150.07664 
L 433.384892 151.363532 
L 433.608107 151.163191 
L 434.054537 148.529737 
L 434.277752 148.471303 
L 434.500967 149.814738 
L 435.840256 164.314843 
L 436.286686 167.117451 
L 436.509901 167.043341 
L 436.95633 164.367025 
L 437.179545 162.998095 
L 437.40276 162.441143 
L 437.625975 162.594156 
L 438.072405 164.738835 
L 438.29562 164.588767 
L 438.518835 162.506815 
L 438.965264 153.159632 
L 439.411694 144.603027 
L 439.634909 142.561883 
L 439.858124 141.619743 
L 440.081339 141.852963 
L 440.527769 146.15316 
L 440.974198 151.767056 
L 441.197413 152.922923 
L 441.420628 152.358622 
L 442.090273 147.680432 
L 442.313488 147.77533 
L 442.536702 149.233829 
L 443.875992 162.461085 
L 444.099207 163.076506 
L 444.322421 162.775264 
L 445.661711 154.107956 
L 446.108141 150.759572 
L 446.55457 146.189044 
L 447.224215 135.964098 
L 447.44743 134.269658 
L 447.670645 133.643917 
L 447.89386 133.981536 
L 449.009934 142.153151 
L 449.902794 149.179704 
L 450.126008 149.788362 
L 450.349223 149.610096 
L 450.795653 148.686568 
L 451.018868 149.262606 
L 451.688513 153.815031 
L 451.911727 153.244944 
L 452.358157 147.826777 
L 452.804587 141.293654 
L 453.027802 139.281848 
L 453.251017 138.470569 
L 453.474232 139.092674 
L 453.920661 143.837832 
L 454.590306 150.615653 
L 455.036736 152.472399 
L 455.483166 153.705184 
L 455.70638 153.984817 
L 455.929595 154.571054 
L 456.15281 155.581845 
L 456.376025 157.277719 
L 456.822455 163.477317 
L 457.268885 170.030935 
L 457.492099 172.313996 
L 457.715314 173.334219 
L 457.938529 172.800983 
L 458.384959 169.597866 
L 458.831389 165.388154 
L 459.947463 149.825309 
L 460.170678 149.51607 
L 460.393893 149.908081 
L 460.617108 150.814958 
L 461.063538 154.515496 
L 461.956397 165.15679 
L 462.179612 165.645971 
L 462.402827 164.70067 
L 463.295686 156.625568 
L 463.518901 156.668223 
L 463.742116 158.096296 
L 464.411761 166.216965 
L 464.858191 170.848752 
L 465.081405 171.314432 
L 465.30462 170.410371 
L 466.19748 162.81222 
L 466.420695 163.012984 
L 466.867124 164.78131 
L 467.090339 164.431963 
L 467.536769 160.985891 
L 467.983199 157.511587 
L 468.206414 156.567574 
L 468.652844 155.551825 
L 469.099273 152.929936 
L 469.768918 146.955327 
L 470.215348 142.452139 
L 470.438563 141.567121 
L 470.661777 142.614954 
L 471.331422 149.738771 
L 471.554637 149.604016 
L 472.001067 146.182671 
L 472.670711 140.851767 
L 473.117141 138.570995 
L 473.340356 138.083161 
L 473.563571 138.363736 
L 474.010001 140.007523 
L 474.45643 144.261263 
L 475.79572 163.19904 
L 476.018935 163.986751 
L 476.242149 163.154355 
L 476.465364 160.729663 
L 477.581439 142.646875 
L 477.804654 143.614414 
L 478.251083 151.158069 
L 478.697513 159.161593 
L 479.143943 163.154269 
L 479.367158 163.404555 
L 479.590373 162.651183 
L 480.036802 159.396929 
L 480.483232 156.715638 
L 480.706447 157.977372 
L 481.152877 165.66409 
L 481.599307 174.518284 
L 481.822522 176.514449 
L 482.045736 176.614598 
L 482.268951 175.529041 
L 482.715381 171.279696 
L 483.161811 165.095074 
L 483.608241 159.107856 
L 483.831455 158.71949 
L 484.5011 161.924931 
L 484.724315 161.442866 
L 485.617174 154.716467 
L 485.840389 154.161761 
L 486.063604 154.605894 
L 486.510034 157.459241 
L 487.849323 169.315236 
L 488.072538 169.209715 
L 488.518968 166.205496 
L 489.635042 155.471687 
L 489.858257 156.612924 
L 490.304687 165.015566 
L 490.751117 173.132729 
L 490.974332 175.229026 
L 491.197547 175.578925 
L 491.420761 174.118794 
L 491.867191 168.31024 
L 492.313621 160.80177 
L 492.760051 156.941992 
L 492.983266 156.95512 
L 493.65291 159.674506 
L 493.876125 159.864173 
L 494.09934 159.847176 
L 494.322555 159.5808 
L 494.54577 158.79892 
L 495.215414 153.65935 
L 496.331489 144.042042 
L 496.554704 143.52798 
L 496.777919 143.657778 
L 497.001133 144.110366 
L 497.224348 144.903975 
L 498.563638 152.996972 
L 499.902927 165.534897 
L 500.126142 164.67806 
L 500.572572 159.199956 
L 501.019001 152.224506 
L 501.242216 150.340969 
L 501.465431 149.556437 
L 501.688646 149.358117 
L 501.911861 149.425128 
L 502.358291 150.39626 
L 502.581505 150.19249 
L 502.80472 149.236169 
L 503.25115 144.460853 
L 503.920795 136.308445 
L 504.14401 134.732204 
L 504.367224 134.014985 
L 504.590439 134.077643 
L 504.813654 134.43085 
L 505.706514 138.712271 
L 505.929729 139.311523 
L 506.376158 141.637733 
L 506.822588 145.155729 
L 507.269018 148.576772 
L 507.492233 149.411542 
L 507.715448 149.633509 
L 508.161877 148.318264 
L 508.385092 148.361921 
L 508.608307 149.460339 
L 509.054737 154.711268 
L 509.724382 167.625442 
L 510.394026 181.886627 
L 510.617241 184.162235 
L 510.840456 184.904293 
L 511.063671 184.073685 
L 511.510101 177.797671 
L 511.95653 169.741974 
L 512.179745 167.782903 
L 512.40296 168.040133 
L 513.072605 173.32363 
L 513.29582 173.380726 
L 513.519035 171.657095 
L 514.635109 158.78245 
L 515.081539 156.724067 
L 515.304754 157.810385 
L 515.974398 166.143849 
L 516.197613 166.889041 
L 516.420828 165.946962 
L 517.090473 159.871419 
L 517.536902 157.260697 
L 517.983332 153.996839 
L 518.429762 147.845924 
L 518.429762 147.845924 
" style="fill:none;stroke:#000000;stroke-linecap:square;stroke-width:1.5;"/>
   </g>
   <g id="patch_3">
    <path d="M 72 252 
L 72 34.56 
" style="fill:none;stroke:#000000;stroke-linecap:square;stroke-linejoin:miter;stroke-width:0.8;"/>
   </g>
   <g id="patch_4">
    <path d="M 518.4 252 
L 518.4 34.56 
" style="fill:none;stroke:#000000;stroke-linecap:square;stroke-linejoin:miter;stroke-width:0.8;"/>
   </g>
   <g id="patch_5">
    <path d="M 72 252 
L 518.4 252 
" style="fill:none;stroke:#000000;stroke-linecap:square;stroke-linejoin:miter;stroke-width:0.8;"/>
   </g>
   <g id="patch_6">
    <path d="M 72 34.56 
L 518.4 34.56 
" style="fill:none;stroke:#000000;stroke-linecap:square;stroke-linejoin:miter;stroke-width:0.8;"/>
   </g>
  </g>
 </g>
 <defs>
  <clipPath id="p1bb45fb823">
   <rect height="217.44" width="446.4" x="72" y="34.56"/>
  </clipPath>
 </defs>
</svg>
