<?xml version="1.0" encoding="utf-8" standalone="no"?>
<!DOCTYPE svg PUBLIC "-//W3C//DTD SVG 1.1//EN"
  "http://www.w3.org/Graphics/SVG/1.1/DTD/svg11.dtd">
<!-- Created with matplotlib (https://matplotlib.org/) -->
<svg height="288pt" version="1.1" viewBox="0 0 576 288" width="576pt" xmlns="http://www.w3.org/2000/svg" xmlns:xlink="http://www.w3.org/1999/xlink">
 <defs>
  <style type="text/css">
*{stroke-linecap:butt;stroke-linejoin:round;}
  </style>
 </defs>
 <g id="figure_1">
  <g id="patch_1">
   <path d="M 0 288 
L 576 288 
L 576 0 
L 0 0 
z
" style="fill:#ffffff;"/>
  </g>
  <g id="axes_1">
   <g id="patch_2">
    <path d="M 72 252 
L 518.4 252 
L 518.4 34.56 
L 72 34.56 
z
" style="fill:#ffffff;"/>
   </g>
   <g id="matplotlib.axis_1">
    <g id="xtick_1">
     <g id="line2d_1">
      <path clip-path="url(#p6f8f75b374)" d="M 127.604602 252 
L 127.604602 34.56 
" style="fill:none;stroke:#b0b0b0;stroke-linecap:square;stroke-width:0.8;"/>
     </g>
     <g id="line2d_2">
      <defs>
       <path d="M 0 0 
L 0 3.5 
" id="md7f5a8c349" style="stroke:#000000;stroke-width:0.8;"/>
      </defs>
      <g>
       <use style="stroke:#000000;stroke-width:0.8;" x="127.604602" xlink:href="#md7f5a8c349" y="252"/>
      </g>
     </g>
     <g id="text_1">
      <!-- 2.5 -->
      <defs>
       <path d="M 19.1875 8.296875 
L 53.609375 8.296875 
L 53.609375 0 
L 7.328125 0 
L 7.328125 8.296875 
Q 12.9375 14.109375 22.625 23.890625 
Q 32.328125 33.6875 34.8125 36.53125 
Q 39.546875 41.84375 41.421875 45.53125 
Q 43.3125 49.21875 43.3125 52.78125 
Q 43.3125 58.59375 39.234375 62.25 
Q 35.15625 65.921875 28.609375 65.921875 
Q 23.96875 65.921875 18.8125 64.3125 
Q 13.671875 62.703125 7.8125 59.421875 
L 7.8125 69.390625 
Q 13.765625 71.78125 18.9375 73 
Q 24.125 74.21875 28.421875 74.21875 
Q 39.75 74.21875 46.484375 68.546875 
Q 53.21875 62.890625 53.21875 53.421875 
Q 53.21875 48.921875 51.53125 44.890625 
Q 49.859375 40.875 45.40625 35.40625 
Q 44.1875 33.984375 37.640625 27.21875 
Q 31.109375 20.453125 19.1875 8.296875 
z
" id="DejaVuSans-50"/>
       <path d="M 10.6875 12.40625 
L 21 12.40625 
L 21 0 
L 10.6875 0 
z
" id="DejaVuSans-46"/>
       <path d="M 10.796875 72.90625 
L 49.515625 72.90625 
L 49.515625 64.59375 
L 19.828125 64.59375 
L 19.828125 46.734375 
Q 21.96875 47.46875 24.109375 47.828125 
Q 26.265625 48.1875 28.421875 48.1875 
Q 40.625 48.1875 47.75 41.5 
Q 54.890625 34.8125 54.890625 23.390625 
Q 54.890625 11.625 47.5625 5.09375 
Q 40.234375 -1.421875 26.90625 -1.421875 
Q 22.3125 -1.421875 17.546875 -0.640625 
Q 12.796875 0.140625 7.71875 1.703125 
L 7.71875 11.625 
Q 12.109375 9.234375 16.796875 8.0625 
Q 21.484375 6.890625 26.703125 6.890625 
Q 35.15625 6.890625 40.078125 11.328125 
Q 45.015625 15.765625 45.015625 23.390625 
Q 45.015625 31 40.078125 35.4375 
Q 35.15625 39.890625 26.703125 39.890625 
Q 22.75 39.890625 18.8125 39.015625 
Q 14.890625 38.140625 10.796875 36.28125 
z
" id="DejaVuSans-53"/>
      </defs>
      <g transform="translate(119.65304 266.598437)scale(0.1 -0.1)">
       <use xlink:href="#DejaVuSans-50"/>
       <use x="63.623047" xlink:href="#DejaVuSans-46"/>
       <use x="95.410156" xlink:href="#DejaVuSans-53"/>
      </g>
     </g>
    </g>
    <g id="xtick_2">
     <g id="line2d_3">
      <path clip-path="url(#p6f8f75b374)" d="M 183.432516 252 
L 183.432516 34.56 
" style="fill:none;stroke:#b0b0b0;stroke-linecap:square;stroke-width:0.8;"/>
     </g>
     <g id="line2d_4">
      <g>
       <use style="stroke:#000000;stroke-width:0.8;" x="183.432516" xlink:href="#md7f5a8c349" y="252"/>
      </g>
     </g>
     <g id="text_2">
      <!-- 5.0 -->
      <defs>
       <path d="M 31.78125 66.40625 
Q 24.171875 66.40625 20.328125 58.90625 
Q 16.5 51.421875 16.5 36.375 
Q 16.5 21.390625 20.328125 13.890625 
Q 24.171875 6.390625 31.78125 6.390625 
Q 39.453125 6.390625 43.28125 13.890625 
Q 47.125 21.390625 47.125 36.375 
Q 47.125 51.421875 43.28125 58.90625 
Q 39.453125 66.40625 31.78125 66.40625 
z
M 31.78125 74.21875 
Q 44.046875 74.21875 50.515625 64.515625 
Q 56.984375 54.828125 56.984375 36.375 
Q 56.984375 17.96875 50.515625 8.265625 
Q 44.046875 -1.421875 31.78125 -1.421875 
Q 19.53125 -1.421875 13.0625 8.265625 
Q 6.59375 17.96875 6.59375 36.375 
Q 6.59375 54.828125 13.0625 64.515625 
Q 19.53125 74.21875 31.78125 74.21875 
z
" id="DejaVuSans-48"/>
      </defs>
      <g transform="translate(175.480954 266.598437)scale(0.1 -0.1)">
       <use xlink:href="#DejaVuSans-53"/>
       <use x="63.623047" xlink:href="#DejaVuSans-46"/>
       <use x="95.410156" xlink:href="#DejaVuSans-48"/>
      </g>
     </g>
    </g>
    <g id="xtick_3">
     <g id="line2d_5">
      <path clip-path="url(#p6f8f75b374)" d="M 239.26043 252 
L 239.26043 34.56 
" style="fill:none;stroke:#b0b0b0;stroke-linecap:square;stroke-width:0.8;"/>
     </g>
     <g id="line2d_6">
      <g>
       <use style="stroke:#000000;stroke-width:0.8;" x="239.26043" xlink:href="#md7f5a8c349" y="252"/>
      </g>
     </g>
     <g id="text_3">
      <!-- 7.5 -->
      <defs>
       <path d="M 8.203125 72.90625 
L 55.078125 72.90625 
L 55.078125 68.703125 
L 28.609375 0 
L 18.3125 0 
L 43.21875 64.59375 
L 8.203125 64.59375 
z
" id="DejaVuSans-55"/>
      </defs>
      <g transform="translate(231.308868 266.598437)scale(0.1 -0.1)">
       <use xlink:href="#DejaVuSans-55"/>
       <use x="63.623047" xlink:href="#DejaVuSans-46"/>
       <use x="95.410156" xlink:href="#DejaVuSans-53"/>
      </g>
     </g>
    </g>
    <g id="xtick_4">
     <g id="line2d_7">
      <path clip-path="url(#p6f8f75b374)" d="M 295.088344 252 
L 295.088344 34.56 
" style="fill:none;stroke:#b0b0b0;stroke-linecap:square;stroke-width:0.8;"/>
     </g>
     <g id="line2d_8">
      <g>
       <use style="stroke:#000000;stroke-width:0.8;" x="295.088344" xlink:href="#md7f5a8c349" y="252"/>
      </g>
     </g>
     <g id="text_4">
      <!-- 10.0 -->
      <defs>
       <path d="M 12.40625 8.296875 
L 28.515625 8.296875 
L 28.515625 63.921875 
L 10.984375 60.40625 
L 10.984375 69.390625 
L 28.421875 72.90625 
L 38.28125 72.90625 
L 38.28125 8.296875 
L 54.390625 8.296875 
L 54.390625 0 
L 12.40625 0 
z
" id="DejaVuSans-49"/>
      </defs>
      <g transform="translate(283.955532 266.598437)scale(0.1 -0.1)">
       <use xlink:href="#DejaVuSans-49"/>
       <use x="63.623047" xlink:href="#DejaVuSans-48"/>
       <use x="127.246094" xlink:href="#DejaVuSans-46"/>
       <use x="159.033203" xlink:href="#DejaVuSans-48"/>
      </g>
     </g>
    </g>
    <g id="xtick_5">
     <g id="line2d_9">
      <path clip-path="url(#p6f8f75b374)" d="M 350.916258 252 
L 350.916258 34.56 
" style="fill:none;stroke:#b0b0b0;stroke-linecap:square;stroke-width:0.8;"/>
     </g>
     <g id="line2d_10">
      <g>
       <use style="stroke:#000000;stroke-width:0.8;" x="350.916258" xlink:href="#md7f5a8c349" y="252"/>
      </g>
     </g>
     <g id="text_5">
      <!-- 12.5 -->
      <g transform="translate(339.783446 266.598437)scale(0.1 -0.1)">
       <use xlink:href="#DejaVuSans-49"/>
       <use x="63.623047" xlink:href="#DejaVuSans-50"/>
       <use x="127.246094" xlink:href="#DejaVuSans-46"/>
       <use x="159.033203" xlink:href="#DejaVuSans-53"/>
      </g>
     </g>
    </g>
    <g id="xtick_6">
     <g id="line2d_11">
      <path clip-path="url(#p6f8f75b374)" d="M 406.744172 252 
L 406.744172 34.56 
" style="fill:none;stroke:#b0b0b0;stroke-linecap:square;stroke-width:0.8;"/>
     </g>
     <g id="line2d_12">
      <g>
       <use style="stroke:#000000;stroke-width:0.8;" x="406.744172" xlink:href="#md7f5a8c349" y="252"/>
      </g>
     </g>
     <g id="text_6">
      <!-- 15.0 -->
      <g transform="translate(395.61136 266.598437)scale(0.1 -0.1)">
       <use xlink:href="#DejaVuSans-49"/>
       <use x="63.623047" xlink:href="#DejaVuSans-53"/>
       <use x="127.246094" xlink:href="#DejaVuSans-46"/>
       <use x="159.033203" xlink:href="#DejaVuSans-48"/>
      </g>
     </g>
    </g>
    <g id="xtick_7">
     <g id="line2d_13">
      <path clip-path="url(#p6f8f75b374)" d="M 462.572086 252 
L 462.572086 34.56 
" style="fill:none;stroke:#b0b0b0;stroke-linecap:square;stroke-width:0.8;"/>
     </g>
     <g id="line2d_14">
      <g>
       <use style="stroke:#000000;stroke-width:0.8;" x="462.572086" xlink:href="#md7f5a8c349" y="252"/>
      </g>
     </g>
     <g id="text_7">
      <!-- 17.5 -->
      <g transform="translate(451.439274 266.598437)scale(0.1 -0.1)">
       <use xlink:href="#DejaVuSans-49"/>
       <use x="63.623047" xlink:href="#DejaVuSans-55"/>
       <use x="127.246094" xlink:href="#DejaVuSans-46"/>
       <use x="159.033203" xlink:href="#DejaVuSans-53"/>
      </g>
     </g>
    </g>
    <g id="xtick_8">
     <g id="line2d_15">
      <path clip-path="url(#p6f8f75b374)" d="M 518.4 252 
L 518.4 34.56 
" style="fill:none;stroke:#b0b0b0;stroke-linecap:square;stroke-width:0.8;"/>
     </g>
     <g id="line2d_16">
      <g>
       <use style="stroke:#000000;stroke-width:0.8;" x="518.4" xlink:href="#md7f5a8c349" y="252"/>
      </g>
     </g>
     <g id="text_8">
      <!-- 20.0 -->
      <g transform="translate(507.267187 266.598437)scale(0.1 -0.1)">
       <use xlink:href="#DejaVuSans-50"/>
       <use x="63.623047" xlink:href="#DejaVuSans-48"/>
       <use x="127.246094" xlink:href="#DejaVuSans-46"/>
       <use x="159.033203" xlink:href="#DejaVuSans-48"/>
      </g>
     </g>
    </g>
    <g id="text_9">
     <!-- frequência(Hz) -->
     <defs>
      <path d="M 37.109375 75.984375 
L 37.109375 68.5 
L 28.515625 68.5 
Q 23.6875 68.5 21.796875 66.546875 
Q 19.921875 64.59375 19.921875 59.515625 
L 19.921875 54.6875 
L 34.71875 54.6875 
L 34.71875 47.703125 
L 19.921875 47.703125 
L 19.921875 0 
L 10.890625 0 
L 10.890625 47.703125 
L 2.296875 47.703125 
L 2.296875 54.6875 
L 10.890625 54.6875 
L 10.890625 58.5 
Q 10.890625 67.625 15.140625 71.796875 
Q 19.390625 75.984375 28.609375 75.984375 
z
" id="DejaVuSans-102"/>
      <path d="M 41.109375 46.296875 
Q 39.59375 47.171875 37.8125 47.578125 
Q 36.03125 48 33.890625 48 
Q 26.265625 48 22.1875 43.046875 
Q 18.109375 38.09375 18.109375 28.8125 
L 18.109375 0 
L 9.078125 0 
L 9.078125 54.6875 
L 18.109375 54.6875 
L 18.109375 46.1875 
Q 20.953125 51.171875 25.484375 53.578125 
Q 30.03125 56 36.53125 56 
Q 37.453125 56 38.578125 55.875 
Q 39.703125 55.765625 41.0625 55.515625 
z
" id="DejaVuSans-114"/>
      <path d="M 56.203125 29.59375 
L 56.203125 25.203125 
L 14.890625 25.203125 
Q 15.484375 15.921875 20.484375 11.0625 
Q 25.484375 6.203125 34.421875 6.203125 
Q 39.59375 6.203125 44.453125 7.46875 
Q 49.3125 8.734375 54.109375 11.28125 
L 54.109375 2.78125 
Q 49.265625 0.734375 44.1875 -0.34375 
Q 39.109375 -1.421875 33.890625 -1.421875 
Q 20.796875 -1.421875 13.15625 6.1875 
Q 5.515625 13.8125 5.515625 26.8125 
Q 5.515625 40.234375 12.765625 48.109375 
Q 20.015625 56 32.328125 56 
Q 43.359375 56 49.78125 48.890625 
Q 56.203125 41.796875 56.203125 29.59375 
z
M 47.21875 32.234375 
Q 47.125 39.59375 43.09375 43.984375 
Q 39.0625 48.390625 32.421875 48.390625 
Q 24.90625 48.390625 20.390625 44.140625 
Q 15.875 39.890625 15.1875 32.171875 
z
" id="DejaVuSans-101"/>
      <path d="M 14.796875 27.296875 
Q 14.796875 17.390625 18.875 11.75 
Q 22.953125 6.109375 30.078125 6.109375 
Q 37.203125 6.109375 41.296875 11.75 
Q 45.40625 17.390625 45.40625 27.296875 
Q 45.40625 37.203125 41.296875 42.84375 
Q 37.203125 48.484375 30.078125 48.484375 
Q 22.953125 48.484375 18.875 42.84375 
Q 14.796875 37.203125 14.796875 27.296875 
z
M 45.40625 8.203125 
Q 42.578125 3.328125 38.25 0.953125 
Q 33.9375 -1.421875 27.875 -1.421875 
Q 17.96875 -1.421875 11.734375 6.484375 
Q 5.515625 14.40625 5.515625 27.296875 
Q 5.515625 40.1875 11.734375 48.09375 
Q 17.96875 56 27.875 56 
Q 33.9375 56 38.25 53.625 
Q 42.578125 51.265625 45.40625 46.390625 
L 45.40625 54.6875 
L 54.390625 54.6875 
L 54.390625 -20.796875 
L 45.40625 -20.796875 
z
" id="DejaVuSans-113"/>
      <path d="M 8.5 21.578125 
L 8.5 54.6875 
L 17.484375 54.6875 
L 17.484375 21.921875 
Q 17.484375 14.15625 20.5 10.265625 
Q 23.53125 6.390625 29.59375 6.390625 
Q 36.859375 6.390625 41.078125 11.03125 
Q 45.3125 15.671875 45.3125 23.6875 
L 45.3125 54.6875 
L 54.296875 54.6875 
L 54.296875 0 
L 45.3125 0 
L 45.3125 8.40625 
Q 42.046875 3.421875 37.71875 1 
Q 33.40625 -1.421875 27.6875 -1.421875 
Q 18.265625 -1.421875 13.375 4.4375 
Q 8.5 10.296875 8.5 21.578125 
z
M 31.109375 56 
z
" id="DejaVuSans-117"/>
      <path d="M 56.203125 29.59375 
L 56.203125 25.203125 
L 14.890625 25.203125 
Q 15.484375 15.921875 20.484375 11.0625 
Q 25.484375 6.203125 34.421875 6.203125 
Q 39.59375 6.203125 44.453125 7.46875 
Q 49.3125 8.734375 54.109375 11.28125 
L 54.109375 2.78125 
Q 49.265625 0.734375 44.1875 -0.34375 
Q 39.109375 -1.421875 33.890625 -1.421875 
Q 20.796875 -1.421875 13.15625 6.1875 
Q 5.515625 13.8125 5.515625 26.8125 
Q 5.515625 40.234375 12.765625 48.109375 
Q 20.015625 56 32.328125 56 
Q 43.359375 56 49.78125 48.890625 
Q 56.203125 41.796875 56.203125 29.59375 
z
M 47.21875 32.234375 
Q 47.125 39.59375 43.09375 43.984375 
Q 39.0625 48.390625 32.421875 48.390625 
Q 24.90625 48.390625 20.390625 44.140625 
Q 15.875 39.890625 15.1875 32.171875 
z
M 28.171875 79.984375 
L 35.40625 79.984375 
L 47.359375 61.625 
L 40.578125 61.625 
L 31.78125 73.578125 
L 23 61.625 
L 16.21875 61.625 
z
" id="DejaVuSans-234"/>
      <path d="M 54.890625 33.015625 
L 54.890625 0 
L 45.90625 0 
L 45.90625 32.71875 
Q 45.90625 40.484375 42.875 44.328125 
Q 39.84375 48.1875 33.796875 48.1875 
Q 26.515625 48.1875 22.3125 43.546875 
Q 18.109375 38.921875 18.109375 30.90625 
L 18.109375 0 
L 9.078125 0 
L 9.078125 54.6875 
L 18.109375 54.6875 
L 18.109375 46.1875 
Q 21.34375 51.125 25.703125 53.5625 
Q 30.078125 56 35.796875 56 
Q 45.21875 56 50.046875 50.171875 
Q 54.890625 44.34375 54.890625 33.015625 
z
" id="DejaVuSans-110"/>
      <path d="M 48.78125 52.59375 
L 48.78125 44.1875 
Q 44.96875 46.296875 41.140625 47.34375 
Q 37.3125 48.390625 33.40625 48.390625 
Q 24.65625 48.390625 19.8125 42.84375 
Q 14.984375 37.3125 14.984375 27.296875 
Q 14.984375 17.28125 19.8125 11.734375 
Q 24.65625 6.203125 33.40625 6.203125 
Q 37.3125 6.203125 41.140625 7.25 
Q 44.96875 8.296875 48.78125 10.40625 
L 48.78125 2.09375 
Q 45.015625 0.34375 40.984375 -0.53125 
Q 36.96875 -1.421875 32.421875 -1.421875 
Q 20.0625 -1.421875 12.78125 6.34375 
Q 5.515625 14.109375 5.515625 27.296875 
Q 5.515625 40.671875 12.859375 48.328125 
Q 20.21875 56 33.015625 56 
Q 37.15625 56 41.109375 55.140625 
Q 45.0625 54.296875 48.78125 52.59375 
z
" id="DejaVuSans-99"/>
      <path d="M 9.421875 54.6875 
L 18.40625 54.6875 
L 18.40625 0 
L 9.421875 0 
z
M 9.421875 75.984375 
L 18.40625 75.984375 
L 18.40625 64.59375 
L 9.421875 64.59375 
z
" id="DejaVuSans-105"/>
      <path d="M 34.28125 27.484375 
Q 23.390625 27.484375 19.1875 25 
Q 14.984375 22.515625 14.984375 16.5 
Q 14.984375 11.71875 18.140625 8.90625 
Q 21.296875 6.109375 26.703125 6.109375 
Q 34.1875 6.109375 38.703125 11.40625 
Q 43.21875 16.703125 43.21875 25.484375 
L 43.21875 27.484375 
z
M 52.203125 31.203125 
L 52.203125 0 
L 43.21875 0 
L 43.21875 8.296875 
Q 40.140625 3.328125 35.546875 0.953125 
Q 30.953125 -1.421875 24.3125 -1.421875 
Q 15.921875 -1.421875 10.953125 3.296875 
Q 6 8.015625 6 15.921875 
Q 6 25.140625 12.171875 29.828125 
Q 18.359375 34.515625 30.609375 34.515625 
L 43.21875 34.515625 
L 43.21875 35.40625 
Q 43.21875 41.609375 39.140625 45 
Q 35.0625 48.390625 27.6875 48.390625 
Q 23 48.390625 18.546875 47.265625 
Q 14.109375 46.140625 10.015625 43.890625 
L 10.015625 52.203125 
Q 14.9375 54.109375 19.578125 55.046875 
Q 24.21875 56 28.609375 56 
Q 40.484375 56 46.34375 49.84375 
Q 52.203125 43.703125 52.203125 31.203125 
z
" id="DejaVuSans-97"/>
      <path d="M 31 75.875 
Q 24.46875 64.65625 21.28125 53.65625 
Q 18.109375 42.671875 18.109375 31.390625 
Q 18.109375 20.125 21.3125 9.0625 
Q 24.515625 -2 31 -13.1875 
L 23.1875 -13.1875 
Q 15.875 -1.703125 12.234375 9.375 
Q 8.59375 20.453125 8.59375 31.390625 
Q 8.59375 42.28125 12.203125 53.3125 
Q 15.828125 64.359375 23.1875 75.875 
z
" id="DejaVuSans-40"/>
      <path d="M 9.8125 72.90625 
L 19.671875 72.90625 
L 19.671875 43.015625 
L 55.515625 43.015625 
L 55.515625 72.90625 
L 65.375 72.90625 
L 65.375 0 
L 55.515625 0 
L 55.515625 34.71875 
L 19.671875 34.71875 
L 19.671875 0 
L 9.8125 0 
z
" id="DejaVuSans-72"/>
      <path d="M 5.515625 54.6875 
L 48.1875 54.6875 
L 48.1875 46.484375 
L 14.40625 7.171875 
L 48.1875 7.171875 
L 48.1875 0 
L 4.296875 0 
L 4.296875 8.203125 
L 38.09375 47.515625 
L 5.515625 47.515625 
z
" id="DejaVuSans-122"/>
      <path d="M 8.015625 75.875 
L 15.828125 75.875 
Q 23.140625 64.359375 26.78125 53.3125 
Q 30.421875 42.28125 30.421875 31.390625 
Q 30.421875 20.453125 26.78125 9.375 
Q 23.140625 -1.703125 15.828125 -13.1875 
L 8.015625 -13.1875 
Q 14.5 -2 17.703125 9.0625 
Q 20.90625 20.125 20.90625 31.390625 
Q 20.90625 42.671875 17.703125 53.65625 
Q 14.5 64.65625 8.015625 75.875 
z
" id="DejaVuSans-41"/>
     </defs>
     <g transform="translate(258.34375 280.676562)scale(0.1 -0.1)">
      <use xlink:href="#DejaVuSans-102"/>
      <use x="35.205078" xlink:href="#DejaVuSans-114"/>
      <use x="74.068359" xlink:href="#DejaVuSans-101"/>
      <use x="135.591797" xlink:href="#DejaVuSans-113"/>
      <use x="199.068359" xlink:href="#DejaVuSans-117"/>
      <use x="262.447266" xlink:href="#DejaVuSans-234"/>
      <use x="323.970703" xlink:href="#DejaVuSans-110"/>
      <use x="387.349609" xlink:href="#DejaVuSans-99"/>
      <use x="442.330078" xlink:href="#DejaVuSans-105"/>
      <use x="470.113281" xlink:href="#DejaVuSans-97"/>
      <use x="531.392578" xlink:href="#DejaVuSans-40"/>
      <use x="570.40625" xlink:href="#DejaVuSans-72"/>
      <use x="645.601562" xlink:href="#DejaVuSans-122"/>
      <use x="698.091797" xlink:href="#DejaVuSans-41"/>
     </g>
    </g>
   </g>
   <g id="matplotlib.axis_2">
    <g id="ytick_1">
     <g id="line2d_17">
      <path clip-path="url(#p6f8f75b374)" d="M 72 252 
L 518.4 252 
" style="fill:none;stroke:#b0b0b0;stroke-linecap:square;stroke-width:0.8;"/>
     </g>
     <g id="line2d_18">
      <defs>
       <path d="M 0 0 
L -3.5 0 
" id="m70c8f796fa" style="stroke:#000000;stroke-width:0.8;"/>
      </defs>
      <g>
       <use style="stroke:#000000;stroke-width:0.8;" x="72" xlink:href="#m70c8f796fa" y="252"/>
      </g>
     </g>
     <g id="text_10">
      <!-- 0.00 -->
      <g transform="translate(42.734375 255.799219)scale(0.1 -0.1)">
       <use xlink:href="#DejaVuSans-48"/>
       <use x="63.623047" xlink:href="#DejaVuSans-46"/>
       <use x="95.410156" xlink:href="#DejaVuSans-48"/>
       <use x="159.033203" xlink:href="#DejaVuSans-48"/>
      </g>
     </g>
    </g>
    <g id="ytick_2">
     <g id="line2d_19">
      <path clip-path="url(#p6f8f75b374)" d="M 72 220.937143 
L 518.4 220.937143 
" style="fill:none;stroke:#b0b0b0;stroke-linecap:square;stroke-width:0.8;"/>
     </g>
     <g id="line2d_20">
      <g>
       <use style="stroke:#000000;stroke-width:0.8;" x="72" xlink:href="#m70c8f796fa" y="220.937143"/>
      </g>
     </g>
     <g id="text_11">
      <!-- 0.05 -->
      <g transform="translate(42.734375 224.736362)scale(0.1 -0.1)">
       <use xlink:href="#DejaVuSans-48"/>
       <use x="63.623047" xlink:href="#DejaVuSans-46"/>
       <use x="95.410156" xlink:href="#DejaVuSans-48"/>
       <use x="159.033203" xlink:href="#DejaVuSans-53"/>
      </g>
     </g>
    </g>
    <g id="ytick_3">
     <g id="line2d_21">
      <path clip-path="url(#p6f8f75b374)" d="M 72 189.874286 
L 518.4 189.874286 
" style="fill:none;stroke:#b0b0b0;stroke-linecap:square;stroke-width:0.8;"/>
     </g>
     <g id="line2d_22">
      <g>
       <use style="stroke:#000000;stroke-width:0.8;" x="72" xlink:href="#m70c8f796fa" y="189.874286"/>
      </g>
     </g>
     <g id="text_12">
      <!-- 0.10 -->
      <g transform="translate(42.734375 193.673504)scale(0.1 -0.1)">
       <use xlink:href="#DejaVuSans-48"/>
       <use x="63.623047" xlink:href="#DejaVuSans-46"/>
       <use x="95.410156" xlink:href="#DejaVuSans-49"/>
       <use x="159.033203" xlink:href="#DejaVuSans-48"/>
      </g>
     </g>
    </g>
    <g id="ytick_4">
     <g id="line2d_23">
      <path clip-path="url(#p6f8f75b374)" d="M 72 158.811429 
L 518.4 158.811429 
" style="fill:none;stroke:#b0b0b0;stroke-linecap:square;stroke-width:0.8;"/>
     </g>
     <g id="line2d_24">
      <g>
       <use style="stroke:#000000;stroke-width:0.8;" x="72" xlink:href="#m70c8f796fa" y="158.811429"/>
      </g>
     </g>
     <g id="text_13">
      <!-- 0.15 -->
      <g transform="translate(42.734375 162.610647)scale(0.1 -0.1)">
       <use xlink:href="#DejaVuSans-48"/>
       <use x="63.623047" xlink:href="#DejaVuSans-46"/>
       <use x="95.410156" xlink:href="#DejaVuSans-49"/>
       <use x="159.033203" xlink:href="#DejaVuSans-53"/>
      </g>
     </g>
    </g>
    <g id="ytick_5">
     <g id="line2d_25">
      <path clip-path="url(#p6f8f75b374)" d="M 72 127.748571 
L 518.4 127.748571 
" style="fill:none;stroke:#b0b0b0;stroke-linecap:square;stroke-width:0.8;"/>
     </g>
     <g id="line2d_26">
      <g>
       <use style="stroke:#000000;stroke-width:0.8;" x="72" xlink:href="#m70c8f796fa" y="127.748571"/>
      </g>
     </g>
     <g id="text_14">
      <!-- 0.20 -->
      <g transform="translate(42.734375 131.54779)scale(0.1 -0.1)">
       <use xlink:href="#DejaVuSans-48"/>
       <use x="63.623047" xlink:href="#DejaVuSans-46"/>
       <use x="95.410156" xlink:href="#DejaVuSans-50"/>
       <use x="159.033203" xlink:href="#DejaVuSans-48"/>
      </g>
     </g>
    </g>
    <g id="ytick_6">
     <g id="line2d_27">
      <path clip-path="url(#p6f8f75b374)" d="M 72 96.685714 
L 518.4 96.685714 
" style="fill:none;stroke:#b0b0b0;stroke-linecap:square;stroke-width:0.8;"/>
     </g>
     <g id="line2d_28">
      <g>
       <use style="stroke:#000000;stroke-width:0.8;" x="72" xlink:href="#m70c8f796fa" y="96.685714"/>
      </g>
     </g>
     <g id="text_15">
      <!-- 0.25 -->
      <g transform="translate(42.734375 100.484933)scale(0.1 -0.1)">
       <use xlink:href="#DejaVuSans-48"/>
       <use x="63.623047" xlink:href="#DejaVuSans-46"/>
       <use x="95.410156" xlink:href="#DejaVuSans-50"/>
       <use x="159.033203" xlink:href="#DejaVuSans-53"/>
      </g>
     </g>
    </g>
    <g id="ytick_7">
     <g id="line2d_29">
      <path clip-path="url(#p6f8f75b374)" d="M 72 65.622857 
L 518.4 65.622857 
" style="fill:none;stroke:#b0b0b0;stroke-linecap:square;stroke-width:0.8;"/>
     </g>
     <g id="line2d_30">
      <g>
       <use style="stroke:#000000;stroke-width:0.8;" x="72" xlink:href="#m70c8f796fa" y="65.622857"/>
      </g>
     </g>
     <g id="text_16">
      <!-- 0.30 -->
      <defs>
       <path d="M 40.578125 39.3125 
Q 47.65625 37.796875 51.625 33 
Q 55.609375 28.21875 55.609375 21.1875 
Q 55.609375 10.40625 48.1875 4.484375 
Q 40.765625 -1.421875 27.09375 -1.421875 
Q 22.515625 -1.421875 17.65625 -0.515625 
Q 12.796875 0.390625 7.625 2.203125 
L 7.625 11.71875 
Q 11.71875 9.328125 16.59375 8.109375 
Q 21.484375 6.890625 26.8125 6.890625 
Q 36.078125 6.890625 40.9375 10.546875 
Q 45.796875 14.203125 45.796875 21.1875 
Q 45.796875 27.640625 41.28125 31.265625 
Q 36.765625 34.90625 28.71875 34.90625 
L 20.21875 34.90625 
L 20.21875 43.015625 
L 29.109375 43.015625 
Q 36.375 43.015625 40.234375 45.921875 
Q 44.09375 48.828125 44.09375 54.296875 
Q 44.09375 59.90625 40.109375 62.90625 
Q 36.140625 65.921875 28.71875 65.921875 
Q 24.65625 65.921875 20.015625 65.03125 
Q 15.375 64.15625 9.8125 62.3125 
L 9.8125 71.09375 
Q 15.4375 72.65625 20.34375 73.4375 
Q 25.25 74.21875 29.59375 74.21875 
Q 40.828125 74.21875 47.359375 69.109375 
Q 53.90625 64.015625 53.90625 55.328125 
Q 53.90625 49.265625 50.4375 45.09375 
Q 46.96875 40.921875 40.578125 39.3125 
z
" id="DejaVuSans-51"/>
      </defs>
      <g transform="translate(42.734375 69.422076)scale(0.1 -0.1)">
       <use xlink:href="#DejaVuSans-48"/>
       <use x="63.623047" xlink:href="#DejaVuSans-46"/>
       <use x="95.410156" xlink:href="#DejaVuSans-51"/>
       <use x="159.033203" xlink:href="#DejaVuSans-48"/>
      </g>
     </g>
    </g>
    <g id="ytick_8">
     <g id="line2d_31">
      <path clip-path="url(#p6f8f75b374)" d="M 72 34.56 
L 518.4 34.56 
" style="fill:none;stroke:#b0b0b0;stroke-linecap:square;stroke-width:0.8;"/>
     </g>
     <g id="line2d_32">
      <g>
       <use style="stroke:#000000;stroke-width:0.8;" x="72" xlink:href="#m70c8f796fa" y="34.56"/>
      </g>
     </g>
     <g id="text_17">
      <!-- 0.35 -->
      <g transform="translate(42.734375 38.359219)scale(0.1 -0.1)">
       <use xlink:href="#DejaVuSans-48"/>
       <use x="63.623047" xlink:href="#DejaVuSans-46"/>
       <use x="95.410156" xlink:href="#DejaVuSans-51"/>
       <use x="159.033203" xlink:href="#DejaVuSans-53"/>
      </g>
     </g>
    </g>
    <g id="text_18">
     <!-- Densidade espectral(m²/s³) -->
     <defs>
      <path d="M 19.671875 64.796875 
L 19.671875 8.109375 
L 31.59375 8.109375 
Q 46.6875 8.109375 53.6875 14.9375 
Q 60.6875 21.78125 60.6875 36.53125 
Q 60.6875 51.171875 53.6875 57.984375 
Q 46.6875 64.796875 31.59375 64.796875 
z
M 9.8125 72.90625 
L 30.078125 72.90625 
Q 51.265625 72.90625 61.171875 64.09375 
Q 71.09375 55.28125 71.09375 36.53125 
Q 71.09375 17.671875 61.125 8.828125 
Q 51.171875 0 30.078125 0 
L 9.8125 0 
z
" id="DejaVuSans-68"/>
      <path d="M 44.28125 53.078125 
L 44.28125 44.578125 
Q 40.484375 46.53125 36.375 47.5 
Q 32.28125 48.484375 27.875 48.484375 
Q 21.1875 48.484375 17.84375 46.4375 
Q 14.5 44.390625 14.5 40.28125 
Q 14.5 37.15625 16.890625 35.375 
Q 19.28125 33.59375 26.515625 31.984375 
L 29.59375 31.296875 
Q 39.15625 29.25 43.1875 25.515625 
Q 47.21875 21.78125 47.21875 15.09375 
Q 47.21875 7.46875 41.1875 3.015625 
Q 35.15625 -1.421875 24.609375 -1.421875 
Q 20.21875 -1.421875 15.453125 -0.5625 
Q 10.6875 0.296875 5.421875 2 
L 5.421875 11.28125 
Q 10.40625 8.6875 15.234375 7.390625 
Q 20.0625 6.109375 24.8125 6.109375 
Q 31.15625 6.109375 34.5625 8.28125 
Q 37.984375 10.453125 37.984375 14.40625 
Q 37.984375 18.0625 35.515625 20.015625 
Q 33.0625 21.96875 24.703125 23.78125 
L 21.578125 24.515625 
Q 13.234375 26.265625 9.515625 29.90625 
Q 5.8125 33.546875 5.8125 39.890625 
Q 5.8125 47.609375 11.28125 51.796875 
Q 16.75 56 26.8125 56 
Q 31.78125 56 36.171875 55.265625 
Q 40.578125 54.546875 44.28125 53.078125 
z
" id="DejaVuSans-115"/>
      <path d="M 45.40625 46.390625 
L 45.40625 75.984375 
L 54.390625 75.984375 
L 54.390625 0 
L 45.40625 0 
L 45.40625 8.203125 
Q 42.578125 3.328125 38.25 0.953125 
Q 33.9375 -1.421875 27.875 -1.421875 
Q 17.96875 -1.421875 11.734375 6.484375 
Q 5.515625 14.40625 5.515625 27.296875 
Q 5.515625 40.1875 11.734375 48.09375 
Q 17.96875 56 27.875 56 
Q 33.9375 56 38.25 53.625 
Q 42.578125 51.265625 45.40625 46.390625 
z
M 14.796875 27.296875 
Q 14.796875 17.390625 18.875 11.75 
Q 22.953125 6.109375 30.078125 6.109375 
Q 37.203125 6.109375 41.296875 11.75 
Q 45.40625 17.390625 45.40625 27.296875 
Q 45.40625 37.203125 41.296875 42.84375 
Q 37.203125 48.484375 30.078125 48.484375 
Q 22.953125 48.484375 18.875 42.84375 
Q 14.796875 37.203125 14.796875 27.296875 
z
" id="DejaVuSans-100"/>
      <path id="DejaVuSans-32"/>
      <path d="M 18.109375 8.203125 
L 18.109375 -20.796875 
L 9.078125 -20.796875 
L 9.078125 54.6875 
L 18.109375 54.6875 
L 18.109375 46.390625 
Q 20.953125 51.265625 25.265625 53.625 
Q 29.59375 56 35.59375 56 
Q 45.5625 56 51.78125 48.09375 
Q 58.015625 40.1875 58.015625 27.296875 
Q 58.015625 14.40625 51.78125 6.484375 
Q 45.5625 -1.421875 35.59375 -1.421875 
Q 29.59375 -1.421875 25.265625 0.953125 
Q 20.953125 3.328125 18.109375 8.203125 
z
M 48.6875 27.296875 
Q 48.6875 37.203125 44.609375 42.84375 
Q 40.53125 48.484375 33.40625 48.484375 
Q 26.265625 48.484375 22.1875 42.84375 
Q 18.109375 37.203125 18.109375 27.296875 
Q 18.109375 17.390625 22.1875 11.75 
Q 26.265625 6.109375 33.40625 6.109375 
Q 40.53125 6.109375 44.609375 11.75 
Q 48.6875 17.390625 48.6875 27.296875 
z
" id="DejaVuSans-112"/>
      <path d="M 18.3125 70.21875 
L 18.3125 54.6875 
L 36.8125 54.6875 
L 36.8125 47.703125 
L 18.3125 47.703125 
L 18.3125 18.015625 
Q 18.3125 11.328125 20.140625 9.421875 
Q 21.96875 7.515625 27.59375 7.515625 
L 36.8125 7.515625 
L 36.8125 0 
L 27.59375 0 
Q 17.1875 0 13.234375 3.875 
Q 9.28125 7.765625 9.28125 18.015625 
L 9.28125 47.703125 
L 2.6875 47.703125 
L 2.6875 54.6875 
L 9.28125 54.6875 
L 9.28125 70.21875 
z
" id="DejaVuSans-116"/>
      <path d="M 9.421875 75.984375 
L 18.40625 75.984375 
L 18.40625 0 
L 9.421875 0 
z
" id="DejaVuSans-108"/>
      <path d="M 52 44.1875 
Q 55.375 50.25 60.0625 53.125 
Q 64.75 56 71.09375 56 
Q 79.640625 56 84.28125 50.015625 
Q 88.921875 44.046875 88.921875 33.015625 
L 88.921875 0 
L 79.890625 0 
L 79.890625 32.71875 
Q 79.890625 40.578125 77.09375 44.375 
Q 74.3125 48.1875 68.609375 48.1875 
Q 61.625 48.1875 57.5625 43.546875 
Q 53.515625 38.921875 53.515625 30.90625 
L 53.515625 0 
L 44.484375 0 
L 44.484375 32.71875 
Q 44.484375 40.625 41.703125 44.40625 
Q 38.921875 48.1875 33.109375 48.1875 
Q 26.21875 48.1875 22.15625 43.53125 
Q 18.109375 38.875 18.109375 30.90625 
L 18.109375 0 
L 9.078125 0 
L 9.078125 54.6875 
L 18.109375 54.6875 
L 18.109375 46.1875 
Q 21.1875 51.21875 25.484375 53.609375 
Q 29.78125 56 35.6875 56 
Q 41.65625 56 45.828125 52.96875 
Q 50 49.953125 52 44.1875 
z
" id="DejaVuSans-109"/>
      <path d="M 13.09375 38.1875 
L 33.796875 38.1875 
L 33.796875 32.625 
L 4.59375 32.625 
L 4.59375 37.984375 
Q 6.25 39.5 9.328125 42.234375 
Q 26.125 57.125 26.125 61.71875 
Q 26.125 64.9375 23.578125 66.90625 
Q 21.046875 68.890625 16.890625 68.890625 
Q 14.359375 68.890625 11.375 68.03125 
Q 8.40625 67.1875 4.890625 65.484375 
L 4.890625 71.484375 
Q 8.640625 72.859375 11.890625 73.53125 
Q 15.140625 74.21875 17.921875 74.21875 
Q 25 74.21875 29.25 71 
Q 33.5 67.78125 33.5 62.5 
Q 33.5 55.71875 17.328125 41.84375 
Q 14.59375 39.5 13.09375 38.1875 
z
" id="DejaVuSans-178"/>
      <path d="M 25.390625 72.90625 
L 33.6875 72.90625 
L 8.296875 -9.28125 
L 0 -9.28125 
z
" id="DejaVuSans-47"/>
      <path d="M 25.59375 54.6875 
Q 30.078125 53.8125 32.546875 51.140625 
Q 35.015625 48.484375 35.015625 44.484375 
Q 35.015625 38.421875 30.375 35.15625 
Q 25.734375 31.890625 17.09375 31.890625 
Q 14.3125 31.890625 11.25 32.390625 
Q 8.203125 32.90625 4.78125 33.890625 
L 4.78125 39.796875 
Q 7.328125 38.484375 10.234375 37.84375 
Q 13.140625 37.203125 16.40625 37.203125 
Q 21.734375 37.203125 24.65625 39.125 
Q 27.59375 41.0625 27.59375 44.484375 
Q 27.59375 48.09375 24.875 49.953125 
Q 22.171875 51.8125 16.890625 51.8125 
L 12.703125 51.8125 
L 12.703125 57.078125 
L 17.28125 57.078125 
Q 21.875 57.078125 24.234375 58.609375 
Q 26.609375 60.15625 26.609375 63.09375 
Q 26.609375 65.921875 24.171875 67.40625 
Q 21.734375 68.890625 17.09375 68.890625 
Q 15.140625 68.890625 12.640625 68.453125 
Q 10.15625 68.015625 6.203125 66.890625 
L 6.203125 72.515625 
Q 9.765625 73.34375 12.890625 73.78125 
Q 16.015625 74.21875 18.703125 74.21875 
Q 25.734375 74.21875 29.859375 71.328125 
Q 33.984375 68.453125 33.984375 63.625 
Q 33.984375 60.25 31.78125 57.90625 
Q 29.59375 55.5625 25.59375 54.6875 
z
" id="DejaVuSans-179"/>
     </defs>
     <g transform="translate(36.654687 211.6675)rotate(-90)scale(0.1 -0.1)">
      <use xlink:href="#DejaVuSans-68"/>
      <use x="77.001953" xlink:href="#DejaVuSans-101"/>
      <use x="138.525391" xlink:href="#DejaVuSans-110"/>
      <use x="201.904297" xlink:href="#DejaVuSans-115"/>
      <use x="254.003906" xlink:href="#DejaVuSans-105"/>
      <use x="281.787109" xlink:href="#DejaVuSans-100"/>
      <use x="345.263672" xlink:href="#DejaVuSans-97"/>
      <use x="406.542969" xlink:href="#DejaVuSans-100"/>
      <use x="470.019531" xlink:href="#DejaVuSans-101"/>
      <use x="531.542969" xlink:href="#DejaVuSans-32"/>
      <use x="563.330078" xlink:href="#DejaVuSans-101"/>
      <use x="624.853516" xlink:href="#DejaVuSans-115"/>
      <use x="676.953125" xlink:href="#DejaVuSans-112"/>
      <use x="740.429688" xlink:href="#DejaVuSans-101"/>
      <use x="801.953125" xlink:href="#DejaVuSans-99"/>
      <use x="856.933594" xlink:href="#DejaVuSans-116"/>
      <use x="896.142578" xlink:href="#DejaVuSans-114"/>
      <use x="937.255859" xlink:href="#DejaVuSans-97"/>
      <use x="998.535156" xlink:href="#DejaVuSans-108"/>
      <use x="1026.318359" xlink:href="#DejaVuSans-40"/>
      <use x="1065.332031" xlink:href="#DejaVuSans-109"/>
      <use x="1162.744141" xlink:href="#DejaVuSans-178"/>
      <use x="1202.832031" xlink:href="#DejaVuSans-47"/>
      <use x="1236.523438" xlink:href="#DejaVuSans-115"/>
      <use x="1288.623047" xlink:href="#DejaVuSans-179"/>
      <use x="1328.710938" xlink:href="#DejaVuSans-41"/>
     </g>
    </g>
   </g>
   <g id="line2d_33">
    <path clip-path="url(#p6f8f75b374)" d="M 71.925563 238.23883 
L 72.074437 238.549223 
L 72.223312 239.338729 
L 72.818809 244.177796 
L 72.967684 244.854551 
L 73.265433 249.558251 
L 73.414307 244.472897 
L 73.712056 215.8297 
L 73.86093 230.628892 
L 74.158679 184.706407 
L 74.605303 30.476829 
L 74.754177 103.303203 
L 74.903052 39.338652 
L 75.051926 195.362804 
L 75.2008 65.89628 
L 75.349675 90.632909 
L 75.647424 228.972178 
L 75.796298 205.708765 
L 75.945173 245.186585 
L 76.066161 -1 
M 76.527289 -1 
L 76.54067 78.830979 
L 76.626307 -1 
M 76.744171 -1 
L 76.987294 229.154472 
L 77.259119 -1 
M 77.578323 -1 
L 77.582791 17.131861 
L 77.704734 -1 
M 77.737063 -1 
L 77.88054 105.452845 
L 77.930524 -1 
M 78.113416 -1 
L 78.178289 161.653372 
L 78.31461 -1 
M 78.336744 -1 
L 78.476038 216.787931 
L 78.624912 28.940194 
L 78.922661 248.644882 
L 79.071536 189.646249 
L 79.22041 240.284456 
L 79.369285 187.358938 
L 79.518159 245.600401 
L 79.667034 251.93206 
L 79.815908 232.293143 
L 79.964782 247.335289 
L 80.113657 141.503313 
L 80.262531 206.825171 
L 80.411406 194.340274 
L 80.56028 224.487786 
L 80.709155 222.980765 
L 80.858029 226.151879 
L 81.006903 200.25212 
L 81.155778 224.053303 
L 81.453527 53.38357 
L 81.602401 98.831229 
L 81.751276 52.330552 
L 81.774402 -1 
M 82.207343 -1 
L 82.346773 237.034971 
L 82.495648 154.603202 
L 82.644522 165.801538 
L 82.793397 77.508443 
L 82.942271 128.918648 
L 83.085786 -1 
M 83.095131 -1 
L 83.24002 175.396367 
L 83.537769 234.390042 
L 83.835518 82.023468 
L 84.133267 182.198942 
L 84.282141 198.692578 
L 84.431016 241.366184 
L 84.728764 194.54199 
L 85.026513 224.539364 
L 85.175388 145.27547 
L 85.324262 174.960101 
L 85.439695 -1 
M 85.518263 -1 
L 85.770885 195.394526 
L 85.91976 217.252508 
L 86.068634 166.64582 
L 86.217509 210.261218 
L 86.366383 172.848864 
L 86.515258 240.660768 
L 86.789847 -1 
M 86.828612 -1 
L 86.961881 146.254553 
L 87.110755 0.47912 
L 87.25963 216.772712 
L 87.408504 108.044892 
L 87.557379 199.618181 
L 87.706253 222.742956 
L 87.855128 215.229116 
L 88.004002 239.13691 
L 88.301751 229.398047 
L 88.450625 236.500264 
L 88.5995 231.432478 
L 88.748374 184.085967 
L 88.897249 215.132292 
L 89.046123 146.877705 
L 89.194997 183.616491 
L 89.343872 247.814318 
L 89.492746 129.35938 
L 89.641621 251.344655 
L 89.768465 -1 
M 89.874596 -1 
L 89.93937 32.75503 
L 90.062268 -1 
M 90.680845 -1 
L 90.683742 -0.51791 
L 90.832616 62.0034 
L 90.981491 194.73773 
L 91.130365 205.601008 
L 91.27924 233.259885 
L 91.428114 232.779317 
L 91.576988 111.385751 
L 91.725863 238.115785 
L 91.874737 244.910943 
L 92.172486 49.541593 
L 92.228883 -1 
M 93.077809 -1 
L 93.214607 193.191036 
L 93.363482 226.628377 
L 93.661231 63.819791 
L 93.810105 49.138571 
L 93.958979 101.693436 
L 94.107854 80.945362 
L 94.256728 110.99541 
L 94.405603 109.006247 
L 94.852226 244.548808 
L 95.447724 150.34587 
L 95.596598 117.715908 
L 95.894347 242.96405 
L 96.043222 216.942816 
L 96.192096 244.489964 
L 96.34097 142.434518 
L 96.489845 158.649446 
L 96.787594 239.895544 
L 96.936468 198.95032 
L 97.085343 210.760254 
L 97.234217 192.35168 
L 97.383092 136.208245 
L 97.531966 203.048724 
L 97.68084 218.12158 
L 97.978589 86.557503 
L 98.127464 58.172893 
L 98.21405 -1 
M 98.374996 -1 
L 98.425213 20.66696 
L 98.574087 179.048154 
L 98.722961 185.475547 
L 99.02071 235.10334 
L 99.169585 211.763946 
L 99.467334 245.452 
L 99.765083 190.976391 
L 100.062831 228.139807 
L 100.211706 244.11464 
L 100.36058 154.095789 
L 100.658329 228.336688 
L 100.956078 210.179718 
L 101.104952 207.531768 
L 101.253827 197.183426 
L 101.402701 236.711174 
L 101.551576 234.617322 
L 101.70045 238.875223 
L 101.849325 231.744101 
L 101.998199 235.761001 
L 102.295948 226.269158 
L 102.444822 240.124003 
L 102.593697 238.722931 
L 102.742571 239.141232 
L 103.04032 247.101013 
L 103.189195 206.443558 
L 103.338069 128.892388 
L 103.635818 210.19789 
L 103.784692 175.467387 
L 104.082441 231.528667 
L 104.231316 232.901439 
L 104.38019 205.602183 
L 104.826813 239.570381 
L 104.975688 232.761732 
L 105.124562 242.463975 
L 105.422311 232.275911 
L 105.571186 245.296473 
L 106.017809 152.377939 
L 106.166683 130.690078 
L 106.315558 149.075351 
L 106.613307 232.949585 
L 106.762181 225.780316 
L 106.911056 204.081542 
L 107.05993 239.871678 
L 107.357679 91.39156 
L 107.506553 81.534017 
L 107.804302 195.15992 
L 107.953177 192.673926 
L 108.102051 197.343075 
L 108.3998 229.787957 
L 108.548674 246.688601 
L 108.697549 246.408645 
L 108.846423 242.37771 
L 108.995298 248.070707 
L 109.144172 247.212658 
L 109.441921 217.219425 
L 109.590795 225.513446 
L 109.73967 227.438158 
L 109.888544 187.676532 
L 110.037419 182.208306 
L 110.186293 215.741894 
L 110.335168 221.104387 
L 110.484042 218.89303 
L 110.632916 198.802249 
L 110.781791 121.070672 
L 110.930665 128.174923 
L 111.823912 223.850542 
L 111.972786 229.936605 
L 112.121661 247.529467 
L 112.270535 246.010694 
L 112.41941 239.62051 
L 112.568284 226.41608 
L 112.717159 241.223279 
L 113.163782 216.226031 
L 113.461531 246.878417 
L 113.610405 249.968336 
L 113.908154 218.455687 
L 114.057029 193.590379 
L 114.205903 121.244653 
L 114.652526 247.450864 
L 114.801401 219.552853 
L 114.950275 116.790849 
L 115.09915 124.085807 
L 115.396898 212.502376 
L 115.694647 173.687231 
L 116.141271 204.980809 
L 116.43902 180.78848 
L 116.587894 177.731336 
L 116.736768 233.517877 
L 116.885643 247.549043 
L 117.034517 223.398882 
L 117.332266 246.758939 
L 117.630015 244.127699 
L 117.778889 236.231332 
L 117.927764 242.270271 
L 118.076638 213.673408 
L 118.225513 151.176047 
L 118.374387 139.35124 
L 118.523262 152.569483 
L 118.821011 132.459887 
L 118.969885 91.987704 
L 119.118759 101.731303 
L 119.267634 100.907896 
L 119.714257 204.6819 
L 119.863132 199.684324 
L 120.16088 205.070833 
L 120.458629 183.512519 
L 120.607504 183.940397 
L 120.756378 195.283909 
L 121.203002 246.75266 
L 121.351876 249.394165 
L 121.649625 239.564695 
L 121.798499 239.394303 
L 122.096248 248.734775 
L 122.542871 226.454489 
L 122.691746 232.728614 
L 122.84062 227.664182 
L 122.989495 246.435112 
L 123.138369 250.687668 
L 123.287244 245.975918 
L 123.436118 230.575184 
L 123.584992 231.009763 
L 123.733867 215.154101 
L 124.031616 110.702932 
L 124.18049 121.541946 
L 124.329365 172.221615 
L 124.627114 152.289677 
L 124.775988 152.03825 
L 125.073737 205.767758 
L 125.222611 201.106834 
L 125.371486 189.886353 
L 125.669235 225.405135 
L 125.818109 216.95311 
L 125.966983 191.447566 
L 126.115858 201.455274 
L 126.264732 238.40107 
L 126.413607 244.83412 
L 126.562481 222.39558 
L 126.711356 218.109413 
L 127.009105 247.725874 
L 127.306853 225.66655 
L 127.455728 224.41378 
L 127.604602 226.621453 
L 127.753477 225.726068 
L 127.902351 222.910966 
L 128.051226 209.23099 
L 128.646723 235.311386 
L 128.795598 235.190869 
L 129.093347 249.778916 
L 129.391096 242.927888 
L 129.688844 219.208379 
L 129.837719 232.603371 
L 129.986593 230.535943 
L 130.135468 220.475136 
L 130.284342 225.948065 
L 130.582091 246.999831 
L 130.730965 251.23911 
L 130.87984 251.572202 
L 131.028714 249.493597 
L 131.326463 226.243904 
L 131.773087 249.012424 
L 131.921961 238.936341 
L 132.070835 237.543842 
L 132.21971 248.536816 
L 132.368584 245.100246 
L 132.666333 214.995977 
L 132.964082 220.625825 
L 133.112956 205.294591 
L 133.261831 206.568772 
L 133.708454 246.771528 
L 133.857329 243.47902 
L 134.006203 230.609896 
L 134.303952 247.069964 
L 134.601701 251.244721 
L 134.750575 248.104311 
L 134.89945 242.281087 
L 135.048324 230.300832 
L 135.792696 250.235667 
L 136.090445 248.436933 
L 136.23932 248.832437 
L 136.388194 246.326621 
L 136.537069 241.576588 
L 136.685943 241.012145 
L 136.983692 251.967698 
L 137.281441 240.627308 
L 137.430315 214.232848 
L 137.57919 224.188589 
L 137.876938 248.832303 
L 138.174687 245.666758 
L 138.472436 215.875067 
L 138.770185 227.325739 
L 139.216808 213.386032 
L 139.663432 237.63646 
L 139.812306 237.404901 
L 140.110055 246.30419 
L 140.258929 246.511987 
L 140.407804 238.81426 
L 140.556678 224.685346 
L 140.705553 223.606672 
L 141.003302 250.126593 
L 141.152176 242.143304 
L 141.449925 219.491124 
L 141.598799 213.172524 
L 141.747674 183.905659 
L 141.896548 179.809737 
L 142.045423 186.294541 
L 142.343172 154.119741 
L 142.64092 89.113324 
L 142.789795 124.406493 
L 143.087544 230.936725 
L 143.236418 232.967239 
L 143.534167 221.745334 
L 143.683042 228.441292 
L 143.831916 240.971951 
L 143.98079 235.266378 
L 144.129665 218.162466 
L 144.278539 218.651301 
L 144.427414 222.678391 
L 144.725163 217.160754 
L 144.874037 218.417207 
L 145.022911 228.198176 
L 145.32066 191.015168 
L 145.469535 206.64135 
L 145.618409 210.322916 
L 145.767284 198.292202 
L 146.065033 127.904643 
L 146.362781 170.36392 
L 146.66053 226.260339 
L 146.809405 227.09163 
L 147.107154 215.714739 
L 147.256028 192.631599 
L 147.702651 69.986642 
L 147.851526 84.152274 
L 148.298149 242.598062 
L 148.447024 238.241589 
L 148.595898 230.115711 
L 148.893647 246.739545 
L 149.042521 231.126502 
L 149.34027 172.39097 
L 149.489145 187.400118 
L 149.786893 233.700542 
L 149.935768 233.572754 
L 150.233517 218.157123 
L 150.382391 227.049114 
L 150.68014 247.740541 
L 150.829015 249.020929 
L 151.126763 245.805864 
L 151.275638 240.383738 
L 151.424512 245.050509 
L 151.573387 246.101307 
L 151.722261 237.83362 
L 152.02001 248.271651 
L 152.168884 247.7115 
L 152.317759 244.180104 
L 152.764382 204.410689 
L 152.913257 211.026329 
L 153.211006 241.005572 
L 153.508754 246.42313 
L 153.657629 247.014578 
L 153.806503 244.92479 
L 153.955378 244.643592 
L 154.104252 246.323855 
L 154.253127 249.411512 
L 154.550875 244.386474 
L 154.69975 242.091686 
L 154.848624 236.724657 
L 154.997499 236.859799 
L 155.146373 240.20993 
L 155.444122 251.29948 
L 155.741871 245.664484 
L 156.03962 251.263486 
L 156.337369 245.843383 
L 156.486243 246.191593 
L 156.783992 236.330668 
L 157.081741 249.796069 
L 157.230615 249.270058 
L 157.37949 246.181393 
L 157.528364 247.815017 
L 157.677239 243.537451 
L 157.826113 228.750214 
L 157.974987 201.044219 
L 158.123862 198.875649 
L 158.421611 237.534088 
L 158.71936 239.97355 
L 158.868234 242.672816 
L 159.017109 239.701878 
L 159.165983 244.462778 
L 159.314857 244.326862 
L 159.463732 245.668126 
L 159.612606 249.688326 
L 159.761481 249.402131 
L 159.910355 248.583071 
L 160.208104 251.810538 
L 160.505853 249.028516 
L 160.952476 251.174933 
L 161.101351 248.43731 
L 161.3991 239.541888 
L 162.143472 249.553417 
L 162.441221 245.551965 
L 162.590095 246.534012 
L 162.738969 246.492995 
L 163.036718 251.430821 
L 163.185593 250.406717 
L 163.334467 245.674959 
L 163.781091 224.405792 
L 163.929965 218.447877 
L 164.078839 220.104268 
L 164.674337 248.004081 
L 164.823212 251.186266 
L 164.972086 247.065134 
L 165.12096 247.978537 
L 165.418709 251.803806 
L 165.567584 251.783468 
L 166.014207 245.294073 
L 166.311956 235.67575 
L 166.46083 236.807588 
L 166.758579 249.7294 
L 166.907454 251.370553 
L 167.205203 247.446221 
L 167.354077 248.992858 
L 167.651826 247.555244 
L 167.8007 249.722091 
L 167.949575 249.184304 
L 168.247324 246.603434 
L 168.842821 237.200741 
L 169.14057 240.437513 
L 169.289445 245.85853 
L 169.438319 243.158382 
L 169.736068 232.045157 
L 169.884942 230.742471 
L 170.033817 231.742151 
L 170.182691 238.120155 
L 170.927064 244.718195 
L 171.224812 229.476445 
L 171.373687 227.703441 
L 171.671436 241.573094 
L 171.969185 238.9148 
L 172.564682 248.919302 
L 172.713557 247.731476 
L 172.862431 247.700041 
L 173.011306 247.121395 
L 173.457929 242.495022 
L 173.606803 242.786809 
L 173.755678 248.160747 
L 173.904552 248.687909 
L 174.202301 240.289833 
L 174.797799 221.096947 
L 174.946673 222.487525 
L 175.095548 222.649666 
L 175.393297 233.593429 
L 175.691046 215.258098 
L 175.83992 222.237385 
L 176.137669 249.826694 
L 176.286543 251.909361 
L 176.584292 248.593377 
L 176.733167 245.463832 
L 176.882041 245.879603 
L 177.17979 251.018901 
L 177.328664 249.148212 
L 177.477539 245.769856 
L 177.626413 246.435425 
L 177.775288 248.103801 
L 177.924162 247.699858 
L 178.51966 236.118585 
L 178.817409 226.382099 
L 178.966283 224.569619 
L 179.115158 229.160069 
L 179.412906 247.521891 
L 179.561781 247.755686 
L 179.85953 250.683131 
L 180.008404 249.569508 
L 180.157279 245.233183 
L 180.306153 244.256196 
L 180.603902 251.636651 
L 180.752776 251.569804 
L 180.901651 250.034748 
L 181.050525 249.877941 
L 181.1994 250.485423 
L 181.497149 243.289097 
L 181.646023 243.091259 
L 181.794897 242.552746 
L 182.092646 243.125516 
L 182.837019 249.928248 
L 183.134767 245.422081 
L 183.283642 245.624379 
L 183.432516 244.970828 
L 183.581391 241.659225 
L 183.87914 225.700491 
L 184.028014 216.5973 
L 184.176888 219.447411 
L 184.474637 239.254564 
L 184.623512 239.048473 
L 184.772386 235.133366 
L 184.921261 236.761393 
L 185.070135 242.715025 
L 185.21901 243.198682 
L 185.516758 239.27197 
L 185.963382 251.270076 
L 186.112256 251.763371 
L 186.261131 251.482704 
L 186.707754 247.005683 
L 186.856628 242.07503 
L 187.154377 225.182427 
L 187.303252 223.407737 
L 187.452126 223.520005 
L 187.749875 240.001683 
L 187.898749 240.009888 
L 188.196498 237.281482 
L 188.345373 234.086804 
L 188.494247 236.338795 
L 188.791996 244.894825 
L 189.238619 249.469424 
L 189.536368 247.820174 
L 189.982991 250.866206 
L 190.28074 249.75488 
L 190.429615 249.891224 
L 190.578489 250.18205 
L 190.876238 251.495106 
L 191.471736 244.752991 
L 191.769485 235.689304 
L 192.067234 248.012909 
L 192.216108 249.378539 
L 192.364982 247.31919 
L 192.513857 248.208634 
L 192.662731 251.062623 
L 192.811606 250.636895 
L 193.109355 242.018458 
L 193.258229 241.432705 
L 193.407104 243.263924 
L 193.704852 251.626641 
L 194.002601 249.328318 
L 194.30035 251.90446 
L 194.746973 249.565607 
L 194.895848 246.36265 
L 195.044722 246.755882 
L 195.342471 250.920531 
L 195.491346 250.057412 
L 195.937969 242.98291 
L 196.086843 244.88835 
L 196.235718 243.786254 
L 196.533467 227.660424 
L 196.682341 226.114897 
L 197.724462 247.686713 
L 197.873337 247.912877 
L 198.171086 243.710991 
L 198.468834 248.757639 
L 198.617709 251.547098 
L 198.766583 251.492097 
L 198.915458 250.376099 
L 199.213207 250.151478 
L 199.510955 251.801637 
L 199.65983 250.493347 
L 199.957579 245.866606 
L 200.255328 244.859901 
L 200.404202 243.452287 
L 200.850825 249.313838 
L 201.148574 250.435044 
L 201.297449 249.844908 
L 201.446323 248.776267 
L 201.744072 250.041791 
L 202.041821 251.784734 
L 202.33957 247.572762 
L 202.637319 251.479251 
L 202.786193 250.288591 
L 202.935068 250.36208 
L 203.083942 251.565207 
L 203.232816 251.699779 
L 203.67944 250.275774 
L 203.828314 250.659941 
L 203.977189 249.743419 
L 204.274937 246.712874 
L 204.423812 245.976282 
L 204.721561 249.162204 
L 204.870435 248.879983 
L 205.317059 251.912337 
L 205.465933 251.747497 
L 205.912556 249.189576 
L 206.210305 250.583311 
L 206.35918 246.43717 
L 206.656928 235.871193 
L 206.954677 243.210074 
L 207.103552 242.704911 
L 207.252426 242.912401 
L 207.401301 245.435306 
L 207.550175 250.32409 
L 207.69905 251.522431 
L 207.847924 250.869331 
L 207.996798 249.69766 
L 208.890045 232.338477 
L 209.187794 237.803901 
L 209.336668 239.907538 
L 209.485543 238.413736 
L 209.634417 238.046499 
L 209.783292 241.058065 
L 210.081041 250.534591 
L 210.378789 251.927132 
L 210.527664 251.127169 
L 210.676538 249.312685 
L 210.825413 249.453659 
L 211.123162 250.989183 
L 211.272036 251.376861 
L 211.42091 251.401476 
L 211.718659 251.739611 
L 212.016408 249.872032 
L 212.314157 247.02913 
L 212.611906 251.082772 
L 212.76078 250.261816 
L 212.909655 248.104379 
L 213.207404 251.933728 
L 213.356278 250.967723 
L 213.654027 241.241292 
L 214.249525 250.460379 
L 214.547274 240.37448 
L 214.696148 239.991683 
L 214.993897 247.627278 
L 215.142771 247.137751 
L 215.44052 243.298903 
L 215.887144 251.626591 
L 216.184892 248.321389 
L 216.631516 251.912159 
L 216.78039 251.240494 
L 216.929265 251.150895 
L 217.524762 248.377523 
L 217.971386 241.634316 
L 218.418009 246.733853 
L 218.715758 242.483375 
L 218.864632 245.007991 
L 219.162381 251.514284 
L 219.311256 251.975474 
L 219.609005 251.747529 
L 219.906753 251.915158 
L 220.055628 250.12989 
L 220.502251 236.343044 
L 220.948874 249.590111 
L 221.097749 250.088071 
L 221.395498 249.001943 
L 221.544372 249.116015 
L 221.693247 250.637096 
L 221.842121 250.907654 
L 222.13987 248.000338 
L 222.288744 248.183592 
L 222.586493 251.121441 
L 222.735368 251.149854 
L 222.884242 249.820889 
L 223.181991 242.366128 
L 223.330865 242.253252 
L 223.777489 249.583715 
L 224.224112 250.008559 
L 224.670735 246.051058 
L 225.117359 250.875418 
L 225.563982 247.785878 
L 225.712856 246.845831 
L 226.010605 250.775665 
L 226.15948 250.688503 
L 226.308354 249.428019 
L 226.457229 250.317865 
L 226.606103 251.943552 
L 226.754977 251.043771 
L 227.052726 246.873003 
L 227.945973 251.997884 
L 228.094847 251.624639 
L 228.243722 251.633224 
L 228.392596 251.938003 
L 228.541471 251.689671 
L 228.83922 249.176699 
L 229.136968 250.397392 
L 229.434717 251.663916 
L 229.583592 251.992414 
L 229.732466 251.708973 
L 229.881341 251.153873 
L 230.030215 251.357571 
L 230.17909 251.910198 
L 230.476838 251.4751 
L 230.774587 251.643304 
L 230.923462 251.455818 
L 231.221211 248.188477 
L 231.518959 243.546043 
L 231.816708 245.57898 
L 231.965583 246.027059 
L 232.114457 245.784587 
L 232.412206 243.388237 
L 232.561081 244.463072 
L 233.007704 251.13742 
L 233.156578 251.177815 
L 233.603202 245.029015 
L 234.049825 247.877109 
L 234.496448 244.48879 
L 234.645323 245.691515 
L 234.794197 244.992342 
L 235.091946 241.93214 
L 235.24082 243.867975 
L 235.538569 250.710706 
L 235.687444 250.779654 
L 235.836318 250.417058 
L 236.134067 251.937152 
L 236.282941 251.68878 
L 236.58069 250.275962 
L 236.729565 250.373005 
L 237.027314 251.070391 
L 237.176188 250.412042 
L 237.325063 250.330773 
L 237.622811 251.071778 
L 237.771686 250.378045 
L 237.92056 250.41979 
L 238.367184 251.433644 
L 238.516058 251.369082 
L 238.664932 251.013291 
L 238.813807 249.230891 
L 238.962681 248.926588 
L 239.111556 249.455192 
L 239.409305 251.265528 
L 239.558179 251.43004 
L 239.707054 250.649039 
L 240.302551 245.264315 
L 240.749175 250.517767 
L 240.898049 250.062454 
L 241.046923 249.182718 
L 241.195798 249.097269 
L 241.493547 251.753394 
L 241.791296 251.976759 
L 241.94017 251.836038 
L 242.386793 249.748434 
L 242.684542 251.315898 
L 242.833417 250.693101 
L 243.131166 247.343379 
L 243.428914 250.850022 
L 243.726663 247.228052 
L 243.875538 248.21119 
L 244.173287 250.8454 
L 244.322161 250.528788 
L 244.471036 250.480036 
L 244.61991 251.245545 
L 244.917659 251.502883 
L 245.066533 251.243711 
L 245.513157 248.344796 
L 245.662031 248.413073 
L 245.810905 248.654486 
L 246.108654 248.553109 
L 246.257529 249.118447 
L 246.555278 251.192119 
L 246.704152 251.796442 
L 246.853027 251.098956 
L 247.448524 238.206826 
L 247.746273 243.603178 
L 248.192896 248.954608 
L 248.490645 251.521798 
L 248.63952 251.497229 
L 248.937269 250.208816 
L 249.086143 250.289842 
L 249.532766 251.94094 
L 249.681641 251.518327 
L 249.97939 248.787409 
L 250.128264 248.712714 
L 250.426013 251.489288 
L 250.574887 251.667383 
L 250.723762 251.405531 
L 251.021511 251.97702 
L 251.617009 250.009294 
L 252.063632 244.126232 
L 252.510255 246.771359 
L 252.65913 246.919102 
L 252.808004 246.791314 
L 252.956878 246.836604 
L 253.254627 247.404265 
L 253.850125 250.246246 
L 254.296748 250.702523 
L 254.445623 250.460964 
L 254.743372 247.36917 
L 254.892246 247.721747 
L 255.487744 251.586669 
L 255.934367 247.266651 
L 256.38099 250.838243 
L 256.976488 248.809549 
L 257.274237 251.302531 
L 257.423112 251.180712 
L 257.571986 250.028834 
L 257.72086 249.768339 
L 258.018609 251.330565 
L 258.316358 250.043268 
L 258.465233 250.328004 
L 258.762981 251.81442 
L 258.911856 251.292603 
L 259.209605 246.663942 
L 259.358479 246.244182 
L 259.656228 246.52152 
L 260.251726 251.523612 
L 260.549475 251.878901 
L 260.847224 251.862955 
L 261.293847 251.553616 
L 261.591596 251.149461 
L 261.74047 251.567969 
L 261.889345 251.445851 
L 262.335968 250.276684 
L 262.782591 251.919191 
L 263.08034 251.560443 
L 263.229215 251.64648 
L 263.378089 251.952171 
L 263.526963 251.924902 
L 263.824712 251.037347 
L 264.271336 248.853098 
L 264.42021 248.684752 
L 264.717959 248.875189 
L 265.015708 249.895947 
L 265.164582 249.7233 
L 265.462331 247.401914 
L 265.611206 245.803546 
L 265.76008 246.119482 
L 266.057829 248.259146 
L 266.206703 248.945353 
L 266.504452 251.092444 
L 266.653327 251.259859 
L 267.09995 250.976587 
L 267.248824 250.298528 
L 267.546573 247.842938 
L 267.695448 248.058927 
L 267.993197 249.652477 
L 268.142071 249.562543 
L 268.290945 249.232474 
L 268.43982 249.273971 
L 269.035318 251.265395 
L 269.630815 251.754228 
L 269.77969 251.938585 
L 269.928564 251.943112 
L 270.375188 250.135731 
L 270.821811 251.486341 
L 271.11956 251.720762 
L 271.268434 251.882246 
L 271.566183 251.493103 
L 271.863932 251.917344 
L 272.161681 249.445988 
L 272.310555 249.566264 
L 272.608304 251.341969 
L 272.757179 251.056984 
L 272.906053 250.233579 
L 273.054927 250.045405 
L 273.203802 250.153526 
L 273.352676 250.616342 
L 273.501551 250.645712 
L 273.7993 248.657976 
L 273.948174 249.280677 
L 274.097049 250.588119 
L 274.245923 250.822515 
L 274.394797 250.139541 
L 274.543672 250.393018 
L 274.692546 251.281606 
L 274.841421 251.32319 
L 275.13917 250.442855 
L 275.288044 250.544313 
L 275.734667 251.469554 
L 276.032416 251.937818 
L 276.181291 251.949042 
L 276.776788 251.431336 
L 277.521161 249.044168 
L 277.670035 247.742067 
L 278.116658 239.243972 
L 278.563282 248.55454 
L 279.009905 244.932267 
L 279.307654 248.597527 
L 279.605403 250.963341 
L 279.754277 251.044667 
L 280.052026 250.762421 
L 280.2009 250.39445 
L 280.349775 250.426933 
L 280.498649 250.940889 
L 280.647524 250.941928 
L 280.796398 249.97026 
L 281.243022 245.781445 
L 281.54077 249.877651 
L 281.689645 250.034398 
L 281.987394 245.885273 
L 282.136268 247.548011 
L 282.434017 251.943325 
L 282.582891 251.387643 
L 282.731766 250.041813 
L 282.88064 250.202661 
L 283.178389 251.864425 
L 283.625013 249.692848 
L 283.922761 250.347463 
L 284.071636 250.368915 
L 284.369385 249.84208 
L 284.518259 250.167842 
L 284.964882 251.862408 
L 285.56038 251.026735 
L 285.858129 250.376021 
L 286.007004 250.349637 
L 286.453627 249.417449 
L 286.90025 251.099703 
L 287.049125 250.81294 
L 287.346873 249.735735 
L 287.942371 251.062516 
L 288.24012 251.79223 
L 288.686743 251.839405 
L 288.984492 251.974763 
L 289.282241 251.894529 
L 289.57999 251.228034 
L 289.877739 251.45118 
L 290.026613 251.277254 
L 290.175488 250.924306 
L 290.473237 249.08881 
L 290.770985 246.170053 
L 290.91986 245.56555 
L 291.068734 245.700339 
L 291.664232 248.465194 
L 292.25973 250.282191 
L 292.408604 250.618116 
L 292.706353 250.053224 
L 292.855228 249.533259 
L 293.152976 249.884028 
L 293.450725 249.788104 
L 293.897349 248.606904 
L 294.195098 248.903814 
L 294.343972 249.427219 
L 294.790595 251.836258 
L 294.93947 251.982347 
L 295.088344 251.749379 
L 295.386093 251.11584 
L 295.534967 251.070051 
L 295.981591 250.35818 
L 296.27934 250.652428 
L 296.577089 249.477496 
L 296.874837 248.294583 
L 297.321461 250.299002 
L 297.61921 251.268338 
L 297.768084 251.359231 
L 297.916958 250.988139 
L 298.363582 248.898121 
L 298.512456 249.192455 
L 298.810205 250.824595 
L 298.95908 250.451362 
L 299.256828 249.233368 
L 299.405703 249.546023 
L 299.703452 251.124146 
L 299.852326 250.985375 
L 300.150075 250.280276 
L 300.298949 250.650932 
L 300.596698 251.655152 
L 300.894447 250.966896 
L 301.341071 251.89858 
L 302.383192 251.521885 
L 302.68094 250.975664 
L 302.829815 250.609688 
L 302.978689 250.595082 
L 303.276438 250.914125 
L 303.425313 250.823383 
L 303.871936 250.146789 
L 304.318559 250.709481 
L 304.616308 250.418633 
L 304.765183 250.643011 
L 305.211806 251.785137 
L 305.36068 251.9109 
L 305.509555 251.835725 
L 305.807304 251.323558 
L 306.105053 250.667813 
L 306.253927 250.478555 
L 306.402801 250.618957 
L 306.70055 251.34852 
L 306.998299 251.264903 
L 307.147174 251.214809 
L 307.296048 251.29742 
L 307.593797 251.944521 
L 307.891546 251.930758 
L 308.338169 251.670714 
L 308.784792 249.815732 
L 308.933667 249.846106 
L 309.231416 250.463326 
L 309.529165 250.148588 
L 309.678039 249.952827 
L 309.975788 250.636457 
L 310.124662 250.74082 
L 310.273537 250.668633 
L 310.72016 251.289103 
L 310.869035 251.06655 
L 311.166783 248.909869 
L 311.464532 247.44521 
L 311.762281 247.943825 
L 311.911156 247.364223 
L 312.208904 245.499443 
L 312.357779 245.958387 
L 313.251026 251.548575 
L 313.3999 251.954305 
L 313.697649 251.981866 
L 314.144272 251.655876 
L 314.442021 251.329463 
L 314.888644 251.743399 
L 315.037519 251.639301 
L 315.335268 251.31333 
L 315.484142 251.488405 
L 315.633017 251.417594 
L 316.07964 249.836519 
L 316.526263 250.809647 
L 316.824012 250.443699 
L 317.121761 250.87322 
L 317.717259 251.845648 
L 318.312756 251.911268 
L 318.75938 251.523138 
L 319.057129 251.869106 
L 319.206003 251.789293 
L 319.503752 251.184804 
L 319.652626 251.265852 
L 319.950375 251.84759 
L 320.248124 251.693832 
L 320.545873 251.999763 
L 320.694747 251.822004 
L 321.141371 250.378247 
L 321.290245 250.427849 
L 321.43912 250.323189 
L 321.736868 249.280776 
L 322.481241 249.47048 
L 323.076738 251.70796 
L 323.225613 251.537154 
L 324.267734 248.882047 
L 324.565483 247.40698 
L 324.714357 247.364287 
L 325.607604 250.722927 
L 325.905353 251.277606 
L 326.203102 251.628371 
L 326.351976 251.656299 
L 326.798599 251.321664 
L 326.947474 251.446445 
L 327.245223 251.063965 
L 327.542971 250.569184 
L 327.691846 250.549667 
L 328.287344 251.657182 
L 328.882841 251.875979 
L 329.031716 251.940859 
L 329.18059 251.858388 
L 329.776088 250.728179 
L 329.924962 250.700814 
L 330.222711 250.869952 
L 330.52046 250.246659 
L 330.669335 250.335739 
L 331.115958 251.722469 
L 332.306953 251.860231 
L 332.902451 251.778975 
L 333.051326 251.7873 
L 334.093447 251.079687 
L 334.242321 251.15491 
L 334.391196 251.09069 
L 334.837819 249.819549 
L 334.986693 250.101786 
L 335.284442 251.104713 
L 335.87994 251.635737 
L 336.028814 251.572835 
L 337.070935 249.299162 
L 337.517559 247.852 
L 337.666433 247.922357 
L 338.261931 250.182477 
L 338.857429 251.637635 
L 339.155178 251.578249 
L 339.452926 251.135728 
L 340.197299 249.872088 
L 340.941671 250.673019 
L 341.23942 251.65207 
L 341.537169 251.821618 
L 341.686043 251.976827 
L 341.834917 251.921814 
L 342.728164 248.686597 
L 342.877039 248.742917 
L 343.323662 250.570608 
L 343.621411 250.246845 
L 343.770285 250.461343 
L 344.068034 251.200268 
L 344.514657 251.607073 
L 344.961281 251.480415 
L 345.25903 251.358814 
L 345.556778 250.88443 
L 346.301151 250.363754 
L 346.450025 250.471445 
L 346.896648 251.470276 
L 347.343272 251.226528 
L 348.385393 251.988821 
L 348.98089 251.915394 
L 349.427514 251.529886 
L 350.023012 250.148628 
L 350.469635 249.844536 
L 350.618509 249.997106 
L 351.065133 251.223866 
L 351.66063 251.91484 
L 352.256128 251.391546 
L 352.702751 250.358738 
L 353.0005 249.716746 
L 353.447124 249.503523 
L 353.595998 249.67617 
L 353.893747 250.893827 
L 354.191496 251.892463 
L 354.34037 251.974577 
L 354.489245 251.904454 
L 354.786993 251.346651 
L 355.68024 248.816519 
L 355.829115 248.895345 
L 356.126863 249.303178 
L 356.275738 249.322639 
L 356.424612 249.510952 
L 357.02011 251.161582 
L 357.466733 251.439504 
L 358.062231 250.466015 
L 358.35998 249.884123 
L 358.508854 249.860823 
L 358.806603 250.141592 
L 358.955478 250.112767 
L 359.104352 250.212829 
L 359.402101 251.161075 
L 359.69985 251.380284 
L 359.848724 251.334049 
L 360.295348 251.98719 
L 361.784092 251.776232 
L 362.230715 251.959331 
L 362.528464 251.567288 
L 362.826213 251.225545 
L 363.272836 251.113509 
L 363.570585 251.083027 
L 363.868334 251.375817 
L 364.314957 251.909443 
L 364.612706 251.898658 
L 365.05933 251.649308 
L 365.505953 250.884115 
L 366.250325 251.178182 
L 366.696948 251.65739 
L 366.994697 251.932115 
L 367.292446 251.797968 
L 367.590195 251.194125 
L 368.334567 248.898273 
L 368.632316 247.957675 
L 368.781191 248.258106 
L 369.525563 250.808728 
L 369.823312 251.490278 
L 369.972186 251.531041 
L 370.716558 250.717127 
L 371.312056 248.771525 
L 371.46093 248.952821 
L 371.907554 250.623197 
L 372.354177 250.81492 
L 372.8008 251.829395 
L 372.949675 251.917702 
L 373.247424 251.77159 
L 373.991796 250.934667 
L 374.289545 251.057816 
L 375.48054 251.854042 
L 375.778289 251.906889 
L 376.373787 251.440884 
L 376.671536 251.549623 
L 376.969285 251.572085 
L 377.267034 251.81089 
L 377.713657 251.841876 
L 378.011406 251.684431 
L 378.309155 251.597725 
L 378.606903 251.637687 
L 378.904652 251.288965 
L 379.053527 251.327762 
L 379.50015 251.949874 
L 379.946773 251.994612 
L 380.095648 251.926953 
L 381.137769 250.122115 
L 381.435518 250.135153 
L 381.733267 250.096001 
L 381.882141 250.265746 
L 382.328764 251.26284 
L 382.775388 251.718304 
L 383.073137 251.490428 
L 383.817509 250.466701 
L 384.115258 250.475612 
L 384.264132 250.420304 
L 384.85963 250.962467 
L 385.008504 250.806337 
L 385.157379 250.841016 
L 385.604002 251.558465 
L 386.050625 251.553871 
L 386.348374 250.980865 
L 386.794997 250.046675 
L 386.943872 250.147284 
L 387.241621 250.973267 
L 387.390495 251.072482 
L 387.53937 250.974269 
L 387.688244 251.054929 
L 388.134867 251.959399 
L 388.581491 251.982712 
L 388.87924 251.647133 
L 389.176988 251.210306 
L 390.070235 251.041279 
L 391.112356 251.920003 
L 391.558979 251.834324 
L 392.005603 251.847539 
L 393.047724 251.826903 
L 393.345473 251.381596 
L 393.94097 251.181739 
L 394.238719 250.945762 
L 394.685343 251.35042 
L 394.983092 251.476961 
L 395.429715 251.843215 
L 395.578589 251.922378 
L 395.727464 251.831014 
L 396.769585 250.175722 
L 397.067334 250.176033 
L 397.216208 250.223163 
L 398.109455 251.762405 
L 398.258329 251.876168 
L 398.407204 251.84042 
L 398.704952 251.094179 
L 399.151576 249.978827 
L 399.30045 249.860557 
L 399.449325 249.932611 
L 399.895948 249.78098 
L 400.491446 251.414298 
L 400.789195 251.549891 
L 401.086943 251.755431 
L 401.533567 251.400985 
L 401.98019 250.374788 
L 402.129065 250.29928 
L 402.426813 250.474367 
L 402.575688 250.444178 
L 403.171186 251.335197 
L 403.32006 251.370633 
L 403.915558 251.965682 
L 404.362181 251.846213 
L 404.65993 251.474829 
L 405.106553 251.357641 
L 405.404302 251.149472 
L 405.850925 251.771161 
L 406.297549 251.574939 
L 406.595298 251.820273 
L 407.33967 251.708914 
L 408.530665 251.874272 
L 408.977289 251.359565 
L 409.275038 251.330905 
L 409.721661 250.887131 
L 410.01941 250.996055 
L 410.317159 251.415494 
L 410.614907 251.848298 
L 411.061531 251.728048 
L 411.210405 251.650662 
L 411.508154 251.32702 
L 411.805903 251.216962 
L 411.954777 250.821456 
L 412.252526 249.602157 
L 412.401401 249.558286 
L 413.294647 251.326226 
L 413.741271 251.787233 
L 413.890145 251.851575 
L 414.187894 251.567707 
L 414.932266 250.090848 
L 415.230015 250.184044 
L 415.378889 250.049386 
L 415.527764 250.130155 
L 416.272136 251.560581 
L 416.569885 251.831361 
L 417.016508 251.74502 
L 417.314257 251.502623 
L 417.909755 250.860047 
L 418.058629 250.736845 
L 418.207504 250.792367 
L 419.249625 251.889806 
L 419.547374 251.9959 
L 419.845123 251.894404 
L 420.142871 251.744781 
L 420.44062 251.6567 
L 420.887244 251.38902 
L 421.184992 251.672355 
L 422.822611 251.584583 
L 423.864732 251.97155 
L 424.162481 251.725919 
L 424.46023 251.301328 
L 424.906853 251.038252 
L 425.204602 250.761846 
L 425.948974 251.198582 
L 426.246723 251.7106 
L 426.693347 251.890535 
L 426.991096 251.636376 
L 427.437719 251.014577 
L 427.884342 249.993572 
L 428.182091 250.292414 
L 428.47984 250.542446 
L 429.075338 251.646557 
L 429.373087 251.816271 
L 429.521961 251.714688 
L 430.564082 249.637352 
L 431.15958 250.274352 
L 431.755078 251.419945 
L 432.201701 251.787542 
L 432.648324 251.665785 
L 432.946073 251.3395 
L 433.392696 250.972934 
L 433.988194 251.161437 
L 434.285943 251.526684 
L 435.030315 251.927813 
L 435.774687 251.836203 
L 436.221311 251.840221 
L 437.263432 251.806467 
L 437.561181 251.612976 
L 438.007804 251.412796 
L 438.305553 251.349414 
L 438.752176 251.641794 
L 439.347674 251.98549 
L 439.794297 251.810989 
L 440.538669 251.074019 
L 440.836418 251.050322 
L 441.134167 251.116 
L 441.431916 251.403155 
L 441.729665 251.713808 
L 442.027414 251.755124 
L 442.325163 251.575254 
L 442.622911 250.950085 
L 443.069535 250.066443 
L 443.367284 249.573479 
L 443.813907 249.853763 
L 444.26053 250.669231 
L 444.707154 251.45931 
L 445.004902 251.706222 
L 445.153777 251.674568 
L 445.6004 251.092611 
L 446.047024 250.491206 
L 446.344772 250.539198 
L 446.642521 250.684589 
L 447.684642 251.977633 
L 447.982391 251.96779 
L 448.28014 251.800181 
L 448.726763 251.434705 
L 449.471136 251.700308 
L 449.917759 251.905476 
L 450.364382 251.979098 
L 451.406503 251.599554 
L 451.853127 251.675451 
L 452.002001 251.628278 
L 452.448624 251.829701 
L 453.490745 251.507303 
L 454.681741 251.93698 
L 455.128364 251.488805 
L 455.426113 251.089709 
L 456.170485 249.98354 
L 456.31936 249.95682 
L 456.765983 250.61546 
L 456.914857 250.638015 
L 457.063732 250.785992 
L 457.510355 251.569614 
L 457.808104 251.692694 
L 457.956978 251.663264 
L 458.254727 251.241145 
L 458.552476 250.821178 
L 459.147974 250.462407 
L 460.338969 251.924895 
L 460.636718 251.956598 
L 461.083342 251.538322 
L 461.678839 250.915431 
L 461.976588 250.993347 
L 462.572086 251.557482 
L 462.869835 251.842187 
L 463.167584 251.955707 
L 463.465333 251.812415 
L 464.358579 251.096979 
L 465.102951 251.286918 
L 465.549575 251.689825 
L 466.591696 251.930286 
L 467.633817 251.872917 
L 468.527064 251.00611 
L 468.824812 250.813577 
L 469.42031 250.823429 
L 470.164682 251.668874 
L 470.462431 251.84932 
L 470.909055 251.682626 
L 471.504552 251.036898 
L 471.951176 250.785556 
L 472.10005 250.875058 
L 472.546673 251.539901 
L 472.993297 251.957136 
L 473.291046 251.884975 
L 473.588794 251.648492 
L 474.184292 250.786835 
L 474.482041 250.603371 
L 474.77979 250.737255 
L 475.673037 251.663527 
L 476.11966 251.628839 
L 476.417409 251.263 
L 476.864032 250.737679 
L 477.310655 250.365733 
L 478.055028 250.939153 
L 478.501651 251.617626 
L 478.948274 251.960949 
L 479.394897 251.974107 
L 481.47914 251.508836 
L 481.776888 251.426816 
L 482.372386 251.421538 
L 482.81901 251.786691 
L 483.414507 251.997319 
L 483.861131 251.850526 
L 484.307754 251.533969 
L 485.052126 251.589741 
L 485.498749 251.912366 
L 485.945373 251.967545 
L 486.391996 251.593218 
L 486.987494 250.723945 
L 487.582991 250.553344 
L 488.029615 251.14253 
L 488.625113 251.517651 
L 489.071736 251.215914 
L 490.113857 249.703768 
L 490.262731 249.991542 
L 490.411606 249.816981 
L 490.709355 250.708168 
L 490.858229 250.799531 
L 491.453727 251.74708 
L 491.90035 251.926769 
L 493.091346 251.669688 
L 493.686843 251.826883 
L 493.984592 251.900663 
L 494.431216 251.798026 
L 494.877839 251.649854 
L 495.473337 251.576027 
L 496.515458 251.981454 
L 497.25983 251.886008 
L 498.748574 251.837122 
L 499.195198 251.5046 
L 499.492946 251.191858 
L 499.790695 250.831319 
L 500.386193 250.883775 
L 501.27944 251.611697 
L 501.428314 251.627988 
L 501.874937 251.207916 
L 502.321561 250.47748 
L 502.61931 250.062393 
L 503.065933 249.997401 
L 503.214807 250.135251 
L 503.810305 251.157265 
L 504.256928 251.811142 
L 504.703552 251.870568 
L 505.745673 251.442838 
L 506.787794 251.996111 
L 507.234417 251.863 
L 508.276538 251.078389 
L 508.425413 251.100058 
L 508.872036 251.438179 
L 509.914157 251.980529 
L 510.509655 251.850508 
L 512.593897 251.307883 
L 512.891646 251.28566 
L 514.231516 251.795557 
L 514.38039 251.751162 
L 515.571386 250.52475 
L 516.018009 250.696774 
L 516.315758 251.089017 
L 516.911256 251.828273 
L 517.209005 251.950017 
L 517.655628 251.817007 
L 518.102251 251.489591 
L 518.548874 251.435631 
L 518.548874 251.435631 
" style="fill:none;stroke:#000000;stroke-linecap:square;stroke-width:1.5;"/>
   </g>
   <g id="patch_3">
    <path d="M 72 252 
L 72 34.56 
" style="fill:none;stroke:#000000;stroke-linecap:square;stroke-linejoin:miter;stroke-width:0.8;"/>
   </g>
   <g id="patch_4">
    <path d="M 518.4 252 
L 518.4 34.56 
" style="fill:none;stroke:#000000;stroke-linecap:square;stroke-linejoin:miter;stroke-width:0.8;"/>
   </g>
   <g id="patch_5">
    <path d="M 72 252 
L 518.4 252 
" style="fill:none;stroke:#000000;stroke-linecap:square;stroke-linejoin:miter;stroke-width:0.8;"/>
   </g>
   <g id="patch_6">
    <path d="M 72 34.56 
L 518.4 34.56 
" style="fill:none;stroke:#000000;stroke-linecap:square;stroke-linejoin:miter;stroke-width:0.8;"/>
   </g>
  </g>
 </g>
 <defs>
  <clipPath id="p6f8f75b374">
   <rect height="217.44" width="446.4" x="72" y="34.56"/>
  </clipPath>
 </defs>
</svg>
