<?xml version="1.0" encoding="utf-8" standalone="no"?>
<!DOCTYPE svg PUBLIC "-//W3C//DTD SVG 1.1//EN"
  "http://www.w3.org/Graphics/SVG/1.1/DTD/svg11.dtd">
<!-- Created with matplotlib (https://matplotlib.org/) -->
<svg height="288pt" version="1.1" viewBox="0 0 576 288" width="576pt" xmlns="http://www.w3.org/2000/svg" xmlns:xlink="http://www.w3.org/1999/xlink">
 <defs>
  <style type="text/css">
*{stroke-linecap:butt;stroke-linejoin:round;}
  </style>
 </defs>
 <g id="figure_1">
  <g id="patch_1">
   <path d="M 0 288 
L 576 288 
L 576 0 
L 0 0 
z
" style="fill:#ffffff;"/>
  </g>
  <g id="axes_1">
   <g id="patch_2">
    <path d="M 72 252 
L 518.4 252 
L 518.4 34.56 
L 72 34.56 
z
" style="fill:#ffffff;"/>
   </g>
   <g id="matplotlib.axis_1">
    <g id="xtick_1">
     <g id="line2d_1">
      <path clip-path="url(#p2acbe3ee34)" d="M 72 252 
L 72 34.56 
" style="fill:none;stroke:#b0b0b0;stroke-linecap:square;stroke-width:0.8;"/>
     </g>
     <g id="line2d_2">
      <defs>
       <path d="M 0 0 
L 0 3.5 
" id="mc8dab69ff9" style="stroke:#000000;stroke-width:0.8;"/>
      </defs>
      <g>
       <use style="stroke:#000000;stroke-width:0.8;" x="72" xlink:href="#mc8dab69ff9" y="252"/>
      </g>
     </g>
     <g id="text_1">
      <!-- 0 -->
      <defs>
       <path d="M 31.78125 66.40625 
Q 24.171875 66.40625 20.328125 58.90625 
Q 16.5 51.421875 16.5 36.375 
Q 16.5 21.390625 20.328125 13.890625 
Q 24.171875 6.390625 31.78125 6.390625 
Q 39.453125 6.390625 43.28125 13.890625 
Q 47.125 21.390625 47.125 36.375 
Q 47.125 51.421875 43.28125 58.90625 
Q 39.453125 66.40625 31.78125 66.40625 
z
M 31.78125 74.21875 
Q 44.046875 74.21875 50.515625 64.515625 
Q 56.984375 54.828125 56.984375 36.375 
Q 56.984375 17.96875 50.515625 8.265625 
Q 44.046875 -1.421875 31.78125 -1.421875 
Q 19.53125 -1.421875 13.0625 8.265625 
Q 6.59375 17.96875 6.59375 36.375 
Q 6.59375 54.828125 13.0625 64.515625 
Q 19.53125 74.21875 31.78125 74.21875 
z
" id="DejaVuSans-48"/>
      </defs>
      <g transform="translate(68.81875 266.598437)scale(0.1 -0.1)">
       <use xlink:href="#DejaVuSans-48"/>
      </g>
     </g>
    </g>
    <g id="xtick_2">
     <g id="line2d_3">
      <path clip-path="url(#p2acbe3ee34)" d="M 146.4 252 
L 146.4 34.56 
" style="fill:none;stroke:#b0b0b0;stroke-linecap:square;stroke-width:0.8;"/>
     </g>
     <g id="line2d_4">
      <g>
       <use style="stroke:#000000;stroke-width:0.8;" x="146.4" xlink:href="#mc8dab69ff9" y="252"/>
      </g>
     </g>
     <g id="text_2">
      <!-- 5 -->
      <defs>
       <path d="M 10.796875 72.90625 
L 49.515625 72.90625 
L 49.515625 64.59375 
L 19.828125 64.59375 
L 19.828125 46.734375 
Q 21.96875 47.46875 24.109375 47.828125 
Q 26.265625 48.1875 28.421875 48.1875 
Q 40.625 48.1875 47.75 41.5 
Q 54.890625 34.8125 54.890625 23.390625 
Q 54.890625 11.625 47.5625 5.09375 
Q 40.234375 -1.421875 26.90625 -1.421875 
Q 22.3125 -1.421875 17.546875 -0.640625 
Q 12.796875 0.140625 7.71875 1.703125 
L 7.71875 11.625 
Q 12.109375 9.234375 16.796875 8.0625 
Q 21.484375 6.890625 26.703125 6.890625 
Q 35.15625 6.890625 40.078125 11.328125 
Q 45.015625 15.765625 45.015625 23.390625 
Q 45.015625 31 40.078125 35.4375 
Q 35.15625 39.890625 26.703125 39.890625 
Q 22.75 39.890625 18.8125 39.015625 
Q 14.890625 38.140625 10.796875 36.28125 
z
" id="DejaVuSans-53"/>
      </defs>
      <g transform="translate(143.21875 266.598437)scale(0.1 -0.1)">
       <use xlink:href="#DejaVuSans-53"/>
      </g>
     </g>
    </g>
    <g id="xtick_3">
     <g id="line2d_5">
      <path clip-path="url(#p2acbe3ee34)" d="M 220.8 252 
L 220.8 34.56 
" style="fill:none;stroke:#b0b0b0;stroke-linecap:square;stroke-width:0.8;"/>
     </g>
     <g id="line2d_6">
      <g>
       <use style="stroke:#000000;stroke-width:0.8;" x="220.8" xlink:href="#mc8dab69ff9" y="252"/>
      </g>
     </g>
     <g id="text_3">
      <!-- 10 -->
      <defs>
       <path d="M 12.40625 8.296875 
L 28.515625 8.296875 
L 28.515625 63.921875 
L 10.984375 60.40625 
L 10.984375 69.390625 
L 28.421875 72.90625 
L 38.28125 72.90625 
L 38.28125 8.296875 
L 54.390625 8.296875 
L 54.390625 0 
L 12.40625 0 
z
" id="DejaVuSans-49"/>
      </defs>
      <g transform="translate(214.4375 266.598437)scale(0.1 -0.1)">
       <use xlink:href="#DejaVuSans-49"/>
       <use x="63.623047" xlink:href="#DejaVuSans-48"/>
      </g>
     </g>
    </g>
    <g id="xtick_4">
     <g id="line2d_7">
      <path clip-path="url(#p2acbe3ee34)" d="M 295.2 252 
L 295.2 34.56 
" style="fill:none;stroke:#b0b0b0;stroke-linecap:square;stroke-width:0.8;"/>
     </g>
     <g id="line2d_8">
      <g>
       <use style="stroke:#000000;stroke-width:0.8;" x="295.2" xlink:href="#mc8dab69ff9" y="252"/>
      </g>
     </g>
     <g id="text_4">
      <!-- 15 -->
      <g transform="translate(288.8375 266.598437)scale(0.1 -0.1)">
       <use xlink:href="#DejaVuSans-49"/>
       <use x="63.623047" xlink:href="#DejaVuSans-53"/>
      </g>
     </g>
    </g>
    <g id="xtick_5">
     <g id="line2d_9">
      <path clip-path="url(#p2acbe3ee34)" d="M 369.6 252 
L 369.6 34.56 
" style="fill:none;stroke:#b0b0b0;stroke-linecap:square;stroke-width:0.8;"/>
     </g>
     <g id="line2d_10">
      <g>
       <use style="stroke:#000000;stroke-width:0.8;" x="369.6" xlink:href="#mc8dab69ff9" y="252"/>
      </g>
     </g>
     <g id="text_5">
      <!-- 20 -->
      <defs>
       <path d="M 19.1875 8.296875 
L 53.609375 8.296875 
L 53.609375 0 
L 7.328125 0 
L 7.328125 8.296875 
Q 12.9375 14.109375 22.625 23.890625 
Q 32.328125 33.6875 34.8125 36.53125 
Q 39.546875 41.84375 41.421875 45.53125 
Q 43.3125 49.21875 43.3125 52.78125 
Q 43.3125 58.59375 39.234375 62.25 
Q 35.15625 65.921875 28.609375 65.921875 
Q 23.96875 65.921875 18.8125 64.3125 
Q 13.671875 62.703125 7.8125 59.421875 
L 7.8125 69.390625 
Q 13.765625 71.78125 18.9375 73 
Q 24.125 74.21875 28.421875 74.21875 
Q 39.75 74.21875 46.484375 68.546875 
Q 53.21875 62.890625 53.21875 53.421875 
Q 53.21875 48.921875 51.53125 44.890625 
Q 49.859375 40.875 45.40625 35.40625 
Q 44.1875 33.984375 37.640625 27.21875 
Q 31.109375 20.453125 19.1875 8.296875 
z
" id="DejaVuSans-50"/>
      </defs>
      <g transform="translate(363.2375 266.598437)scale(0.1 -0.1)">
       <use xlink:href="#DejaVuSans-50"/>
       <use x="63.623047" xlink:href="#DejaVuSans-48"/>
      </g>
     </g>
    </g>
    <g id="xtick_6">
     <g id="line2d_11">
      <path clip-path="url(#p2acbe3ee34)" d="M 444 252 
L 444 34.56 
" style="fill:none;stroke:#b0b0b0;stroke-linecap:square;stroke-width:0.8;"/>
     </g>
     <g id="line2d_12">
      <g>
       <use style="stroke:#000000;stroke-width:0.8;" x="444" xlink:href="#mc8dab69ff9" y="252"/>
      </g>
     </g>
     <g id="text_6">
      <!-- 25 -->
      <g transform="translate(437.6375 266.598437)scale(0.1 -0.1)">
       <use xlink:href="#DejaVuSans-50"/>
       <use x="63.623047" xlink:href="#DejaVuSans-53"/>
      </g>
     </g>
    </g>
    <g id="xtick_7">
     <g id="line2d_13">
      <path clip-path="url(#p2acbe3ee34)" d="M 518.4 252 
L 518.4 34.56 
" style="fill:none;stroke:#b0b0b0;stroke-linecap:square;stroke-width:0.8;"/>
     </g>
     <g id="line2d_14">
      <g>
       <use style="stroke:#000000;stroke-width:0.8;" x="518.4" xlink:href="#mc8dab69ff9" y="252"/>
      </g>
     </g>
     <g id="text_7">
      <!-- 30 -->
      <defs>
       <path d="M 40.578125 39.3125 
Q 47.65625 37.796875 51.625 33 
Q 55.609375 28.21875 55.609375 21.1875 
Q 55.609375 10.40625 48.1875 4.484375 
Q 40.765625 -1.421875 27.09375 -1.421875 
Q 22.515625 -1.421875 17.65625 -0.515625 
Q 12.796875 0.390625 7.625 2.203125 
L 7.625 11.71875 
Q 11.71875 9.328125 16.59375 8.109375 
Q 21.484375 6.890625 26.8125 6.890625 
Q 36.078125 6.890625 40.9375 10.546875 
Q 45.796875 14.203125 45.796875 21.1875 
Q 45.796875 27.640625 41.28125 31.265625 
Q 36.765625 34.90625 28.71875 34.90625 
L 20.21875 34.90625 
L 20.21875 43.015625 
L 29.109375 43.015625 
Q 36.375 43.015625 40.234375 45.921875 
Q 44.09375 48.828125 44.09375 54.296875 
Q 44.09375 59.90625 40.109375 62.90625 
Q 36.140625 65.921875 28.71875 65.921875 
Q 24.65625 65.921875 20.015625 65.03125 
Q 15.375 64.15625 9.8125 62.3125 
L 9.8125 71.09375 
Q 15.4375 72.65625 20.34375 73.4375 
Q 25.25 74.21875 29.59375 74.21875 
Q 40.828125 74.21875 47.359375 69.109375 
Q 53.90625 64.015625 53.90625 55.328125 
Q 53.90625 49.265625 50.4375 45.09375 
Q 46.96875 40.921875 40.578125 39.3125 
z
" id="DejaVuSans-51"/>
      </defs>
      <g transform="translate(512.0375 266.598437)scale(0.1 -0.1)">
       <use xlink:href="#DejaVuSans-51"/>
       <use x="63.623047" xlink:href="#DejaVuSans-48"/>
      </g>
     </g>
    </g>
    <g id="text_8">
     <!-- Tempo (s) -->
     <defs>
      <path d="M -0.296875 72.90625 
L 61.375 72.90625 
L 61.375 64.59375 
L 35.5 64.59375 
L 35.5 0 
L 25.59375 0 
L 25.59375 64.59375 
L -0.296875 64.59375 
z
" id="DejaVuSans-84"/>
      <path d="M 56.203125 29.59375 
L 56.203125 25.203125 
L 14.890625 25.203125 
Q 15.484375 15.921875 20.484375 11.0625 
Q 25.484375 6.203125 34.421875 6.203125 
Q 39.59375 6.203125 44.453125 7.46875 
Q 49.3125 8.734375 54.109375 11.28125 
L 54.109375 2.78125 
Q 49.265625 0.734375 44.1875 -0.34375 
Q 39.109375 -1.421875 33.890625 -1.421875 
Q 20.796875 -1.421875 13.15625 6.1875 
Q 5.515625 13.8125 5.515625 26.8125 
Q 5.515625 40.234375 12.765625 48.109375 
Q 20.015625 56 32.328125 56 
Q 43.359375 56 49.78125 48.890625 
Q 56.203125 41.796875 56.203125 29.59375 
z
M 47.21875 32.234375 
Q 47.125 39.59375 43.09375 43.984375 
Q 39.0625 48.390625 32.421875 48.390625 
Q 24.90625 48.390625 20.390625 44.140625 
Q 15.875 39.890625 15.1875 32.171875 
z
" id="DejaVuSans-101"/>
      <path d="M 52 44.1875 
Q 55.375 50.25 60.0625 53.125 
Q 64.75 56 71.09375 56 
Q 79.640625 56 84.28125 50.015625 
Q 88.921875 44.046875 88.921875 33.015625 
L 88.921875 0 
L 79.890625 0 
L 79.890625 32.71875 
Q 79.890625 40.578125 77.09375 44.375 
Q 74.3125 48.1875 68.609375 48.1875 
Q 61.625 48.1875 57.5625 43.546875 
Q 53.515625 38.921875 53.515625 30.90625 
L 53.515625 0 
L 44.484375 0 
L 44.484375 32.71875 
Q 44.484375 40.625 41.703125 44.40625 
Q 38.921875 48.1875 33.109375 48.1875 
Q 26.21875 48.1875 22.15625 43.53125 
Q 18.109375 38.875 18.109375 30.90625 
L 18.109375 0 
L 9.078125 0 
L 9.078125 54.6875 
L 18.109375 54.6875 
L 18.109375 46.1875 
Q 21.1875 51.21875 25.484375 53.609375 
Q 29.78125 56 35.6875 56 
Q 41.65625 56 45.828125 52.96875 
Q 50 49.953125 52 44.1875 
z
" id="DejaVuSans-109"/>
      <path d="M 18.109375 8.203125 
L 18.109375 -20.796875 
L 9.078125 -20.796875 
L 9.078125 54.6875 
L 18.109375 54.6875 
L 18.109375 46.390625 
Q 20.953125 51.265625 25.265625 53.625 
Q 29.59375 56 35.59375 56 
Q 45.5625 56 51.78125 48.09375 
Q 58.015625 40.1875 58.015625 27.296875 
Q 58.015625 14.40625 51.78125 6.484375 
Q 45.5625 -1.421875 35.59375 -1.421875 
Q 29.59375 -1.421875 25.265625 0.953125 
Q 20.953125 3.328125 18.109375 8.203125 
z
M 48.6875 27.296875 
Q 48.6875 37.203125 44.609375 42.84375 
Q 40.53125 48.484375 33.40625 48.484375 
Q 26.265625 48.484375 22.1875 42.84375 
Q 18.109375 37.203125 18.109375 27.296875 
Q 18.109375 17.390625 22.1875 11.75 
Q 26.265625 6.109375 33.40625 6.109375 
Q 40.53125 6.109375 44.609375 11.75 
Q 48.6875 17.390625 48.6875 27.296875 
z
" id="DejaVuSans-112"/>
      <path d="M 30.609375 48.390625 
Q 23.390625 48.390625 19.1875 42.75 
Q 14.984375 37.109375 14.984375 27.296875 
Q 14.984375 17.484375 19.15625 11.84375 
Q 23.34375 6.203125 30.609375 6.203125 
Q 37.796875 6.203125 41.984375 11.859375 
Q 46.1875 17.53125 46.1875 27.296875 
Q 46.1875 37.015625 41.984375 42.703125 
Q 37.796875 48.390625 30.609375 48.390625 
z
M 30.609375 56 
Q 42.328125 56 49.015625 48.375 
Q 55.71875 40.765625 55.71875 27.296875 
Q 55.71875 13.875 49.015625 6.21875 
Q 42.328125 -1.421875 30.609375 -1.421875 
Q 18.84375 -1.421875 12.171875 6.21875 
Q 5.515625 13.875 5.515625 27.296875 
Q 5.515625 40.765625 12.171875 48.375 
Q 18.84375 56 30.609375 56 
z
" id="DejaVuSans-111"/>
      <path id="DejaVuSans-32"/>
      <path d="M 31 75.875 
Q 24.46875 64.65625 21.28125 53.65625 
Q 18.109375 42.671875 18.109375 31.390625 
Q 18.109375 20.125 21.3125 9.0625 
Q 24.515625 -2 31 -13.1875 
L 23.1875 -13.1875 
Q 15.875 -1.703125 12.234375 9.375 
Q 8.59375 20.453125 8.59375 31.390625 
Q 8.59375 42.28125 12.203125 53.3125 
Q 15.828125 64.359375 23.1875 75.875 
z
" id="DejaVuSans-40"/>
      <path d="M 44.28125 53.078125 
L 44.28125 44.578125 
Q 40.484375 46.53125 36.375 47.5 
Q 32.28125 48.484375 27.875 48.484375 
Q 21.1875 48.484375 17.84375 46.4375 
Q 14.5 44.390625 14.5 40.28125 
Q 14.5 37.15625 16.890625 35.375 
Q 19.28125 33.59375 26.515625 31.984375 
L 29.59375 31.296875 
Q 39.15625 29.25 43.1875 25.515625 
Q 47.21875 21.78125 47.21875 15.09375 
Q 47.21875 7.46875 41.1875 3.015625 
Q 35.15625 -1.421875 24.609375 -1.421875 
Q 20.21875 -1.421875 15.453125 -0.5625 
Q 10.6875 0.296875 5.421875 2 
L 5.421875 11.28125 
Q 10.40625 8.6875 15.234375 7.390625 
Q 20.0625 6.109375 24.8125 6.109375 
Q 31.15625 6.109375 34.5625 8.28125 
Q 37.984375 10.453125 37.984375 14.40625 
Q 37.984375 18.0625 35.515625 20.015625 
Q 33.0625 21.96875 24.703125 23.78125 
L 21.578125 24.515625 
Q 13.234375 26.265625 9.515625 29.90625 
Q 5.8125 33.546875 5.8125 39.890625 
Q 5.8125 47.609375 11.28125 51.796875 
Q 16.75 56 26.8125 56 
Q 31.78125 56 36.171875 55.265625 
Q 40.578125 54.546875 44.28125 53.078125 
z
" id="DejaVuSans-115"/>
      <path d="M 8.015625 75.875 
L 15.828125 75.875 
Q 23.140625 64.359375 26.78125 53.3125 
Q 30.421875 42.28125 30.421875 31.390625 
Q 30.421875 20.453125 26.78125 9.375 
Q 23.140625 -1.703125 15.828125 -13.1875 
L 8.015625 -13.1875 
Q 14.5 -2 17.703125 9.0625 
Q 20.90625 20.125 20.90625 31.390625 
Q 20.90625 42.671875 17.703125 53.65625 
Q 14.5 64.65625 8.015625 75.875 
z
" id="DejaVuSans-41"/>
     </defs>
     <g transform="translate(270.720312 280.276563)scale(0.1 -0.1)">
      <use xlink:href="#DejaVuSans-84"/>
      <use x="44.083984" xlink:href="#DejaVuSans-101"/>
      <use x="105.607422" xlink:href="#DejaVuSans-109"/>
      <use x="203.019531" xlink:href="#DejaVuSans-112"/>
      <use x="266.496094" xlink:href="#DejaVuSans-111"/>
      <use x="327.677734" xlink:href="#DejaVuSans-32"/>
      <use x="359.464844" xlink:href="#DejaVuSans-40"/>
      <use x="398.478516" xlink:href="#DejaVuSans-115"/>
      <use x="450.578125" xlink:href="#DejaVuSans-41"/>
     </g>
    </g>
   </g>
   <g id="matplotlib.axis_2">
    <g id="ytick_1">
     <g id="line2d_15">
      <path clip-path="url(#p2acbe3ee34)" d="M 72 244.071723 
L 518.4 244.071723 
" style="fill:none;stroke:#b0b0b0;stroke-linecap:square;stroke-width:0.8;"/>
     </g>
     <g id="line2d_16">
      <defs>
       <path d="M 0 0 
L -3.5 0 
" id="m41483ac2a4" style="stroke:#000000;stroke-width:0.8;"/>
      </defs>
      <g>
       <use style="stroke:#000000;stroke-width:0.8;" x="72" xlink:href="#m41483ac2a4" y="244.071723"/>
      </g>
     </g>
     <g id="text_9">
      <!-- −3 -->
      <defs>
       <path d="M 10.59375 35.5 
L 73.1875 35.5 
L 73.1875 27.203125 
L 10.59375 27.203125 
z
" id="DejaVuSans-8722"/>
      </defs>
      <g transform="translate(50.257812 247.870942)scale(0.1 -0.1)">
       <use xlink:href="#DejaVuSans-8722"/>
       <use x="83.789062" xlink:href="#DejaVuSans-51"/>
      </g>
     </g>
    </g>
    <g id="ytick_2">
     <g id="line2d_17">
      <path clip-path="url(#p2acbe3ee34)" d="M 72 210.474482 
L 518.4 210.474482 
" style="fill:none;stroke:#b0b0b0;stroke-linecap:square;stroke-width:0.8;"/>
     </g>
     <g id="line2d_18">
      <g>
       <use style="stroke:#000000;stroke-width:0.8;" x="72" xlink:href="#m41483ac2a4" y="210.474482"/>
      </g>
     </g>
     <g id="text_10">
      <!-- −2 -->
      <g transform="translate(50.257812 214.273701)scale(0.1 -0.1)">
       <use xlink:href="#DejaVuSans-8722"/>
       <use x="83.789062" xlink:href="#DejaVuSans-50"/>
      </g>
     </g>
    </g>
    <g id="ytick_3">
     <g id="line2d_19">
      <path clip-path="url(#p2acbe3ee34)" d="M 72 176.877241 
L 518.4 176.877241 
" style="fill:none;stroke:#b0b0b0;stroke-linecap:square;stroke-width:0.8;"/>
     </g>
     <g id="line2d_20">
      <g>
       <use style="stroke:#000000;stroke-width:0.8;" x="72" xlink:href="#m41483ac2a4" y="176.877241"/>
      </g>
     </g>
     <g id="text_11">
      <!-- −1 -->
      <g transform="translate(50.257812 180.67646)scale(0.1 -0.1)">
       <use xlink:href="#DejaVuSans-8722"/>
       <use x="83.789062" xlink:href="#DejaVuSans-49"/>
      </g>
     </g>
    </g>
    <g id="ytick_4">
     <g id="line2d_21">
      <path clip-path="url(#p2acbe3ee34)" d="M 72 143.28 
L 518.4 143.28 
" style="fill:none;stroke:#b0b0b0;stroke-linecap:square;stroke-width:0.8;"/>
     </g>
     <g id="line2d_22">
      <g>
       <use style="stroke:#000000;stroke-width:0.8;" x="72" xlink:href="#m41483ac2a4" y="143.28"/>
      </g>
     </g>
     <g id="text_12">
      <!-- 0 -->
      <g transform="translate(58.6375 147.079219)scale(0.1 -0.1)">
       <use xlink:href="#DejaVuSans-48"/>
      </g>
     </g>
    </g>
    <g id="ytick_5">
     <g id="line2d_23">
      <path clip-path="url(#p2acbe3ee34)" d="M 72 109.682759 
L 518.4 109.682759 
" style="fill:none;stroke:#b0b0b0;stroke-linecap:square;stroke-width:0.8;"/>
     </g>
     <g id="line2d_24">
      <g>
       <use style="stroke:#000000;stroke-width:0.8;" x="72" xlink:href="#m41483ac2a4" y="109.682759"/>
      </g>
     </g>
     <g id="text_13">
      <!-- 1 -->
      <g transform="translate(58.6375 113.481978)scale(0.1 -0.1)">
       <use xlink:href="#DejaVuSans-49"/>
      </g>
     </g>
    </g>
    <g id="ytick_6">
     <g id="line2d_25">
      <path clip-path="url(#p2acbe3ee34)" d="M 72 76.085518 
L 518.4 76.085518 
" style="fill:none;stroke:#b0b0b0;stroke-linecap:square;stroke-width:0.8;"/>
     </g>
     <g id="line2d_26">
      <g>
       <use style="stroke:#000000;stroke-width:0.8;" x="72" xlink:href="#m41483ac2a4" y="76.085518"/>
      </g>
     </g>
     <g id="text_14">
      <!-- 2 -->
      <g transform="translate(58.6375 79.884737)scale(0.1 -0.1)">
       <use xlink:href="#DejaVuSans-50"/>
      </g>
     </g>
    </g>
    <g id="ytick_7">
     <g id="line2d_27">
      <path clip-path="url(#p2acbe3ee34)" d="M 72 42.488277 
L 518.4 42.488277 
" style="fill:none;stroke:#b0b0b0;stroke-linecap:square;stroke-width:0.8;"/>
     </g>
     <g id="line2d_28">
      <g>
       <use style="stroke:#000000;stroke-width:0.8;" x="72" xlink:href="#m41483ac2a4" y="42.488277"/>
      </g>
     </g>
     <g id="text_15">
      <!-- 3 -->
      <g transform="translate(58.6375 46.287496)scale(0.1 -0.1)">
       <use xlink:href="#DejaVuSans-51"/>
      </g>
     </g>
    </g>
    <g id="text_16">
     <!-- Aceleração (m/s²) -->
     <defs>
      <path d="M 34.1875 63.1875 
L 20.796875 26.90625 
L 47.609375 26.90625 
z
M 28.609375 72.90625 
L 39.796875 72.90625 
L 67.578125 0 
L 57.328125 0 
L 50.6875 18.703125 
L 17.828125 18.703125 
L 11.1875 0 
L 0.78125 0 
z
" id="DejaVuSans-65"/>
      <path d="M 48.78125 52.59375 
L 48.78125 44.1875 
Q 44.96875 46.296875 41.140625 47.34375 
Q 37.3125 48.390625 33.40625 48.390625 
Q 24.65625 48.390625 19.8125 42.84375 
Q 14.984375 37.3125 14.984375 27.296875 
Q 14.984375 17.28125 19.8125 11.734375 
Q 24.65625 6.203125 33.40625 6.203125 
Q 37.3125 6.203125 41.140625 7.25 
Q 44.96875 8.296875 48.78125 10.40625 
L 48.78125 2.09375 
Q 45.015625 0.34375 40.984375 -0.53125 
Q 36.96875 -1.421875 32.421875 -1.421875 
Q 20.0625 -1.421875 12.78125 6.34375 
Q 5.515625 14.109375 5.515625 27.296875 
Q 5.515625 40.671875 12.859375 48.328125 
Q 20.21875 56 33.015625 56 
Q 37.15625 56 41.109375 55.140625 
Q 45.0625 54.296875 48.78125 52.59375 
z
" id="DejaVuSans-99"/>
      <path d="M 9.421875 75.984375 
L 18.40625 75.984375 
L 18.40625 0 
L 9.421875 0 
z
" id="DejaVuSans-108"/>
      <path d="M 41.109375 46.296875 
Q 39.59375 47.171875 37.8125 47.578125 
Q 36.03125 48 33.890625 48 
Q 26.265625 48 22.1875 43.046875 
Q 18.109375 38.09375 18.109375 28.8125 
L 18.109375 0 
L 9.078125 0 
L 9.078125 54.6875 
L 18.109375 54.6875 
L 18.109375 46.1875 
Q 20.953125 51.171875 25.484375 53.578125 
Q 30.03125 56 36.53125 56 
Q 37.453125 56 38.578125 55.875 
Q 39.703125 55.765625 41.0625 55.515625 
z
" id="DejaVuSans-114"/>
      <path d="M 34.28125 27.484375 
Q 23.390625 27.484375 19.1875 25 
Q 14.984375 22.515625 14.984375 16.5 
Q 14.984375 11.71875 18.140625 8.90625 
Q 21.296875 6.109375 26.703125 6.109375 
Q 34.1875 6.109375 38.703125 11.40625 
Q 43.21875 16.703125 43.21875 25.484375 
L 43.21875 27.484375 
z
M 52.203125 31.203125 
L 52.203125 0 
L 43.21875 0 
L 43.21875 8.296875 
Q 40.140625 3.328125 35.546875 0.953125 
Q 30.953125 -1.421875 24.3125 -1.421875 
Q 15.921875 -1.421875 10.953125 3.296875 
Q 6 8.015625 6 15.921875 
Q 6 25.140625 12.171875 29.828125 
Q 18.359375 34.515625 30.609375 34.515625 
L 43.21875 34.515625 
L 43.21875 35.40625 
Q 43.21875 41.609375 39.140625 45 
Q 35.0625 48.390625 27.6875 48.390625 
Q 23 48.390625 18.546875 47.265625 
Q 14.109375 46.140625 10.015625 43.890625 
L 10.015625 52.203125 
Q 14.9375 54.109375 19.578125 55.046875 
Q 24.21875 56 28.609375 56 
Q 40.484375 56 46.34375 49.84375 
Q 52.203125 43.703125 52.203125 31.203125 
z
" id="DejaVuSans-97"/>
      <path d="M 48.78125 52.59375 
L 48.78125 44.1875 
Q 44.96875 46.296875 41.140625 47.34375 
Q 37.3125 48.390625 33.40625 48.390625 
Q 24.65625 48.390625 19.8125 42.84375 
Q 14.984375 37.3125 14.984375 27.296875 
Q 14.984375 17.28125 19.8125 11.734375 
Q 24.65625 6.203125 33.40625 6.203125 
Q 37.3125 6.203125 41.140625 7.25 
Q 44.96875 8.296875 48.78125 10.40625 
L 48.78125 2.09375 
Q 45.015625 0.34375 40.984375 -0.53125 
Q 36.96875 -1.421875 32.421875 -1.421875 
Q 20.0625 -1.421875 12.78125 6.34375 
Q 5.515625 14.109375 5.515625 27.296875 
Q 5.515625 40.671875 12.859375 48.328125 
Q 20.21875 56 33.015625 56 
Q 37.15625 56 41.109375 55.140625 
Q 45.0625 54.296875 48.78125 52.59375 
z
M 36.078125 0 
Q 38.765625 -3.03125 40.078125 -5.59375 
Q 41.40625 -8.15625 41.40625 -10.5 
Q 41.40625 -14.84375 38.46875 -17.0625 
Q 35.546875 -19.28125 29.78125 -19.28125 
Q 27.546875 -19.28125 25.421875 -18.984375 
Q 23.296875 -18.703125 21.1875 -18.109375 
L 21.1875 -11.71875 
Q 22.859375 -12.546875 24.65625 -12.90625 
Q 26.46875 -13.28125 28.765625 -13.28125 
Q 31.640625 -13.28125 33.109375 -12.109375 
Q 34.578125 -10.9375 34.578125 -8.6875 
Q 34.578125 -7.234375 33.515625 -5.109375 
Q 32.46875 -2.984375 30.28125 0 
z
" id="DejaVuSans-231"/>
      <path d="M 34.28125 27.484375 
Q 23.390625 27.484375 19.1875 25 
Q 14.984375 22.515625 14.984375 16.5 
Q 14.984375 11.71875 18.140625 8.90625 
Q 21.296875 6.109375 26.703125 6.109375 
Q 34.1875 6.109375 38.703125 11.40625 
Q 43.21875 16.703125 43.21875 25.484375 
L 43.21875 27.484375 
z
M 52.203125 31.203125 
L 52.203125 0 
L 43.21875 0 
L 43.21875 8.296875 
Q 40.140625 3.328125 35.546875 0.953125 
Q 30.953125 -1.421875 24.3125 -1.421875 
Q 15.921875 -1.421875 10.953125 3.296875 
Q 6 8.015625 6 15.921875 
Q 6 25.140625 12.171875 29.828125 
Q 18.359375 34.515625 30.609375 34.515625 
L 43.21875 34.515625 
L 43.21875 35.40625 
Q 43.21875 41.609375 39.140625 45 
Q 35.0625 48.390625 27.6875 48.390625 
Q 23 48.390625 18.546875 47.265625 
Q 14.109375 46.140625 10.015625 43.890625 
L 10.015625 52.203125 
Q 14.9375 54.109375 19.578125 55.046875 
Q 24.21875 56 28.609375 56 
Q 40.484375 56 46.34375 49.84375 
Q 52.203125 43.703125 52.203125 31.203125 
z
M 28.8125 66.890625 
L 26.03125 69.578125 
Q 24.953125 70.5625 24.140625 71.015625 
Q 23.34375 71.484375 22.703125 71.484375 
Q 20.84375 71.484375 19.96875 69.703125 
Q 19.09375 67.921875 19 63.921875 
L 12.890625 63.921875 
Q 12.984375 70.515625 15.46875 74.09375 
Q 17.96875 77.6875 22.40625 77.6875 
Q 24.265625 77.6875 25.828125 77 
Q 27.390625 76.3125 29.203125 74.703125 
L 31.984375 72.015625 
Q 33.0625 71.046875 33.859375 70.578125 
Q 34.671875 70.125 35.296875 70.125 
Q 37.15625 70.125 38.03125 71.90625 
Q 38.921875 73.6875 39.015625 77.6875 
L 45.125 77.6875 
Q 45.015625 71.09375 42.53125 67.5 
Q 40.046875 63.921875 35.59375 63.921875 
Q 33.734375 63.921875 32.171875 64.59375 
Q 30.609375 65.28125 28.8125 66.890625 
z
" id="DejaVuSans-227"/>
      <path d="M 25.390625 72.90625 
L 33.6875 72.90625 
L 8.296875 -9.28125 
L 0 -9.28125 
z
" id="DejaVuSans-47"/>
      <path d="M 13.09375 38.1875 
L 33.796875 38.1875 
L 33.796875 32.625 
L 4.59375 32.625 
L 4.59375 37.984375 
Q 6.25 39.5 9.328125 42.234375 
Q 26.125 57.125 26.125 61.71875 
Q 26.125 64.9375 23.578125 66.90625 
Q 21.046875 68.890625 16.890625 68.890625 
Q 14.359375 68.890625 11.375 68.03125 
Q 8.40625 67.1875 4.890625 65.484375 
L 4.890625 71.484375 
Q 8.640625 72.859375 11.890625 73.53125 
Q 15.140625 74.21875 17.921875 74.21875 
Q 25 74.21875 29.25 71 
Q 33.5 67.78125 33.5 62.5 
Q 33.5 55.71875 17.328125 41.84375 
Q 14.59375 39.5 13.09375 38.1875 
z
" id="DejaVuSans-178"/>
     </defs>
     <g transform="translate(44.178125 187.551094)rotate(-90)scale(0.1 -0.1)">
      <use xlink:href="#DejaVuSans-65"/>
      <use x="66.658203" xlink:href="#DejaVuSans-99"/>
      <use x="121.638672" xlink:href="#DejaVuSans-101"/>
      <use x="183.162109" xlink:href="#DejaVuSans-108"/>
      <use x="210.945312" xlink:href="#DejaVuSans-101"/>
      <use x="272.46875" xlink:href="#DejaVuSans-114"/>
      <use x="313.582031" xlink:href="#DejaVuSans-97"/>
      <use x="374.861328" xlink:href="#DejaVuSans-231"/>
      <use x="429.841797" xlink:href="#DejaVuSans-227"/>
      <use x="491.121094" xlink:href="#DejaVuSans-111"/>
      <use x="552.302734" xlink:href="#DejaVuSans-32"/>
      <use x="584.089844" xlink:href="#DejaVuSans-40"/>
      <use x="623.103516" xlink:href="#DejaVuSans-109"/>
      <use x="720.515625" xlink:href="#DejaVuSans-47"/>
      <use x="754.207031" xlink:href="#DejaVuSans-115"/>
      <use x="806.306641" xlink:href="#DejaVuSans-178"/>
      <use x="846.394531" xlink:href="#DejaVuSans-41"/>
     </g>
    </g>
   </g>
   <g id="line2d_29">
    <path clip-path="url(#p2acbe3ee34)" d="M 72 143.28 
L 72.446489 143.370616 
L 72.744149 143.845945 
L 73.339468 145.011818 
L 73.637127 145.576151 
L 73.934787 145.546341 
L 74.232446 145.716072 
L 74.381276 145.723304 
L 74.530106 145.843725 
L 74.827766 146.387502 
L 74.976595 146.409321 
L 75.274255 145.737488 
L 75.571914 144.647609 
L 76.167233 140.710304 
L 76.316063 140.917097 
L 76.613723 143.566718 
L 76.911382 146.184029 
L 77.060212 144.998525 
L 77.357872 140.127316 
L 77.655531 138.529276 
L 77.953191 134.742166 
L 78.10202 134.968616 
L 78.39968 138.271322 
L 78.697339 137.683512 
L 78.994999 141.512037 
L 79.292659 145.944249 
L 79.739148 156.967247 
L 80.036807 157.519281 
L 80.483297 161.166651 
L 80.632126 160.757807 
L 80.780956 158.842365 
L 82.418084 120.294617 
L 82.715743 124.996588 
L 83.311062 140.915685 
L 83.757552 143.882224 
L 84.055211 150.032802 
L 84.352871 156.083136 
L 84.5017 155.762283 
L 84.79936 151.715432 
L 84.94819 151.369946 
L 85.097019 151.792465 
L 85.245849 151.683716 
L 85.394679 150.153118 
L 85.692338 141.460501 
L 85.989998 133.314125 
L 86.287658 128.369278 
L 86.734147 118.895675 
L 87.031806 110.830064 
L 87.180636 106.56024 
L 87.329466 107.423761 
L 87.627125 125.321589 
L 88.073615 155.906593 
L 88.371274 163.821222 
L 88.520104 163.880391 
L 88.668934 162.269089 
L 89.710742 143.105921 
L 90.008402 139.244988 
L 90.306061 134.479679 
L 90.454891 134.641518 
L 90.752551 138.954033 
L 90.90138 138.4561 
L 91.794359 122.773275 
L 92.240848 131.214508 
L 92.389678 130.825332 
L 92.538508 132.375062 
L 92.836167 137.608383 
L 92.984997 137.298899 
L 93.133827 139.010615 
L 93.580316 151.106541 
L 93.729146 153.278334 
L 94.175635 171.572548 
L 94.473295 169.044688 
L 94.770954 176.96015 
L 94.919784 175.760574 
L 95.515103 140.286569 
L 96.259252 94.629457 
L 96.408082 93.631371 
L 96.705741 107.692198 
L 97.30106 146.06666 
L 97.59872 160.910469 
L 97.74755 162.591894 
L 98.194039 179.7774 
L 98.491698 167.425275 
L 98.640528 167.168673 
L 98.789358 168.174237 
L 98.938188 162.808729 
L 99.235847 141.607571 
L 99.384677 138.362139 
L 99.831166 145.409867 
L 100.128826 134.39264 
L 100.277656 134.278899 
L 101.170634 171.047567 
L 101.319464 169.415556 
L 101.468294 173.548208 
L 101.765953 192.328585 
L 102.063613 194.153926 
L 102.361272 202.656265 
L 102.658932 176.555693 
L 103.254251 134.031659 
L 103.403081 132.987658 
L 103.55191 140.351957 
L 103.70074 140.723143 
L 104.147229 109.421756 
L 104.444889 118.983158 
L 104.891378 143.159289 
L 105.040208 141.657917 
L 105.189038 136.174027 
L 105.337868 136.770287 
L 105.784357 156.192868 
L 105.933187 156.474718 
L 106.082016 157.007738 
L 106.230846 159.483381 
L 106.528506 170.059243 
L 106.677335 170.153211 
L 106.974995 146.381745 
L 107.272655 126.540775 
L 107.570314 113.99408 
L 108.016803 91.46824 
L 108.165633 93.70081 
L 108.909782 140.843477 
L 109.356271 158.451461 
L 109.505101 160.682227 
L 109.653931 160.174067 
L 109.802761 158.049157 
L 109.95159 157.932293 
L 110.10042 163.07189 
L 110.695739 195.901594 
L 110.844569 198.354383 
L 110.993399 196.697671 
L 111.291058 189.988238 
L 111.588718 194.742336 
L 111.737548 191.706141 
L 112.184037 153.699799 
L 112.332867 153.03963 
L 112.481696 156.321909 
L 112.630526 155.024803 
L 112.928186 133.928888 
L 113.672334 74.48663 
L 113.821164 67.999567 
L 113.969994 69.184251 
L 114.267654 86.484055 
L 114.416483 87.766401 
L 114.565313 84.316795 
L 114.714143 85.149348 
L 115.011802 97.481724 
L 115.160632 95.914966 
L 115.309462 92.838173 
L 115.458292 95.981574 
L 115.904781 122.387584 
L 116.053611 124.023063 
L 116.35127 118.354207 
L 116.5001 123.82062 
L 116.79776 146.968245 
L 116.946589 146.273306 
L 117.095419 140.760045 
L 117.244249 141.20951 
L 117.988398 179.848804 
L 118.137227 172.759238 
L 118.434887 149.680817 
L 118.732547 149.512059 
L 119.476695 109.183437 
L 119.923185 65.506587 
L 120.072014 61.095103 
L 120.220844 60.834794 
L 120.369674 65.929074 
L 120.816163 94.645458 
L 121.113823 87.633823 
L 121.262653 91.992233 
L 121.560312 128.063261 
L 122.155631 200.501455 
L 122.75095 252 
L 122.89978 246.505422 
L 123.346269 203.631826 
L 123.792759 151.078285 
L 123.941588 149.00849 
L 124.090418 144.818908 
L 124.536907 113.47504 
L 124.685737 116.378845 
L 124.983397 129.203402 
L 125.429886 159.213507 
L 125.578716 157.462543 
L 125.727546 157.294981 
L 126.174035 178.935306 
L 126.322865 178.585875 
L 126.620524 176.037319 
L 127.067013 160.285902 
L 127.215843 162.774806 
L 127.364673 167.849243 
L 127.513503 168.210093 
L 127.811162 159.133754 
L 127.959992 161.616183 
L 128.257652 170.787233 
L 128.406481 165.579979 
L 128.852971 127.951655 
L 129.0018 125.98812 
L 129.29946 132.065531 
L 129.597119 130.510725 
L 130.043609 141.194153 
L 130.192438 143.102378 
L 130.490098 164.937586 
L 130.787758 180.581083 
L 131.085417 182.22291 
L 131.234247 181.943761 
L 131.531906 179.363514 
L 131.680736 179.966118 
L 131.829566 178.773888 
L 132.127225 172.686306 
L 132.276055 177.001313 
L 133.020204 213.074041 
L 133.169034 211.340189 
L 134.359672 120.899508 
L 134.657331 132.522746 
L 134.806161 131.133098 
L 135.103821 115.581272 
L 135.252651 123.671284 
L 135.69914 164.087704 
L 135.84797 166.375821 
L 135.996799 165.712798 
L 136.294459 162.409036 
L 136.443289 166.007084 
L 136.740948 179.594654 
L 136.889778 182.069713 
L 137.038608 180.374431 
L 137.485097 163.598583 
L 137.633927 163.345842 
L 137.782757 164.932912 
L 138.080416 165.769336 
L 138.229246 167.764612 
L 138.378076 167.317518 
L 138.824565 149.004967 
L 138.973395 151.844978 
L 139.122224 150.792313 
L 139.271054 145.009137 
L 139.419884 145.527174 
L 139.866373 180.502188 
L 140.015203 184.673373 
L 140.312863 203.675113 
L 140.461692 202.979966 
L 140.610522 194.445417 
L 140.759352 192.407261 
L 141.057011 209.73027 
L 141.205841 208.973523 
L 141.354671 204.832862 
L 141.503501 204.575035 
L 141.65233 203.810364 
L 142.09882 176.65226 
L 142.24765 177.098846 
L 142.545309 178.858785 
L 142.694139 184.300544 
L 142.991798 205.91072 
L 143.140628 207.151072 
L 143.438288 184.81142 
L 143.884777 151.161912 
L 144.182436 124.468874 
L 144.480096 99.637414 
L 144.777756 95.382196 
L 145.075415 85.701224 
L 145.224245 86.847545 
L 145.521904 104.536707 
L 145.819564 129.980921 
L 145.968394 133.824889 
L 146.563713 114.673694 
L 146.712543 114.114104 
L 146.861372 117.693197 
L 147.307862 137.942693 
L 147.456691 139.691891 
L 147.754351 156.28567 
L 147.903181 163.518257 
L 148.05201 161.418229 
L 148.34967 132.715043 
L 148.647329 103.572961 
L 148.944989 96.543544 
L 149.093819 95.807871 
L 149.242649 96.004723 
L 149.391478 99.212624 
L 149.689138 110.341986 
L 149.837968 111.578105 
L 150.135627 106.932377 
L 150.284457 110.142623 
L 150.730946 136.561313 
L 150.879776 138.397699 
L 151.028606 138.75909 
L 151.177435 137.618817 
L 151.475095 128.048762 
L 151.623925 128.323016 
L 151.921584 138.391738 
L 152.070414 139.681436 
L 152.219244 142.193123 
L 152.368074 146.812925 
L 152.516903 147.297433 
L 152.814563 140.10069 
L 153.112222 157.771677 
L 153.261052 157.587343 
L 153.856371 120.808075 
L 154.005201 116.091972 
L 154.154031 118.939442 
L 154.45169 130.589048 
L 154.60052 132.531309 
L 155.047009 150.496455 
L 155.195839 147.142119 
L 155.344669 146.856482 
L 155.791158 170.367559 
L 155.939988 166.502674 
L 156.535307 137.618576 
L 156.832967 141.934012 
L 156.981796 139.321724 
L 157.577115 117.655957 
L 157.725945 117.944491 
L 157.874775 121.397188 
L 158.023605 127.536764 
L 158.618924 165.97105 
L 158.767754 165.008465 
L 158.916583 177.166079 
L 159.214243 209.605177 
L 159.660732 185.583947 
L 159.809562 188.079112 
L 159.958392 186.161523 
L 160.256051 179.81666 
L 160.404881 178.86983 
L 160.85137 159.900502 
L 161.14903 127.113086 
L 161.446689 104.11928 
L 161.595519 106.706357 
L 161.744349 104.593838 
L 161.893179 100.615107 
L 162.042008 105.049043 
L 162.190838 113.804241 
L 162.339668 113.190477 
L 162.637327 98.808963 
L 162.786157 102.097739 
L 162.934987 102.467329 
L 163.083817 97.320379 
L 163.232647 98.686945 
L 163.530306 121.033517 
L 163.679136 119.563933 
L 163.827966 115.480733 
L 164.125625 123.83586 
L 164.423285 121.076002 
L 164.572114 131.217632 
L 164.869774 161.935242 
L 165.316263 182.289899 
L 165.613923 192.349739 
L 166.060412 201.973318 
L 166.358072 194.370424 
L 166.506901 188.531263 
L 166.953391 151.609426 
L 167.25105 149.050852 
L 167.846369 104.611466 
L 167.995199 104.369489 
L 168.144029 104.365885 
L 168.292859 105.954645 
L 168.590518 121.436718 
L 168.888178 133.639518 
L 169.037007 134.511675 
L 169.185837 137.101117 
L 169.781156 156.224123 
L 170.078816 179.302899 
L 170.227646 175.618728 
L 170.674135 132.126119 
L 171.120624 123.101503 
L 171.567113 141.822179 
L 171.715943 141.945321 
L 171.864773 146.334452 
L 172.311262 172.470127 
L 172.460092 176.775558 
L 172.906581 198.061845 
L 173.353071 172.746128 
L 173.65073 183.122467 
L 173.79956 181.05479 
L 174.394879 158.573778 
L 174.692539 140.807965 
L 174.841368 141.004243 
L 174.990198 136.490038 
L 175.585517 85.608028 
L 175.734347 84.195673 
L 175.883177 88.121986 
L 176.329666 120.30084 
L 176.627325 111.192587 
L 176.776155 121.279745 
L 177.222645 173.278044 
L 177.371474 177.751974 
L 177.520304 177.439139 
L 177.669134 177.554733 
L 177.966793 187.814151 
L 178.115623 187.647654 
L 178.562112 162.60293 
L 178.859772 133.101352 
L 179.008602 117.998906 
L 179.157431 114.463446 
L 179.306261 117.543766 
L 179.455091 114.349335 
L 179.90158 84.634085 
L 180.05041 84.169366 
L 180.19924 81.292375 
L 180.496899 74.485395 
L 180.645729 80.23693 
L 181.092218 123.279941 
L 181.389878 160.774035 
L 181.836367 221.894802 
L 181.985197 223.576917 
L 182.431686 214.726783 
L 182.729346 198.710214 
L 183.175835 151.387453 
L 183.473495 125.115872 
L 183.771154 119.306572 
L 183.919984 118.890894 
L 184.068814 116.87912 
L 184.515303 104.608735 
L 184.664133 107.632788 
L 184.961792 117.852491 
L 185.110622 118.473222 
L 185.557111 108.226545 
L 186.003601 113.285785 
L 186.15243 112.652327 
L 186.30126 117.160286 
L 186.74775 142.346595 
L 187.045409 140.268637 
L 187.491898 144.975594 
L 187.640728 144.455228 
L 187.789558 145.151992 
L 187.938388 150.340213 
L 188.384877 178.313928 
L 188.682537 181.64817 
L 188.831366 182.489417 
L 188.980196 179.512363 
L 189.724345 146.85771 
L 189.873175 141.973313 
L 190.022004 145.924048 
L 190.468494 170.752872 
L 190.766153 177.19292 
L 190.914983 177.24821 
L 191.212643 170.270403 
L 191.361472 170.698173 
L 191.510302 172.091518 
L 191.659132 170.942028 
L 191.807962 167.111275 
L 191.956791 160.288676 
L 193.147429 68.301073 
L 193.445089 86.473395 
L 193.593919 88.202417 
L 193.742749 88.098109 
L 193.891578 95.770078 
L 194.338068 134.634174 
L 194.635727 148.341554 
L 194.784557 149.937257 
L 194.933387 146.537721 
L 195.231046 132.345508 
L 195.528706 116.404296 
L 195.677536 120.683981 
L 196.124025 157.144967 
L 196.868174 189.167994 
L 197.165833 194.828029 
L 197.314663 194.083029 
L 197.909982 178.002769 
L 198.505301 117.813225 
L 199.24945 166.458465 
L 199.547109 182.446337 
L 199.844769 190.635155 
L 200.142428 215.968646 
L 200.440088 242.109691 
L 200.588918 239.668264 
L 200.886577 224.071105 
L 201.035407 226.473711 
L 201.184237 225.064778 
L 201.779556 163.907101 
L 201.928386 157.575619 
L 202.226045 133.691366 
L 202.374875 133.64654 
L 202.523705 134.123899 
L 202.821364 124.968851 
L 203.267854 149.509505 
L 203.416683 148.783431 
L 203.565513 156.709724 
L 203.863173 182.535125 
L 204.309662 198.416773 
L 204.458492 192.401017 
L 204.756151 173.683777 
L 205.053811 185.936612 
L 205.35147 186.106639 
L 205.79796 199.129033 
L 206.095619 192.416522 
L 206.542108 179.963455 
L 206.690938 176.097505 
L 207.137427 144.411983 
L 207.286257 142.113181 
L 208.328066 89.917371 
L 208.476895 90.858884 
L 208.625725 95.310725 
L 208.774555 95.727625 
L 208.923385 95.635199 
L 209.072214 98.559966 
L 209.221044 99.093669 
L 209.369874 94.647915 
L 209.518704 93.933987 
L 209.965193 118.483534 
L 210.114023 117.649248 
L 210.262853 119.628494 
L 210.560512 124.758326 
L 210.709342 125.163639 
L 210.858172 126.90754 
L 211.007001 126.128135 
L 211.155831 121.466105 
L 211.304661 120.836435 
L 212.19764 176.063383 
L 212.346469 172.43855 
L 212.644129 151.673613 
L 213.090618 162.728429 
L 213.239448 161.137847 
L 213.388278 157.942561 
L 213.983597 127.109574 
L 214.430086 99.742023 
L 214.578916 98.949354 
L 214.876575 95.687881 
L 215.620724 132.110696 
L 215.918384 167.062957 
L 216.067213 172.179869 
L 216.216043 169.874521 
L 216.364873 169.566009 
L 216.811362 180.945132 
L 217.109022 192.736245 
L 217.257852 188.606581 
L 217.853171 142.184572 
L 218.15083 122.747427 
L 218.44849 108.106215 
L 218.746149 111.849552 
L 219.192639 92.449405 
L 219.341468 95.845033 
L 219.787958 113.130702 
L 220.234447 122.913382 
L 220.532106 130.330371 
L 220.680936 128.996052 
L 220.829766 129.466112 
L 221.276255 145.939836 
L 221.573915 173.658674 
L 222.020404 209.628936 
L 222.318064 236.655658 
L 222.466893 237.631137 
L 222.615723 234.106432 
L 222.764553 236.853428 
L 222.913383 241.844483 
L 223.062212 236.636829 
L 224.55051 93.732283 
L 224.996999 87.071962 
L 225.145829 91.902091 
L 225.443489 112.714174 
L 225.741148 125.005496 
L 226.038808 149.139361 
L 226.187638 152.709935 
L 226.336467 152.977309 
L 226.485297 153.635389 
L 226.634127 151.818166 
L 226.782957 148.243095 
L 226.931786 151.669862 
L 227.378276 184.407585 
L 227.527105 185.087152 
L 227.675935 187.920319 
L 227.824765 188.466593 
L 228.568914 149.70627 
L 228.866573 141.306856 
L 229.164233 145.600073 
L 229.461892 143.020249 
L 229.610722 145.154545 
L 229.908382 162.318579 
L 230.206041 183.965596 
L 230.503701 188.318745 
L 230.95019 210.832932 
L 231.24785 197.269943 
L 231.396679 199.720024 
L 231.545509 204.22259 
L 231.694339 199.096204 
L 231.991998 171.713077 
L 232.140828 168.138827 
L 232.289658 168.923659 
L 232.438488 166.352782 
L 233.182637 133.581797 
L 233.331466 123.673793 
L 233.480296 121.277098 
L 233.777956 126.810035 
L 234.075615 139.928906 
L 234.224445 147.274574 
L 234.373275 147.830486 
L 234.670934 142.893898 
L 234.819764 144.949686 
L 234.968594 144.837988 
L 235.117423 142.692154 
L 235.266253 145.104208 
L 235.563913 159.376619 
L 235.712743 158.209949 
L 235.861572 154.428804 
L 236.010402 153.764426 
L 236.159232 154.121415 
L 236.605721 143.449051 
L 236.903381 145.837908 
L 237.05221 140.508658 
L 237.4987 104.58184 
L 237.64753 109.94403 
L 237.945189 128.193855 
L 238.242849 123.103308 
L 238.838168 146.710626 
L 239.135827 167.400651 
L 239.284657 165.332814 
L 239.433487 159.331046 
L 239.582316 162.647036 
L 239.879976 181.868394 
L 240.028806 180.834626 
L 240.177636 181.05916 
L 240.475295 194.8989 
L 240.624125 193.067246 
L 240.772955 187.685759 
L 240.921784 187.246069 
L 241.070614 189.43442 
L 241.219444 184.596649 
L 241.665933 152.396918 
L 241.814763 153.769476 
L 241.963593 151.872647 
L 242.410082 123.61191 
L 242.707742 122.44019 
L 243.005401 114.334604 
L 243.154231 116.543829 
L 243.45189 136.117612 
L 243.74955 158.917211 
L 243.89838 162.715587 
L 244.344869 149.239848 
L 244.642529 154.32908 
L 244.791358 152.188126 
L 244.940188 154.920542 
L 245.237848 171.311486 
L 245.386677 168.629842 
L 245.684337 159.856929 
L 245.833167 159.150044 
L 246.279656 143.160533 
L 246.428486 145.283716 
L 246.577315 140.532496 
L 247.023805 95.251908 
L 247.172635 95.572522 
L 247.470294 108.136393 
L 248.065613 139.873299 
L 248.214443 141.840652 
L 248.363273 142.087249 
L 248.809762 134.998663 
L 249.256251 144.491806 
L 249.553911 121.493966 
L 249.85157 105.969115 
L 250.29806 117.281013 
L 250.595719 114.228224 
L 250.744549 114.399289 
L 250.893379 115.089451 
L 251.042208 118.442422 
L 252.679336 211.281897 
L 253.125825 203.616747 
L 253.274655 204.866182 
L 253.423485 203.283042 
L 254.167634 178.031867 
L 255.060612 132.339188 
L 255.209442 130.859538 
L 255.358272 134.180801 
L 255.655931 145.569277 
L 255.804761 146.300356 
L 255.953591 144.662666 
L 256.10242 145.894278 
L 256.40008 152.02067 
L 257.144229 126.671122 
L 257.590718 97.142405 
L 257.739548 98.168509 
L 258.037207 111.927803 
L 258.334867 128.641095 
L 258.632527 131.095135 
L 258.930186 145.517293 
L 259.079016 144.617485 
L 259.376675 128.334402 
L 259.674335 133.319554 
L 259.823165 128.727667 
L 259.971994 120.349072 
L 260.120824 119.045129 
L 260.418484 132.905223 
L 260.716143 137.359126 
L 261.162633 152.826214 
L 261.311462 155.385132 
L 261.757952 173.400469 
L 261.906781 174.639549 
L 262.204441 179.703397 
L 262.353271 174.665428 
L 263.246249 109.951255 
L 263.543909 111.612761 
L 263.692739 109.828999 
L 263.841568 109.495321 
L 264.139228 121.496634 
L 264.436887 134.402714 
L 264.585717 136.379522 
L 264.883377 130.461782 
L 265.032206 130.850105 
L 265.329866 137.11604 
L 265.627526 132.003864 
L 265.776355 133.103999 
L 266.222845 144.851042 
L 267.115823 186.755941 
L 267.264653 181.727732 
L 267.562312 167.702274 
L 267.859972 175.694116 
L 268.008802 174.115057 
L 268.455291 164.172619 
L 269.05061 123.162306 
L 269.19944 121.5395 
L 269.497099 113.5826 
L 269.645929 112.955787 
L 269.794759 113.93293 
L 269.943589 113.531555 
L 270.092418 112.795424 
L 270.241248 114.326214 
L 270.538908 118.356948 
L 270.687738 120.001543 
L 270.836567 127.349489 
L 271.283057 167.359331 
L 271.580716 175.34289 
L 271.729546 175.678633 
L 271.878376 172.993441 
L 272.176035 162.032891 
L 272.920184 125.751617 
L 273.069014 125.473545 
L 273.217844 123.379116 
L 273.813163 104.385052 
L 273.961992 106.596946 
L 274.408482 117.925407 
L 274.557311 118.367959 
L 274.854971 114.683432 
L 275.003801 117.696499 
L 275.30146 128.47682 
L 275.45029 129.960037 
L 275.59912 132.683983 
L 275.896779 141.355677 
L 276.194439 135.416485 
L 276.343269 136.284503 
L 276.492098 137.825705 
L 276.640928 133.350093 
L 276.938588 122.527851 
L 277.682737 150.150625 
L 277.831566 150.031593 
L 277.980396 148.224176 
L 278.129226 148.98515 
L 278.426885 156.79604 
L 278.575715 155.6204 
L 279.171034 141.346193 
L 279.915183 110.008131 
L 280.064013 108.286518 
L 280.212843 110.541657 
L 280.659332 122.713799 
L 280.808162 121.298756 
L 281.105821 113.100976 
L 281.254651 114.118749 
L 281.9988 138.369675 
L 282.445289 162.253097 
L 282.594119 161.949645 
L 282.891778 153.528142 
L 283.338268 150.171193 
L 283.487097 150.32049 
L 283.635927 151.667736 
L 283.784757 150.573703 
L 284.231246 135.749869 
L 284.380076 134.252207 
L 284.826565 124.874421 
L 285.124225 128.389686 
L 285.273055 127.276416 
L 285.719544 121.008489 
L 286.017203 118.553963 
L 286.166033 119.842696 
L 286.463693 126.334484 
L 286.612523 125.570652 
L 286.910182 120.96534 
L 287.356671 132.066405 
L 287.505501 130.795116 
L 287.654331 133.142604 
L 287.95199 147.59038 
L 288.10082 148.994126 
L 288.39848 144.91862 
L 288.696139 134.329758 
L 288.844969 130.104524 
L 288.993799 133.965589 
L 289.291458 144.813335 
L 289.737948 129.114622 
L 289.886777 129.235841 
L 290.035607 127.862841 
L 290.184437 125.182549 
L 290.333267 124.610826 
L 290.630926 131.347229 
L 290.928586 139.9579 
L 291.226245 155.605153 
L 291.672735 180.51493 
L 291.821564 182.338228 
L 291.970394 181.547221 
L 292.119224 178.636673 
L 292.416883 163.702067 
L 293.012202 124.471495 
L 293.161032 121.516803 
L 293.309862 123.349939 
L 293.607522 130.780551 
L 293.756351 130.207198 
L 294.202841 118.832907 
L 294.5005 110.713934 
L 294.64933 111.629061 
L 295.095819 126.453324 
L 295.244649 128.509688 
L 295.691138 141.655694 
L 295.839968 141.062855 
L 295.988798 141.356713 
L 296.286457 147.970556 
L 296.435287 148.433338 
L 296.584117 149.38139 
L 297.030606 163.711867 
L 297.625925 154.59792 
L 297.923585 142.536151 
L 298.072414 140.941934 
L 298.221244 142.177065 
L 298.370074 141.110571 
L 298.816563 126.752119 
L 299.263053 124.733231 
L 299.411882 125.076123 
L 299.560712 129.290841 
L 300.007201 151.614251 
L 300.156031 153.606041 
L 300.304861 153.824013 
L 300.453691 154.342869 
L 300.90018 157.938364 
L 301.04901 156.559825 
L 301.346669 141.948676 
L 301.644329 128.967443 
L 301.793159 130.83104 
L 302.090818 136.437933 
L 302.239648 136.389727 
L 302.388478 137.336263 
L 302.834967 148.199804 
L 303.132627 159.40337 
L 303.579116 176.80935 
L 303.876775 183.103215 
L 304.025605 183.976291 
L 304.323265 184.238925 
L 304.472094 183.301807 
L 304.620924 179.116468 
L 305.662733 129.761838 
L 305.811562 130.034957 
L 305.960392 127.6282 
L 306.406881 113.49481 
L 306.704541 114.898942 
L 306.853371 114.14657 
L 307.0022 114.611067 
L 307.29986 124.784028 
L 307.746349 138.950141 
L 308.341668 153.331577 
L 308.490498 152.549339 
L 308.936987 143.922323 
L 309.085817 144.622726 
L 309.532306 152.260681 
L 309.681136 152.174616 
L 309.978796 148.559063 
L 310.425285 163.957577 
L 310.722945 153.128259 
L 310.871774 152.557365 
L 311.020604 152.460289 
L 311.318264 144.177802 
L 311.467093 145.037832 
L 311.615923 148.246655 
L 311.764753 147.235008 
L 312.062412 137.621246 
L 312.360072 132.623447 
L 312.508902 129.551401 
L 312.657732 130.428378 
L 312.955391 138.822171 
L 313.104221 140.214167 
L 313.253051 143.87165 
L 313.55071 157.833036 
L 313.69954 157.749311 
L 313.997199 149.963575 
L 314.146029 149.762677 
L 314.443689 154.961744 
L 314.592519 157.541167 
L 314.741348 157.383887 
L 315.187838 150.786208 
L 315.336667 150.536845 
L 315.485497 150.972651 
L 315.783157 159.183885 
L 315.931986 162.296919 
L 316.080816 160.235948 
L 316.378476 150.841446 
L 316.973795 142.340068 
L 317.271454 130.328315 
L 317.420284 129.688202 
L 317.717944 135.990179 
L 318.015603 129.488363 
L 318.164433 130.650006 
L 318.462092 138.695204 
L 318.759752 142.507438 
L 319.057411 148.074082 
L 319.206241 147.772719 
L 319.355071 147.947982 
L 319.652731 150.6822 
L 320.09922 143.160612 
L 320.396879 145.838047 
L 320.545709 143.541177 
L 320.843369 131.37707 
L 320.992198 131.195834 
L 321.289858 138.98107 
L 321.438688 137.785158 
L 321.587518 135.230904 
L 321.736347 135.569635 
L 322.034007 140.366231 
L 322.182837 140.009587 
L 322.778156 132.859817 
L 323.224645 137.731455 
L 323.373475 138.693659 
L 323.671134 145.519409 
L 324.117624 155.512421 
L 324.266453 157.255989 
L 324.415283 157.484766 
L 324.564113 158.376905 
L 324.861772 163.181345 
L 325.010602 161.943929 
L 325.159432 159.430359 
L 325.308262 159.24804 
L 325.457091 160.512902 
L 325.605921 158.971014 
L 326.20124 141.405477 
L 326.796559 125.248258 
L 327.094219 122.164809 
L 327.243049 121.958533 
L 327.391878 124.733825 
L 327.689538 133.65631 
L 327.838368 133.779003 
L 327.987197 131.861287 
L 328.136027 132.601857 
L 328.582517 145.586201 
L 328.880176 143.701981 
L 329.177836 148.195735 
L 329.326665 147.274842 
L 329.921984 130.811874 
L 330.219644 133.472405 
L 330.368474 133.757376 
L 330.517303 134.930026 
L 330.963793 144.695209 
L 331.410282 157.841473 
L 331.856771 160.10277 
L 332.005601 159.125696 
L 332.303261 155.586635 
L 332.60092 157.498564 
L 332.74975 155.925866 
L 332.89858 156.601963 
L 333.345069 174.558063 
L 333.493899 174.40318 
L 333.791558 171.211821 
L 334.089218 164.002322 
L 334.238048 164.238226 
L 334.386877 166.150389 
L 334.535707 165.131747 
L 334.833367 157.817669 
L 334.982196 157.251979 
L 335.279856 157.691066 
L 335.428686 159.02669 
L 336.024005 167.24995 
L 336.172835 166.522856 
L 336.470494 157.132067 
L 336.619324 158.649556 
L 336.916983 167.379504 
L 337.512302 151.671306 
L 338.405281 122.424206 
L 338.554111 122.569117 
L 339.0006 128.178732 
L 339.29826 136.774858 
L 339.595919 136.327892 
L 340.042408 148.016363 
L 340.637728 138.143713 
L 340.786557 137.869198 
L 340.935387 138.208696 
L 341.084217 137.466826 
L 341.530706 128.377334 
L 341.828366 126.514997 
L 341.977195 125.114823 
L 342.126025 124.903248 
L 342.423685 126.200627 
L 342.572515 126.283722 
L 342.721344 127.394034 
L 343.019004 131.062727 
L 343.167834 131.771343 
L 343.316663 133.471874 
L 344.358472 159.363435 
L 344.507301 160.775598 
L 344.656131 160.277693 
L 344.953791 159.075806 
L 345.102621 158.520545 
L 345.40028 155.95896 
L 345.54911 157.678146 
L 345.846769 161.792612 
L 345.995599 160.504818 
L 346.144429 160.255932 
L 346.442088 164.310949 
L 346.590918 162.852393 
L 346.888578 159.089917 
L 347.037407 159.817145 
L 347.186237 159.027104 
L 347.632727 145.087836 
L 347.930386 138.968065 
L 348.228046 136.16522 
L 348.525705 129.229875 
L 348.674535 128.953624 
L 348.972194 137.886733 
L 349.269854 145.98589 
L 349.567514 149.250199 
L 349.716343 148.681673 
L 349.865173 147.584624 
L 350.014003 147.566693 
L 350.460492 152.683879 
L 350.906981 148.390897 
L 351.055811 149.021357 
L 351.204641 149.023473 
L 351.5023 147.208995 
L 351.65113 146.954216 
L 351.79996 145.73599 
L 352.09762 141.753584 
L 352.246449 141.72625 
L 352.395279 140.797132 
L 352.841768 129.127781 
L 352.990598 129.843037 
L 353.139428 131.308979 
L 353.288258 131.340092 
L 353.585917 129.528095 
L 353.734747 130.47322 
L 354.776555 149.87332 
L 354.925385 149.994709 
L 355.074215 149.013077 
L 355.223045 149.50705 
L 355.520704 152.5607 
L 355.669534 151.177834 
L 356.116023 144.152667 
L 356.413683 143.067761 
L 356.711342 136.910411 
L 357.009002 131.258837 
L 357.157832 131.429405 
L 357.753151 137.210917 
L 357.90198 136.153096 
L 358.05081 136.156161 
L 358.497299 144.057997 
L 358.794959 141.22418 
L 358.943789 142.260907 
L 359.390278 150.842619 
L 359.539108 151.384694 
L 359.985597 150.96964 
L 360.283257 150.400003 
L 360.580916 151.424948 
L 360.878576 150.80856 
L 361.176235 153.359542 
L 361.325065 152.690864 
L 361.622725 146.312395 
L 361.920384 145.4045 
L 362.366873 137.406786 
L 362.515703 137.456856 
L 362.664533 137.375311 
L 362.813363 136.828304 
L 362.962192 137.200543 
L 363.111022 138.23317 
L 363.259852 137.901837 
L 363.706341 133.05413 
L 363.855171 133.616655 
L 364.004001 135.338513 
L 364.59932 146.124729 
L 364.896979 151.744527 
L 365.045809 154.344578 
L 365.194639 153.781209 
L 365.492298 149.607992 
L 365.641128 150.414239 
L 366.087618 156.565636 
L 366.236447 154.901481 
L 366.534107 148.493522 
L 366.682937 147.921638 
L 366.980596 149.951181 
L 367.129426 149.276638 
L 367.575915 144.127557 
L 367.724745 143.894397 
L 367.873575 143.32394 
L 368.171234 141.008167 
L 368.320064 141.608001 
L 368.617724 143.342005 
L 368.766553 143.052933 
L 368.915383 143.22796 
L 369.064213 143.615929 
L 369.361872 142.298006 
L 369.510702 143.656949 
L 369.808362 150.625351 
L 370.403681 155.781888 
L 370.552511 155.033934 
L 370.85017 151.693957 
L 370.999 151.745191 
L 371.14783 151.362036 
L 371.445489 148.102847 
L 371.594319 147.884501 
L 372.040808 150.793911 
L 372.189638 149.727512 
L 372.636127 141.295046 
L 373.082617 131.497164 
L 373.231446 130.217633 
L 373.380276 130.30337 
L 373.529106 131.661719 
L 374.273255 143.222617 
L 374.719744 145.202052 
L 375.166233 152.433259 
L 375.315063 152.029551 
L 375.612723 147.719886 
L 375.761552 147.072835 
L 375.910382 147.926687 
L 376.208042 150.838209 
L 376.356871 150.92307 
L 376.803361 148.968996 
L 377.10102 147.986034 
L 377.39868 148.707678 
L 377.54751 147.519804 
L 377.845169 141.582097 
L 378.142829 139.957801 
L 378.589318 133.583779 
L 378.886977 136.175935 
L 379.035807 135.441708 
L 379.333467 133.539169 
L 379.482296 133.970561 
L 379.928786 136.243033 
L 380.077616 135.456145 
L 380.375275 132.412175 
L 380.524105 132.632304 
L 380.672935 133.286017 
L 380.821764 133.109797 
L 381.119424 131.763815 
L 381.268254 131.779064 
L 381.417083 132.020614 
L 381.565913 132.506093 
L 381.863573 135.232475 
L 382.161232 141.105097 
L 382.458892 148.133453 
L 382.607722 149.343654 
L 382.905381 148.951011 
L 383.054211 149.152024 
L 383.203041 148.989945 
L 383.5007 146.915873 
L 383.64953 147.064963 
L 383.947189 149.420591 
L 384.096019 149.26579 
L 384.244849 148.538307 
L 384.393679 148.552534 
L 384.691338 149.835728 
L 384.840168 148.658586 
L 385.286657 142.080977 
L 385.435487 141.974107 
L 385.881976 145.423702 
L 386.179636 143.70267 
L 386.328466 144.457898 
L 386.626125 147.362801 
L 386.774955 146.745314 
L 387.072615 144.179652 
L 387.221444 143.887244 
L 387.370274 144.206918 
L 387.816763 146.498053 
L 388.114423 149.596237 
L 388.709742 159.031718 
L 388.858572 159.272147 
L 389.156231 157.473225 
L 389.453891 158.661393 
L 389.602721 157.535325 
L 389.90038 153.794753 
L 390.04921 153.047297 
L 390.495699 146.861918 
L 390.644529 147.332699 
L 390.793359 147.768898 
L 391.239848 141.304497 
L 391.388678 141.450567 
L 391.537508 141.715618 
L 391.686337 141.462931 
L 391.835167 141.8446 
L 392.132827 144.814046 
L 392.281656 144.915053 
L 392.430486 144.34007 
L 392.579316 144.587851 
L 393.174635 149.594634 
L 393.323465 149.447424 
L 393.621124 147.786785 
L 393.769954 146.895322 
L 393.918784 146.709659 
L 394.216443 147.667058 
L 394.365273 146.975414 
L 394.662933 143.878024 
L 394.811762 143.658578 
L 395.109422 144.937921 
L 395.258252 144.948492 
L 395.407081 144.291155 
L 395.704741 140.656559 
L 396.0024 138.120582 
L 396.44889 141.842662 
L 397.044209 146.327716 
L 397.341868 144.405977 
L 397.490698 144.541014 
L 397.788358 146.048587 
L 397.937187 145.054444 
L 398.234847 139.036267 
L 398.532507 133.114997 
L 398.681336 132.969383 
L 399.276655 139.153171 
L 399.723145 142.470298 
L 399.871974 142.639794 
L 400.020804 143.310852 
L 400.616123 150.456439 
L 400.764953 150.068395 
L 401.509102 144.317942 
L 401.657932 143.710275 
L 401.806761 143.801398 
L 401.955591 143.753182 
L 402.104421 142.187641 
L 402.40208 136.78971 
L 402.55091 135.986052 
L 402.69974 136.061126 
L 402.84857 135.943817 
L 402.997399 135.977688 
L 403.295059 137.91539 
L 403.443889 137.865185 
L 403.741548 136.578405 
L 404.188038 139.788771 
L 404.336867 139.71732 
L 404.485697 139.873477 
L 404.783357 142.958388 
L 405.229846 147.849483 
L 405.527506 150.36636 
L 405.676335 150.45978 
L 406.718144 142.99795 
L 406.866973 142.694217 
L 407.015803 141.746037 
L 407.611122 135.664887 
L 407.759952 136.225326 
L 408.355271 144.564013 
L 408.80176 145.770611 
L 408.95059 145.981514 
L 409.24825 147.528246 
L 409.992398 151.46159 
L 410.141228 151.349404 
L 410.438888 148.868278 
L 410.885377 142.092674 
L 411.034207 142.446411 
L 411.480696 148.481687 
L 411.629526 148.362095 
L 411.778356 147.784471 
L 411.927185 147.666019 
L 412.373675 149.342417 
L 412.522505 148.863126 
L 412.968994 146.242264 
L 413.117824 145.957045 
L 413.415483 145.96753 
L 413.713143 145.6808 
L 414.010802 145.964708 
L 414.159632 145.467204 
L 414.457291 143.812943 
L 414.606121 144.391122 
L 414.903781 145.987209 
L 415.35027 144.532107 
L 415.4991 144.427283 
L 415.945589 143.103905 
L 416.094419 143.900751 
L 416.987397 153.310018 
L 417.285057 156.622558 
L 417.433887 156.441949 
L 417.582717 156.517778 
L 417.880376 158.539724 
L 418.029206 158.034435 
L 418.773355 147.566257 
L 419.071014 146.701665 
L 419.368674 144.753381 
L 419.517504 144.700367 
L 419.666333 145.240995 
L 419.815163 145.028998 
L 420.261652 140.943681 
L 420.708142 142.920481 
L 420.856971 142.449322 
L 421.154631 139.623504 
L 421.45229 137.102813 
L 421.89878 138.994395 
L 422.345269 136.170419 
L 422.494099 136.630107 
L 423.089418 142.219037 
L 423.387077 145.667537 
L 423.535907 145.717306 
L 423.684737 145.467201 
L 423.833567 146.311734 
L 424.131226 148.362823 
L 424.428886 147.01615 
L 424.726545 147.926566 
L 424.875375 147.653965 
L 425.024205 147.615833 
L 425.470694 150.636997 
L 425.619524 150.492997 
L 425.768354 151.124212 
L 426.066013 152.931179 
L 426.214843 152.038049 
L 426.661332 145.836241 
L 427.107822 140.397355 
L 427.554311 135.841501 
L 427.85197 136.914302 
L 428.29846 135.883005 
L 428.596119 137.050876 
L 428.893779 141.386565 
L 429.191438 144.928651 
L 429.340268 144.969592 
L 429.489098 145.782698 
L 429.935587 150.924796 
L 430.084417 150.634184 
L 430.530906 148.81162 
L 431.126225 143.51177 
L 431.870374 146.432315 
L 432.019204 146.364998 
L 432.316863 144.820605 
L 432.614523 143.659953 
L 433.061012 142.884765 
L 433.358672 143.013059 
L 433.805161 140.619207 
L 434.25165 143.194296 
L 434.54931 142.532203 
L 434.995799 143.512479 
L 435.144629 143.335327 
L 435.442288 143.415764 
L 435.739948 142.643433 
L 435.888778 143.785185 
L 436.186437 147.775289 
L 436.484097 148.639811 
L 436.781756 149.164229 
L 437.228246 148.730893 
L 437.674735 146.631259 
L 437.972394 148.087087 
L 438.121224 147.506642 
L 438.418884 145.313575 
L 438.716543 146.025663 
L 439.163033 143.946789 
L 439.609522 146.378712 
L 439.907181 145.008989 
L 440.204841 144.199281 
L 440.353671 144.578093 
L 440.65133 147.153599 
L 440.94899 150.601767 
L 441.09782 151.360553 
L 441.395479 151.537709 
L 441.544309 151.618683 
L 441.693139 151.369399 
L 442.139628 149.311652 
L 442.734947 152.986265 
L 442.883777 153.400715 
L 443.181436 154.986797 
L 443.330266 154.31355 
L 443.925585 148.30386 
L 444.818564 142.547382 
L 444.967393 142.548636 
L 445.116223 142.173787 
L 445.711542 138.065834 
L 446.158032 139.637187 
L 446.455691 139.421829 
L 446.90218 141.088257 
L 447.05101 141.181736 
L 447.19984 141.61363 
L 447.497499 142.878987 
L 447.795159 142.790104 
L 448.092819 144.218506 
L 448.390478 145.130404 
L 448.539308 144.797332 
L 448.836967 143.612953 
L 448.985797 143.749432 
L 449.581116 147.884537 
L 449.729946 147.388651 
L 450.176435 144.570092 
L 450.622925 140.664393 
L 450.920584 140.177117 
L 451.664733 136.477488 
L 452.111222 137.675648 
L 452.408882 136.170654 
L 452.706541 136.647075 
L 453.004201 134.851449 
L 453.153031 135.71798 
L 453.45069 139.096587 
L 453.59952 138.960287 
L 453.74835 139.04233 
L 454.343669 144.699874 
L 454.641328 148.997979 
L 454.938988 150.160467 
L 455.236647 151.441093 
L 455.534307 151.324672 
L 455.980796 153.624303 
L 456.576115 151.949837 
L 457.022605 148.923001 
L 457.617924 143.721612 
L 458.064413 140.210011 
L 458.213243 139.75001 
L 459.106221 133.919088 
L 459.255051 134.088544 
L 459.85037 136.798386 
L 460.296859 140.393239 
L 460.594519 141.180329 
L 460.892178 143.801368 
L 461.189838 146.748234 
L 461.487497 147.273174 
L 461.785157 148.906421 
L 461.933987 148.98096 
L 462.082817 148.624644 
L 462.380476 148.425775 
L 462.678136 145.465155 
L 463.273455 140.877045 
L 463.422284 140.091639 
L 463.719944 140.544503 
L 464.017604 138.660867 
L 464.166433 139.020044 
L 464.910582 145.519076 
L 465.059412 145.79392 
L 465.357071 143.93853 
L 465.505901 144.28989 
L 466.10122 148.42499 
L 466.25005 148.958878 
L 466.39888 148.859856 
L 466.54771 148.437428 
L 466.696539 148.355319 
L 467.143029 149.309997 
L 467.440688 149.295355 
L 467.589518 148.776167 
L 468.631326 141.197175 
L 468.780156 141.600554 
L 468.928986 141.31004 
L 469.226645 139.031852 
L 469.375475 139.183424 
L 469.524305 139.7201 
L 469.673135 139.566225 
L 469.821964 139.170176 
L 469.970794 139.735486 
L 470.268454 141.846848 
L 470.714943 139.938623 
L 471.161432 140.931844 
L 471.310262 141.223637 
L 472.054411 144.579054 
L 472.35207 145.095705 
L 472.5009 144.829968 
L 472.947389 142.474164 
L 473.393879 141.675044 
L 473.989198 140.416566 
L 474.286857 141.81838 
L 475.328666 146.389651 
L 475.477495 146.070839 
L 475.775155 144.587992 
L 475.923985 145.110394 
L 476.221644 147.521098 
L 476.370474 147.981071 
L 476.519304 147.946945 
L 476.668134 147.41583 
L 477.561112 140.753817 
L 477.709942 141.255712 
L 478.007602 142.622547 
L 478.305261 141.248836 
L 478.454091 141.223161 
L 478.602921 141.329351 
L 478.75175 140.758147 
L 479.04941 139.012886 
L 479.19824 138.863866 
L 479.347069 139.066356 
L 479.495899 139.647658 
L 479.942388 142.626067 
L 480.240048 143.798477 
L 481.133027 151.525224 
L 481.579516 151.504673 
L 481.728346 151.006805 
L 482.621324 144.049205 
L 482.918984 141.743375 
L 483.365473 140.139743 
L 483.960792 136.484546 
L 484.109622 136.394547 
L 484.407281 138.370087 
L 484.853771 141.46426 
L 485.15143 142.220015 
L 485.30026 142.377699 
L 485.44909 143.2983 
L 485.895579 147.834087 
L 486.044409 148.318073 
L 486.193239 148.387662 
L 486.342068 148.017899 
L 487.830366 141.176165 
L 487.979196 140.839478 
L 488.276855 141.014266 
L 488.723345 140.24019 
L 488.872174 140.447244 
L 489.169834 141.178687 
L 489.616323 141.567733 
L 489.765153 141.543111 
L 490.806961 138.354822 
L 491.253451 140.205705 
L 491.55111 139.960751 
L 492.444089 142.335611 
L 492.741748 143.661219 
L 492.890578 143.795188 
L 493.039408 143.754934 
L 493.188238 143.88175 
L 493.485897 144.410508 
L 493.932386 144.50681 
L 494.378876 142.903486 
L 494.676535 144.205194 
L 494.825365 143.95007 
L 495.271854 140.839116 
L 495.867173 142.001919 
L 496.164833 144.483264 
L 496.462492 146.541448 
L 496.611322 146.741416 
L 496.760152 146.700431 
L 497.057812 146.327638 
L 497.206641 146.42599 
L 497.504301 146.943945 
L 497.95079 144.686357 
L 498.24845 145.269982 
L 499.141428 142.31544 
L 499.439088 143.023174 
L 499.885577 142.34861 
L 500.034407 142.463437 
L 500.183237 142.053811 
L 500.778556 138.845435 
L 500.927385 138.673531 
L 501.225045 140.728115 
L 501.671534 143.268446 
L 501.820364 143.858355 
L 501.969194 143.68847 
L 502.415683 141.594892 
L 502.713343 141.003009 
L 502.862172 141.087288 
L 503.308662 142.122283 
L 503.606321 142.826603 
L 503.755151 142.732652 
L 504.052811 142.004985 
L 504.35047 142.727787 
L 504.4993 142.502427 
L 504.945789 140.743885 
L 505.094619 140.498432 
L 505.243449 140.797125 
L 505.541108 142.392939 
L 505.689938 142.608388 
L 505.838768 142.577775 
L 505.987598 142.889344 
L 506.434087 144.809298 
L 506.731746 145.063918 
L 506.880576 145.106309 
L 507.178236 145.528026 
L 507.327065 145.253705 
L 507.624725 143.716156 
L 507.773555 143.59416 
L 507.922384 143.691844 
L 508.071214 143.331911 
L 508.368874 142.239748 
L 508.666533 142.60398 
L 509.113023 141.540589 
L 509.261852 141.52069 
L 509.410682 141.080656 
L 509.857171 138.747436 
L 510.006001 138.899976 
L 510.303661 139.843132 
L 511.04781 144.265018 
L 511.345469 145.448736 
L 511.494299 145.414366 
L 511.940788 143.789911 
L 512.238448 143.587024 
L 512.684937 143.825738 
L 512.982597 144.238139 
L 513.280256 144.562024 
L 513.429086 144.664058 
L 513.726745 145.373684 
L 513.875575 145.357343 
L 514.173235 144.85432 
L 514.322064 144.908842 
L 514.470894 144.809031 
L 514.768554 144.085146 
L 515.066213 144.104812 
L 515.512703 143.601615 
L 515.661532 143.594184 
L 516.108022 142.873552 
L 516.256851 143.041077 
L 516.405681 142.947322 
L 517.001 140.152043 
L 517.447489 140.152295 
L 517.596319 140.113341 
L 517.745149 140.274307 
L 518.191638 141.610376 
L 518.489298 142.539584 
L 518.489298 142.539584 
" style="fill:none;stroke:#0000ff;stroke-linecap:square;stroke-width:1.5;"/>
   </g>
   <g id="patch_3">
    <path d="M 72 252 
L 72 34.56 
" style="fill:none;stroke:#000000;stroke-linecap:square;stroke-linejoin:miter;stroke-width:0.8;"/>
   </g>
   <g id="patch_4">
    <path d="M 518.4 252 
L 518.4 34.56 
" style="fill:none;stroke:#000000;stroke-linecap:square;stroke-linejoin:miter;stroke-width:0.8;"/>
   </g>
   <g id="patch_5">
    <path d="M 72 252 
L 518.4 252 
" style="fill:none;stroke:#000000;stroke-linecap:square;stroke-linejoin:miter;stroke-width:0.8;"/>
   </g>
   <g id="patch_6">
    <path d="M 72 34.56 
L 518.4 34.56 
" style="fill:none;stroke:#000000;stroke-linecap:square;stroke-linejoin:miter;stroke-width:0.8;"/>
   </g>
   <g id="text_17">
    <!-- Aceleração do solo parametrizada -->
    <defs>
     <path d="M 45.40625 46.390625 
L 45.40625 75.984375 
L 54.390625 75.984375 
L 54.390625 0 
L 45.40625 0 
L 45.40625 8.203125 
Q 42.578125 3.328125 38.25 0.953125 
Q 33.9375 -1.421875 27.875 -1.421875 
Q 17.96875 -1.421875 11.734375 6.484375 
Q 5.515625 14.40625 5.515625 27.296875 
Q 5.515625 40.1875 11.734375 48.09375 
Q 17.96875 56 27.875 56 
Q 33.9375 56 38.25 53.625 
Q 42.578125 51.265625 45.40625 46.390625 
z
M 14.796875 27.296875 
Q 14.796875 17.390625 18.875 11.75 
Q 22.953125 6.109375 30.078125 6.109375 
Q 37.203125 6.109375 41.296875 11.75 
Q 45.40625 17.390625 45.40625 27.296875 
Q 45.40625 37.203125 41.296875 42.84375 
Q 37.203125 48.484375 30.078125 48.484375 
Q 22.953125 48.484375 18.875 42.84375 
Q 14.796875 37.203125 14.796875 27.296875 
z
" id="DejaVuSans-100"/>
     <path d="M 18.3125 70.21875 
L 18.3125 54.6875 
L 36.8125 54.6875 
L 36.8125 47.703125 
L 18.3125 47.703125 
L 18.3125 18.015625 
Q 18.3125 11.328125 20.140625 9.421875 
Q 21.96875 7.515625 27.59375 7.515625 
L 36.8125 7.515625 
L 36.8125 0 
L 27.59375 0 
Q 17.1875 0 13.234375 3.875 
Q 9.28125 7.765625 9.28125 18.015625 
L 9.28125 47.703125 
L 2.6875 47.703125 
L 2.6875 54.6875 
L 9.28125 54.6875 
L 9.28125 70.21875 
z
" id="DejaVuSans-116"/>
     <path d="M 9.421875 54.6875 
L 18.40625 54.6875 
L 18.40625 0 
L 9.421875 0 
z
M 9.421875 75.984375 
L 18.40625 75.984375 
L 18.40625 64.59375 
L 9.421875 64.59375 
z
" id="DejaVuSans-105"/>
     <path d="M 5.515625 54.6875 
L 48.1875 54.6875 
L 48.1875 46.484375 
L 14.40625 7.171875 
L 48.1875 7.171875 
L 48.1875 0 
L 4.296875 0 
L 4.296875 8.203125 
L 38.09375 47.515625 
L 5.515625 47.515625 
z
" id="DejaVuSans-122"/>
    </defs>
    <g transform="translate(192.76125 28.56)scale(0.12 -0.12)">
     <use xlink:href="#DejaVuSans-65"/>
     <use x="66.658203" xlink:href="#DejaVuSans-99"/>
     <use x="121.638672" xlink:href="#DejaVuSans-101"/>
     <use x="183.162109" xlink:href="#DejaVuSans-108"/>
     <use x="210.945312" xlink:href="#DejaVuSans-101"/>
     <use x="272.46875" xlink:href="#DejaVuSans-114"/>
     <use x="313.582031" xlink:href="#DejaVuSans-97"/>
     <use x="374.861328" xlink:href="#DejaVuSans-231"/>
     <use x="429.841797" xlink:href="#DejaVuSans-227"/>
     <use x="491.121094" xlink:href="#DejaVuSans-111"/>
     <use x="552.302734" xlink:href="#DejaVuSans-32"/>
     <use x="584.089844" xlink:href="#DejaVuSans-100"/>
     <use x="647.566406" xlink:href="#DejaVuSans-111"/>
     <use x="708.748047" xlink:href="#DejaVuSans-32"/>
     <use x="740.535156" xlink:href="#DejaVuSans-115"/>
     <use x="792.634766" xlink:href="#DejaVuSans-111"/>
     <use x="853.816406" xlink:href="#DejaVuSans-108"/>
     <use x="881.599609" xlink:href="#DejaVuSans-111"/>
     <use x="942.78125" xlink:href="#DejaVuSans-32"/>
     <use x="974.568359" xlink:href="#DejaVuSans-112"/>
     <use x="1038.044922" xlink:href="#DejaVuSans-97"/>
     <use x="1099.324219" xlink:href="#DejaVuSans-114"/>
     <use x="1140.4375" xlink:href="#DejaVuSans-97"/>
     <use x="1201.716797" xlink:href="#DejaVuSans-109"/>
     <use x="1299.128906" xlink:href="#DejaVuSans-101"/>
     <use x="1360.652344" xlink:href="#DejaVuSans-116"/>
     <use x="1399.861328" xlink:href="#DejaVuSans-114"/>
     <use x="1440.974609" xlink:href="#DejaVuSans-105"/>
     <use x="1468.757812" xlink:href="#DejaVuSans-122"/>
     <use x="1521.248047" xlink:href="#DejaVuSans-97"/>
     <use x="1582.527344" xlink:href="#DejaVuSans-100"/>
     <use x="1646.003906" xlink:href="#DejaVuSans-97"/>
    </g>
   </g>
  </g>
 </g>
 <defs>
  <clipPath id="p2acbe3ee34">
   <rect height="217.44" width="446.4" x="72" y="34.56"/>
  </clipPath>
 </defs>
</svg>
