<?xml version="1.0" encoding="utf-8" standalone="no"?>
<!DOCTYPE svg PUBLIC "-//W3C//DTD SVG 1.1//EN"
  "http://www.w3.org/Graphics/SVG/1.1/DTD/svg11.dtd">
<!-- Created with matplotlib (https://matplotlib.org/) -->
<svg height="288pt" version="1.1" viewBox="0 0 576 288" width="576pt" xmlns="http://www.w3.org/2000/svg" xmlns:xlink="http://www.w3.org/1999/xlink">
 <defs>
  <style type="text/css">
*{stroke-linecap:butt;stroke-linejoin:round;}
  </style>
 </defs>
 <g id="figure_1">
  <g id="patch_1">
   <path d="M 0 288 
L 576 288 
L 576 0 
L 0 0 
z
" style="fill:#ffffff;"/>
  </g>
  <g id="axes_1">
   <g id="patch_2">
    <path d="M 72 252 
L 518.4 252 
L 518.4 34.56 
L 72 34.56 
z
" style="fill:#ffffff;"/>
   </g>
   <g id="matplotlib.axis_1">
    <g id="xtick_1">
     <g id="line2d_1">
      <path clip-path="url(#p3daadbeebd)" d="M 72 252 
L 72 34.56 
" style="fill:none;stroke:#b0b0b0;stroke-linecap:square;stroke-width:0.8;"/>
     </g>
     <g id="line2d_2">
      <defs>
       <path d="M 0 0 
L 0 3.5 
" id="mfce94ceabc" style="stroke:#000000;stroke-width:0.8;"/>
      </defs>
      <g>
       <use style="stroke:#000000;stroke-width:0.8;" x="72" xlink:href="#mfce94ceabc" y="252"/>
      </g>
     </g>
     <g id="text_1">
      <!-- 0 -->
      <defs>
       <path d="M 31.78125 66.40625 
Q 24.171875 66.40625 20.328125 58.90625 
Q 16.5 51.421875 16.5 36.375 
Q 16.5 21.390625 20.328125 13.890625 
Q 24.171875 6.390625 31.78125 6.390625 
Q 39.453125 6.390625 43.28125 13.890625 
Q 47.125 21.390625 47.125 36.375 
Q 47.125 51.421875 43.28125 58.90625 
Q 39.453125 66.40625 31.78125 66.40625 
z
M 31.78125 74.21875 
Q 44.046875 74.21875 50.515625 64.515625 
Q 56.984375 54.828125 56.984375 36.375 
Q 56.984375 17.96875 50.515625 8.265625 
Q 44.046875 -1.421875 31.78125 -1.421875 
Q 19.53125 -1.421875 13.0625 8.265625 
Q 6.59375 17.96875 6.59375 36.375 
Q 6.59375 54.828125 13.0625 64.515625 
Q 19.53125 74.21875 31.78125 74.21875 
z
" id="DejaVuSans-48"/>
      </defs>
      <g transform="translate(68.81875 266.598437)scale(0.1 -0.1)">
       <use xlink:href="#DejaVuSans-48"/>
      </g>
     </g>
    </g>
    <g id="xtick_2">
     <g id="line2d_3">
      <path clip-path="url(#p3daadbeebd)" d="M 146.4 252 
L 146.4 34.56 
" style="fill:none;stroke:#b0b0b0;stroke-linecap:square;stroke-width:0.8;"/>
     </g>
     <g id="line2d_4">
      <g>
       <use style="stroke:#000000;stroke-width:0.8;" x="146.4" xlink:href="#mfce94ceabc" y="252"/>
      </g>
     </g>
     <g id="text_2">
      <!-- 5 -->
      <defs>
       <path d="M 10.796875 72.90625 
L 49.515625 72.90625 
L 49.515625 64.59375 
L 19.828125 64.59375 
L 19.828125 46.734375 
Q 21.96875 47.46875 24.109375 47.828125 
Q 26.265625 48.1875 28.421875 48.1875 
Q 40.625 48.1875 47.75 41.5 
Q 54.890625 34.8125 54.890625 23.390625 
Q 54.890625 11.625 47.5625 5.09375 
Q 40.234375 -1.421875 26.90625 -1.421875 
Q 22.3125 -1.421875 17.546875 -0.640625 
Q 12.796875 0.140625 7.71875 1.703125 
L 7.71875 11.625 
Q 12.109375 9.234375 16.796875 8.0625 
Q 21.484375 6.890625 26.703125 6.890625 
Q 35.15625 6.890625 40.078125 11.328125 
Q 45.015625 15.765625 45.015625 23.390625 
Q 45.015625 31 40.078125 35.4375 
Q 35.15625 39.890625 26.703125 39.890625 
Q 22.75 39.890625 18.8125 39.015625 
Q 14.890625 38.140625 10.796875 36.28125 
z
" id="DejaVuSans-53"/>
      </defs>
      <g transform="translate(143.21875 266.598437)scale(0.1 -0.1)">
       <use xlink:href="#DejaVuSans-53"/>
      </g>
     </g>
    </g>
    <g id="xtick_3">
     <g id="line2d_5">
      <path clip-path="url(#p3daadbeebd)" d="M 220.8 252 
L 220.8 34.56 
" style="fill:none;stroke:#b0b0b0;stroke-linecap:square;stroke-width:0.8;"/>
     </g>
     <g id="line2d_6">
      <g>
       <use style="stroke:#000000;stroke-width:0.8;" x="220.8" xlink:href="#mfce94ceabc" y="252"/>
      </g>
     </g>
     <g id="text_3">
      <!-- 10 -->
      <defs>
       <path d="M 12.40625 8.296875 
L 28.515625 8.296875 
L 28.515625 63.921875 
L 10.984375 60.40625 
L 10.984375 69.390625 
L 28.421875 72.90625 
L 38.28125 72.90625 
L 38.28125 8.296875 
L 54.390625 8.296875 
L 54.390625 0 
L 12.40625 0 
z
" id="DejaVuSans-49"/>
      </defs>
      <g transform="translate(214.4375 266.598437)scale(0.1 -0.1)">
       <use xlink:href="#DejaVuSans-49"/>
       <use x="63.623047" xlink:href="#DejaVuSans-48"/>
      </g>
     </g>
    </g>
    <g id="xtick_4">
     <g id="line2d_7">
      <path clip-path="url(#p3daadbeebd)" d="M 295.2 252 
L 295.2 34.56 
" style="fill:none;stroke:#b0b0b0;stroke-linecap:square;stroke-width:0.8;"/>
     </g>
     <g id="line2d_8">
      <g>
       <use style="stroke:#000000;stroke-width:0.8;" x="295.2" xlink:href="#mfce94ceabc" y="252"/>
      </g>
     </g>
     <g id="text_4">
      <!-- 15 -->
      <g transform="translate(288.8375 266.598437)scale(0.1 -0.1)">
       <use xlink:href="#DejaVuSans-49"/>
       <use x="63.623047" xlink:href="#DejaVuSans-53"/>
      </g>
     </g>
    </g>
    <g id="xtick_5">
     <g id="line2d_9">
      <path clip-path="url(#p3daadbeebd)" d="M 369.6 252 
L 369.6 34.56 
" style="fill:none;stroke:#b0b0b0;stroke-linecap:square;stroke-width:0.8;"/>
     </g>
     <g id="line2d_10">
      <g>
       <use style="stroke:#000000;stroke-width:0.8;" x="369.6" xlink:href="#mfce94ceabc" y="252"/>
      </g>
     </g>
     <g id="text_5">
      <!-- 20 -->
      <defs>
       <path d="M 19.1875 8.296875 
L 53.609375 8.296875 
L 53.609375 0 
L 7.328125 0 
L 7.328125 8.296875 
Q 12.9375 14.109375 22.625 23.890625 
Q 32.328125 33.6875 34.8125 36.53125 
Q 39.546875 41.84375 41.421875 45.53125 
Q 43.3125 49.21875 43.3125 52.78125 
Q 43.3125 58.59375 39.234375 62.25 
Q 35.15625 65.921875 28.609375 65.921875 
Q 23.96875 65.921875 18.8125 64.3125 
Q 13.671875 62.703125 7.8125 59.421875 
L 7.8125 69.390625 
Q 13.765625 71.78125 18.9375 73 
Q 24.125 74.21875 28.421875 74.21875 
Q 39.75 74.21875 46.484375 68.546875 
Q 53.21875 62.890625 53.21875 53.421875 
Q 53.21875 48.921875 51.53125 44.890625 
Q 49.859375 40.875 45.40625 35.40625 
Q 44.1875 33.984375 37.640625 27.21875 
Q 31.109375 20.453125 19.1875 8.296875 
z
" id="DejaVuSans-50"/>
      </defs>
      <g transform="translate(363.2375 266.598437)scale(0.1 -0.1)">
       <use xlink:href="#DejaVuSans-50"/>
       <use x="63.623047" xlink:href="#DejaVuSans-48"/>
      </g>
     </g>
    </g>
    <g id="xtick_6">
     <g id="line2d_11">
      <path clip-path="url(#p3daadbeebd)" d="M 444 252 
L 444 34.56 
" style="fill:none;stroke:#b0b0b0;stroke-linecap:square;stroke-width:0.8;"/>
     </g>
     <g id="line2d_12">
      <g>
       <use style="stroke:#000000;stroke-width:0.8;" x="444" xlink:href="#mfce94ceabc" y="252"/>
      </g>
     </g>
     <g id="text_6">
      <!-- 25 -->
      <g transform="translate(437.6375 266.598437)scale(0.1 -0.1)">
       <use xlink:href="#DejaVuSans-50"/>
       <use x="63.623047" xlink:href="#DejaVuSans-53"/>
      </g>
     </g>
    </g>
    <g id="xtick_7">
     <g id="line2d_13">
      <path clip-path="url(#p3daadbeebd)" d="M 518.4 252 
L 518.4 34.56 
" style="fill:none;stroke:#b0b0b0;stroke-linecap:square;stroke-width:0.8;"/>
     </g>
     <g id="line2d_14">
      <g>
       <use style="stroke:#000000;stroke-width:0.8;" x="518.4" xlink:href="#mfce94ceabc" y="252"/>
      </g>
     </g>
     <g id="text_7">
      <!-- 30 -->
      <defs>
       <path d="M 40.578125 39.3125 
Q 47.65625 37.796875 51.625 33 
Q 55.609375 28.21875 55.609375 21.1875 
Q 55.609375 10.40625 48.1875 4.484375 
Q 40.765625 -1.421875 27.09375 -1.421875 
Q 22.515625 -1.421875 17.65625 -0.515625 
Q 12.796875 0.390625 7.625 2.203125 
L 7.625 11.71875 
Q 11.71875 9.328125 16.59375 8.109375 
Q 21.484375 6.890625 26.8125 6.890625 
Q 36.078125 6.890625 40.9375 10.546875 
Q 45.796875 14.203125 45.796875 21.1875 
Q 45.796875 27.640625 41.28125 31.265625 
Q 36.765625 34.90625 28.71875 34.90625 
L 20.21875 34.90625 
L 20.21875 43.015625 
L 29.109375 43.015625 
Q 36.375 43.015625 40.234375 45.921875 
Q 44.09375 48.828125 44.09375 54.296875 
Q 44.09375 59.90625 40.109375 62.90625 
Q 36.140625 65.921875 28.71875 65.921875 
Q 24.65625 65.921875 20.015625 65.03125 
Q 15.375 64.15625 9.8125 62.3125 
L 9.8125 71.09375 
Q 15.4375 72.65625 20.34375 73.4375 
Q 25.25 74.21875 29.59375 74.21875 
Q 40.828125 74.21875 47.359375 69.109375 
Q 53.90625 64.015625 53.90625 55.328125 
Q 53.90625 49.265625 50.4375 45.09375 
Q 46.96875 40.921875 40.578125 39.3125 
z
" id="DejaVuSans-51"/>
      </defs>
      <g transform="translate(512.0375 266.598437)scale(0.1 -0.1)">
       <use xlink:href="#DejaVuSans-51"/>
       <use x="63.623047" xlink:href="#DejaVuSans-48"/>
      </g>
     </g>
    </g>
    <g id="text_8">
     <!-- Tempo (s) -->
     <defs>
      <path d="M -0.296875 72.90625 
L 61.375 72.90625 
L 61.375 64.59375 
L 35.5 64.59375 
L 35.5 0 
L 25.59375 0 
L 25.59375 64.59375 
L -0.296875 64.59375 
z
" id="DejaVuSans-84"/>
      <path d="M 56.203125 29.59375 
L 56.203125 25.203125 
L 14.890625 25.203125 
Q 15.484375 15.921875 20.484375 11.0625 
Q 25.484375 6.203125 34.421875 6.203125 
Q 39.59375 6.203125 44.453125 7.46875 
Q 49.3125 8.734375 54.109375 11.28125 
L 54.109375 2.78125 
Q 49.265625 0.734375 44.1875 -0.34375 
Q 39.109375 -1.421875 33.890625 -1.421875 
Q 20.796875 -1.421875 13.15625 6.1875 
Q 5.515625 13.8125 5.515625 26.8125 
Q 5.515625 40.234375 12.765625 48.109375 
Q 20.015625 56 32.328125 56 
Q 43.359375 56 49.78125 48.890625 
Q 56.203125 41.796875 56.203125 29.59375 
z
M 47.21875 32.234375 
Q 47.125 39.59375 43.09375 43.984375 
Q 39.0625 48.390625 32.421875 48.390625 
Q 24.90625 48.390625 20.390625 44.140625 
Q 15.875 39.890625 15.1875 32.171875 
z
" id="DejaVuSans-101"/>
      <path d="M 52 44.1875 
Q 55.375 50.25 60.0625 53.125 
Q 64.75 56 71.09375 56 
Q 79.640625 56 84.28125 50.015625 
Q 88.921875 44.046875 88.921875 33.015625 
L 88.921875 0 
L 79.890625 0 
L 79.890625 32.71875 
Q 79.890625 40.578125 77.09375 44.375 
Q 74.3125 48.1875 68.609375 48.1875 
Q 61.625 48.1875 57.5625 43.546875 
Q 53.515625 38.921875 53.515625 30.90625 
L 53.515625 0 
L 44.484375 0 
L 44.484375 32.71875 
Q 44.484375 40.625 41.703125 44.40625 
Q 38.921875 48.1875 33.109375 48.1875 
Q 26.21875 48.1875 22.15625 43.53125 
Q 18.109375 38.875 18.109375 30.90625 
L 18.109375 0 
L 9.078125 0 
L 9.078125 54.6875 
L 18.109375 54.6875 
L 18.109375 46.1875 
Q 21.1875 51.21875 25.484375 53.609375 
Q 29.78125 56 35.6875 56 
Q 41.65625 56 45.828125 52.96875 
Q 50 49.953125 52 44.1875 
z
" id="DejaVuSans-109"/>
      <path d="M 18.109375 8.203125 
L 18.109375 -20.796875 
L 9.078125 -20.796875 
L 9.078125 54.6875 
L 18.109375 54.6875 
L 18.109375 46.390625 
Q 20.953125 51.265625 25.265625 53.625 
Q 29.59375 56 35.59375 56 
Q 45.5625 56 51.78125 48.09375 
Q 58.015625 40.1875 58.015625 27.296875 
Q 58.015625 14.40625 51.78125 6.484375 
Q 45.5625 -1.421875 35.59375 -1.421875 
Q 29.59375 -1.421875 25.265625 0.953125 
Q 20.953125 3.328125 18.109375 8.203125 
z
M 48.6875 27.296875 
Q 48.6875 37.203125 44.609375 42.84375 
Q 40.53125 48.484375 33.40625 48.484375 
Q 26.265625 48.484375 22.1875 42.84375 
Q 18.109375 37.203125 18.109375 27.296875 
Q 18.109375 17.390625 22.1875 11.75 
Q 26.265625 6.109375 33.40625 6.109375 
Q 40.53125 6.109375 44.609375 11.75 
Q 48.6875 17.390625 48.6875 27.296875 
z
" id="DejaVuSans-112"/>
      <path d="M 30.609375 48.390625 
Q 23.390625 48.390625 19.1875 42.75 
Q 14.984375 37.109375 14.984375 27.296875 
Q 14.984375 17.484375 19.15625 11.84375 
Q 23.34375 6.203125 30.609375 6.203125 
Q 37.796875 6.203125 41.984375 11.859375 
Q 46.1875 17.53125 46.1875 27.296875 
Q 46.1875 37.015625 41.984375 42.703125 
Q 37.796875 48.390625 30.609375 48.390625 
z
M 30.609375 56 
Q 42.328125 56 49.015625 48.375 
Q 55.71875 40.765625 55.71875 27.296875 
Q 55.71875 13.875 49.015625 6.21875 
Q 42.328125 -1.421875 30.609375 -1.421875 
Q 18.84375 -1.421875 12.171875 6.21875 
Q 5.515625 13.875 5.515625 27.296875 
Q 5.515625 40.765625 12.171875 48.375 
Q 18.84375 56 30.609375 56 
z
" id="DejaVuSans-111"/>
      <path id="DejaVuSans-32"/>
      <path d="M 31 75.875 
Q 24.46875 64.65625 21.28125 53.65625 
Q 18.109375 42.671875 18.109375 31.390625 
Q 18.109375 20.125 21.3125 9.0625 
Q 24.515625 -2 31 -13.1875 
L 23.1875 -13.1875 
Q 15.875 -1.703125 12.234375 9.375 
Q 8.59375 20.453125 8.59375 31.390625 
Q 8.59375 42.28125 12.203125 53.3125 
Q 15.828125 64.359375 23.1875 75.875 
z
" id="DejaVuSans-40"/>
      <path d="M 44.28125 53.078125 
L 44.28125 44.578125 
Q 40.484375 46.53125 36.375 47.5 
Q 32.28125 48.484375 27.875 48.484375 
Q 21.1875 48.484375 17.84375 46.4375 
Q 14.5 44.390625 14.5 40.28125 
Q 14.5 37.15625 16.890625 35.375 
Q 19.28125 33.59375 26.515625 31.984375 
L 29.59375 31.296875 
Q 39.15625 29.25 43.1875 25.515625 
Q 47.21875 21.78125 47.21875 15.09375 
Q 47.21875 7.46875 41.1875 3.015625 
Q 35.15625 -1.421875 24.609375 -1.421875 
Q 20.21875 -1.421875 15.453125 -0.5625 
Q 10.6875 0.296875 5.421875 2 
L 5.421875 11.28125 
Q 10.40625 8.6875 15.234375 7.390625 
Q 20.0625 6.109375 24.8125 6.109375 
Q 31.15625 6.109375 34.5625 8.28125 
Q 37.984375 10.453125 37.984375 14.40625 
Q 37.984375 18.0625 35.515625 20.015625 
Q 33.0625 21.96875 24.703125 23.78125 
L 21.578125 24.515625 
Q 13.234375 26.265625 9.515625 29.90625 
Q 5.8125 33.546875 5.8125 39.890625 
Q 5.8125 47.609375 11.28125 51.796875 
Q 16.75 56 26.8125 56 
Q 31.78125 56 36.171875 55.265625 
Q 40.578125 54.546875 44.28125 53.078125 
z
" id="DejaVuSans-115"/>
      <path d="M 8.015625 75.875 
L 15.828125 75.875 
Q 23.140625 64.359375 26.78125 53.3125 
Q 30.421875 42.28125 30.421875 31.390625 
Q 30.421875 20.453125 26.78125 9.375 
Q 23.140625 -1.703125 15.828125 -13.1875 
L 8.015625 -13.1875 
Q 14.5 -2 17.703125 9.0625 
Q 20.90625 20.125 20.90625 31.390625 
Q 20.90625 42.671875 17.703125 53.65625 
Q 14.5 64.65625 8.015625 75.875 
z
" id="DejaVuSans-41"/>
     </defs>
     <g transform="translate(270.720312 280.276563)scale(0.1 -0.1)">
      <use xlink:href="#DejaVuSans-84"/>
      <use x="44.083984" xlink:href="#DejaVuSans-101"/>
      <use x="105.607422" xlink:href="#DejaVuSans-109"/>
      <use x="203.019531" xlink:href="#DejaVuSans-112"/>
      <use x="266.496094" xlink:href="#DejaVuSans-111"/>
      <use x="327.677734" xlink:href="#DejaVuSans-32"/>
      <use x="359.464844" xlink:href="#DejaVuSans-40"/>
      <use x="398.478516" xlink:href="#DejaVuSans-115"/>
      <use x="450.578125" xlink:href="#DejaVuSans-41"/>
     </g>
    </g>
   </g>
   <g id="matplotlib.axis_2">
    <g id="ytick_1">
     <g id="line2d_15">
      <path clip-path="url(#p3daadbeebd)" d="M 72 234.547908 
L 518.4 234.547908 
" style="fill:none;stroke:#b0b0b0;stroke-linecap:square;stroke-width:0.8;"/>
     </g>
     <g id="line2d_16">
      <defs>
       <path d="M 0 0 
L -3.5 0 
" id="m09347b27f6" style="stroke:#000000;stroke-width:0.8;"/>
      </defs>
      <g>
       <use style="stroke:#000000;stroke-width:0.8;" x="72" xlink:href="#m09347b27f6" y="234.547908"/>
      </g>
     </g>
     <g id="text_9">
      <!-- −4 -->
      <defs>
       <path d="M 10.59375 35.5 
L 73.1875 35.5 
L 73.1875 27.203125 
L 10.59375 27.203125 
z
" id="DejaVuSans-8722"/>
       <path d="M 37.796875 64.3125 
L 12.890625 25.390625 
L 37.796875 25.390625 
z
M 35.203125 72.90625 
L 47.609375 72.90625 
L 47.609375 25.390625 
L 58.015625 25.390625 
L 58.015625 17.1875 
L 47.609375 17.1875 
L 47.609375 0 
L 37.796875 0 
L 37.796875 17.1875 
L 4.890625 17.1875 
L 4.890625 26.703125 
z
" id="DejaVuSans-52"/>
      </defs>
      <g transform="translate(50.257812 238.347127)scale(0.1 -0.1)">
       <use xlink:href="#DejaVuSans-8722"/>
       <use x="83.789062" xlink:href="#DejaVuSans-52"/>
      </g>
     </g>
    </g>
    <g id="ytick_2">
     <g id="line2d_17">
      <path clip-path="url(#p3daadbeebd)" d="M 72 188.840537 
L 518.4 188.840537 
" style="fill:none;stroke:#b0b0b0;stroke-linecap:square;stroke-width:0.8;"/>
     </g>
     <g id="line2d_18">
      <g>
       <use style="stroke:#000000;stroke-width:0.8;" x="72" xlink:href="#m09347b27f6" y="188.840537"/>
      </g>
     </g>
     <g id="text_10">
      <!-- −2 -->
      <g transform="translate(50.257812 192.639756)scale(0.1 -0.1)">
       <use xlink:href="#DejaVuSans-8722"/>
       <use x="83.789062" xlink:href="#DejaVuSans-50"/>
      </g>
     </g>
    </g>
    <g id="ytick_3">
     <g id="line2d_19">
      <path clip-path="url(#p3daadbeebd)" d="M 72 143.133165 
L 518.4 143.133165 
" style="fill:none;stroke:#b0b0b0;stroke-linecap:square;stroke-width:0.8;"/>
     </g>
     <g id="line2d_20">
      <g>
       <use style="stroke:#000000;stroke-width:0.8;" x="72" xlink:href="#m09347b27f6" y="143.133165"/>
      </g>
     </g>
     <g id="text_11">
      <!-- 0 -->
      <g transform="translate(58.6375 146.932384)scale(0.1 -0.1)">
       <use xlink:href="#DejaVuSans-48"/>
      </g>
     </g>
    </g>
    <g id="ytick_4">
     <g id="line2d_21">
      <path clip-path="url(#p3daadbeebd)" d="M 72 97.425793 
L 518.4 97.425793 
" style="fill:none;stroke:#b0b0b0;stroke-linecap:square;stroke-width:0.8;"/>
     </g>
     <g id="line2d_22">
      <g>
       <use style="stroke:#000000;stroke-width:0.8;" x="72" xlink:href="#m09347b27f6" y="97.425793"/>
      </g>
     </g>
     <g id="text_12">
      <!-- 2 -->
      <g transform="translate(58.6375 101.225012)scale(0.1 -0.1)">
       <use xlink:href="#DejaVuSans-50"/>
      </g>
     </g>
    </g>
    <g id="ytick_5">
     <g id="line2d_23">
      <path clip-path="url(#p3daadbeebd)" d="M 72 51.718422 
L 518.4 51.718422 
" style="fill:none;stroke:#b0b0b0;stroke-linecap:square;stroke-width:0.8;"/>
     </g>
     <g id="line2d_24">
      <g>
       <use style="stroke:#000000;stroke-width:0.8;" x="72" xlink:href="#m09347b27f6" y="51.718422"/>
      </g>
     </g>
     <g id="text_13">
      <!-- 4 -->
      <g transform="translate(58.6375 55.51764)scale(0.1 -0.1)">
       <use xlink:href="#DejaVuSans-52"/>
      </g>
     </g>
    </g>
    <g id="text_14">
     <!-- Aceleração (m/s²) -->
     <defs>
      <path d="M 34.1875 63.1875 
L 20.796875 26.90625 
L 47.609375 26.90625 
z
M 28.609375 72.90625 
L 39.796875 72.90625 
L 67.578125 0 
L 57.328125 0 
L 50.6875 18.703125 
L 17.828125 18.703125 
L 11.1875 0 
L 0.78125 0 
z
" id="DejaVuSans-65"/>
      <path d="M 48.78125 52.59375 
L 48.78125 44.1875 
Q 44.96875 46.296875 41.140625 47.34375 
Q 37.3125 48.390625 33.40625 48.390625 
Q 24.65625 48.390625 19.8125 42.84375 
Q 14.984375 37.3125 14.984375 27.296875 
Q 14.984375 17.28125 19.8125 11.734375 
Q 24.65625 6.203125 33.40625 6.203125 
Q 37.3125 6.203125 41.140625 7.25 
Q 44.96875 8.296875 48.78125 10.40625 
L 48.78125 2.09375 
Q 45.015625 0.34375 40.984375 -0.53125 
Q 36.96875 -1.421875 32.421875 -1.421875 
Q 20.0625 -1.421875 12.78125 6.34375 
Q 5.515625 14.109375 5.515625 27.296875 
Q 5.515625 40.671875 12.859375 48.328125 
Q 20.21875 56 33.015625 56 
Q 37.15625 56 41.109375 55.140625 
Q 45.0625 54.296875 48.78125 52.59375 
z
" id="DejaVuSans-99"/>
      <path d="M 9.421875 75.984375 
L 18.40625 75.984375 
L 18.40625 0 
L 9.421875 0 
z
" id="DejaVuSans-108"/>
      <path d="M 41.109375 46.296875 
Q 39.59375 47.171875 37.8125 47.578125 
Q 36.03125 48 33.890625 48 
Q 26.265625 48 22.1875 43.046875 
Q 18.109375 38.09375 18.109375 28.8125 
L 18.109375 0 
L 9.078125 0 
L 9.078125 54.6875 
L 18.109375 54.6875 
L 18.109375 46.1875 
Q 20.953125 51.171875 25.484375 53.578125 
Q 30.03125 56 36.53125 56 
Q 37.453125 56 38.578125 55.875 
Q 39.703125 55.765625 41.0625 55.515625 
z
" id="DejaVuSans-114"/>
      <path d="M 34.28125 27.484375 
Q 23.390625 27.484375 19.1875 25 
Q 14.984375 22.515625 14.984375 16.5 
Q 14.984375 11.71875 18.140625 8.90625 
Q 21.296875 6.109375 26.703125 6.109375 
Q 34.1875 6.109375 38.703125 11.40625 
Q 43.21875 16.703125 43.21875 25.484375 
L 43.21875 27.484375 
z
M 52.203125 31.203125 
L 52.203125 0 
L 43.21875 0 
L 43.21875 8.296875 
Q 40.140625 3.328125 35.546875 0.953125 
Q 30.953125 -1.421875 24.3125 -1.421875 
Q 15.921875 -1.421875 10.953125 3.296875 
Q 6 8.015625 6 15.921875 
Q 6 25.140625 12.171875 29.828125 
Q 18.359375 34.515625 30.609375 34.515625 
L 43.21875 34.515625 
L 43.21875 35.40625 
Q 43.21875 41.609375 39.140625 45 
Q 35.0625 48.390625 27.6875 48.390625 
Q 23 48.390625 18.546875 47.265625 
Q 14.109375 46.140625 10.015625 43.890625 
L 10.015625 52.203125 
Q 14.9375 54.109375 19.578125 55.046875 
Q 24.21875 56 28.609375 56 
Q 40.484375 56 46.34375 49.84375 
Q 52.203125 43.703125 52.203125 31.203125 
z
" id="DejaVuSans-97"/>
      <path d="M 48.78125 52.59375 
L 48.78125 44.1875 
Q 44.96875 46.296875 41.140625 47.34375 
Q 37.3125 48.390625 33.40625 48.390625 
Q 24.65625 48.390625 19.8125 42.84375 
Q 14.984375 37.3125 14.984375 27.296875 
Q 14.984375 17.28125 19.8125 11.734375 
Q 24.65625 6.203125 33.40625 6.203125 
Q 37.3125 6.203125 41.140625 7.25 
Q 44.96875 8.296875 48.78125 10.40625 
L 48.78125 2.09375 
Q 45.015625 0.34375 40.984375 -0.53125 
Q 36.96875 -1.421875 32.421875 -1.421875 
Q 20.0625 -1.421875 12.78125 6.34375 
Q 5.515625 14.109375 5.515625 27.296875 
Q 5.515625 40.671875 12.859375 48.328125 
Q 20.21875 56 33.015625 56 
Q 37.15625 56 41.109375 55.140625 
Q 45.0625 54.296875 48.78125 52.59375 
z
M 36.078125 0 
Q 38.765625 -3.03125 40.078125 -5.59375 
Q 41.40625 -8.15625 41.40625 -10.5 
Q 41.40625 -14.84375 38.46875 -17.0625 
Q 35.546875 -19.28125 29.78125 -19.28125 
Q 27.546875 -19.28125 25.421875 -18.984375 
Q 23.296875 -18.703125 21.1875 -18.109375 
L 21.1875 -11.71875 
Q 22.859375 -12.546875 24.65625 -12.90625 
Q 26.46875 -13.28125 28.765625 -13.28125 
Q 31.640625 -13.28125 33.109375 -12.109375 
Q 34.578125 -10.9375 34.578125 -8.6875 
Q 34.578125 -7.234375 33.515625 -5.109375 
Q 32.46875 -2.984375 30.28125 0 
z
" id="DejaVuSans-231"/>
      <path d="M 34.28125 27.484375 
Q 23.390625 27.484375 19.1875 25 
Q 14.984375 22.515625 14.984375 16.5 
Q 14.984375 11.71875 18.140625 8.90625 
Q 21.296875 6.109375 26.703125 6.109375 
Q 34.1875 6.109375 38.703125 11.40625 
Q 43.21875 16.703125 43.21875 25.484375 
L 43.21875 27.484375 
z
M 52.203125 31.203125 
L 52.203125 0 
L 43.21875 0 
L 43.21875 8.296875 
Q 40.140625 3.328125 35.546875 0.953125 
Q 30.953125 -1.421875 24.3125 -1.421875 
Q 15.921875 -1.421875 10.953125 3.296875 
Q 6 8.015625 6 15.921875 
Q 6 25.140625 12.171875 29.828125 
Q 18.359375 34.515625 30.609375 34.515625 
L 43.21875 34.515625 
L 43.21875 35.40625 
Q 43.21875 41.609375 39.140625 45 
Q 35.0625 48.390625 27.6875 48.390625 
Q 23 48.390625 18.546875 47.265625 
Q 14.109375 46.140625 10.015625 43.890625 
L 10.015625 52.203125 
Q 14.9375 54.109375 19.578125 55.046875 
Q 24.21875 56 28.609375 56 
Q 40.484375 56 46.34375 49.84375 
Q 52.203125 43.703125 52.203125 31.203125 
z
M 28.8125 66.890625 
L 26.03125 69.578125 
Q 24.953125 70.5625 24.140625 71.015625 
Q 23.34375 71.484375 22.703125 71.484375 
Q 20.84375 71.484375 19.96875 69.703125 
Q 19.09375 67.921875 19 63.921875 
L 12.890625 63.921875 
Q 12.984375 70.515625 15.46875 74.09375 
Q 17.96875 77.6875 22.40625 77.6875 
Q 24.265625 77.6875 25.828125 77 
Q 27.390625 76.3125 29.203125 74.703125 
L 31.984375 72.015625 
Q 33.0625 71.046875 33.859375 70.578125 
Q 34.671875 70.125 35.296875 70.125 
Q 37.15625 70.125 38.03125 71.90625 
Q 38.921875 73.6875 39.015625 77.6875 
L 45.125 77.6875 
Q 45.015625 71.09375 42.53125 67.5 
Q 40.046875 63.921875 35.59375 63.921875 
Q 33.734375 63.921875 32.171875 64.59375 
Q 30.609375 65.28125 28.8125 66.890625 
z
" id="DejaVuSans-227"/>
      <path d="M 25.390625 72.90625 
L 33.6875 72.90625 
L 8.296875 -9.28125 
L 0 -9.28125 
z
" id="DejaVuSans-47"/>
      <path d="M 13.09375 38.1875 
L 33.796875 38.1875 
L 33.796875 32.625 
L 4.59375 32.625 
L 4.59375 37.984375 
Q 6.25 39.5 9.328125 42.234375 
Q 26.125 57.125 26.125 61.71875 
Q 26.125 64.9375 23.578125 66.90625 
Q 21.046875 68.890625 16.890625 68.890625 
Q 14.359375 68.890625 11.375 68.03125 
Q 8.40625 67.1875 4.890625 65.484375 
L 4.890625 71.484375 
Q 8.640625 72.859375 11.890625 73.53125 
Q 15.140625 74.21875 17.921875 74.21875 
Q 25 74.21875 29.25 71 
Q 33.5 67.78125 33.5 62.5 
Q 33.5 55.71875 17.328125 41.84375 
Q 14.59375 39.5 13.09375 38.1875 
z
" id="DejaVuSans-178"/>
     </defs>
     <g transform="translate(44.178125 187.551094)rotate(-90)scale(0.1 -0.1)">
      <use xlink:href="#DejaVuSans-65"/>
      <use x="66.658203" xlink:href="#DejaVuSans-99"/>
      <use x="121.638672" xlink:href="#DejaVuSans-101"/>
      <use x="183.162109" xlink:href="#DejaVuSans-108"/>
      <use x="210.945312" xlink:href="#DejaVuSans-101"/>
      <use x="272.46875" xlink:href="#DejaVuSans-114"/>
      <use x="313.582031" xlink:href="#DejaVuSans-97"/>
      <use x="374.861328" xlink:href="#DejaVuSans-231"/>
      <use x="429.841797" xlink:href="#DejaVuSans-227"/>
      <use x="491.121094" xlink:href="#DejaVuSans-111"/>
      <use x="552.302734" xlink:href="#DejaVuSans-32"/>
      <use x="584.089844" xlink:href="#DejaVuSans-40"/>
      <use x="623.103516" xlink:href="#DejaVuSans-109"/>
      <use x="720.515625" xlink:href="#DejaVuSans-47"/>
      <use x="754.207031" xlink:href="#DejaVuSans-115"/>
      <use x="806.306641" xlink:href="#DejaVuSans-178"/>
      <use x="846.394531" xlink:href="#DejaVuSans-41"/>
     </g>
    </g>
   </g>
   <g id="line2d_25">
    <path clip-path="url(#p3daadbeebd)" d="M 72 143.769869 
L 72.297749 142.399105 
L 72.595498 142.216275 
L 72.893247 142.595418 
L 73.190995 144.125244 
L 73.488744 144.020802 
L 73.786493 142.547882 
L 74.084242 142.403218 
L 74.381991 143.639374 
L 74.67974 143.181843 
L 74.977489 141.92192 
L 75.572986 144.3211 
L 75.870735 144.267165 
L 76.168484 143.260003 
L 76.763982 142.382421 
L 77.061731 140.773751 
L 77.35948 140.611032 
L 77.657229 142.973418 
L 78.550475 145.720431 
L 78.848224 146.702454 
L 79.145973 145.051275 
L 79.443722 145.127149 
L 79.741471 143.347076 
L 80.336968 138.271729 
L 80.634717 138.181 
L 80.932466 139.386303 
L 81.230215 142.318203 
L 81.527964 147.545298 
L 81.825713 148.931374 
L 82.123462 149.662006 
L 82.421211 149.231214 
L 82.718959 145.775737 
L 83.016708 138.503008 
L 83.314457 137.058198 
L 83.612206 137.235086 
L 83.909955 139.033899 
L 84.207704 139.808639 
L 85.398699 150.238376 
L 85.696448 151.242338 
L 86.291946 138.770625 
L 86.589695 138.57614 
L 86.887444 134.952688 
L 87.185193 140.515047 
L 87.482941 142.533027 
L 87.78069 145.626045 
L 88.078439 145.220164 
L 88.376188 143.726904 
L 88.673937 143.380442 
L 88.971686 143.694909 
L 89.269435 143.066889 
L 89.567184 141.866842 
L 89.864932 145.251702 
L 90.46043 143.264117 
L 90.758179 143.32925 
L 91.055928 142.972732 
L 91.353677 142.844752 
L 91.949175 146.099345 
L 92.544672 139.360479 
L 92.842421 138.261673 
L 93.14017 141.03314 
L 93.437919 140.470025 
L 94.033417 144.680817 
L 94.331166 142.333743 
L 94.628914 142.325516 
L 94.926663 142.433614 
L 95.81991 146.690798 
L 96.415408 145.459213 
L 96.713157 143.606922 
L 97.010905 142.9997 
L 97.308654 140.223662 
L 97.606403 136.111599 
L 97.904152 136.920619 
L 98.49965 146.585214 
L 98.797399 146.364676 
L 99.095148 151.314556 
L 99.392896 153.137366 
L 99.690645 147.037032 
L 100.583892 136.527764 
L 100.881641 134.731922 
L 101.17939 135.99733 
L 101.477139 134.390488 
L 101.774887 141.431937 
L 102.370385 166.454209 
L 102.668134 161.414514 
L 103.561381 128.233705 
L 103.85913 127.84542 
L 104.156878 132.482662 
L 104.454627 140.31302 
L 104.752376 142.858921 
L 105.050125 148.797223 
L 105.347874 150.302366 
L 105.645623 158.511182 
L 105.943372 150.456172 
L 106.538869 139.293517 
L 106.836618 133.73413 
L 107.134367 140.03192 
L 107.432116 140.738327 
L 107.729865 143.916818 
L 108.027614 142.628099 
L 108.325363 143.770783 
L 108.623112 144.176664 
L 108.92086 146.176362 
L 109.814107 136.744874 
L 110.111856 136.072747 
L 110.707354 145.244846 
L 111.005103 152.984475 
L 111.302851 154.584919 
L 111.6006 151.93252 
L 111.898349 146.157393 
L 112.196098 145.826015 
L 112.493847 145.766367 
L 113.089345 136.312711 
L 113.387094 135.638299 
L 113.684842 133.505593 
L 113.982591 129.945903 
L 114.28034 132.525627 
L 114.875838 155.278299 
L 115.173587 158.130668 
L 115.471336 163.039411 
L 115.769085 159.926053 
L 116.364582 126.58344 
L 116.662331 122.629524 
L 116.96008 120.610172 
L 117.257829 129.222812 
L 117.555578 145.961309 
L 117.853327 148.677698 
L 118.151076 136.546276 
L 118.448824 136.795381 
L 119.044322 141.765829 
L 119.63982 163.849346 
L 119.937569 167.435318 
L 120.235318 160.724104 
L 120.533067 147.031775 
L 120.830815 117.385517 
L 121.128564 109.368444 
L 122.021811 162.668496 
L 122.31956 158.419767 
L 122.617309 145.441387 
L 122.915058 124.675614 
L 123.212806 117.944061 
L 123.808304 149.374964 
L 124.106053 147.489763 
L 124.403802 139.032528 
L 124.701551 142.261525 
L 124.9993 150.148104 
L 125.297049 149.92848 
L 125.594797 166.898713 
L 125.892546 149.457923 
L 126.190295 123.935155 
L 126.488044 124.786683 
L 127.083542 181.068912 
L 127.381291 187.090173 
L 127.67904 180.424896 
L 127.976788 158.407655 
L 128.274537 152.805302 
L 128.572286 154.014719 
L 128.870035 164.848052 
L 129.167784 157.512476 
L 129.465533 131.944 
L 130.061031 104.563457 
L 130.358779 99.977407 
L 130.656528 111.960509 
L 131.252026 150.435832 
L 131.549775 147.831426 
L 131.847524 142.286207 
L 132.145273 144.791657 
L 132.443022 145.158002 
L 132.74077 145.912859 
L 133.038519 159.510802 
L 133.336268 166.793357 
L 133.634017 167.350073 
L 133.931766 164.389378 
L 134.229515 151.969543 
L 134.825013 107.917463 
L 135.122761 110.004462 
L 135.42051 114.808764 
L 135.718259 124.286644 
L 136.016008 141.12684 
L 136.313757 169.123062 
L 136.611506 175.136096 
L 137.207004 108.735397 
L 137.504752 108.362653 
L 137.802501 120.090479 
L 138.397999 174.502134 
L 138.695748 179.278326 
L 139.588994 129.968299 
L 139.886743 107.183632 
L 140.184492 108.32883 
L 140.77999 121.117295 
L 141.375488 171.483619 
L 141.673237 179.873436 
L 141.970985 177.520878 
L 142.268734 171.472421 
L 142.864232 147.853137 
L 143.161981 141.816793 
L 143.45973 128.12035 
L 143.757479 102.993637 
L 144.055228 114.103499 
L 144.352976 148.248277 
L 144.650725 150.861825 
L 145.246223 138.620019 
L 145.543972 145.014709 
L 146.13947 165.700266 
L 146.437219 178.938035 
L 146.734967 176.599874 
L 147.628214 130.529129 
L 147.925963 113.167641 
L 148.223712 123.597149 
L 148.521461 140.116936 
L 148.81921 138.220537 
L 149.116958 110.32647 
L 149.414707 108.654038 
L 150.010205 142.595646 
L 150.307954 162.788478 
L 150.605703 157.53373 
L 150.903452 162.781164 
L 151.201201 177.243662 
L 151.498949 172.153918 
L 152.392196 124.710352 
L 152.689945 121.869182 
L 152.987694 127.752863 
L 153.285443 144.098048 
L 154.178689 157.02912 
L 154.476438 147.459825 
L 154.774187 125.894858 
L 155.071936 118.621216 
L 155.667434 126.321308 
L 156.262931 103.330957 
L 156.56068 117.982912 
L 157.156178 167.339789 
L 157.453927 182.247248 
L 157.751676 187.544276 
L 158.049425 190.268892 
L 158.347174 178.731209 
L 159.24042 85.206613 
L 159.538169 92.76067 
L 159.835918 121.285041 
L 160.133667 133.051947 
L 160.431416 137.644167 
L 160.729165 134.516183 
L 161.026913 128.303865 
L 161.324662 131.372658 
L 162.217909 173.261408 
L 162.515658 166.314116 
L 162.813407 161.996369 
L 163.111156 159.640611 
L 163.408904 151.708782 
L 163.706653 151.792884 
L 164.302151 169.90603 
L 164.5999 161.374977 
L 164.897649 140.931898 
L 165.195398 128.353458 
L 165.790895 118.428102 
L 166.386393 129.836205 
L 166.684142 134.153952 
L 166.981891 134.865844 
L 167.27964 137.420201 
L 167.577389 147.898844 
L 168.172886 187.632948 
L 168.470635 187.702652 
L 168.768384 152.455869 
L 169.066133 102.536335 
L 169.363882 82.92513 
L 169.661631 93.687387 
L 170.257129 134.702212 
L 170.554877 142.700088 
L 170.852626 139.521597 
L 171.150375 146.048153 
L 171.448124 170.652659 
L 172.043622 156.788014 
L 172.341371 159.034074 
L 172.63912 150.886278 
L 172.936868 147.991402 
L 173.234617 141.689269 
L 173.532366 148.896179 
L 173.830115 165.425564 
L 174.127864 174.995088 
L 174.425613 174.702333 
L 174.723362 161.969859 
L 175.616608 78.553677 
L 175.914357 81.46935 
L 176.212106 93.578832 
L 177.105353 177.31428 
L 177.403102 171.380321 
L 178.296348 124.09993 
L 178.594097 136.639062 
L 179.189595 197.281546 
L 179.487344 213.479324 
L 179.785093 203.105807 
L 180.082841 164.626142 
L 180.38059 100.8735 
L 180.678339 63.595254 
L 180.976088 76.5101 
L 181.273837 100.596514 
L 181.571586 137.716842 
L 181.869335 150.49388 
L 182.464832 103.027232 
L 182.762581 97.591711 
L 183.06033 88.732023 
L 184.251326 242.116364 
L 185.144572 128.786535 
L 185.74007 159.285465 
L 186.037819 154.517272 
L 186.335568 116.351159 
L 186.633317 62.924498 
L 186.931066 44.443636 
L 187.228814 52.589833 
L 187.824312 195.216487 
L 188.122061 211.329478 
L 188.41981 210.65438 
L 188.717559 209.028112 
L 189.015308 193.516858 
L 189.908554 105.432125 
L 190.206303 102.30894 
L 190.801801 204.640204 
L 191.09955 207.073664 
L 191.992796 82.505993 
L 192.290545 78.274405 
L 192.588294 78.612411 
L 192.886043 95.03964 
L 193.481541 174.038433 
L 193.77929 193.633183 
L 194.077039 182.611308 
L 194.672536 141.873698 
L 194.970285 130.823027 
L 195.565783 144.871645 
L 195.863532 163.436151 
L 196.161281 162.428303 
L 196.45903 152.330174 
L 197.054527 99.842799 
L 197.352276 97.697981 
L 197.650025 98.143399 
L 197.947774 95.614867 
L 198.245523 108.3398 
L 198.841021 178.09999 
L 199.138769 187.308654 
L 199.734267 123.847168 
L 200.032016 124.69664 
L 200.627514 185.819051 
L 200.925263 188.311702 
L 201.52076 158.128154 
L 201.818509 146.372447 
L 202.116258 157.364155 
L 202.414007 172.764111 
L 202.711756 170.136623 
L 203.009505 173.837778 
L 203.307254 182.512123 
L 203.605003 162.076585 
L 204.2005 106.775693 
L 204.498249 92.845458 
L 204.795998 93.408572 
L 205.093747 113.399834 
L 205.391496 151.587201 
L 205.689245 171.177837 
L 205.986993 171.724726 
L 206.582491 158.674814 
L 206.88024 133.838342 
L 207.177989 132.398103 
L 208.071236 172.322807 
L 208.368984 176.866805 
L 208.666733 158.132953 
L 209.262231 84.541342 
L 209.55998 88.965816 
L 209.857729 111.129549 
L 210.155478 115.472663 
L 210.750975 142.432014 
L 211.644222 162.295524 
L 211.941971 160.339477 
L 212.537469 129.816551 
L 213.430715 83.103617 
L 213.728464 94.231077 
L 214.323962 139.3118 
L 214.91946 200.294347 
L 215.217209 186.549912 
L 215.514957 178.858275 
L 215.812706 166.820096 
L 216.110455 165.776368 
L 216.408204 160.888651 
L 217.301451 95.972985 
L 217.5992 96.376809 
L 217.896948 113.579236 
L 218.194697 144.032229 
L 218.492446 159.151085 
L 219.087944 142.846123 
L 219.385693 156.440866 
L 219.683442 163.620352 
L 219.981191 163.617838 
L 220.278939 173.24381 
L 220.874437 203.63487 
L 221.172186 194.880309 
L 222.065433 121.533689 
L 222.363182 120.348954 
L 222.66093 123.071057 
L 223.256428 125.676377 
L 223.554177 124.679499 
L 223.851926 119.842288 
L 224.447424 159.859778 
L 224.745173 153.221468 
L 225.042921 151.828535 
L 225.34067 160.86694 
L 225.638419 165.065847 
L 225.936168 173.454978 
L 226.233917 174.069514 
L 226.531666 162.156573 
L 226.829415 141.975169 
L 227.127164 106.528188 
L 227.424912 92.723876 
L 228.02041 115.320001 
L 228.318159 115.603158 
L 228.913657 136.839031 
L 229.211406 119.420638 
L 229.509155 109.713535 
L 229.806903 114.858585 
L 230.104652 126.750957 
L 230.70015 163.476145 
L 230.997899 164.031718 
L 231.295648 147.686533 
L 231.593397 141.0144 
L 231.891146 143.826774 
L 232.486643 158.518723 
L 232.784392 158.417025 
L 233.082141 162.55217 
L 233.37989 174.18881 
L 233.677639 169.798846 
L 233.975388 145.169428 
L 234.273137 143.643716 
L 234.570885 141.276303 
L 234.868634 140.439173 
L 235.464132 165.114983 
L 235.761881 150.391953 
L 236.05963 129.149452 
L 236.655128 104.219051 
L 236.952876 99.709334 
L 237.250625 108.720085 
L 237.846123 154.976174 
L 238.143872 154.669934 
L 238.441621 143.909962 
L 238.73937 145.108866 
L 239.037119 157.88202 
L 239.334867 163.364162 
L 239.632616 180.233839 
L 239.930365 203.773135 
L 240.228114 216.630847 
L 240.525863 202.091561 
L 241.121361 116.239633 
L 241.41911 88.541652 
L 241.716858 94.877836 
L 242.014607 107.768457 
L 242.610105 148.060191 
L 242.907854 143.094999 
L 243.205603 141.155407 
L 243.503352 142.55611 
L 243.801101 139.838121 
L 244.098849 131.195542 
L 244.396598 143.267545 
L 244.694347 164.717786 
L 244.992096 175.619222 
L 245.289845 174.325932 
L 245.587594 171.310389 
L 245.885343 166.460151 
L 246.183092 155.69675 
L 246.48084 154.660564 
L 246.778589 152.449013 
L 247.076338 138.037707 
L 247.374087 129.100773 
L 247.671836 126.472142 
L 247.969585 126.180529 
L 248.267334 128.147775 
L 248.565083 123.309649 
L 248.862831 129.647662 
L 249.16058 143.578583 
L 249.458329 148.751972 
L 249.756078 149.555736 
L 250.053827 146.427295 
L 250.351576 129.644463 
L 250.649325 122.826523 
L 250.947074 129.500941 
L 251.542571 173.739964 
L 251.84032 172.13335 
L 252.435818 141.749831 
L 253.031316 112.53048 
L 253.329065 117.998681 
L 253.924562 143.401696 
L 254.222311 142.379908 
L 254.52006 137.003807 
L 254.817809 140.912701 
L 255.413307 177.214638 
L 255.711056 168.065165 
L 256.306553 114.098014 
L 256.604302 121.655957 
L 256.902051 152.596191 
L 257.1998 155.12975 
L 257.497549 131.828132 
L 257.795298 123.834827 
L 258.093047 130.181067 
L 258.390795 128.800476 
L 258.688544 124.09673 
L 259.87954 176.635754 
L 260.475038 122.219757 
L 260.772786 121.534604 
L 261.666033 166.951276 
L 261.963782 170.595068 
L 262.261531 167.982892 
L 263.154777 120.3325 
L 263.452526 129.0217 
L 263.750275 143.278286 
L 264.345773 160.308853 
L 264.643522 151.666503 
L 264.941271 135.560139 
L 265.23902 130.979803 
L 265.834517 162.96925 
L 266.132266 162.556284 
L 266.727764 149.913854 
L 267.025513 148.097214 
L 268.216508 127.445938 
L 268.514257 131.83476 
L 268.812006 128.82333 
L 269.109755 121.894092 
L 269.407504 123.553498 
L 269.705253 127.714012 
L 270.003002 128.429104 
L 270.30075 137.49059 
L 270.598499 155.316236 
L 271.193997 167.820402 
L 271.491746 165.42785 
L 272.087244 130.308591 
L 272.384992 127.365036 
L 272.682741 129.29023 
L 272.98049 137.653537 
L 273.278239 142.677691 
L 273.575988 142.776419 
L 274.171486 133.605235 
L 274.469235 135.487693 
L 275.064732 131.3802 
L 275.362481 126.110369 
L 275.66023 129.580929 
L 275.957979 145.37694 
L 276.255728 150.737958 
L 276.553477 150.715332 
L 276.851226 149.014104 
L 277.148974 146.662688 
L 277.446723 145.899375 
L 277.744472 148.20097 
L 278.042221 148.213768 
L 278.33997 149.291319 
L 278.637719 157.262685 
L 278.935468 157.576466 
L 279.530965 134.876585 
L 279.828714 123.373411 
L 280.126463 119.031211 
L 280.424212 124.486614 
L 280.721961 133.285969 
L 281.317459 138.024224 
L 281.615208 139.458749 
L 281.912956 142.013334 
L 282.210705 153.973125 
L 282.508454 158.495641 
L 282.806203 158.813536 
L 283.103952 158.405141 
L 283.401701 155.814904 
L 283.69945 155.846899 
L 283.997199 157.527788 
L 284.294947 156.544165 
L 285.188194 134.164236 
L 285.485943 121.961968 
L 285.783692 119.205127 
L 286.081441 125.100464 
L 286.676938 139.848176 
L 286.974687 139.213072 
L 287.570185 157.714959 
L 287.867934 157.76958 
L 288.165683 150.726531 
L 288.463432 138.669155 
L 288.761181 134.162179 
L 289.058929 138.251161 
L 289.654427 153.02584 
L 289.952176 157.735756 
L 290.547674 146.800725 
L 290.845423 146.483287 
L 291.143172 145.242103 
L 291.44092 137.706557 
L 291.738669 134.265935 
L 292.334167 123.109908 
L 292.631916 128.392766 
L 292.929665 131.668385 
L 293.525163 144.63351 
L 293.822911 144.6038 
L 294.418409 142.590847 
L 294.716158 137.709528 
L 295.013907 140.506591 
L 295.311656 152.298636 
L 295.609405 159.350598 
L 296.204902 152.52763 
L 296.502651 151.457849 
L 296.8004 149.828838 
L 297.991396 136.363675 
L 298.586893 132.261438 
L 298.884642 131.000372 
L 299.182391 131.443733 
L 299.777889 147.297564 
L 300.373387 158.023941 
L 300.671136 158.971226 
L 301.266633 151.70444 
L 301.862131 135.143059 
L 302.15988 132.620013 
L 302.457629 139.182677 
L 303.350875 143.350047 
L 303.648624 141.008229 
L 303.946373 137.034202 
L 304.244122 137.416087 
L 304.541871 140.52556 
L 304.83962 140.564182 
L 305.137369 146.826778 
L 305.435118 148.859842 
L 305.732866 148.395683 
L 306.030615 146.85923 
L 306.328364 146.014558 
L 306.626113 143.555958 
L 306.923862 137.517329 
L 307.817109 134.837506 
L 308.114857 135.41936 
L 308.412606 135.411133 
L 309.008104 141.394914 
L 309.603602 151.044883 
L 309.901351 147.935182 
L 310.1991 147.672821 
L 310.496848 150.400637 
L 310.794597 145.684779 
L 311.092346 143.196241 
L 311.390095 142.264954 
L 311.687844 137.901728 
L 311.985593 136.4816 
L 312.283342 139.261751 
L 312.581091 145.17537 
L 312.878839 148.863727 
L 313.176588 150.193811 
L 313.474337 147.128446 
L 313.772086 141.230824 
L 314.069835 140.214064 
L 314.665333 146.362391 
L 314.963082 146.052495 
L 315.26083 141.880097 
L 315.558579 141.624365 
L 315.856328 143.944699 
L 316.154077 143.838201 
L 316.451826 143.504537 
L 316.749575 143.647602 
L 317.047324 142.323459 
L 317.345073 141.87347 
L 317.94057 145.452129 
L 318.238319 145.556341 
L 318.833817 149.650351 
L 319.131566 146.399871 
L 319.727064 136.43932 
L 320.024812 135.937454 
L 320.322561 139.154338 
L 320.918059 149.346625 
L 321.215808 151.534409 
L 321.811306 143.42135 
L 322.109055 143.427978 
L 322.406803 145.550856 
L 322.704552 145.674038 
L 323.002301 145.929314 
L 323.30005 142.741224 
L 323.597799 135.970363 
L 323.895548 132.886029 
L 324.193297 134.465219 
L 325.384292 166.092435 
L 325.682041 163.05838 
L 326.277539 134.939205 
L 326.575288 126.740673 
L 326.873037 122.903768 
L 327.170785 127.812054 
L 327.766283 141.805137 
L 328.064032 142.190679 
L 328.957279 146.022785 
L 329.552776 144.59283 
L 330.148274 148.591539 
L 330.446023 148.75083 
L 330.743772 147.206149 
L 331.33927 140.071914 
L 331.637019 139.116401 
L 331.934767 136.868284 
L 332.232516 135.573851 
L 332.828014 149.064154 
L 333.125763 150.245461 
L 333.423512 148.27753 
L 334.01901 133.022009 
L 334.316758 134.565318 
L 334.912256 145.259015 
L 335.210005 148.150235 
L 335.507754 146.545677 
L 335.805503 143.861741 
L 336.103252 143.927559 
L 336.401001 145.088755 
L 336.698749 142.818241 
L 336.996498 139.081435 
L 337.294247 138.665498 
L 337.889745 140.517332 
L 338.485243 148.609365 
L 338.782991 148.237993 
L 339.378489 144.798513 
L 339.676238 145.872179 
L 340.271736 137.194863 
L 340.569485 136.026811 
L 340.867234 133.808861 
L 341.164982 136.816406 
L 341.462731 145.054932 
L 341.76048 149.640067 
L 342.058229 150.902276 
L 342.653727 141.887639 
L 342.951476 141.314697 
L 343.249225 142.259697 
L 343.546973 145.429503 
L 343.844722 147.105821 
L 344.142471 147.611573 
L 344.44022 146.219327 
L 345.035718 138.159517 
L 345.631216 147.253685 
L 345.928964 147.340072 
L 346.226713 147.158613 
L 346.524462 147.761036 
L 346.822211 145.15983 
L 347.11996 136.82829 
L 347.417709 133.887706 
L 347.715458 136.014013 
L 348.013207 136.940045 
L 348.310955 140.138875 
L 348.608704 141.936775 
L 349.204202 154.269538 
L 349.501951 154.943721 
L 349.7997 152.656067 
L 350.097449 142.66695 
L 350.395198 139.622153 
L 350.692946 142.967933 
L 350.990695 141.371374 
L 351.288444 134.281475 
L 351.586193 132.794843 
L 351.883942 136.011957 
L 352.181691 141.223968 
L 352.47944 143.546131 
L 352.777189 144.05714 
L 353.074937 143.408095 
L 353.670435 138.559685 
L 354.265933 146.609439 
L 354.563682 145.996503 
L 354.861431 146.704968 
L 355.15918 145.623303 
L 355.456928 142.374651 
L 355.754677 141.754859 
L 356.350175 143.974866 
L 356.647924 145.053789 
L 356.945673 145.615075 
L 357.243422 145.49715 
L 357.541171 143.746101 
L 357.838919 143.179558 
L 358.434417 144.857704 
L 358.732166 144.211173 
L 359.029915 145.120979 
L 359.327664 144.99117 
L 359.625413 143.746787 
L 359.923162 143.437348 
L 360.518659 146.338852 
L 360.816408 145.87835 
L 361.114157 146.613553 
L 361.411906 148.723405 
L 361.709655 144.665048 
L 362.007404 136.56273 
L 362.305153 134.55252 
L 362.90065 136.218782 
L 363.198399 138.809705 
L 363.793897 146.197387 
L 364.091646 145.565711 
L 364.389395 146.238524 
L 364.687144 149.615156 
L 364.984892 150.698649 
L 365.58039 147.473994 
L 365.878139 144.853591 
L 366.175888 139.660776 
L 366.473637 137.545439 
L 366.771386 137.868133 
L 367.366883 144.023545 
L 367.664632 144.142612 
L 368.26013 143.746329 
L 368.557879 145.159144 
L 368.855628 147.311733 
L 369.153377 147.56678 
L 370.344372 134.90401 
L 370.642121 133.844513 
L 370.93987 136.074119 
L 371.535368 144.955518 
L 371.833117 147.051887 
L 372.130865 147.646082 
L 372.428614 148.932059 
L 373.024112 150.42989 
L 373.321861 148.676327 
L 373.917359 134.559605 
L 374.512856 137.102992 
L 374.810605 136.58627 
L 375.406103 140.096596 
L 375.703852 139.698942 
L 376.001601 140.876135 
L 376.29935 144.055997 
L 377.192596 148.374201 
L 377.788094 141.918035 
L 378.085843 141.771314 
L 378.383592 144.028572 
L 378.681341 143.329707 
L 378.97909 140.972806 
L 379.574587 140.567839 
L 380.170085 146.873856 
L 380.467834 147.430801 
L 380.765583 146.013644 
L 381.063332 145.452129 
L 381.361081 143.744273 
L 381.658829 138.365886 
L 381.956578 136.303113 
L 382.849825 142.400476 
L 383.147574 145.846126 
L 383.445323 147.434 
L 383.743072 147.663451 
L 384.04082 146.430952 
L 384.636318 145.46447 
L 384.934067 142.225417 
L 385.231816 140.752268 
L 385.529565 140.049974 
L 385.827314 138.638074 
L 386.125063 138.4637 
L 386.72056 140.661539 
L 387.018309 141.237452 
L 387.316058 142.261525 
L 387.911556 145.653241 
L 388.209305 146.217956 
L 388.507054 144.809483 
L 388.804802 144.110389 
L 389.102551 144.162267 
L 389.698049 146.082205 
L 389.995798 143.495853 
L 390.293547 141.93586 
L 390.591296 141.158835 
L 390.889045 140.057059 
L 391.186793 142.515201 
L 391.484542 144.010975 
L 391.782291 144.483589 
L 392.08004 145.665811 
L 392.377789 144.580489 
L 392.675538 141.994823 
L 393.271036 148.741688 
L 393.568784 147.918727 
L 393.866533 146.680743 
L 394.164282 144.615684 
L 394.462031 143.673655 
L 394.75978 143.88368 
L 395.057529 143.433234 
L 395.355278 142.230216 
L 395.950775 147.047544 
L 396.248524 145.984162 
L 396.546273 142.902114 
L 396.844022 141.367718 
L 397.141771 141.830962 
L 397.43952 142.647981 
L 397.737269 141.791882 
L 398.035018 140.460198 
L 398.332766 140.412434 
L 398.928264 142.873776 
L 400.11926 146.526709 
L 400.714757 138.963967 
L 401.012506 140.045175 
L 401.608004 143.962068 
L 401.905753 143.928473 
L 402.203502 143.173845 
L 402.501251 141.5798 
L 402.798999 141.477187 
L 403.394497 144.336183 
L 403.692246 144.050283 
L 403.989995 144.969916 
L 404.287744 145.230448 
L 404.883242 143.669541 
L 405.18099 143.058891 
L 405.776488 136.465602 
L 406.074237 137.243313 
L 406.371986 138.875066 
L 407.265233 147.792575 
L 407.562981 146.348907 
L 407.86073 143.377471 
L 408.158479 142.173082 
L 408.753977 144.013718 
L 409.051726 142.825554 
L 409.647224 138.441303 
L 409.944972 137.696273 
L 410.242721 139.143826 
L 410.54047 142.224731 
L 410.838219 144.050283 
L 411.135968 144.672818 
L 411.433717 144.986599 
L 411.731466 144.117016 
L 412.029215 143.768726 
L 412.624712 145.102696 
L 412.922461 145.963823 
L 413.22021 145.517262 
L 413.517959 144.655906 
L 413.815708 145.151374 
L 414.113457 144.745036 
L 414.411206 143.416322 
L 414.708954 143.070089 
L 415.006703 141.745718 
L 415.304452 138.949798 
L 415.602201 137.920239 
L 415.89995 139.157081 
L 416.793197 146.803467 
L 417.090945 147.059657 
L 417.388694 145.855496 
L 417.686443 145.136062 
L 417.984192 145.347687 
L 418.57969 144.307387 
L 419.175188 145.226563 
L 419.472936 144.98957 
L 419.770685 144.154953 
L 420.068434 142.977074 
L 420.366183 142.443669 
L 420.961681 144.947748 
L 421.25943 143.693995 
L 421.557179 143.038322 
L 421.854927 143.53699 
L 422.152676 143.423407 
L 423.045923 140.815116 
L 423.641421 139.674488 
L 423.93917 140.018208 
L 424.236918 141.092788 
L 424.534667 143.57447 
L 424.832416 145.008081 
L 425.130165 144.261909 
L 425.725663 141.149008 
L 426.023412 141.379602 
L 426.321161 142.208733 
L 426.916658 141.341893 
L 427.512156 144.158153 
L 427.809905 143.891907 
L 428.107654 143.417922 
L 428.405403 143.514365 
L 429.298649 142.28895 
L 429.596398 140.603262 
L 429.894147 140.267541 
L 430.489645 143.160589 
L 430.787394 143.436205 
L 431.382891 142.808414 
L 431.68064 143.323308 
L 431.978389 143.445346 
L 432.276138 142.721342 
L 432.573887 142.631984 
L 432.871636 143.652858 
L 433.169385 143.322622 
L 433.467134 142.37168 
L 434.062631 142.245071 
L 434.36038 142.455096 
L 434.955878 144.137813 
L 435.253627 143.929387 
L 435.849125 145.289867 
L 436.146873 145.249873 
L 436.444622 145.015623 
L 436.742371 144.615455 
L 437.04012 143.792265 
L 437.337869 142.116633 
L 437.933367 140.713188 
L 438.231116 140.812602 
L 438.826613 142.89503 
L 439.422111 147.293679 
L 439.71986 148.296498 
L 440.017609 147.958721 
L 440.315358 146.758902 
L 440.910855 142.541026 
L 441.506353 140.88939 
L 441.804102 140.699248 
L 442.101851 141.59694 
L 442.3996 142.041216 
L 442.697349 141.821135 
L 443.292846 146.450606 
L 443.888344 145.38471 
L 444.186093 145.796991 
L 444.781591 144.005033 
L 445.07934 145.002368 
L 445.377089 144.304188 
L 445.674837 141.599911 
L 445.972586 140.323076 
L 446.270335 140.060258 
L 446.568084 140.379753 
L 446.865833 141.833704 
L 447.163582 142.658723 
L 447.461331 142.163483 
L 447.75908 141.362233 
L 448.056828 141.058507 
L 448.354577 141.126383 
L 448.652326 141.027426 
L 448.950075 141.544834 
L 449.247824 142.729569 
L 449.843322 148.791738 
L 450.141071 148.793337 
L 450.736568 144.353095 
L 451.034317 140.716845 
L 451.332066 138.475127 
L 451.629815 137.779232 
L 451.927564 136.239351 
L 452.225313 135.31789 
L 452.523062 138.15289 
L 452.82081 144.751663 
L 453.118559 148.248506 
L 453.416308 146.950873 
L 454.011806 140.589321 
L 454.309555 141.63602 
L 454.607304 145.490751 
L 454.905053 146.911108 
L 455.202801 145.729344 
L 455.798299 144.420742 
L 456.393797 140.126763 
L 456.691546 141.465989 
L 456.989295 143.86814 
L 457.287044 145.25193 
L 457.584792 145.410992 
L 458.18029 143.712506 
L 458.478039 143.342505 
L 459.073537 141.427366 
L 459.966783 143.722105 
L 460.264532 142.58422 
L 460.562281 140.389352 
L 460.86003 140.230061 
L 461.753277 145.443901 
L 462.051026 144.823195 
L 462.348774 142.920854 
L 462.646523 141.856787 
L 462.944272 141.477644 
L 463.242021 141.693154 
L 463.837519 144.351038 
L 464.135268 144.68813 
L 465.028514 144.035657 
L 465.624012 143.860141 
L 465.921761 144.057825 
L 466.517259 143.974409 
L 467.112756 142.799273 
L 467.410505 142.994215 
L 467.708254 142.789217 
L 468.006003 141.976311 
L 468.303752 141.777027 
L 468.89925 143.713192 
L 469.196998 143.917961 
L 469.792496 142.170111 
L 470.090245 142.747852 
L 470.387994 143.825175 
L 470.983492 144.206831 
L 471.578989 146.492885 
L 471.876738 145.550628 
L 472.472236 142.084409 
L 473.067734 140.817173 
L 473.365483 141.482215 
L 473.663232 142.563651 
L 473.96098 142.756308 
L 474.556478 143.571499 
L 474.854227 143.344562 
L 475.151976 143.572641 
L 475.449725 144.834393 
L 475.747474 145.438188 
L 476.045223 145.477496 
L 476.342971 144.891528 
L 476.938469 142.431557 
L 477.236218 142.480235 
L 477.533967 143.220466 
L 477.831716 143.343648 
L 478.129465 142.938223 
L 479.022711 140.320333 
L 479.32046 139.892969 
L 479.618209 140.304564 
L 480.213707 144.755777 
L 480.511456 145.754254 
L 480.809205 145.973421 
L 481.106953 144.970144 
L 481.404702 143.328107 
L 482.297949 140.564868 
L 482.595698 140.549099 
L 483.191196 141.666873 
L 483.786693 144.840792 
L 484.084442 145.119379 
L 484.67994 143.0918 
L 484.977689 142.796073 
L 485.275438 142.697345 
L 485.573187 142.380593 
L 486.168684 142.556795 
L 486.764182 142.779161 
L 487.061931 142.719056 
L 487.35968 143.024839 
L 487.955178 144.293675 
L 488.252926 145.011052 
L 488.550675 144.942491 
L 489.146173 142.040302 
L 489.443922 141.952087 
L 490.03942 144.169123 
L 490.634917 142.94188 
L 491.528164 144.49753 
L 491.825913 145.35043 
L 492.123662 145.039848 
L 493.016908 142.351569 
L 493.314657 142.180623 
L 493.612406 142.466752 
L 494.207904 143.602123 
L 494.803402 142.620557 
L 495.101151 143.209953 
L 495.696648 143.455402 
L 496.292146 143.664285 
L 496.589895 143.539504 
L 497.483142 142.369395 
L 497.78089 142.244614 
L 498.078639 142.575078 
L 498.674137 143.90082 
L 499.567384 144.943177 
L 499.865133 144.610656 
L 500.162881 143.537675 
L 500.46063 142.947136 
L 500.758379 142.674949 
L 501.056128 142.643868 
L 501.353877 142.826012 
L 501.949375 141.733148 
L 502.247124 141.707095 
L 502.544872 142.396591 
L 503.14037 144.514899 
L 503.438119 144.682874 
L 504.629115 142.234787 
L 504.926863 142.23273 
L 505.522361 142.819841 
L 506.117859 143.476885 
L 506.415608 143.362616 
L 507.308854 142.279808 
L 507.606603 142.164169 
L 507.904352 141.8641 
L 508.202101 141.914607 
L 508.49985 142.339228 
L 509.095348 144.053026 
L 509.393097 145.076414 
L 509.690845 144.304874 
L 509.988594 142.357511 
L 510.286343 141.168891 
L 510.584092 140.938526 
L 511.17959 143.235778 
L 511.477339 143.503852 
L 512.072836 141.53912 
L 512.370585 141.972198 
L 512.966083 144.083193 
L 513.263832 144.767889 
L 513.561581 144.804684 
L 514.157079 144.154268 
L 514.752576 141.872556 
L 515.050325 141.27516 
L 515.348074 140.960237 
L 515.645823 141.378459 
L 516.241321 143.12768 
L 516.53907 142.933881 
L 516.836818 143.15419 
L 517.134567 143.133622 
L 517.432316 142.494405 
L 517.730065 142.496233 
L 518.027814 142.811842 
L 518.325563 143.404895 
L 518.623312 143.044493 
L 518.623312 143.044493 
" style="fill:none;stroke:#000000;stroke-linecap:square;stroke-width:1.5;"/>
   </g>
   <g id="patch_3">
    <path d="M 72 252 
L 72 34.56 
" style="fill:none;stroke:#000000;stroke-linecap:square;stroke-linejoin:miter;stroke-width:0.8;"/>
   </g>
   <g id="patch_4">
    <path d="M 518.4 252 
L 518.4 34.56 
" style="fill:none;stroke:#000000;stroke-linecap:square;stroke-linejoin:miter;stroke-width:0.8;"/>
   </g>
   <g id="patch_5">
    <path d="M 72 252 
L 518.4 252 
" style="fill:none;stroke:#000000;stroke-linecap:square;stroke-linejoin:miter;stroke-width:0.8;"/>
   </g>
   <g id="patch_6">
    <path d="M 72 34.56 
L 518.4 34.56 
" style="fill:none;stroke:#000000;stroke-linecap:square;stroke-linejoin:miter;stroke-width:0.8;"/>
   </g>
  </g>
 </g>
 <defs>
  <clipPath id="p3daadbeebd">
   <rect height="217.44" width="446.4" x="72" y="34.56"/>
  </clipPath>
 </defs>
</svg>
