<?xml version="1.0" encoding="utf-8" standalone="no"?>
<!DOCTYPE svg PUBLIC "-//W3C//DTD SVG 1.1//EN"
  "http://www.w3.org/Graphics/SVG/1.1/DTD/svg11.dtd">
<!-- Created with matplotlib (https://matplotlib.org/) -->
<svg height="288pt" version="1.1" viewBox="0 0 576 288" width="576pt" xmlns="http://www.w3.org/2000/svg" xmlns:xlink="http://www.w3.org/1999/xlink">
 <defs>
  <style type="text/css">
*{stroke-linecap:butt;stroke-linejoin:round;}
  </style>
 </defs>
 <g id="figure_1">
  <g id="patch_1">
   <path d="M 0 288 
L 576 288 
L 576 0 
L 0 0 
z
" style="fill:#ffffff;"/>
  </g>
  <g id="axes_1">
   <g id="patch_2">
    <path d="M 72 252 
L 518.4 252 
L 518.4 34.56 
L 72 34.56 
z
" style="fill:#ffffff;"/>
   </g>
   <g id="matplotlib.axis_1">
    <g id="xtick_1">
     <g id="line2d_1">
      <path clip-path="url(#pb9751f8284)" d="M 126.821053 252 
L 126.821053 34.56 
" style="fill:none;stroke:#b0b0b0;stroke-linecap:square;stroke-width:0.8;"/>
     </g>
     <g id="line2d_2">
      <defs>
       <path d="M 0 0 
L 0 3.5 
" id="m46424549ac" style="stroke:#000000;stroke-width:0.8;"/>
      </defs>
      <g>
       <use style="stroke:#000000;stroke-width:0.8;" x="126.821053" xlink:href="#m46424549ac" y="252"/>
      </g>
     </g>
     <g id="text_1">
      <!-- 2.5 -->
      <defs>
       <path d="M 19.1875 8.296875 
L 53.609375 8.296875 
L 53.609375 0 
L 7.328125 0 
L 7.328125 8.296875 
Q 12.9375 14.109375 22.625 23.890625 
Q 32.328125 33.6875 34.8125 36.53125 
Q 39.546875 41.84375 41.421875 45.53125 
Q 43.3125 49.21875 43.3125 52.78125 
Q 43.3125 58.59375 39.234375 62.25 
Q 35.15625 65.921875 28.609375 65.921875 
Q 23.96875 65.921875 18.8125 64.3125 
Q 13.671875 62.703125 7.8125 59.421875 
L 7.8125 69.390625 
Q 13.765625 71.78125 18.9375 73 
Q 24.125 74.21875 28.421875 74.21875 
Q 39.75 74.21875 46.484375 68.546875 
Q 53.21875 62.890625 53.21875 53.421875 
Q 53.21875 48.921875 51.53125 44.890625 
Q 49.859375 40.875 45.40625 35.40625 
Q 44.1875 33.984375 37.640625 27.21875 
Q 31.109375 20.453125 19.1875 8.296875 
z
" id="DejaVuSans-50"/>
       <path d="M 10.6875 12.40625 
L 21 12.40625 
L 21 0 
L 10.6875 0 
z
" id="DejaVuSans-46"/>
       <path d="M 10.796875 72.90625 
L 49.515625 72.90625 
L 49.515625 64.59375 
L 19.828125 64.59375 
L 19.828125 46.734375 
Q 21.96875 47.46875 24.109375 47.828125 
Q 26.265625 48.1875 28.421875 48.1875 
Q 40.625 48.1875 47.75 41.5 
Q 54.890625 34.8125 54.890625 23.390625 
Q 54.890625 11.625 47.5625 5.09375 
Q 40.234375 -1.421875 26.90625 -1.421875 
Q 22.3125 -1.421875 17.546875 -0.640625 
Q 12.796875 0.140625 7.71875 1.703125 
L 7.71875 11.625 
Q 12.109375 9.234375 16.796875 8.0625 
Q 21.484375 6.890625 26.703125 6.890625 
Q 35.15625 6.890625 40.078125 11.328125 
Q 45.015625 15.765625 45.015625 23.390625 
Q 45.015625 31 40.078125 35.4375 
Q 35.15625 39.890625 26.703125 39.890625 
Q 22.75 39.890625 18.8125 39.015625 
Q 14.890625 38.140625 10.796875 36.28125 
z
" id="DejaVuSans-53"/>
      </defs>
      <g transform="translate(118.86949 266.598437)scale(0.1 -0.1)">
       <use xlink:href="#DejaVuSans-50"/>
       <use x="63.623047" xlink:href="#DejaVuSans-46"/>
       <use x="95.410156" xlink:href="#DejaVuSans-53"/>
      </g>
     </g>
    </g>
    <g id="xtick_2">
     <g id="line2d_3">
      <path clip-path="url(#pb9751f8284)" d="M 182.760902 252 
L 182.760902 34.56 
" style="fill:none;stroke:#b0b0b0;stroke-linecap:square;stroke-width:0.8;"/>
     </g>
     <g id="line2d_4">
      <g>
       <use style="stroke:#000000;stroke-width:0.8;" x="182.760902" xlink:href="#m46424549ac" y="252"/>
      </g>
     </g>
     <g id="text_2">
      <!-- 5.0 -->
      <defs>
       <path d="M 31.78125 66.40625 
Q 24.171875 66.40625 20.328125 58.90625 
Q 16.5 51.421875 16.5 36.375 
Q 16.5 21.390625 20.328125 13.890625 
Q 24.171875 6.390625 31.78125 6.390625 
Q 39.453125 6.390625 43.28125 13.890625 
Q 47.125 21.390625 47.125 36.375 
Q 47.125 51.421875 43.28125 58.90625 
Q 39.453125 66.40625 31.78125 66.40625 
z
M 31.78125 74.21875 
Q 44.046875 74.21875 50.515625 64.515625 
Q 56.984375 54.828125 56.984375 36.375 
Q 56.984375 17.96875 50.515625 8.265625 
Q 44.046875 -1.421875 31.78125 -1.421875 
Q 19.53125 -1.421875 13.0625 8.265625 
Q 6.59375 17.96875 6.59375 36.375 
Q 6.59375 54.828125 13.0625 64.515625 
Q 19.53125 74.21875 31.78125 74.21875 
z
" id="DejaVuSans-48"/>
      </defs>
      <g transform="translate(174.80934 266.598437)scale(0.1 -0.1)">
       <use xlink:href="#DejaVuSans-53"/>
       <use x="63.623047" xlink:href="#DejaVuSans-46"/>
       <use x="95.410156" xlink:href="#DejaVuSans-48"/>
      </g>
     </g>
    </g>
    <g id="xtick_3">
     <g id="line2d_5">
      <path clip-path="url(#pb9751f8284)" d="M 238.700752 252 
L 238.700752 34.56 
" style="fill:none;stroke:#b0b0b0;stroke-linecap:square;stroke-width:0.8;"/>
     </g>
     <g id="line2d_6">
      <g>
       <use style="stroke:#000000;stroke-width:0.8;" x="238.700752" xlink:href="#m46424549ac" y="252"/>
      </g>
     </g>
     <g id="text_3">
      <!-- 7.5 -->
      <defs>
       <path d="M 8.203125 72.90625 
L 55.078125 72.90625 
L 55.078125 68.703125 
L 28.609375 0 
L 18.3125 0 
L 43.21875 64.59375 
L 8.203125 64.59375 
z
" id="DejaVuSans-55"/>
      </defs>
      <g transform="translate(230.749189 266.598437)scale(0.1 -0.1)">
       <use xlink:href="#DejaVuSans-55"/>
       <use x="63.623047" xlink:href="#DejaVuSans-46"/>
       <use x="95.410156" xlink:href="#DejaVuSans-53"/>
      </g>
     </g>
    </g>
    <g id="xtick_4">
     <g id="line2d_7">
      <path clip-path="url(#pb9751f8284)" d="M 294.640602 252 
L 294.640602 34.56 
" style="fill:none;stroke:#b0b0b0;stroke-linecap:square;stroke-width:0.8;"/>
     </g>
     <g id="line2d_8">
      <g>
       <use style="stroke:#000000;stroke-width:0.8;" x="294.640602" xlink:href="#m46424549ac" y="252"/>
      </g>
     </g>
     <g id="text_4">
      <!-- 10.0 -->
      <defs>
       <path d="M 12.40625 8.296875 
L 28.515625 8.296875 
L 28.515625 63.921875 
L 10.984375 60.40625 
L 10.984375 69.390625 
L 28.421875 72.90625 
L 38.28125 72.90625 
L 38.28125 8.296875 
L 54.390625 8.296875 
L 54.390625 0 
L 12.40625 0 
z
" id="DejaVuSans-49"/>
      </defs>
      <g transform="translate(283.507789 266.598437)scale(0.1 -0.1)">
       <use xlink:href="#DejaVuSans-49"/>
       <use x="63.623047" xlink:href="#DejaVuSans-48"/>
       <use x="127.246094" xlink:href="#DejaVuSans-46"/>
       <use x="159.033203" xlink:href="#DejaVuSans-48"/>
      </g>
     </g>
    </g>
    <g id="xtick_5">
     <g id="line2d_9">
      <path clip-path="url(#pb9751f8284)" d="M 350.580451 252 
L 350.580451 34.56 
" style="fill:none;stroke:#b0b0b0;stroke-linecap:square;stroke-width:0.8;"/>
     </g>
     <g id="line2d_10">
      <g>
       <use style="stroke:#000000;stroke-width:0.8;" x="350.580451" xlink:href="#m46424549ac" y="252"/>
      </g>
     </g>
     <g id="text_5">
      <!-- 12.5 -->
      <g transform="translate(339.447639 266.598437)scale(0.1 -0.1)">
       <use xlink:href="#DejaVuSans-49"/>
       <use x="63.623047" xlink:href="#DejaVuSans-50"/>
       <use x="127.246094" xlink:href="#DejaVuSans-46"/>
       <use x="159.033203" xlink:href="#DejaVuSans-53"/>
      </g>
     </g>
    </g>
    <g id="xtick_6">
     <g id="line2d_11">
      <path clip-path="url(#pb9751f8284)" d="M 406.520301 252 
L 406.520301 34.56 
" style="fill:none;stroke:#b0b0b0;stroke-linecap:square;stroke-width:0.8;"/>
     </g>
     <g id="line2d_12">
      <g>
       <use style="stroke:#000000;stroke-width:0.8;" x="406.520301" xlink:href="#m46424549ac" y="252"/>
      </g>
     </g>
     <g id="text_6">
      <!-- 15.0 -->
      <g transform="translate(395.387488 266.598437)scale(0.1 -0.1)">
       <use xlink:href="#DejaVuSans-49"/>
       <use x="63.623047" xlink:href="#DejaVuSans-53"/>
       <use x="127.246094" xlink:href="#DejaVuSans-46"/>
       <use x="159.033203" xlink:href="#DejaVuSans-48"/>
      </g>
     </g>
    </g>
    <g id="xtick_7">
     <g id="line2d_13">
      <path clip-path="url(#pb9751f8284)" d="M 462.46015 252 
L 462.46015 34.56 
" style="fill:none;stroke:#b0b0b0;stroke-linecap:square;stroke-width:0.8;"/>
     </g>
     <g id="line2d_14">
      <g>
       <use style="stroke:#000000;stroke-width:0.8;" x="462.46015" xlink:href="#m46424549ac" y="252"/>
      </g>
     </g>
     <g id="text_7">
      <!-- 17.5 -->
      <g transform="translate(451.327338 266.598437)scale(0.1 -0.1)">
       <use xlink:href="#DejaVuSans-49"/>
       <use x="63.623047" xlink:href="#DejaVuSans-55"/>
       <use x="127.246094" xlink:href="#DejaVuSans-46"/>
       <use x="159.033203" xlink:href="#DejaVuSans-53"/>
      </g>
     </g>
    </g>
    <g id="xtick_8">
     <g id="line2d_15">
      <path clip-path="url(#pb9751f8284)" d="M 518.4 252 
L 518.4 34.56 
" style="fill:none;stroke:#b0b0b0;stroke-linecap:square;stroke-width:0.8;"/>
     </g>
     <g id="line2d_16">
      <g>
       <use style="stroke:#000000;stroke-width:0.8;" x="518.4" xlink:href="#m46424549ac" y="252"/>
      </g>
     </g>
     <g id="text_8">
      <!-- 20.0 -->
      <g transform="translate(507.267187 266.598437)scale(0.1 -0.1)">
       <use xlink:href="#DejaVuSans-50"/>
       <use x="63.623047" xlink:href="#DejaVuSans-48"/>
       <use x="127.246094" xlink:href="#DejaVuSans-46"/>
       <use x="159.033203" xlink:href="#DejaVuSans-48"/>
      </g>
     </g>
    </g>
    <g id="text_9">
     <!-- frequência(Hz) -->
     <defs>
      <path d="M 37.109375 75.984375 
L 37.109375 68.5 
L 28.515625 68.5 
Q 23.6875 68.5 21.796875 66.546875 
Q 19.921875 64.59375 19.921875 59.515625 
L 19.921875 54.6875 
L 34.71875 54.6875 
L 34.71875 47.703125 
L 19.921875 47.703125 
L 19.921875 0 
L 10.890625 0 
L 10.890625 47.703125 
L 2.296875 47.703125 
L 2.296875 54.6875 
L 10.890625 54.6875 
L 10.890625 58.5 
Q 10.890625 67.625 15.140625 71.796875 
Q 19.390625 75.984375 28.609375 75.984375 
z
" id="DejaVuSans-102"/>
      <path d="M 41.109375 46.296875 
Q 39.59375 47.171875 37.8125 47.578125 
Q 36.03125 48 33.890625 48 
Q 26.265625 48 22.1875 43.046875 
Q 18.109375 38.09375 18.109375 28.8125 
L 18.109375 0 
L 9.078125 0 
L 9.078125 54.6875 
L 18.109375 54.6875 
L 18.109375 46.1875 
Q 20.953125 51.171875 25.484375 53.578125 
Q 30.03125 56 36.53125 56 
Q 37.453125 56 38.578125 55.875 
Q 39.703125 55.765625 41.0625 55.515625 
z
" id="DejaVuSans-114"/>
      <path d="M 56.203125 29.59375 
L 56.203125 25.203125 
L 14.890625 25.203125 
Q 15.484375 15.921875 20.484375 11.0625 
Q 25.484375 6.203125 34.421875 6.203125 
Q 39.59375 6.203125 44.453125 7.46875 
Q 49.3125 8.734375 54.109375 11.28125 
L 54.109375 2.78125 
Q 49.265625 0.734375 44.1875 -0.34375 
Q 39.109375 -1.421875 33.890625 -1.421875 
Q 20.796875 -1.421875 13.15625 6.1875 
Q 5.515625 13.8125 5.515625 26.8125 
Q 5.515625 40.234375 12.765625 48.109375 
Q 20.015625 56 32.328125 56 
Q 43.359375 56 49.78125 48.890625 
Q 56.203125 41.796875 56.203125 29.59375 
z
M 47.21875 32.234375 
Q 47.125 39.59375 43.09375 43.984375 
Q 39.0625 48.390625 32.421875 48.390625 
Q 24.90625 48.390625 20.390625 44.140625 
Q 15.875 39.890625 15.1875 32.171875 
z
" id="DejaVuSans-101"/>
      <path d="M 14.796875 27.296875 
Q 14.796875 17.390625 18.875 11.75 
Q 22.953125 6.109375 30.078125 6.109375 
Q 37.203125 6.109375 41.296875 11.75 
Q 45.40625 17.390625 45.40625 27.296875 
Q 45.40625 37.203125 41.296875 42.84375 
Q 37.203125 48.484375 30.078125 48.484375 
Q 22.953125 48.484375 18.875 42.84375 
Q 14.796875 37.203125 14.796875 27.296875 
z
M 45.40625 8.203125 
Q 42.578125 3.328125 38.25 0.953125 
Q 33.9375 -1.421875 27.875 -1.421875 
Q 17.96875 -1.421875 11.734375 6.484375 
Q 5.515625 14.40625 5.515625 27.296875 
Q 5.515625 40.1875 11.734375 48.09375 
Q 17.96875 56 27.875 56 
Q 33.9375 56 38.25 53.625 
Q 42.578125 51.265625 45.40625 46.390625 
L 45.40625 54.6875 
L 54.390625 54.6875 
L 54.390625 -20.796875 
L 45.40625 -20.796875 
z
" id="DejaVuSans-113"/>
      <path d="M 8.5 21.578125 
L 8.5 54.6875 
L 17.484375 54.6875 
L 17.484375 21.921875 
Q 17.484375 14.15625 20.5 10.265625 
Q 23.53125 6.390625 29.59375 6.390625 
Q 36.859375 6.390625 41.078125 11.03125 
Q 45.3125 15.671875 45.3125 23.6875 
L 45.3125 54.6875 
L 54.296875 54.6875 
L 54.296875 0 
L 45.3125 0 
L 45.3125 8.40625 
Q 42.046875 3.421875 37.71875 1 
Q 33.40625 -1.421875 27.6875 -1.421875 
Q 18.265625 -1.421875 13.375 4.4375 
Q 8.5 10.296875 8.5 21.578125 
z
M 31.109375 56 
z
" id="DejaVuSans-117"/>
      <path d="M 56.203125 29.59375 
L 56.203125 25.203125 
L 14.890625 25.203125 
Q 15.484375 15.921875 20.484375 11.0625 
Q 25.484375 6.203125 34.421875 6.203125 
Q 39.59375 6.203125 44.453125 7.46875 
Q 49.3125 8.734375 54.109375 11.28125 
L 54.109375 2.78125 
Q 49.265625 0.734375 44.1875 -0.34375 
Q 39.109375 -1.421875 33.890625 -1.421875 
Q 20.796875 -1.421875 13.15625 6.1875 
Q 5.515625 13.8125 5.515625 26.8125 
Q 5.515625 40.234375 12.765625 48.109375 
Q 20.015625 56 32.328125 56 
Q 43.359375 56 49.78125 48.890625 
Q 56.203125 41.796875 56.203125 29.59375 
z
M 47.21875 32.234375 
Q 47.125 39.59375 43.09375 43.984375 
Q 39.0625 48.390625 32.421875 48.390625 
Q 24.90625 48.390625 20.390625 44.140625 
Q 15.875 39.890625 15.1875 32.171875 
z
M 28.171875 79.984375 
L 35.40625 79.984375 
L 47.359375 61.625 
L 40.578125 61.625 
L 31.78125 73.578125 
L 23 61.625 
L 16.21875 61.625 
z
" id="DejaVuSans-234"/>
      <path d="M 54.890625 33.015625 
L 54.890625 0 
L 45.90625 0 
L 45.90625 32.71875 
Q 45.90625 40.484375 42.875 44.328125 
Q 39.84375 48.1875 33.796875 48.1875 
Q 26.515625 48.1875 22.3125 43.546875 
Q 18.109375 38.921875 18.109375 30.90625 
L 18.109375 0 
L 9.078125 0 
L 9.078125 54.6875 
L 18.109375 54.6875 
L 18.109375 46.1875 
Q 21.34375 51.125 25.703125 53.5625 
Q 30.078125 56 35.796875 56 
Q 45.21875 56 50.046875 50.171875 
Q 54.890625 44.34375 54.890625 33.015625 
z
" id="DejaVuSans-110"/>
      <path d="M 48.78125 52.59375 
L 48.78125 44.1875 
Q 44.96875 46.296875 41.140625 47.34375 
Q 37.3125 48.390625 33.40625 48.390625 
Q 24.65625 48.390625 19.8125 42.84375 
Q 14.984375 37.3125 14.984375 27.296875 
Q 14.984375 17.28125 19.8125 11.734375 
Q 24.65625 6.203125 33.40625 6.203125 
Q 37.3125 6.203125 41.140625 7.25 
Q 44.96875 8.296875 48.78125 10.40625 
L 48.78125 2.09375 
Q 45.015625 0.34375 40.984375 -0.53125 
Q 36.96875 -1.421875 32.421875 -1.421875 
Q 20.0625 -1.421875 12.78125 6.34375 
Q 5.515625 14.109375 5.515625 27.296875 
Q 5.515625 40.671875 12.859375 48.328125 
Q 20.21875 56 33.015625 56 
Q 37.15625 56 41.109375 55.140625 
Q 45.0625 54.296875 48.78125 52.59375 
z
" id="DejaVuSans-99"/>
      <path d="M 9.421875 54.6875 
L 18.40625 54.6875 
L 18.40625 0 
L 9.421875 0 
z
M 9.421875 75.984375 
L 18.40625 75.984375 
L 18.40625 64.59375 
L 9.421875 64.59375 
z
" id="DejaVuSans-105"/>
      <path d="M 34.28125 27.484375 
Q 23.390625 27.484375 19.1875 25 
Q 14.984375 22.515625 14.984375 16.5 
Q 14.984375 11.71875 18.140625 8.90625 
Q 21.296875 6.109375 26.703125 6.109375 
Q 34.1875 6.109375 38.703125 11.40625 
Q 43.21875 16.703125 43.21875 25.484375 
L 43.21875 27.484375 
z
M 52.203125 31.203125 
L 52.203125 0 
L 43.21875 0 
L 43.21875 8.296875 
Q 40.140625 3.328125 35.546875 0.953125 
Q 30.953125 -1.421875 24.3125 -1.421875 
Q 15.921875 -1.421875 10.953125 3.296875 
Q 6 8.015625 6 15.921875 
Q 6 25.140625 12.171875 29.828125 
Q 18.359375 34.515625 30.609375 34.515625 
L 43.21875 34.515625 
L 43.21875 35.40625 
Q 43.21875 41.609375 39.140625 45 
Q 35.0625 48.390625 27.6875 48.390625 
Q 23 48.390625 18.546875 47.265625 
Q 14.109375 46.140625 10.015625 43.890625 
L 10.015625 52.203125 
Q 14.9375 54.109375 19.578125 55.046875 
Q 24.21875 56 28.609375 56 
Q 40.484375 56 46.34375 49.84375 
Q 52.203125 43.703125 52.203125 31.203125 
z
" id="DejaVuSans-97"/>
      <path d="M 31 75.875 
Q 24.46875 64.65625 21.28125 53.65625 
Q 18.109375 42.671875 18.109375 31.390625 
Q 18.109375 20.125 21.3125 9.0625 
Q 24.515625 -2 31 -13.1875 
L 23.1875 -13.1875 
Q 15.875 -1.703125 12.234375 9.375 
Q 8.59375 20.453125 8.59375 31.390625 
Q 8.59375 42.28125 12.203125 53.3125 
Q 15.828125 64.359375 23.1875 75.875 
z
" id="DejaVuSans-40"/>
      <path d="M 9.8125 72.90625 
L 19.671875 72.90625 
L 19.671875 43.015625 
L 55.515625 43.015625 
L 55.515625 72.90625 
L 65.375 72.90625 
L 65.375 0 
L 55.515625 0 
L 55.515625 34.71875 
L 19.671875 34.71875 
L 19.671875 0 
L 9.8125 0 
z
" id="DejaVuSans-72"/>
      <path d="M 5.515625 54.6875 
L 48.1875 54.6875 
L 48.1875 46.484375 
L 14.40625 7.171875 
L 48.1875 7.171875 
L 48.1875 0 
L 4.296875 0 
L 4.296875 8.203125 
L 38.09375 47.515625 
L 5.515625 47.515625 
z
" id="DejaVuSans-122"/>
      <path d="M 8.015625 75.875 
L 15.828125 75.875 
Q 23.140625 64.359375 26.78125 53.3125 
Q 30.421875 42.28125 30.421875 31.390625 
Q 30.421875 20.453125 26.78125 9.375 
Q 23.140625 -1.703125 15.828125 -13.1875 
L 8.015625 -13.1875 
Q 14.5 -2 17.703125 9.0625 
Q 20.90625 20.125 20.90625 31.390625 
Q 20.90625 42.671875 17.703125 53.65625 
Q 14.5 64.65625 8.015625 75.875 
z
" id="DejaVuSans-41"/>
     </defs>
     <g transform="translate(258.34375 280.676562)scale(0.1 -0.1)">
      <use xlink:href="#DejaVuSans-102"/>
      <use x="35.205078" xlink:href="#DejaVuSans-114"/>
      <use x="74.068359" xlink:href="#DejaVuSans-101"/>
      <use x="135.591797" xlink:href="#DejaVuSans-113"/>
      <use x="199.068359" xlink:href="#DejaVuSans-117"/>
      <use x="262.447266" xlink:href="#DejaVuSans-234"/>
      <use x="323.970703" xlink:href="#DejaVuSans-110"/>
      <use x="387.349609" xlink:href="#DejaVuSans-99"/>
      <use x="442.330078" xlink:href="#DejaVuSans-105"/>
      <use x="470.113281" xlink:href="#DejaVuSans-97"/>
      <use x="531.392578" xlink:href="#DejaVuSans-40"/>
      <use x="570.40625" xlink:href="#DejaVuSans-72"/>
      <use x="645.601562" xlink:href="#DejaVuSans-122"/>
      <use x="698.091797" xlink:href="#DejaVuSans-41"/>
     </g>
    </g>
   </g>
   <g id="matplotlib.axis_2">
    <g id="ytick_1">
     <g id="line2d_17">
      <path clip-path="url(#pb9751f8284)" d="M 72 242.116364 
L 518.4 242.116364 
" style="fill:none;stroke:#b0b0b0;stroke-linecap:square;stroke-width:0.8;"/>
     </g>
     <g id="line2d_18">
      <defs>
       <path d="M 0 0 
L -3.5 0 
" id="m5f36b434c2" style="stroke:#000000;stroke-width:0.8;"/>
      </defs>
      <g>
       <use style="stroke:#000000;stroke-width:0.8;" x="72" xlink:href="#m5f36b434c2" y="242.116364"/>
      </g>
     </g>
     <g id="text_10">
      <!-- 0.00 -->
      <g transform="translate(42.734375 245.915582)scale(0.1 -0.1)">
       <use xlink:href="#DejaVuSans-48"/>
       <use x="63.623047" xlink:href="#DejaVuSans-46"/>
       <use x="95.410156" xlink:href="#DejaVuSans-48"/>
       <use x="159.033203" xlink:href="#DejaVuSans-48"/>
      </g>
     </g>
    </g>
    <g id="ytick_2">
     <g id="line2d_19">
      <path clip-path="url(#pb9751f8284)" d="M 72 214.382273 
L 518.4 214.382273 
" style="fill:none;stroke:#b0b0b0;stroke-linecap:square;stroke-width:0.8;"/>
     </g>
     <g id="line2d_20">
      <g>
       <use style="stroke:#000000;stroke-width:0.8;" x="72" xlink:href="#m5f36b434c2" y="214.382273"/>
      </g>
     </g>
     <g id="text_11">
      <!-- 0.05 -->
      <g transform="translate(42.734375 218.181492)scale(0.1 -0.1)">
       <use xlink:href="#DejaVuSans-48"/>
       <use x="63.623047" xlink:href="#DejaVuSans-46"/>
       <use x="95.410156" xlink:href="#DejaVuSans-48"/>
       <use x="159.033203" xlink:href="#DejaVuSans-53"/>
      </g>
     </g>
    </g>
    <g id="ytick_3">
     <g id="line2d_21">
      <path clip-path="url(#pb9751f8284)" d="M 72 186.648183 
L 518.4 186.648183 
" style="fill:none;stroke:#b0b0b0;stroke-linecap:square;stroke-width:0.8;"/>
     </g>
     <g id="line2d_22">
      <g>
       <use style="stroke:#000000;stroke-width:0.8;" x="72" xlink:href="#m5f36b434c2" y="186.648183"/>
      </g>
     </g>
     <g id="text_12">
      <!-- 0.10 -->
      <g transform="translate(42.734375 190.447402)scale(0.1 -0.1)">
       <use xlink:href="#DejaVuSans-48"/>
       <use x="63.623047" xlink:href="#DejaVuSans-46"/>
       <use x="95.410156" xlink:href="#DejaVuSans-49"/>
       <use x="159.033203" xlink:href="#DejaVuSans-48"/>
      </g>
     </g>
    </g>
    <g id="ytick_4">
     <g id="line2d_23">
      <path clip-path="url(#pb9751f8284)" d="M 72 158.914093 
L 518.4 158.914093 
" style="fill:none;stroke:#b0b0b0;stroke-linecap:square;stroke-width:0.8;"/>
     </g>
     <g id="line2d_24">
      <g>
       <use style="stroke:#000000;stroke-width:0.8;" x="72" xlink:href="#m5f36b434c2" y="158.914093"/>
      </g>
     </g>
     <g id="text_13">
      <!-- 0.15 -->
      <g transform="translate(42.734375 162.713312)scale(0.1 -0.1)">
       <use xlink:href="#DejaVuSans-48"/>
       <use x="63.623047" xlink:href="#DejaVuSans-46"/>
       <use x="95.410156" xlink:href="#DejaVuSans-49"/>
       <use x="159.033203" xlink:href="#DejaVuSans-53"/>
      </g>
     </g>
    </g>
    <g id="ytick_5">
     <g id="line2d_25">
      <path clip-path="url(#pb9751f8284)" d="M 72 131.180003 
L 518.4 131.180003 
" style="fill:none;stroke:#b0b0b0;stroke-linecap:square;stroke-width:0.8;"/>
     </g>
     <g id="line2d_26">
      <g>
       <use style="stroke:#000000;stroke-width:0.8;" x="72" xlink:href="#m5f36b434c2" y="131.180003"/>
      </g>
     </g>
     <g id="text_14">
      <!-- 0.20 -->
      <g transform="translate(42.734375 134.979222)scale(0.1 -0.1)">
       <use xlink:href="#DejaVuSans-48"/>
       <use x="63.623047" xlink:href="#DejaVuSans-46"/>
       <use x="95.410156" xlink:href="#DejaVuSans-50"/>
       <use x="159.033203" xlink:href="#DejaVuSans-48"/>
      </g>
     </g>
    </g>
    <g id="ytick_6">
     <g id="line2d_27">
      <path clip-path="url(#pb9751f8284)" d="M 72 103.445913 
L 518.4 103.445913 
" style="fill:none;stroke:#b0b0b0;stroke-linecap:square;stroke-width:0.8;"/>
     </g>
     <g id="line2d_28">
      <g>
       <use style="stroke:#000000;stroke-width:0.8;" x="72" xlink:href="#m5f36b434c2" y="103.445913"/>
      </g>
     </g>
     <g id="text_15">
      <!-- 0.25 -->
      <g transform="translate(42.734375 107.245132)scale(0.1 -0.1)">
       <use xlink:href="#DejaVuSans-48"/>
       <use x="63.623047" xlink:href="#DejaVuSans-46"/>
       <use x="95.410156" xlink:href="#DejaVuSans-50"/>
       <use x="159.033203" xlink:href="#DejaVuSans-53"/>
      </g>
     </g>
    </g>
    <g id="ytick_7">
     <g id="line2d_29">
      <path clip-path="url(#pb9751f8284)" d="M 72 75.711823 
L 518.4 75.711823 
" style="fill:none;stroke:#b0b0b0;stroke-linecap:square;stroke-width:0.8;"/>
     </g>
     <g id="line2d_30">
      <g>
       <use style="stroke:#000000;stroke-width:0.8;" x="72" xlink:href="#m5f36b434c2" y="75.711823"/>
      </g>
     </g>
     <g id="text_16">
      <!-- 0.30 -->
      <defs>
       <path d="M 40.578125 39.3125 
Q 47.65625 37.796875 51.625 33 
Q 55.609375 28.21875 55.609375 21.1875 
Q 55.609375 10.40625 48.1875 4.484375 
Q 40.765625 -1.421875 27.09375 -1.421875 
Q 22.515625 -1.421875 17.65625 -0.515625 
Q 12.796875 0.390625 7.625 2.203125 
L 7.625 11.71875 
Q 11.71875 9.328125 16.59375 8.109375 
Q 21.484375 6.890625 26.8125 6.890625 
Q 36.078125 6.890625 40.9375 10.546875 
Q 45.796875 14.203125 45.796875 21.1875 
Q 45.796875 27.640625 41.28125 31.265625 
Q 36.765625 34.90625 28.71875 34.90625 
L 20.21875 34.90625 
L 20.21875 43.015625 
L 29.109375 43.015625 
Q 36.375 43.015625 40.234375 45.921875 
Q 44.09375 48.828125 44.09375 54.296875 
Q 44.09375 59.90625 40.109375 62.90625 
Q 36.140625 65.921875 28.71875 65.921875 
Q 24.65625 65.921875 20.015625 65.03125 
Q 15.375 64.15625 9.8125 62.3125 
L 9.8125 71.09375 
Q 15.4375 72.65625 20.34375 73.4375 
Q 25.25 74.21875 29.59375 74.21875 
Q 40.828125 74.21875 47.359375 69.109375 
Q 53.90625 64.015625 53.90625 55.328125 
Q 53.90625 49.265625 50.4375 45.09375 
Q 46.96875 40.921875 40.578125 39.3125 
z
" id="DejaVuSans-51"/>
      </defs>
      <g transform="translate(42.734375 79.511041)scale(0.1 -0.1)">
       <use xlink:href="#DejaVuSans-48"/>
       <use x="63.623047" xlink:href="#DejaVuSans-46"/>
       <use x="95.410156" xlink:href="#DejaVuSans-51"/>
       <use x="159.033203" xlink:href="#DejaVuSans-48"/>
      </g>
     </g>
    </g>
    <g id="ytick_8">
     <g id="line2d_31">
      <path clip-path="url(#pb9751f8284)" d="M 72 47.977732 
L 518.4 47.977732 
" style="fill:none;stroke:#b0b0b0;stroke-linecap:square;stroke-width:0.8;"/>
     </g>
     <g id="line2d_32">
      <g>
       <use style="stroke:#000000;stroke-width:0.8;" x="72" xlink:href="#m5f36b434c2" y="47.977732"/>
      </g>
     </g>
     <g id="text_17">
      <!-- 0.35 -->
      <g transform="translate(42.734375 51.776951)scale(0.1 -0.1)">
       <use xlink:href="#DejaVuSans-48"/>
       <use x="63.623047" xlink:href="#DejaVuSans-46"/>
       <use x="95.410156" xlink:href="#DejaVuSans-51"/>
       <use x="159.033203" xlink:href="#DejaVuSans-53"/>
      </g>
     </g>
    </g>
    <g id="text_18">
     <!-- Densidade espectral(m²/s³) -->
     <defs>
      <path d="M 19.671875 64.796875 
L 19.671875 8.109375 
L 31.59375 8.109375 
Q 46.6875 8.109375 53.6875 14.9375 
Q 60.6875 21.78125 60.6875 36.53125 
Q 60.6875 51.171875 53.6875 57.984375 
Q 46.6875 64.796875 31.59375 64.796875 
z
M 9.8125 72.90625 
L 30.078125 72.90625 
Q 51.265625 72.90625 61.171875 64.09375 
Q 71.09375 55.28125 71.09375 36.53125 
Q 71.09375 17.671875 61.125 8.828125 
Q 51.171875 0 30.078125 0 
L 9.8125 0 
z
" id="DejaVuSans-68"/>
      <path d="M 44.28125 53.078125 
L 44.28125 44.578125 
Q 40.484375 46.53125 36.375 47.5 
Q 32.28125 48.484375 27.875 48.484375 
Q 21.1875 48.484375 17.84375 46.4375 
Q 14.5 44.390625 14.5 40.28125 
Q 14.5 37.15625 16.890625 35.375 
Q 19.28125 33.59375 26.515625 31.984375 
L 29.59375 31.296875 
Q 39.15625 29.25 43.1875 25.515625 
Q 47.21875 21.78125 47.21875 15.09375 
Q 47.21875 7.46875 41.1875 3.015625 
Q 35.15625 -1.421875 24.609375 -1.421875 
Q 20.21875 -1.421875 15.453125 -0.5625 
Q 10.6875 0.296875 5.421875 2 
L 5.421875 11.28125 
Q 10.40625 8.6875 15.234375 7.390625 
Q 20.0625 6.109375 24.8125 6.109375 
Q 31.15625 6.109375 34.5625 8.28125 
Q 37.984375 10.453125 37.984375 14.40625 
Q 37.984375 18.0625 35.515625 20.015625 
Q 33.0625 21.96875 24.703125 23.78125 
L 21.578125 24.515625 
Q 13.234375 26.265625 9.515625 29.90625 
Q 5.8125 33.546875 5.8125 39.890625 
Q 5.8125 47.609375 11.28125 51.796875 
Q 16.75 56 26.8125 56 
Q 31.78125 56 36.171875 55.265625 
Q 40.578125 54.546875 44.28125 53.078125 
z
" id="DejaVuSans-115"/>
      <path d="M 45.40625 46.390625 
L 45.40625 75.984375 
L 54.390625 75.984375 
L 54.390625 0 
L 45.40625 0 
L 45.40625 8.203125 
Q 42.578125 3.328125 38.25 0.953125 
Q 33.9375 -1.421875 27.875 -1.421875 
Q 17.96875 -1.421875 11.734375 6.484375 
Q 5.515625 14.40625 5.515625 27.296875 
Q 5.515625 40.1875 11.734375 48.09375 
Q 17.96875 56 27.875 56 
Q 33.9375 56 38.25 53.625 
Q 42.578125 51.265625 45.40625 46.390625 
z
M 14.796875 27.296875 
Q 14.796875 17.390625 18.875 11.75 
Q 22.953125 6.109375 30.078125 6.109375 
Q 37.203125 6.109375 41.296875 11.75 
Q 45.40625 17.390625 45.40625 27.296875 
Q 45.40625 37.203125 41.296875 42.84375 
Q 37.203125 48.484375 30.078125 48.484375 
Q 22.953125 48.484375 18.875 42.84375 
Q 14.796875 37.203125 14.796875 27.296875 
z
" id="DejaVuSans-100"/>
      <path id="DejaVuSans-32"/>
      <path d="M 18.109375 8.203125 
L 18.109375 -20.796875 
L 9.078125 -20.796875 
L 9.078125 54.6875 
L 18.109375 54.6875 
L 18.109375 46.390625 
Q 20.953125 51.265625 25.265625 53.625 
Q 29.59375 56 35.59375 56 
Q 45.5625 56 51.78125 48.09375 
Q 58.015625 40.1875 58.015625 27.296875 
Q 58.015625 14.40625 51.78125 6.484375 
Q 45.5625 -1.421875 35.59375 -1.421875 
Q 29.59375 -1.421875 25.265625 0.953125 
Q 20.953125 3.328125 18.109375 8.203125 
z
M 48.6875 27.296875 
Q 48.6875 37.203125 44.609375 42.84375 
Q 40.53125 48.484375 33.40625 48.484375 
Q 26.265625 48.484375 22.1875 42.84375 
Q 18.109375 37.203125 18.109375 27.296875 
Q 18.109375 17.390625 22.1875 11.75 
Q 26.265625 6.109375 33.40625 6.109375 
Q 40.53125 6.109375 44.609375 11.75 
Q 48.6875 17.390625 48.6875 27.296875 
z
" id="DejaVuSans-112"/>
      <path d="M 18.3125 70.21875 
L 18.3125 54.6875 
L 36.8125 54.6875 
L 36.8125 47.703125 
L 18.3125 47.703125 
L 18.3125 18.015625 
Q 18.3125 11.328125 20.140625 9.421875 
Q 21.96875 7.515625 27.59375 7.515625 
L 36.8125 7.515625 
L 36.8125 0 
L 27.59375 0 
Q 17.1875 0 13.234375 3.875 
Q 9.28125 7.765625 9.28125 18.015625 
L 9.28125 47.703125 
L 2.6875 47.703125 
L 2.6875 54.6875 
L 9.28125 54.6875 
L 9.28125 70.21875 
z
" id="DejaVuSans-116"/>
      <path d="M 9.421875 75.984375 
L 18.40625 75.984375 
L 18.40625 0 
L 9.421875 0 
z
" id="DejaVuSans-108"/>
      <path d="M 52 44.1875 
Q 55.375 50.25 60.0625 53.125 
Q 64.75 56 71.09375 56 
Q 79.640625 56 84.28125 50.015625 
Q 88.921875 44.046875 88.921875 33.015625 
L 88.921875 0 
L 79.890625 0 
L 79.890625 32.71875 
Q 79.890625 40.578125 77.09375 44.375 
Q 74.3125 48.1875 68.609375 48.1875 
Q 61.625 48.1875 57.5625 43.546875 
Q 53.515625 38.921875 53.515625 30.90625 
L 53.515625 0 
L 44.484375 0 
L 44.484375 32.71875 
Q 44.484375 40.625 41.703125 44.40625 
Q 38.921875 48.1875 33.109375 48.1875 
Q 26.21875 48.1875 22.15625 43.53125 
Q 18.109375 38.875 18.109375 30.90625 
L 18.109375 0 
L 9.078125 0 
L 9.078125 54.6875 
L 18.109375 54.6875 
L 18.109375 46.1875 
Q 21.1875 51.21875 25.484375 53.609375 
Q 29.78125 56 35.6875 56 
Q 41.65625 56 45.828125 52.96875 
Q 50 49.953125 52 44.1875 
z
" id="DejaVuSans-109"/>
      <path d="M 13.09375 38.1875 
L 33.796875 38.1875 
L 33.796875 32.625 
L 4.59375 32.625 
L 4.59375 37.984375 
Q 6.25 39.5 9.328125 42.234375 
Q 26.125 57.125 26.125 61.71875 
Q 26.125 64.9375 23.578125 66.90625 
Q 21.046875 68.890625 16.890625 68.890625 
Q 14.359375 68.890625 11.375 68.03125 
Q 8.40625 67.1875 4.890625 65.484375 
L 4.890625 71.484375 
Q 8.640625 72.859375 11.890625 73.53125 
Q 15.140625 74.21875 17.921875 74.21875 
Q 25 74.21875 29.25 71 
Q 33.5 67.78125 33.5 62.5 
Q 33.5 55.71875 17.328125 41.84375 
Q 14.59375 39.5 13.09375 38.1875 
z
" id="DejaVuSans-178"/>
      <path d="M 25.390625 72.90625 
L 33.6875 72.90625 
L 8.296875 -9.28125 
L 0 -9.28125 
z
" id="DejaVuSans-47"/>
      <path d="M 25.59375 54.6875 
Q 30.078125 53.8125 32.546875 51.140625 
Q 35.015625 48.484375 35.015625 44.484375 
Q 35.015625 38.421875 30.375 35.15625 
Q 25.734375 31.890625 17.09375 31.890625 
Q 14.3125 31.890625 11.25 32.390625 
Q 8.203125 32.90625 4.78125 33.890625 
L 4.78125 39.796875 
Q 7.328125 38.484375 10.234375 37.84375 
Q 13.140625 37.203125 16.40625 37.203125 
Q 21.734375 37.203125 24.65625 39.125 
Q 27.59375 41.0625 27.59375 44.484375 
Q 27.59375 48.09375 24.875 49.953125 
Q 22.171875 51.8125 16.890625 51.8125 
L 12.703125 51.8125 
L 12.703125 57.078125 
L 17.28125 57.078125 
Q 21.875 57.078125 24.234375 58.609375 
Q 26.609375 60.15625 26.609375 63.09375 
Q 26.609375 65.921875 24.171875 67.40625 
Q 21.734375 68.890625 17.09375 68.890625 
Q 15.140625 68.890625 12.640625 68.453125 
Q 10.15625 68.015625 6.203125 66.890625 
L 6.203125 72.515625 
Q 9.765625 73.34375 12.890625 73.78125 
Q 16.015625 74.21875 18.703125 74.21875 
Q 25.734375 74.21875 29.859375 71.328125 
Q 33.984375 68.453125 33.984375 63.625 
Q 33.984375 60.25 31.78125 57.90625 
Q 29.59375 55.5625 25.59375 54.6875 
z
" id="DejaVuSans-179"/>
     </defs>
     <g transform="translate(36.654687 211.6675)rotate(-90)scale(0.1 -0.1)">
      <use xlink:href="#DejaVuSans-68"/>
      <use x="77.001953" xlink:href="#DejaVuSans-101"/>
      <use x="138.525391" xlink:href="#DejaVuSans-110"/>
      <use x="201.904297" xlink:href="#DejaVuSans-115"/>
      <use x="254.003906" xlink:href="#DejaVuSans-105"/>
      <use x="281.787109" xlink:href="#DejaVuSans-100"/>
      <use x="345.263672" xlink:href="#DejaVuSans-97"/>
      <use x="406.542969" xlink:href="#DejaVuSans-100"/>
      <use x="470.019531" xlink:href="#DejaVuSans-101"/>
      <use x="531.542969" xlink:href="#DejaVuSans-32"/>
      <use x="563.330078" xlink:href="#DejaVuSans-101"/>
      <use x="624.853516" xlink:href="#DejaVuSans-115"/>
      <use x="676.953125" xlink:href="#DejaVuSans-112"/>
      <use x="740.429688" xlink:href="#DejaVuSans-101"/>
      <use x="801.953125" xlink:href="#DejaVuSans-99"/>
      <use x="856.933594" xlink:href="#DejaVuSans-116"/>
      <use x="896.142578" xlink:href="#DejaVuSans-114"/>
      <use x="937.255859" xlink:href="#DejaVuSans-97"/>
      <use x="998.535156" xlink:href="#DejaVuSans-108"/>
      <use x="1026.318359" xlink:href="#DejaVuSans-40"/>
      <use x="1065.332031" xlink:href="#DejaVuSans-109"/>
      <use x="1162.744141" xlink:href="#DejaVuSans-178"/>
      <use x="1202.832031" xlink:href="#DejaVuSans-47"/>
      <use x="1236.523438" xlink:href="#DejaVuSans-115"/>
      <use x="1288.623047" xlink:href="#DejaVuSans-179"/>
      <use x="1328.710938" xlink:href="#DejaVuSans-41"/>
     </g>
    </g>
   </g>
   <g id="line2d_33">
    <path clip-path="url(#pb9751f8284)" d="M 71.440602 242.115687 
L 72.559398 242.019195 
L 73.118797 241.720412 
L 73.678195 240.75096 
L 74.796992 241.850439 
L 75.356391 241.968637 
L 76.475188 241.575299 
L 77.034586 241.601463 
L 77.593985 241.815947 
L 78.712782 241.829469 
L 79.27218 241.309025 
L 79.831579 241.343384 
L 80.390977 242.008831 
L 80.950376 241.585047 
L 81.509774 241.801176 
L 82.628571 241.954067 
L 83.18797 241.931846 
L 83.747368 242.031775 
L 84.306767 237.350709 
L 84.866165 236.044924 
L 85.425564 236.616799 
L 85.984962 237.692562 
L 86.544361 239.460792 
L 87.103759 234.920143 
L 87.663158 217.512328 
L 88.222556 214.707545 
L 88.781955 227.229089 
L 89.341353 231.141824 
L 89.900752 239.047983 
L 90.46015 240.125764 
L 91.019549 239.775372 
L 91.578947 232.465535 
L 92.138346 222.87183 
L 92.697744 222.180502 
L 93.257143 223.766273 
L 93.816541 229.630808 
L 94.37594 233.575827 
L 94.935338 235.604161 
L 95.494737 235.870141 
L 96.054135 237.193974 
L 96.613534 240.213838 
L 97.172932 240.47017 
L 97.732331 240.907 
L 98.291729 237.984854 
L 98.851128 240.679207 
L 99.410526 240.648767 
L 99.969925 238.815786 
L 100.529323 238.464469 
L 101.088722 240.552215 
L 101.64812 240.279407 
L 102.207519 239.832997 
L 102.766917 238.139284 
L 103.326316 237.569414 
L 103.885714 236.568603 
L 104.445113 236.68355 
L 105.004511 237.282805 
L 105.56391 239.061788 
L 106.123308 240.418416 
L 106.682707 241.465376 
L 107.242105 240.310615 
L 107.801504 240.487979 
L 108.360902 236.469443 
L 108.920301 239.836216 
L 109.479699 239.199064 
L 110.039098 239.564469 
L 110.598496 241.414001 
L 111.157895 240.848775 
L 111.717293 237.783549 
L 112.276692 236.736576 
L 112.83609 239.260921 
L 113.395489 238.532875 
L 114.514286 221.726153 
L 115.073684 203.831405 
L 115.633083 201.292202 
L 117.311278 242.042379 
L 117.870677 240.979896 
L 118.430075 233.117279 
L 118.989474 231.767282 
L 119.548872 229.425155 
L 120.108271 229.276171 
L 120.667669 224.479086 
L 121.227068 212.332896 
L 122.345865 234.395852 
L 122.905263 207.360887 
L 124.02406 83.394049 
L 124.583459 77.589812 
L 125.702256 204.055747 
L 126.261654 234.704625 
L 126.821053 237.230198 
L 127.380451 210.114492 
L 127.93985 169.68798 
L 128.499248 186.739745 
L 129.058647 216.405992 
L 129.618045 229.260352 
L 130.177444 203.361891 
L 130.736842 124.058025 
L 131.296241 70.795145 
L 131.855639 121.452058 
L 132.974436 196.241897 
L 133.533835 179.269134 
L 134.093233 141.674195 
L 134.652632 44.443636 
L 135.21203 48.643305 
L 135.771429 56.775954 
L 136.330827 131.746677 
L 136.890226 188.714708 
L 137.449624 226.514613 
L 138.568421 212.413235 
L 139.12782 217.021921 
L 139.687218 231.738956 
L 140.246617 219.615469 
L 140.806015 227.981522 
L 141.365414 208.243778 
L 141.924812 183.641825 
L 142.484211 142.049157 
L 143.043609 177.439267 
L 143.603008 171.799408 
L 144.162406 205.90578 
L 144.721805 220.740301 
L 145.281203 199.276359 
L 146.4 173.570047 
L 146.959398 168.366424 
L 147.518797 191.986998 
L 148.078195 195.399517 
L 148.637594 184.475573 
L 149.196992 227.087275 
L 149.756391 240.203098 
L 150.315789 225.370674 
L 150.875188 231.270037 
L 151.434586 239.08478 
L 152.553383 227.756537 
L 153.112782 209.331331 
L 153.67218 201.084635 
L 154.231579 227.378572 
L 154.790977 227.038356 
L 155.350376 220.289381 
L 155.909774 190.282133 
L 156.469173 206.168773 
L 157.028571 234.391143 
L 157.58797 216.50023 
L 158.147368 218.685959 
L 158.706767 206.15374 
L 159.266165 197.620882 
L 159.825564 217.672391 
L 160.384962 232.612775 
L 160.944361 231.374748 
L 161.503759 238.895254 
L 162.063158 238.315946 
L 162.622556 230.602878 
L 163.181955 236.597001 
L 163.741353 231.331213 
L 164.300752 229.673801 
L 164.86015 241.989424 
L 165.419549 236.892827 
L 165.978947 233.991928 
L 166.538346 225.635154 
L 167.097744 227.250049 
L 167.657143 185.600772 
L 168.216541 155.875976 
L 168.77594 201.981646 
L 169.335338 219.281022 
L 169.894737 208.20778 
L 170.454135 194.863742 
L 171.013534 191.071526 
L 171.572932 202.946621 
L 172.132331 200.251406 
L 172.691729 224.298618 
L 173.251128 217.75291 
L 173.810526 202.861743 
L 174.369925 229.878633 
L 174.929323 242.00497 
L 175.488722 233.60408 
L 176.04812 219.355321 
L 176.607519 219.289441 
L 177.166917 213.485307 
L 177.726316 231.074473 
L 178.285714 239.923997 
L 178.845113 238.66316 
L 179.404511 226.773691 
L 179.96391 192.771528 
L 180.523308 186.241822 
L 181.642105 229.063769 
L 182.201504 239.980716 
L 182.760902 238.306101 
L 183.320301 230.375546 
L 183.879699 224.10845 
L 184.439098 208.892402 
L 184.998496 189.461785 
L 185.557895 177.32765 
L 186.117293 159.185248 
L 186.676692 136.713636 
L 187.795489 174.910531 
L 188.354887 212.833404 
L 188.914286 240.33997 
L 189.473684 242.051181 
L 190.033083 234.529829 
L 190.592481 220.397253 
L 191.15188 197.845486 
L 191.711278 151.520189 
L 192.270677 143.359244 
L 193.389474 227.815588 
L 193.948872 218.56296 
L 194.508271 211.738413 
L 195.067669 222.018868 
L 195.627068 237.575763 
L 196.186466 237.417769 
L 196.745865 241.763961 
L 197.864662 236.852915 
L 198.42406 234.165637 
L 198.983459 221.718795 
L 199.542857 229.480281 
L 200.102256 238.931813 
L 200.661654 237.044047 
L 201.221053 239.113761 
L 201.780451 234.011525 
L 202.33985 233.655647 
L 202.899248 233.498234 
L 203.458647 226.549053 
L 204.018045 214.711793 
L 204.577444 192.779996 
L 205.136842 176.627568 
L 205.696241 179.419789 
L 206.255639 166.981219 
L 206.815038 159.951218 
L 207.374436 160.742702 
L 207.933835 168.089901 
L 208.493233 149.32724 
L 209.052632 164.359693 
L 209.61203 186.93772 
L 210.171429 200.277968 
L 210.730827 202.868334 
L 211.290226 131.931973 
L 211.849624 84.175179 
L 212.409023 97.280942 
L 212.968421 167.081953 
L 213.52782 201.890733 
L 214.087218 211.597883 
L 214.646617 203.422204 
L 215.206015 219.980104 
L 215.765414 229.236198 
L 216.324812 227.331464 
L 216.884211 227.608447 
L 217.443609 238.224614 
L 218.003008 225.064749 
L 218.562406 216.804459 
L 219.121805 218.357393 
L 219.681203 233.024839 
L 220.240602 230.280956 
L 220.8 222.444641 
L 221.359398 221.566548 
L 221.918797 221.335898 
L 222.478195 216.756408 
L 223.037594 185.005292 
L 223.596992 175.715614 
L 224.156391 171.45998 
L 224.715789 168.395827 
L 225.275188 185.766633 
L 225.834586 219.1715 
L 226.953383 238.490971 
L 227.512782 235.25544 
L 228.07218 229.107709 
L 228.631579 239.515546 
L 229.190977 239.13149 
L 229.750376 231.848827 
L 230.309774 238.864186 
L 230.869173 241.996839 
L 231.98797 236.604665 
L 232.547368 229.005059 
L 233.106767 234.724415 
L 233.666165 238.297758 
L 234.225564 237.778381 
L 234.784962 237.090011 
L 235.344361 235.329641 
L 235.903759 236.344164 
L 236.463158 229.257233 
L 237.581955 234.449922 
L 238.141353 229.849428 
L 238.700752 232.372304 
L 239.26015 239.155581 
L 239.819549 241.692022 
L 240.378947 239.411543 
L 241.497744 214.232097 
L 242.057143 205.84256 
L 242.616541 204.035338 
L 244.294737 241.9762 
L 244.854135 238.729086 
L 245.413534 241.580926 
L 245.972932 241.864951 
L 246.532331 233.616437 
L 247.091729 223.330297 
L 247.651128 231.999104 
L 248.210526 231.817162 
L 248.769925 233.351873 
L 249.329323 236.158565 
L 249.888722 237.488708 
L 250.44812 241.778867 
L 251.007519 240.709486 
L 251.566917 241.635626 
L 252.126316 239.489298 
L 252.685714 235.376437 
L 253.245113 233.435954 
L 254.923308 239.131082 
L 255.482707 236.522457 
L 256.042105 240.675822 
L 256.601504 240.802792 
L 257.160902 235.4686 
L 258.279699 228.5853 
L 258.839098 229.927361 
L 259.398496 238.993813 
L 259.957895 238.578154 
L 261.076692 238.167426 
L 261.63609 239.19988 
L 262.195489 241.787685 
L 262.754887 240.898567 
L 263.314286 239.297951 
L 264.433083 241.369572 
L 264.992481 238.313778 
L 265.55188 236.752236 
L 266.111278 230.257752 
L 266.670677 228.439985 
L 267.230075 233.925881 
L 268.348872 241.198129 
L 268.908271 241.568984 
L 269.467669 241.171762 
L 270.027068 239.822732 
L 270.586466 241.357021 
L 271.705263 242.042875 
L 272.264662 241.884978 
L 272.82406 238.493942 
L 273.383459 234.025553 
L 273.942857 231.437674 
L 274.502256 233.359641 
L 275.061654 236.24459 
L 275.621053 237.747672 
L 276.180451 237.365143 
L 276.73985 236.427996 
L 277.299248 236.50381 
L 278.977444 216.255176 
L 279.536842 224.266722 
L 280.096241 229.260763 
L 280.655639 231.286988 
L 281.215038 236.775333 
L 281.774436 240.175941 
L 282.333835 241.090174 
L 282.893233 241.338795 
L 283.452632 239.822188 
L 284.01203 239.876823 
L 284.571429 240.450302 
L 285.130827 241.990484 
L 285.690226 241.907837 
L 286.809023 240.595419 
L 287.368421 241.362786 
L 287.92782 241.926448 
L 288.487218 242.050586 
L 289.606015 241.868374 
L 290.165414 242.061019 
L 290.724812 241.983602 
L 291.843609 241.413287 
L 292.403008 240.786099 
L 292.962406 239.928019 
L 293.521805 240.246471 
L 294.081203 241.823944 
L 294.640602 240.587357 
L 295.2 237.287664 
L 295.759398 236.532325 
L 296.318797 236.882984 
L 296.878195 235.447262 
L 297.437594 235.900549 
L 297.996992 237.834095 
L 298.556391 240.688997 
L 299.115789 241.926763 
L 299.675188 241.212479 
L 300.234586 240.201433 
L 300.793985 236.502601 
L 301.353383 234.872302 
L 301.912782 236.239426 
L 302.47218 238.350905 
L 303.031579 241.120593 
L 303.590977 241.77411 
L 304.150376 241.15881 
L 304.709774 240.294829 
L 305.269173 240.06836 
L 305.828571 240.710322 
L 306.38797 239.960423 
L 306.947368 238.136955 
L 307.506767 237.74559 
L 308.066165 238.618389 
L 308.625564 240.644942 
L 309.184962 241.71846 
L 309.744361 240.903953 
L 310.303759 240.470905 
L 311.422556 237.988393 
L 311.981955 237.119652 
L 313.100752 240.84539 
L 313.66015 240.913097 
L 314.219549 239.394591 
L 314.778947 238.909143 
L 315.338346 240.574246 
L 315.897744 238.739755 
L 316.457143 239.368726 
L 317.016541 238.386434 
L 318.694737 241.894026 
L 319.813534 240.455084 
L 320.372932 241.194813 
L 320.932331 241.521279 
L 321.491729 240.733144 
L 322.051128 241.178401 
L 322.610526 240.052654 
L 323.729323 241.745287 
L 324.288722 241.97753 
L 325.407519 242.004416 
L 325.966917 242.099594 
L 326.526316 241.910445 
L 327.085714 241.44395 
L 327.645113 241.951018 
L 328.204511 241.818018 
L 328.76391 241.339692 
L 329.323308 241.556854 
L 329.882707 241.995841 
L 331.001504 240.533335 
L 331.560902 240.538995 
L 332.120301 241.649508 
L 332.679699 242.091834 
L 333.239098 241.874816 
L 333.798496 241.375463 
L 334.917293 242.056623 
L 337.714286 242.100896 
L 338.833083 242.044745 
L 341.630075 241.968898 
L 342.189474 241.811493 
L 342.748872 241.432974 
L 343.308271 241.193777 
L 343.867669 241.643433 
L 344.986466 241.924477 
L 346.105263 241.669747 
L 346.664662 241.868454 
L 348.342857 241.678517 
L 348.902256 242.032505 
L 350.021053 242.065984 
L 351.13985 242.007273 
L 352.258647 242.044939 
L 352.818045 241.951603 
L 354.496241 242.060196 
L 356.733835 241.917231 
L 357.293233 242.056186 
L 358.41203 242.08876 
L 358.971429 241.926343 
L 359.530827 241.360031 
L 360.090226 241.432785 
L 360.649624 241.805938 
L 361.209023 241.802295 
L 361.768421 241.156967 
L 362.32782 240.80496 
L 363.446617 241.227638 
L 364.006015 241.420659 
L 364.565414 241.85446 
L 365.124812 241.768794 
L 365.684211 240.962223 
L 366.243609 240.65991 
L 366.803008 241.382226 
L 367.362406 241.715685 
L 367.921805 241.692786 
L 368.481203 241.499636 
L 369.040602 241.181829 
L 369.6 240.480627 
L 370.159398 239.483042 
L 370.718797 239.179492 
L 371.837594 241.823891 
L 372.956391 241.340082 
L 374.075188 242.098606 
L 374.634586 242.016928 
L 375.193985 241.500497 
L 375.753383 240.505178 
L 376.312782 241.005959 
L 376.87218 241.667058 
L 377.431579 240.964489 
L 377.990977 241.382716 
L 378.550376 241.629394 
L 379.109774 241.751299 
L 380.228571 241.529111 
L 382.466165 241.912629 
L 383.025564 241.123998 
L 384.144361 240.948107 
L 384.703759 240.176379 
L 385.263158 241.344695 
L 385.822556 241.839492 
L 386.381955 241.911933 
L 386.941353 241.853059 
L 387.500752 241.085613 
L 389.178947 241.823961 
L 389.738346 241.98117 
L 390.297744 241.82134 
L 390.857143 241.886658 
L 391.416541 241.762257 
L 391.97594 241.475856 
L 392.535338 240.691595 
L 393.094737 239.299675 
L 393.654135 239.355632 
L 394.772932 242.078287 
L 395.332331 241.673334 
L 395.891729 241.827425 
L 396.451128 241.640197 
L 397.010526 241.677645 
L 398.129323 241.379189 
L 398.688722 241.679121 
L 399.24812 241.724615 
L 399.807519 241.648167 
L 400.926316 242.05711 
L 402.045113 241.917091 
L 402.604511 241.761348 
L 403.723308 240.970525 
L 404.282707 240.895898 
L 404.842105 241.8316 
L 405.401504 242.031059 
L 405.960902 242.011585 
L 407.079699 241.550334 
L 407.639098 241.198169 
L 408.198496 240.62866 
L 409.317293 241.740494 
L 409.876692 241.694337 
L 410.43609 241.871381 
L 410.995489 241.850016 
L 411.554887 242.092189 
L 412.673684 242.0163 
L 413.233083 241.768265 
L 413.792481 241.645114 
L 414.911278 242.10746 
L 416.030075 241.745677 
L 416.589474 241.528888 
L 417.148872 241.539636 
L 417.708271 241.743103 
L 418.267669 242.072809 
L 419.945865 241.973369 
L 421.62406 242.078902 
L 422.742857 242.067896 
L 423.861654 241.287848 
L 424.980451 241.372124 
L 426.099248 241.89316 
L 427.218045 242.032457 
L 432.252632 241.904719 
L 433.371429 241.984034 
L 433.930827 242.074058 
L 434.490226 241.966132 
L 436.168421 241.097866 
L 436.72782 241.209369 
L 437.846617 241.987564 
L 439.524812 242.093264 
L 441.203008 241.860065 
L 441.762406 242.025882 
L 442.881203 242.054561 
L 444 242.115518 
L 444.559398 242.086214 
L 445.118797 241.917992 
L 445.678195 241.586539 
L 446.237594 241.54014 
L 446.796992 241.895047 
L 447.356391 242.072187 
L 448.475188 242.103692 
L 449.593985 241.904363 
L 450.153383 241.960991 
L 452.390977 241.602738 
L 453.509774 241.890555 
L 454.069173 241.960805 
L 454.628571 241.816569 
L 455.18797 241.544405 
L 456.306767 242.071673 
L 459.103759 242.029089 
L 460.222556 242.107879 
L 460.781955 241.979459 
L 461.341353 241.480887 
L 461.900752 241.190001 
L 463.019549 241.875176 
L 464.697744 242.109259 
L 469.172932 242.053179 
L 472.529323 242.087756 
L 474.207519 242.080894 
L 477.004511 241.682145 
L 480.920301 241.974029 
L 482.039098 242.101012 
L 492.667669 241.929777 
L 493.227068 241.840076 
L 493.786466 241.962379 
L 495.464662 241.913696 
L 498.821053 242.112233 
L 500.499248 241.836249 
L 501.058647 242.00545 
L 503.296241 241.929 
L 504.974436 242.094518 
L 506.093233 242.064541 
L 507.771429 242.023568 
L 508.330827 241.875177 
L 510.009023 242.072442 
L 511.687218 242.069231 
L 512.806015 242.076168 
L 515.043609 241.82477 
L 518.959398 242.075355 
L 518.959398 242.075355 
" style="fill:none;stroke:#000000;stroke-linecap:square;stroke-width:1.5;"/>
   </g>
   <g id="patch_3">
    <path d="M 72 252 
L 72 34.56 
" style="fill:none;stroke:#000000;stroke-linecap:square;stroke-linejoin:miter;stroke-width:0.8;"/>
   </g>
   <g id="patch_4">
    <path d="M 518.4 252 
L 518.4 34.56 
" style="fill:none;stroke:#000000;stroke-linecap:square;stroke-linejoin:miter;stroke-width:0.8;"/>
   </g>
   <g id="patch_5">
    <path d="M 72 252 
L 518.4 252 
" style="fill:none;stroke:#000000;stroke-linecap:square;stroke-linejoin:miter;stroke-width:0.8;"/>
   </g>
   <g id="patch_6">
    <path d="M 72 34.56 
L 518.4 34.56 
" style="fill:none;stroke:#000000;stroke-linecap:square;stroke-linejoin:miter;stroke-width:0.8;"/>
   </g>
  </g>
 </g>
 <defs>
  <clipPath id="pb9751f8284">
   <rect height="217.44" width="446.4" x="72" y="34.56"/>
  </clipPath>
 </defs>
</svg>
