<?xml version="1.0" encoding="utf-8" standalone="no"?>
<!DOCTYPE svg PUBLIC "-//W3C//DTD SVG 1.1//EN"
  "http://www.w3.org/Graphics/SVG/1.1/DTD/svg11.dtd">
<!-- Created with matplotlib (https://matplotlib.org/) -->
<svg height="288pt" version="1.1" viewBox="0 0 576 288" width="576pt" xmlns="http://www.w3.org/2000/svg" xmlns:xlink="http://www.w3.org/1999/xlink">
 <defs>
  <style type="text/css">
*{stroke-linecap:butt;stroke-linejoin:round;}
  </style>
 </defs>
 <g id="figure_1">
  <g id="patch_1">
   <path d="M 0 288 
L 576 288 
L 576 0 
L 0 0 
z
" style="fill:#ffffff;"/>
  </g>
  <g id="axes_1">
   <g id="patch_2">
    <path d="M 72 252 
L 518.4 252 
L 518.4 34.56 
L 72 34.56 
z
" style="fill:#ffffff;"/>
   </g>
   <g id="matplotlib.axis_1">
    <g id="xtick_1">
     <g id="line2d_1">
      <path clip-path="url(#p5ac05d5481)" d="M 72 252 
L 72 34.56 
" style="fill:none;stroke:#b0b0b0;stroke-linecap:square;stroke-width:0.8;"/>
     </g>
     <g id="line2d_2">
      <defs>
       <path d="M 0 0 
L 0 3.5 
" id="m8f2a5a9ae4" style="stroke:#000000;stroke-width:0.8;"/>
      </defs>
      <g>
       <use style="stroke:#000000;stroke-width:0.8;" x="72" xlink:href="#m8f2a5a9ae4" y="252"/>
      </g>
     </g>
     <g id="text_1">
      <!-- 0 -->
      <defs>
       <path d="M 31.78125 66.40625 
Q 24.171875 66.40625 20.328125 58.90625 
Q 16.5 51.421875 16.5 36.375 
Q 16.5 21.390625 20.328125 13.890625 
Q 24.171875 6.390625 31.78125 6.390625 
Q 39.453125 6.390625 43.28125 13.890625 
Q 47.125 21.390625 47.125 36.375 
Q 47.125 51.421875 43.28125 58.90625 
Q 39.453125 66.40625 31.78125 66.40625 
z
M 31.78125 74.21875 
Q 44.046875 74.21875 50.515625 64.515625 
Q 56.984375 54.828125 56.984375 36.375 
Q 56.984375 17.96875 50.515625 8.265625 
Q 44.046875 -1.421875 31.78125 -1.421875 
Q 19.53125 -1.421875 13.0625 8.265625 
Q 6.59375 17.96875 6.59375 36.375 
Q 6.59375 54.828125 13.0625 64.515625 
Q 19.53125 74.21875 31.78125 74.21875 
z
" id="DejaVuSans-48"/>
      </defs>
      <g transform="translate(68.81875 266.598437)scale(0.1 -0.1)">
       <use xlink:href="#DejaVuSans-48"/>
      </g>
     </g>
    </g>
    <g id="xtick_2">
     <g id="line2d_3">
      <path clip-path="url(#p5ac05d5481)" d="M 146.4 252 
L 146.4 34.56 
" style="fill:none;stroke:#b0b0b0;stroke-linecap:square;stroke-width:0.8;"/>
     </g>
     <g id="line2d_4">
      <g>
       <use style="stroke:#000000;stroke-width:0.8;" x="146.4" xlink:href="#m8f2a5a9ae4" y="252"/>
      </g>
     </g>
     <g id="text_2">
      <!-- 5 -->
      <defs>
       <path d="M 10.796875 72.90625 
L 49.515625 72.90625 
L 49.515625 64.59375 
L 19.828125 64.59375 
L 19.828125 46.734375 
Q 21.96875 47.46875 24.109375 47.828125 
Q 26.265625 48.1875 28.421875 48.1875 
Q 40.625 48.1875 47.75 41.5 
Q 54.890625 34.8125 54.890625 23.390625 
Q 54.890625 11.625 47.5625 5.09375 
Q 40.234375 -1.421875 26.90625 -1.421875 
Q 22.3125 -1.421875 17.546875 -0.640625 
Q 12.796875 0.140625 7.71875 1.703125 
L 7.71875 11.625 
Q 12.109375 9.234375 16.796875 8.0625 
Q 21.484375 6.890625 26.703125 6.890625 
Q 35.15625 6.890625 40.078125 11.328125 
Q 45.015625 15.765625 45.015625 23.390625 
Q 45.015625 31 40.078125 35.4375 
Q 35.15625 39.890625 26.703125 39.890625 
Q 22.75 39.890625 18.8125 39.015625 
Q 14.890625 38.140625 10.796875 36.28125 
z
" id="DejaVuSans-53"/>
      </defs>
      <g transform="translate(143.21875 266.598437)scale(0.1 -0.1)">
       <use xlink:href="#DejaVuSans-53"/>
      </g>
     </g>
    </g>
    <g id="xtick_3">
     <g id="line2d_5">
      <path clip-path="url(#p5ac05d5481)" d="M 220.8 252 
L 220.8 34.56 
" style="fill:none;stroke:#b0b0b0;stroke-linecap:square;stroke-width:0.8;"/>
     </g>
     <g id="line2d_6">
      <g>
       <use style="stroke:#000000;stroke-width:0.8;" x="220.8" xlink:href="#m8f2a5a9ae4" y="252"/>
      </g>
     </g>
     <g id="text_3">
      <!-- 10 -->
      <defs>
       <path d="M 12.40625 8.296875 
L 28.515625 8.296875 
L 28.515625 63.921875 
L 10.984375 60.40625 
L 10.984375 69.390625 
L 28.421875 72.90625 
L 38.28125 72.90625 
L 38.28125 8.296875 
L 54.390625 8.296875 
L 54.390625 0 
L 12.40625 0 
z
" id="DejaVuSans-49"/>
      </defs>
      <g transform="translate(214.4375 266.598437)scale(0.1 -0.1)">
       <use xlink:href="#DejaVuSans-49"/>
       <use x="63.623047" xlink:href="#DejaVuSans-48"/>
      </g>
     </g>
    </g>
    <g id="xtick_4">
     <g id="line2d_7">
      <path clip-path="url(#p5ac05d5481)" d="M 295.2 252 
L 295.2 34.56 
" style="fill:none;stroke:#b0b0b0;stroke-linecap:square;stroke-width:0.8;"/>
     </g>
     <g id="line2d_8">
      <g>
       <use style="stroke:#000000;stroke-width:0.8;" x="295.2" xlink:href="#m8f2a5a9ae4" y="252"/>
      </g>
     </g>
     <g id="text_4">
      <!-- 15 -->
      <g transform="translate(288.8375 266.598437)scale(0.1 -0.1)">
       <use xlink:href="#DejaVuSans-49"/>
       <use x="63.623047" xlink:href="#DejaVuSans-53"/>
      </g>
     </g>
    </g>
    <g id="xtick_5">
     <g id="line2d_9">
      <path clip-path="url(#p5ac05d5481)" d="M 369.6 252 
L 369.6 34.56 
" style="fill:none;stroke:#b0b0b0;stroke-linecap:square;stroke-width:0.8;"/>
     </g>
     <g id="line2d_10">
      <g>
       <use style="stroke:#000000;stroke-width:0.8;" x="369.6" xlink:href="#m8f2a5a9ae4" y="252"/>
      </g>
     </g>
     <g id="text_5">
      <!-- 20 -->
      <defs>
       <path d="M 19.1875 8.296875 
L 53.609375 8.296875 
L 53.609375 0 
L 7.328125 0 
L 7.328125 8.296875 
Q 12.9375 14.109375 22.625 23.890625 
Q 32.328125 33.6875 34.8125 36.53125 
Q 39.546875 41.84375 41.421875 45.53125 
Q 43.3125 49.21875 43.3125 52.78125 
Q 43.3125 58.59375 39.234375 62.25 
Q 35.15625 65.921875 28.609375 65.921875 
Q 23.96875 65.921875 18.8125 64.3125 
Q 13.671875 62.703125 7.8125 59.421875 
L 7.8125 69.390625 
Q 13.765625 71.78125 18.9375 73 
Q 24.125 74.21875 28.421875 74.21875 
Q 39.75 74.21875 46.484375 68.546875 
Q 53.21875 62.890625 53.21875 53.421875 
Q 53.21875 48.921875 51.53125 44.890625 
Q 49.859375 40.875 45.40625 35.40625 
Q 44.1875 33.984375 37.640625 27.21875 
Q 31.109375 20.453125 19.1875 8.296875 
z
" id="DejaVuSans-50"/>
      </defs>
      <g transform="translate(363.2375 266.598437)scale(0.1 -0.1)">
       <use xlink:href="#DejaVuSans-50"/>
       <use x="63.623047" xlink:href="#DejaVuSans-48"/>
      </g>
     </g>
    </g>
    <g id="xtick_6">
     <g id="line2d_11">
      <path clip-path="url(#p5ac05d5481)" d="M 444 252 
L 444 34.56 
" style="fill:none;stroke:#b0b0b0;stroke-linecap:square;stroke-width:0.8;"/>
     </g>
     <g id="line2d_12">
      <g>
       <use style="stroke:#000000;stroke-width:0.8;" x="444" xlink:href="#m8f2a5a9ae4" y="252"/>
      </g>
     </g>
     <g id="text_6">
      <!-- 25 -->
      <g transform="translate(437.6375 266.598437)scale(0.1 -0.1)">
       <use xlink:href="#DejaVuSans-50"/>
       <use x="63.623047" xlink:href="#DejaVuSans-53"/>
      </g>
     </g>
    </g>
    <g id="xtick_7">
     <g id="line2d_13">
      <path clip-path="url(#p5ac05d5481)" d="M 518.4 252 
L 518.4 34.56 
" style="fill:none;stroke:#b0b0b0;stroke-linecap:square;stroke-width:0.8;"/>
     </g>
     <g id="line2d_14">
      <g>
       <use style="stroke:#000000;stroke-width:0.8;" x="518.4" xlink:href="#m8f2a5a9ae4" y="252"/>
      </g>
     </g>
     <g id="text_7">
      <!-- 30 -->
      <defs>
       <path d="M 40.578125 39.3125 
Q 47.65625 37.796875 51.625 33 
Q 55.609375 28.21875 55.609375 21.1875 
Q 55.609375 10.40625 48.1875 4.484375 
Q 40.765625 -1.421875 27.09375 -1.421875 
Q 22.515625 -1.421875 17.65625 -0.515625 
Q 12.796875 0.390625 7.625 2.203125 
L 7.625 11.71875 
Q 11.71875 9.328125 16.59375 8.109375 
Q 21.484375 6.890625 26.8125 6.890625 
Q 36.078125 6.890625 40.9375 10.546875 
Q 45.796875 14.203125 45.796875 21.1875 
Q 45.796875 27.640625 41.28125 31.265625 
Q 36.765625 34.90625 28.71875 34.90625 
L 20.21875 34.90625 
L 20.21875 43.015625 
L 29.109375 43.015625 
Q 36.375 43.015625 40.234375 45.921875 
Q 44.09375 48.828125 44.09375 54.296875 
Q 44.09375 59.90625 40.109375 62.90625 
Q 36.140625 65.921875 28.71875 65.921875 
Q 24.65625 65.921875 20.015625 65.03125 
Q 15.375 64.15625 9.8125 62.3125 
L 9.8125 71.09375 
Q 15.4375 72.65625 20.34375 73.4375 
Q 25.25 74.21875 29.59375 74.21875 
Q 40.828125 74.21875 47.359375 69.109375 
Q 53.90625 64.015625 53.90625 55.328125 
Q 53.90625 49.265625 50.4375 45.09375 
Q 46.96875 40.921875 40.578125 39.3125 
z
" id="DejaVuSans-51"/>
      </defs>
      <g transform="translate(512.0375 266.598437)scale(0.1 -0.1)">
       <use xlink:href="#DejaVuSans-51"/>
       <use x="63.623047" xlink:href="#DejaVuSans-48"/>
      </g>
     </g>
    </g>
    <g id="text_8">
     <!-- Tempo (s) -->
     <defs>
      <path d="M -0.296875 72.90625 
L 61.375 72.90625 
L 61.375 64.59375 
L 35.5 64.59375 
L 35.5 0 
L 25.59375 0 
L 25.59375 64.59375 
L -0.296875 64.59375 
z
" id="DejaVuSans-84"/>
      <path d="M 56.203125 29.59375 
L 56.203125 25.203125 
L 14.890625 25.203125 
Q 15.484375 15.921875 20.484375 11.0625 
Q 25.484375 6.203125 34.421875 6.203125 
Q 39.59375 6.203125 44.453125 7.46875 
Q 49.3125 8.734375 54.109375 11.28125 
L 54.109375 2.78125 
Q 49.265625 0.734375 44.1875 -0.34375 
Q 39.109375 -1.421875 33.890625 -1.421875 
Q 20.796875 -1.421875 13.15625 6.1875 
Q 5.515625 13.8125 5.515625 26.8125 
Q 5.515625 40.234375 12.765625 48.109375 
Q 20.015625 56 32.328125 56 
Q 43.359375 56 49.78125 48.890625 
Q 56.203125 41.796875 56.203125 29.59375 
z
M 47.21875 32.234375 
Q 47.125 39.59375 43.09375 43.984375 
Q 39.0625 48.390625 32.421875 48.390625 
Q 24.90625 48.390625 20.390625 44.140625 
Q 15.875 39.890625 15.1875 32.171875 
z
" id="DejaVuSans-101"/>
      <path d="M 52 44.1875 
Q 55.375 50.25 60.0625 53.125 
Q 64.75 56 71.09375 56 
Q 79.640625 56 84.28125 50.015625 
Q 88.921875 44.046875 88.921875 33.015625 
L 88.921875 0 
L 79.890625 0 
L 79.890625 32.71875 
Q 79.890625 40.578125 77.09375 44.375 
Q 74.3125 48.1875 68.609375 48.1875 
Q 61.625 48.1875 57.5625 43.546875 
Q 53.515625 38.921875 53.515625 30.90625 
L 53.515625 0 
L 44.484375 0 
L 44.484375 32.71875 
Q 44.484375 40.625 41.703125 44.40625 
Q 38.921875 48.1875 33.109375 48.1875 
Q 26.21875 48.1875 22.15625 43.53125 
Q 18.109375 38.875 18.109375 30.90625 
L 18.109375 0 
L 9.078125 0 
L 9.078125 54.6875 
L 18.109375 54.6875 
L 18.109375 46.1875 
Q 21.1875 51.21875 25.484375 53.609375 
Q 29.78125 56 35.6875 56 
Q 41.65625 56 45.828125 52.96875 
Q 50 49.953125 52 44.1875 
z
" id="DejaVuSans-109"/>
      <path d="M 18.109375 8.203125 
L 18.109375 -20.796875 
L 9.078125 -20.796875 
L 9.078125 54.6875 
L 18.109375 54.6875 
L 18.109375 46.390625 
Q 20.953125 51.265625 25.265625 53.625 
Q 29.59375 56 35.59375 56 
Q 45.5625 56 51.78125 48.09375 
Q 58.015625 40.1875 58.015625 27.296875 
Q 58.015625 14.40625 51.78125 6.484375 
Q 45.5625 -1.421875 35.59375 -1.421875 
Q 29.59375 -1.421875 25.265625 0.953125 
Q 20.953125 3.328125 18.109375 8.203125 
z
M 48.6875 27.296875 
Q 48.6875 37.203125 44.609375 42.84375 
Q 40.53125 48.484375 33.40625 48.484375 
Q 26.265625 48.484375 22.1875 42.84375 
Q 18.109375 37.203125 18.109375 27.296875 
Q 18.109375 17.390625 22.1875 11.75 
Q 26.265625 6.109375 33.40625 6.109375 
Q 40.53125 6.109375 44.609375 11.75 
Q 48.6875 17.390625 48.6875 27.296875 
z
" id="DejaVuSans-112"/>
      <path d="M 30.609375 48.390625 
Q 23.390625 48.390625 19.1875 42.75 
Q 14.984375 37.109375 14.984375 27.296875 
Q 14.984375 17.484375 19.15625 11.84375 
Q 23.34375 6.203125 30.609375 6.203125 
Q 37.796875 6.203125 41.984375 11.859375 
Q 46.1875 17.53125 46.1875 27.296875 
Q 46.1875 37.015625 41.984375 42.703125 
Q 37.796875 48.390625 30.609375 48.390625 
z
M 30.609375 56 
Q 42.328125 56 49.015625 48.375 
Q 55.71875 40.765625 55.71875 27.296875 
Q 55.71875 13.875 49.015625 6.21875 
Q 42.328125 -1.421875 30.609375 -1.421875 
Q 18.84375 -1.421875 12.171875 6.21875 
Q 5.515625 13.875 5.515625 27.296875 
Q 5.515625 40.765625 12.171875 48.375 
Q 18.84375 56 30.609375 56 
z
" id="DejaVuSans-111"/>
      <path id="DejaVuSans-32"/>
      <path d="M 31 75.875 
Q 24.46875 64.65625 21.28125 53.65625 
Q 18.109375 42.671875 18.109375 31.390625 
Q 18.109375 20.125 21.3125 9.0625 
Q 24.515625 -2 31 -13.1875 
L 23.1875 -13.1875 
Q 15.875 -1.703125 12.234375 9.375 
Q 8.59375 20.453125 8.59375 31.390625 
Q 8.59375 42.28125 12.203125 53.3125 
Q 15.828125 64.359375 23.1875 75.875 
z
" id="DejaVuSans-40"/>
      <path d="M 44.28125 53.078125 
L 44.28125 44.578125 
Q 40.484375 46.53125 36.375 47.5 
Q 32.28125 48.484375 27.875 48.484375 
Q 21.1875 48.484375 17.84375 46.4375 
Q 14.5 44.390625 14.5 40.28125 
Q 14.5 37.15625 16.890625 35.375 
Q 19.28125 33.59375 26.515625 31.984375 
L 29.59375 31.296875 
Q 39.15625 29.25 43.1875 25.515625 
Q 47.21875 21.78125 47.21875 15.09375 
Q 47.21875 7.46875 41.1875 3.015625 
Q 35.15625 -1.421875 24.609375 -1.421875 
Q 20.21875 -1.421875 15.453125 -0.5625 
Q 10.6875 0.296875 5.421875 2 
L 5.421875 11.28125 
Q 10.40625 8.6875 15.234375 7.390625 
Q 20.0625 6.109375 24.8125 6.109375 
Q 31.15625 6.109375 34.5625 8.28125 
Q 37.984375 10.453125 37.984375 14.40625 
Q 37.984375 18.0625 35.515625 20.015625 
Q 33.0625 21.96875 24.703125 23.78125 
L 21.578125 24.515625 
Q 13.234375 26.265625 9.515625 29.90625 
Q 5.8125 33.546875 5.8125 39.890625 
Q 5.8125 47.609375 11.28125 51.796875 
Q 16.75 56 26.8125 56 
Q 31.78125 56 36.171875 55.265625 
Q 40.578125 54.546875 44.28125 53.078125 
z
" id="DejaVuSans-115"/>
      <path d="M 8.015625 75.875 
L 15.828125 75.875 
Q 23.140625 64.359375 26.78125 53.3125 
Q 30.421875 42.28125 30.421875 31.390625 
Q 30.421875 20.453125 26.78125 9.375 
Q 23.140625 -1.703125 15.828125 -13.1875 
L 8.015625 -13.1875 
Q 14.5 -2 17.703125 9.0625 
Q 20.90625 20.125 20.90625 31.390625 
Q 20.90625 42.671875 17.703125 53.65625 
Q 14.5 64.65625 8.015625 75.875 
z
" id="DejaVuSans-41"/>
     </defs>
     <g transform="translate(270.720312 280.276563)scale(0.1 -0.1)">
      <use xlink:href="#DejaVuSans-84"/>
      <use x="44.083984" xlink:href="#DejaVuSans-101"/>
      <use x="105.607422" xlink:href="#DejaVuSans-109"/>
      <use x="203.019531" xlink:href="#DejaVuSans-112"/>
      <use x="266.496094" xlink:href="#DejaVuSans-111"/>
      <use x="327.677734" xlink:href="#DejaVuSans-32"/>
      <use x="359.464844" xlink:href="#DejaVuSans-40"/>
      <use x="398.478516" xlink:href="#DejaVuSans-115"/>
      <use x="450.578125" xlink:href="#DejaVuSans-41"/>
     </g>
    </g>
   </g>
   <g id="matplotlib.axis_2">
    <g id="ytick_1">
     <g id="line2d_15">
      <path clip-path="url(#p5ac05d5481)" d="M 72 239.067709 
L 518.4 239.067709 
" style="fill:none;stroke:#b0b0b0;stroke-linecap:square;stroke-width:0.8;"/>
     </g>
     <g id="line2d_16">
      <defs>
       <path d="M 0 0 
L -3.5 0 
" id="mf8a25988ef" style="stroke:#000000;stroke-width:0.8;"/>
      </defs>
      <g>
       <use style="stroke:#000000;stroke-width:0.8;" x="72" xlink:href="#mf8a25988ef" y="239.067709"/>
      </g>
     </g>
     <g id="text_9">
      <!-- −0.5 -->
      <defs>
       <path d="M 10.59375 35.5 
L 73.1875 35.5 
L 73.1875 27.203125 
L 10.59375 27.203125 
z
" id="DejaVuSans-8722"/>
       <path d="M 10.6875 12.40625 
L 21 12.40625 
L 21 0 
L 10.6875 0 
z
" id="DejaVuSans-46"/>
      </defs>
      <g transform="translate(40.717187 242.866927)scale(0.1 -0.1)">
       <use xlink:href="#DejaVuSans-8722"/>
       <use x="83.789062" xlink:href="#DejaVuSans-48"/>
       <use x="147.412109" xlink:href="#DejaVuSans-46"/>
       <use x="179.199219" xlink:href="#DejaVuSans-53"/>
      </g>
     </g>
    </g>
    <g id="ytick_2">
     <g id="line2d_17">
      <path clip-path="url(#p5ac05d5481)" d="M 72 213.479424 
L 518.4 213.479424 
" style="fill:none;stroke:#b0b0b0;stroke-linecap:square;stroke-width:0.8;"/>
     </g>
     <g id="line2d_18">
      <g>
       <use style="stroke:#000000;stroke-width:0.8;" x="72" xlink:href="#mf8a25988ef" y="213.479424"/>
      </g>
     </g>
     <g id="text_10">
      <!-- 0.0 -->
      <g transform="translate(49.096875 217.278643)scale(0.1 -0.1)">
       <use xlink:href="#DejaVuSans-48"/>
       <use x="63.623047" xlink:href="#DejaVuSans-46"/>
       <use x="95.410156" xlink:href="#DejaVuSans-48"/>
      </g>
     </g>
    </g>
    <g id="ytick_3">
     <g id="line2d_19">
      <path clip-path="url(#p5ac05d5481)" d="M 72 187.89114 
L 518.4 187.89114 
" style="fill:none;stroke:#b0b0b0;stroke-linecap:square;stroke-width:0.8;"/>
     </g>
     <g id="line2d_20">
      <g>
       <use style="stroke:#000000;stroke-width:0.8;" x="72" xlink:href="#mf8a25988ef" y="187.89114"/>
      </g>
     </g>
     <g id="text_11">
      <!-- 0.5 -->
      <g transform="translate(49.096875 191.690359)scale(0.1 -0.1)">
       <use xlink:href="#DejaVuSans-48"/>
       <use x="63.623047" xlink:href="#DejaVuSans-46"/>
       <use x="95.410156" xlink:href="#DejaVuSans-53"/>
      </g>
     </g>
    </g>
    <g id="ytick_4">
     <g id="line2d_21">
      <path clip-path="url(#p5ac05d5481)" d="M 72 162.302856 
L 518.4 162.302856 
" style="fill:none;stroke:#b0b0b0;stroke-linecap:square;stroke-width:0.8;"/>
     </g>
     <g id="line2d_22">
      <g>
       <use style="stroke:#000000;stroke-width:0.8;" x="72" xlink:href="#mf8a25988ef" y="162.302856"/>
      </g>
     </g>
     <g id="text_12">
      <!-- 1.0 -->
      <g transform="translate(49.096875 166.102075)scale(0.1 -0.1)">
       <use xlink:href="#DejaVuSans-49"/>
       <use x="63.623047" xlink:href="#DejaVuSans-46"/>
       <use x="95.410156" xlink:href="#DejaVuSans-48"/>
      </g>
     </g>
    </g>
    <g id="ytick_5">
     <g id="line2d_23">
      <path clip-path="url(#p5ac05d5481)" d="M 72 136.714572 
L 518.4 136.714572 
" style="fill:none;stroke:#b0b0b0;stroke-linecap:square;stroke-width:0.8;"/>
     </g>
     <g id="line2d_24">
      <g>
       <use style="stroke:#000000;stroke-width:0.8;" x="72" xlink:href="#mf8a25988ef" y="136.714572"/>
      </g>
     </g>
     <g id="text_13">
      <!-- 1.5 -->
      <g transform="translate(49.096875 140.513791)scale(0.1 -0.1)">
       <use xlink:href="#DejaVuSans-49"/>
       <use x="63.623047" xlink:href="#DejaVuSans-46"/>
       <use x="95.410156" xlink:href="#DejaVuSans-53"/>
      </g>
     </g>
    </g>
    <g id="ytick_6">
     <g id="line2d_25">
      <path clip-path="url(#p5ac05d5481)" d="M 72 111.126288 
L 518.4 111.126288 
" style="fill:none;stroke:#b0b0b0;stroke-linecap:square;stroke-width:0.8;"/>
     </g>
     <g id="line2d_26">
      <g>
       <use style="stroke:#000000;stroke-width:0.8;" x="72" xlink:href="#mf8a25988ef" y="111.126288"/>
      </g>
     </g>
     <g id="text_14">
      <!-- 2.0 -->
      <g transform="translate(49.096875 114.925507)scale(0.1 -0.1)">
       <use xlink:href="#DejaVuSans-50"/>
       <use x="63.623047" xlink:href="#DejaVuSans-46"/>
       <use x="95.410156" xlink:href="#DejaVuSans-48"/>
      </g>
     </g>
    </g>
    <g id="ytick_7">
     <g id="line2d_27">
      <path clip-path="url(#p5ac05d5481)" d="M 72 85.538004 
L 518.4 85.538004 
" style="fill:none;stroke:#b0b0b0;stroke-linecap:square;stroke-width:0.8;"/>
     </g>
     <g id="line2d_28">
      <g>
       <use style="stroke:#000000;stroke-width:0.8;" x="72" xlink:href="#mf8a25988ef" y="85.538004"/>
      </g>
     </g>
     <g id="text_15">
      <!-- 2.5 -->
      <g transform="translate(49.096875 89.337222)scale(0.1 -0.1)">
       <use xlink:href="#DejaVuSans-50"/>
       <use x="63.623047" xlink:href="#DejaVuSans-46"/>
       <use x="95.410156" xlink:href="#DejaVuSans-53"/>
      </g>
     </g>
    </g>
    <g id="ytick_8">
     <g id="line2d_29">
      <path clip-path="url(#p5ac05d5481)" d="M 72 59.94972 
L 518.4 59.94972 
" style="fill:none;stroke:#b0b0b0;stroke-linecap:square;stroke-width:0.8;"/>
     </g>
     <g id="line2d_30">
      <g>
       <use style="stroke:#000000;stroke-width:0.8;" x="72" xlink:href="#mf8a25988ef" y="59.94972"/>
      </g>
     </g>
     <g id="text_16">
      <!-- 3.0 -->
      <g transform="translate(49.096875 63.748938)scale(0.1 -0.1)">
       <use xlink:href="#DejaVuSans-51"/>
       <use x="63.623047" xlink:href="#DejaVuSans-46"/>
       <use x="95.410156" xlink:href="#DejaVuSans-48"/>
      </g>
     </g>
    </g>
    <g id="text_17">
     <!-- Aceleração (m/s²) -->
     <defs>
      <path d="M 34.1875 63.1875 
L 20.796875 26.90625 
L 47.609375 26.90625 
z
M 28.609375 72.90625 
L 39.796875 72.90625 
L 67.578125 0 
L 57.328125 0 
L 50.6875 18.703125 
L 17.828125 18.703125 
L 11.1875 0 
L 0.78125 0 
z
" id="DejaVuSans-65"/>
      <path d="M 48.78125 52.59375 
L 48.78125 44.1875 
Q 44.96875 46.296875 41.140625 47.34375 
Q 37.3125 48.390625 33.40625 48.390625 
Q 24.65625 48.390625 19.8125 42.84375 
Q 14.984375 37.3125 14.984375 27.296875 
Q 14.984375 17.28125 19.8125 11.734375 
Q 24.65625 6.203125 33.40625 6.203125 
Q 37.3125 6.203125 41.140625 7.25 
Q 44.96875 8.296875 48.78125 10.40625 
L 48.78125 2.09375 
Q 45.015625 0.34375 40.984375 -0.53125 
Q 36.96875 -1.421875 32.421875 -1.421875 
Q 20.0625 -1.421875 12.78125 6.34375 
Q 5.515625 14.109375 5.515625 27.296875 
Q 5.515625 40.671875 12.859375 48.328125 
Q 20.21875 56 33.015625 56 
Q 37.15625 56 41.109375 55.140625 
Q 45.0625 54.296875 48.78125 52.59375 
z
" id="DejaVuSans-99"/>
      <path d="M 9.421875 75.984375 
L 18.40625 75.984375 
L 18.40625 0 
L 9.421875 0 
z
" id="DejaVuSans-108"/>
      <path d="M 41.109375 46.296875 
Q 39.59375 47.171875 37.8125 47.578125 
Q 36.03125 48 33.890625 48 
Q 26.265625 48 22.1875 43.046875 
Q 18.109375 38.09375 18.109375 28.8125 
L 18.109375 0 
L 9.078125 0 
L 9.078125 54.6875 
L 18.109375 54.6875 
L 18.109375 46.1875 
Q 20.953125 51.171875 25.484375 53.578125 
Q 30.03125 56 36.53125 56 
Q 37.453125 56 38.578125 55.875 
Q 39.703125 55.765625 41.0625 55.515625 
z
" id="DejaVuSans-114"/>
      <path d="M 34.28125 27.484375 
Q 23.390625 27.484375 19.1875 25 
Q 14.984375 22.515625 14.984375 16.5 
Q 14.984375 11.71875 18.140625 8.90625 
Q 21.296875 6.109375 26.703125 6.109375 
Q 34.1875 6.109375 38.703125 11.40625 
Q 43.21875 16.703125 43.21875 25.484375 
L 43.21875 27.484375 
z
M 52.203125 31.203125 
L 52.203125 0 
L 43.21875 0 
L 43.21875 8.296875 
Q 40.140625 3.328125 35.546875 0.953125 
Q 30.953125 -1.421875 24.3125 -1.421875 
Q 15.921875 -1.421875 10.953125 3.296875 
Q 6 8.015625 6 15.921875 
Q 6 25.140625 12.171875 29.828125 
Q 18.359375 34.515625 30.609375 34.515625 
L 43.21875 34.515625 
L 43.21875 35.40625 
Q 43.21875 41.609375 39.140625 45 
Q 35.0625 48.390625 27.6875 48.390625 
Q 23 48.390625 18.546875 47.265625 
Q 14.109375 46.140625 10.015625 43.890625 
L 10.015625 52.203125 
Q 14.9375 54.109375 19.578125 55.046875 
Q 24.21875 56 28.609375 56 
Q 40.484375 56 46.34375 49.84375 
Q 52.203125 43.703125 52.203125 31.203125 
z
" id="DejaVuSans-97"/>
      <path d="M 48.78125 52.59375 
L 48.78125 44.1875 
Q 44.96875 46.296875 41.140625 47.34375 
Q 37.3125 48.390625 33.40625 48.390625 
Q 24.65625 48.390625 19.8125 42.84375 
Q 14.984375 37.3125 14.984375 27.296875 
Q 14.984375 17.28125 19.8125 11.734375 
Q 24.65625 6.203125 33.40625 6.203125 
Q 37.3125 6.203125 41.140625 7.25 
Q 44.96875 8.296875 48.78125 10.40625 
L 48.78125 2.09375 
Q 45.015625 0.34375 40.984375 -0.53125 
Q 36.96875 -1.421875 32.421875 -1.421875 
Q 20.0625 -1.421875 12.78125 6.34375 
Q 5.515625 14.109375 5.515625 27.296875 
Q 5.515625 40.671875 12.859375 48.328125 
Q 20.21875 56 33.015625 56 
Q 37.15625 56 41.109375 55.140625 
Q 45.0625 54.296875 48.78125 52.59375 
z
M 36.078125 0 
Q 38.765625 -3.03125 40.078125 -5.59375 
Q 41.40625 -8.15625 41.40625 -10.5 
Q 41.40625 -14.84375 38.46875 -17.0625 
Q 35.546875 -19.28125 29.78125 -19.28125 
Q 27.546875 -19.28125 25.421875 -18.984375 
Q 23.296875 -18.703125 21.1875 -18.109375 
L 21.1875 -11.71875 
Q 22.859375 -12.546875 24.65625 -12.90625 
Q 26.46875 -13.28125 28.765625 -13.28125 
Q 31.640625 -13.28125 33.109375 -12.109375 
Q 34.578125 -10.9375 34.578125 -8.6875 
Q 34.578125 -7.234375 33.515625 -5.109375 
Q 32.46875 -2.984375 30.28125 0 
z
" id="DejaVuSans-231"/>
      <path d="M 34.28125 27.484375 
Q 23.390625 27.484375 19.1875 25 
Q 14.984375 22.515625 14.984375 16.5 
Q 14.984375 11.71875 18.140625 8.90625 
Q 21.296875 6.109375 26.703125 6.109375 
Q 34.1875 6.109375 38.703125 11.40625 
Q 43.21875 16.703125 43.21875 25.484375 
L 43.21875 27.484375 
z
M 52.203125 31.203125 
L 52.203125 0 
L 43.21875 0 
L 43.21875 8.296875 
Q 40.140625 3.328125 35.546875 0.953125 
Q 30.953125 -1.421875 24.3125 -1.421875 
Q 15.921875 -1.421875 10.953125 3.296875 
Q 6 8.015625 6 15.921875 
Q 6 25.140625 12.171875 29.828125 
Q 18.359375 34.515625 30.609375 34.515625 
L 43.21875 34.515625 
L 43.21875 35.40625 
Q 43.21875 41.609375 39.140625 45 
Q 35.0625 48.390625 27.6875 48.390625 
Q 23 48.390625 18.546875 47.265625 
Q 14.109375 46.140625 10.015625 43.890625 
L 10.015625 52.203125 
Q 14.9375 54.109375 19.578125 55.046875 
Q 24.21875 56 28.609375 56 
Q 40.484375 56 46.34375 49.84375 
Q 52.203125 43.703125 52.203125 31.203125 
z
M 28.8125 66.890625 
L 26.03125 69.578125 
Q 24.953125 70.5625 24.140625 71.015625 
Q 23.34375 71.484375 22.703125 71.484375 
Q 20.84375 71.484375 19.96875 69.703125 
Q 19.09375 67.921875 19 63.921875 
L 12.890625 63.921875 
Q 12.984375 70.515625 15.46875 74.09375 
Q 17.96875 77.6875 22.40625 77.6875 
Q 24.265625 77.6875 25.828125 77 
Q 27.390625 76.3125 29.203125 74.703125 
L 31.984375 72.015625 
Q 33.0625 71.046875 33.859375 70.578125 
Q 34.671875 70.125 35.296875 70.125 
Q 37.15625 70.125 38.03125 71.90625 
Q 38.921875 73.6875 39.015625 77.6875 
L 45.125 77.6875 
Q 45.015625 71.09375 42.53125 67.5 
Q 40.046875 63.921875 35.59375 63.921875 
Q 33.734375 63.921875 32.171875 64.59375 
Q 30.609375 65.28125 28.8125 66.890625 
z
" id="DejaVuSans-227"/>
      <path d="M 25.390625 72.90625 
L 33.6875 72.90625 
L 8.296875 -9.28125 
L 0 -9.28125 
z
" id="DejaVuSans-47"/>
      <path d="M 13.09375 38.1875 
L 33.796875 38.1875 
L 33.796875 32.625 
L 4.59375 32.625 
L 4.59375 37.984375 
Q 6.25 39.5 9.328125 42.234375 
Q 26.125 57.125 26.125 61.71875 
Q 26.125 64.9375 23.578125 66.90625 
Q 21.046875 68.890625 16.890625 68.890625 
Q 14.359375 68.890625 11.375 68.03125 
Q 8.40625 67.1875 4.890625 65.484375 
L 4.890625 71.484375 
Q 8.640625 72.859375 11.890625 73.53125 
Q 15.140625 74.21875 17.921875 74.21875 
Q 25 74.21875 29.25 71 
Q 33.5 67.78125 33.5 62.5 
Q 33.5 55.71875 17.328125 41.84375 
Q 14.59375 39.5 13.09375 38.1875 
z
" id="DejaVuSans-178"/>
     </defs>
     <g transform="translate(34.6375 187.551094)rotate(-90)scale(0.1 -0.1)">
      <use xlink:href="#DejaVuSans-65"/>
      <use x="66.658203" xlink:href="#DejaVuSans-99"/>
      <use x="121.638672" xlink:href="#DejaVuSans-101"/>
      <use x="183.162109" xlink:href="#DejaVuSans-108"/>
      <use x="210.945312" xlink:href="#DejaVuSans-101"/>
      <use x="272.46875" xlink:href="#DejaVuSans-114"/>
      <use x="313.582031" xlink:href="#DejaVuSans-97"/>
      <use x="374.861328" xlink:href="#DejaVuSans-231"/>
      <use x="429.841797" xlink:href="#DejaVuSans-227"/>
      <use x="491.121094" xlink:href="#DejaVuSans-111"/>
      <use x="552.302734" xlink:href="#DejaVuSans-32"/>
      <use x="584.089844" xlink:href="#DejaVuSans-40"/>
      <use x="623.103516" xlink:href="#DejaVuSans-109"/>
      <use x="720.515625" xlink:href="#DejaVuSans-47"/>
      <use x="754.207031" xlink:href="#DejaVuSans-115"/>
      <use x="806.306641" xlink:href="#DejaVuSans-178"/>
      <use x="846.394531" xlink:href="#DejaVuSans-41"/>
     </g>
    </g>
   </g>
   <g id="line2d_31">
    <path clip-path="url(#p5ac05d5481)" d="M 71.866067 163.970422 
L 72.163696 180.106315 
L 72.312511 237.873652 
L 73.056586 199.963363 
L 73.651845 167.996367 
L 73.80066 165.972642 
L 73.949475 167.181773 
L 74.544734 183.199822 
L 74.693549 182.149251 
L 75.437624 170.601002 
L 75.586439 172.472474 
L 76.330513 195.345898 
L 76.628143 207.288398 
L 77.074587 222.342181 
L 77.372217 227.418697 
L 77.521032 228.142397 
L 77.669847 227.987564 
L 78.562736 206.870349 
L 78.860366 199.257439 
L 79.009181 198.551515 
L 79.157996 199.563664 
L 79.90207 214.897007 
L 80.348515 228.979929 
L 80.646145 240.199015 
L 80.794959 181.773064 
L 81.241404 168.138584 
L 81.539034 162.393705 
L 81.836664 160.237512 
L 82.729553 166.250194 
L 82.878368 166.681433 
L 83.027183 166.646452 
L 83.324812 164.183747 
L 83.473627 164.019452 
L 83.920072 169.218687 
L 84.217702 177.772638 
L 84.366517 184.200215 
L 84.515332 234.185473 
L 85.705851 162.833259 
L 85.854665 160.783729 
L 86.00348 160.318943 
L 86.30111 168.77942 
L 87.045185 199.088556 
L 87.193999 198.957521 
L 87.491629 193.507113 
L 87.789259 182.178497 
L 88.086889 169.952137 
L 88.235704 167.889417 
L 88.384518 168.988445 
L 88.533333 172.392477 
L 88.979778 195.95118 
L 89.426223 219.794891 
L 89.723852 228.999714 
L 89.872667 229.596968 
L 90.021482 228.68718 
L 90.170297 226.210139 
L 90.616742 210.032383 
L 91.063186 194.570013 
L 91.212001 191.759793 
L 91.360816 191.223899 
L 91.509631 194.482847 
L 91.956076 216.193877 
L 92.40252 241.441406 
L 92.551335 182.146097 
L 92.70015 180.381001 
L 92.848965 182.307238 
L 92.99778 240.763008 
L 93.593039 221.2443 
L 93.890669 216.456806 
L 94.039484 216.951411 
L 94.188299 218.503756 
L 94.485929 226.448696 
L 94.783558 234.732263 
L 95.081188 237.932718 
L 95.230003 238.312346 
L 95.378818 236.960424 
L 95.676448 226.938714 
L 96.420522 192.938245 
L 96.569337 190.380633 
L 96.718152 189.752412 
L 96.866967 190.534319 
L 97.164596 195.492703 
L 97.313411 196.011107 
L 97.462226 195.297154 
L 97.759856 189.244617 
L 98.80156 152.981292 
L 98.950375 153.62987 
L 99.09919 157.107878 
L 99.545635 180.311612 
L 100.140894 216.703392 
L 100.587339 230.710045 
L 100.736154 229.87452 
L 101.033783 219.928219 
L 101.777858 179.893277 
L 101.926673 178.890303 
L 102.075488 182.133768 
L 102.373117 196.760326 
L 102.968377 232.288481 
L 103.117192 235.630581 
L 103.266007 235.573235 
L 103.563636 226.895705 
L 104.307711 190.616323 
L 104.456526 189.792554 
L 104.754155 201.123463 
L 105.2006 236.536927 
L 105.349415 176.259575 
L 105.79586 141.669593 
L 106.093489 132.104354 
L 106.242304 132.399397 
L 106.391119 136.231801 
L 106.688749 156.949605 
L 106.986379 179.66074 
L 107.135194 239.187439 
L 107.432823 231.386723 
L 107.581638 232.444461 
L 108.028083 241.508787 
L 108.176898 182.375766 
L 108.325713 181.381681 
L 108.474527 184.333257 
L 108.623342 237.711078 
L 109.069787 204.950132 
L 109.516232 166.444596 
L 109.813861 155.880683 
L 109.962676 157.248948 
L 110.260306 170.414629 
L 111.00438 209.22037 
L 111.153195 211.547166 
L 111.30201 211.698271 
L 111.59964 210.086001 
L 112.046085 204.32822 
L 112.194899 202.889706 
L 112.492529 204.460401 
L 113.385419 227.254115 
L 113.534233 228.612631 
L 113.683048 227.62342 
L 113.980678 222.434507 
L 115.171197 190.720692 
L 115.320012 190.405005 
L 115.617642 194.261493 
L 116.361716 208.580393 
L 116.510531 209.922566 
L 116.659346 210.05102 
L 116.808161 209.685155 
L 117.254605 206.808129 
L 117.40342 208.353018 
L 117.70105 216.996428 
L 117.99868 232.992972 
L 118.147495 182.529165 
L 119.040384 113.166843 
L 119.189199 109.109358 
L 119.338014 109.236378 
L 119.486829 116.168309 
L 120.082088 173.855936 
L 120.230903 238.571835 
L 120.528533 218.434081 
L 120.826163 212.911703 
L 121.123792 216.691063 
L 121.570237 225.131756 
L 121.719052 224.538229 
L 122.165497 203.310049 
L 122.760756 175.669776 
L 123.058386 173.052525 
L 123.207201 174.11055 
L 123.356016 174.017364 
L 123.50483 176.182732 
L 124.69535 217.02252 
L 124.844164 219.301432 
L 124.992979 219.277634 
L 125.141794 218.564542 
L 125.290609 216.796005 
L 125.439424 218.077678 
L 125.588239 218.342328 
L 126.034683 207.273775 
L 126.481128 185.503393 
L 127.671647 97.73802 
L 127.820462 94.875903 
L 127.969277 95.258684 
L 128.118092 98.331259 
L 128.415722 116.553958 
L 129.755056 238.874046 
L 129.90387 180.655399 
L 130.49913 154.891186 
L 130.79676 155.530302 
L 130.945575 156.296152 
L 131.243204 159.580332 
L 131.392019 158.59915 
L 131.689649 146.14226 
L 132.582538 93.4566 
L 132.880168 101.385771 
L 133.326613 138.717444 
L 133.773057 184.313472 
L 133.921872 227.516757 
L 134.368317 184.925923 
L 134.665947 174.75024 
L 134.814761 175.493152 
L 134.963576 180.561352 
L 135.410021 222.953484 
L 135.558836 238.25414 
L 135.707651 178.95367 
L 136.005281 163.194823 
L 136.154095 161.035763 
L 136.30291 164.818276 
L 136.451725 174.117145 
L 136.60054 236.286041 
L 137.939874 88.316431 
L 138.088689 82.917346 
L 138.237504 84.57492 
L 138.386319 82.932543 
L 138.683948 104.999688 
L 139.130393 145.59547 
L 139.279208 145.547874 
L 139.428023 136.348212 
L 139.725653 153.14444 
L 139.874467 141.620276 
L 140.320912 83.661405 
L 140.469727 75.338844 
L 140.618542 80.388407 
L 140.767357 77.925415 
L 141.064986 86.540439 
L 141.660246 164.86874 
L 142.106691 227.48407 
L 142.40432 164.386464 
L 142.850765 121.257154 
L 143.29721 103.732925 
L 143.446025 102.834033 
L 143.743654 117.895844 
L 144.041284 133.902711 
L 144.190099 137.091697 
L 144.338914 137.577414 
L 144.636544 127.536493 
L 144.934173 98.552613 
L 145.678248 45.703232 
L 145.827063 44.443636 
L 146.273507 82.092144 
L 146.571137 128.696881 
L 146.719952 157.076912 
L 146.868767 240.277865 
L 147.464026 149.937103 
L 147.910471 117.033941 
L 148.059286 115.083905 
L 148.505731 123.329049 
L 148.952175 171.10679 
L 149.39862 215.139578 
L 149.547435 222.849976 
L 149.69625 239.601187 
L 149.845065 175.355522 
L 149.993879 172.769524 
L 150.142694 180.252547 
L 150.291509 241.841105 
L 151.035584 168.122527 
L 151.630843 100.734899 
L 152.523732 67.28638 
L 153.714251 160.394639 
L 154.458326 232.646605 
L 154.755956 165.889777 
L 155.946475 61.711818 
L 156.09529 65.291041 
L 156.244104 62.559099 
L 156.541734 75.39877 
L 156.690549 95.415524 
L 156.839364 94.650821 
L 156.988179 65.178644 
L 157.136994 79.859394 
L 157.285809 107.77636 
L 157.434623 110.583712 
L 157.881068 168.955758 
L 158.029883 179.900732 
L 158.178698 232.042182 
L 158.625143 194.334896 
L 158.922772 182.328456 
L 159.071587 186.58665 
L 159.369217 182.747078 
L 159.518032 182.747939 
L 160.113291 233.317261 
L 160.262106 181.197028 
L 160.410921 169.095108 
L 160.559736 168.675912 
L 160.708551 155.08444 
L 160.857366 151.762985 
L 161.006181 153.759471 
L 161.30381 177.8145 
L 161.452625 238.23837 
L 162.494329 153.779255 
L 163.238404 118.146444 
L 163.536034 102.101157 
L 163.684848 103.321757 
L 163.982478 108.35555 
L 164.280108 117.710618 
L 164.428923 117.601375 
L 164.577738 122.013542 
L 164.726553 130.762754 
L 164.875368 132.510647 
L 165.024182 142.446912 
L 165.172997 141.877758 
L 165.321812 146.96775 
L 166.065887 209.991954 
L 166.363516 233.48385 
L 166.512331 183.36469 
L 167.405221 123.051497 
L 167.554035 121.215292 
L 167.70285 121.055871 
L 167.851665 122.370805 
L 168.00048 127.33607 
L 168.744554 179.794355 
L 168.893369 234.282673 
L 169.042184 228.632129 
L 169.190999 237.911214 
L 169.339814 236.028559 
L 169.488629 178.004887 
L 169.935074 165.270445 
L 170.083888 166.335352 
L 170.232703 168.990739 
L 170.381518 175.68698 
L 170.530333 241.922249 
L 171.125593 212.625549 
L 171.274407 208.694224 
L 171.720852 220.035456 
L 172.167297 240.216505 
L 172.316112 181.945674 
L 172.613741 175.563687 
L 172.762556 175.89285 
L 173.060186 184.354474 
L 173.209001 235.570368 
L 173.655446 208.091236 
L 174.548335 142.106566 
L 174.845965 133.05801 
L 174.994779 133.551182 
L 175.143594 136.469785 
L 175.441224 149.304008 
L 176.185299 200.057123 
L 176.631743 220.302973 
L 176.780558 219.500422 
L 176.929373 221.726003 
L 177.822262 207.360653 
L 177.971077 206.590789 
L 178.417522 198.134326 
L 178.863966 204.714729 
L 179.161596 203.15407 
L 179.310411 202.393954 
L 179.459226 202.478826 
L 179.905671 209.277428 
L 180.352115 229.895738 
L 180.50093 237.614164 
L 180.649745 184.023877 
L 180.947375 176.072915 
L 181.393819 168.382302 
L 181.840264 158.618074 
L 182.137894 159.891145 
L 182.584338 172.120946 
L 182.881968 183.948468 
L 183.030783 236.694054 
L 183.477228 215.617554 
L 183.923672 196.128378 
L 184.072487 193.657358 
L 184.221302 193.537506 
L 184.370117 190.976166 
L 185.114191 165.669571 
L 185.411821 161.541264 
L 185.560636 161.55732 
L 185.858266 171.73501 
L 186.155896 191.775277 
L 186.751155 237.701329 
L 186.89997 181.402898 
L 187.1976 177.761455 
L 187.346415 180.272044 
L 187.49523 240.785947 
L 187.644044 236.249053 
L 188.685749 175.563974 
L 189.429823 148.135879 
L 189.727453 149.294832 
L 189.876268 151.764419 
L 190.322712 169.334239 
L 191.364416 212.062416 
L 191.662046 225.703204 
L 191.959676 241.687706 
L 192.108491 176.136856 
L 192.406121 160.41471 
L 192.70375 153.636465 
L 192.852565 152.676213 
L 193.00138 154.517293 
L 193.29901 165.896085 
L 193.59664 184.132547 
L 193.745455 234.731116 
L 194.191899 197.640007 
L 194.787159 143.182369 
L 194.935974 137.866436 
L 195.084788 140.440391 
L 195.531233 170.674404 
L 196.126493 215.881343 
L 196.870567 230.474928 
L 197.168197 239.626993 
L 197.317012 181.959724 
L 197.763456 173.293663 
L 197.912271 178.572608 
L 198.061086 239.80333 
L 198.656346 207.338288 
L 199.10279 183.985456 
L 199.549235 175.043276 
L 200.144494 157.185008 
L 200.293309 158.300093 
L 200.590939 167.658601 
L 201.632643 225.505935 
L 201.781458 229.521271 
L 201.930273 230.148919 
L 202.376718 225.503928 
L 202.674347 214.259324 
L 203.716052 163.776594 
L 203.864866 162.891465 
L 204.013681 164.221882 
L 204.311311 179.054311 
L 205.353015 237.187226 
L 205.50183 237.919242 
L 205.650645 236.981069 
L 205.948275 232.648325 
L 206.09709 232.403459 
L 206.543534 227.54285 
L 206.692349 227.632882 
L 207.287609 241.674803 
L 207.436424 182.192547 
L 207.882868 174.109117 
L 208.031683 174.658487 
L 208.180498 179.050584 
L 208.329313 240.775338 
L 209.371017 191.551342 
L 209.668647 185.422249 
L 209.966277 191.373571 
L 210.412721 215.653108 
L 210.710351 235.055405 
L 210.859166 183.674069 
L 211.156796 173.372226 
L 211.454425 168.825297 
L 211.752055 169.368072 
L 211.90087 169.488498 
L 212.49613 172.532687 
L 212.644944 172.306459 
L 212.942574 172.315921 
L 213.091389 172.522652 
L 213.389019 179.103915 
L 213.537834 184.164947 
L 213.686649 235.869998 
L 215.025983 166.997407 
L 215.174797 164.460153 
L 215.323612 164.581725 
L 215.621242 172.074496 
L 216.216502 193.597719 
L 217.109391 229.440701 
L 217.70465 242.116364 
L 217.853465 183.842379 
L 218.151095 180.844926 
L 218.29991 180.17513 
L 218.89517 164.258583 
L 219.192799 157.244648 
L 219.341614 153.821978 
L 219.490429 152.985019 
L 219.788059 157.542558 
L 220.085689 168.190195 
L 220.383318 183.641669 
L 220.532133 237.808565 
L 220.680948 234.684092 
L 220.829763 234.501447 
L 220.978578 239.13124 
L 221.127393 183.745178 
L 221.276208 181.313153 
L 222.020282 154.708253 
L 222.169097 153.730512 
L 222.466727 160.669324 
L 222.764356 172.76293 
L 222.913171 180.607802 
L 223.061986 238.463451 
L 223.508431 222.875494 
L 223.657246 221.501782 
L 223.806061 221.951944 
L 224.252505 230.3416 
L 224.69895 240.423236 
L 224.847765 241.148944 
L 224.99658 241.192813 
L 225.145395 240.149411 
L 225.443024 234.509188 
L 225.889469 218.031802 
L 226.484728 197.480587 
L 226.782358 191.002259 
L 227.228803 187.277378 
L 227.377618 188.252826 
L 227.824062 184.842772 
L 228.121692 178.803998 
L 228.568137 165.219408 
L 228.865767 156.984012 
L 229.312211 152.889826 
L 229.461026 153.530949 
L 229.609841 155.266226 
L 230.205101 174.440861 
L 230.949175 206.06235 
L 231.990879 224.975776 
L 232.139694 226.149353 
L 232.437324 225.119713 
L 232.734953 221.703638 
L 233.627843 194.721405 
L 233.776658 195.553489 
L 233.925473 198.451734 
L 234.223102 215.565369 
L 234.520732 238.728961 
L 234.669547 179.78346 
L 234.967177 169.091954 
L 235.115992 167.435527 
L 235.264806 169.301552 
L 235.562436 183.465905 
L 235.711251 234.698715 
L 236.157696 213.047326 
L 236.455326 207.608386 
L 236.752955 204.944398 
L 237.050585 206.895581 
L 237.1994 206.730999 
L 237.348215 206.848271 
L 237.49703 206.423627 
L 237.794659 201.463522 
L 238.092289 192.247231 
L 238.687549 166.834832 
L 239.282808 139.670527 
L 239.580438 135.162019 
L 239.729253 135.467097 
L 240.026883 142.470711 
L 240.770957 168.623727 
L 240.919772 170.126181 
L 241.366217 177.419963 
L 241.515032 177.414801 
L 241.961476 171.064641 
L 242.259106 169.987978 
L 242.705551 165.913576 
L 243.00318 166.591687 
L 243.151995 167.567995 
L 243.747255 176.233196 
L 244.044884 180.603501 
L 244.193699 181.718873 
L 244.937774 193.16476 
L 245.235404 200.973505 
L 245.830663 225.028534 
L 246.128293 236.98795 
L 246.277108 184.778258 
L 246.723552 175.133022 
L 246.872367 174.013063 
L 247.021182 173.976935 
L 247.169997 174.805578 
L 247.616442 181.789121 
L 247.765257 241.058051 
L 249.10459 200.006372 
L 249.40222 195.70144 
L 249.551035 195.045407 
L 249.69985 195.540299 
L 249.99748 198.464923 
L 250.741554 208.577813 
L 250.890369 209.357139 
L 251.187999 208.477458 
L 251.634443 205.544232 
L 251.932073 204.085361 
L 252.080888 203.183602 
L 252.229703 203.394634 
L 252.378518 203.355066 
L 252.676148 204.711001 
L 252.824962 204.89336 
L 253.122592 208.014679 
L 253.420222 212.049513 
L 253.569037 213.258644 
L 253.717852 213.469389 
L 254.015482 212.509138 
L 254.313111 208.217683 
L 255.206001 194.403137 
L 255.354815 194.04358 
L 255.652445 199.616709 
L 256.09889 216.926466 
L 256.545335 239.561332 
L 256.694149 180.536981 
L 257.140594 164.553913 
L 257.587039 158.184255 
L 257.735854 158.132357 
L 258.182298 157.404355 
L 258.479928 154.827532 
L 259.075188 147.283724 
L 259.372817 144.888113 
L 259.521632 144.779443 
L 259.819262 149.870582 
L 260.265707 166.237005 
L 260.563336 181.19244 
L 260.712151 237.394817 
L 261.307411 213.378783 
L 261.605041 206.958087 
L 261.753855 206.123996 
L 261.90267 205.990668 
L 262.349115 208.201626 
L 263.093189 214.206853 
L 263.390819 220.85177 
L 263.986079 239.996872 
L 264.134893 181.102408 
L 264.581338 170.993819 
L 264.730153 169.831425 
L 264.878968 169.975362 
L 265.176598 173.682752 
L 265.474227 178.093773 
L 265.623042 181.978935 
L 265.771857 239.912287 
L 266.664746 221.735751 
L 266.813561 220.599449 
L 267.111191 217.616046 
L 267.260006 218.019759 
L 267.408821 217.511677 
L 267.557636 218.006283 
L 267.706451 217.856611 
L 267.855266 216.845896 
L 268.152895 209.211481 
L 269.045785 184.068607 
L 269.194599 183.900298 
L 269.343414 185.721019 
L 269.641044 194.24515 
L 270.087489 214.236959 
L 270.533933 238.028485 
L 270.682748 183.954776 
L 270.980378 176.579563 
L 271.278008 178.276992 
L 271.426823 182.22294 
L 271.575638 240.537354 
L 272.319712 215.723069 
L 272.468527 212.481898 
L 272.617342 212.257104 
L 273.063786 218.017752 
L 273.510231 227.158061 
L 273.807861 228.727322 
L 273.956676 229.022365 
L 274.40312 225.493606 
L 274.551935 224.018391 
L 275.147195 211.805221 
L 275.29601 212.016826 
L 275.444824 212.606625 
L 275.593639 214.160116 
L 276.040084 227.180426 
L 276.486529 239.084791 
L 276.635344 240.266969 
L 276.784158 239.593732 
L 277.081788 235.377687 
L 278.123492 206.031096 
L 278.272307 205.320585 
L 278.421122 205.51556 
L 278.718752 208.373662 
L 279.462826 219.707726 
L 279.611641 220.502248 
L 279.760456 219.935388 
L 279.909271 218.72511 
L 280.206901 212.844609 
L 280.653345 198.269948 
L 281.39742 176.191334 
L 281.69505 172.801064 
L 281.843864 172.585158 
L 281.992679 173.934786 
L 282.290309 179.974707 
L 283.034383 196.547861 
L 283.183198 197.556283 
L 283.480828 194.726279 
L 283.778458 188.419415 
L 284.373717 171.375167 
L 284.671347 167.832072 
L 284.820162 168.391764 
L 285.117792 173.92045 
L 285.564236 185.69292 
L 286.010681 195.48066 
L 286.159496 195.818999 
L 286.308311 195.849392 
L 286.457126 195.728966 
L 286.605941 194.594098 
L 286.754755 194.634813 
L 286.90357 194.480554 
L 287.052385 193.893048 
L 287.2012 194.372457 
L 287.49883 196.364642 
L 287.79646 200.095257 
L 288.838164 217.344228 
L 289.135794 219.031048 
L 289.433423 218.770986 
L 289.731053 215.828872 
L 290.921572 202.742902 
L 291.368017 200.848778 
L 291.516832 200.656957 
L 291.665647 200.121636 
L 292.112091 196.759179 
L 293.153795 185.029432 
L 293.451425 184.501566 
L 294.046685 186.000292 
L 294.1955 186.50608 
L 294.344314 186.61389 
L 294.641944 186.621058 
L 295.088389 185.269996 
L 295.386019 184.461711 
L 295.683648 184.6607 
L 295.981278 186.042154 
L 296.427723 191.690979 
L 297.618242 213.373048 
L 298.064686 217.906788 
L 298.213501 218.231078 
L 298.511131 216.25667 
L 299.106391 208.37653 
L 299.552835 202.831501 
L 299.850465 201.916552 
L 299.99928 202.446999 
L 300.29691 205.037584 
L 300.743354 211.685369 
L 301.785059 229.091753 
L 302.380318 239.584844 
L 302.529133 184.333257 
L 302.975578 177.701243 
L 303.124392 177.576803 
L 303.273207 178.065387 
L 303.570837 181.851054 
L 303.719652 241.664767 
L 305.207801 197.974045 
L 305.505431 195.374571 
L 305.654245 195.572413 
L 306.10069 198.717244 
L 306.547135 203.035077 
L 307.440024 210.354091 
L 308.035284 217.140365 
L 308.332913 219.724643 
L 308.481728 221.534182 
L 308.779358 222.646972 
L 309.225803 226.344614 
L 309.672247 227.491812 
L 309.969877 226.66833 
L 310.416322 223.421424 
L 310.713951 220.710126 
L 310.862766 220.076458 
L 311.160396 219.968648 
L 311.309211 220.49594 
L 311.606841 224.373647 
L 312.49973 240.676417 
L 312.648545 242.074501 
L 312.79736 183.306771 
L 313.094989 181.17409 
L 313.392619 179.778585 
L 314.434323 173.144564 
L 314.583138 172.788448 
L 314.731953 173.223988 
L 315.029583 176.926791 
L 315.327213 182.889009 
L 315.476028 240.202169 
L 316.071287 224.177525 
L 316.517732 218.85127 
L 316.666547 218.506336 
L 316.815362 218.875928 
L 317.112991 221.004596 
L 317.857066 228.937494 
L 318.154695 229.863911 
L 318.30351 230.044263 
L 319.1964 227.475469 
L 319.345215 227.439054 
L 319.494029 227.878895 
L 319.642844 227.37024 
L 319.791659 227.314901 
L 320.089289 226.441528 
L 320.238104 225.697756 
L 320.684548 220.696937 
L 321.577438 212.138685 
L 321.726253 211.717195 
L 322.023882 212.41165 
L 322.321512 214.50849 
L 322.619142 217.587947 
L 323.363216 227.441635 
L 324.40492 242.102601 
L 324.553735 183.312506 
L 325.00018 180.710451 
L 325.148995 180.740844 
L 325.446625 181.609916 
L 325.59544 182.373185 
L 325.744254 183.930691 
L 325.893069 241.050023 
L 326.785959 225.275119 
L 327.530033 212.926326 
L 327.976478 208.340115 
L 328.274107 207.028049 
L 328.422922 207.113207 
L 328.571737 206.835655 
L 329.018182 206.842536 
L 329.315812 206.208007 
L 329.464626 207.06647 
L 330.208701 204.725911 
L 330.357516 204.601471 
L 330.506331 204.247649 
L 331.250405 200.046227 
L 331.845665 190.597686 
L 332.292109 183.808545 
L 332.738554 182.437412 
L 332.887369 183.038107 
L 333.631443 189.173509 
L 333.780258 190.648723 
L 333.929073 190.982474 
L 334.226703 192.232321 
L 334.970777 194.492023 
L 335.119592 195.2292 
L 335.714851 202.02895 
L 336.607741 213.416918 
L 336.756556 213.668091 
L 336.905371 213.502076 
L 337.203 211.060302 
L 337.649445 204.208941 
L 338.09589 198.032251 
L 338.393519 196.774089 
L 338.542334 196.913726 
L 338.839964 199.707028 
L 339.881668 210.59867 
L 340.030483 210.53559 
L 340.328113 209.028549 
L 341.221002 201.877844 
L 341.369817 201.67226 
L 341.667447 201.82738 
L 342.113891 201.707814 
L 342.411521 199.91892 
L 342.857966 195.160098 
L 343.60204 184.242651 
L 343.89967 182.736183 
L 344.048485 183.028072 
L 344.346115 185.32046 
L 345.090189 193.948673 
L 345.387819 195.65241 
L 345.536634 196.12035 
L 345.685449 196.05985 
L 345.983078 194.094618 
L 346.429523 189.238596 
L 347.173597 180.075922 
L 347.322412 179.256454 
L 347.471227 179.172443 
L 347.768857 181.027572 
L 348.066487 185.082763 
L 348.810561 200.513593 
L 349.405821 210.908336 
L 350.00108 217.126602 
L 350.59634 220.165057 
L 350.745155 220.27516 
L 350.893969 220.054953 
L 351.340414 217.866073 
L 353.126193 206.722397 
L 353.423822 206.406136 
L 353.572637 206.278829 
L 353.870267 206.484986 
L 354.019082 206.819598 
L 354.763156 210.268073 
L 354.911971 210.293592 
L 355.358416 210.88081 
L 355.507231 211.33298 
L 355.656046 211.261872 
L 355.953675 212.176533 
L 356.251305 213.570317 
L 356.846565 217.401001 
L 357.293009 219.302866 
L 357.441824 219.410389 
L 357.590639 219.348456 
L 358.037084 218.299892 
L 358.334713 216.482611 
L 358.929973 211.982705 
L 359.078788 211.461147 
L 359.227603 211.540858 
L 359.525233 213.791958 
L 359.822862 218.072517 
L 360.715752 238.287974 
L 360.864566 241.538607 
L 361.013381 183.139035 
L 361.608641 175.996646 
L 362.055086 173.785974 
L 362.352715 174.027112 
L 362.79916 177.005928 
L 363.394419 181.293082 
L 363.692049 184.55375 
L 363.840864 240.738923 
L 364.882568 230.019604 
L 365.031383 228.987958 
L 365.180198 228.783234 
L 365.626643 229.301638 
L 365.775458 229.440128 
L 366.519532 233.768284 
L 366.817162 234.285827 
L 367.114791 233.792942 
L 367.412421 231.412815 
L 368.156496 224.304546 
L 368.60294 223.363505 
L 368.751755 223.770659 
L 369.644644 227.950003 
L 369.942274 227.558046 
L 370.537534 224.847895 
L 370.835164 224.556293 
L 371.132793 225.082152 
L 371.430423 226.997493 
L 372.025683 231.081357 
L 372.174497 231.417116 
L 372.323312 231.383855 
L 372.472127 231.09254 
L 372.769757 229.282427 
L 373.067387 226.99778 
L 373.662646 220.655361 
L 374.109091 217.786363 
L 374.257906 217.245021 
L 374.555536 217.199718 
L 374.70435 217.714107 
L 375.59724 224.171791 
L 376.043684 227.385149 
L 376.341314 228.456938 
L 376.787759 228.473855 
L 377.085389 227.460272 
L 377.531833 224.6512 
L 377.978278 220.492213 
L 378.424722 214.56641 
L 379.317612 200.876304 
L 379.764056 197.103826 
L 379.912871 196.807636 
L 380.061686 197.037019 
L 380.359316 198.913365 
L 381.40102 211.501863 
L 381.69865 212.568203 
L 381.99628 211.839055 
L 382.442724 206.710641 
L 383.037984 199.563951 
L 383.484428 196.492236 
L 383.782058 196.02573 
L 384.228503 196.803335 
L 385.270207 200.811503 
L 385.865467 199.774982 
L 386.163096 198.99967 
L 386.311911 199.003685 
L 386.460726 198.799821 
L 386.609541 199.119236 
L 387.353615 202.868489 
L 387.651245 204.585988 
L 387.948875 205.86078 
L 388.246505 205.711108 
L 388.39532 205.248043 
L 388.841764 201.819638 
L 389.883468 190.398983 
L 390.478728 186.701055 
L 391.222802 184.697688 
L 391.371617 184.794888 
L 391.520432 184.387448 
L 391.669247 184.95861 
L 392.264506 190.474966 
L 393.157396 201.241022 
L 393.60384 203.671326 
L 393.90147 204.196612 
L 394.050285 204.096544 
L 394.1991 203.700859 
L 394.645545 201.73448 
L 395.091989 201.686883 
L 395.389619 202.869636 
L 395.984878 208.003784 
L 397.026583 217.531175 
L 397.175398 218.077965 
L 397.324212 218.145059 
L 397.473027 218.002555 
L 397.621842 217.696904 
L 398.365917 213.933601 
L 398.663546 213.549673 
L 398.961176 213.799699 
L 399.258806 214.596229 
L 399.556436 215.397633 
L 399.854065 215.485659 
L 400.00288 215.323658 
L 400.30051 214.416451 
L 400.59814 213.099223 
L 401.937474 204.942964 
L 402.235104 204.412518 
L 402.532733 204.602905 
L 403.872067 210.836081 
L 404.020882 211.094996 
L 404.318512 210.824325 
L 404.616142 210.194671 
L 404.913771 209.389826 
L 405.211401 209.092489 
L 405.509031 209.118581 
L 405.657846 209.104532 
L 406.99718 206.321265 
L 407.294809 206.634085 
L 407.592439 208.464842 
L 408.038884 212.520893 
L 408.782958 220.581959 
L 409.229403 223.423145 
L 409.527033 224.020972 
L 409.675848 223.94929 
L 410.122292 222.844528 
L 410.271107 222.753635 
L 410.568737 223.328524 
L 410.866367 224.937641 
L 411.610441 229.589799 
L 411.908071 230.082111 
L 412.056886 229.668363 
L 412.50333 226.409128 
L 413.247405 219.404081 
L 413.39622 218.780735 
L 413.693849 218.735432 
L 413.991479 220.07273 
L 415.033183 226.830905 
L 415.181998 227.237485 
L 415.330813 227.128815 
L 415.628443 226.493713 
L 416.074887 224.564895 
L 417.116592 219.550886 
L 418.307111 216.092375 
L 418.753555 215.962487 
L 419.2 217.513111 
L 419.79526 223.159355 
L 420.688149 231.225295 
L 420.836964 231.57711 
L 420.985779 231.284361 
L 421.581038 227.940828 
L 421.878668 225.925418 
L 422.473927 224.472855 
L 422.622742 224.419524 
L 423.218002 225.282001 
L 423.664446 224.986385 
L 423.813261 224.959432 
L 423.962076 224.696216 
L 424.110891 224.74496 
L 424.557336 224.246914 
L 424.854965 224.15086 
L 425.00378 224.369633 
L 425.30141 225.15154 
L 426.045485 229.070249 
L 426.194299 229.334612 
L 426.491929 228.840006 
L 426.789559 227.032474 
L 427.533633 218.791917 
L 428.128893 213.356992 
L 428.575338 211.763932 
L 429.021782 211.604511 
L 429.319412 212.06643 
L 429.765857 212.94353 
L 430.212301 214.417885 
L 430.509931 214.711207 
L 430.658746 214.978151 
L 430.956376 214.930554 
L 431.105191 214.547485 
L 431.254005 214.49186 
L 431.551635 213.675833 
L 431.70045 213.473116 
L 431.849265 212.912564 
L 431.99808 212.812496 
L 432.29571 212.282623 
L 432.444524 212.264272 
L 432.593339 211.995035 
L 432.742154 212.079906 
L 432.890969 212.293518 
L 433.188599 212.325058 
L 433.486229 212.838014 
L 433.932673 212.885324 
L 434.527933 211.720923 
L 435.272007 209.656196 
L 435.569637 209.237573 
L 436.164896 209.681141 
L 436.462526 209.990521 
L 436.611341 210.041845 
L 436.760156 209.900775 
L 437.057786 210.070804 
L 437.80186 208.988694 
L 438.39712 209.058082 
L 438.843564 209.561862 
L 439.141194 209.42624 
L 439.438824 209.197145 
L 439.885269 208.233739 
L 440.331713 205.958554 
L 441.075788 202.305929 
L 441.224602 202.108087 
L 441.373417 202.130738 
L 441.522232 202.470224 
L 441.968677 204.181989 
L 442.415122 205.145968 
L 442.563936 205.102672 
L 442.861566 204.219837 
L 443.308011 201.928308 
L 443.90327 198.405284 
L 444.2009 197.517288 
L 444.349715 197.382812 
L 444.647345 197.77649 
L 445.837864 203.974684 
L 445.986679 203.781143 
L 446.433123 201.968163 
L 446.879568 199.60954 
L 447.177198 199.133286 
L 447.326013 199.272635 
L 447.772457 201.255931 
L 448.367717 204.785264 
L 448.665347 204.996009 
L 448.814161 204.678601 
L 449.260606 202.722544 
L 449.707051 199.793906 
L 450.00468 199.224752 
L 450.30231 199.866449 
L 450.748755 201.922574 
L 451.492829 207.4223 
L 452.236904 211.463728 
L 453.278608 214.424766 
L 453.873867 215.261438 
L 454.022682 215.10001 
L 454.320312 214.230078 
L 454.766757 211.554907 
L 455.362016 207.338288 
L 455.659646 206.591936 
L 455.808461 206.280263 
L 455.957276 206.247002 
L 456.254905 206.660177 
L 456.70135 208.661537 
L 457.594239 211.316063 
L 457.743054 211.47319 
L 458.040684 211.392333 
L 458.338314 210.961381 
L 458.784758 209.301227 
L 459.082388 209.073565 
L 459.380018 208.728345 
L 459.528833 208.963175 
L 459.677648 208.921599 
L 460.272907 209.811029 
L 460.421722 209.78551 
L 460.570537 210.094029 
L 461.016982 209.247322 
L 461.463426 208.397461 
L 461.761056 208.068297 
L 462.207501 208.932208 
L 462.653945 211.912744 
L 463.546835 220.16563 
L 464.439724 225.69919 
L 465.779058 230.689401 
L 465.927873 230.724955 
L 466.076688 230.494999 
L 466.374317 228.890757 
L 466.820762 224.834992 
L 467.267207 220.952124 
L 467.564836 219.646939 
L 467.713651 219.689375 
L 468.160096 222.02678 
L 468.755356 225.426512 
L 468.90417 225.757969 
L 469.052985 225.698903 
L 469.350615 224.520452 
L 470.689949 216.417811 
L 470.987579 215.826005 
L 471.136394 215.812242 
L 472.029283 217.946644 
L 472.326913 218.016318 
L 473.219802 217.185095 
L 473.368617 217.221796 
L 473.666247 217.80586 
L 474.112691 219.183014 
L 474.559136 220.317022 
L 475.154395 220.782095 
L 475.749655 220.768332 
L 476.047285 221.09004 
L 476.344914 221.077711 
L 476.642544 221.079145 
L 476.940174 221.309961 
L 477.684248 223.202938 
L 478.428323 225.725569 
L 478.874767 226.573136 
L 479.172397 226.899432 
L 479.470027 226.60439 
L 479.618842 226.385616 
L 481.255806 221.406588 
L 481.70225 219.550886 
L 481.851065 219.220862 
L 482.446325 216.729197 
L 483.488029 212.958153 
L 483.636844 212.793858 
L 483.785659 212.876436 
L 483.934473 212.807908 
L 484.232103 213.10123 
L 484.976178 213.960554 
L 485.273807 213.949945 
L 486.464326 215.370394 
L 486.761956 215.303013 
L 487.059586 214.870914 
L 487.654845 213.024961 
L 487.952475 211.894393 
L 488.39892 210.837228 
L 488.69655 211.120228 
L 488.994179 212.363767 
L 489.440624 215.356058 
L 490.035884 218.775 
L 490.184698 219.189609 
L 490.333513 219.262437 
L 490.482328 219.207672 
L 490.779958 218.497734 
L 492.119292 213.366454 
L 492.714551 213.106965 
L 492.863366 213.122448 
L 493.309811 212.650494 
L 494.50033 208.937083 
L 495.690849 205.988947 
L 496.881368 200.595311 
L 497.327813 199.711329 
L 497.476628 199.741435 
L 497.625443 199.886806 
L 498.071887 201.144681 
L 498.518332 202.390513 
L 498.667147 202.530723 
L 498.964776 202.481406 
L 499.262406 201.399869 
L 500.006481 197.82724 
L 500.155296 197.54252 
L 500.30411 197.520728 
L 500.452925 197.754985 
L 500.89937 199.740002 
L 502.238704 207.909163 
L 502.536334 208.595876 
L 502.685149 208.558602 
L 503.280408 209.118581 
L 503.429223 209.264526 
L 503.726853 210.438963 
L 504.619742 213.586374 
L 504.768557 213.849303 
L 504.917372 213.539064 
L 505.512631 210.818304 
L 506.256706 206.130878 
L 506.554335 205.352985 
L 507.00078 204.688923 
L 507.149595 204.71903 
L 507.29841 204.573085 
L 507.447225 204.693224 
L 507.893669 204.192884 
L 508.786559 202.768994 
L 509.084188 202.791646 
L 509.381818 202.511226 
L 509.530633 202.790499 
L 509.679448 202.738314 
L 510.423522 203.607673 
L 511.465227 202.36098 
L 511.614041 202.439544 
L 511.911671 202.965976 
L 512.209301 204.088229 
L 513.846265 215.372115 
L 514.590339 218.657729 
L 514.739154 219.038503 
L 514.887969 218.961373 
L 515.036784 219.026174 
L 515.185599 218.776721 
L 515.632043 216.89808 
L 516.376118 212.091088 
L 516.673747 210.936722 
L 516.822562 210.639386 
L 516.971377 210.62935 
L 517.417822 212.507704 
L 518.459526 220.913416 
L 518.459526 220.913416 
" style="fill:none;stroke:#000000;stroke-linecap:square;stroke-width:1.5;"/>
   </g>
   <g id="patch_3">
    <path d="M 72 252 
L 72 34.56 
" style="fill:none;stroke:#000000;stroke-linecap:square;stroke-linejoin:miter;stroke-width:0.8;"/>
   </g>
   <g id="patch_4">
    <path d="M 518.4 252 
L 518.4 34.56 
" style="fill:none;stroke:#000000;stroke-linecap:square;stroke-linejoin:miter;stroke-width:0.8;"/>
   </g>
   <g id="patch_5">
    <path d="M 72 252 
L 518.4 252 
" style="fill:none;stroke:#000000;stroke-linecap:square;stroke-linejoin:miter;stroke-width:0.8;"/>
   </g>
   <g id="patch_6">
    <path d="M 72 34.56 
L 518.4 34.56 
" style="fill:none;stroke:#000000;stroke-linecap:square;stroke-linejoin:miter;stroke-width:0.8;"/>
   </g>
  </g>
 </g>
 <defs>
  <clipPath id="p5ac05d5481">
   <rect height="217.44" width="446.4" x="72" y="34.56"/>
  </clipPath>
 </defs>
</svg>
