<?xml version="1.0" encoding="utf-8" standalone="no"?>
<!DOCTYPE svg PUBLIC "-//W3C//DTD SVG 1.1//EN"
  "http://www.w3.org/Graphics/SVG/1.1/DTD/svg11.dtd">
<!-- Created with matplotlib (https://matplotlib.org/) -->
<svg height="288pt" version="1.1" viewBox="0 0 576 288" width="576pt" xmlns="http://www.w3.org/2000/svg" xmlns:xlink="http://www.w3.org/1999/xlink">
 <defs>
  <style type="text/css">
*{stroke-linecap:butt;stroke-linejoin:round;}
  </style>
 </defs>
 <g id="figure_1">
  <g id="patch_1">
   <path d="M 0 288 
L 576 288 
L 576 0 
L 0 0 
z
" style="fill:#ffffff;"/>
  </g>
  <g id="axes_1">
   <g id="patch_2">
    <path d="M 72 252 
L 518.4 252 
L 518.4 34.56 
L 72 34.56 
z
" style="fill:#ffffff;"/>
   </g>
   <g id="matplotlib.axis_1">
    <g id="xtick_1">
     <g id="line2d_1">
      <path clip-path="url(#p1ee1f8d0c2)" d="M 125.837186 252 
L 125.837186 34.56 
" style="fill:none;stroke:#b0b0b0;stroke-linecap:square;stroke-width:0.8;"/>
     </g>
     <g id="line2d_2">
      <defs>
       <path d="M 0 0 
L 0 3.5 
" id="mf35b917025" style="stroke:#000000;stroke-width:0.8;"/>
      </defs>
      <g>
       <use style="stroke:#000000;stroke-width:0.8;" x="125.837186" xlink:href="#mf35b917025" y="252"/>
      </g>
     </g>
     <g id="text_1">
      <!-- 2.5 -->
      <defs>
       <path d="M 19.1875 8.296875 
L 53.609375 8.296875 
L 53.609375 0 
L 7.328125 0 
L 7.328125 8.296875 
Q 12.9375 14.109375 22.625 23.890625 
Q 32.328125 33.6875 34.8125 36.53125 
Q 39.546875 41.84375 41.421875 45.53125 
Q 43.3125 49.21875 43.3125 52.78125 
Q 43.3125 58.59375 39.234375 62.25 
Q 35.15625 65.921875 28.609375 65.921875 
Q 23.96875 65.921875 18.8125 64.3125 
Q 13.671875 62.703125 7.8125 59.421875 
L 7.8125 69.390625 
Q 13.765625 71.78125 18.9375 73 
Q 24.125 74.21875 28.421875 74.21875 
Q 39.75 74.21875 46.484375 68.546875 
Q 53.21875 62.890625 53.21875 53.421875 
Q 53.21875 48.921875 51.53125 44.890625 
Q 49.859375 40.875 45.40625 35.40625 
Q 44.1875 33.984375 37.640625 27.21875 
Q 31.109375 20.453125 19.1875 8.296875 
z
" id="DejaVuSans-50"/>
       <path d="M 10.6875 12.40625 
L 21 12.40625 
L 21 0 
L 10.6875 0 
z
" id="DejaVuSans-46"/>
       <path d="M 10.796875 72.90625 
L 49.515625 72.90625 
L 49.515625 64.59375 
L 19.828125 64.59375 
L 19.828125 46.734375 
Q 21.96875 47.46875 24.109375 47.828125 
Q 26.265625 48.1875 28.421875 48.1875 
Q 40.625 48.1875 47.75 41.5 
Q 54.890625 34.8125 54.890625 23.390625 
Q 54.890625 11.625 47.5625 5.09375 
Q 40.234375 -1.421875 26.90625 -1.421875 
Q 22.3125 -1.421875 17.546875 -0.640625 
Q 12.796875 0.140625 7.71875 1.703125 
L 7.71875 11.625 
Q 12.109375 9.234375 16.796875 8.0625 
Q 21.484375 6.890625 26.703125 6.890625 
Q 35.15625 6.890625 40.078125 11.328125 
Q 45.015625 15.765625 45.015625 23.390625 
Q 45.015625 31 40.078125 35.4375 
Q 35.15625 39.890625 26.703125 39.890625 
Q 22.75 39.890625 18.8125 39.015625 
Q 14.890625 38.140625 10.796875 36.28125 
z
" id="DejaVuSans-53"/>
      </defs>
      <g transform="translate(117.885623 266.598437)scale(0.1 -0.1)">
       <use xlink:href="#DejaVuSans-50"/>
       <use x="63.623047" xlink:href="#DejaVuSans-46"/>
       <use x="95.410156" xlink:href="#DejaVuSans-53"/>
      </g>
     </g>
    </g>
    <g id="xtick_2">
     <g id="line2d_3">
      <path clip-path="url(#p1ee1f8d0c2)" d="M 181.917588 252 
L 181.917588 34.56 
" style="fill:none;stroke:#b0b0b0;stroke-linecap:square;stroke-width:0.8;"/>
     </g>
     <g id="line2d_4">
      <g>
       <use style="stroke:#000000;stroke-width:0.8;" x="181.917588" xlink:href="#mf35b917025" y="252"/>
      </g>
     </g>
     <g id="text_2">
      <!-- 5.0 -->
      <defs>
       <path d="M 31.78125 66.40625 
Q 24.171875 66.40625 20.328125 58.90625 
Q 16.5 51.421875 16.5 36.375 
Q 16.5 21.390625 20.328125 13.890625 
Q 24.171875 6.390625 31.78125 6.390625 
Q 39.453125 6.390625 43.28125 13.890625 
Q 47.125 21.390625 47.125 36.375 
Q 47.125 51.421875 43.28125 58.90625 
Q 39.453125 66.40625 31.78125 66.40625 
z
M 31.78125 74.21875 
Q 44.046875 74.21875 50.515625 64.515625 
Q 56.984375 54.828125 56.984375 36.375 
Q 56.984375 17.96875 50.515625 8.265625 
Q 44.046875 -1.421875 31.78125 -1.421875 
Q 19.53125 -1.421875 13.0625 8.265625 
Q 6.59375 17.96875 6.59375 36.375 
Q 6.59375 54.828125 13.0625 64.515625 
Q 19.53125 74.21875 31.78125 74.21875 
z
" id="DejaVuSans-48"/>
      </defs>
      <g transform="translate(173.966025 266.598437)scale(0.1 -0.1)">
       <use xlink:href="#DejaVuSans-53"/>
       <use x="63.623047" xlink:href="#DejaVuSans-46"/>
       <use x="95.410156" xlink:href="#DejaVuSans-48"/>
      </g>
     </g>
    </g>
    <g id="xtick_3">
     <g id="line2d_5">
      <path clip-path="url(#p1ee1f8d0c2)" d="M 237.99799 252 
L 237.99799 34.56 
" style="fill:none;stroke:#b0b0b0;stroke-linecap:square;stroke-width:0.8;"/>
     </g>
     <g id="line2d_6">
      <g>
       <use style="stroke:#000000;stroke-width:0.8;" x="237.99799" xlink:href="#mf35b917025" y="252"/>
      </g>
     </g>
     <g id="text_3">
      <!-- 7.5 -->
      <defs>
       <path d="M 8.203125 72.90625 
L 55.078125 72.90625 
L 55.078125 68.703125 
L 28.609375 0 
L 18.3125 0 
L 43.21875 64.59375 
L 8.203125 64.59375 
z
" id="DejaVuSans-55"/>
      </defs>
      <g transform="translate(230.046427 266.598437)scale(0.1 -0.1)">
       <use xlink:href="#DejaVuSans-55"/>
       <use x="63.623047" xlink:href="#DejaVuSans-46"/>
       <use x="95.410156" xlink:href="#DejaVuSans-53"/>
      </g>
     </g>
    </g>
    <g id="xtick_4">
     <g id="line2d_7">
      <path clip-path="url(#p1ee1f8d0c2)" d="M 294.078392 252 
L 294.078392 34.56 
" style="fill:none;stroke:#b0b0b0;stroke-linecap:square;stroke-width:0.8;"/>
     </g>
     <g id="line2d_8">
      <g>
       <use style="stroke:#000000;stroke-width:0.8;" x="294.078392" xlink:href="#mf35b917025" y="252"/>
      </g>
     </g>
     <g id="text_4">
      <!-- 10.0 -->
      <defs>
       <path d="M 12.40625 8.296875 
L 28.515625 8.296875 
L 28.515625 63.921875 
L 10.984375 60.40625 
L 10.984375 69.390625 
L 28.421875 72.90625 
L 38.28125 72.90625 
L 38.28125 8.296875 
L 54.390625 8.296875 
L 54.390625 0 
L 12.40625 0 
z
" id="DejaVuSans-49"/>
      </defs>
      <g transform="translate(282.945579 266.598437)scale(0.1 -0.1)">
       <use xlink:href="#DejaVuSans-49"/>
       <use x="63.623047" xlink:href="#DejaVuSans-48"/>
       <use x="127.246094" xlink:href="#DejaVuSans-46"/>
       <use x="159.033203" xlink:href="#DejaVuSans-48"/>
      </g>
     </g>
    </g>
    <g id="xtick_5">
     <g id="line2d_9">
      <path clip-path="url(#p1ee1f8d0c2)" d="M 350.158794 252 
L 350.158794 34.56 
" style="fill:none;stroke:#b0b0b0;stroke-linecap:square;stroke-width:0.8;"/>
     </g>
     <g id="line2d_10">
      <g>
       <use style="stroke:#000000;stroke-width:0.8;" x="350.158794" xlink:href="#mf35b917025" y="252"/>
      </g>
     </g>
     <g id="text_5">
      <!-- 12.5 -->
      <g transform="translate(339.025981 266.598437)scale(0.1 -0.1)">
       <use xlink:href="#DejaVuSans-49"/>
       <use x="63.623047" xlink:href="#DejaVuSans-50"/>
       <use x="127.246094" xlink:href="#DejaVuSans-46"/>
       <use x="159.033203" xlink:href="#DejaVuSans-53"/>
      </g>
     </g>
    </g>
    <g id="xtick_6">
     <g id="line2d_11">
      <path clip-path="url(#p1ee1f8d0c2)" d="M 406.239196 252 
L 406.239196 34.56 
" style="fill:none;stroke:#b0b0b0;stroke-linecap:square;stroke-width:0.8;"/>
     </g>
     <g id="line2d_12">
      <g>
       <use style="stroke:#000000;stroke-width:0.8;" x="406.239196" xlink:href="#mf35b917025" y="252"/>
      </g>
     </g>
     <g id="text_6">
      <!-- 15.0 -->
      <g transform="translate(395.106383 266.598437)scale(0.1 -0.1)">
       <use xlink:href="#DejaVuSans-49"/>
       <use x="63.623047" xlink:href="#DejaVuSans-53"/>
       <use x="127.246094" xlink:href="#DejaVuSans-46"/>
       <use x="159.033203" xlink:href="#DejaVuSans-48"/>
      </g>
     </g>
    </g>
    <g id="xtick_7">
     <g id="line2d_13">
      <path clip-path="url(#p1ee1f8d0c2)" d="M 462.319598 252 
L 462.319598 34.56 
" style="fill:none;stroke:#b0b0b0;stroke-linecap:square;stroke-width:0.8;"/>
     </g>
     <g id="line2d_14">
      <g>
       <use style="stroke:#000000;stroke-width:0.8;" x="462.319598" xlink:href="#mf35b917025" y="252"/>
      </g>
     </g>
     <g id="text_7">
      <!-- 17.5 -->
      <g transform="translate(451.186785 266.598437)scale(0.1 -0.1)">
       <use xlink:href="#DejaVuSans-49"/>
       <use x="63.623047" xlink:href="#DejaVuSans-55"/>
       <use x="127.246094" xlink:href="#DejaVuSans-46"/>
       <use x="159.033203" xlink:href="#DejaVuSans-53"/>
      </g>
     </g>
    </g>
    <g id="xtick_8">
     <g id="line2d_15">
      <path clip-path="url(#p1ee1f8d0c2)" d="M 518.4 252 
L 518.4 34.56 
" style="fill:none;stroke:#b0b0b0;stroke-linecap:square;stroke-width:0.8;"/>
     </g>
     <g id="line2d_16">
      <g>
       <use style="stroke:#000000;stroke-width:0.8;" x="518.4" xlink:href="#mf35b917025" y="252"/>
      </g>
     </g>
     <g id="text_8">
      <!-- 20.0 -->
      <g transform="translate(507.267187 266.598437)scale(0.1 -0.1)">
       <use xlink:href="#DejaVuSans-50"/>
       <use x="63.623047" xlink:href="#DejaVuSans-48"/>
       <use x="127.246094" xlink:href="#DejaVuSans-46"/>
       <use x="159.033203" xlink:href="#DejaVuSans-48"/>
      </g>
     </g>
    </g>
    <g id="text_9">
     <!-- frequência(Hz) -->
     <defs>
      <path d="M 37.109375 75.984375 
L 37.109375 68.5 
L 28.515625 68.5 
Q 23.6875 68.5 21.796875 66.546875 
Q 19.921875 64.59375 19.921875 59.515625 
L 19.921875 54.6875 
L 34.71875 54.6875 
L 34.71875 47.703125 
L 19.921875 47.703125 
L 19.921875 0 
L 10.890625 0 
L 10.890625 47.703125 
L 2.296875 47.703125 
L 2.296875 54.6875 
L 10.890625 54.6875 
L 10.890625 58.5 
Q 10.890625 67.625 15.140625 71.796875 
Q 19.390625 75.984375 28.609375 75.984375 
z
" id="DejaVuSans-102"/>
      <path d="M 41.109375 46.296875 
Q 39.59375 47.171875 37.8125 47.578125 
Q 36.03125 48 33.890625 48 
Q 26.265625 48 22.1875 43.046875 
Q 18.109375 38.09375 18.109375 28.8125 
L 18.109375 0 
L 9.078125 0 
L 9.078125 54.6875 
L 18.109375 54.6875 
L 18.109375 46.1875 
Q 20.953125 51.171875 25.484375 53.578125 
Q 30.03125 56 36.53125 56 
Q 37.453125 56 38.578125 55.875 
Q 39.703125 55.765625 41.0625 55.515625 
z
" id="DejaVuSans-114"/>
      <path d="M 56.203125 29.59375 
L 56.203125 25.203125 
L 14.890625 25.203125 
Q 15.484375 15.921875 20.484375 11.0625 
Q 25.484375 6.203125 34.421875 6.203125 
Q 39.59375 6.203125 44.453125 7.46875 
Q 49.3125 8.734375 54.109375 11.28125 
L 54.109375 2.78125 
Q 49.265625 0.734375 44.1875 -0.34375 
Q 39.109375 -1.421875 33.890625 -1.421875 
Q 20.796875 -1.421875 13.15625 6.1875 
Q 5.515625 13.8125 5.515625 26.8125 
Q 5.515625 40.234375 12.765625 48.109375 
Q 20.015625 56 32.328125 56 
Q 43.359375 56 49.78125 48.890625 
Q 56.203125 41.796875 56.203125 29.59375 
z
M 47.21875 32.234375 
Q 47.125 39.59375 43.09375 43.984375 
Q 39.0625 48.390625 32.421875 48.390625 
Q 24.90625 48.390625 20.390625 44.140625 
Q 15.875 39.890625 15.1875 32.171875 
z
" id="DejaVuSans-101"/>
      <path d="M 14.796875 27.296875 
Q 14.796875 17.390625 18.875 11.75 
Q 22.953125 6.109375 30.078125 6.109375 
Q 37.203125 6.109375 41.296875 11.75 
Q 45.40625 17.390625 45.40625 27.296875 
Q 45.40625 37.203125 41.296875 42.84375 
Q 37.203125 48.484375 30.078125 48.484375 
Q 22.953125 48.484375 18.875 42.84375 
Q 14.796875 37.203125 14.796875 27.296875 
z
M 45.40625 8.203125 
Q 42.578125 3.328125 38.25 0.953125 
Q 33.9375 -1.421875 27.875 -1.421875 
Q 17.96875 -1.421875 11.734375 6.484375 
Q 5.515625 14.40625 5.515625 27.296875 
Q 5.515625 40.1875 11.734375 48.09375 
Q 17.96875 56 27.875 56 
Q 33.9375 56 38.25 53.625 
Q 42.578125 51.265625 45.40625 46.390625 
L 45.40625 54.6875 
L 54.390625 54.6875 
L 54.390625 -20.796875 
L 45.40625 -20.796875 
z
" id="DejaVuSans-113"/>
      <path d="M 8.5 21.578125 
L 8.5 54.6875 
L 17.484375 54.6875 
L 17.484375 21.921875 
Q 17.484375 14.15625 20.5 10.265625 
Q 23.53125 6.390625 29.59375 6.390625 
Q 36.859375 6.390625 41.078125 11.03125 
Q 45.3125 15.671875 45.3125 23.6875 
L 45.3125 54.6875 
L 54.296875 54.6875 
L 54.296875 0 
L 45.3125 0 
L 45.3125 8.40625 
Q 42.046875 3.421875 37.71875 1 
Q 33.40625 -1.421875 27.6875 -1.421875 
Q 18.265625 -1.421875 13.375 4.4375 
Q 8.5 10.296875 8.5 21.578125 
z
M 31.109375 56 
z
" id="DejaVuSans-117"/>
      <path d="M 56.203125 29.59375 
L 56.203125 25.203125 
L 14.890625 25.203125 
Q 15.484375 15.921875 20.484375 11.0625 
Q 25.484375 6.203125 34.421875 6.203125 
Q 39.59375 6.203125 44.453125 7.46875 
Q 49.3125 8.734375 54.109375 11.28125 
L 54.109375 2.78125 
Q 49.265625 0.734375 44.1875 -0.34375 
Q 39.109375 -1.421875 33.890625 -1.421875 
Q 20.796875 -1.421875 13.15625 6.1875 
Q 5.515625 13.8125 5.515625 26.8125 
Q 5.515625 40.234375 12.765625 48.109375 
Q 20.015625 56 32.328125 56 
Q 43.359375 56 49.78125 48.890625 
Q 56.203125 41.796875 56.203125 29.59375 
z
M 47.21875 32.234375 
Q 47.125 39.59375 43.09375 43.984375 
Q 39.0625 48.390625 32.421875 48.390625 
Q 24.90625 48.390625 20.390625 44.140625 
Q 15.875 39.890625 15.1875 32.171875 
z
M 28.171875 79.984375 
L 35.40625 79.984375 
L 47.359375 61.625 
L 40.578125 61.625 
L 31.78125 73.578125 
L 23 61.625 
L 16.21875 61.625 
z
" id="DejaVuSans-234"/>
      <path d="M 54.890625 33.015625 
L 54.890625 0 
L 45.90625 0 
L 45.90625 32.71875 
Q 45.90625 40.484375 42.875 44.328125 
Q 39.84375 48.1875 33.796875 48.1875 
Q 26.515625 48.1875 22.3125 43.546875 
Q 18.109375 38.921875 18.109375 30.90625 
L 18.109375 0 
L 9.078125 0 
L 9.078125 54.6875 
L 18.109375 54.6875 
L 18.109375 46.1875 
Q 21.34375 51.125 25.703125 53.5625 
Q 30.078125 56 35.796875 56 
Q 45.21875 56 50.046875 50.171875 
Q 54.890625 44.34375 54.890625 33.015625 
z
" id="DejaVuSans-110"/>
      <path d="M 48.78125 52.59375 
L 48.78125 44.1875 
Q 44.96875 46.296875 41.140625 47.34375 
Q 37.3125 48.390625 33.40625 48.390625 
Q 24.65625 48.390625 19.8125 42.84375 
Q 14.984375 37.3125 14.984375 27.296875 
Q 14.984375 17.28125 19.8125 11.734375 
Q 24.65625 6.203125 33.40625 6.203125 
Q 37.3125 6.203125 41.140625 7.25 
Q 44.96875 8.296875 48.78125 10.40625 
L 48.78125 2.09375 
Q 45.015625 0.34375 40.984375 -0.53125 
Q 36.96875 -1.421875 32.421875 -1.421875 
Q 20.0625 -1.421875 12.78125 6.34375 
Q 5.515625 14.109375 5.515625 27.296875 
Q 5.515625 40.671875 12.859375 48.328125 
Q 20.21875 56 33.015625 56 
Q 37.15625 56 41.109375 55.140625 
Q 45.0625 54.296875 48.78125 52.59375 
z
" id="DejaVuSans-99"/>
      <path d="M 9.421875 54.6875 
L 18.40625 54.6875 
L 18.40625 0 
L 9.421875 0 
z
M 9.421875 75.984375 
L 18.40625 75.984375 
L 18.40625 64.59375 
L 9.421875 64.59375 
z
" id="DejaVuSans-105"/>
      <path d="M 34.28125 27.484375 
Q 23.390625 27.484375 19.1875 25 
Q 14.984375 22.515625 14.984375 16.5 
Q 14.984375 11.71875 18.140625 8.90625 
Q 21.296875 6.109375 26.703125 6.109375 
Q 34.1875 6.109375 38.703125 11.40625 
Q 43.21875 16.703125 43.21875 25.484375 
L 43.21875 27.484375 
z
M 52.203125 31.203125 
L 52.203125 0 
L 43.21875 0 
L 43.21875 8.296875 
Q 40.140625 3.328125 35.546875 0.953125 
Q 30.953125 -1.421875 24.3125 -1.421875 
Q 15.921875 -1.421875 10.953125 3.296875 
Q 6 8.015625 6 15.921875 
Q 6 25.140625 12.171875 29.828125 
Q 18.359375 34.515625 30.609375 34.515625 
L 43.21875 34.515625 
L 43.21875 35.40625 
Q 43.21875 41.609375 39.140625 45 
Q 35.0625 48.390625 27.6875 48.390625 
Q 23 48.390625 18.546875 47.265625 
Q 14.109375 46.140625 10.015625 43.890625 
L 10.015625 52.203125 
Q 14.9375 54.109375 19.578125 55.046875 
Q 24.21875 56 28.609375 56 
Q 40.484375 56 46.34375 49.84375 
Q 52.203125 43.703125 52.203125 31.203125 
z
" id="DejaVuSans-97"/>
      <path d="M 31 75.875 
Q 24.46875 64.65625 21.28125 53.65625 
Q 18.109375 42.671875 18.109375 31.390625 
Q 18.109375 20.125 21.3125 9.0625 
Q 24.515625 -2 31 -13.1875 
L 23.1875 -13.1875 
Q 15.875 -1.703125 12.234375 9.375 
Q 8.59375 20.453125 8.59375 31.390625 
Q 8.59375 42.28125 12.203125 53.3125 
Q 15.828125 64.359375 23.1875 75.875 
z
" id="DejaVuSans-40"/>
      <path d="M 9.8125 72.90625 
L 19.671875 72.90625 
L 19.671875 43.015625 
L 55.515625 43.015625 
L 55.515625 72.90625 
L 65.375 72.90625 
L 65.375 0 
L 55.515625 0 
L 55.515625 34.71875 
L 19.671875 34.71875 
L 19.671875 0 
L 9.8125 0 
z
" id="DejaVuSans-72"/>
      <path d="M 5.515625 54.6875 
L 48.1875 54.6875 
L 48.1875 46.484375 
L 14.40625 7.171875 
L 48.1875 7.171875 
L 48.1875 0 
L 4.296875 0 
L 4.296875 8.203125 
L 38.09375 47.515625 
L 5.515625 47.515625 
z
" id="DejaVuSans-122"/>
      <path d="M 8.015625 75.875 
L 15.828125 75.875 
Q 23.140625 64.359375 26.78125 53.3125 
Q 30.421875 42.28125 30.421875 31.390625 
Q 30.421875 20.453125 26.78125 9.375 
Q 23.140625 -1.703125 15.828125 -13.1875 
L 8.015625 -13.1875 
Q 14.5 -2 17.703125 9.0625 
Q 20.90625 20.125 20.90625 31.390625 
Q 20.90625 42.671875 17.703125 53.65625 
Q 14.5 64.65625 8.015625 75.875 
z
" id="DejaVuSans-41"/>
     </defs>
     <g transform="translate(258.34375 280.676562)scale(0.1 -0.1)">
      <use xlink:href="#DejaVuSans-102"/>
      <use x="35.205078" xlink:href="#DejaVuSans-114"/>
      <use x="74.068359" xlink:href="#DejaVuSans-101"/>
      <use x="135.591797" xlink:href="#DejaVuSans-113"/>
      <use x="199.068359" xlink:href="#DejaVuSans-117"/>
      <use x="262.447266" xlink:href="#DejaVuSans-234"/>
      <use x="323.970703" xlink:href="#DejaVuSans-110"/>
      <use x="387.349609" xlink:href="#DejaVuSans-99"/>
      <use x="442.330078" xlink:href="#DejaVuSans-105"/>
      <use x="470.113281" xlink:href="#DejaVuSans-97"/>
      <use x="531.392578" xlink:href="#DejaVuSans-40"/>
      <use x="570.40625" xlink:href="#DejaVuSans-72"/>
      <use x="645.601562" xlink:href="#DejaVuSans-122"/>
      <use x="698.091797" xlink:href="#DejaVuSans-41"/>
     </g>
    </g>
   </g>
   <g id="matplotlib.axis_2">
    <g id="ytick_1">
     <g id="line2d_17">
      <path clip-path="url(#p1ee1f8d0c2)" d="M 72 252 
L 518.4 252 
" style="fill:none;stroke:#b0b0b0;stroke-linecap:square;stroke-width:0.8;"/>
     </g>
     <g id="line2d_18">
      <defs>
       <path d="M 0 0 
L -3.5 0 
" id="m4653da59c3" style="stroke:#000000;stroke-width:0.8;"/>
      </defs>
      <g>
       <use style="stroke:#000000;stroke-width:0.8;" x="72" xlink:href="#m4653da59c3" y="252"/>
      </g>
     </g>
     <g id="text_10">
      <!-- 0.00 -->
      <g transform="translate(42.734375 255.799219)scale(0.1 -0.1)">
       <use xlink:href="#DejaVuSans-48"/>
       <use x="63.623047" xlink:href="#DejaVuSans-46"/>
       <use x="95.410156" xlink:href="#DejaVuSans-48"/>
       <use x="159.033203" xlink:href="#DejaVuSans-48"/>
      </g>
     </g>
    </g>
    <g id="ytick_2">
     <g id="line2d_19">
      <path clip-path="url(#p1ee1f8d0c2)" d="M 72 220.937143 
L 518.4 220.937143 
" style="fill:none;stroke:#b0b0b0;stroke-linecap:square;stroke-width:0.8;"/>
     </g>
     <g id="line2d_20">
      <g>
       <use style="stroke:#000000;stroke-width:0.8;" x="72" xlink:href="#m4653da59c3" y="220.937143"/>
      </g>
     </g>
     <g id="text_11">
      <!-- 0.05 -->
      <g transform="translate(42.734375 224.736362)scale(0.1 -0.1)">
       <use xlink:href="#DejaVuSans-48"/>
       <use x="63.623047" xlink:href="#DejaVuSans-46"/>
       <use x="95.410156" xlink:href="#DejaVuSans-48"/>
       <use x="159.033203" xlink:href="#DejaVuSans-53"/>
      </g>
     </g>
    </g>
    <g id="ytick_3">
     <g id="line2d_21">
      <path clip-path="url(#p1ee1f8d0c2)" d="M 72 189.874286 
L 518.4 189.874286 
" style="fill:none;stroke:#b0b0b0;stroke-linecap:square;stroke-width:0.8;"/>
     </g>
     <g id="line2d_22">
      <g>
       <use style="stroke:#000000;stroke-width:0.8;" x="72" xlink:href="#m4653da59c3" y="189.874286"/>
      </g>
     </g>
     <g id="text_12">
      <!-- 0.10 -->
      <g transform="translate(42.734375 193.673504)scale(0.1 -0.1)">
       <use xlink:href="#DejaVuSans-48"/>
       <use x="63.623047" xlink:href="#DejaVuSans-46"/>
       <use x="95.410156" xlink:href="#DejaVuSans-49"/>
       <use x="159.033203" xlink:href="#DejaVuSans-48"/>
      </g>
     </g>
    </g>
    <g id="ytick_4">
     <g id="line2d_23">
      <path clip-path="url(#p1ee1f8d0c2)" d="M 72 158.811429 
L 518.4 158.811429 
" style="fill:none;stroke:#b0b0b0;stroke-linecap:square;stroke-width:0.8;"/>
     </g>
     <g id="line2d_24">
      <g>
       <use style="stroke:#000000;stroke-width:0.8;" x="72" xlink:href="#m4653da59c3" y="158.811429"/>
      </g>
     </g>
     <g id="text_13">
      <!-- 0.15 -->
      <g transform="translate(42.734375 162.610647)scale(0.1 -0.1)">
       <use xlink:href="#DejaVuSans-48"/>
       <use x="63.623047" xlink:href="#DejaVuSans-46"/>
       <use x="95.410156" xlink:href="#DejaVuSans-49"/>
       <use x="159.033203" xlink:href="#DejaVuSans-53"/>
      </g>
     </g>
    </g>
    <g id="ytick_5">
     <g id="line2d_25">
      <path clip-path="url(#p1ee1f8d0c2)" d="M 72 127.748571 
L 518.4 127.748571 
" style="fill:none;stroke:#b0b0b0;stroke-linecap:square;stroke-width:0.8;"/>
     </g>
     <g id="line2d_26">
      <g>
       <use style="stroke:#000000;stroke-width:0.8;" x="72" xlink:href="#m4653da59c3" y="127.748571"/>
      </g>
     </g>
     <g id="text_14">
      <!-- 0.20 -->
      <g transform="translate(42.734375 131.54779)scale(0.1 -0.1)">
       <use xlink:href="#DejaVuSans-48"/>
       <use x="63.623047" xlink:href="#DejaVuSans-46"/>
       <use x="95.410156" xlink:href="#DejaVuSans-50"/>
       <use x="159.033203" xlink:href="#DejaVuSans-48"/>
      </g>
     </g>
    </g>
    <g id="ytick_6">
     <g id="line2d_27">
      <path clip-path="url(#p1ee1f8d0c2)" d="M 72 96.685714 
L 518.4 96.685714 
" style="fill:none;stroke:#b0b0b0;stroke-linecap:square;stroke-width:0.8;"/>
     </g>
     <g id="line2d_28">
      <g>
       <use style="stroke:#000000;stroke-width:0.8;" x="72" xlink:href="#m4653da59c3" y="96.685714"/>
      </g>
     </g>
     <g id="text_15">
      <!-- 0.25 -->
      <g transform="translate(42.734375 100.484933)scale(0.1 -0.1)">
       <use xlink:href="#DejaVuSans-48"/>
       <use x="63.623047" xlink:href="#DejaVuSans-46"/>
       <use x="95.410156" xlink:href="#DejaVuSans-50"/>
       <use x="159.033203" xlink:href="#DejaVuSans-53"/>
      </g>
     </g>
    </g>
    <g id="ytick_7">
     <g id="line2d_29">
      <path clip-path="url(#p1ee1f8d0c2)" d="M 72 65.622857 
L 518.4 65.622857 
" style="fill:none;stroke:#b0b0b0;stroke-linecap:square;stroke-width:0.8;"/>
     </g>
     <g id="line2d_30">
      <g>
       <use style="stroke:#000000;stroke-width:0.8;" x="72" xlink:href="#m4653da59c3" y="65.622857"/>
      </g>
     </g>
     <g id="text_16">
      <!-- 0.30 -->
      <defs>
       <path d="M 40.578125 39.3125 
Q 47.65625 37.796875 51.625 33 
Q 55.609375 28.21875 55.609375 21.1875 
Q 55.609375 10.40625 48.1875 4.484375 
Q 40.765625 -1.421875 27.09375 -1.421875 
Q 22.515625 -1.421875 17.65625 -0.515625 
Q 12.796875 0.390625 7.625 2.203125 
L 7.625 11.71875 
Q 11.71875 9.328125 16.59375 8.109375 
Q 21.484375 6.890625 26.8125 6.890625 
Q 36.078125 6.890625 40.9375 10.546875 
Q 45.796875 14.203125 45.796875 21.1875 
Q 45.796875 27.640625 41.28125 31.265625 
Q 36.765625 34.90625 28.71875 34.90625 
L 20.21875 34.90625 
L 20.21875 43.015625 
L 29.109375 43.015625 
Q 36.375 43.015625 40.234375 45.921875 
Q 44.09375 48.828125 44.09375 54.296875 
Q 44.09375 59.90625 40.109375 62.90625 
Q 36.140625 65.921875 28.71875 65.921875 
Q 24.65625 65.921875 20.015625 65.03125 
Q 15.375 64.15625 9.8125 62.3125 
L 9.8125 71.09375 
Q 15.4375 72.65625 20.34375 73.4375 
Q 25.25 74.21875 29.59375 74.21875 
Q 40.828125 74.21875 47.359375 69.109375 
Q 53.90625 64.015625 53.90625 55.328125 
Q 53.90625 49.265625 50.4375 45.09375 
Q 46.96875 40.921875 40.578125 39.3125 
z
" id="DejaVuSans-51"/>
      </defs>
      <g transform="translate(42.734375 69.422076)scale(0.1 -0.1)">
       <use xlink:href="#DejaVuSans-48"/>
       <use x="63.623047" xlink:href="#DejaVuSans-46"/>
       <use x="95.410156" xlink:href="#DejaVuSans-51"/>
       <use x="159.033203" xlink:href="#DejaVuSans-48"/>
      </g>
     </g>
    </g>
    <g id="ytick_8">
     <g id="line2d_31">
      <path clip-path="url(#p1ee1f8d0c2)" d="M 72 34.56 
L 518.4 34.56 
" style="fill:none;stroke:#b0b0b0;stroke-linecap:square;stroke-width:0.8;"/>
     </g>
     <g id="line2d_32">
      <g>
       <use style="stroke:#000000;stroke-width:0.8;" x="72" xlink:href="#m4653da59c3" y="34.56"/>
      </g>
     </g>
     <g id="text_17">
      <!-- 0.35 -->
      <g transform="translate(42.734375 38.359219)scale(0.1 -0.1)">
       <use xlink:href="#DejaVuSans-48"/>
       <use x="63.623047" xlink:href="#DejaVuSans-46"/>
       <use x="95.410156" xlink:href="#DejaVuSans-51"/>
       <use x="159.033203" xlink:href="#DejaVuSans-53"/>
      </g>
     </g>
    </g>
    <g id="text_18">
     <!-- Densidade espectral(m²/s³) -->
     <defs>
      <path d="M 19.671875 64.796875 
L 19.671875 8.109375 
L 31.59375 8.109375 
Q 46.6875 8.109375 53.6875 14.9375 
Q 60.6875 21.78125 60.6875 36.53125 
Q 60.6875 51.171875 53.6875 57.984375 
Q 46.6875 64.796875 31.59375 64.796875 
z
M 9.8125 72.90625 
L 30.078125 72.90625 
Q 51.265625 72.90625 61.171875 64.09375 
Q 71.09375 55.28125 71.09375 36.53125 
Q 71.09375 17.671875 61.125 8.828125 
Q 51.171875 0 30.078125 0 
L 9.8125 0 
z
" id="DejaVuSans-68"/>
      <path d="M 44.28125 53.078125 
L 44.28125 44.578125 
Q 40.484375 46.53125 36.375 47.5 
Q 32.28125 48.484375 27.875 48.484375 
Q 21.1875 48.484375 17.84375 46.4375 
Q 14.5 44.390625 14.5 40.28125 
Q 14.5 37.15625 16.890625 35.375 
Q 19.28125 33.59375 26.515625 31.984375 
L 29.59375 31.296875 
Q 39.15625 29.25 43.1875 25.515625 
Q 47.21875 21.78125 47.21875 15.09375 
Q 47.21875 7.46875 41.1875 3.015625 
Q 35.15625 -1.421875 24.609375 -1.421875 
Q 20.21875 -1.421875 15.453125 -0.5625 
Q 10.6875 0.296875 5.421875 2 
L 5.421875 11.28125 
Q 10.40625 8.6875 15.234375 7.390625 
Q 20.0625 6.109375 24.8125 6.109375 
Q 31.15625 6.109375 34.5625 8.28125 
Q 37.984375 10.453125 37.984375 14.40625 
Q 37.984375 18.0625 35.515625 20.015625 
Q 33.0625 21.96875 24.703125 23.78125 
L 21.578125 24.515625 
Q 13.234375 26.265625 9.515625 29.90625 
Q 5.8125 33.546875 5.8125 39.890625 
Q 5.8125 47.609375 11.28125 51.796875 
Q 16.75 56 26.8125 56 
Q 31.78125 56 36.171875 55.265625 
Q 40.578125 54.546875 44.28125 53.078125 
z
" id="DejaVuSans-115"/>
      <path d="M 45.40625 46.390625 
L 45.40625 75.984375 
L 54.390625 75.984375 
L 54.390625 0 
L 45.40625 0 
L 45.40625 8.203125 
Q 42.578125 3.328125 38.25 0.953125 
Q 33.9375 -1.421875 27.875 -1.421875 
Q 17.96875 -1.421875 11.734375 6.484375 
Q 5.515625 14.40625 5.515625 27.296875 
Q 5.515625 40.1875 11.734375 48.09375 
Q 17.96875 56 27.875 56 
Q 33.9375 56 38.25 53.625 
Q 42.578125 51.265625 45.40625 46.390625 
z
M 14.796875 27.296875 
Q 14.796875 17.390625 18.875 11.75 
Q 22.953125 6.109375 30.078125 6.109375 
Q 37.203125 6.109375 41.296875 11.75 
Q 45.40625 17.390625 45.40625 27.296875 
Q 45.40625 37.203125 41.296875 42.84375 
Q 37.203125 48.484375 30.078125 48.484375 
Q 22.953125 48.484375 18.875 42.84375 
Q 14.796875 37.203125 14.796875 27.296875 
z
" id="DejaVuSans-100"/>
      <path id="DejaVuSans-32"/>
      <path d="M 18.109375 8.203125 
L 18.109375 -20.796875 
L 9.078125 -20.796875 
L 9.078125 54.6875 
L 18.109375 54.6875 
L 18.109375 46.390625 
Q 20.953125 51.265625 25.265625 53.625 
Q 29.59375 56 35.59375 56 
Q 45.5625 56 51.78125 48.09375 
Q 58.015625 40.1875 58.015625 27.296875 
Q 58.015625 14.40625 51.78125 6.484375 
Q 45.5625 -1.421875 35.59375 -1.421875 
Q 29.59375 -1.421875 25.265625 0.953125 
Q 20.953125 3.328125 18.109375 8.203125 
z
M 48.6875 27.296875 
Q 48.6875 37.203125 44.609375 42.84375 
Q 40.53125 48.484375 33.40625 48.484375 
Q 26.265625 48.484375 22.1875 42.84375 
Q 18.109375 37.203125 18.109375 27.296875 
Q 18.109375 17.390625 22.1875 11.75 
Q 26.265625 6.109375 33.40625 6.109375 
Q 40.53125 6.109375 44.609375 11.75 
Q 48.6875 17.390625 48.6875 27.296875 
z
" id="DejaVuSans-112"/>
      <path d="M 18.3125 70.21875 
L 18.3125 54.6875 
L 36.8125 54.6875 
L 36.8125 47.703125 
L 18.3125 47.703125 
L 18.3125 18.015625 
Q 18.3125 11.328125 20.140625 9.421875 
Q 21.96875 7.515625 27.59375 7.515625 
L 36.8125 7.515625 
L 36.8125 0 
L 27.59375 0 
Q 17.1875 0 13.234375 3.875 
Q 9.28125 7.765625 9.28125 18.015625 
L 9.28125 47.703125 
L 2.6875 47.703125 
L 2.6875 54.6875 
L 9.28125 54.6875 
L 9.28125 70.21875 
z
" id="DejaVuSans-116"/>
      <path d="M 9.421875 75.984375 
L 18.40625 75.984375 
L 18.40625 0 
L 9.421875 0 
z
" id="DejaVuSans-108"/>
      <path d="M 52 44.1875 
Q 55.375 50.25 60.0625 53.125 
Q 64.75 56 71.09375 56 
Q 79.640625 56 84.28125 50.015625 
Q 88.921875 44.046875 88.921875 33.015625 
L 88.921875 0 
L 79.890625 0 
L 79.890625 32.71875 
Q 79.890625 40.578125 77.09375 44.375 
Q 74.3125 48.1875 68.609375 48.1875 
Q 61.625 48.1875 57.5625 43.546875 
Q 53.515625 38.921875 53.515625 30.90625 
L 53.515625 0 
L 44.484375 0 
L 44.484375 32.71875 
Q 44.484375 40.625 41.703125 44.40625 
Q 38.921875 48.1875 33.109375 48.1875 
Q 26.21875 48.1875 22.15625 43.53125 
Q 18.109375 38.875 18.109375 30.90625 
L 18.109375 0 
L 9.078125 0 
L 9.078125 54.6875 
L 18.109375 54.6875 
L 18.109375 46.1875 
Q 21.1875 51.21875 25.484375 53.609375 
Q 29.78125 56 35.6875 56 
Q 41.65625 56 45.828125 52.96875 
Q 50 49.953125 52 44.1875 
z
" id="DejaVuSans-109"/>
      <path d="M 13.09375 38.1875 
L 33.796875 38.1875 
L 33.796875 32.625 
L 4.59375 32.625 
L 4.59375 37.984375 
Q 6.25 39.5 9.328125 42.234375 
Q 26.125 57.125 26.125 61.71875 
Q 26.125 64.9375 23.578125 66.90625 
Q 21.046875 68.890625 16.890625 68.890625 
Q 14.359375 68.890625 11.375 68.03125 
Q 8.40625 67.1875 4.890625 65.484375 
L 4.890625 71.484375 
Q 8.640625 72.859375 11.890625 73.53125 
Q 15.140625 74.21875 17.921875 74.21875 
Q 25 74.21875 29.25 71 
Q 33.5 67.78125 33.5 62.5 
Q 33.5 55.71875 17.328125 41.84375 
Q 14.59375 39.5 13.09375 38.1875 
z
" id="DejaVuSans-178"/>
      <path d="M 25.390625 72.90625 
L 33.6875 72.90625 
L 8.296875 -9.28125 
L 0 -9.28125 
z
" id="DejaVuSans-47"/>
      <path d="M 25.59375 54.6875 
Q 30.078125 53.8125 32.546875 51.140625 
Q 35.015625 48.484375 35.015625 44.484375 
Q 35.015625 38.421875 30.375 35.15625 
Q 25.734375 31.890625 17.09375 31.890625 
Q 14.3125 31.890625 11.25 32.390625 
Q 8.203125 32.90625 4.78125 33.890625 
L 4.78125 39.796875 
Q 7.328125 38.484375 10.234375 37.84375 
Q 13.140625 37.203125 16.40625 37.203125 
Q 21.734375 37.203125 24.65625 39.125 
Q 27.59375 41.0625 27.59375 44.484375 
Q 27.59375 48.09375 24.875 49.953125 
Q 22.171875 51.8125 16.890625 51.8125 
L 12.703125 51.8125 
L 12.703125 57.078125 
L 17.28125 57.078125 
Q 21.875 57.078125 24.234375 58.609375 
Q 26.609375 60.15625 26.609375 63.09375 
Q 26.609375 65.921875 24.171875 67.40625 
Q 21.734375 68.890625 17.09375 68.890625 
Q 15.140625 68.890625 12.640625 68.453125 
Q 10.15625 68.015625 6.203125 66.890625 
L 6.203125 72.515625 
Q 9.765625 73.34375 12.890625 73.78125 
Q 16.015625 74.21875 18.703125 74.21875 
Q 25.734375 74.21875 29.859375 71.328125 
Q 33.984375 68.453125 33.984375 63.625 
Q 33.984375 60.25 31.78125 57.90625 
Q 29.59375 55.5625 25.59375 54.6875 
z
" id="DejaVuSans-179"/>
     </defs>
     <g transform="translate(36.654687 211.6675)rotate(-90)scale(0.1 -0.1)">
      <use xlink:href="#DejaVuSans-68"/>
      <use x="77.001953" xlink:href="#DejaVuSans-101"/>
      <use x="138.525391" xlink:href="#DejaVuSans-110"/>
      <use x="201.904297" xlink:href="#DejaVuSans-115"/>
      <use x="254.003906" xlink:href="#DejaVuSans-105"/>
      <use x="281.787109" xlink:href="#DejaVuSans-100"/>
      <use x="345.263672" xlink:href="#DejaVuSans-97"/>
      <use x="406.542969" xlink:href="#DejaVuSans-100"/>
      <use x="470.019531" xlink:href="#DejaVuSans-101"/>
      <use x="531.542969" xlink:href="#DejaVuSans-32"/>
      <use x="563.330078" xlink:href="#DejaVuSans-101"/>
      <use x="624.853516" xlink:href="#DejaVuSans-115"/>
      <use x="676.953125" xlink:href="#DejaVuSans-112"/>
      <use x="740.429688" xlink:href="#DejaVuSans-101"/>
      <use x="801.953125" xlink:href="#DejaVuSans-99"/>
      <use x="856.933594" xlink:href="#DejaVuSans-116"/>
      <use x="896.142578" xlink:href="#DejaVuSans-114"/>
      <use x="937.255859" xlink:href="#DejaVuSans-97"/>
      <use x="998.535156" xlink:href="#DejaVuSans-108"/>
      <use x="1026.318359" xlink:href="#DejaVuSans-40"/>
      <use x="1065.332031" xlink:href="#DejaVuSans-109"/>
      <use x="1162.744141" xlink:href="#DejaVuSans-178"/>
      <use x="1202.832031" xlink:href="#DejaVuSans-47"/>
      <use x="1236.523438" xlink:href="#DejaVuSans-115"/>
      <use x="1288.623047" xlink:href="#DejaVuSans-179"/>
      <use x="1328.710938" xlink:href="#DejaVuSans-41"/>
     </g>
    </g>
   </g>
   <g id="line2d_33">
    <path clip-path="url(#p1ee1f8d0c2)" d="M 71.776284 150.244713 
L 72.449451 157.023215 
L 73.122618 47.911164 
L 73.795785 16.152069 
L 74.468951 132.623099 
L 75.142118 159.347136 
L 75.815285 214.612327 
L 76.488452 168.271462 
L 77.161619 195.379029 
L 77.834785 233.426478 
L 78.507952 237.446121 
L 79.181119 228.150976 
L 79.854286 242.788821 
L 80.527453 241.776743 
L 81.200619 244.049339 
L 81.873786 251.976801 
L 82.546953 245.234346 
L 83.22012 186.248038 
L 83.893287 228.553504 
L 84.566453 238.85514 
L 85.23962 226.192213 
L 85.912787 251.719645 
L 86.585954 215.425629 
L 87.259121 228.378212 
L 87.932287 245.513218 
L 88.605454 228.943172 
L 89.278621 246.279133 
L 89.951788 241.95408 
L 90.624955 246.646201 
L 91.298121 230.531469 
L 91.971288 244.712745 
L 92.644455 197.795351 
L 93.317622 233.954792 
L 93.990789 238.052163 
L 94.663955 247.990943 
L 95.337122 231.292475 
L 96.010289 222.456375 
L 97.356622 242.488186 
L 98.702956 187.598596 
L 99.376123 228.9647 
L 100.04929 209.731703 
L 101.395623 236.39468 
L 102.741957 243.241149 
L 103.415124 248.55925 
L 104.08829 248.585055 
L 104.761457 199.858078 
L 105.434624 115.949678 
L 106.107791 195.379164 
L 106.780958 231.208393 
L 107.454124 248.509525 
L 108.127291 247.311704 
L 108.800458 251.229066 
L 109.473625 249.843903 
L 110.146792 239.632224 
L 110.819958 247.191643 
L 111.493125 223.674287 
L 112.166292 249.533417 
L 112.839459 235.484308 
L 113.512626 248.56146 
L 114.185792 246.049628 
L 114.858959 237.807166 
L 115.532126 242.239613 
L 116.205293 239.41715 
L 116.87846 250.819269 
L 117.551626 216.58089 
L 118.224793 235.803397 
L 118.89796 245.193318 
L 119.571127 235.380398 
L 120.244293 251.824696 
L 121.590627 235.89996 
L 122.936961 213.6075 
L 124.283294 243.98121 
L 124.956461 231.651981 
L 125.629628 195.541182 
L 126.302795 177.464531 
L 126.975961 185.269316 
L 127.649128 244.980042 
L 128.322295 234.794059 
L 128.995462 242.748835 
L 129.668629 239.39159 
L 130.341795 251.360897 
L 131.688129 237.005679 
L 132.361296 249.917235 
L 133.034463 248.254233 
L 133.707629 250.359644 
L 134.380796 247.334325 
L 135.053963 234.341242 
L 135.72713 230.377891 
L 136.400297 235.916605 
L 137.073463 248.435891 
L 137.74663 237.664706 
L 138.419797 243.218596 
L 139.766131 226.90466 
L 140.439297 241.012415 
L 141.112464 206.031084 
L 142.458798 244.290363 
L 143.131965 249.761844 
L 143.805131 243.734165 
L 144.478298 236.52969 
L 145.151465 215.293794 
L 145.824632 223.548853 
L 146.497798 247.65214 
L 147.170965 236.665376 
L 147.844132 228.029392 
L 148.517299 241.40276 
L 149.190466 229.125908 
L 149.863632 224.0224 
L 150.536799 199.628463 
L 151.209966 222.543038 
L 151.883133 227.612476 
L 152.5563 237.243416 
L 153.229466 238.034971 
L 153.902633 235.176622 
L 155.248967 227.080063 
L 155.922134 247.169096 
L 156.5953 248.404551 
L 157.268467 250.842595 
L 157.941634 231.23547 
L 158.614801 224.575944 
L 159.287968 234.175766 
L 159.961134 216.995346 
L 160.634301 133.686766 
L 161.307468 201.231453 
L 161.980635 223.600861 
L 162.653802 217.418728 
L 163.326968 240.955137 
L 164.000135 246.179256 
L 164.673302 230.356202 
L 165.346469 249.093261 
L 166.019636 244.94076 
L 166.692802 250.924056 
L 167.365969 245.07654 
L 168.039136 247.712582 
L 168.712303 247.922723 
L 169.385469 237.544959 
L 170.058636 202.915631 
L 170.731803 238.15115 
L 171.40497 246.785719 
L 172.078137 246.809256 
L 172.751303 251.126839 
L 173.42447 246.677907 
L 174.097637 251.339372 
L 174.770804 248.344978 
L 175.443971 250.383093 
L 176.117137 243.802395 
L 176.790304 233.793657 
L 177.463471 250.847507 
L 178.136638 245.007432 
L 178.809805 245.389252 
L 179.482971 241.028658 
L 180.156138 250.17785 
L 180.829305 242.485838 
L 181.502472 245.328108 
L 182.175639 249.116522 
L 182.848805 246.868376 
L 183.521972 250.008701 
L 184.195139 251.373743 
L 184.868306 247.935247 
L 185.541473 229.649735 
L 186.214639 243.97698 
L 186.887806 251.765801 
L 187.560973 248.883365 
L 188.23414 237.89203 
L 188.907307 248.450634 
L 189.580473 245.392094 
L 190.25364 243.016964 
L 190.926807 221.159416 
L 191.599974 241.355763 
L 192.27314 240.786137 
L 192.946307 240.069593 
L 193.619474 228.591054 
L 194.292641 247.716878 
L 194.965808 235.877233 
L 195.638974 240.593574 
L 196.312141 246.208686 
L 196.985308 250.340572 
L 197.658475 242.144779 
L 198.331642 201.449826 
L 199.004808 206.612577 
L 199.677975 235.743106 
L 200.351142 237.502584 
L 201.024309 236.029138 
L 201.697476 251.81086 
L 202.370642 243.254381 
L 203.043809 250.838482 
L 203.716976 213.323911 
L 204.390143 192.851068 
L 205.06331 208.464834 
L 205.736476 236.016157 
L 206.409643 249.713404 
L 207.08281 245.68887 
L 207.755977 238.697307 
L 208.429144 249.439929 
L 209.10231 245.304516 
L 209.775477 246.828257 
L 210.448644 250.230173 
L 211.121811 251.142056 
L 211.794978 251.059283 
L 212.468144 251.446198 
L 213.141311 251.976078 
L 213.814478 251.866625 
L 214.487645 251.629464 
L 215.160812 249.737356 
L 215.833978 248.864845 
L 216.507145 250.29233 
L 217.180312 249.416838 
L 217.853479 244.413589 
L 218.526645 230.754162 
L 219.199812 236.096296 
L 219.872979 245.939549 
L 220.546146 247.496858 
L 221.219313 243.612266 
L 221.892479 238.123347 
L 222.565646 245.238064 
L 223.238813 246.827421 
L 223.91198 245.590878 
L 224.585147 251.805675 
L 225.258313 250.414469 
L 225.93148 251.508142 
L 226.604647 250.472251 
L 227.277814 251.839948 
L 227.950981 248.703253 
L 228.624147 243.099026 
L 229.297314 250.587104 
L 229.970481 251.643995 
L 230.643648 247.364707 
L 231.316815 242.332141 
L 231.989981 250.380531 
L 232.663148 250.53287 
L 233.336315 249.932869 
L 234.009482 248.835295 
L 234.682649 249.431628 
L 235.355815 251.701386 
L 236.028982 246.041907 
L 236.702149 247.720803 
L 237.375316 246.400539 
L 238.721649 251.60278 
L 239.394816 251.730699 
L 240.067983 251.255179 
L 240.74115 250.940964 
L 241.414316 248.928544 
L 242.087483 249.989573 
L 242.76065 251.913349 
L 243.433817 250.094761 
L 244.106984 250.393694 
L 244.78015 248.488728 
L 245.453317 243.595438 
L 246.126484 240.87434 
L 246.799651 248.974602 
L 247.472818 246.925305 
L 248.145984 247.346429 
L 248.819151 249.636139 
L 250.165485 250.137486 
L 250.838652 250.090927 
L 251.511818 249.552241 
L 252.184985 251.82394 
L 252.858152 250.138863 
L 253.531319 250.235503 
L 254.204486 246.645735 
L 254.877652 248.004169 
L 255.550819 249.059243 
L 256.223986 248.630177 
L 256.897153 251.625295 
L 257.57032 251.091166 
L 258.243486 251.556801 
L 258.916653 251.455372 
L 259.58982 248.232982 
L 260.262987 245.845829 
L 260.936154 248.292377 
L 261.60932 251.386465 
L 262.282487 249.621424 
L 262.955654 251.332858 
L 263.628821 249.796679 
L 264.301987 250.752037 
L 264.975154 248.553542 
L 265.648321 247.655578 
L 266.321488 245.38949 
L 267.667821 251.544666 
L 268.340988 251.279776 
L 269.687322 246.859953 
L 270.360489 251.49775 
L 271.033655 251.134494 
L 271.706822 249.825158 
L 272.379989 250.868967 
L 273.726323 251.730213 
L 274.399489 251.899521 
L 275.072656 251.72599 
L 275.745823 249.936195 
L 276.41899 251.707966 
L 277.092157 250.371091 
L 277.765323 250.683305 
L 278.43849 251.797614 
L 279.111657 251.662128 
L 279.784824 250.508199 
L 280.457991 246.028929 
L 281.131157 250.235136 
L 281.804324 251.960068 
L 282.477491 251.916228 
L 283.150658 251.707324 
L 283.823825 249.029213 
L 284.496991 249.965929 
L 285.170158 249.238099 
L 285.843325 247.205901 
L 286.516492 248.35011 
L 287.189658 247.708526 
L 288.535992 250.554223 
L 289.209159 250.208292 
L 289.882326 250.545634 
L 290.555492 248.859278 
L 291.228659 250.998036 
L 291.901826 251.004758 
L 292.574993 251.511687 
L 293.24816 251.33092 
L 293.921326 250.744839 
L 294.594493 251.575963 
L 295.940827 248.661667 
L 296.613994 249.660561 
L 297.28716 248.196492 
L 297.960327 249.606882 
L 298.633494 249.863535 
L 299.306661 246.305039 
L 299.979828 247.730429 
L 300.652994 251.675044 
L 301.326161 250.016443 
L 301.999328 251.477291 
L 302.672495 251.234702 
L 303.345662 250.605294 
L 304.018828 251.382053 
L 304.691995 251.845152 
L 306.038329 251.555106 
L 306.711496 250.526468 
L 307.384662 249.940063 
L 308.057829 250.786247 
L 308.730996 251.059913 
L 309.404163 249.493442 
L 310.07733 249.398771 
L 310.750496 250.939743 
L 312.09683 249.610315 
L 312.769997 250.948338 
L 313.443163 251.808217 
L 314.11633 251.702015 
L 314.789497 251.190391 
L 316.808997 251.344853 
L 317.482164 251.723792 
L 318.155331 251.656728 
L 318.828498 251.957808 
L 320.174831 250.920816 
L 320.847998 251.852996 
L 321.521165 251.310495 
L 322.194332 251.332725 
L 322.867499 250.628172 
L 323.540665 250.533211 
L 324.213832 250.304603 
L 324.886999 248.936088 
L 326.233333 251.487063 
L 326.906499 251.725699 
L 327.579666 250.830622 
L 328.252833 250.186838 
L 328.926 251.785533 
L 329.599167 250.443803 
L 330.272333 249.607898 
L 330.9455 250.734904 
L 331.618667 251.275119 
L 332.291834 251.152983 
L 332.965001 251.710331 
L 333.638167 251.790463 
L 334.311334 251.188322 
L 334.984501 248.367975 
L 335.657668 247.62137 
L 336.330834 249.895087 
L 337.004001 250.623622 
L 337.677168 250.945133 
L 338.350335 250.797404 
L 339.023502 251.26244 
L 339.696668 250.513936 
L 340.369835 251.407152 
L 341.043002 251.627668 
L 341.716169 251.090823 
L 342.389336 251.52474 
L 343.062502 251.65809 
L 343.735669 251.336679 
L 344.408836 250.839321 
L 345.082003 251.814652 
L 345.75517 251.985175 
L 346.428336 251.675679 
L 347.101503 251.663947 
L 348.447837 250.414117 
L 349.121004 250.866974 
L 350.467337 250.861984 
L 351.813671 250.647714 
L 352.486838 251.910508 
L 353.160004 251.423322 
L 353.833171 251.430352 
L 354.506338 250.200428 
L 355.179505 251.194254 
L 355.852672 251.0323 
L 356.525838 250.563716 
L 357.199005 251.399737 
L 357.872172 251.695785 
L 358.545339 250.632244 
L 359.218505 251.614761 
L 359.891672 251.9825 
L 360.564839 251.883037 
L 361.238006 251.525432 
L 361.911173 249.989053 
L 362.584339 250.450176 
L 363.257506 250.554038 
L 363.930673 251.254343 
L 364.60384 250.673885 
L 365.277007 250.801779 
L 365.950173 251.627719 
L 366.62334 251.49623 
L 367.296507 251.864987 
L 368.642841 251.910496 
L 369.316007 251.868095 
L 369.989174 251.664086 
L 370.662341 251.73734 
L 372.008675 250.871446 
L 372.681841 251.955755 
L 373.355008 251.778837 
L 374.028175 251.89843 
L 374.701342 251.276753 
L 375.374509 251.786042 
L 376.047675 251.695154 
L 376.720842 251.129785 
L 377.394009 251.544817 
L 378.067176 251.251399 
L 379.413509 251.489282 
L 380.759843 250.477831 
L 381.43301 251.94566 
L 382.106177 251.877882 
L 382.779343 251.940413 
L 383.45251 251.876115 
L 384.798844 250.695578 
L 385.47201 250.9691 
L 386.145177 251.98583 
L 386.818344 251.187586 
L 387.491511 251.71651 
L 388.164678 251.328868 
L 388.837844 251.821654 
L 389.511011 251.728774 
L 390.857345 248.087665 
L 391.530512 249.473829 
L 392.203678 251.171977 
L 392.876845 251.651036 
L 393.550012 251.621686 
L 394.223179 251.879263 
L 394.896346 251.97296 
L 395.569512 251.848803 
L 396.242679 250.994216 
L 396.915846 251.571613 
L 397.589013 251.629688 
L 398.26218 251.992617 
L 400.28168 251.91458 
L 400.954847 251.42358 
L 402.30118 251.955418 
L 404.993848 251.77521 
L 405.667014 251.98919 
L 406.340181 251.584454 
L 407.013348 251.889258 
L 407.686515 251.108165 
L 408.359681 251.016168 
L 409.032848 251.672748 
L 409.706015 251.990711 
L 410.379182 251.598433 
L 411.052349 251.940368 
L 411.725515 251.707231 
L 412.398682 251.697835 
L 413.071849 251.988682 
L 413.745016 251.671564 
L 414.418183 251.495771 
L 415.091349 251.953695 
L 415.764516 251.677715 
L 416.437683 251.928424 
L 417.784017 251.764307 
L 418.457183 251.457052 
L 419.13035 251.915639 
L 419.803517 251.111617 
L 420.476684 251.712235 
L 421.149851 251.607281 
L 421.823017 251.976492 
L 422.496184 251.807331 
L 423.169351 251.203787 
L 423.842518 251.452008 
L 424.515685 251.896926 
L 425.188851 251.058314 
L 426.535185 251.895094 
L 427.208352 251.867429 
L 427.881519 251.958508 
L 428.554685 251.713713 
L 429.227852 251.226281 
L 429.901019 251.452542 
L 430.574186 251.813647 
L 431.247352 251.762603 
L 431.920519 251.852021 
L 432.593686 251.632763 
L 433.266853 251.990124 
L 433.94002 251.631978 
L 434.613186 251.823833 
L 435.286353 251.678616 
L 435.95952 251.855478 
L 436.632687 251.540022 
L 437.97902 251.886398 
L 438.652187 251.820149 
L 439.325354 251.879392 
L 439.998521 251.822027 
L 440.671688 251.975342 
L 442.018021 251.897669 
L 442.691188 251.720739 
L 443.364355 251.7217 
L 444.037522 251.920002 
L 444.710688 251.980867 
L 446.057022 251.439623 
L 446.730189 251.528349 
L 447.403356 251.042513 
L 448.076522 249.889908 
L 448.749689 251.410698 
L 449.422856 251.911643 
L 450.096023 251.820286 
L 450.76919 251.439561 
L 451.442356 251.599953 
L 452.115523 251.978988 
L 452.78869 251.991737 
L 453.461857 251.858384 
L 454.135023 251.336678 
L 454.80819 251.357146 
L 455.481357 251.212096 
L 456.154524 251.467861 
L 456.827691 251.280479 
L 457.500857 251.769458 
L 458.174024 251.711777 
L 458.847191 251.949299 
L 459.520358 251.364375 
L 460.866691 251.831004 
L 461.539858 251.814361 
L 462.213025 251.597157 
L 462.886192 251.039109 
L 463.559359 251.082344 
L 464.232525 251.723145 
L 464.905692 251.994776 
L 465.578859 251.710612 
L 466.252026 251.703042 
L 466.925193 251.973067 
L 468.944693 251.864347 
L 470.291027 251.205081 
L 470.964193 251.880614 
L 471.63736 251.649894 
L 473.656861 251.589998 
L 474.330027 251.843244 
L 475.003194 251.963153 
L 479.042195 251.594321 
L 479.715362 251.717528 
L 480.388528 250.949089 
L 481.061695 251.503666 
L 481.734862 251.620762 
L 482.408029 251.401714 
L 483.081196 251.839627 
L 483.754362 251.665141 
L 484.427529 251.976946 
L 486.44703 251.951927 
L 487.120196 251.585133 
L 487.793363 251.828069 
L 489.139697 251.926107 
L 489.812864 251.515315 
L 490.48603 251.508599 
L 491.832364 250.989567 
L 493.178698 251.834849 
L 495.198198 251.824838 
L 495.871365 251.487361 
L 496.544532 251.869869 
L 497.217698 251.706957 
L 497.890865 251.93572 
L 498.564032 251.162563 
L 499.237199 251.334641 
L 499.910366 251.719518 
L 500.583532 251.750657 
L 501.256699 251.632551 
L 502.603033 251.630461 
L 503.276199 251.479947 
L 503.949366 251.879764 
L 504.622533 251.992419 
L 505.2957 251.869393 
L 506.642033 251.949625 
L 507.3152 251.886109 
L 507.988367 251.674294 
L 508.661534 251.581987 
L 510.007867 251.789555 
L 510.681034 251.744447 
L 511.354201 251.192925 
L 512.027368 251.402074 
L 512.700535 251.893836 
L 513.373701 251.860275 
L 514.046868 251.976551 
L 517.412702 251.952905 
L 518.085869 251.819302 
L 518.759036 251.181793 
L 518.759036 251.181793 
" style="fill:none;stroke:#000000;stroke-linecap:square;stroke-width:1.5;"/>
   </g>
   <g id="patch_3">
    <path d="M 72 252 
L 72 34.56 
" style="fill:none;stroke:#000000;stroke-linecap:square;stroke-linejoin:miter;stroke-width:0.8;"/>
   </g>
   <g id="patch_4">
    <path d="M 518.4 252 
L 518.4 34.56 
" style="fill:none;stroke:#000000;stroke-linecap:square;stroke-linejoin:miter;stroke-width:0.8;"/>
   </g>
   <g id="patch_5">
    <path d="M 72 252 
L 518.4 252 
" style="fill:none;stroke:#000000;stroke-linecap:square;stroke-linejoin:miter;stroke-width:0.8;"/>
   </g>
   <g id="patch_6">
    <path d="M 72 34.56 
L 518.4 34.56 
" style="fill:none;stroke:#000000;stroke-linecap:square;stroke-linejoin:miter;stroke-width:0.8;"/>
   </g>
  </g>
 </g>
 <defs>
  <clipPath id="p1ee1f8d0c2">
   <rect height="217.44" width="446.4" x="72" y="34.56"/>
  </clipPath>
 </defs>
</svg>
