<?xml version="1.0" encoding="utf-8" standalone="no"?>
<!DOCTYPE svg PUBLIC "-//W3C//DTD SVG 1.1//EN"
  "http://www.w3.org/Graphics/SVG/1.1/DTD/svg11.dtd">
<!-- Created with matplotlib (https://matplotlib.org/) -->
<svg height="288pt" version="1.1" viewBox="0 0 576 288" width="576pt" xmlns="http://www.w3.org/2000/svg" xmlns:xlink="http://www.w3.org/1999/xlink">
 <defs>
  <style type="text/css">
*{stroke-linecap:butt;stroke-linejoin:round;}
  </style>
 </defs>
 <g id="figure_1">
  <g id="patch_1">
   <path d="M 0 288 
L 576 288 
L 576 0 
L 0 0 
z
" style="fill:#ffffff;"/>
  </g>
  <g id="axes_1">
   <g id="patch_2">
    <path d="M 72 252 
L 518.4 252 
L 518.4 34.56 
L 72 34.56 
z
" style="fill:#ffffff;"/>
   </g>
   <g id="matplotlib.axis_1">
    <g id="xtick_1">
     <g id="line2d_1">
      <path clip-path="url(#pa305f549cc)" d="M 117.784615 252 
L 117.784615 34.56 
" style="fill:none;stroke:#b0b0b0;stroke-linecap:square;stroke-width:0.8;"/>
     </g>
     <g id="line2d_2">
      <defs>
       <path d="M 0 0 
L 0 3.5 
" id="m1c03ee9a4d" style="stroke:#000000;stroke-width:0.8;"/>
      </defs>
      <g>
       <use style="stroke:#000000;stroke-width:0.8;" x="117.784615" xlink:href="#m1c03ee9a4d" y="252"/>
      </g>
     </g>
     <g id="text_1">
      <!-- 2.5 -->
      <defs>
       <path d="M 19.1875 8.296875 
L 53.609375 8.296875 
L 53.609375 0 
L 7.328125 0 
L 7.328125 8.296875 
Q 12.9375 14.109375 22.625 23.890625 
Q 32.328125 33.6875 34.8125 36.53125 
Q 39.546875 41.84375 41.421875 45.53125 
Q 43.3125 49.21875 43.3125 52.78125 
Q 43.3125 58.59375 39.234375 62.25 
Q 35.15625 65.921875 28.609375 65.921875 
Q 23.96875 65.921875 18.8125 64.3125 
Q 13.671875 62.703125 7.8125 59.421875 
L 7.8125 69.390625 
Q 13.765625 71.78125 18.9375 73 
Q 24.125 74.21875 28.421875 74.21875 
Q 39.75 74.21875 46.484375 68.546875 
Q 53.21875 62.890625 53.21875 53.421875 
Q 53.21875 48.921875 51.53125 44.890625 
Q 49.859375 40.875 45.40625 35.40625 
Q 44.1875 33.984375 37.640625 27.21875 
Q 31.109375 20.453125 19.1875 8.296875 
z
" id="DejaVuSans-50"/>
       <path d="M 10.6875 12.40625 
L 21 12.40625 
L 21 0 
L 10.6875 0 
z
" id="DejaVuSans-46"/>
       <path d="M 10.796875 72.90625 
L 49.515625 72.90625 
L 49.515625 64.59375 
L 19.828125 64.59375 
L 19.828125 46.734375 
Q 21.96875 47.46875 24.109375 47.828125 
Q 26.265625 48.1875 28.421875 48.1875 
Q 40.625 48.1875 47.75 41.5 
Q 54.890625 34.8125 54.890625 23.390625 
Q 54.890625 11.625 47.5625 5.09375 
Q 40.234375 -1.421875 26.90625 -1.421875 
Q 22.3125 -1.421875 17.546875 -0.640625 
Q 12.796875 0.140625 7.71875 1.703125 
L 7.71875 11.625 
Q 12.109375 9.234375 16.796875 8.0625 
Q 21.484375 6.890625 26.703125 6.890625 
Q 35.15625 6.890625 40.078125 11.328125 
Q 45.015625 15.765625 45.015625 23.390625 
Q 45.015625 31 40.078125 35.4375 
Q 35.15625 39.890625 26.703125 39.890625 
Q 22.75 39.890625 18.8125 39.015625 
Q 14.890625 38.140625 10.796875 36.28125 
z
" id="DejaVuSans-53"/>
      </defs>
      <g transform="translate(109.833053 266.598437)scale(0.1 -0.1)">
       <use xlink:href="#DejaVuSans-50"/>
       <use x="63.623047" xlink:href="#DejaVuSans-46"/>
       <use x="95.410156" xlink:href="#DejaVuSans-53"/>
      </g>
     </g>
    </g>
    <g id="xtick_2">
     <g id="line2d_3">
      <path clip-path="url(#pa305f549cc)" d="M 175.015385 252 
L 175.015385 34.56 
" style="fill:none;stroke:#b0b0b0;stroke-linecap:square;stroke-width:0.8;"/>
     </g>
     <g id="line2d_4">
      <g>
       <use style="stroke:#000000;stroke-width:0.8;" x="175.015385" xlink:href="#m1c03ee9a4d" y="252"/>
      </g>
     </g>
     <g id="text_2">
      <!-- 5.0 -->
      <defs>
       <path d="M 31.78125 66.40625 
Q 24.171875 66.40625 20.328125 58.90625 
Q 16.5 51.421875 16.5 36.375 
Q 16.5 21.390625 20.328125 13.890625 
Q 24.171875 6.390625 31.78125 6.390625 
Q 39.453125 6.390625 43.28125 13.890625 
Q 47.125 21.390625 47.125 36.375 
Q 47.125 51.421875 43.28125 58.90625 
Q 39.453125 66.40625 31.78125 66.40625 
z
M 31.78125 74.21875 
Q 44.046875 74.21875 50.515625 64.515625 
Q 56.984375 54.828125 56.984375 36.375 
Q 56.984375 17.96875 50.515625 8.265625 
Q 44.046875 -1.421875 31.78125 -1.421875 
Q 19.53125 -1.421875 13.0625 8.265625 
Q 6.59375 17.96875 6.59375 36.375 
Q 6.59375 54.828125 13.0625 64.515625 
Q 19.53125 74.21875 31.78125 74.21875 
z
" id="DejaVuSans-48"/>
      </defs>
      <g transform="translate(167.063822 266.598437)scale(0.1 -0.1)">
       <use xlink:href="#DejaVuSans-53"/>
       <use x="63.623047" xlink:href="#DejaVuSans-46"/>
       <use x="95.410156" xlink:href="#DejaVuSans-48"/>
      </g>
     </g>
    </g>
    <g id="xtick_3">
     <g id="line2d_5">
      <path clip-path="url(#pa305f549cc)" d="M 232.246154 252 
L 232.246154 34.56 
" style="fill:none;stroke:#b0b0b0;stroke-linecap:square;stroke-width:0.8;"/>
     </g>
     <g id="line2d_6">
      <g>
       <use style="stroke:#000000;stroke-width:0.8;" x="232.246154" xlink:href="#m1c03ee9a4d" y="252"/>
      </g>
     </g>
     <g id="text_3">
      <!-- 7.5 -->
      <defs>
       <path d="M 8.203125 72.90625 
L 55.078125 72.90625 
L 55.078125 68.703125 
L 28.609375 0 
L 18.3125 0 
L 43.21875 64.59375 
L 8.203125 64.59375 
z
" id="DejaVuSans-55"/>
      </defs>
      <g transform="translate(224.294591 266.598437)scale(0.1 -0.1)">
       <use xlink:href="#DejaVuSans-55"/>
       <use x="63.623047" xlink:href="#DejaVuSans-46"/>
       <use x="95.410156" xlink:href="#DejaVuSans-53"/>
      </g>
     </g>
    </g>
    <g id="xtick_4">
     <g id="line2d_7">
      <path clip-path="url(#pa305f549cc)" d="M 289.476923 252 
L 289.476923 34.56 
" style="fill:none;stroke:#b0b0b0;stroke-linecap:square;stroke-width:0.8;"/>
     </g>
     <g id="line2d_8">
      <g>
       <use style="stroke:#000000;stroke-width:0.8;" x="289.476923" xlink:href="#m1c03ee9a4d" y="252"/>
      </g>
     </g>
     <g id="text_4">
      <!-- 10.0 -->
      <defs>
       <path d="M 12.40625 8.296875 
L 28.515625 8.296875 
L 28.515625 63.921875 
L 10.984375 60.40625 
L 10.984375 69.390625 
L 28.421875 72.90625 
L 38.28125 72.90625 
L 38.28125 8.296875 
L 54.390625 8.296875 
L 54.390625 0 
L 12.40625 0 
z
" id="DejaVuSans-49"/>
      </defs>
      <g transform="translate(278.344111 266.598437)scale(0.1 -0.1)">
       <use xlink:href="#DejaVuSans-49"/>
       <use x="63.623047" xlink:href="#DejaVuSans-48"/>
       <use x="127.246094" xlink:href="#DejaVuSans-46"/>
       <use x="159.033203" xlink:href="#DejaVuSans-48"/>
      </g>
     </g>
    </g>
    <g id="xtick_5">
     <g id="line2d_9">
      <path clip-path="url(#pa305f549cc)" d="M 346.707692 252 
L 346.707692 34.56 
" style="fill:none;stroke:#b0b0b0;stroke-linecap:square;stroke-width:0.8;"/>
     </g>
     <g id="line2d_10">
      <g>
       <use style="stroke:#000000;stroke-width:0.8;" x="346.707692" xlink:href="#m1c03ee9a4d" y="252"/>
      </g>
     </g>
     <g id="text_5">
      <!-- 12.5 -->
      <g transform="translate(335.57488 266.598437)scale(0.1 -0.1)">
       <use xlink:href="#DejaVuSans-49"/>
       <use x="63.623047" xlink:href="#DejaVuSans-50"/>
       <use x="127.246094" xlink:href="#DejaVuSans-46"/>
       <use x="159.033203" xlink:href="#DejaVuSans-53"/>
      </g>
     </g>
    </g>
    <g id="xtick_6">
     <g id="line2d_11">
      <path clip-path="url(#pa305f549cc)" d="M 403.938462 252 
L 403.938462 34.56 
" style="fill:none;stroke:#b0b0b0;stroke-linecap:square;stroke-width:0.8;"/>
     </g>
     <g id="line2d_12">
      <g>
       <use style="stroke:#000000;stroke-width:0.8;" x="403.938462" xlink:href="#m1c03ee9a4d" y="252"/>
      </g>
     </g>
     <g id="text_6">
      <!-- 15.0 -->
      <g transform="translate(392.805649 266.598437)scale(0.1 -0.1)">
       <use xlink:href="#DejaVuSans-49"/>
       <use x="63.623047" xlink:href="#DejaVuSans-53"/>
       <use x="127.246094" xlink:href="#DejaVuSans-46"/>
       <use x="159.033203" xlink:href="#DejaVuSans-48"/>
      </g>
     </g>
    </g>
    <g id="xtick_7">
     <g id="line2d_13">
      <path clip-path="url(#pa305f549cc)" d="M 461.169231 252 
L 461.169231 34.56 
" style="fill:none;stroke:#b0b0b0;stroke-linecap:square;stroke-width:0.8;"/>
     </g>
     <g id="line2d_14">
      <g>
       <use style="stroke:#000000;stroke-width:0.8;" x="461.169231" xlink:href="#m1c03ee9a4d" y="252"/>
      </g>
     </g>
     <g id="text_7">
      <!-- 17.5 -->
      <g transform="translate(450.036418 266.598437)scale(0.1 -0.1)">
       <use xlink:href="#DejaVuSans-49"/>
       <use x="63.623047" xlink:href="#DejaVuSans-55"/>
       <use x="127.246094" xlink:href="#DejaVuSans-46"/>
       <use x="159.033203" xlink:href="#DejaVuSans-53"/>
      </g>
     </g>
    </g>
    <g id="xtick_8">
     <g id="line2d_15">
      <path clip-path="url(#pa305f549cc)" d="M 518.4 252 
L 518.4 34.56 
" style="fill:none;stroke:#b0b0b0;stroke-linecap:square;stroke-width:0.8;"/>
     </g>
     <g id="line2d_16">
      <g>
       <use style="stroke:#000000;stroke-width:0.8;" x="518.4" xlink:href="#m1c03ee9a4d" y="252"/>
      </g>
     </g>
     <g id="text_8">
      <!-- 20.0 -->
      <g transform="translate(507.267187 266.598437)scale(0.1 -0.1)">
       <use xlink:href="#DejaVuSans-50"/>
       <use x="63.623047" xlink:href="#DejaVuSans-48"/>
       <use x="127.246094" xlink:href="#DejaVuSans-46"/>
       <use x="159.033203" xlink:href="#DejaVuSans-48"/>
      </g>
     </g>
    </g>
    <g id="text_9">
     <!-- frequência(Hz) -->
     <defs>
      <path d="M 37.109375 75.984375 
L 37.109375 68.5 
L 28.515625 68.5 
Q 23.6875 68.5 21.796875 66.546875 
Q 19.921875 64.59375 19.921875 59.515625 
L 19.921875 54.6875 
L 34.71875 54.6875 
L 34.71875 47.703125 
L 19.921875 47.703125 
L 19.921875 0 
L 10.890625 0 
L 10.890625 47.703125 
L 2.296875 47.703125 
L 2.296875 54.6875 
L 10.890625 54.6875 
L 10.890625 58.5 
Q 10.890625 67.625 15.140625 71.796875 
Q 19.390625 75.984375 28.609375 75.984375 
z
" id="DejaVuSans-102"/>
      <path d="M 41.109375 46.296875 
Q 39.59375 47.171875 37.8125 47.578125 
Q 36.03125 48 33.890625 48 
Q 26.265625 48 22.1875 43.046875 
Q 18.109375 38.09375 18.109375 28.8125 
L 18.109375 0 
L 9.078125 0 
L 9.078125 54.6875 
L 18.109375 54.6875 
L 18.109375 46.1875 
Q 20.953125 51.171875 25.484375 53.578125 
Q 30.03125 56 36.53125 56 
Q 37.453125 56 38.578125 55.875 
Q 39.703125 55.765625 41.0625 55.515625 
z
" id="DejaVuSans-114"/>
      <path d="M 56.203125 29.59375 
L 56.203125 25.203125 
L 14.890625 25.203125 
Q 15.484375 15.921875 20.484375 11.0625 
Q 25.484375 6.203125 34.421875 6.203125 
Q 39.59375 6.203125 44.453125 7.46875 
Q 49.3125 8.734375 54.109375 11.28125 
L 54.109375 2.78125 
Q 49.265625 0.734375 44.1875 -0.34375 
Q 39.109375 -1.421875 33.890625 -1.421875 
Q 20.796875 -1.421875 13.15625 6.1875 
Q 5.515625 13.8125 5.515625 26.8125 
Q 5.515625 40.234375 12.765625 48.109375 
Q 20.015625 56 32.328125 56 
Q 43.359375 56 49.78125 48.890625 
Q 56.203125 41.796875 56.203125 29.59375 
z
M 47.21875 32.234375 
Q 47.125 39.59375 43.09375 43.984375 
Q 39.0625 48.390625 32.421875 48.390625 
Q 24.90625 48.390625 20.390625 44.140625 
Q 15.875 39.890625 15.1875 32.171875 
z
" id="DejaVuSans-101"/>
      <path d="M 14.796875 27.296875 
Q 14.796875 17.390625 18.875 11.75 
Q 22.953125 6.109375 30.078125 6.109375 
Q 37.203125 6.109375 41.296875 11.75 
Q 45.40625 17.390625 45.40625 27.296875 
Q 45.40625 37.203125 41.296875 42.84375 
Q 37.203125 48.484375 30.078125 48.484375 
Q 22.953125 48.484375 18.875 42.84375 
Q 14.796875 37.203125 14.796875 27.296875 
z
M 45.40625 8.203125 
Q 42.578125 3.328125 38.25 0.953125 
Q 33.9375 -1.421875 27.875 -1.421875 
Q 17.96875 -1.421875 11.734375 6.484375 
Q 5.515625 14.40625 5.515625 27.296875 
Q 5.515625 40.1875 11.734375 48.09375 
Q 17.96875 56 27.875 56 
Q 33.9375 56 38.25 53.625 
Q 42.578125 51.265625 45.40625 46.390625 
L 45.40625 54.6875 
L 54.390625 54.6875 
L 54.390625 -20.796875 
L 45.40625 -20.796875 
z
" id="DejaVuSans-113"/>
      <path d="M 8.5 21.578125 
L 8.5 54.6875 
L 17.484375 54.6875 
L 17.484375 21.921875 
Q 17.484375 14.15625 20.5 10.265625 
Q 23.53125 6.390625 29.59375 6.390625 
Q 36.859375 6.390625 41.078125 11.03125 
Q 45.3125 15.671875 45.3125 23.6875 
L 45.3125 54.6875 
L 54.296875 54.6875 
L 54.296875 0 
L 45.3125 0 
L 45.3125 8.40625 
Q 42.046875 3.421875 37.71875 1 
Q 33.40625 -1.421875 27.6875 -1.421875 
Q 18.265625 -1.421875 13.375 4.4375 
Q 8.5 10.296875 8.5 21.578125 
z
M 31.109375 56 
z
" id="DejaVuSans-117"/>
      <path d="M 56.203125 29.59375 
L 56.203125 25.203125 
L 14.890625 25.203125 
Q 15.484375 15.921875 20.484375 11.0625 
Q 25.484375 6.203125 34.421875 6.203125 
Q 39.59375 6.203125 44.453125 7.46875 
Q 49.3125 8.734375 54.109375 11.28125 
L 54.109375 2.78125 
Q 49.265625 0.734375 44.1875 -0.34375 
Q 39.109375 -1.421875 33.890625 -1.421875 
Q 20.796875 -1.421875 13.15625 6.1875 
Q 5.515625 13.8125 5.515625 26.8125 
Q 5.515625 40.234375 12.765625 48.109375 
Q 20.015625 56 32.328125 56 
Q 43.359375 56 49.78125 48.890625 
Q 56.203125 41.796875 56.203125 29.59375 
z
M 47.21875 32.234375 
Q 47.125 39.59375 43.09375 43.984375 
Q 39.0625 48.390625 32.421875 48.390625 
Q 24.90625 48.390625 20.390625 44.140625 
Q 15.875 39.890625 15.1875 32.171875 
z
M 28.171875 79.984375 
L 35.40625 79.984375 
L 47.359375 61.625 
L 40.578125 61.625 
L 31.78125 73.578125 
L 23 61.625 
L 16.21875 61.625 
z
" id="DejaVuSans-234"/>
      <path d="M 54.890625 33.015625 
L 54.890625 0 
L 45.90625 0 
L 45.90625 32.71875 
Q 45.90625 40.484375 42.875 44.328125 
Q 39.84375 48.1875 33.796875 48.1875 
Q 26.515625 48.1875 22.3125 43.546875 
Q 18.109375 38.921875 18.109375 30.90625 
L 18.109375 0 
L 9.078125 0 
L 9.078125 54.6875 
L 18.109375 54.6875 
L 18.109375 46.1875 
Q 21.34375 51.125 25.703125 53.5625 
Q 30.078125 56 35.796875 56 
Q 45.21875 56 50.046875 50.171875 
Q 54.890625 44.34375 54.890625 33.015625 
z
" id="DejaVuSans-110"/>
      <path d="M 48.78125 52.59375 
L 48.78125 44.1875 
Q 44.96875 46.296875 41.140625 47.34375 
Q 37.3125 48.390625 33.40625 48.390625 
Q 24.65625 48.390625 19.8125 42.84375 
Q 14.984375 37.3125 14.984375 27.296875 
Q 14.984375 17.28125 19.8125 11.734375 
Q 24.65625 6.203125 33.40625 6.203125 
Q 37.3125 6.203125 41.140625 7.25 
Q 44.96875 8.296875 48.78125 10.40625 
L 48.78125 2.09375 
Q 45.015625 0.34375 40.984375 -0.53125 
Q 36.96875 -1.421875 32.421875 -1.421875 
Q 20.0625 -1.421875 12.78125 6.34375 
Q 5.515625 14.109375 5.515625 27.296875 
Q 5.515625 40.671875 12.859375 48.328125 
Q 20.21875 56 33.015625 56 
Q 37.15625 56 41.109375 55.140625 
Q 45.0625 54.296875 48.78125 52.59375 
z
" id="DejaVuSans-99"/>
      <path d="M 9.421875 54.6875 
L 18.40625 54.6875 
L 18.40625 0 
L 9.421875 0 
z
M 9.421875 75.984375 
L 18.40625 75.984375 
L 18.40625 64.59375 
L 9.421875 64.59375 
z
" id="DejaVuSans-105"/>
      <path d="M 34.28125 27.484375 
Q 23.390625 27.484375 19.1875 25 
Q 14.984375 22.515625 14.984375 16.5 
Q 14.984375 11.71875 18.140625 8.90625 
Q 21.296875 6.109375 26.703125 6.109375 
Q 34.1875 6.109375 38.703125 11.40625 
Q 43.21875 16.703125 43.21875 25.484375 
L 43.21875 27.484375 
z
M 52.203125 31.203125 
L 52.203125 0 
L 43.21875 0 
L 43.21875 8.296875 
Q 40.140625 3.328125 35.546875 0.953125 
Q 30.953125 -1.421875 24.3125 -1.421875 
Q 15.921875 -1.421875 10.953125 3.296875 
Q 6 8.015625 6 15.921875 
Q 6 25.140625 12.171875 29.828125 
Q 18.359375 34.515625 30.609375 34.515625 
L 43.21875 34.515625 
L 43.21875 35.40625 
Q 43.21875 41.609375 39.140625 45 
Q 35.0625 48.390625 27.6875 48.390625 
Q 23 48.390625 18.546875 47.265625 
Q 14.109375 46.140625 10.015625 43.890625 
L 10.015625 52.203125 
Q 14.9375 54.109375 19.578125 55.046875 
Q 24.21875 56 28.609375 56 
Q 40.484375 56 46.34375 49.84375 
Q 52.203125 43.703125 52.203125 31.203125 
z
" id="DejaVuSans-97"/>
      <path d="M 31 75.875 
Q 24.46875 64.65625 21.28125 53.65625 
Q 18.109375 42.671875 18.109375 31.390625 
Q 18.109375 20.125 21.3125 9.0625 
Q 24.515625 -2 31 -13.1875 
L 23.1875 -13.1875 
Q 15.875 -1.703125 12.234375 9.375 
Q 8.59375 20.453125 8.59375 31.390625 
Q 8.59375 42.28125 12.203125 53.3125 
Q 15.828125 64.359375 23.1875 75.875 
z
" id="DejaVuSans-40"/>
      <path d="M 9.8125 72.90625 
L 19.671875 72.90625 
L 19.671875 43.015625 
L 55.515625 43.015625 
L 55.515625 72.90625 
L 65.375 72.90625 
L 65.375 0 
L 55.515625 0 
L 55.515625 34.71875 
L 19.671875 34.71875 
L 19.671875 0 
L 9.8125 0 
z
" id="DejaVuSans-72"/>
      <path d="M 5.515625 54.6875 
L 48.1875 54.6875 
L 48.1875 46.484375 
L 14.40625 7.171875 
L 48.1875 7.171875 
L 48.1875 0 
L 4.296875 0 
L 4.296875 8.203125 
L 38.09375 47.515625 
L 5.515625 47.515625 
z
" id="DejaVuSans-122"/>
      <path d="M 8.015625 75.875 
L 15.828125 75.875 
Q 23.140625 64.359375 26.78125 53.3125 
Q 30.421875 42.28125 30.421875 31.390625 
Q 30.421875 20.453125 26.78125 9.375 
Q 23.140625 -1.703125 15.828125 -13.1875 
L 8.015625 -13.1875 
Q 14.5 -2 17.703125 9.0625 
Q 20.90625 20.125 20.90625 31.390625 
Q 20.90625 42.671875 17.703125 53.65625 
Q 14.5 64.65625 8.015625 75.875 
z
" id="DejaVuSans-41"/>
     </defs>
     <g transform="translate(258.34375 280.676562)scale(0.1 -0.1)">
      <use xlink:href="#DejaVuSans-102"/>
      <use x="35.205078" xlink:href="#DejaVuSans-114"/>
      <use x="74.068359" xlink:href="#DejaVuSans-101"/>
      <use x="135.591797" xlink:href="#DejaVuSans-113"/>
      <use x="199.068359" xlink:href="#DejaVuSans-117"/>
      <use x="262.447266" xlink:href="#DejaVuSans-234"/>
      <use x="323.970703" xlink:href="#DejaVuSans-110"/>
      <use x="387.349609" xlink:href="#DejaVuSans-99"/>
      <use x="442.330078" xlink:href="#DejaVuSans-105"/>
      <use x="470.113281" xlink:href="#DejaVuSans-97"/>
      <use x="531.392578" xlink:href="#DejaVuSans-40"/>
      <use x="570.40625" xlink:href="#DejaVuSans-72"/>
      <use x="645.601562" xlink:href="#DejaVuSans-122"/>
      <use x="698.091797" xlink:href="#DejaVuSans-41"/>
     </g>
    </g>
   </g>
   <g id="matplotlib.axis_2">
    <g id="ytick_1">
     <g id="line2d_17">
      <path clip-path="url(#pa305f549cc)" d="M 72 252 
L 518.4 252 
" style="fill:none;stroke:#b0b0b0;stroke-linecap:square;stroke-width:0.8;"/>
     </g>
     <g id="line2d_18">
      <defs>
       <path d="M 0 0 
L -3.5 0 
" id="me36770998d" style="stroke:#000000;stroke-width:0.8;"/>
      </defs>
      <g>
       <use style="stroke:#000000;stroke-width:0.8;" x="72" xlink:href="#me36770998d" y="252"/>
      </g>
     </g>
     <g id="text_10">
      <!-- 0.00 -->
      <g transform="translate(42.734375 255.799219)scale(0.1 -0.1)">
       <use xlink:href="#DejaVuSans-48"/>
       <use x="63.623047" xlink:href="#DejaVuSans-46"/>
       <use x="95.410156" xlink:href="#DejaVuSans-48"/>
       <use x="159.033203" xlink:href="#DejaVuSans-48"/>
      </g>
     </g>
    </g>
    <g id="ytick_2">
     <g id="line2d_19">
      <path clip-path="url(#pa305f549cc)" d="M 72 224.82 
L 518.4 224.82 
" style="fill:none;stroke:#b0b0b0;stroke-linecap:square;stroke-width:0.8;"/>
     </g>
     <g id="line2d_20">
      <g>
       <use style="stroke:#000000;stroke-width:0.8;" x="72" xlink:href="#me36770998d" y="224.82"/>
      </g>
     </g>
     <g id="text_11">
      <!-- 0.05 -->
      <g transform="translate(42.734375 228.619219)scale(0.1 -0.1)">
       <use xlink:href="#DejaVuSans-48"/>
       <use x="63.623047" xlink:href="#DejaVuSans-46"/>
       <use x="95.410156" xlink:href="#DejaVuSans-48"/>
       <use x="159.033203" xlink:href="#DejaVuSans-53"/>
      </g>
     </g>
    </g>
    <g id="ytick_3">
     <g id="line2d_21">
      <path clip-path="url(#pa305f549cc)" d="M 72 197.64 
L 518.4 197.64 
" style="fill:none;stroke:#b0b0b0;stroke-linecap:square;stroke-width:0.8;"/>
     </g>
     <g id="line2d_22">
      <g>
       <use style="stroke:#000000;stroke-width:0.8;" x="72" xlink:href="#me36770998d" y="197.64"/>
      </g>
     </g>
     <g id="text_12">
      <!-- 0.10 -->
      <g transform="translate(42.734375 201.439219)scale(0.1 -0.1)">
       <use xlink:href="#DejaVuSans-48"/>
       <use x="63.623047" xlink:href="#DejaVuSans-46"/>
       <use x="95.410156" xlink:href="#DejaVuSans-49"/>
       <use x="159.033203" xlink:href="#DejaVuSans-48"/>
      </g>
     </g>
    </g>
    <g id="ytick_4">
     <g id="line2d_23">
      <path clip-path="url(#pa305f549cc)" d="M 72 170.46 
L 518.4 170.46 
" style="fill:none;stroke:#b0b0b0;stroke-linecap:square;stroke-width:0.8;"/>
     </g>
     <g id="line2d_24">
      <g>
       <use style="stroke:#000000;stroke-width:0.8;" x="72" xlink:href="#me36770998d" y="170.46"/>
      </g>
     </g>
     <g id="text_13">
      <!-- 0.15 -->
      <g transform="translate(42.734375 174.259219)scale(0.1 -0.1)">
       <use xlink:href="#DejaVuSans-48"/>
       <use x="63.623047" xlink:href="#DejaVuSans-46"/>
       <use x="95.410156" xlink:href="#DejaVuSans-49"/>
       <use x="159.033203" xlink:href="#DejaVuSans-53"/>
      </g>
     </g>
    </g>
    <g id="ytick_5">
     <g id="line2d_25">
      <path clip-path="url(#pa305f549cc)" d="M 72 143.28 
L 518.4 143.28 
" style="fill:none;stroke:#b0b0b0;stroke-linecap:square;stroke-width:0.8;"/>
     </g>
     <g id="line2d_26">
      <g>
       <use style="stroke:#000000;stroke-width:0.8;" x="72" xlink:href="#me36770998d" y="143.28"/>
      </g>
     </g>
     <g id="text_14">
      <!-- 0.20 -->
      <g transform="translate(42.734375 147.079219)scale(0.1 -0.1)">
       <use xlink:href="#DejaVuSans-48"/>
       <use x="63.623047" xlink:href="#DejaVuSans-46"/>
       <use x="95.410156" xlink:href="#DejaVuSans-50"/>
       <use x="159.033203" xlink:href="#DejaVuSans-48"/>
      </g>
     </g>
    </g>
    <g id="ytick_6">
     <g id="line2d_27">
      <path clip-path="url(#pa305f549cc)" d="M 72 116.1 
L 518.4 116.1 
" style="fill:none;stroke:#b0b0b0;stroke-linecap:square;stroke-width:0.8;"/>
     </g>
     <g id="line2d_28">
      <g>
       <use style="stroke:#000000;stroke-width:0.8;" x="72" xlink:href="#me36770998d" y="116.1"/>
      </g>
     </g>
     <g id="text_15">
      <!-- 0.25 -->
      <g transform="translate(42.734375 119.899219)scale(0.1 -0.1)">
       <use xlink:href="#DejaVuSans-48"/>
       <use x="63.623047" xlink:href="#DejaVuSans-46"/>
       <use x="95.410156" xlink:href="#DejaVuSans-50"/>
       <use x="159.033203" xlink:href="#DejaVuSans-53"/>
      </g>
     </g>
    </g>
    <g id="ytick_7">
     <g id="line2d_29">
      <path clip-path="url(#pa305f549cc)" d="M 72 88.92 
L 518.4 88.92 
" style="fill:none;stroke:#b0b0b0;stroke-linecap:square;stroke-width:0.8;"/>
     </g>
     <g id="line2d_30">
      <g>
       <use style="stroke:#000000;stroke-width:0.8;" x="72" xlink:href="#me36770998d" y="88.92"/>
      </g>
     </g>
     <g id="text_16">
      <!-- 0.30 -->
      <defs>
       <path d="M 40.578125 39.3125 
Q 47.65625 37.796875 51.625 33 
Q 55.609375 28.21875 55.609375 21.1875 
Q 55.609375 10.40625 48.1875 4.484375 
Q 40.765625 -1.421875 27.09375 -1.421875 
Q 22.515625 -1.421875 17.65625 -0.515625 
Q 12.796875 0.390625 7.625 2.203125 
L 7.625 11.71875 
Q 11.71875 9.328125 16.59375 8.109375 
Q 21.484375 6.890625 26.8125 6.890625 
Q 36.078125 6.890625 40.9375 10.546875 
Q 45.796875 14.203125 45.796875 21.1875 
Q 45.796875 27.640625 41.28125 31.265625 
Q 36.765625 34.90625 28.71875 34.90625 
L 20.21875 34.90625 
L 20.21875 43.015625 
L 29.109375 43.015625 
Q 36.375 43.015625 40.234375 45.921875 
Q 44.09375 48.828125 44.09375 54.296875 
Q 44.09375 59.90625 40.109375 62.90625 
Q 36.140625 65.921875 28.71875 65.921875 
Q 24.65625 65.921875 20.015625 65.03125 
Q 15.375 64.15625 9.8125 62.3125 
L 9.8125 71.09375 
Q 15.4375 72.65625 20.34375 73.4375 
Q 25.25 74.21875 29.59375 74.21875 
Q 40.828125 74.21875 47.359375 69.109375 
Q 53.90625 64.015625 53.90625 55.328125 
Q 53.90625 49.265625 50.4375 45.09375 
Q 46.96875 40.921875 40.578125 39.3125 
z
" id="DejaVuSans-51"/>
      </defs>
      <g transform="translate(42.734375 92.719219)scale(0.1 -0.1)">
       <use xlink:href="#DejaVuSans-48"/>
       <use x="63.623047" xlink:href="#DejaVuSans-46"/>
       <use x="95.410156" xlink:href="#DejaVuSans-51"/>
       <use x="159.033203" xlink:href="#DejaVuSans-48"/>
      </g>
     </g>
    </g>
    <g id="ytick_8">
     <g id="line2d_31">
      <path clip-path="url(#pa305f549cc)" d="M 72 61.74 
L 518.4 61.74 
" style="fill:none;stroke:#b0b0b0;stroke-linecap:square;stroke-width:0.8;"/>
     </g>
     <g id="line2d_32">
      <g>
       <use style="stroke:#000000;stroke-width:0.8;" x="72" xlink:href="#me36770998d" y="61.74"/>
      </g>
     </g>
     <g id="text_17">
      <!-- 0.35 -->
      <g transform="translate(42.734375 65.539219)scale(0.1 -0.1)">
       <use xlink:href="#DejaVuSans-48"/>
       <use x="63.623047" xlink:href="#DejaVuSans-46"/>
       <use x="95.410156" xlink:href="#DejaVuSans-51"/>
       <use x="159.033203" xlink:href="#DejaVuSans-53"/>
      </g>
     </g>
    </g>
    <g id="ytick_9">
     <g id="line2d_33">
      <path clip-path="url(#pa305f549cc)" d="M 72 34.56 
L 518.4 34.56 
" style="fill:none;stroke:#b0b0b0;stroke-linecap:square;stroke-width:0.8;"/>
     </g>
     <g id="line2d_34">
      <g>
       <use style="stroke:#000000;stroke-width:0.8;" x="72" xlink:href="#me36770998d" y="34.56"/>
      </g>
     </g>
     <g id="text_18">
      <!-- 0.40 -->
      <defs>
       <path d="M 37.796875 64.3125 
L 12.890625 25.390625 
L 37.796875 25.390625 
z
M 35.203125 72.90625 
L 47.609375 72.90625 
L 47.609375 25.390625 
L 58.015625 25.390625 
L 58.015625 17.1875 
L 47.609375 17.1875 
L 47.609375 0 
L 37.796875 0 
L 37.796875 17.1875 
L 4.890625 17.1875 
L 4.890625 26.703125 
z
" id="DejaVuSans-52"/>
      </defs>
      <g transform="translate(42.734375 38.359219)scale(0.1 -0.1)">
       <use xlink:href="#DejaVuSans-48"/>
       <use x="63.623047" xlink:href="#DejaVuSans-46"/>
       <use x="95.410156" xlink:href="#DejaVuSans-52"/>
       <use x="159.033203" xlink:href="#DejaVuSans-48"/>
      </g>
     </g>
    </g>
    <g id="text_19">
     <!-- Densidade espectral(m²/s³) -->
     <defs>
      <path d="M 19.671875 64.796875 
L 19.671875 8.109375 
L 31.59375 8.109375 
Q 46.6875 8.109375 53.6875 14.9375 
Q 60.6875 21.78125 60.6875 36.53125 
Q 60.6875 51.171875 53.6875 57.984375 
Q 46.6875 64.796875 31.59375 64.796875 
z
M 9.8125 72.90625 
L 30.078125 72.90625 
Q 51.265625 72.90625 61.171875 64.09375 
Q 71.09375 55.28125 71.09375 36.53125 
Q 71.09375 17.671875 61.125 8.828125 
Q 51.171875 0 30.078125 0 
L 9.8125 0 
z
" id="DejaVuSans-68"/>
      <path d="M 44.28125 53.078125 
L 44.28125 44.578125 
Q 40.484375 46.53125 36.375 47.5 
Q 32.28125 48.484375 27.875 48.484375 
Q 21.1875 48.484375 17.84375 46.4375 
Q 14.5 44.390625 14.5 40.28125 
Q 14.5 37.15625 16.890625 35.375 
Q 19.28125 33.59375 26.515625 31.984375 
L 29.59375 31.296875 
Q 39.15625 29.25 43.1875 25.515625 
Q 47.21875 21.78125 47.21875 15.09375 
Q 47.21875 7.46875 41.1875 3.015625 
Q 35.15625 -1.421875 24.609375 -1.421875 
Q 20.21875 -1.421875 15.453125 -0.5625 
Q 10.6875 0.296875 5.421875 2 
L 5.421875 11.28125 
Q 10.40625 8.6875 15.234375 7.390625 
Q 20.0625 6.109375 24.8125 6.109375 
Q 31.15625 6.109375 34.5625 8.28125 
Q 37.984375 10.453125 37.984375 14.40625 
Q 37.984375 18.0625 35.515625 20.015625 
Q 33.0625 21.96875 24.703125 23.78125 
L 21.578125 24.515625 
Q 13.234375 26.265625 9.515625 29.90625 
Q 5.8125 33.546875 5.8125 39.890625 
Q 5.8125 47.609375 11.28125 51.796875 
Q 16.75 56 26.8125 56 
Q 31.78125 56 36.171875 55.265625 
Q 40.578125 54.546875 44.28125 53.078125 
z
" id="DejaVuSans-115"/>
      <path d="M 45.40625 46.390625 
L 45.40625 75.984375 
L 54.390625 75.984375 
L 54.390625 0 
L 45.40625 0 
L 45.40625 8.203125 
Q 42.578125 3.328125 38.25 0.953125 
Q 33.9375 -1.421875 27.875 -1.421875 
Q 17.96875 -1.421875 11.734375 6.484375 
Q 5.515625 14.40625 5.515625 27.296875 
Q 5.515625 40.1875 11.734375 48.09375 
Q 17.96875 56 27.875 56 
Q 33.9375 56 38.25 53.625 
Q 42.578125 51.265625 45.40625 46.390625 
z
M 14.796875 27.296875 
Q 14.796875 17.390625 18.875 11.75 
Q 22.953125 6.109375 30.078125 6.109375 
Q 37.203125 6.109375 41.296875 11.75 
Q 45.40625 17.390625 45.40625 27.296875 
Q 45.40625 37.203125 41.296875 42.84375 
Q 37.203125 48.484375 30.078125 48.484375 
Q 22.953125 48.484375 18.875 42.84375 
Q 14.796875 37.203125 14.796875 27.296875 
z
" id="DejaVuSans-100"/>
      <path id="DejaVuSans-32"/>
      <path d="M 18.109375 8.203125 
L 18.109375 -20.796875 
L 9.078125 -20.796875 
L 9.078125 54.6875 
L 18.109375 54.6875 
L 18.109375 46.390625 
Q 20.953125 51.265625 25.265625 53.625 
Q 29.59375 56 35.59375 56 
Q 45.5625 56 51.78125 48.09375 
Q 58.015625 40.1875 58.015625 27.296875 
Q 58.015625 14.40625 51.78125 6.484375 
Q 45.5625 -1.421875 35.59375 -1.421875 
Q 29.59375 -1.421875 25.265625 0.953125 
Q 20.953125 3.328125 18.109375 8.203125 
z
M 48.6875 27.296875 
Q 48.6875 37.203125 44.609375 42.84375 
Q 40.53125 48.484375 33.40625 48.484375 
Q 26.265625 48.484375 22.1875 42.84375 
Q 18.109375 37.203125 18.109375 27.296875 
Q 18.109375 17.390625 22.1875 11.75 
Q 26.265625 6.109375 33.40625 6.109375 
Q 40.53125 6.109375 44.609375 11.75 
Q 48.6875 17.390625 48.6875 27.296875 
z
" id="DejaVuSans-112"/>
      <path d="M 18.3125 70.21875 
L 18.3125 54.6875 
L 36.8125 54.6875 
L 36.8125 47.703125 
L 18.3125 47.703125 
L 18.3125 18.015625 
Q 18.3125 11.328125 20.140625 9.421875 
Q 21.96875 7.515625 27.59375 7.515625 
L 36.8125 7.515625 
L 36.8125 0 
L 27.59375 0 
Q 17.1875 0 13.234375 3.875 
Q 9.28125 7.765625 9.28125 18.015625 
L 9.28125 47.703125 
L 2.6875 47.703125 
L 2.6875 54.6875 
L 9.28125 54.6875 
L 9.28125 70.21875 
z
" id="DejaVuSans-116"/>
      <path d="M 9.421875 75.984375 
L 18.40625 75.984375 
L 18.40625 0 
L 9.421875 0 
z
" id="DejaVuSans-108"/>
      <path d="M 52 44.1875 
Q 55.375 50.25 60.0625 53.125 
Q 64.75 56 71.09375 56 
Q 79.640625 56 84.28125 50.015625 
Q 88.921875 44.046875 88.921875 33.015625 
L 88.921875 0 
L 79.890625 0 
L 79.890625 32.71875 
Q 79.890625 40.578125 77.09375 44.375 
Q 74.3125 48.1875 68.609375 48.1875 
Q 61.625 48.1875 57.5625 43.546875 
Q 53.515625 38.921875 53.515625 30.90625 
L 53.515625 0 
L 44.484375 0 
L 44.484375 32.71875 
Q 44.484375 40.625 41.703125 44.40625 
Q 38.921875 48.1875 33.109375 48.1875 
Q 26.21875 48.1875 22.15625 43.53125 
Q 18.109375 38.875 18.109375 30.90625 
L 18.109375 0 
L 9.078125 0 
L 9.078125 54.6875 
L 18.109375 54.6875 
L 18.109375 46.1875 
Q 21.1875 51.21875 25.484375 53.609375 
Q 29.78125 56 35.6875 56 
Q 41.65625 56 45.828125 52.96875 
Q 50 49.953125 52 44.1875 
z
" id="DejaVuSans-109"/>
      <path d="M 13.09375 38.1875 
L 33.796875 38.1875 
L 33.796875 32.625 
L 4.59375 32.625 
L 4.59375 37.984375 
Q 6.25 39.5 9.328125 42.234375 
Q 26.125 57.125 26.125 61.71875 
Q 26.125 64.9375 23.578125 66.90625 
Q 21.046875 68.890625 16.890625 68.890625 
Q 14.359375 68.890625 11.375 68.03125 
Q 8.40625 67.1875 4.890625 65.484375 
L 4.890625 71.484375 
Q 8.640625 72.859375 11.890625 73.53125 
Q 15.140625 74.21875 17.921875 74.21875 
Q 25 74.21875 29.25 71 
Q 33.5 67.78125 33.5 62.5 
Q 33.5 55.71875 17.328125 41.84375 
Q 14.59375 39.5 13.09375 38.1875 
z
" id="DejaVuSans-178"/>
      <path d="M 25.390625 72.90625 
L 33.6875 72.90625 
L 8.296875 -9.28125 
L 0 -9.28125 
z
" id="DejaVuSans-47"/>
      <path d="M 25.59375 54.6875 
Q 30.078125 53.8125 32.546875 51.140625 
Q 35.015625 48.484375 35.015625 44.484375 
Q 35.015625 38.421875 30.375 35.15625 
Q 25.734375 31.890625 17.09375 31.890625 
Q 14.3125 31.890625 11.25 32.390625 
Q 8.203125 32.90625 4.78125 33.890625 
L 4.78125 39.796875 
Q 7.328125 38.484375 10.234375 37.84375 
Q 13.140625 37.203125 16.40625 37.203125 
Q 21.734375 37.203125 24.65625 39.125 
Q 27.59375 41.0625 27.59375 44.484375 
Q 27.59375 48.09375 24.875 49.953125 
Q 22.171875 51.8125 16.890625 51.8125 
L 12.703125 51.8125 
L 12.703125 57.078125 
L 17.28125 57.078125 
Q 21.875 57.078125 24.234375 58.609375 
Q 26.609375 60.15625 26.609375 63.09375 
Q 26.609375 65.921875 24.171875 67.40625 
Q 21.734375 68.890625 17.09375 68.890625 
Q 15.140625 68.890625 12.640625 68.453125 
Q 10.15625 68.015625 6.203125 66.890625 
L 6.203125 72.515625 
Q 9.765625 73.34375 12.890625 73.78125 
Q 16.015625 74.21875 18.703125 74.21875 
Q 25.734375 74.21875 29.859375 71.328125 
Q 33.984375 68.453125 33.984375 63.625 
Q 33.984375 60.25 31.78125 57.90625 
Q 29.59375 55.5625 25.59375 54.6875 
z
" id="DejaVuSans-179"/>
     </defs>
     <g transform="translate(36.654687 211.6675)rotate(-90)scale(0.1 -0.1)">
      <use xlink:href="#DejaVuSans-68"/>
      <use x="77.001953" xlink:href="#DejaVuSans-101"/>
      <use x="138.525391" xlink:href="#DejaVuSans-110"/>
      <use x="201.904297" xlink:href="#DejaVuSans-115"/>
      <use x="254.003906" xlink:href="#DejaVuSans-105"/>
      <use x="281.787109" xlink:href="#DejaVuSans-100"/>
      <use x="345.263672" xlink:href="#DejaVuSans-97"/>
      <use x="406.542969" xlink:href="#DejaVuSans-100"/>
      <use x="470.019531" xlink:href="#DejaVuSans-101"/>
      <use x="531.542969" xlink:href="#DejaVuSans-32"/>
      <use x="563.330078" xlink:href="#DejaVuSans-101"/>
      <use x="624.853516" xlink:href="#DejaVuSans-115"/>
      <use x="676.953125" xlink:href="#DejaVuSans-112"/>
      <use x="740.429688" xlink:href="#DejaVuSans-101"/>
      <use x="801.953125" xlink:href="#DejaVuSans-99"/>
      <use x="856.933594" xlink:href="#DejaVuSans-116"/>
      <use x="896.142578" xlink:href="#DejaVuSans-114"/>
      <use x="937.255859" xlink:href="#DejaVuSans-97"/>
      <use x="998.535156" xlink:href="#DejaVuSans-108"/>
      <use x="1026.318359" xlink:href="#DejaVuSans-40"/>
      <use x="1065.332031" xlink:href="#DejaVuSans-109"/>
      <use x="1162.744141" xlink:href="#DejaVuSans-178"/>
      <use x="1202.832031" xlink:href="#DejaVuSans-47"/>
      <use x="1236.523438" xlink:href="#DejaVuSans-115"/>
      <use x="1288.623047" xlink:href="#DejaVuSans-179"/>
      <use x="1328.710938" xlink:href="#DejaVuSans-41"/>
     </g>
    </g>
   </g>
   <g id="line2d_35">
    <path clip-path="url(#pa305f549cc)" d="M 71.542154 189.266521 
L 72 222.871478 
L 72.457846 233.022997 
L 72.915692 245.737551 
L 73.373538 242.527686 
L 73.831385 236.394601 
L 74.289231 243.39489 
L 74.747077 231.939734 
L 75.204923 236.464271 
L 75.662769 247.883344 
L 76.120615 245.93866 
L 76.578462 234.679216 
L 77.036308 237.905532 
L 77.494154 246.138088 
L 77.952 244.251042 
L 78.409846 235.378747 
L 78.867692 241.505577 
L 79.325538 251.62645 
L 79.783385 249.618998 
L 80.241231 251.773378 
L 80.699077 246.888308 
L 81.156923 229.134452 
L 81.614769 201.743731 
L 82.072615 207.604734 
L 82.988308 238.398337 
L 83.446154 219.898295 
L 83.904 226.129276 
L 84.361846 234.556106 
L 84.819692 245.618289 
L 85.277538 241.857535 
L 85.735385 239.932453 
L 86.193231 234.815826 
L 86.651077 227.570567 
L 87.108923 236.215871 
L 87.566769 239.951607 
L 88.024615 245.51368 
L 88.482462 246.954248 
L 88.940308 240.802205 
L 89.398154 238.860002 
L 89.856 248.41996 
L 90.313846 246.931589 
L 90.771692 232.74016 
L 91.229538 231.11675 
L 91.687385 244.160504 
L 92.145231 247.414526 
L 92.603077 243.324934 
L 93.060923 250.252049 
L 93.518769 235.257151 
L 93.976615 204.977446 
L 94.434462 212.956212 
L 94.892308 237.031889 
L 95.808 251.128502 
L 96.265846 249.140939 
L 96.723692 244.931569 
L 97.181538 239.316404 
L 98.097231 249.444575 
L 98.555077 250.688971 
L 99.012923 250.888362 
L 99.470769 250.319409 
L 99.928615 250.852277 
L 100.844308 248.483294 
L 101.302154 244.253686 
L 101.76 238.674727 
L 102.217846 217.652105 
L 102.675692 174.803208 
L 103.133538 191.754207 
L 103.591385 195.513232 
L 104.049231 213.400279 
L 104.507077 241.604602 
L 104.964923 250.352599 
L 105.880615 243.490597 
L 106.338462 249.995264 
L 106.796308 251.308843 
L 107.254154 247.516363 
L 107.712 229.398659 
L 108.169846 222.681269 
L 108.627692 241.543637 
L 109.085538 251.068253 
L 110.001231 247.204206 
L 110.459077 248.800009 
L 110.916923 250.904303 
L 111.374769 249.636146 
L 111.832615 246.836606 
L 112.290462 250.410063 
L 112.748308 250.801523 
L 113.206154 249.023442 
L 113.664 251.546596 
L 114.121846 249.749387 
L 114.579692 237.245547 
L 115.495385 219.379519 
L 115.953231 219.569228 
L 116.411077 250.18151 
L 116.868923 239.449694 
L 117.326769 234.580867 
L 117.784615 227.603616 
L 118.242462 214.478748 
L 118.700308 230.753045 
L 119.158154 228.729283 
L 119.616 231.915812 
L 120.073846 233.835884 
L 120.531692 237.51856 
L 120.989538 234.415949 
L 121.447385 220.581125 
L 121.905231 202.724434 
L 122.363077 210.169235 
L 122.820923 239.34851 
L 123.278769 250.367136 
L 123.736615 245.197471 
L 124.194462 226.999847 
L 124.652308 223.318359 
L 125.110154 243.287048 
L 125.568 237.457015 
L 126.025846 213.137196 
L 126.483692 232.699635 
L 126.941538 246.425155 
L 127.399385 235.750746 
L 127.857231 221.049649 
L 128.315077 225.590698 
L 128.772923 185.639696 
L 129.230769 181.538803 
L 129.688615 204.032995 
L 130.146462 240.546626 
L 130.604308 243.444169 
L 131.062154 242.274252 
L 131.52 249.462886 
L 131.977846 240.084577 
L 132.893538 198.325068 
L 133.351385 197.683709 
L 133.809231 230.679242 
L 134.267077 251.742382 
L 134.724923 231.77771 
L 135.640615 217.497086 
L 136.098462 192.860193 
L 136.556308 156.081461 
L 137.014154 100.879066 
L 137.472 90.583773 
L 137.929846 141.17671 
L 138.387692 176.271078 
L 138.845538 189.189092 
L 139.303385 180.752772 
L 140.219077 226.390362 
L 140.676923 234.184603 
L 141.134769 153.569175 
L 141.592615 127.102412 
L 142.050462 211.165777 
L 142.508308 224.526225 
L 142.966154 215.176707 
L 143.424 237.799472 
L 143.881846 251.537863 
L 144.339692 222.426739 
L 144.797538 167.421558 
L 145.713231 251.102812 
L 146.171077 224.10991 
L 146.628923 173.242153 
L 147.086769 165.013105 
L 147.544615 213.814587 
L 148.002462 243.85618 
L 148.460308 244.909921 
L 148.918154 241.890434 
L 149.376 231.395092 
L 149.833846 236.744832 
L 150.291692 173.202483 
L 150.749538 125.713675 
L 151.207385 98.232221 
L 151.665231 133.375277 
L 152.123077 154.636841 
L 153.038769 225.092831 
L 153.496615 244.338802 
L 153.954462 235.500475 
L 154.870154 140.814866 
L 155.785846 227.564436 
L 156.243692 168.404999 
L 157.159385 245.355318 
L 157.617231 225.155504 
L 158.075077 162.807085 
L 158.532923 158.657733 
L 158.990769 174.674488 
L 159.448615 223.736215 
L 159.906462 212.361782 
L 160.364308 176.249926 
L 160.822154 151.594578 
L 161.28 163.67613 
L 161.737846 208.46796 
L 162.195692 238.31101 
L 162.653538 232.796206 
L 163.111385 229.057731 
L 163.569231 228.334001 
L 164.027077 222.692073 
L 164.484923 222.582683 
L 164.942769 213.205122 
L 165.400615 167.058992 
L 166.288563 -1 
M 166.376575 -1 
L 166.774154 34.49291 
L 167.689846 133.721871 
L 168.147692 166.732711 
L 168.605538 141.172242 
L 169.063385 103.785325 
L 169.521231 53.142652 
L 169.979077 27.847432 
L 170.436923 105.851109 
L 170.894769 206.567004 
L 171.352615 225.965723 
L 171.810462 200.548587 
L 172.726154 15.233731 
L 173.184 107.616469 
L 173.641846 225.703769 
L 174.099692 238.542248 
L 174.557538 203.476827 
L 175.015385 232.504144 
L 175.473231 242.642695 
L 175.931077 242.136472 
L 176.388923 211.652047 
L 176.846769 216.992107 
L 177.304615 233.276206 
L 178.220308 247.596315 
L 178.678154 245.44388 
L 179.136 237.425929 
L 179.593846 181.964603 
L 180.051692 177.085412 
L 180.509538 196.291042 
L 180.967385 208.676895 
L 181.425231 246.901228 
L 181.883077 247.779051 
L 182.340923 231.530734 
L 182.798769 163.514906 
L 183.256615 128.392199 
L 184.172308 241.276738 
L 184.630154 247.725646 
L 185.088 221.613116 
L 185.545846 227.315197 
L 186.003692 241.456468 
L 186.461538 248.910197 
L 186.919385 248.668116 
L 187.835077 225.237502 
L 188.292923 241.850852 
L 188.750769 248.038551 
L 189.208615 230.924756 
L 189.666462 204.014514 
L 190.124308 217.187113 
L 190.582154 219.042621 
L 191.04 231.579474 
L 191.497846 249.935311 
L 191.955692 206.60379 
L 192.413538 104.075716 
L 192.871385 43.105019 
L 193.787077 186.36589 
L 194.244923 206.22619 
L 194.702769 219.958128 
L 195.160615 249.65565 
L 196.076308 183.469792 
L 196.534154 222.05934 
L 196.992 246.800655 
L 197.449846 232.649592 
L 197.907692 210.798954 
L 198.365538 176.434147 
L 198.823385 193.770806 
L 199.281231 196.735956 
L 199.739077 211.618157 
L 200.196923 185.165919 
L 200.654769 190.184176 
L 201.112615 171.626349 
L 201.570462 178.274353 
L 202.028308 192.917195 
L 202.944 238.852875 
L 203.401846 248.589962 
L 203.859692 250.609792 
L 204.317538 243.313766 
L 204.775385 242.257405 
L 205.233231 229.123481 
L 205.691077 235.339353 
L 206.148923 250.449325 
L 206.606769 251.495874 
L 207.064615 245.158738 
L 207.522462 233.012603 
L 207.980308 228.574812 
L 208.438154 250.735239 
L 208.896 230.217387 
L 209.353846 196.797564 
L 209.811692 206.912927 
L 210.269538 238.277978 
L 210.727385 244.512818 
L 211.185231 245.813141 
L 211.643077 244.385555 
L 212.558769 250.636603 
L 213.016615 248.865992 
L 213.474462 249.965214 
L 213.932308 245.279846 
L 214.390154 230.904656 
L 214.848 209.416434 
L 215.305846 202.453733 
L 215.763692 236.524046 
L 216.221538 247.701119 
L 216.679385 245.118724 
L 217.137231 234.786593 
L 217.595077 237.800063 
L 218.052923 248.197933 
L 218.510769 247.441264 
L 218.968615 248.175271 
L 219.426462 250.087522 
L 219.884308 241.426251 
L 220.342154 238.115853 
L 220.8 243.064609 
L 221.257846 246.142798 
L 221.715692 247.163364 
L 222.173538 244.566513 
L 222.631385 246.879571 
L 223.089231 251.486047 
L 223.547077 251.794154 
L 224.004923 251.158255 
L 224.462769 249.299811 
L 224.920615 251.149317 
L 225.378462 241.816435 
L 225.836308 223.567213 
L 226.294154 230.451144 
L 227.209846 237.308321 
L 227.667692 246.629187 
L 228.125538 249.460335 
L 228.583385 246.037796 
L 229.041231 244.77393 
L 229.499077 244.989154 
L 229.956923 246.091825 
L 230.414769 249.717023 
L 230.872615 242.974046 
L 231.330462 223.329832 
L 231.788308 221.107017 
L 232.246154 238.485228 
L 232.704 250.728081 
L 233.161846 248.719522 
L 233.619692 247.491904 
L 234.077538 249.650256 
L 234.535385 247.379586 
L 234.993231 247.519819 
L 235.451077 246.879235 
L 235.908923 245.016847 
L 236.366769 243.702351 
L 237.282462 251.791385 
L 238.198154 247.166374 
L 238.656 247.751984 
L 239.571692 243.422401 
L 240.029538 240.817535 
L 240.487385 242.762383 
L 240.945231 249.394252 
L 241.403077 250.994111 
L 241.860923 250.932319 
L 242.776615 245.168771 
L 243.692308 250.864461 
L 244.608 243.582756 
L 245.065846 241.226999 
L 245.523692 244.17012 
L 245.981538 248.772163 
L 246.439385 248.498315 
L 246.897231 243.506562 
L 247.355077 241.194225 
L 248.270769 250.491287 
L 248.728615 251.663126 
L 249.186462 250.749378 
L 249.644308 246.253828 
L 250.102154 245.895931 
L 250.56 251.359605 
L 251.017846 249.823107 
L 251.475692 243.218271 
L 251.933538 238.475863 
L 252.391385 239.406018 
L 252.849231 242.942796 
L 253.307077 243.947659 
L 254.680615 251.610797 
L 255.138462 251.33782 
L 255.596308 248.840421 
L 256.054154 247.442087 
L 256.512 250.325293 
L 256.969846 250.726524 
L 257.427692 247.116703 
L 257.885538 250.912367 
L 258.343385 248.176008 
L 258.801231 246.624102 
L 259.259077 246.941577 
L 259.716923 249.706084 
L 260.174769 250.499915 
L 260.632615 250.130785 
L 261.090462 249.342986 
L 261.548308 242.896567 
L 262.006154 242.829128 
L 262.921846 249.277169 
L 263.379692 249.859693 
L 263.837538 249.365555 
L 264.295385 249.874862 
L 264.753231 251.269818 
L 265.211077 249.927007 
L 265.668923 244.443866 
L 266.126769 247.168154 
L 266.584615 248.066692 
L 267.500308 251.824407 
L 267.958154 250.696258 
L 268.416 251.682581 
L 268.873846 251.647428 
L 269.331692 250.444222 
L 269.789538 250.758372 
L 270.247385 250.724701 
L 270.705231 249.068093 
L 271.163077 250.781178 
L 271.620923 249.420687 
L 272.078769 246.149669 
L 272.536615 240.712204 
L 272.994462 239.014283 
L 273.452308 241.075173 
L 274.368 249.751258 
L 274.825846 251.174501 
L 275.283692 249.459115 
L 275.741538 248.953627 
L 276.199385 248.712993 
L 276.657231 248.888987 
L 277.572923 233.833455 
L 278.488615 244.571258 
L 278.946462 246.130157 
L 279.404308 243.577389 
L 279.862154 246.101384 
L 280.32 249.501858 
L 280.777846 251.59547 
L 281.235692 248.50991 
L 281.693538 246.825473 
L 282.151385 249.272872 
L 282.609231 250.044876 
L 283.067077 251.063705 
L 283.524923 250.452622 
L 283.982769 248.932945 
L 284.898462 251.130214 
L 285.356308 250.02042 
L 285.814154 249.472591 
L 286.272 246.468988 
L 286.729846 244.936252 
L 287.187692 249.017192 
L 287.645538 251.716586 
L 288.103385 248.532935 
L 288.561231 246.288966 
L 289.019077 247.94856 
L 289.476923 250.976399 
L 289.934769 249.975069 
L 290.392615 241.409479 
L 290.850462 239.763826 
L 291.308308 241.737601 
L 292.224 251.554999 
L 292.681846 251.913117 
L 293.139692 251.21535 
L 294.055385 251.285693 
L 294.513231 251.603932 
L 294.971077 251.665112 
L 295.428923 251.920714 
L 295.886769 251.678678 
L 296.344615 248.826062 
L 296.802462 247.01888 
L 297.260308 247.516386 
L 297.718154 249.643556 
L 298.176 250.501457 
L 298.633846 250.067087 
L 299.091692 249.266216 
L 300.007385 251.658214 
L 300.465231 251.400255 
L 300.923077 249.860578 
L 301.380923 250.160176 
L 301.838769 251.03763 
L 302.296615 249.122468 
L 302.754462 248.40926 
L 303.212308 250.560658 
L 303.670154 250.63848 
L 304.128 251.022864 
L 304.585846 251.642363 
L 305.043692 251.265132 
L 305.501538 247.75155 
L 305.959385 245.203383 
L 306.417231 246.998032 
L 306.875077 249.41727 
L 307.332923 251.027762 
L 308.248615 251.814615 
L 308.706462 251.925451 
L 309.622154 248.609298 
L 310.08 247.590485 
L 310.537846 243.001555 
L 311.453538 247.363285 
L 311.911385 250.327232 
L 312.369231 251.573681 
L 312.827077 250.888017 
L 313.284923 251.185798 
L 313.742769 249.442481 
L 314.200615 249.407517 
L 314.658462 251.577814 
L 315.574154 248.437197 
L 316.489846 249.117928 
L 316.947692 251.324089 
L 317.405538 251.741583 
L 317.863385 251.43646 
L 318.321231 250.906792 
L 318.779077 248.982821 
L 319.236923 248.700959 
L 319.694769 250.147948 
L 320.152615 250.083165 
L 320.610462 247.743296 
L 321.068308 247.205139 
L 321.526154 245.599093 
L 321.984 247.951737 
L 322.441846 249.39207 
L 322.899692 248.474475 
L 323.357538 249.190508 
L 323.815385 251.094092 
L 324.273231 251.725208 
L 324.731077 251.313459 
L 325.188923 251.140196 
L 325.646769 251.128715 
L 326.104615 249.970279 
L 327.020308 243.399187 
L 327.936 240.188943 
L 328.393846 243.74262 
L 328.851692 249.468881 
L 329.309538 250.047543 
L 329.767385 248.733477 
L 330.225231 248.905055 
L 330.683077 244.764314 
L 331.140923 245.823015 
L 331.598769 249.837285 
L 332.056615 251.593593 
L 332.514462 251.101814 
L 332.972308 249.508055 
L 333.430154 250.281364 
L 333.888 250.825249 
L 334.345846 250.15038 
L 334.803692 250.560346 
L 335.261538 251.840152 
L 335.719385 251.6288 
L 336.177231 251.668472 
L 336.635077 250.901626 
L 337.550769 251.993994 
L 338.008615 251.87745 
L 338.466462 251.990234 
L 338.924308 251.634966 
L 339.382154 251.590649 
L 340.297846 251.901831 
L 340.755692 251.437925 
L 341.671385 242.354431 
L 342.129231 244.47245 
L 342.587077 249.680969 
L 343.502769 251.71893 
L 343.960615 251.665378 
L 344.418462 251.882921 
L 344.876308 251.274864 
L 345.334154 251.570864 
L 345.792 250.534124 
L 346.249846 248.711667 
L 347.165538 250.958811 
L 347.623385 251.349539 
L 348.081231 250.823892 
L 348.539077 249.517841 
L 348.996923 249.296682 
L 349.454769 249.837907 
L 349.912615 250.993206 
L 350.370462 251.343837 
L 350.828308 251.0337 
L 352.201846 251.97087 
L 352.659692 251.77444 
L 353.117538 250.322966 
L 353.575385 250.898903 
L 354.033231 251.781806 
L 354.948923 251.180154 
L 355.406769 250.556498 
L 355.864615 251.40471 
L 356.322462 251.816218 
L 356.780308 250.886079 
L 357.238154 250.547667 
L 357.696 251.289339 
L 358.153846 251.794687 
L 358.611692 251.922275 
L 359.069538 251.754818 
L 359.527385 250.894073 
L 359.985231 249.335939 
L 360.443077 249.316065 
L 360.900923 250.515441 
L 361.358769 249.469958 
L 361.816615 249.602149 
L 362.274462 251.15465 
L 362.732308 250.142752 
L 363.190154 249.585283 
L 363.648 250.367988 
L 364.563692 251.037816 
L 365.021538 250.676326 
L 365.479385 250.626706 
L 365.937231 251.472668 
L 366.395077 251.971369 
L 366.852923 251.280945 
L 367.310769 249.554909 
L 367.768615 248.868161 
L 368.226462 249.377422 
L 368.684308 251.317603 
L 369.142154 251.442644 
L 369.6 250.963631 
L 370.057846 251.839009 
L 370.515692 251.962182 
L 370.973538 251.650118 
L 371.431385 251.884331 
L 371.889231 251.800863 
L 372.347077 250.466557 
L 372.804923 249.784761 
L 373.262769 248.709936 
L 373.720615 248.783905 
L 374.636308 249.823015 
L 375.094154 251.010884 
L 375.552 251.574011 
L 376.009846 251.061925 
L 376.467692 251.664706 
L 376.925538 251.837229 
L 377.383385 251.558096 
L 378.299077 250.15656 
L 378.756923 250.769557 
L 379.214769 251.89592 
L 379.672615 251.911312 
L 380.588308 251.122063 
L 381.046154 251.425277 
L 381.504 251.986491 
L 381.961846 251.398999 
L 382.419692 250.588506 
L 383.335385 251.756223 
L 383.793231 251.786303 
L 384.251077 250.613335 
L 384.708923 250.425702 
L 385.166769 251.610467 
L 385.624615 251.748721 
L 386.082462 251.407837 
L 386.540308 251.253838 
L 386.998154 250.652962 
L 387.456 248.46913 
L 387.913846 249.644731 
L 388.371692 251.899371 
L 388.829538 251.200905 
L 389.287385 249.932244 
L 389.745231 250.637543 
L 390.203077 249.951946 
L 391.118769 251.976004 
L 391.576615 251.662812 
L 392.034462 251.654587 
L 392.492308 251.850408 
L 392.950154 251.676007 
L 393.408 251.262205 
L 393.865846 251.338133 
L 394.323692 251.825707 
L 394.781538 251.961355 
L 396.155077 251.762999 
L 396.612923 251.938146 
L 397.070769 251.140958 
L 397.528615 249.679759 
L 397.986462 249.584776 
L 398.444308 251.229636 
L 398.902154 251.582402 
L 399.36 250.033917 
L 399.817846 247.146322 
L 400.275692 247.285497 
L 400.733538 248.400092 
L 401.191385 250.61987 
L 401.649231 251.974383 
L 402.107077 251.781877 
L 402.564923 251.919995 
L 403.022769 250.999539 
L 403.480615 250.710284 
L 403.938462 250.575495 
L 404.396308 250.856029 
L 404.854154 251.570656 
L 405.312 251.920566 
L 405.769846 250.497536 
L 406.227692 250.15745 
L 407.143385 251.988864 
L 408.516923 251.505693 
L 408.974769 251.606686 
L 409.432615 250.75127 
L 409.890462 250.456641 
L 410.348308 251.83213 
L 410.806154 251.654271 
L 411.264 251.158148 
L 411.721846 251.212855 
L 412.637538 250.778037 
L 413.095385 250.888549 
L 413.553231 250.68018 
L 414.468923 251.968531 
L 415.842462 251.696826 
L 416.300308 251.598369 
L 416.758154 251.730175 
L 417.216 251.998913 
L 417.673846 251.326198 
L 418.131692 250.407245 
L 419.047385 251.66929 
L 419.505231 251.921952 
L 419.963077 251.53844 
L 420.420923 250.723025 
L 421.336615 251.249141 
L 421.794462 251.716875 
L 422.252308 251.680926 
L 422.710154 250.113365 
L 423.168 250.210541 
L 423.625846 251.49901 
L 424.541538 251.250517 
L 424.999385 251.419559 
L 425.457231 250.381907 
L 425.915077 250.313388 
L 426.372923 251.762148 
L 426.830769 251.615641 
L 427.288615 251.337444 
L 427.746462 251.774953 
L 428.204308 251.858561 
L 428.662154 250.672297 
L 429.12 250.261269 
L 429.577846 250.370546 
L 430.035692 250.718108 
L 430.493538 251.40962 
L 430.951385 251.771363 
L 431.409231 251.741809 
L 432.324923 251.187585 
L 433.240615 250.976505 
L 433.698462 251.197926 
L 434.614154 251.911852 
L 435.529846 251.999361 
L 436.445538 251.903016 
L 437.361231 251.549749 
L 437.819077 251.986907 
L 438.734769 251.365993 
L 439.192615 250.957794 
L 439.650462 251.236884 
L 440.108308 251.693974 
L 440.566154 251.828316 
L 441.481846 251.865989 
L 442.855385 251.972386 
L 443.313231 251.713358 
L 443.771077 251.031763 
L 444.228923 251.324576 
L 444.686769 251.310976 
L 445.144615 251.893487 
L 445.602462 251.909671 
L 446.060308 251.715606 
L 446.976 251.017745 
L 447.433846 250.968803 
L 447.891692 251.711743 
L 448.349538 251.913436 
L 449.265231 251.42205 
L 449.723077 251.395929 
L 450.180923 251.510809 
L 451.096615 251.515377 
L 452.012308 250.92123 
L 452.470154 251.395246 
L 453.385846 251.836108 
L 454.301538 251.989275 
L 454.759385 251.803084 
L 455.675077 250.38533 
L 456.132923 250.92424 
L 456.590769 251.721494 
L 457.048615 251.150649 
L 457.506462 250.945097 
L 457.964308 251.871547 
L 458.422154 251.915091 
L 459.795692 251.449372 
L 460.253538 251.196411 
L 460.711385 251.338708 
L 462.084923 251.262581 
L 462.542769 251.601458 
L 463.000615 251.769507 
L 463.916308 250.524517 
L 464.374154 250.63298 
L 464.832 251.644797 
L 465.289846 251.941921 
L 466.205538 251.747226 
L 466.663385 251.292604 
L 467.121231 250.619965 
L 467.579077 251.163355 
L 468.036923 251.505123 
L 468.494769 251.553564 
L 468.952615 251.445728 
L 469.410462 251.690105 
L 469.868308 251.759875 
L 470.326154 251.21462 
L 470.784 250.896518 
L 471.699692 251.863588 
L 472.157538 251.423578 
L 472.615385 251.816688 
L 473.073231 251.832491 
L 473.531077 251.604373 
L 473.988923 251.510326 
L 474.446769 251.552383 
L 474.904615 251.86418 
L 475.362462 251.886921 
L 475.820308 251.78388 
L 476.278154 251.922013 
L 476.736 251.816987 
L 477.193846 251.342424 
L 477.651692 251.07995 
L 478.109538 251.362168 
L 478.567385 251.064634 
L 479.483077 251.816018 
L 479.940923 251.016529 
L 480.398769 250.676354 
L 481.314462 251.952389 
L 482.688 251.886326 
L 483.145846 251.577726 
L 483.603692 251.035965 
L 484.061538 249.986964 
L 484.519385 249.568416 
L 484.977231 250.100458 
L 485.435077 251.25151 
L 485.892923 251.659134 
L 486.808615 251.756782 
L 487.724308 251.993634 
L 488.182154 251.92156 
L 488.64 251.519445 
L 490.013538 251.774147 
L 490.471385 251.879314 
L 490.929231 251.625622 
L 491.844923 251.735355 
L 492.760615 251.640078 
L 493.218462 251.872862 
L 493.676308 251.977833 
L 494.592 251.723929 
L 495.049846 251.575439 
L 495.507692 251.586213 
L 495.965538 251.716716 
L 496.881231 250.77917 
L 497.339077 250.957123 
L 497.796923 251.440817 
L 498.254769 251.709209 
L 498.712615 251.687389 
L 499.628308 251.009478 
L 500.086154 251.232492 
L 500.544 251.628839 
L 501.001846 251.823153 
L 501.459692 251.805812 
L 501.917538 251.634563 
L 502.375385 251.665293 
L 502.833231 251.850877 
L 504.206769 251.823984 
L 504.664615 251.668604 
L 505.122462 251.919666 
L 506.038154 251.949739 
L 506.953846 251.600868 
L 508.327385 251.672383 
L 508.785231 251.889412 
L 509.243077 251.966362 
L 510.158769 251.576534 
L 511.532308 251.98885 
L 512.905846 251.911457 
L 513.363692 251.869724 
L 513.821538 251.961548 
L 514.279385 251.896174 
L 514.737231 251.511083 
L 515.195077 251.42093 
L 515.652923 251.584168 
L 516.568615 251.082467 
L 517.026462 251.230586 
L 517.942154 251.889882 
L 518.857846 251.847136 
L 518.857846 251.847136 
" style="fill:none;stroke:#000000;stroke-linecap:square;stroke-width:1.5;"/>
   </g>
   <g id="patch_3">
    <path d="M 72 252 
L 72 34.56 
" style="fill:none;stroke:#000000;stroke-linecap:square;stroke-linejoin:miter;stroke-width:0.8;"/>
   </g>
   <g id="patch_4">
    <path d="M 518.4 252 
L 518.4 34.56 
" style="fill:none;stroke:#000000;stroke-linecap:square;stroke-linejoin:miter;stroke-width:0.8;"/>
   </g>
   <g id="patch_5">
    <path d="M 72 252 
L 518.4 252 
" style="fill:none;stroke:#000000;stroke-linecap:square;stroke-linejoin:miter;stroke-width:0.8;"/>
   </g>
   <g id="patch_6">
    <path d="M 72 34.56 
L 518.4 34.56 
" style="fill:none;stroke:#000000;stroke-linecap:square;stroke-linejoin:miter;stroke-width:0.8;"/>
   </g>
   <g id="text_20">
    <!--  Periodograma -->
    <defs>
     <path d="M 19.671875 64.796875 
L 19.671875 37.40625 
L 32.078125 37.40625 
Q 38.96875 37.40625 42.71875 40.96875 
Q 46.484375 44.53125 46.484375 51.125 
Q 46.484375 57.671875 42.71875 61.234375 
Q 38.96875 64.796875 32.078125 64.796875 
z
M 9.8125 72.90625 
L 32.078125 72.90625 
Q 44.34375 72.90625 50.609375 67.359375 
Q 56.890625 61.8125 56.890625 51.125 
Q 56.890625 40.328125 50.609375 34.8125 
Q 44.34375 29.296875 32.078125 29.296875 
L 19.671875 29.296875 
L 19.671875 0 
L 9.8125 0 
z
" id="DejaVuSans-80"/>
     <path d="M 30.609375 48.390625 
Q 23.390625 48.390625 19.1875 42.75 
Q 14.984375 37.109375 14.984375 27.296875 
Q 14.984375 17.484375 19.15625 11.84375 
Q 23.34375 6.203125 30.609375 6.203125 
Q 37.796875 6.203125 41.984375 11.859375 
Q 46.1875 17.53125 46.1875 27.296875 
Q 46.1875 37.015625 41.984375 42.703125 
Q 37.796875 48.390625 30.609375 48.390625 
z
M 30.609375 56 
Q 42.328125 56 49.015625 48.375 
Q 55.71875 40.765625 55.71875 27.296875 
Q 55.71875 13.875 49.015625 6.21875 
Q 42.328125 -1.421875 30.609375 -1.421875 
Q 18.84375 -1.421875 12.171875 6.21875 
Q 5.515625 13.875 5.515625 27.296875 
Q 5.515625 40.765625 12.171875 48.375 
Q 18.84375 56 30.609375 56 
z
" id="DejaVuSans-111"/>
     <path d="M 45.40625 27.984375 
Q 45.40625 37.75 41.375 43.109375 
Q 37.359375 48.484375 30.078125 48.484375 
Q 22.859375 48.484375 18.828125 43.109375 
Q 14.796875 37.75 14.796875 27.984375 
Q 14.796875 18.265625 18.828125 12.890625 
Q 22.859375 7.515625 30.078125 7.515625 
Q 37.359375 7.515625 41.375 12.890625 
Q 45.40625 18.265625 45.40625 27.984375 
z
M 54.390625 6.78125 
Q 54.390625 -7.171875 48.1875 -13.984375 
Q 42 -20.796875 29.203125 -20.796875 
Q 24.46875 -20.796875 20.265625 -20.09375 
Q 16.0625 -19.390625 12.109375 -17.921875 
L 12.109375 -9.1875 
Q 16.0625 -11.328125 19.921875 -12.34375 
Q 23.78125 -13.375 27.78125 -13.375 
Q 36.625 -13.375 41.015625 -8.765625 
Q 45.40625 -4.15625 45.40625 5.171875 
L 45.40625 9.625 
Q 42.625 4.78125 38.28125 2.390625 
Q 33.9375 0 27.875 0 
Q 17.828125 0 11.671875 7.65625 
Q 5.515625 15.328125 5.515625 27.984375 
Q 5.515625 40.671875 11.671875 48.328125 
Q 17.828125 56 27.875 56 
Q 33.9375 56 38.28125 53.609375 
Q 42.625 51.21875 45.40625 46.390625 
L 45.40625 54.6875 
L 54.390625 54.6875 
z
" id="DejaVuSans-103"/>
    </defs>
    <g transform="translate(251.442187 28.56)scale(0.12 -0.12)">
     <use xlink:href="#DejaVuSans-32"/>
     <use x="31.787109" xlink:href="#DejaVuSans-80"/>
     <use x="88.464844" xlink:href="#DejaVuSans-101"/>
     <use x="149.988281" xlink:href="#DejaVuSans-114"/>
     <use x="191.101562" xlink:href="#DejaVuSans-105"/>
     <use x="218.884766" xlink:href="#DejaVuSans-111"/>
     <use x="280.066406" xlink:href="#DejaVuSans-100"/>
     <use x="343.542969" xlink:href="#DejaVuSans-111"/>
     <use x="404.724609" xlink:href="#DejaVuSans-103"/>
     <use x="468.201172" xlink:href="#DejaVuSans-114"/>
     <use x="509.314453" xlink:href="#DejaVuSans-97"/>
     <use x="570.59375" xlink:href="#DejaVuSans-109"/>
     <use x="668.005859" xlink:href="#DejaVuSans-97"/>
    </g>
   </g>
  </g>
 </g>
 <defs>
  <clipPath id="pa305f549cc">
   <rect height="217.44" width="446.4" x="72" y="34.56"/>
  </clipPath>
 </defs>
</svg>
