<?xml version="1.0" encoding="utf-8" standalone="no"?>
<!DOCTYPE svg PUBLIC "-//W3C//DTD SVG 1.1//EN"
  "http://www.w3.org/Graphics/SVG/1.1/DTD/svg11.dtd">
<!-- Created with matplotlib (https://matplotlib.org/) -->
<svg height="288pt" version="1.1" viewBox="0 0 576 288" width="576pt" xmlns="http://www.w3.org/2000/svg" xmlns:xlink="http://www.w3.org/1999/xlink">
 <defs>
  <style type="text/css">
*{stroke-linecap:butt;stroke-linejoin:round;}
  </style>
 </defs>
 <g id="figure_1">
  <g id="patch_1">
   <path d="M 0 288 
L 576 288 
L 576 0 
L 0 0 
z
" style="fill:#ffffff;"/>
  </g>
  <g id="axes_1">
   <g id="patch_2">
    <path d="M 72 252 
L 518.4 252 
L 518.4 34.56 
L 72 34.56 
z
" style="fill:#ffffff;"/>
   </g>
   <g id="matplotlib.axis_1">
    <g id="xtick_1">
     <g id="line2d_1">
      <path clip-path="url(#pfe665f8f54)" d="M 117.784615 252 
L 117.784615 34.56 
" style="fill:none;stroke:#b0b0b0;stroke-linecap:square;stroke-width:0.8;"/>
     </g>
     <g id="line2d_2">
      <defs>
       <path d="M 0 0 
L 0 3.5 
" id="m8125fdffc3" style="stroke:#000000;stroke-width:0.8;"/>
      </defs>
      <g>
       <use style="stroke:#000000;stroke-width:0.8;" x="117.784615" xlink:href="#m8125fdffc3" y="252"/>
      </g>
     </g>
     <g id="text_1">
      <!-- 2.5 -->
      <defs>
       <path d="M 19.1875 8.296875 
L 53.609375 8.296875 
L 53.609375 0 
L 7.328125 0 
L 7.328125 8.296875 
Q 12.9375 14.109375 22.625 23.890625 
Q 32.328125 33.6875 34.8125 36.53125 
Q 39.546875 41.84375 41.421875 45.53125 
Q 43.3125 49.21875 43.3125 52.78125 
Q 43.3125 58.59375 39.234375 62.25 
Q 35.15625 65.921875 28.609375 65.921875 
Q 23.96875 65.921875 18.8125 64.3125 
Q 13.671875 62.703125 7.8125 59.421875 
L 7.8125 69.390625 
Q 13.765625 71.78125 18.9375 73 
Q 24.125 74.21875 28.421875 74.21875 
Q 39.75 74.21875 46.484375 68.546875 
Q 53.21875 62.890625 53.21875 53.421875 
Q 53.21875 48.921875 51.53125 44.890625 
Q 49.859375 40.875 45.40625 35.40625 
Q 44.1875 33.984375 37.640625 27.21875 
Q 31.109375 20.453125 19.1875 8.296875 
z
" id="DejaVuSans-50"/>
       <path d="M 10.6875 12.40625 
L 21 12.40625 
L 21 0 
L 10.6875 0 
z
" id="DejaVuSans-46"/>
       <path d="M 10.796875 72.90625 
L 49.515625 72.90625 
L 49.515625 64.59375 
L 19.828125 64.59375 
L 19.828125 46.734375 
Q 21.96875 47.46875 24.109375 47.828125 
Q 26.265625 48.1875 28.421875 48.1875 
Q 40.625 48.1875 47.75 41.5 
Q 54.890625 34.8125 54.890625 23.390625 
Q 54.890625 11.625 47.5625 5.09375 
Q 40.234375 -1.421875 26.90625 -1.421875 
Q 22.3125 -1.421875 17.546875 -0.640625 
Q 12.796875 0.140625 7.71875 1.703125 
L 7.71875 11.625 
Q 12.109375 9.234375 16.796875 8.0625 
Q 21.484375 6.890625 26.703125 6.890625 
Q 35.15625 6.890625 40.078125 11.328125 
Q 45.015625 15.765625 45.015625 23.390625 
Q 45.015625 31 40.078125 35.4375 
Q 35.15625 39.890625 26.703125 39.890625 
Q 22.75 39.890625 18.8125 39.015625 
Q 14.890625 38.140625 10.796875 36.28125 
z
" id="DejaVuSans-53"/>
      </defs>
      <g transform="translate(109.833053 266.598437)scale(0.1 -0.1)">
       <use xlink:href="#DejaVuSans-50"/>
       <use x="63.623047" xlink:href="#DejaVuSans-46"/>
       <use x="95.410156" xlink:href="#DejaVuSans-53"/>
      </g>
     </g>
    </g>
    <g id="xtick_2">
     <g id="line2d_3">
      <path clip-path="url(#pfe665f8f54)" d="M 175.015385 252 
L 175.015385 34.56 
" style="fill:none;stroke:#b0b0b0;stroke-linecap:square;stroke-width:0.8;"/>
     </g>
     <g id="line2d_4">
      <g>
       <use style="stroke:#000000;stroke-width:0.8;" x="175.015385" xlink:href="#m8125fdffc3" y="252"/>
      </g>
     </g>
     <g id="text_2">
      <!-- 5.0 -->
      <defs>
       <path d="M 31.78125 66.40625 
Q 24.171875 66.40625 20.328125 58.90625 
Q 16.5 51.421875 16.5 36.375 
Q 16.5 21.390625 20.328125 13.890625 
Q 24.171875 6.390625 31.78125 6.390625 
Q 39.453125 6.390625 43.28125 13.890625 
Q 47.125 21.390625 47.125 36.375 
Q 47.125 51.421875 43.28125 58.90625 
Q 39.453125 66.40625 31.78125 66.40625 
z
M 31.78125 74.21875 
Q 44.046875 74.21875 50.515625 64.515625 
Q 56.984375 54.828125 56.984375 36.375 
Q 56.984375 17.96875 50.515625 8.265625 
Q 44.046875 -1.421875 31.78125 -1.421875 
Q 19.53125 -1.421875 13.0625 8.265625 
Q 6.59375 17.96875 6.59375 36.375 
Q 6.59375 54.828125 13.0625 64.515625 
Q 19.53125 74.21875 31.78125 74.21875 
z
" id="DejaVuSans-48"/>
      </defs>
      <g transform="translate(167.063822 266.598437)scale(0.1 -0.1)">
       <use xlink:href="#DejaVuSans-53"/>
       <use x="63.623047" xlink:href="#DejaVuSans-46"/>
       <use x="95.410156" xlink:href="#DejaVuSans-48"/>
      </g>
     </g>
    </g>
    <g id="xtick_3">
     <g id="line2d_5">
      <path clip-path="url(#pfe665f8f54)" d="M 232.246154 252 
L 232.246154 34.56 
" style="fill:none;stroke:#b0b0b0;stroke-linecap:square;stroke-width:0.8;"/>
     </g>
     <g id="line2d_6">
      <g>
       <use style="stroke:#000000;stroke-width:0.8;" x="232.246154" xlink:href="#m8125fdffc3" y="252"/>
      </g>
     </g>
     <g id="text_3">
      <!-- 7.5 -->
      <defs>
       <path d="M 8.203125 72.90625 
L 55.078125 72.90625 
L 55.078125 68.703125 
L 28.609375 0 
L 18.3125 0 
L 43.21875 64.59375 
L 8.203125 64.59375 
z
" id="DejaVuSans-55"/>
      </defs>
      <g transform="translate(224.294591 266.598437)scale(0.1 -0.1)">
       <use xlink:href="#DejaVuSans-55"/>
       <use x="63.623047" xlink:href="#DejaVuSans-46"/>
       <use x="95.410156" xlink:href="#DejaVuSans-53"/>
      </g>
     </g>
    </g>
    <g id="xtick_4">
     <g id="line2d_7">
      <path clip-path="url(#pfe665f8f54)" d="M 289.476923 252 
L 289.476923 34.56 
" style="fill:none;stroke:#b0b0b0;stroke-linecap:square;stroke-width:0.8;"/>
     </g>
     <g id="line2d_8">
      <g>
       <use style="stroke:#000000;stroke-width:0.8;" x="289.476923" xlink:href="#m8125fdffc3" y="252"/>
      </g>
     </g>
     <g id="text_4">
      <!-- 10.0 -->
      <defs>
       <path d="M 12.40625 8.296875 
L 28.515625 8.296875 
L 28.515625 63.921875 
L 10.984375 60.40625 
L 10.984375 69.390625 
L 28.421875 72.90625 
L 38.28125 72.90625 
L 38.28125 8.296875 
L 54.390625 8.296875 
L 54.390625 0 
L 12.40625 0 
z
" id="DejaVuSans-49"/>
      </defs>
      <g transform="translate(278.344111 266.598437)scale(0.1 -0.1)">
       <use xlink:href="#DejaVuSans-49"/>
       <use x="63.623047" xlink:href="#DejaVuSans-48"/>
       <use x="127.246094" xlink:href="#DejaVuSans-46"/>
       <use x="159.033203" xlink:href="#DejaVuSans-48"/>
      </g>
     </g>
    </g>
    <g id="xtick_5">
     <g id="line2d_9">
      <path clip-path="url(#pfe665f8f54)" d="M 346.707692 252 
L 346.707692 34.56 
" style="fill:none;stroke:#b0b0b0;stroke-linecap:square;stroke-width:0.8;"/>
     </g>
     <g id="line2d_10">
      <g>
       <use style="stroke:#000000;stroke-width:0.8;" x="346.707692" xlink:href="#m8125fdffc3" y="252"/>
      </g>
     </g>
     <g id="text_5">
      <!-- 12.5 -->
      <g transform="translate(335.57488 266.598437)scale(0.1 -0.1)">
       <use xlink:href="#DejaVuSans-49"/>
       <use x="63.623047" xlink:href="#DejaVuSans-50"/>
       <use x="127.246094" xlink:href="#DejaVuSans-46"/>
       <use x="159.033203" xlink:href="#DejaVuSans-53"/>
      </g>
     </g>
    </g>
    <g id="xtick_6">
     <g id="line2d_11">
      <path clip-path="url(#pfe665f8f54)" d="M 403.938462 252 
L 403.938462 34.56 
" style="fill:none;stroke:#b0b0b0;stroke-linecap:square;stroke-width:0.8;"/>
     </g>
     <g id="line2d_12">
      <g>
       <use style="stroke:#000000;stroke-width:0.8;" x="403.938462" xlink:href="#m8125fdffc3" y="252"/>
      </g>
     </g>
     <g id="text_6">
      <!-- 15.0 -->
      <g transform="translate(392.805649 266.598437)scale(0.1 -0.1)">
       <use xlink:href="#DejaVuSans-49"/>
       <use x="63.623047" xlink:href="#DejaVuSans-53"/>
       <use x="127.246094" xlink:href="#DejaVuSans-46"/>
       <use x="159.033203" xlink:href="#DejaVuSans-48"/>
      </g>
     </g>
    </g>
    <g id="xtick_7">
     <g id="line2d_13">
      <path clip-path="url(#pfe665f8f54)" d="M 461.169231 252 
L 461.169231 34.56 
" style="fill:none;stroke:#b0b0b0;stroke-linecap:square;stroke-width:0.8;"/>
     </g>
     <g id="line2d_14">
      <g>
       <use style="stroke:#000000;stroke-width:0.8;" x="461.169231" xlink:href="#m8125fdffc3" y="252"/>
      </g>
     </g>
     <g id="text_7">
      <!-- 17.5 -->
      <g transform="translate(450.036418 266.598437)scale(0.1 -0.1)">
       <use xlink:href="#DejaVuSans-49"/>
       <use x="63.623047" xlink:href="#DejaVuSans-55"/>
       <use x="127.246094" xlink:href="#DejaVuSans-46"/>
       <use x="159.033203" xlink:href="#DejaVuSans-53"/>
      </g>
     </g>
    </g>
    <g id="xtick_8">
     <g id="line2d_15">
      <path clip-path="url(#pfe665f8f54)" d="M 518.4 252 
L 518.4 34.56 
" style="fill:none;stroke:#b0b0b0;stroke-linecap:square;stroke-width:0.8;"/>
     </g>
     <g id="line2d_16">
      <g>
       <use style="stroke:#000000;stroke-width:0.8;" x="518.4" xlink:href="#m8125fdffc3" y="252"/>
      </g>
     </g>
     <g id="text_8">
      <!-- 20.0 -->
      <g transform="translate(507.267187 266.598437)scale(0.1 -0.1)">
       <use xlink:href="#DejaVuSans-50"/>
       <use x="63.623047" xlink:href="#DejaVuSans-48"/>
       <use x="127.246094" xlink:href="#DejaVuSans-46"/>
       <use x="159.033203" xlink:href="#DejaVuSans-48"/>
      </g>
     </g>
    </g>
    <g id="text_9">
     <!-- frequência(Hz) -->
     <defs>
      <path d="M 37.109375 75.984375 
L 37.109375 68.5 
L 28.515625 68.5 
Q 23.6875 68.5 21.796875 66.546875 
Q 19.921875 64.59375 19.921875 59.515625 
L 19.921875 54.6875 
L 34.71875 54.6875 
L 34.71875 47.703125 
L 19.921875 47.703125 
L 19.921875 0 
L 10.890625 0 
L 10.890625 47.703125 
L 2.296875 47.703125 
L 2.296875 54.6875 
L 10.890625 54.6875 
L 10.890625 58.5 
Q 10.890625 67.625 15.140625 71.796875 
Q 19.390625 75.984375 28.609375 75.984375 
z
" id="DejaVuSans-102"/>
      <path d="M 41.109375 46.296875 
Q 39.59375 47.171875 37.8125 47.578125 
Q 36.03125 48 33.890625 48 
Q 26.265625 48 22.1875 43.046875 
Q 18.109375 38.09375 18.109375 28.8125 
L 18.109375 0 
L 9.078125 0 
L 9.078125 54.6875 
L 18.109375 54.6875 
L 18.109375 46.1875 
Q 20.953125 51.171875 25.484375 53.578125 
Q 30.03125 56 36.53125 56 
Q 37.453125 56 38.578125 55.875 
Q 39.703125 55.765625 41.0625 55.515625 
z
" id="DejaVuSans-114"/>
      <path d="M 56.203125 29.59375 
L 56.203125 25.203125 
L 14.890625 25.203125 
Q 15.484375 15.921875 20.484375 11.0625 
Q 25.484375 6.203125 34.421875 6.203125 
Q 39.59375 6.203125 44.453125 7.46875 
Q 49.3125 8.734375 54.109375 11.28125 
L 54.109375 2.78125 
Q 49.265625 0.734375 44.1875 -0.34375 
Q 39.109375 -1.421875 33.890625 -1.421875 
Q 20.796875 -1.421875 13.15625 6.1875 
Q 5.515625 13.8125 5.515625 26.8125 
Q 5.515625 40.234375 12.765625 48.109375 
Q 20.015625 56 32.328125 56 
Q 43.359375 56 49.78125 48.890625 
Q 56.203125 41.796875 56.203125 29.59375 
z
M 47.21875 32.234375 
Q 47.125 39.59375 43.09375 43.984375 
Q 39.0625 48.390625 32.421875 48.390625 
Q 24.90625 48.390625 20.390625 44.140625 
Q 15.875 39.890625 15.1875 32.171875 
z
" id="DejaVuSans-101"/>
      <path d="M 14.796875 27.296875 
Q 14.796875 17.390625 18.875 11.75 
Q 22.953125 6.109375 30.078125 6.109375 
Q 37.203125 6.109375 41.296875 11.75 
Q 45.40625 17.390625 45.40625 27.296875 
Q 45.40625 37.203125 41.296875 42.84375 
Q 37.203125 48.484375 30.078125 48.484375 
Q 22.953125 48.484375 18.875 42.84375 
Q 14.796875 37.203125 14.796875 27.296875 
z
M 45.40625 8.203125 
Q 42.578125 3.328125 38.25 0.953125 
Q 33.9375 -1.421875 27.875 -1.421875 
Q 17.96875 -1.421875 11.734375 6.484375 
Q 5.515625 14.40625 5.515625 27.296875 
Q 5.515625 40.1875 11.734375 48.09375 
Q 17.96875 56 27.875 56 
Q 33.9375 56 38.25 53.625 
Q 42.578125 51.265625 45.40625 46.390625 
L 45.40625 54.6875 
L 54.390625 54.6875 
L 54.390625 -20.796875 
L 45.40625 -20.796875 
z
" id="DejaVuSans-113"/>
      <path d="M 8.5 21.578125 
L 8.5 54.6875 
L 17.484375 54.6875 
L 17.484375 21.921875 
Q 17.484375 14.15625 20.5 10.265625 
Q 23.53125 6.390625 29.59375 6.390625 
Q 36.859375 6.390625 41.078125 11.03125 
Q 45.3125 15.671875 45.3125 23.6875 
L 45.3125 54.6875 
L 54.296875 54.6875 
L 54.296875 0 
L 45.3125 0 
L 45.3125 8.40625 
Q 42.046875 3.421875 37.71875 1 
Q 33.40625 -1.421875 27.6875 -1.421875 
Q 18.265625 -1.421875 13.375 4.4375 
Q 8.5 10.296875 8.5 21.578125 
z
M 31.109375 56 
z
" id="DejaVuSans-117"/>
      <path d="M 56.203125 29.59375 
L 56.203125 25.203125 
L 14.890625 25.203125 
Q 15.484375 15.921875 20.484375 11.0625 
Q 25.484375 6.203125 34.421875 6.203125 
Q 39.59375 6.203125 44.453125 7.46875 
Q 49.3125 8.734375 54.109375 11.28125 
L 54.109375 2.78125 
Q 49.265625 0.734375 44.1875 -0.34375 
Q 39.109375 -1.421875 33.890625 -1.421875 
Q 20.796875 -1.421875 13.15625 6.1875 
Q 5.515625 13.8125 5.515625 26.8125 
Q 5.515625 40.234375 12.765625 48.109375 
Q 20.015625 56 32.328125 56 
Q 43.359375 56 49.78125 48.890625 
Q 56.203125 41.796875 56.203125 29.59375 
z
M 47.21875 32.234375 
Q 47.125 39.59375 43.09375 43.984375 
Q 39.0625 48.390625 32.421875 48.390625 
Q 24.90625 48.390625 20.390625 44.140625 
Q 15.875 39.890625 15.1875 32.171875 
z
M 28.171875 79.984375 
L 35.40625 79.984375 
L 47.359375 61.625 
L 40.578125 61.625 
L 31.78125 73.578125 
L 23 61.625 
L 16.21875 61.625 
z
" id="DejaVuSans-234"/>
      <path d="M 54.890625 33.015625 
L 54.890625 0 
L 45.90625 0 
L 45.90625 32.71875 
Q 45.90625 40.484375 42.875 44.328125 
Q 39.84375 48.1875 33.796875 48.1875 
Q 26.515625 48.1875 22.3125 43.546875 
Q 18.109375 38.921875 18.109375 30.90625 
L 18.109375 0 
L 9.078125 0 
L 9.078125 54.6875 
L 18.109375 54.6875 
L 18.109375 46.1875 
Q 21.34375 51.125 25.703125 53.5625 
Q 30.078125 56 35.796875 56 
Q 45.21875 56 50.046875 50.171875 
Q 54.890625 44.34375 54.890625 33.015625 
z
" id="DejaVuSans-110"/>
      <path d="M 48.78125 52.59375 
L 48.78125 44.1875 
Q 44.96875 46.296875 41.140625 47.34375 
Q 37.3125 48.390625 33.40625 48.390625 
Q 24.65625 48.390625 19.8125 42.84375 
Q 14.984375 37.3125 14.984375 27.296875 
Q 14.984375 17.28125 19.8125 11.734375 
Q 24.65625 6.203125 33.40625 6.203125 
Q 37.3125 6.203125 41.140625 7.25 
Q 44.96875 8.296875 48.78125 10.40625 
L 48.78125 2.09375 
Q 45.015625 0.34375 40.984375 -0.53125 
Q 36.96875 -1.421875 32.421875 -1.421875 
Q 20.0625 -1.421875 12.78125 6.34375 
Q 5.515625 14.109375 5.515625 27.296875 
Q 5.515625 40.671875 12.859375 48.328125 
Q 20.21875 56 33.015625 56 
Q 37.15625 56 41.109375 55.140625 
Q 45.0625 54.296875 48.78125 52.59375 
z
" id="DejaVuSans-99"/>
      <path d="M 9.421875 54.6875 
L 18.40625 54.6875 
L 18.40625 0 
L 9.421875 0 
z
M 9.421875 75.984375 
L 18.40625 75.984375 
L 18.40625 64.59375 
L 9.421875 64.59375 
z
" id="DejaVuSans-105"/>
      <path d="M 34.28125 27.484375 
Q 23.390625 27.484375 19.1875 25 
Q 14.984375 22.515625 14.984375 16.5 
Q 14.984375 11.71875 18.140625 8.90625 
Q 21.296875 6.109375 26.703125 6.109375 
Q 34.1875 6.109375 38.703125 11.40625 
Q 43.21875 16.703125 43.21875 25.484375 
L 43.21875 27.484375 
z
M 52.203125 31.203125 
L 52.203125 0 
L 43.21875 0 
L 43.21875 8.296875 
Q 40.140625 3.328125 35.546875 0.953125 
Q 30.953125 -1.421875 24.3125 -1.421875 
Q 15.921875 -1.421875 10.953125 3.296875 
Q 6 8.015625 6 15.921875 
Q 6 25.140625 12.171875 29.828125 
Q 18.359375 34.515625 30.609375 34.515625 
L 43.21875 34.515625 
L 43.21875 35.40625 
Q 43.21875 41.609375 39.140625 45 
Q 35.0625 48.390625 27.6875 48.390625 
Q 23 48.390625 18.546875 47.265625 
Q 14.109375 46.140625 10.015625 43.890625 
L 10.015625 52.203125 
Q 14.9375 54.109375 19.578125 55.046875 
Q 24.21875 56 28.609375 56 
Q 40.484375 56 46.34375 49.84375 
Q 52.203125 43.703125 52.203125 31.203125 
z
" id="DejaVuSans-97"/>
      <path d="M 31 75.875 
Q 24.46875 64.65625 21.28125 53.65625 
Q 18.109375 42.671875 18.109375 31.390625 
Q 18.109375 20.125 21.3125 9.0625 
Q 24.515625 -2 31 -13.1875 
L 23.1875 -13.1875 
Q 15.875 -1.703125 12.234375 9.375 
Q 8.59375 20.453125 8.59375 31.390625 
Q 8.59375 42.28125 12.203125 53.3125 
Q 15.828125 64.359375 23.1875 75.875 
z
" id="DejaVuSans-40"/>
      <path d="M 9.8125 72.90625 
L 19.671875 72.90625 
L 19.671875 43.015625 
L 55.515625 43.015625 
L 55.515625 72.90625 
L 65.375 72.90625 
L 65.375 0 
L 55.515625 0 
L 55.515625 34.71875 
L 19.671875 34.71875 
L 19.671875 0 
L 9.8125 0 
z
" id="DejaVuSans-72"/>
      <path d="M 5.515625 54.6875 
L 48.1875 54.6875 
L 48.1875 46.484375 
L 14.40625 7.171875 
L 48.1875 7.171875 
L 48.1875 0 
L 4.296875 0 
L 4.296875 8.203125 
L 38.09375 47.515625 
L 5.515625 47.515625 
z
" id="DejaVuSans-122"/>
      <path d="M 8.015625 75.875 
L 15.828125 75.875 
Q 23.140625 64.359375 26.78125 53.3125 
Q 30.421875 42.28125 30.421875 31.390625 
Q 30.421875 20.453125 26.78125 9.375 
Q 23.140625 -1.703125 15.828125 -13.1875 
L 8.015625 -13.1875 
Q 14.5 -2 17.703125 9.0625 
Q 20.90625 20.125 20.90625 31.390625 
Q 20.90625 42.671875 17.703125 53.65625 
Q 14.5 64.65625 8.015625 75.875 
z
" id="DejaVuSans-41"/>
     </defs>
     <g transform="translate(258.34375 280.676562)scale(0.1 -0.1)">
      <use xlink:href="#DejaVuSans-102"/>
      <use x="35.205078" xlink:href="#DejaVuSans-114"/>
      <use x="74.068359" xlink:href="#DejaVuSans-101"/>
      <use x="135.591797" xlink:href="#DejaVuSans-113"/>
      <use x="199.068359" xlink:href="#DejaVuSans-117"/>
      <use x="262.447266" xlink:href="#DejaVuSans-234"/>
      <use x="323.970703" xlink:href="#DejaVuSans-110"/>
      <use x="387.349609" xlink:href="#DejaVuSans-99"/>
      <use x="442.330078" xlink:href="#DejaVuSans-105"/>
      <use x="470.113281" xlink:href="#DejaVuSans-97"/>
      <use x="531.392578" xlink:href="#DejaVuSans-40"/>
      <use x="570.40625" xlink:href="#DejaVuSans-72"/>
      <use x="645.601562" xlink:href="#DejaVuSans-122"/>
      <use x="698.091797" xlink:href="#DejaVuSans-41"/>
     </g>
    </g>
   </g>
   <g id="matplotlib.axis_2">
    <g id="ytick_1">
     <g id="line2d_17">
      <path clip-path="url(#pfe665f8f54)" d="M 72 252 
L 518.4 252 
" style="fill:none;stroke:#b0b0b0;stroke-linecap:square;stroke-width:0.8;"/>
     </g>
     <g id="line2d_18">
      <defs>
       <path d="M 0 0 
L -3.5 0 
" id="mb2dbcea210" style="stroke:#000000;stroke-width:0.8;"/>
      </defs>
      <g>
       <use style="stroke:#000000;stroke-width:0.8;" x="72" xlink:href="#mb2dbcea210" y="252"/>
      </g>
     </g>
     <g id="text_10">
      <!-- 0.00 -->
      <g transform="translate(42.734375 255.799219)scale(0.1 -0.1)">
       <use xlink:href="#DejaVuSans-48"/>
       <use x="63.623047" xlink:href="#DejaVuSans-46"/>
       <use x="95.410156" xlink:href="#DejaVuSans-48"/>
       <use x="159.033203" xlink:href="#DejaVuSans-48"/>
      </g>
     </g>
    </g>
    <g id="ytick_2">
     <g id="line2d_19">
      <path clip-path="url(#pfe665f8f54)" d="M 72 224.82 
L 518.4 224.82 
" style="fill:none;stroke:#b0b0b0;stroke-linecap:square;stroke-width:0.8;"/>
     </g>
     <g id="line2d_20">
      <g>
       <use style="stroke:#000000;stroke-width:0.8;" x="72" xlink:href="#mb2dbcea210" y="224.82"/>
      </g>
     </g>
     <g id="text_11">
      <!-- 0.05 -->
      <g transform="translate(42.734375 228.619219)scale(0.1 -0.1)">
       <use xlink:href="#DejaVuSans-48"/>
       <use x="63.623047" xlink:href="#DejaVuSans-46"/>
       <use x="95.410156" xlink:href="#DejaVuSans-48"/>
       <use x="159.033203" xlink:href="#DejaVuSans-53"/>
      </g>
     </g>
    </g>
    <g id="ytick_3">
     <g id="line2d_21">
      <path clip-path="url(#pfe665f8f54)" d="M 72 197.64 
L 518.4 197.64 
" style="fill:none;stroke:#b0b0b0;stroke-linecap:square;stroke-width:0.8;"/>
     </g>
     <g id="line2d_22">
      <g>
       <use style="stroke:#000000;stroke-width:0.8;" x="72" xlink:href="#mb2dbcea210" y="197.64"/>
      </g>
     </g>
     <g id="text_12">
      <!-- 0.10 -->
      <g transform="translate(42.734375 201.439219)scale(0.1 -0.1)">
       <use xlink:href="#DejaVuSans-48"/>
       <use x="63.623047" xlink:href="#DejaVuSans-46"/>
       <use x="95.410156" xlink:href="#DejaVuSans-49"/>
       <use x="159.033203" xlink:href="#DejaVuSans-48"/>
      </g>
     </g>
    </g>
    <g id="ytick_4">
     <g id="line2d_23">
      <path clip-path="url(#pfe665f8f54)" d="M 72 170.46 
L 518.4 170.46 
" style="fill:none;stroke:#b0b0b0;stroke-linecap:square;stroke-width:0.8;"/>
     </g>
     <g id="line2d_24">
      <g>
       <use style="stroke:#000000;stroke-width:0.8;" x="72" xlink:href="#mb2dbcea210" y="170.46"/>
      </g>
     </g>
     <g id="text_13">
      <!-- 0.15 -->
      <g transform="translate(42.734375 174.259219)scale(0.1 -0.1)">
       <use xlink:href="#DejaVuSans-48"/>
       <use x="63.623047" xlink:href="#DejaVuSans-46"/>
       <use x="95.410156" xlink:href="#DejaVuSans-49"/>
       <use x="159.033203" xlink:href="#DejaVuSans-53"/>
      </g>
     </g>
    </g>
    <g id="ytick_5">
     <g id="line2d_25">
      <path clip-path="url(#pfe665f8f54)" d="M 72 143.28 
L 518.4 143.28 
" style="fill:none;stroke:#b0b0b0;stroke-linecap:square;stroke-width:0.8;"/>
     </g>
     <g id="line2d_26">
      <g>
       <use style="stroke:#000000;stroke-width:0.8;" x="72" xlink:href="#mb2dbcea210" y="143.28"/>
      </g>
     </g>
     <g id="text_14">
      <!-- 0.20 -->
      <g transform="translate(42.734375 147.079219)scale(0.1 -0.1)">
       <use xlink:href="#DejaVuSans-48"/>
       <use x="63.623047" xlink:href="#DejaVuSans-46"/>
       <use x="95.410156" xlink:href="#DejaVuSans-50"/>
       <use x="159.033203" xlink:href="#DejaVuSans-48"/>
      </g>
     </g>
    </g>
    <g id="ytick_6">
     <g id="line2d_27">
      <path clip-path="url(#pfe665f8f54)" d="M 72 116.1 
L 518.4 116.1 
" style="fill:none;stroke:#b0b0b0;stroke-linecap:square;stroke-width:0.8;"/>
     </g>
     <g id="line2d_28">
      <g>
       <use style="stroke:#000000;stroke-width:0.8;" x="72" xlink:href="#mb2dbcea210" y="116.1"/>
      </g>
     </g>
     <g id="text_15">
      <!-- 0.25 -->
      <g transform="translate(42.734375 119.899219)scale(0.1 -0.1)">
       <use xlink:href="#DejaVuSans-48"/>
       <use x="63.623047" xlink:href="#DejaVuSans-46"/>
       <use x="95.410156" xlink:href="#DejaVuSans-50"/>
       <use x="159.033203" xlink:href="#DejaVuSans-53"/>
      </g>
     </g>
    </g>
    <g id="ytick_7">
     <g id="line2d_29">
      <path clip-path="url(#pfe665f8f54)" d="M 72 88.92 
L 518.4 88.92 
" style="fill:none;stroke:#b0b0b0;stroke-linecap:square;stroke-width:0.8;"/>
     </g>
     <g id="line2d_30">
      <g>
       <use style="stroke:#000000;stroke-width:0.8;" x="72" xlink:href="#mb2dbcea210" y="88.92"/>
      </g>
     </g>
     <g id="text_16">
      <!-- 0.30 -->
      <defs>
       <path d="M 40.578125 39.3125 
Q 47.65625 37.796875 51.625 33 
Q 55.609375 28.21875 55.609375 21.1875 
Q 55.609375 10.40625 48.1875 4.484375 
Q 40.765625 -1.421875 27.09375 -1.421875 
Q 22.515625 -1.421875 17.65625 -0.515625 
Q 12.796875 0.390625 7.625 2.203125 
L 7.625 11.71875 
Q 11.71875 9.328125 16.59375 8.109375 
Q 21.484375 6.890625 26.8125 6.890625 
Q 36.078125 6.890625 40.9375 10.546875 
Q 45.796875 14.203125 45.796875 21.1875 
Q 45.796875 27.640625 41.28125 31.265625 
Q 36.765625 34.90625 28.71875 34.90625 
L 20.21875 34.90625 
L 20.21875 43.015625 
L 29.109375 43.015625 
Q 36.375 43.015625 40.234375 45.921875 
Q 44.09375 48.828125 44.09375 54.296875 
Q 44.09375 59.90625 40.109375 62.90625 
Q 36.140625 65.921875 28.71875 65.921875 
Q 24.65625 65.921875 20.015625 65.03125 
Q 15.375 64.15625 9.8125 62.3125 
L 9.8125 71.09375 
Q 15.4375 72.65625 20.34375 73.4375 
Q 25.25 74.21875 29.59375 74.21875 
Q 40.828125 74.21875 47.359375 69.109375 
Q 53.90625 64.015625 53.90625 55.328125 
Q 53.90625 49.265625 50.4375 45.09375 
Q 46.96875 40.921875 40.578125 39.3125 
z
" id="DejaVuSans-51"/>
      </defs>
      <g transform="translate(42.734375 92.719219)scale(0.1 -0.1)">
       <use xlink:href="#DejaVuSans-48"/>
       <use x="63.623047" xlink:href="#DejaVuSans-46"/>
       <use x="95.410156" xlink:href="#DejaVuSans-51"/>
       <use x="159.033203" xlink:href="#DejaVuSans-48"/>
      </g>
     </g>
    </g>
    <g id="ytick_8">
     <g id="line2d_31">
      <path clip-path="url(#pfe665f8f54)" d="M 72 61.74 
L 518.4 61.74 
" style="fill:none;stroke:#b0b0b0;stroke-linecap:square;stroke-width:0.8;"/>
     </g>
     <g id="line2d_32">
      <g>
       <use style="stroke:#000000;stroke-width:0.8;" x="72" xlink:href="#mb2dbcea210" y="61.74"/>
      </g>
     </g>
     <g id="text_17">
      <!-- 0.35 -->
      <g transform="translate(42.734375 65.539219)scale(0.1 -0.1)">
       <use xlink:href="#DejaVuSans-48"/>
       <use x="63.623047" xlink:href="#DejaVuSans-46"/>
       <use x="95.410156" xlink:href="#DejaVuSans-51"/>
       <use x="159.033203" xlink:href="#DejaVuSans-53"/>
      </g>
     </g>
    </g>
    <g id="ytick_9">
     <g id="line2d_33">
      <path clip-path="url(#pfe665f8f54)" d="M 72 34.56 
L 518.4 34.56 
" style="fill:none;stroke:#b0b0b0;stroke-linecap:square;stroke-width:0.8;"/>
     </g>
     <g id="line2d_34">
      <g>
       <use style="stroke:#000000;stroke-width:0.8;" x="72" xlink:href="#mb2dbcea210" y="34.56"/>
      </g>
     </g>
     <g id="text_18">
      <!-- 0.40 -->
      <defs>
       <path d="M 37.796875 64.3125 
L 12.890625 25.390625 
L 37.796875 25.390625 
z
M 35.203125 72.90625 
L 47.609375 72.90625 
L 47.609375 25.390625 
L 58.015625 25.390625 
L 58.015625 17.1875 
L 47.609375 17.1875 
L 47.609375 0 
L 37.796875 0 
L 37.796875 17.1875 
L 4.890625 17.1875 
L 4.890625 26.703125 
z
" id="DejaVuSans-52"/>
      </defs>
      <g transform="translate(42.734375 38.359219)scale(0.1 -0.1)">
       <use xlink:href="#DejaVuSans-48"/>
       <use x="63.623047" xlink:href="#DejaVuSans-46"/>
       <use x="95.410156" xlink:href="#DejaVuSans-52"/>
       <use x="159.033203" xlink:href="#DejaVuSans-48"/>
      </g>
     </g>
    </g>
    <g id="text_19">
     <!-- Densidade espectral(m²/s³) -->
     <defs>
      <path d="M 19.671875 64.796875 
L 19.671875 8.109375 
L 31.59375 8.109375 
Q 46.6875 8.109375 53.6875 14.9375 
Q 60.6875 21.78125 60.6875 36.53125 
Q 60.6875 51.171875 53.6875 57.984375 
Q 46.6875 64.796875 31.59375 64.796875 
z
M 9.8125 72.90625 
L 30.078125 72.90625 
Q 51.265625 72.90625 61.171875 64.09375 
Q 71.09375 55.28125 71.09375 36.53125 
Q 71.09375 17.671875 61.125 8.828125 
Q 51.171875 0 30.078125 0 
L 9.8125 0 
z
" id="DejaVuSans-68"/>
      <path d="M 44.28125 53.078125 
L 44.28125 44.578125 
Q 40.484375 46.53125 36.375 47.5 
Q 32.28125 48.484375 27.875 48.484375 
Q 21.1875 48.484375 17.84375 46.4375 
Q 14.5 44.390625 14.5 40.28125 
Q 14.5 37.15625 16.890625 35.375 
Q 19.28125 33.59375 26.515625 31.984375 
L 29.59375 31.296875 
Q 39.15625 29.25 43.1875 25.515625 
Q 47.21875 21.78125 47.21875 15.09375 
Q 47.21875 7.46875 41.1875 3.015625 
Q 35.15625 -1.421875 24.609375 -1.421875 
Q 20.21875 -1.421875 15.453125 -0.5625 
Q 10.6875 0.296875 5.421875 2 
L 5.421875 11.28125 
Q 10.40625 8.6875 15.234375 7.390625 
Q 20.0625 6.109375 24.8125 6.109375 
Q 31.15625 6.109375 34.5625 8.28125 
Q 37.984375 10.453125 37.984375 14.40625 
Q 37.984375 18.0625 35.515625 20.015625 
Q 33.0625 21.96875 24.703125 23.78125 
L 21.578125 24.515625 
Q 13.234375 26.265625 9.515625 29.90625 
Q 5.8125 33.546875 5.8125 39.890625 
Q 5.8125 47.609375 11.28125 51.796875 
Q 16.75 56 26.8125 56 
Q 31.78125 56 36.171875 55.265625 
Q 40.578125 54.546875 44.28125 53.078125 
z
" id="DejaVuSans-115"/>
      <path d="M 45.40625 46.390625 
L 45.40625 75.984375 
L 54.390625 75.984375 
L 54.390625 0 
L 45.40625 0 
L 45.40625 8.203125 
Q 42.578125 3.328125 38.25 0.953125 
Q 33.9375 -1.421875 27.875 -1.421875 
Q 17.96875 -1.421875 11.734375 6.484375 
Q 5.515625 14.40625 5.515625 27.296875 
Q 5.515625 40.1875 11.734375 48.09375 
Q 17.96875 56 27.875 56 
Q 33.9375 56 38.25 53.625 
Q 42.578125 51.265625 45.40625 46.390625 
z
M 14.796875 27.296875 
Q 14.796875 17.390625 18.875 11.75 
Q 22.953125 6.109375 30.078125 6.109375 
Q 37.203125 6.109375 41.296875 11.75 
Q 45.40625 17.390625 45.40625 27.296875 
Q 45.40625 37.203125 41.296875 42.84375 
Q 37.203125 48.484375 30.078125 48.484375 
Q 22.953125 48.484375 18.875 42.84375 
Q 14.796875 37.203125 14.796875 27.296875 
z
" id="DejaVuSans-100"/>
      <path id="DejaVuSans-32"/>
      <path d="M 18.109375 8.203125 
L 18.109375 -20.796875 
L 9.078125 -20.796875 
L 9.078125 54.6875 
L 18.109375 54.6875 
L 18.109375 46.390625 
Q 20.953125 51.265625 25.265625 53.625 
Q 29.59375 56 35.59375 56 
Q 45.5625 56 51.78125 48.09375 
Q 58.015625 40.1875 58.015625 27.296875 
Q 58.015625 14.40625 51.78125 6.484375 
Q 45.5625 -1.421875 35.59375 -1.421875 
Q 29.59375 -1.421875 25.265625 0.953125 
Q 20.953125 3.328125 18.109375 8.203125 
z
M 48.6875 27.296875 
Q 48.6875 37.203125 44.609375 42.84375 
Q 40.53125 48.484375 33.40625 48.484375 
Q 26.265625 48.484375 22.1875 42.84375 
Q 18.109375 37.203125 18.109375 27.296875 
Q 18.109375 17.390625 22.1875 11.75 
Q 26.265625 6.109375 33.40625 6.109375 
Q 40.53125 6.109375 44.609375 11.75 
Q 48.6875 17.390625 48.6875 27.296875 
z
" id="DejaVuSans-112"/>
      <path d="M 18.3125 70.21875 
L 18.3125 54.6875 
L 36.8125 54.6875 
L 36.8125 47.703125 
L 18.3125 47.703125 
L 18.3125 18.015625 
Q 18.3125 11.328125 20.140625 9.421875 
Q 21.96875 7.515625 27.59375 7.515625 
L 36.8125 7.515625 
L 36.8125 0 
L 27.59375 0 
Q 17.1875 0 13.234375 3.875 
Q 9.28125 7.765625 9.28125 18.015625 
L 9.28125 47.703125 
L 2.6875 47.703125 
L 2.6875 54.6875 
L 9.28125 54.6875 
L 9.28125 70.21875 
z
" id="DejaVuSans-116"/>
      <path d="M 9.421875 75.984375 
L 18.40625 75.984375 
L 18.40625 0 
L 9.421875 0 
z
" id="DejaVuSans-108"/>
      <path d="M 52 44.1875 
Q 55.375 50.25 60.0625 53.125 
Q 64.75 56 71.09375 56 
Q 79.640625 56 84.28125 50.015625 
Q 88.921875 44.046875 88.921875 33.015625 
L 88.921875 0 
L 79.890625 0 
L 79.890625 32.71875 
Q 79.890625 40.578125 77.09375 44.375 
Q 74.3125 48.1875 68.609375 48.1875 
Q 61.625 48.1875 57.5625 43.546875 
Q 53.515625 38.921875 53.515625 30.90625 
L 53.515625 0 
L 44.484375 0 
L 44.484375 32.71875 
Q 44.484375 40.625 41.703125 44.40625 
Q 38.921875 48.1875 33.109375 48.1875 
Q 26.21875 48.1875 22.15625 43.53125 
Q 18.109375 38.875 18.109375 30.90625 
L 18.109375 0 
L 9.078125 0 
L 9.078125 54.6875 
L 18.109375 54.6875 
L 18.109375 46.1875 
Q 21.1875 51.21875 25.484375 53.609375 
Q 29.78125 56 35.6875 56 
Q 41.65625 56 45.828125 52.96875 
Q 50 49.953125 52 44.1875 
z
" id="DejaVuSans-109"/>
      <path d="M 13.09375 38.1875 
L 33.796875 38.1875 
L 33.796875 32.625 
L 4.59375 32.625 
L 4.59375 37.984375 
Q 6.25 39.5 9.328125 42.234375 
Q 26.125 57.125 26.125 61.71875 
Q 26.125 64.9375 23.578125 66.90625 
Q 21.046875 68.890625 16.890625 68.890625 
Q 14.359375 68.890625 11.375 68.03125 
Q 8.40625 67.1875 4.890625 65.484375 
L 4.890625 71.484375 
Q 8.640625 72.859375 11.890625 73.53125 
Q 15.140625 74.21875 17.921875 74.21875 
Q 25 74.21875 29.25 71 
Q 33.5 67.78125 33.5 62.5 
Q 33.5 55.71875 17.328125 41.84375 
Q 14.59375 39.5 13.09375 38.1875 
z
" id="DejaVuSans-178"/>
      <path d="M 25.390625 72.90625 
L 33.6875 72.90625 
L 8.296875 -9.28125 
L 0 -9.28125 
z
" id="DejaVuSans-47"/>
      <path d="M 25.59375 54.6875 
Q 30.078125 53.8125 32.546875 51.140625 
Q 35.015625 48.484375 35.015625 44.484375 
Q 35.015625 38.421875 30.375 35.15625 
Q 25.734375 31.890625 17.09375 31.890625 
Q 14.3125 31.890625 11.25 32.390625 
Q 8.203125 32.90625 4.78125 33.890625 
L 4.78125 39.796875 
Q 7.328125 38.484375 10.234375 37.84375 
Q 13.140625 37.203125 16.40625 37.203125 
Q 21.734375 37.203125 24.65625 39.125 
Q 27.59375 41.0625 27.59375 44.484375 
Q 27.59375 48.09375 24.875 49.953125 
Q 22.171875 51.8125 16.890625 51.8125 
L 12.703125 51.8125 
L 12.703125 57.078125 
L 17.28125 57.078125 
Q 21.875 57.078125 24.234375 58.609375 
Q 26.609375 60.15625 26.609375 63.09375 
Q 26.609375 65.921875 24.171875 67.40625 
Q 21.734375 68.890625 17.09375 68.890625 
Q 15.140625 68.890625 12.640625 68.453125 
Q 10.15625 68.015625 6.203125 66.890625 
L 6.203125 72.515625 
Q 9.765625 73.34375 12.890625 73.78125 
Q 16.015625 74.21875 18.703125 74.21875 
Q 25.734375 74.21875 29.859375 71.328125 
Q 33.984375 68.453125 33.984375 63.625 
Q 33.984375 60.25 31.78125 57.90625 
Q 29.59375 55.5625 25.59375 54.6875 
z
" id="DejaVuSans-179"/>
     </defs>
     <g transform="translate(36.654687 211.6675)rotate(-90)scale(0.1 -0.1)">
      <use xlink:href="#DejaVuSans-68"/>
      <use x="77.001953" xlink:href="#DejaVuSans-101"/>
      <use x="138.525391" xlink:href="#DejaVuSans-110"/>
      <use x="201.904297" xlink:href="#DejaVuSans-115"/>
      <use x="254.003906" xlink:href="#DejaVuSans-105"/>
      <use x="281.787109" xlink:href="#DejaVuSans-100"/>
      <use x="345.263672" xlink:href="#DejaVuSans-97"/>
      <use x="406.542969" xlink:href="#DejaVuSans-100"/>
      <use x="470.019531" xlink:href="#DejaVuSans-101"/>
      <use x="531.542969" xlink:href="#DejaVuSans-32"/>
      <use x="563.330078" xlink:href="#DejaVuSans-101"/>
      <use x="624.853516" xlink:href="#DejaVuSans-115"/>
      <use x="676.953125" xlink:href="#DejaVuSans-112"/>
      <use x="740.429688" xlink:href="#DejaVuSans-101"/>
      <use x="801.953125" xlink:href="#DejaVuSans-99"/>
      <use x="856.933594" xlink:href="#DejaVuSans-116"/>
      <use x="896.142578" xlink:href="#DejaVuSans-114"/>
      <use x="937.255859" xlink:href="#DejaVuSans-97"/>
      <use x="998.535156" xlink:href="#DejaVuSans-108"/>
      <use x="1026.318359" xlink:href="#DejaVuSans-40"/>
      <use x="1065.332031" xlink:href="#DejaVuSans-109"/>
      <use x="1162.744141" xlink:href="#DejaVuSans-178"/>
      <use x="1202.832031" xlink:href="#DejaVuSans-47"/>
      <use x="1236.523438" xlink:href="#DejaVuSans-115"/>
      <use x="1288.623047" xlink:href="#DejaVuSans-179"/>
      <use x="1328.710938" xlink:href="#DejaVuSans-41"/>
     </g>
    </g>
   </g>
   <g id="line2d_35">
    <path clip-path="url(#pfe665f8f54)" d="M 71.542154 224.673297 
L 72 239.311616 
L 72.457846 243.733617 
L 72.915692 249.272077 
L 73.373538 247.87386 
L 73.831385 245.202288 
L 74.289231 248.251614 
L 74.747077 243.261748 
L 75.204923 245.232636 
L 75.662769 250.206785 
L 76.120615 249.35968 
L 76.578462 244.455067 
L 77.036308 245.86045 
L 77.494154 249.446551 
L 77.952 248.624554 
L 78.409846 244.759782 
L 78.867692 247.428629 
L 79.325538 251.837281 
L 79.783385 250.962836 
L 80.241231 251.901283 
L 80.699077 249.773347 
L 81.156923 242.039767 
L 81.614769 230.108369 
L 82.072615 232.661422 
L 82.988308 246.075116 
L 83.446154 238.016497 
L 83.904 240.730713 
L 84.361846 244.40144 
L 84.819692 249.220127 
L 85.277538 247.581942 
L 85.735385 246.743376 
L 86.193231 244.514574 
L 86.651077 241.358539 
L 87.108923 245.124433 
L 87.566769 246.75172 
L 88.024615 249.174559 
L 88.482462 249.80207 
L 88.940308 247.12224 
L 89.398154 246.276217 
L 89.856 250.440534 
L 90.313846 249.7922 
L 90.771692 243.610414 
L 91.229538 242.903256 
L 91.687385 248.585115 
L 92.145231 250.002568 
L 92.603077 248.221141 
L 93.060923 251.238592 
L 93.518769 244.706815 
L 93.976615 231.516976 
L 94.434462 234.992526 
L 94.892308 245.479891 
L 95.808 251.620375 
L 96.265846 250.754593 
L 96.723692 248.920991 
L 97.181538 246.475026 
L 98.097231 250.886857 
L 98.555077 251.428916 
L 99.012923 251.51577 
L 99.470769 251.267935 
L 99.928615 251.500052 
L 100.844308 250.468123 
L 101.302154 248.625706 
L 101.76 246.195511 
L 102.217846 237.038057 
L 102.675692 218.373077 
L 103.133538 225.756933 
L 103.591385 227.394364 
L 104.049231 235.185962 
L 104.507077 247.471765 
L 104.964923 251.282392 
L 105.880615 248.293304 
L 106.338462 251.126737 
L 106.796308 251.698932 
L 107.254154 250.046928 
L 107.712 242.154856 
L 108.169846 239.228761 
L 108.627692 247.445208 
L 109.085538 251.594131 
L 110.001231 249.910952 
L 110.459077 250.606084 
L 110.916923 251.522714 
L 111.374769 250.970305 
L 111.832615 249.750825 
L 112.290462 251.307423 
L 112.748308 251.477943 
L 113.206154 250.703411 
L 113.664 251.802497 
L 114.121846 251.019633 
L 114.579692 245.57296 
L 115.495385 237.790519 
L 115.953231 237.873156 
L 116.411077 251.207866 
L 116.868923 246.533087 
L 117.326769 244.412226 
L 117.784615 241.372935 
L 118.242462 235.655742 
L 118.700308 242.744826 
L 119.158154 241.863276 
L 119.616 243.251328 
L 120.073846 244.087711 
L 120.531692 245.691885 
L 120.989538 244.340387 
L 121.447385 238.313938 
L 121.905231 230.535563 
L 122.363077 233.778519 
L 122.820923 246.489011 
L 123.278769 251.288724 
L 123.736615 249.036819 
L 124.194462 241.109933 
L 124.652308 239.506277 
L 125.110154 248.204638 
L 125.568 245.665076 
L 126.025846 235.071363 
L 126.483692 243.592761 
L 126.941538 249.571598 
L 127.399385 244.921825 
L 127.857231 238.518027 
L 128.315077 240.496108 
L 128.772923 223.093452 
L 129.230769 221.307103 
L 129.688615 231.105573 
L 130.146462 247.01091 
L 130.604308 248.27308 
L 131.062154 247.763464 
L 131.52 250.894833 
L 131.977846 246.809642 
L 132.893538 228.6192 
L 133.351385 228.339824 
L 133.809231 242.712678 
L 134.267077 251.887782 
L 134.724923 243.19117 
L 135.640615 236.970531 
L 136.098462 226.2387 
L 136.556308 210.217885 
L 137.014154 186.171721 
L 137.472 181.687092 
L 137.929846 203.725375 
L 138.387692 219.012481 
L 138.845538 224.639568 
L 139.303385 220.964708 
L 140.219077 240.844442 
L 140.676923 244.239613 
L 141.134769 209.123533 
L 141.592615 197.59461 
L 142.050462 234.212612 
L 142.508308 240.032424 
L 142.966154 235.959774 
L 143.424 245.81425 
L 143.881846 251.798693 
L 144.339692 239.117887 
L 144.797538 215.157631 
L 145.713231 251.609185 
L 146.171077 239.851077 
L 146.628923 217.693082 
L 147.086769 214.108509 
L 147.544615 235.366434 
L 148.002462 248.452552 
L 148.460308 248.911562 
L 148.918154 247.596273 
L 149.376 243.024502 
L 149.833846 245.354849 
L 150.291692 217.675802 
L 150.749538 196.989677 
L 151.207385 185.018756 
L 151.665231 200.327071 
L 152.123077 209.588608 
L 153.038769 240.279237 
L 153.496615 248.662782 
L 153.954462 244.812807 
L 154.870154 203.567756 
L 155.785846 241.355868 
L 156.243692 215.586018 
L 157.159385 249.105577 
L 157.617231 240.306538 
L 158.075077 213.147566 
L 158.532923 211.340108 
L 158.990769 218.317007 
L 159.448615 239.688295 
L 159.906462 234.733592 
L 160.364308 219.003268 
L 160.822154 208.263398 
L 161.28 213.526122 
L 161.737846 233.037443 
L 162.195692 246.037076 
L 162.653538 243.634827 
L 163.111385 242.006347 
L 163.569231 241.691091 
L 164.027077 239.233467 
L 164.484923 239.185817 
L 164.942769 235.100951 
L 165.400615 214.999697 
L 166.316308 139.449567 
L 166.774154 157.253912 
L 167.689846 200.478047 
L 168.147692 214.857569 
L 168.605538 203.723428 
L 169.063385 187.437688 
L 169.521231 165.377739 
L 169.979077 154.359141 
L 170.436923 188.337543 
L 170.894769 232.209387 
L 171.352615 240.659469 
L 171.810462 229.587765 
L 172.726154 148.864613 
L 173.184 189.106534 
L 173.641846 240.545362 
L 174.099692 246.137803 
L 174.557538 230.863306 
L 175.015385 243.507605 
L 175.473231 247.923958 
L 175.931077 247.703447 
L 176.388923 234.424432 
L 176.846769 236.750562 
L 177.304615 243.843915 
L 178.220308 250.081755 
L 178.678154 249.144154 
L 179.136 245.651535 
L 179.593846 221.492581 
L 180.051692 219.367206 
L 180.509538 227.733178 
L 180.967385 233.128455 
L 181.425231 249.778975 
L 181.883077 250.161354 
L 182.340923 243.083588 
L 182.798769 213.455893 
L 183.256615 198.156442 
L 184.172308 247.328947 
L 184.630154 250.138091 
L 185.088 238.763473 
L 185.545846 241.2473 
L 186.003692 247.407237 
L 186.461538 250.654082 
L 186.919385 250.548631 
L 187.835077 240.342256 
L 188.292923 247.579031 
L 188.750769 250.274393 
L 189.208615 242.819624 
L 189.666462 231.097522 
L 190.124308 236.835507 
L 190.582154 237.643766 
L 191.04 243.104819 
L 191.497846 251.100621 
L 191.955692 232.225411 
L 192.413538 187.564182 
L 192.871385 161.005346 
L 193.787077 223.409782 
L 194.244923 232.060928 
L 194.702769 238.042561 
L 195.160615 250.978801 
L 196.076308 222.148241 
L 196.534154 238.957848 
L 196.992 249.735166 
L 197.449846 243.570962 
L 197.907692 234.052824 
L 198.365538 219.083515 
L 198.823385 226.635363 
L 199.281231 227.926983 
L 199.739077 234.409669 
L 200.196923 222.887074 
L 200.654769 225.073027 
L 201.112615 216.989238 
L 201.570462 219.885108 
L 202.028308 226.26353 
L 202.944 246.273113 
L 203.401846 250.514588 
L 203.859692 251.394425 
L 204.317538 248.216277 
L 204.775385 247.756126 
L 205.233231 242.034988 
L 205.691077 244.742622 
L 206.148923 251.324526 
L 206.606769 251.780403 
L 207.064615 249.019946 
L 207.522462 243.72909 
L 207.980308 241.795988 
L 208.438154 251.44907 
L 208.896 242.511494 
L 209.353846 227.953819 
L 209.811692 232.360071 
L 210.269538 246.022687 
L 210.727385 248.738584 
L 211.185231 249.305004 
L 211.643077 248.683148 
L 212.558769 251.406104 
L 213.016615 250.634826 
L 213.474462 251.113647 
L 213.932308 249.072701 
L 214.390154 242.810868 
L 214.848 233.450599 
L 215.305846 230.417646 
L 215.763692 245.258674 
L 216.221538 250.127407 
L 216.679385 249.002516 
L 217.137231 244.50184 
L 217.595077 245.814508 
L 218.052923 250.343819 
L 218.510769 250.014215 
L 218.968615 250.333948 
L 219.426462 251.166925 
L 219.884308 247.394075 
L 220.342154 245.952065 
L 220.8 248.107744 
L 221.257846 249.448603 
L 221.715692 249.893161 
L 222.173538 248.761973 
L 222.631385 249.769541 
L 223.089231 251.776122 
L 223.547077 251.910333 
L 224.004923 251.633336 
L 224.462769 250.823798 
L 224.920615 251.629443 
L 225.378462 247.564039 
L 225.836308 239.614678 
L 226.294154 242.613319 
L 227.209846 245.600305 
L 227.667692 249.660474 
L 228.125538 250.893722 
L 228.583385 249.402864 
L 229.041231 248.852324 
L 229.499077 248.946075 
L 229.956923 249.426399 
L 230.414769 251.005535 
L 230.872615 248.068294 
L 231.330462 239.511275 
L 231.788308 238.543016 
L 232.246154 246.112965 
L 232.704 251.445952 
L 233.161846 250.571024 
L 233.619692 250.036273 
L 234.077538 250.976451 
L 234.535385 249.987348 
L 234.993231 250.048433 
L 235.451077 249.769395 
L 235.908923 248.958139 
L 236.366769 248.385544 
L 237.282462 251.909127 
L 238.198154 249.894473 
L 238.656 250.149564 
L 239.571692 248.263598 
L 240.029538 247.128918 
L 240.487385 247.976094 
L 240.945231 250.864936 
L 241.403077 251.561835 
L 241.860923 251.534918 
L 242.776615 249.024317 
L 243.692308 251.505359 
L 244.608 248.333449 
L 245.065846 247.307281 
L 245.523692 248.589304 
L 245.981538 250.593954 
L 246.439385 250.474666 
L 246.897231 248.300259 
L 247.355077 247.293004 
L 248.270769 251.342805 
L 248.728615 251.853258 
L 249.186462 251.455229 
L 249.644308 249.496968 
L 250.102154 249.341067 
L 250.56 251.721044 
L 251.017846 251.051745 
L 251.475692 248.174679 
L 251.933538 246.108886 
L 252.391385 246.514061 
L 252.849231 248.054682 
L 253.307077 248.4924 
L 254.680615 251.830463 
L 255.138462 251.711554 
L 255.596308 250.623687 
L 256.054154 250.014573 
L 256.512 251.270498 
L 256.969846 251.445274 
L 257.427692 249.872836 
L 257.885538 251.526227 
L 258.343385 250.334269 
L 258.801231 249.658259 
L 259.259077 249.796551 
L 259.716923 251.00077 
L 260.174769 251.346563 
L 260.632615 251.18577 
L 261.090462 250.842605 
L 261.548308 248.034545 
L 262.006154 248.005168 
L 262.921846 250.813935 
L 263.379692 251.067682 
L 263.837538 250.852436 
L 264.295385 251.07429 
L 264.753231 251.681933 
L 265.211077 251.097004 
L 265.668923 248.708548 
L 266.126769 249.895248 
L 266.584615 250.286651 
L 267.500308 251.923512 
L 267.958154 251.43209 
L 268.416 251.861732 
L 268.873846 251.84642 
L 269.331692 251.322303 
L 269.789538 251.459147 
L 270.247385 251.44448 
L 270.705231 250.722861 
L 271.163077 251.469081 
L 271.620923 250.876451 
L 272.078769 249.451596 
L 272.536615 247.083036 
L 272.994462 246.343422 
L 273.452308 247.241145 
L 274.368 251.020448 
L 274.825846 251.640413 
L 275.283692 250.893191 
L 276.199385 250.56818 
L 276.657231 250.644843 
L 277.572923 244.086653 
L 278.488615 248.76404 
L 278.946462 249.443096 
L 279.404308 248.331111 
L 279.862154 249.430563 
L 280.32 250.911809 
L 280.777846 251.823787 
L 281.235692 250.479717 
L 281.693538 249.745976 
L 282.151385 250.812063 
L 283.067077 251.59215 
L 283.524923 251.325962 
L 283.982769 250.663991 
L 284.898462 251.621121 
L 285.356308 251.137695 
L 285.814154 250.899061 
L 286.272 249.590691 
L 286.729846 248.923031 
L 287.187692 250.700689 
L 287.645538 251.876545 
L 288.103385 250.489747 
L 288.561231 249.512274 
L 289.019077 250.235193 
L 289.476923 251.554119 
L 289.934769 251.11794 
L 290.392615 247.386769 
L 290.850462 246.669922 
L 291.308308 247.529699 
L 292.224 251.806157 
L 292.681846 251.962154 
L 293.139692 251.658206 
L 294.971077 251.854123 
L 295.428923 251.965463 
L 295.886769 251.860032 
L 296.344615 250.617433 
L 296.802462 249.830224 
L 297.260308 250.046938 
L 297.718154 250.973533 
L 298.176 251.347235 
L 298.633846 251.158023 
L 299.091692 250.809164 
L 300.007385 251.851118 
L 300.465231 251.738751 
L 300.923077 251.068068 
L 301.380923 251.198573 
L 301.838769 251.580792 
L 302.296615 250.746547 
L 302.754462 250.435874 
L 303.212308 251.373023 
L 303.670154 251.406922 
L 304.585846 251.844213 
L 305.043692 251.679891 
L 305.501538 250.149375 
L 305.959385 249.039394 
L 306.417231 249.821143 
L 306.875077 250.874963 
L 307.332923 251.576493 
L 308.248615 251.919246 
L 308.706462 251.967527 
L 309.622154 250.52301 
L 310.08 250.079215 
L 310.537846 248.080277 
L 311.453538 249.980247 
L 311.911385 251.271342 
L 312.369231 251.814295 
L 312.827077 251.51562 
L 313.284923 251.645333 
L 313.742769 250.885945 
L 314.200615 250.870714 
L 314.658462 251.816096 
L 315.574154 250.448043 
L 316.489846 250.744569 
L 316.947692 251.705573 
L 317.405538 251.887433 
L 318.321231 251.523799 
L 318.779077 250.685717 
L 319.236923 250.562938 
L 319.694769 251.193246 
L 320.152615 251.165027 
L 320.610462 250.14578 
L 321.068308 249.911358 
L 321.526154 249.211765 
L 321.984 250.236577 
L 322.441846 250.863986 
L 322.899692 250.464281 
L 323.357538 250.776185 
L 323.815385 251.605387 
L 324.273231 251.8803 
L 325.188923 251.62547 
L 325.646769 251.620468 
L 326.104615 251.115854 
L 327.020308 248.253486 
L 327.936 246.855104 
L 328.393846 248.403085 
L 328.851692 250.897444 
L 329.309538 251.14951 
L 329.767385 250.577102 
L 330.225231 250.651842 
L 330.683077 248.848135 
L 331.140923 249.309305 
L 331.598769 251.057922 
L 332.056615 251.822969 
L 332.514462 251.60875 
L 332.972308 250.914509 
L 333.888 251.488278 
L 334.345846 251.194306 
L 334.803692 251.372887 
L 335.261538 251.93037 
L 336.177231 251.855586 
L 336.635077 251.521548 
L 337.550769 251.997384 
L 339.382154 251.821687 
L 340.297846 251.957238 
L 340.755692 251.75516 
L 341.671385 247.79839 
L 342.129231 248.720999 
L 342.587077 250.98983 
L 343.502769 251.877566 
L 343.960615 251.854239 
L 344.418462 251.949001 
L 344.876308 251.684131 
L 345.334154 251.813069 
L 345.792 251.361464 
L 346.249846 250.567602 
L 347.165538 251.546458 
L 347.623385 251.716659 
L 348.081231 251.487687 
L 348.539077 250.918772 
L 348.996923 250.822435 
L 349.454769 251.058192 
L 349.912615 251.561441 
L 350.370462 251.714176 
L 350.828308 251.57908 
L 352.201846 251.987311 
L 352.659692 251.901746 
L 353.117538 251.269484 
L 353.575385 251.520362 
L 354.033231 251.904955 
L 355.406769 251.371211 
L 355.864615 251.740691 
L 356.322462 251.919944 
L 356.780308 251.514776 
L 357.238154 251.367364 
L 358.153846 251.910566 
L 358.611692 251.966143 
L 359.069538 251.893199 
L 359.527385 251.518258 
L 359.985231 250.839535 
L 360.443077 250.830878 
L 360.900923 251.353326 
L 361.358769 250.897914 
L 361.816615 250.955496 
L 362.274462 251.631766 
L 362.732308 251.190983 
L 363.190154 250.948149 
L 363.648 251.289096 
L 364.563692 251.580873 
L 365.021538 251.423408 
L 365.479385 251.401793 
L 365.937231 251.770294 
L 366.395077 251.987528 
L 366.852923 251.686779 
L 367.310769 250.934918 
L 367.768615 250.635771 
L 368.226462 250.857605 
L 368.684308 251.702748 
L 369.142154 251.757216 
L 369.6 251.548558 
L 370.057846 251.929872 
L 370.515692 251.983526 
L 370.973538 251.847592 
L 371.431385 251.949615 
L 371.889231 251.913256 
L 372.347077 251.332032 
L 372.804923 251.035042 
L 373.262769 250.566848 
L 373.720615 250.599069 
L 374.636308 251.051705 
L 375.094154 251.569141 
L 375.552 251.814439 
L 376.009846 251.591375 
L 376.467692 251.853946 
L 376.925538 251.929097 
L 377.383385 251.807507 
L 378.299077 251.196997 
L 378.756923 251.464019 
L 379.214769 251.954663 
L 379.672615 251.961367 
L 380.588308 251.617571 
L 381.504 251.994115 
L 382.419692 251.385153 
L 383.335385 251.893811 
L 383.793231 251.906913 
L 384.251077 251.395969 
L 384.708923 251.314236 
L 385.166769 251.830319 
L 385.624615 251.890543 
L 386.998154 251.41323 
L 387.456 250.461953 
L 387.913846 250.974045 
L 388.371692 251.956166 
L 388.829538 251.651914 
L 389.287385 251.099285 
L 389.745231 251.406514 
L 390.203077 251.107868 
L 391.118769 251.989547 
L 391.576615 251.853121 
L 392.950154 251.858869 
L 393.408 251.678617 
L 393.865846 251.711691 
L 394.323692 251.924078 
L 395.239385 251.954658 
L 396.155077 251.896763 
L 396.612923 251.973056 
L 397.070769 251.625801 
L 397.528615 250.989303 
L 397.986462 250.947929 
L 398.444308 251.66443 
L 398.902154 251.818094 
L 399.36 251.143574 
L 399.817846 249.885738 
L 400.275692 249.946362 
L 400.733538 250.43188 
L 401.191385 251.398815 
L 401.649231 251.988841 
L 402.107077 251.904986 
L 402.564923 251.96515 
L 403.022769 251.564199 
L 403.938462 251.379486 
L 404.396308 251.501686 
L 404.854154 251.812978 
L 405.312 251.965399 
L 405.769846 251.345527 
L 406.227692 251.197385 
L 407.143385 251.995149 
L 408.516923 251.78468 
L 408.974769 251.828672 
L 409.432615 251.456053 
L 409.890462 251.327713 
L 410.348308 251.926876 
L 410.806154 251.8494 
L 411.264 251.633289 
L 411.721846 251.65712 
L 412.637538 251.467713 
L 413.095385 251.515852 
L 413.553231 251.425086 
L 414.468923 251.986292 
L 416.758154 251.882464 
L 417.216 251.999527 
L 418.131692 251.306196 
L 419.505231 251.966002 
L 419.963077 251.798945 
L 420.420923 251.44375 
L 421.336615 251.672926 
L 421.794462 251.876671 
L 422.252308 251.861011 
L 422.710154 251.178182 
L 423.168 251.220512 
L 423.625846 251.781769 
L 424.541538 251.673525 
L 424.999385 251.74716 
L 425.457231 251.295159 
L 425.915077 251.265312 
L 426.372923 251.896392 
L 427.288615 251.711391 
L 427.746462 251.90197 
L 428.204308 251.938389 
L 428.662154 251.421653 
L 429.12 251.242609 
L 430.035692 251.441608 
L 430.493538 251.742831 
L 430.951385 251.900406 
L 431.867077 251.771345 
L 432.782769 251.606963 
L 433.240615 251.554166 
L 434.156308 251.804997 
L 434.614154 251.961603 
L 435.987692 251.989827 
L 437.361231 251.803871 
L 437.819077 251.994297 
L 439.192615 251.546015 
L 441.024 251.921975 
L 442.855385 251.987972 
L 443.313231 251.875139 
L 443.771077 251.578236 
L 444.228923 251.705785 
L 444.686769 251.699861 
L 445.144615 251.953603 
L 446.060308 251.876118 
L 446.976 251.57213 
L 447.433846 251.550811 
L 447.891692 251.874435 
L 448.349538 251.962293 
L 449.723077 251.736867 
L 451.096615 251.788898 
L 452.012308 251.530088 
L 452.928 251.844279 
L 454.301538 251.995328 
L 454.759385 251.914223 
L 455.675077 251.29665 
L 456.590769 251.878683 
L 457.048615 251.630023 
L 457.506462 251.540484 
L 457.964308 251.944046 
L 458.88 251.904553 
L 460.711385 251.711941 
L 462.084923 251.67878 
L 463.000615 251.899597 
L 463.916308 251.357279 
L 464.374154 251.404526 
L 464.832 251.845274 
L 465.289846 251.974701 
L 466.663385 251.691858 
L 467.121231 251.398857 
L 468.036923 251.784432 
L 469.868308 251.895402 
L 470.784 251.519323 
L 471.699692 251.940579 
L 472.157538 251.748911 
L 472.615385 251.920149 
L 473.531077 251.827665 
L 474.446769 251.805018 
L 474.904615 251.940837 
L 476.736 251.920279 
L 477.651692 251.599226 
L 478.109538 251.72216 
L 478.567385 251.592555 
L 479.483077 251.919857 
L 479.940923 251.5716 
L 480.398769 251.42342 
L 481.314462 251.97926 
L 482.688 251.950483 
L 483.603692 251.580066 
L 484.061538 251.123121 
L 484.519385 250.940802 
L 484.977231 251.172559 
L 485.435077 251.673958 
L 485.892923 251.851519 
L 488.182154 251.965832 
L 488.64 251.79067 
L 491.844923 251.884721 
L 492.760615 251.843218 
L 493.676308 251.990344 
L 495.965538 251.876602 
L 496.881231 251.468207 
L 497.339077 251.545723 
L 498.254769 251.873332 
L 498.712615 251.863827 
L 499.628308 251.568529 
L 501.459692 251.915412 
L 502.375385 251.854202 
L 503.291077 251.941435 
L 508.327385 251.85729 
L 509.243077 251.985347 
L 510.158769 251.815538 
L 511.990154 251.997907 
L 514.279385 251.954774 
L 514.737231 251.787028 
L 517.026462 251.664843 
L 517.942154 251.952033 
L 518.857846 251.933412 
L 518.857846 251.933412 
" style="fill:none;stroke:#000000;stroke-linecap:square;stroke-width:1.5;"/>
   </g>
   <g id="patch_3">
    <path d="M 72 252 
L 72 34.56 
" style="fill:none;stroke:#000000;stroke-linecap:square;stroke-linejoin:miter;stroke-width:0.8;"/>
   </g>
   <g id="patch_4">
    <path d="M 518.4 252 
L 518.4 34.56 
" style="fill:none;stroke:#000000;stroke-linecap:square;stroke-linejoin:miter;stroke-width:0.8;"/>
   </g>
   <g id="patch_5">
    <path d="M 72 252 
L 518.4 252 
" style="fill:none;stroke:#000000;stroke-linecap:square;stroke-linejoin:miter;stroke-width:0.8;"/>
   </g>
   <g id="patch_6">
    <path d="M 72 34.56 
L 518.4 34.56 
" style="fill:none;stroke:#000000;stroke-linecap:square;stroke-linejoin:miter;stroke-width:0.8;"/>
   </g>
   <g id="text_20">
    <!--  Periodograma -->
    <defs>
     <path d="M 19.671875 64.796875 
L 19.671875 37.40625 
L 32.078125 37.40625 
Q 38.96875 37.40625 42.71875 40.96875 
Q 46.484375 44.53125 46.484375 51.125 
Q 46.484375 57.671875 42.71875 61.234375 
Q 38.96875 64.796875 32.078125 64.796875 
z
M 9.8125 72.90625 
L 32.078125 72.90625 
Q 44.34375 72.90625 50.609375 67.359375 
Q 56.890625 61.8125 56.890625 51.125 
Q 56.890625 40.328125 50.609375 34.8125 
Q 44.34375 29.296875 32.078125 29.296875 
L 19.671875 29.296875 
L 19.671875 0 
L 9.8125 0 
z
" id="DejaVuSans-80"/>
     <path d="M 30.609375 48.390625 
Q 23.390625 48.390625 19.1875 42.75 
Q 14.984375 37.109375 14.984375 27.296875 
Q 14.984375 17.484375 19.15625 11.84375 
Q 23.34375 6.203125 30.609375 6.203125 
Q 37.796875 6.203125 41.984375 11.859375 
Q 46.1875 17.53125 46.1875 27.296875 
Q 46.1875 37.015625 41.984375 42.703125 
Q 37.796875 48.390625 30.609375 48.390625 
z
M 30.609375 56 
Q 42.328125 56 49.015625 48.375 
Q 55.71875 40.765625 55.71875 27.296875 
Q 55.71875 13.875 49.015625 6.21875 
Q 42.328125 -1.421875 30.609375 -1.421875 
Q 18.84375 -1.421875 12.171875 6.21875 
Q 5.515625 13.875 5.515625 27.296875 
Q 5.515625 40.765625 12.171875 48.375 
Q 18.84375 56 30.609375 56 
z
" id="DejaVuSans-111"/>
     <path d="M 45.40625 27.984375 
Q 45.40625 37.75 41.375 43.109375 
Q 37.359375 48.484375 30.078125 48.484375 
Q 22.859375 48.484375 18.828125 43.109375 
Q 14.796875 37.75 14.796875 27.984375 
Q 14.796875 18.265625 18.828125 12.890625 
Q 22.859375 7.515625 30.078125 7.515625 
Q 37.359375 7.515625 41.375 12.890625 
Q 45.40625 18.265625 45.40625 27.984375 
z
M 54.390625 6.78125 
Q 54.390625 -7.171875 48.1875 -13.984375 
Q 42 -20.796875 29.203125 -20.796875 
Q 24.46875 -20.796875 20.265625 -20.09375 
Q 16.0625 -19.390625 12.109375 -17.921875 
L 12.109375 -9.1875 
Q 16.0625 -11.328125 19.921875 -12.34375 
Q 23.78125 -13.375 27.78125 -13.375 
Q 36.625 -13.375 41.015625 -8.765625 
Q 45.40625 -4.15625 45.40625 5.171875 
L 45.40625 9.625 
Q 42.625 4.78125 38.28125 2.390625 
Q 33.9375 0 27.875 0 
Q 17.828125 0 11.671875 7.65625 
Q 5.515625 15.328125 5.515625 27.984375 
Q 5.515625 40.671875 11.671875 48.328125 
Q 17.828125 56 27.875 56 
Q 33.9375 56 38.28125 53.609375 
Q 42.625 51.21875 45.40625 46.390625 
L 45.40625 54.6875 
L 54.390625 54.6875 
z
" id="DejaVuSans-103"/>
    </defs>
    <g transform="translate(251.442187 28.56)scale(0.12 -0.12)">
     <use xlink:href="#DejaVuSans-32"/>
     <use x="31.787109" xlink:href="#DejaVuSans-80"/>
     <use x="88.464844" xlink:href="#DejaVuSans-101"/>
     <use x="149.988281" xlink:href="#DejaVuSans-114"/>
     <use x="191.101562" xlink:href="#DejaVuSans-105"/>
     <use x="218.884766" xlink:href="#DejaVuSans-111"/>
     <use x="280.066406" xlink:href="#DejaVuSans-100"/>
     <use x="343.542969" xlink:href="#DejaVuSans-111"/>
     <use x="404.724609" xlink:href="#DejaVuSans-103"/>
     <use x="468.201172" xlink:href="#DejaVuSans-114"/>
     <use x="509.314453" xlink:href="#DejaVuSans-97"/>
     <use x="570.59375" xlink:href="#DejaVuSans-109"/>
     <use x="668.005859" xlink:href="#DejaVuSans-97"/>
    </g>
   </g>
  </g>
 </g>
 <defs>
  <clipPath id="pfe665f8f54">
   <rect height="217.44" width="446.4" x="72" y="34.56"/>
  </clipPath>
 </defs>
</svg>
