<?xml version="1.0" encoding="utf-8" standalone="no"?>
<!DOCTYPE svg PUBLIC "-//W3C//DTD SVG 1.1//EN"
  "http://www.w3.org/Graphics/SVG/1.1/DTD/svg11.dtd">
<!-- Created with matplotlib (https://matplotlib.org/) -->
<svg height="288pt" version="1.1" viewBox="0 0 576 288" width="576pt" xmlns="http://www.w3.org/2000/svg" xmlns:xlink="http://www.w3.org/1999/xlink">
 <defs>
  <style type="text/css">
*{stroke-linecap:butt;stroke-linejoin:round;}
  </style>
 </defs>
 <g id="figure_1">
  <g id="patch_1">
   <path d="M 0 288 
L 576 288 
L 576 0 
L 0 0 
z
" style="fill:#ffffff;"/>
  </g>
  <g id="axes_1">
   <g id="patch_2">
    <path d="M 72 252 
L 518.4 252 
L 518.4 34.56 
L 72 34.56 
z
" style="fill:#ffffff;"/>
   </g>
   <g id="matplotlib.axis_1">
    <g id="xtick_1">
     <g id="line2d_1">
      <path clip-path="url(#p9195a0af9e)" d="M 72 252 
L 72 34.56 
" style="fill:none;stroke:#b0b0b0;stroke-linecap:square;stroke-width:0.8;"/>
     </g>
     <g id="line2d_2">
      <defs>
       <path d="M 0 0 
L 0 3.5 
" id="m36688ebb6d" style="stroke:#000000;stroke-width:0.8;"/>
      </defs>
      <g>
       <use style="stroke:#000000;stroke-width:0.8;" x="72" xlink:href="#m36688ebb6d" y="252"/>
      </g>
     </g>
     <g id="text_1">
      <!-- 0 -->
      <defs>
       <path d="M 31.78125 66.40625 
Q 24.171875 66.40625 20.328125 58.90625 
Q 16.5 51.421875 16.5 36.375 
Q 16.5 21.390625 20.328125 13.890625 
Q 24.171875 6.390625 31.78125 6.390625 
Q 39.453125 6.390625 43.28125 13.890625 
Q 47.125 21.390625 47.125 36.375 
Q 47.125 51.421875 43.28125 58.90625 
Q 39.453125 66.40625 31.78125 66.40625 
z
M 31.78125 74.21875 
Q 44.046875 74.21875 50.515625 64.515625 
Q 56.984375 54.828125 56.984375 36.375 
Q 56.984375 17.96875 50.515625 8.265625 
Q 44.046875 -1.421875 31.78125 -1.421875 
Q 19.53125 -1.421875 13.0625 8.265625 
Q 6.59375 17.96875 6.59375 36.375 
Q 6.59375 54.828125 13.0625 64.515625 
Q 19.53125 74.21875 31.78125 74.21875 
z
" id="DejaVuSans-48"/>
      </defs>
      <g transform="translate(68.81875 266.598437)scale(0.1 -0.1)">
       <use xlink:href="#DejaVuSans-48"/>
      </g>
     </g>
    </g>
    <g id="xtick_2">
     <g id="line2d_3">
      <path clip-path="url(#p9195a0af9e)" d="M 146.4 252 
L 146.4 34.56 
" style="fill:none;stroke:#b0b0b0;stroke-linecap:square;stroke-width:0.8;"/>
     </g>
     <g id="line2d_4">
      <g>
       <use style="stroke:#000000;stroke-width:0.8;" x="146.4" xlink:href="#m36688ebb6d" y="252"/>
      </g>
     </g>
     <g id="text_2">
      <!-- 5 -->
      <defs>
       <path d="M 10.796875 72.90625 
L 49.515625 72.90625 
L 49.515625 64.59375 
L 19.828125 64.59375 
L 19.828125 46.734375 
Q 21.96875 47.46875 24.109375 47.828125 
Q 26.265625 48.1875 28.421875 48.1875 
Q 40.625 48.1875 47.75 41.5 
Q 54.890625 34.8125 54.890625 23.390625 
Q 54.890625 11.625 47.5625 5.09375 
Q 40.234375 -1.421875 26.90625 -1.421875 
Q 22.3125 -1.421875 17.546875 -0.640625 
Q 12.796875 0.140625 7.71875 1.703125 
L 7.71875 11.625 
Q 12.109375 9.234375 16.796875 8.0625 
Q 21.484375 6.890625 26.703125 6.890625 
Q 35.15625 6.890625 40.078125 11.328125 
Q 45.015625 15.765625 45.015625 23.390625 
Q 45.015625 31 40.078125 35.4375 
Q 35.15625 39.890625 26.703125 39.890625 
Q 22.75 39.890625 18.8125 39.015625 
Q 14.890625 38.140625 10.796875 36.28125 
z
" id="DejaVuSans-53"/>
      </defs>
      <g transform="translate(143.21875 266.598437)scale(0.1 -0.1)">
       <use xlink:href="#DejaVuSans-53"/>
      </g>
     </g>
    </g>
    <g id="xtick_3">
     <g id="line2d_5">
      <path clip-path="url(#p9195a0af9e)" d="M 220.8 252 
L 220.8 34.56 
" style="fill:none;stroke:#b0b0b0;stroke-linecap:square;stroke-width:0.8;"/>
     </g>
     <g id="line2d_6">
      <g>
       <use style="stroke:#000000;stroke-width:0.8;" x="220.8" xlink:href="#m36688ebb6d" y="252"/>
      </g>
     </g>
     <g id="text_3">
      <!-- 10 -->
      <defs>
       <path d="M 12.40625 8.296875 
L 28.515625 8.296875 
L 28.515625 63.921875 
L 10.984375 60.40625 
L 10.984375 69.390625 
L 28.421875 72.90625 
L 38.28125 72.90625 
L 38.28125 8.296875 
L 54.390625 8.296875 
L 54.390625 0 
L 12.40625 0 
z
" id="DejaVuSans-49"/>
      </defs>
      <g transform="translate(214.4375 266.598437)scale(0.1 -0.1)">
       <use xlink:href="#DejaVuSans-49"/>
       <use x="63.623047" xlink:href="#DejaVuSans-48"/>
      </g>
     </g>
    </g>
    <g id="xtick_4">
     <g id="line2d_7">
      <path clip-path="url(#p9195a0af9e)" d="M 295.2 252 
L 295.2 34.56 
" style="fill:none;stroke:#b0b0b0;stroke-linecap:square;stroke-width:0.8;"/>
     </g>
     <g id="line2d_8">
      <g>
       <use style="stroke:#000000;stroke-width:0.8;" x="295.2" xlink:href="#m36688ebb6d" y="252"/>
      </g>
     </g>
     <g id="text_4">
      <!-- 15 -->
      <g transform="translate(288.8375 266.598437)scale(0.1 -0.1)">
       <use xlink:href="#DejaVuSans-49"/>
       <use x="63.623047" xlink:href="#DejaVuSans-53"/>
      </g>
     </g>
    </g>
    <g id="xtick_5">
     <g id="line2d_9">
      <path clip-path="url(#p9195a0af9e)" d="M 369.6 252 
L 369.6 34.56 
" style="fill:none;stroke:#b0b0b0;stroke-linecap:square;stroke-width:0.8;"/>
     </g>
     <g id="line2d_10">
      <g>
       <use style="stroke:#000000;stroke-width:0.8;" x="369.6" xlink:href="#m36688ebb6d" y="252"/>
      </g>
     </g>
     <g id="text_5">
      <!-- 20 -->
      <defs>
       <path d="M 19.1875 8.296875 
L 53.609375 8.296875 
L 53.609375 0 
L 7.328125 0 
L 7.328125 8.296875 
Q 12.9375 14.109375 22.625 23.890625 
Q 32.328125 33.6875 34.8125 36.53125 
Q 39.546875 41.84375 41.421875 45.53125 
Q 43.3125 49.21875 43.3125 52.78125 
Q 43.3125 58.59375 39.234375 62.25 
Q 35.15625 65.921875 28.609375 65.921875 
Q 23.96875 65.921875 18.8125 64.3125 
Q 13.671875 62.703125 7.8125 59.421875 
L 7.8125 69.390625 
Q 13.765625 71.78125 18.9375 73 
Q 24.125 74.21875 28.421875 74.21875 
Q 39.75 74.21875 46.484375 68.546875 
Q 53.21875 62.890625 53.21875 53.421875 
Q 53.21875 48.921875 51.53125 44.890625 
Q 49.859375 40.875 45.40625 35.40625 
Q 44.1875 33.984375 37.640625 27.21875 
Q 31.109375 20.453125 19.1875 8.296875 
z
" id="DejaVuSans-50"/>
      </defs>
      <g transform="translate(363.2375 266.598437)scale(0.1 -0.1)">
       <use xlink:href="#DejaVuSans-50"/>
       <use x="63.623047" xlink:href="#DejaVuSans-48"/>
      </g>
     </g>
    </g>
    <g id="xtick_6">
     <g id="line2d_11">
      <path clip-path="url(#p9195a0af9e)" d="M 444 252 
L 444 34.56 
" style="fill:none;stroke:#b0b0b0;stroke-linecap:square;stroke-width:0.8;"/>
     </g>
     <g id="line2d_12">
      <g>
       <use style="stroke:#000000;stroke-width:0.8;" x="444" xlink:href="#m36688ebb6d" y="252"/>
      </g>
     </g>
     <g id="text_6">
      <!-- 25 -->
      <g transform="translate(437.6375 266.598437)scale(0.1 -0.1)">
       <use xlink:href="#DejaVuSans-50"/>
       <use x="63.623047" xlink:href="#DejaVuSans-53"/>
      </g>
     </g>
    </g>
    <g id="xtick_7">
     <g id="line2d_13">
      <path clip-path="url(#p9195a0af9e)" d="M 518.4 252 
L 518.4 34.56 
" style="fill:none;stroke:#b0b0b0;stroke-linecap:square;stroke-width:0.8;"/>
     </g>
     <g id="line2d_14">
      <g>
       <use style="stroke:#000000;stroke-width:0.8;" x="518.4" xlink:href="#m36688ebb6d" y="252"/>
      </g>
     </g>
     <g id="text_7">
      <!-- 30 -->
      <defs>
       <path d="M 40.578125 39.3125 
Q 47.65625 37.796875 51.625 33 
Q 55.609375 28.21875 55.609375 21.1875 
Q 55.609375 10.40625 48.1875 4.484375 
Q 40.765625 -1.421875 27.09375 -1.421875 
Q 22.515625 -1.421875 17.65625 -0.515625 
Q 12.796875 0.390625 7.625 2.203125 
L 7.625 11.71875 
Q 11.71875 9.328125 16.59375 8.109375 
Q 21.484375 6.890625 26.8125 6.890625 
Q 36.078125 6.890625 40.9375 10.546875 
Q 45.796875 14.203125 45.796875 21.1875 
Q 45.796875 27.640625 41.28125 31.265625 
Q 36.765625 34.90625 28.71875 34.90625 
L 20.21875 34.90625 
L 20.21875 43.015625 
L 29.109375 43.015625 
Q 36.375 43.015625 40.234375 45.921875 
Q 44.09375 48.828125 44.09375 54.296875 
Q 44.09375 59.90625 40.109375 62.90625 
Q 36.140625 65.921875 28.71875 65.921875 
Q 24.65625 65.921875 20.015625 65.03125 
Q 15.375 64.15625 9.8125 62.3125 
L 9.8125 71.09375 
Q 15.4375 72.65625 20.34375 73.4375 
Q 25.25 74.21875 29.59375 74.21875 
Q 40.828125 74.21875 47.359375 69.109375 
Q 53.90625 64.015625 53.90625 55.328125 
Q 53.90625 49.265625 50.4375 45.09375 
Q 46.96875 40.921875 40.578125 39.3125 
z
" id="DejaVuSans-51"/>
      </defs>
      <g transform="translate(512.0375 266.598437)scale(0.1 -0.1)">
       <use xlink:href="#DejaVuSans-51"/>
       <use x="63.623047" xlink:href="#DejaVuSans-48"/>
      </g>
     </g>
    </g>
    <g id="text_8">
     <!-- Tempo (s) -->
     <defs>
      <path d="M -0.296875 72.90625 
L 61.375 72.90625 
L 61.375 64.59375 
L 35.5 64.59375 
L 35.5 0 
L 25.59375 0 
L 25.59375 64.59375 
L -0.296875 64.59375 
z
" id="DejaVuSans-84"/>
      <path d="M 56.203125 29.59375 
L 56.203125 25.203125 
L 14.890625 25.203125 
Q 15.484375 15.921875 20.484375 11.0625 
Q 25.484375 6.203125 34.421875 6.203125 
Q 39.59375 6.203125 44.453125 7.46875 
Q 49.3125 8.734375 54.109375 11.28125 
L 54.109375 2.78125 
Q 49.265625 0.734375 44.1875 -0.34375 
Q 39.109375 -1.421875 33.890625 -1.421875 
Q 20.796875 -1.421875 13.15625 6.1875 
Q 5.515625 13.8125 5.515625 26.8125 
Q 5.515625 40.234375 12.765625 48.109375 
Q 20.015625 56 32.328125 56 
Q 43.359375 56 49.78125 48.890625 
Q 56.203125 41.796875 56.203125 29.59375 
z
M 47.21875 32.234375 
Q 47.125 39.59375 43.09375 43.984375 
Q 39.0625 48.390625 32.421875 48.390625 
Q 24.90625 48.390625 20.390625 44.140625 
Q 15.875 39.890625 15.1875 32.171875 
z
" id="DejaVuSans-101"/>
      <path d="M 52 44.1875 
Q 55.375 50.25 60.0625 53.125 
Q 64.75 56 71.09375 56 
Q 79.640625 56 84.28125 50.015625 
Q 88.921875 44.046875 88.921875 33.015625 
L 88.921875 0 
L 79.890625 0 
L 79.890625 32.71875 
Q 79.890625 40.578125 77.09375 44.375 
Q 74.3125 48.1875 68.609375 48.1875 
Q 61.625 48.1875 57.5625 43.546875 
Q 53.515625 38.921875 53.515625 30.90625 
L 53.515625 0 
L 44.484375 0 
L 44.484375 32.71875 
Q 44.484375 40.625 41.703125 44.40625 
Q 38.921875 48.1875 33.109375 48.1875 
Q 26.21875 48.1875 22.15625 43.53125 
Q 18.109375 38.875 18.109375 30.90625 
L 18.109375 0 
L 9.078125 0 
L 9.078125 54.6875 
L 18.109375 54.6875 
L 18.109375 46.1875 
Q 21.1875 51.21875 25.484375 53.609375 
Q 29.78125 56 35.6875 56 
Q 41.65625 56 45.828125 52.96875 
Q 50 49.953125 52 44.1875 
z
" id="DejaVuSans-109"/>
      <path d="M 18.109375 8.203125 
L 18.109375 -20.796875 
L 9.078125 -20.796875 
L 9.078125 54.6875 
L 18.109375 54.6875 
L 18.109375 46.390625 
Q 20.953125 51.265625 25.265625 53.625 
Q 29.59375 56 35.59375 56 
Q 45.5625 56 51.78125 48.09375 
Q 58.015625 40.1875 58.015625 27.296875 
Q 58.015625 14.40625 51.78125 6.484375 
Q 45.5625 -1.421875 35.59375 -1.421875 
Q 29.59375 -1.421875 25.265625 0.953125 
Q 20.953125 3.328125 18.109375 8.203125 
z
M 48.6875 27.296875 
Q 48.6875 37.203125 44.609375 42.84375 
Q 40.53125 48.484375 33.40625 48.484375 
Q 26.265625 48.484375 22.1875 42.84375 
Q 18.109375 37.203125 18.109375 27.296875 
Q 18.109375 17.390625 22.1875 11.75 
Q 26.265625 6.109375 33.40625 6.109375 
Q 40.53125 6.109375 44.609375 11.75 
Q 48.6875 17.390625 48.6875 27.296875 
z
" id="DejaVuSans-112"/>
      <path d="M 30.609375 48.390625 
Q 23.390625 48.390625 19.1875 42.75 
Q 14.984375 37.109375 14.984375 27.296875 
Q 14.984375 17.484375 19.15625 11.84375 
Q 23.34375 6.203125 30.609375 6.203125 
Q 37.796875 6.203125 41.984375 11.859375 
Q 46.1875 17.53125 46.1875 27.296875 
Q 46.1875 37.015625 41.984375 42.703125 
Q 37.796875 48.390625 30.609375 48.390625 
z
M 30.609375 56 
Q 42.328125 56 49.015625 48.375 
Q 55.71875 40.765625 55.71875 27.296875 
Q 55.71875 13.875 49.015625 6.21875 
Q 42.328125 -1.421875 30.609375 -1.421875 
Q 18.84375 -1.421875 12.171875 6.21875 
Q 5.515625 13.875 5.515625 27.296875 
Q 5.515625 40.765625 12.171875 48.375 
Q 18.84375 56 30.609375 56 
z
" id="DejaVuSans-111"/>
      <path id="DejaVuSans-32"/>
      <path d="M 31 75.875 
Q 24.46875 64.65625 21.28125 53.65625 
Q 18.109375 42.671875 18.109375 31.390625 
Q 18.109375 20.125 21.3125 9.0625 
Q 24.515625 -2 31 -13.1875 
L 23.1875 -13.1875 
Q 15.875 -1.703125 12.234375 9.375 
Q 8.59375 20.453125 8.59375 31.390625 
Q 8.59375 42.28125 12.203125 53.3125 
Q 15.828125 64.359375 23.1875 75.875 
z
" id="DejaVuSans-40"/>
      <path d="M 44.28125 53.078125 
L 44.28125 44.578125 
Q 40.484375 46.53125 36.375 47.5 
Q 32.28125 48.484375 27.875 48.484375 
Q 21.1875 48.484375 17.84375 46.4375 
Q 14.5 44.390625 14.5 40.28125 
Q 14.5 37.15625 16.890625 35.375 
Q 19.28125 33.59375 26.515625 31.984375 
L 29.59375 31.296875 
Q 39.15625 29.25 43.1875 25.515625 
Q 47.21875 21.78125 47.21875 15.09375 
Q 47.21875 7.46875 41.1875 3.015625 
Q 35.15625 -1.421875 24.609375 -1.421875 
Q 20.21875 -1.421875 15.453125 -0.5625 
Q 10.6875 0.296875 5.421875 2 
L 5.421875 11.28125 
Q 10.40625 8.6875 15.234375 7.390625 
Q 20.0625 6.109375 24.8125 6.109375 
Q 31.15625 6.109375 34.5625 8.28125 
Q 37.984375 10.453125 37.984375 14.40625 
Q 37.984375 18.0625 35.515625 20.015625 
Q 33.0625 21.96875 24.703125 23.78125 
L 21.578125 24.515625 
Q 13.234375 26.265625 9.515625 29.90625 
Q 5.8125 33.546875 5.8125 39.890625 
Q 5.8125 47.609375 11.28125 51.796875 
Q 16.75 56 26.8125 56 
Q 31.78125 56 36.171875 55.265625 
Q 40.578125 54.546875 44.28125 53.078125 
z
" id="DejaVuSans-115"/>
      <path d="M 8.015625 75.875 
L 15.828125 75.875 
Q 23.140625 64.359375 26.78125 53.3125 
Q 30.421875 42.28125 30.421875 31.390625 
Q 30.421875 20.453125 26.78125 9.375 
Q 23.140625 -1.703125 15.828125 -13.1875 
L 8.015625 -13.1875 
Q 14.5 -2 17.703125 9.0625 
Q 20.90625 20.125 20.90625 31.390625 
Q 20.90625 42.671875 17.703125 53.65625 
Q 14.5 64.65625 8.015625 75.875 
z
" id="DejaVuSans-41"/>
     </defs>
     <g transform="translate(270.720312 280.276563)scale(0.1 -0.1)">
      <use xlink:href="#DejaVuSans-84"/>
      <use x="44.083984" xlink:href="#DejaVuSans-101"/>
      <use x="105.607422" xlink:href="#DejaVuSans-109"/>
      <use x="203.019531" xlink:href="#DejaVuSans-112"/>
      <use x="266.496094" xlink:href="#DejaVuSans-111"/>
      <use x="327.677734" xlink:href="#DejaVuSans-32"/>
      <use x="359.464844" xlink:href="#DejaVuSans-40"/>
      <use x="398.478516" xlink:href="#DejaVuSans-115"/>
      <use x="450.578125" xlink:href="#DejaVuSans-41"/>
     </g>
    </g>
   </g>
   <g id="matplotlib.axis_2">
    <g id="ytick_1">
     <g id="line2d_15">
      <path clip-path="url(#p9195a0af9e)" d="M 72 223.257439 
L 518.4 223.257439 
" style="fill:none;stroke:#b0b0b0;stroke-linecap:square;stroke-width:0.8;"/>
     </g>
     <g id="line2d_16">
      <defs>
       <path d="M 0 0 
L -3.5 0 
" id="m734e92315c" style="stroke:#000000;stroke-width:0.8;"/>
      </defs>
      <g>
       <use style="stroke:#000000;stroke-width:0.8;" x="72" xlink:href="#m734e92315c" y="223.257439"/>
      </g>
     </g>
     <g id="text_9">
      <!-- −2 -->
      <defs>
       <path d="M 10.59375 35.5 
L 73.1875 35.5 
L 73.1875 27.203125 
L 10.59375 27.203125 
z
" id="DejaVuSans-8722"/>
      </defs>
      <g transform="translate(50.257812 227.056658)scale(0.1 -0.1)">
       <use xlink:href="#DejaVuSans-8722"/>
       <use x="83.789062" xlink:href="#DejaVuSans-50"/>
      </g>
     </g>
    </g>
    <g id="ytick_2">
     <g id="line2d_17">
      <path clip-path="url(#p9195a0af9e)" d="M 72 189.522706 
L 518.4 189.522706 
" style="fill:none;stroke:#b0b0b0;stroke-linecap:square;stroke-width:0.8;"/>
     </g>
     <g id="line2d_18">
      <g>
       <use style="stroke:#000000;stroke-width:0.8;" x="72" xlink:href="#m734e92315c" y="189.522706"/>
      </g>
     </g>
     <g id="text_10">
      <!-- −1 -->
      <g transform="translate(50.257812 193.321925)scale(0.1 -0.1)">
       <use xlink:href="#DejaVuSans-8722"/>
       <use x="83.789062" xlink:href="#DejaVuSans-49"/>
      </g>
     </g>
    </g>
    <g id="ytick_3">
     <g id="line2d_19">
      <path clip-path="url(#p9195a0af9e)" d="M 72 155.787973 
L 518.4 155.787973 
" style="fill:none;stroke:#b0b0b0;stroke-linecap:square;stroke-width:0.8;"/>
     </g>
     <g id="line2d_20">
      <g>
       <use style="stroke:#000000;stroke-width:0.8;" x="72" xlink:href="#m734e92315c" y="155.787973"/>
      </g>
     </g>
     <g id="text_11">
      <!-- 0 -->
      <g transform="translate(58.6375 159.587192)scale(0.1 -0.1)">
       <use xlink:href="#DejaVuSans-48"/>
      </g>
     </g>
    </g>
    <g id="ytick_4">
     <g id="line2d_21">
      <path clip-path="url(#p9195a0af9e)" d="M 72 122.05324 
L 518.4 122.05324 
" style="fill:none;stroke:#b0b0b0;stroke-linecap:square;stroke-width:0.8;"/>
     </g>
     <g id="line2d_22">
      <g>
       <use style="stroke:#000000;stroke-width:0.8;" x="72" xlink:href="#m734e92315c" y="122.05324"/>
      </g>
     </g>
     <g id="text_12">
      <!-- 1 -->
      <g transform="translate(58.6375 125.852459)scale(0.1 -0.1)">
       <use xlink:href="#DejaVuSans-49"/>
      </g>
     </g>
    </g>
    <g id="ytick_5">
     <g id="line2d_23">
      <path clip-path="url(#p9195a0af9e)" d="M 72 88.318507 
L 518.4 88.318507 
" style="fill:none;stroke:#b0b0b0;stroke-linecap:square;stroke-width:0.8;"/>
     </g>
     <g id="line2d_24">
      <g>
       <use style="stroke:#000000;stroke-width:0.8;" x="72" xlink:href="#m734e92315c" y="88.318507"/>
      </g>
     </g>
     <g id="text_13">
      <!-- 2 -->
      <g transform="translate(58.6375 92.117725)scale(0.1 -0.1)">
       <use xlink:href="#DejaVuSans-50"/>
      </g>
     </g>
    </g>
    <g id="ytick_6">
     <g id="line2d_25">
      <path clip-path="url(#p9195a0af9e)" d="M 72 54.583773 
L 518.4 54.583773 
" style="fill:none;stroke:#b0b0b0;stroke-linecap:square;stroke-width:0.8;"/>
     </g>
     <g id="line2d_26">
      <g>
       <use style="stroke:#000000;stroke-width:0.8;" x="72" xlink:href="#m734e92315c" y="54.583773"/>
      </g>
     </g>
     <g id="text_14">
      <!-- 3 -->
      <g transform="translate(58.6375 58.382992)scale(0.1 -0.1)">
       <use xlink:href="#DejaVuSans-51"/>
      </g>
     </g>
    </g>
    <g id="text_15">
     <!-- Aceleração (m/s²) -->
     <defs>
      <path d="M 34.1875 63.1875 
L 20.796875 26.90625 
L 47.609375 26.90625 
z
M 28.609375 72.90625 
L 39.796875 72.90625 
L 67.578125 0 
L 57.328125 0 
L 50.6875 18.703125 
L 17.828125 18.703125 
L 11.1875 0 
L 0.78125 0 
z
" id="DejaVuSans-65"/>
      <path d="M 48.78125 52.59375 
L 48.78125 44.1875 
Q 44.96875 46.296875 41.140625 47.34375 
Q 37.3125 48.390625 33.40625 48.390625 
Q 24.65625 48.390625 19.8125 42.84375 
Q 14.984375 37.3125 14.984375 27.296875 
Q 14.984375 17.28125 19.8125 11.734375 
Q 24.65625 6.203125 33.40625 6.203125 
Q 37.3125 6.203125 41.140625 7.25 
Q 44.96875 8.296875 48.78125 10.40625 
L 48.78125 2.09375 
Q 45.015625 0.34375 40.984375 -0.53125 
Q 36.96875 -1.421875 32.421875 -1.421875 
Q 20.0625 -1.421875 12.78125 6.34375 
Q 5.515625 14.109375 5.515625 27.296875 
Q 5.515625 40.671875 12.859375 48.328125 
Q 20.21875 56 33.015625 56 
Q 37.15625 56 41.109375 55.140625 
Q 45.0625 54.296875 48.78125 52.59375 
z
" id="DejaVuSans-99"/>
      <path d="M 9.421875 75.984375 
L 18.40625 75.984375 
L 18.40625 0 
L 9.421875 0 
z
" id="DejaVuSans-108"/>
      <path d="M 41.109375 46.296875 
Q 39.59375 47.171875 37.8125 47.578125 
Q 36.03125 48 33.890625 48 
Q 26.265625 48 22.1875 43.046875 
Q 18.109375 38.09375 18.109375 28.8125 
L 18.109375 0 
L 9.078125 0 
L 9.078125 54.6875 
L 18.109375 54.6875 
L 18.109375 46.1875 
Q 20.953125 51.171875 25.484375 53.578125 
Q 30.03125 56 36.53125 56 
Q 37.453125 56 38.578125 55.875 
Q 39.703125 55.765625 41.0625 55.515625 
z
" id="DejaVuSans-114"/>
      <path d="M 34.28125 27.484375 
Q 23.390625 27.484375 19.1875 25 
Q 14.984375 22.515625 14.984375 16.5 
Q 14.984375 11.71875 18.140625 8.90625 
Q 21.296875 6.109375 26.703125 6.109375 
Q 34.1875 6.109375 38.703125 11.40625 
Q 43.21875 16.703125 43.21875 25.484375 
L 43.21875 27.484375 
z
M 52.203125 31.203125 
L 52.203125 0 
L 43.21875 0 
L 43.21875 8.296875 
Q 40.140625 3.328125 35.546875 0.953125 
Q 30.953125 -1.421875 24.3125 -1.421875 
Q 15.921875 -1.421875 10.953125 3.296875 
Q 6 8.015625 6 15.921875 
Q 6 25.140625 12.171875 29.828125 
Q 18.359375 34.515625 30.609375 34.515625 
L 43.21875 34.515625 
L 43.21875 35.40625 
Q 43.21875 41.609375 39.140625 45 
Q 35.0625 48.390625 27.6875 48.390625 
Q 23 48.390625 18.546875 47.265625 
Q 14.109375 46.140625 10.015625 43.890625 
L 10.015625 52.203125 
Q 14.9375 54.109375 19.578125 55.046875 
Q 24.21875 56 28.609375 56 
Q 40.484375 56 46.34375 49.84375 
Q 52.203125 43.703125 52.203125 31.203125 
z
" id="DejaVuSans-97"/>
      <path d="M 48.78125 52.59375 
L 48.78125 44.1875 
Q 44.96875 46.296875 41.140625 47.34375 
Q 37.3125 48.390625 33.40625 48.390625 
Q 24.65625 48.390625 19.8125 42.84375 
Q 14.984375 37.3125 14.984375 27.296875 
Q 14.984375 17.28125 19.8125 11.734375 
Q 24.65625 6.203125 33.40625 6.203125 
Q 37.3125 6.203125 41.140625 7.25 
Q 44.96875 8.296875 48.78125 10.40625 
L 48.78125 2.09375 
Q 45.015625 0.34375 40.984375 -0.53125 
Q 36.96875 -1.421875 32.421875 -1.421875 
Q 20.0625 -1.421875 12.78125 6.34375 
Q 5.515625 14.109375 5.515625 27.296875 
Q 5.515625 40.671875 12.859375 48.328125 
Q 20.21875 56 33.015625 56 
Q 37.15625 56 41.109375 55.140625 
Q 45.0625 54.296875 48.78125 52.59375 
z
M 36.078125 0 
Q 38.765625 -3.03125 40.078125 -5.59375 
Q 41.40625 -8.15625 41.40625 -10.5 
Q 41.40625 -14.84375 38.46875 -17.0625 
Q 35.546875 -19.28125 29.78125 -19.28125 
Q 27.546875 -19.28125 25.421875 -18.984375 
Q 23.296875 -18.703125 21.1875 -18.109375 
L 21.1875 -11.71875 
Q 22.859375 -12.546875 24.65625 -12.90625 
Q 26.46875 -13.28125 28.765625 -13.28125 
Q 31.640625 -13.28125 33.109375 -12.109375 
Q 34.578125 -10.9375 34.578125 -8.6875 
Q 34.578125 -7.234375 33.515625 -5.109375 
Q 32.46875 -2.984375 30.28125 0 
z
" id="DejaVuSans-231"/>
      <path d="M 34.28125 27.484375 
Q 23.390625 27.484375 19.1875 25 
Q 14.984375 22.515625 14.984375 16.5 
Q 14.984375 11.71875 18.140625 8.90625 
Q 21.296875 6.109375 26.703125 6.109375 
Q 34.1875 6.109375 38.703125 11.40625 
Q 43.21875 16.703125 43.21875 25.484375 
L 43.21875 27.484375 
z
M 52.203125 31.203125 
L 52.203125 0 
L 43.21875 0 
L 43.21875 8.296875 
Q 40.140625 3.328125 35.546875 0.953125 
Q 30.953125 -1.421875 24.3125 -1.421875 
Q 15.921875 -1.421875 10.953125 3.296875 
Q 6 8.015625 6 15.921875 
Q 6 25.140625 12.171875 29.828125 
Q 18.359375 34.515625 30.609375 34.515625 
L 43.21875 34.515625 
L 43.21875 35.40625 
Q 43.21875 41.609375 39.140625 45 
Q 35.0625 48.390625 27.6875 48.390625 
Q 23 48.390625 18.546875 47.265625 
Q 14.109375 46.140625 10.015625 43.890625 
L 10.015625 52.203125 
Q 14.9375 54.109375 19.578125 55.046875 
Q 24.21875 56 28.609375 56 
Q 40.484375 56 46.34375 49.84375 
Q 52.203125 43.703125 52.203125 31.203125 
z
M 28.8125 66.890625 
L 26.03125 69.578125 
Q 24.953125 70.5625 24.140625 71.015625 
Q 23.34375 71.484375 22.703125 71.484375 
Q 20.84375 71.484375 19.96875 69.703125 
Q 19.09375 67.921875 19 63.921875 
L 12.890625 63.921875 
Q 12.984375 70.515625 15.46875 74.09375 
Q 17.96875 77.6875 22.40625 77.6875 
Q 24.265625 77.6875 25.828125 77 
Q 27.390625 76.3125 29.203125 74.703125 
L 31.984375 72.015625 
Q 33.0625 71.046875 33.859375 70.578125 
Q 34.671875 70.125 35.296875 70.125 
Q 37.15625 70.125 38.03125 71.90625 
Q 38.921875 73.6875 39.015625 77.6875 
L 45.125 77.6875 
Q 45.015625 71.09375 42.53125 67.5 
Q 40.046875 63.921875 35.59375 63.921875 
Q 33.734375 63.921875 32.171875 64.59375 
Q 30.609375 65.28125 28.8125 66.890625 
z
" id="DejaVuSans-227"/>
      <path d="M 25.390625 72.90625 
L 33.6875 72.90625 
L 8.296875 -9.28125 
L 0 -9.28125 
z
" id="DejaVuSans-47"/>
      <path d="M 13.09375 38.1875 
L 33.796875 38.1875 
L 33.796875 32.625 
L 4.59375 32.625 
L 4.59375 37.984375 
Q 6.25 39.5 9.328125 42.234375 
Q 26.125 57.125 26.125 61.71875 
Q 26.125 64.9375 23.578125 66.90625 
Q 21.046875 68.890625 16.890625 68.890625 
Q 14.359375 68.890625 11.375 68.03125 
Q 8.40625 67.1875 4.890625 65.484375 
L 4.890625 71.484375 
Q 8.640625 72.859375 11.890625 73.53125 
Q 15.140625 74.21875 17.921875 74.21875 
Q 25 74.21875 29.25 71 
Q 33.5 67.78125 33.5 62.5 
Q 33.5 55.71875 17.328125 41.84375 
Q 14.59375 39.5 13.09375 38.1875 
z
" id="DejaVuSans-178"/>
     </defs>
     <g transform="translate(44.178125 187.551094)rotate(-90)scale(0.1 -0.1)">
      <use xlink:href="#DejaVuSans-65"/>
      <use x="66.658203" xlink:href="#DejaVuSans-99"/>
      <use x="121.638672" xlink:href="#DejaVuSans-101"/>
      <use x="183.162109" xlink:href="#DejaVuSans-108"/>
      <use x="210.945312" xlink:href="#DejaVuSans-101"/>
      <use x="272.46875" xlink:href="#DejaVuSans-114"/>
      <use x="313.582031" xlink:href="#DejaVuSans-97"/>
      <use x="374.861328" xlink:href="#DejaVuSans-231"/>
      <use x="429.841797" xlink:href="#DejaVuSans-227"/>
      <use x="491.121094" xlink:href="#DejaVuSans-111"/>
      <use x="552.302734" xlink:href="#DejaVuSans-32"/>
      <use x="584.089844" xlink:href="#DejaVuSans-40"/>
      <use x="623.103516" xlink:href="#DejaVuSans-109"/>
      <use x="720.515625" xlink:href="#DejaVuSans-47"/>
      <use x="754.207031" xlink:href="#DejaVuSans-115"/>
      <use x="806.306641" xlink:href="#DejaVuSans-178"/>
      <use x="846.394531" xlink:href="#DejaVuSans-41"/>
     </g>
    </g>
   </g>
   <g id="line2d_27">
    <path clip-path="url(#p9195a0af9e)" d="M 71.875992 178.765815 
L 72.173612 171.623715 
L 72.620041 160.51977 
L 72.917661 158.533658 
L 73.215281 158.988059 
L 73.512901 160.692734 
L 73.810521 162.066613 
L 74.40576 159.950806 
L 74.85219 161.285 
L 75.29862 159.111397 
L 75.59624 157.403398 
L 75.74505 155.630158 
L 76.637909 136.652307 
L 76.786719 137.561473 
L 77.530769 147.880591 
L 77.679579 147.329237 
L 77.977198 144.604115 
L 78.423628 139.192918 
L 78.721248 137.627361 
L 78.870058 138.03984 
L 79.167678 142.140266 
L 80.358157 173.390719 
L 80.506967 173.187199 
L 80.804587 168.880897 
L 81.251017 159.53735 
L 81.399827 158.419639 
L 81.548637 159.042858 
L 82.441496 168.924701 
L 83.036736 174.422661 
L 83.185546 174.286696 
L 83.483166 170.761506 
L 84.227215 158.460602 
L 85.120075 147.999749 
L 85.268885 147.699337 
L 85.417695 147.81675 
L 85.566504 148.126101 
L 85.864124 151.028375 
L 86.459364 159.929223 
L 86.608174 160.196057 
L 87.054604 158.406701 
L 87.203414 158.698797 
L 87.649843 163.05665 
L 87.798653 163.593392 
L 87.947463 163.357633 
L 88.393893 161.300407 
L 88.691513 160.587558 
L 89.435562 158.501504 
L 89.733182 155.95762 
L 90.328422 145.660214 
L 90.477232 146.554308 
L 90.774852 154.207379 
L 91.072471 161.848644 
L 91.221281 163.160824 
L 91.370091 162.751652 
L 91.667711 157.875564 
L 92.411761 141.243891 
L 92.560571 140.492799 
L 92.709381 140.350651 
L 92.858191 140.381803 
L 93.007 139.857765 
L 93.30462 137.750155 
L 93.45343 137.840553 
L 93.60224 138.759858 
L 93.89986 143.045389 
L 94.34629 148.923562 
L 94.4951 149.28899 
L 94.64391 148.41666 
L 94.941529 144.467296 
L 96.132009 123.258859 
L 96.727248 118.433001 
L 97.173678 113.660992 
L 97.620108 109.644791 
L 97.768918 109.876836 
L 97.917728 111.412382 
L 98.215348 117.91108 
L 99.852257 162.982782 
L 100.149877 164.860057 
L 100.298687 164.919684 
L 100.447496 165.132185 
L 100.745116 168.386077 
L 101.340356 179.055699 
L 101.935596 182.503757 
L 102.084406 182.891416 
L 102.233216 182.552528 
L 102.530835 178.492858 
L 104.465364 142.548712 
L 104.762984 140.356438 
L 104.911794 141.176967 
L 105.804654 151.600863 
L 105.953464 152.152425 
L 106.102273 152.16437 
L 106.548703 150.323126 
L 106.697513 149.501043 
L 106.846323 149.949113 
L 107.143943 154.416435 
L 107.590373 162.288398 
L 107.887993 164.756221 
L 108.185612 165.584876 
L 108.632042 166.558341 
L 108.780852 166.184432 
L 109.078472 164.880785 
L 109.227282 165.005574 
L 109.376092 166.942916 
L 109.673712 177.220476 
L 110.120141 193.349478 
L 110.268951 195.115593 
L 110.417761 194.360045 
L 110.715381 186.680857 
L 111.75705 151.797879 
L 112.35229 139.75734 
L 113.09634 131.958217 
L 113.24515 132.04916 
L 113.39396 133.153614 
L 113.691579 138.284193 
L 114.584439 160.872606 
L 114.733249 161.244659 
L 115.030869 159.842841 
L 116.072538 151.710832 
L 116.221348 151.64022 
L 116.370158 152.439658 
L 116.667778 157.696504 
L 116.965398 163.23078 
L 117.114208 164.231933 
L 117.263018 163.708681 
L 117.560637 159.250713 
L 117.709447 156.827014 
L 117.858257 156.255908 
L 118.007067 158.053874 
L 118.453497 172.282162 
L 118.899927 184.728799 
L 119.048737 186.469133 
L 119.197547 186.670373 
L 119.346356 185.246065 
L 119.643976 178.558806 
L 120.090406 161.076506 
L 120.685646 137.234166 
L 120.983266 132.076978 
L 121.132075 131.647614 
L 121.429695 134.591265 
L 122.917795 156.070897 
L 123.066604 155.25054 
L 123.513034 148.929565 
L 123.661844 148.404879 
L 123.810654 149.027218 
L 123.959464 149.067818 
L 124.108274 147.788233 
L 124.703514 137.92228 
L 124.852323 137.943241 
L 125.298753 142.088179 
L 125.447563 142.638549 
L 125.596373 141.887561 
L 126.191613 135.57593 
L 126.340423 136.469308 
L 126.786852 144.093317 
L 127.233282 152.072745 
L 127.382092 152.394438 
L 127.530902 151.615381 
L 127.828522 147.184558 
L 128.126142 142.996524 
L 128.423762 141.434637 
L 128.572572 142.161036 
L 128.870191 147.656439 
L 129.316621 165.695614 
L 129.614241 175.863369 
L 129.763051 178.070498 
L 129.911861 177.947886 
L 130.060671 175.685336 
L 130.358291 165.698896 
L 131.10234 136.251953 
L 131.25115 135.078346 
L 131.39996 137.146298 
L 131.69758 149.27278 
L 132.739249 201.486384 
L 133.036869 206.553148 
L 133.185679 204.372179 
L 133.483299 192.351175 
L 134.376158 141.152845 
L 134.673778 133.129181 
L 134.822588 133.245644 
L 134.971398 136.19047 
L 135.269018 148.901358 
L 135.715448 170.260804 
L 136.013068 176.008661 
L 136.161877 176.78314 
L 136.310687 176.178066 
L 136.608307 171.529076 
L 137.203547 152.320103 
L 137.501167 135.848464 
L 138.394026 70.513582 
L 138.542836 68.56218 
L 138.691646 69.824959 
L 138.989266 78.867057 
L 139.286886 95.280762 
L 139.882125 145.417605 
L 140.477365 192.636681 
L 140.774985 199.513494 
L 140.923795 199.566401 
L 141.072605 199.435645 
L 141.221415 200.081103 
L 141.519035 205.76245 
L 141.816654 210.336665 
L 141.965464 209.338293 
L 142.263084 197.271672 
L 142.709514 172.425925 
L 143.155944 162.980951 
L 143.453564 157.826043 
L 143.602373 156.896797 
L 143.751183 157.425075 
L 143.899993 159.815256 
L 144.792853 182.605314 
L 144.941663 181.712117 
L 145.239283 176.268007 
L 146.578572 140.836792 
L 146.727382 140.402073 
L 146.876192 140.43775 
L 147.025002 140.822101 
L 147.322622 145.801179 
L 147.769051 160.810803 
L 148.513101 195.964536 
L 149.108341 225.083636 
L 149.40596 231.648973 
L 149.55477 231.712331 
L 149.70358 229.061121 
L 150.0012 215.018379 
L 150.59644 163.500394 
L 151.191679 116.667465 
L 151.638109 96.915291 
L 151.935729 93.007918 
L 152.084539 94.616943 
L 152.382159 105.531221 
L 152.977398 133.269922 
L 153.423828 144.4432 
L 153.721448 148.685385 
L 153.870258 148.587904 
L 154.019068 146.997603 
L 154.316688 139.008943 
L 154.763118 121.86173 
L 155.655977 78.703015 
L 155.804787 76.630261 
L 155.953597 78.342484 
L 156.251217 94.279981 
L 156.697647 145.294596 
L 157.441696 237.473704 
L 157.590506 67.682983 
L 157.739316 66.185645 
L 157.888126 68.994558 
L 158.036936 236.77818 
L 158.929795 186.777724 
L 159.673845 141.451366 
L 159.971465 133.676408 
L 160.120275 133.351252 
L 160.417895 135.205381 
L 160.566704 135.273359 
L 160.715514 133.754594 
L 161.013134 128.570537 
L 161.161944 129.077034 
L 161.310754 133.740715 
L 161.757184 164.256961 
L 162.054804 180.110347 
L 162.203614 183.094391 
L 162.352423 183.216615 
L 162.798853 177.129421 
L 163.096473 170.869669 
L 163.542903 160.999615 
L 163.691713 159.764602 
L 163.840523 159.988927 
L 163.989333 161.173917 
L 164.138143 161.438721 
L 164.286952 160.18755 
L 164.584572 153.112857 
L 165.179812 134.116334 
L 165.328622 132.784593 
L 165.477432 133.38787 
L 165.626242 135.968598 
L 166.072672 152.082072 
L 166.965531 183.550917 
L 167.263151 188.327175 
L 167.411961 187.943256 
L 167.709581 186.686221 
L 167.858391 186.816969 
L 168.30482 188.245612 
L 168.45363 187.772305 
L 168.90006 181.780527 
L 169.19768 175.206338 
L 169.4953 168.100364 
L 169.64411 166.930807 
L 169.79292 168.777794 
L 170.090539 179.913288 
L 170.536969 196.143294 
L 170.834589 200.095457 
L 170.983399 200.846263 
L 171.132209 200.932585 
L 171.281019 198.935625 
L 171.578639 189.327015 
L 172.322688 156.818386 
L 172.769118 147.738063 
L 173.066738 143.993143 
L 173.364358 135.673558 
L 173.810787 120.835195 
L 173.959597 118.654554 
L 174.108407 118.997371 
L 174.406027 125.281538 
L 174.852457 142.078031 
L 175.894126 193.868507 
L 176.340556 200.091786 
L 176.489366 201.224801 
L 176.638176 201.045723 
L 176.786986 199.182258 
L 177.084606 189.996336 
L 177.531035 175.222186 
L 178.423895 162.532008 
L 178.572705 162.601472 
L 178.721515 164.116696 
L 178.870325 167.857255 
L 179.167945 185.927374 
L 179.763184 240.383681 
L 179.911994 64.831803 
L 180.060804 63.083238 
L 180.209614 64.855761 
L 180.358424 242.055226 
L 180.804854 219.582361 
L 182.441763 127.924474 
L 182.590573 126.969907 
L 182.739383 127.593048 
L 183.185812 136.746696 
L 183.929862 163.28132 
L 184.525102 180.895613 
L 184.971531 190.3445 
L 185.120341 191.669988 
L 185.269151 191.257266 
L 185.417961 188.62611 
L 185.715581 177.356656 
L 186.608441 132.147357 
L 187.5013 104.637437 
L 187.94773 81.6493 
L 188.54297 51.698936 
L 188.840589 45.206758 
L 188.989399 44.443636 
L 189.138209 44.941643 
L 189.435829 49.745072 
L 189.733449 57.989891 
L 190.626308 94.462591 
L 190.775118 94.517398 
L 191.072738 90.952782 
L 191.221548 91.044485 
L 191.667978 96.011204 
L 191.965598 98.808682 
L 192.263218 100.204843 
L 192.412027 101.611506 
L 192.560837 104.398542 
L 192.858457 116.774549 
L 194.644176 216.248149 
L 194.792986 218.97315 
L 194.941796 219.436127 
L 195.090606 217.636114 
L 195.388226 207.396512 
L 195.834656 190.225385 
L 196.429895 179.956617 
L 196.727515 177.118832 
L 196.876325 177.319104 
L 197.173945 179.107389 
L 197.620375 182.971467 
L 197.917995 187.70133 
L 198.364424 196.044372 
L 198.513234 194.530504 
L 198.810854 182.148702 
L 199.852524 116.75263 
L 200.001333 117.157769 
L 200.298953 126.730149 
L 200.745383 146.763001 
L 201.043003 152.833406 
L 201.191813 153.319978 
L 201.340623 152.998682 
L 201.489433 152.200522 
L 201.787052 148.46625 
L 202.084672 139.830655 
L 202.531102 117.958295 
L 203.275152 76.537643 
L 203.423962 73.659664 
L 203.572772 73.431894 
L 203.721581 74.910395 
L 204.019201 82.62944 
L 204.912061 112.43073 
L 205.060871 113.627742 
L 205.209681 113.251933 
L 205.358491 111.436832 
L 205.65611 103.157761 
L 206.25135 80.167517 
L 206.40016 80.364533 
L 206.54897 84.877749 
L 206.84659 107.502297 
L 207.888259 210.742167 
L 208.483499 239.912672 
L 208.632309 65.413438 
L 208.929929 55.934902 
L 209.078739 53.797495 
L 209.227549 54.646318 
L 209.376358 59.120298 
L 209.525168 67.194364 
L 209.673978 233.66641 
L 210.120408 208.895914 
L 210.715648 198.199017 
L 211.906127 152.044944 
L 212.054937 151.27734 
L 212.203747 152.411728 
L 212.501367 160.001226 
L 212.947797 171.942048 
L 213.543036 181.034756 
L 214.287086 207.487334 
L 214.435896 205.814364 
L 215.775185 166.319101 
L 215.923995 165.092699 
L 216.072805 165.003061 
L 216.370425 167.151971 
L 216.519235 166.710749 
L 216.816854 160.823585 
L 217.560904 138.981928 
L 218.156144 113.520874 
L 218.304954 111.817702 
L 218.453764 111.966155 
L 218.751383 116.740798 
L 220.090673 140.497403 
L 220.388293 142.728447 
L 220.537102 142.941052 
L 220.685912 142.26356 
L 220.983532 137.463889 
L 221.281152 133.435708 
L 221.429962 133.44488 
L 221.578772 135.282574 
L 222.918061 166.033483 
L 223.066871 168.207854 
L 223.215681 168.53269 
L 223.364491 167.399269 
L 223.810921 161.03524 
L 223.959731 161.596493 
L 224.25735 167.906051 
L 224.70378 180.370962 
L 224.85259 181.761164 
L 225.0014 181.178364 
L 225.74545 171.000547 
L 225.89426 171.23185 
L 226.04307 171.77899 
L 226.191879 171.784241 
L 226.340689 170.367525 
L 226.638309 162.527137 
L 227.531169 126.185237 
L 227.679979 125.364924 
L 228.275218 131.316714 
L 228.424028 133.128905 
L 228.721648 142.10052 
L 229.168078 158.234437 
L 229.316888 159.47084 
L 229.614508 157.996286 
L 229.763318 158.322055 
L 230.060937 164.435581 
L 230.358557 172.311215 
L 230.507367 173.569987 
L 230.656177 172.44224 
L 230.953797 163.987519 
L 231.846656 125.907158 
L 232.144276 122.020875 
L 232.293086 122.119435 
L 232.590706 124.614523 
L 232.888326 128.363477 
L 233.185946 135.999042 
L 234.227615 177.223049 
L 234.376425 174.641 
L 235.269285 147.686538 
L 235.566904 146.136664 
L 235.715714 146.660546 
L 235.864524 148.401408 
L 236.162144 156.662048 
L 236.757384 173.771356 
L 237.650243 190.796629 
L 237.799053 190.284761 
L 238.245483 179.486299 
L 238.840723 160.660554 
L 239.287152 145.517927 
L 239.733582 134.430669 
L 240.775252 97.745294 
L 240.924062 97.336338 
L 241.072872 98.894546 
L 241.370491 110.792203 
L 241.816921 145.192668 
L 242.412161 193.32654 
L 242.709781 204.741787 
L 243.0074 209.26091 
L 243.15621 209.260979 
L 243.60264 205.126077 
L 243.75145 206.512056 
L 244.34669 216.884185 
L 244.4955 215.893077 
L 244.79312 209.753804 
L 245.090739 199.638136 
L 245.537169 172.5261 
L 246.132409 137.286547 
L 246.430029 127.653823 
L 246.578839 126.159379 
L 246.727649 126.994046 
L 248.066938 152.654215 
L 248.364558 155.54457 
L 248.513368 155.229009 
L 248.959797 152.911385 
L 249.257417 149.091845 
L 249.555037 139.486637 
L 250.150277 116.91364 
L 250.447897 113.457249 
L 250.596706 113.766747 
L 250.745516 115.276149 
L 251.489566 128.103069 
L 251.638376 128.397842 
L 251.787186 127.997963 
L 251.935996 127.935158 
L 252.233616 130.326055 
L 252.531235 132.93125 
L 252.680045 133.15332 
L 252.828855 131.415136 
L 253.126475 121.759068 
L 253.572905 102.48451 
L 253.721715 99.831754 
L 253.870525 99.576468 
L 254.019335 101.837281 
L 254.465764 117.195035 
L 255.061004 142.700283 
L 255.805054 163.282469 
L 255.953864 164.085172 
L 256.102674 163.504514 
L 256.549103 158.154999 
L 257.739583 144.958774 
L 258.781252 118.853833 
L 259.227682 100.629802 
L 259.376492 99.569412 
L 259.674112 108.544326 
L 260.269351 131.718753 
L 260.715781 148.682707 
L 261.162211 167.64712 
L 261.311021 169.758263 
L 261.459831 169.547679 
L 261.90626 166.104483 
L 262.35269 165.464881 
L 263.39436 161.567612 
L 263.54317 160.085293 
L 263.840789 152.603968 
L 264.882459 115.565084 
L 265.180079 111.722623 
L 265.328889 112.672647 
L 265.477699 116.325399 
L 265.775318 134.171245 
L 266.519368 190.634056 
L 266.816988 199.408396 
L 266.965798 199.332697 
L 267.263418 191.959423 
L 267.709847 178.310135 
L 267.858657 177.423347 
L 268.007467 177.660333 
L 268.305087 178.418092 
L 268.453897 177.855535 
L 269.346756 166.701154 
L 269.495566 166.298382 
L 269.644376 166.687292 
L 269.793186 168.485241 
L 270.090806 177.187501 
L 270.834856 210.81423 
L 270.983666 212.900491 
L 271.132475 212.920191 
L 271.281285 210.294105 
L 271.578905 198.877061 
L 272.174145 175.193538 
L 272.620575 161.817354 
L 273.662244 121.701981 
L 273.959864 120.438347 
L 274.108674 120.60105 
L 274.406294 122.652835 
L 275.150343 131.873113 
L 275.447963 140.974803 
L 276.340823 178.190597 
L 276.787252 188.083677 
L 277.233682 201.015159 
L 277.382492 201.500315 
L 277.531302 197.703653 
L 277.828922 175.598902 
L 278.424162 122.821981 
L 278.572972 120.169855 
L 278.721781 122.101506 
L 279.317021 139.131452 
L 279.912261 143.717534 
L 280.358691 155.192425 
L 280.80512 168.702657 
L 280.95393 171.057686 
L 281.10274 171.110162 
L 281.25155 168.503516 
L 281.69798 157.486878 
L 281.84679 157.147412 
L 281.9956 157.733563 
L 282.14441 157.37849 
L 282.29322 153.972604 
L 282.590839 136.370515 
L 283.037269 108.333328 
L 283.186079 105.289787 
L 283.334889 105.586287 
L 283.483699 108.760231 
L 283.781319 127.002285 
L 284.674178 205.840437 
L 285.567038 233.799128 
L 285.864658 239.836619 
L 286.162277 242.116364 
L 286.311087 68.06755 
L 286.459897 67.538045 
L 286.608707 68.861366 
L 286.757517 238.967164 
L 287.055137 224.177079 
L 287.947997 168.172815 
L 288.245616 163.55166 
L 288.840856 157.352857 
L 289.138476 154.135541 
L 289.287286 153.999749 
L 289.436096 154.745538 
L 289.733716 158.081174 
L 290.477765 168.01101 
L 290.924195 171.419418 
L 291.073005 170.946854 
L 291.221815 168.809646 
L 291.519435 157.090886 
L 292.114674 126.100366 
L 292.412294 120.396667 
L 292.561104 121.184896 
L 292.858724 127.054225 
L 293.305154 136.038079 
L 294.049203 147.033229 
L 294.793253 172.615367 
L 294.942063 171.521614 
L 295.239683 158.029821 
L 295.834922 118.357458 
L 296.132542 111.473468 
L 296.281352 111.678836 
L 296.430162 113.5437 
L 297.025402 125.475255 
L 297.174212 125.139882 
L 297.323022 124.467677 
L 297.471831 125.80783 
L 297.769451 138.456423 
L 298.364691 170.792969 
L 298.959931 192.440848 
L 299.40636 209.699999 
L 299.70398 213.674607 
L 299.85279 213.352733 
L 300.0016 211.022637 
L 300.29922 198.659404 
L 301.04327 156.716122 
L 301.340889 149.261345 
L 301.787319 140.677353 
L 302.531369 118.119211 
L 302.680179 117.173807 
L 302.828989 117.957216 
L 303.126608 122.349149 
L 303.573038 137.905465 
L 304.019468 149.877128 
L 304.317088 153.904013 
L 304.614708 163.090264 
L 305.061137 188.401328 
L 305.507567 213.072107 
L 305.805187 218.93812 
L 305.953997 219.601067 
L 306.102807 219.399923 
L 306.400427 218.127186 
L 306.549237 218.110794 
L 307.144476 219.943971 
L 307.293286 219.171625 
L 307.590906 212.53844 
L 307.888526 198.675822 
L 308.930195 134.374229 
L 309.079005 133.056246 
L 309.227815 133.384649 
L 309.376625 134.447061 
L 309.674245 139.264757 
L 310.120675 151.075453 
L 310.864724 175.19106 
L 311.013534 175.228629 
L 311.162344 172.561588 
L 311.757584 153.44595 
L 311.906394 152.941491 
L 312.055204 154.922387 
L 312.501633 172.981538 
L 312.948063 188.483712 
L 313.245683 190.153754 
L 313.692113 188.430321 
L 313.840923 187.260773 
L 313.989733 184.737029 
L 314.287352 171.633906 
L 315.180212 108.739088 
L 315.329022 105.671806 
L 315.477832 105.334904 
L 315.626642 107.720351 
L 316.073072 124.574959 
L 316.370691 133.251871 
L 316.519501 133.238925 
L 316.817121 126.30335 
L 317.412361 109.540557 
L 317.709981 102.877316 
L 317.858791 102.083932 
L 318.007601 105.146067 
L 318.30522 123.839388 
L 319.19808 191.755567 
L 319.4957 199.895461 
L 319.64451 199.942608 
L 319.942129 194.4409 
L 320.686179 176.492539 
L 320.834989 175.56192 
L 320.983799 176.944496 
L 321.430229 184.279951 
L 321.579039 182.41804 
L 321.876658 171.123704 
L 322.323088 150.77555 
L 322.620708 144.569466 
L 323.067138 140.165415 
L 323.215948 139.573072 
L 323.364758 140.587335 
L 323.662377 147.432115 
L 324.555237 178.244792 
L 324.704047 177.374914 
L 325.001667 172.787787 
L 325.150477 172.584699 
L 325.299287 175.850397 
L 326.043336 207.337706 
L 326.192146 206.81594 
L 326.340956 202.644911 
L 326.638576 184.475369 
L 327.382626 124.104097 
L 327.531435 122.337982 
L 327.680245 124.207312 
L 328.275485 136.683701 
L 328.424295 137.701712 
L 328.573105 136.096116 
L 328.870725 125.759534 
L 329.168345 115.027599 
L 329.317154 113.150713 
L 329.465964 113.06484 
L 329.614774 114.755696 
L 330.507634 131.363282 
L 330.805254 133.530649 
L 330.954064 133.914611 
L 331.102874 134.756455 
L 331.400493 140.290783 
L 332.590973 172.268214 
L 332.739783 171.70368 
L 333.037402 165.28905 
L 333.483832 156.009534 
L 333.632642 155.269472 
L 333.781452 155.26137 
L 334.079072 156.598725 
L 334.227882 156.117326 
L 334.823122 150.050083 
L 334.971931 150.181004 
L 335.120741 151.864855 
L 335.418361 160.757931 
L 336.608841 213.937011 
L 337.35289 239.700352 
L 337.5017 238.532523 
L 337.79932 227.542848 
L 338.39456 190.68736 
L 339.138609 138.714378 
L 339.436229 129.748955 
L 339.585039 128.709067 
L 339.733849 130.325416 
L 340.180279 143.819894 
L 341.370758 183.662768 
L 341.519568 184.2569 
L 341.668378 183.947851 
L 342.263618 180.168047 
L 342.412427 180.241898 
L 342.710047 181.572076 
L 342.858857 181.715883 
L 343.007667 181.189634 
L 343.156477 179.635106 
L 343.602907 168.832792 
L 344.198147 154.253205 
L 344.346956 152.486209 
L 344.495766 152.430746 
L 344.793386 156.263396 
L 345.388626 166.148357 
L 345.686246 170.479299 
L 346.132676 178.604027 
L 346.281485 177.796444 
L 346.579105 165.214957 
L 347.471965 108.299326 
L 347.769585 100.580937 
L 347.918395 100.478525 
L 348.662444 110.432794 
L 349.108874 116.899744 
L 349.257684 117.593351 
L 349.406494 117.633848 
L 349.555304 116.903303 
L 349.852924 112.758935 
L 350.596973 99.145298 
L 350.745783 99.21794 
L 351.341023 104.94785 
L 351.489833 104.539222 
L 351.787452 100.142902 
L 352.680312 82.065977 
L 352.829122 84.285794 
L 353.275552 100.32451 
L 353.721981 113.657996 
L 353.870791 114.753295 
L 354.019601 114.721098 
L 354.168411 114.229223 
L 354.317221 114.242342 
L 354.466031 116.044911 
L 354.763651 126.056553 
L 355.507701 153.478268 
L 355.65651 154.976547 
L 355.80532 153.002785 
L 356.10294 139.833782 
L 356.54937 118.960373 
L 356.84699 114.278753 
L 356.9958 115.022659 
L 357.591039 122.557246 
L 358.037469 120.526016 
L 358.186279 120.587215 
L 358.483899 123.26056 
L 358.781519 128.450222 
L 360.567238 176.575855 
L 360.716048 176.594259 
L 360.864858 174.979526 
L 361.162477 167.619621 
L 361.608907 156.983309 
L 361.757717 156.582282 
L 362.055337 160.145498 
L 362.352957 163.355474 
L 362.501767 163.808873 
L 362.650577 162.953383 
L 362.948197 158.965095 
L 363.394626 147.862956 
L 363.692246 141.512832 
L 363.989866 139.40472 
L 364.138676 139.531858 
L 364.287486 139.996615 
L 364.436296 139.954227 
L 364.585106 138.96437 
L 364.882726 133.532601 
L 366.222015 93.958685 
L 366.370825 92.120706 
L 366.519635 92.075606 
L 366.668445 94.717938 
L 367.114874 112.286017 
L 367.710114 141.963554 
L 368.751783 205.628869 
L 369.198213 220.803658 
L 369.347023 221.748026 
L 369.495833 220.576354 
L 370.239883 206.415905 
L 370.388693 206.360925 
L 370.537503 206.870851 
L 370.686312 206.79174 
L 370.835122 204.995303 
L 371.132742 194.529675 
L 371.579172 175.64072 
L 371.876792 171.363505 
L 372.025602 171.785381 
L 372.323222 176.540972 
L 372.769651 186.442481 
L 372.918461 187.648621 
L 373.067271 187.167076 
L 373.513701 181.972543 
L 373.662511 182.733868 
L 374.108941 188.053251 
L 374.257751 188.512842 
L 374.55537 184.253842 
L 375.0018 175.673841 
L 375.44823 171.862194 
L 375.74585 168.393288 
L 376.341089 159.315176 
L 377.382759 149.589869 
L 377.680379 143.660948 
L 378.126808 132.792469 
L 378.424428 130.422438 
L 378.573238 130.539394 
L 378.870858 131.085213 
L 379.019668 131.011569 
L 379.168478 130.415218 
L 379.466098 127.479504 
L 379.912528 123.152751 
L 380.061337 123.163123 
L 380.358957 125.819809 
L 380.656577 127.776928 
L 380.805387 126.571548 
L 381.251817 116.674038 
L 381.549437 111.272678 
L 381.698247 111.383674 
L 381.995866 117.079263 
L 382.442296 126.801357 
L 382.591106 127.979739 
L 382.739916 128.164371 
L 383.186346 126.699593 
L 383.335156 127.205649 
L 383.632776 131.534164 
L 384.079205 139.174695 
L 384.228015 139.394728 
L 384.376825 137.632275 
L 384.972065 125.848991 
L 385.269685 124.56539 
L 385.418495 124.114582 
L 386.013734 121.123948 
L 386.162544 121.068225 
L 386.311354 121.453837 
L 386.608974 123.670285 
L 386.906594 126.693141 
L 387.650643 137.969297 
L 387.948263 140.783168 
L 388.245883 147.266371 
L 389.882792 196.959799 
L 390.329222 203.004225 
L 390.626842 205.802739 
L 390.775652 206.414627 
L 390.924462 205.915981 
L 391.222081 203.567722 
L 391.668511 197.283495 
L 392.263751 188.344698 
L 392.412561 188.157787 
L 392.561371 189.388403 
L 393.15661 197.825065 
L 393.30542 197.184434 
L 393.60304 191.630415 
L 394.4959 164.980001 
L 395.537569 145.580844 
L 395.835189 142.59978 
L 395.983999 142.254708 
L 396.876858 147.494617 
L 397.323288 151.329383 
L 397.472098 151.59392 
L 397.620908 151.520561 
L 397.769718 151.277797 
L 397.918528 151.29868 
L 398.067338 151.873095 
L 398.364958 155.020179 
L 398.811387 161.856573 
L 398.960197 162.880535 
L 399.109007 162.878332 
L 399.406627 161.587658 
L 399.555437 161.58251 
L 399.853057 164.177453 
L 400.150677 167.171213 
L 400.299487 167.62064 
L 400.448297 167.468828 
L 400.597106 166.379401 
L 401.043536 158.87797 
L 401.489966 150.946708 
L 401.638776 149.856703 
L 401.787586 150.151424 
L 402.085206 153.759464 
L 402.978065 172.175596 
L 403.126875 172.613977 
L 403.275685 172.605971 
L 403.573305 172.165595 
L 403.722115 171.723181 
L 404.019735 169.154778 
L 404.466164 161.207772 
L 405.061404 146.570286 
L 405.656644 131.649773 
L 405.805454 130.554637 
L 405.954264 131.535123 
L 406.251883 139.074771 
L 407.144743 173.300545 
L 407.591173 180.059892 
L 408.186412 186.3058 
L 408.632842 190.671201 
L 409.823322 206.295478 
L 409.972131 206.021977 
L 410.120941 204.573936 
L 410.567371 194.39352 
L 412.20428 147.31933 
L 412.35309 146.409465 
L 412.5019 147.524258 
L 413.09714 157.613066 
L 413.24595 157.745136 
L 413.692379 155.456772 
L 413.841189 155.463128 
L 414.138809 157.780606 
L 414.882859 167.560349 
L 415.031669 166.863374 
L 415.329289 160.670797 
L 415.924528 144.528425 
L 416.073338 143.079201 
L 416.222148 143.258754 
L 416.519768 147.157085 
L 417.710247 171.768722 
L 417.859057 172.302536 
L 418.007867 172.058951 
L 418.305487 170.552036 
L 418.603107 168.959532 
L 418.900727 168.690531 
L 419.198347 167.996587 
L 419.942396 162.522292 
L 420.091206 162.716899 
L 420.686446 164.964291 
L 420.835256 164.477857 
L 421.132876 161.561152 
L 421.728115 155.064613 
L 422.025735 153.887751 
L 422.323355 152.941906 
L 422.620975 150.784696 
L 423.067404 145.057135 
L 423.811454 134.783289 
L 423.960264 134.652472 
L 424.109074 135.416224 
L 424.406694 139.097278 
L 424.704314 143.187572 
L 424.853124 143.919914 
L 425.001933 143.78147 
L 425.150743 142.663232 
L 425.597173 135.414479 
L 426.043603 128.175192 
L 426.341223 126.628722 
L 426.638843 126.490347 
L 426.936462 124.775974 
L 427.234082 122.111006 
L 428.126942 111.801258 
L 428.275752 111.260552 
L 428.424562 111.70307 
L 428.722181 117.935469 
L 429.317421 131.371228 
L 429.466231 132.302823 
L 429.615041 132.41533 
L 429.763851 132.354702 
L 429.912661 132.72051 
L 430.061471 133.884228 
L 430.359091 139.049759 
L 430.65671 147.232482 
L 431.54957 177.357045 
L 431.996 182.831288 
L 432.14481 183.262492 
L 432.29362 183.032424 
L 432.591239 181.597373 
L 433.037669 178.977867 
L 433.335289 178.362965 
L 433.484099 178.549712 
L 433.781719 179.673478 
L 434.674578 186.284511 
L 434.823388 185.865622 
L 435.567438 180.851619 
L 435.716248 180.730595 
L 435.865058 180.786068 
L 436.013868 180.677999 
L 436.162678 180.809118 
L 436.906727 182.202395 
L 437.055537 182.199087 
L 437.353157 181.973752 
L 437.650777 182.27704 
L 437.799587 182.227743 
L 437.948397 181.512813 
L 438.246016 177.783438 
L 439.287686 158.214884 
L 439.436496 157.74536 
L 439.585306 158.03211 
L 440.180545 163.085634 
L 440.329355 162.477253 
L 440.626975 158.165665 
L 441.966264 128.622408 
L 442.263884 124.837388 
L 442.412694 124.222685 
L 442.561504 124.770507 
L 442.859124 128.044513 
L 443.454364 141.732311 
L 443.900793 150.919373 
L 444.793653 163.660731 
L 445.537703 166.624151 
L 445.984132 172.484628 
L 447.025802 191.601621 
L 447.174612 192.211894 
L 447.323422 192.232363 
L 447.769851 188.687602 
L 448.513901 182.460894 
L 448.960331 180.762922 
L 449.55557 179.712351 
L 450.002 175.902674 
L 450.44843 170.207275 
L 451.341289 156.259449 
L 451.490099 155.977881 
L 451.638909 156.58869 
L 451.936529 159.524974 
L 452.829389 174.616058 
L 453.573438 186.19685 
L 453.722248 186.855565 
L 453.871058 186.829958 
L 454.168678 185.625804 
L 454.466298 183.260281 
L 454.912728 176.705152 
L 456.400827 147.863085 
L 456.698447 145.119413 
L 456.847256 144.928399 
L 456.996066 145.041675 
L 457.144876 145.482293 
L 457.888926 150.648809 
L 458.484166 154.217294 
L 458.781785 156.219773 
L 459.377025 160.687906 
L 459.525835 160.47702 
L 459.674645 159.633509 
L 460.121075 154.952805 
L 460.269885 154.484283 
L 460.418695 154.874472 
L 461.460364 160.484844 
L 461.609174 160.358699 
L 461.906794 159.274774 
L 462.055604 159.344669 
L 462.204414 159.957767 
L 462.502033 163.624354 
L 463.246083 177.246342 
L 463.543703 178.414378 
L 463.692513 177.921199 
L 464.138943 173.035948 
L 464.734182 167.082784 
L 465.775852 159.414452 
L 466.222281 158.111488 
L 466.371091 157.38261 
L 466.817521 152.59496 
L 467.115141 149.650463 
L 467.263951 149.150651 
L 467.412761 149.609923 
L 467.710381 152.314058 
L 468.45443 160.894854 
L 468.60324 161.527953 
L 468.90086 161.175005 
L 469.04967 160.805803 
L 469.4961 158.133183 
L 470.091339 151.735679 
L 471.281819 138.215723 
L 471.728249 134.306303 
L 472.025868 132.583267 
L 472.174678 132.401037 
L 472.472298 133.176483 
L 472.918728 134.38138 
L 473.067538 134.567471 
L 473.365158 134.426549 
L 473.513968 134.045973 
L 473.960397 131.130459 
L 474.853257 123.474374 
L 475.002067 123.297378 
L 475.150877 123.410127 
L 475.746116 124.604289 
L 475.894926 125.440899 
L 476.192546 129.414134 
L 477.234216 151.53653 
L 477.383026 152.133356 
L 477.531835 152.137458 
L 477.978265 151.146557 
L 478.127075 151.294371 
L 478.275885 151.84747 
L 478.722315 155.732777 
L 479.019935 157.751449 
L 479.317555 158.196609 
L 479.615174 157.451624 
L 479.912794 156.81146 
L 480.210414 157.294284 
L 480.359224 157.722543 
L 480.508034 157.55654 
L 480.805654 156.063901 
L 481.252083 151.351916 
L 481.698513 146.416763 
L 481.996133 144.670996 
L 482.144943 144.328723 
L 482.293753 144.619454 
L 482.591373 146.269399 
L 483.037803 149.729323 
L 483.335422 151.079641 
L 483.484232 151.186535 
L 484.228282 150.383547 
L 484.377092 149.842029 
L 484.674712 146.989502 
L 485.121141 138.149852 
L 486.014001 117.68875 
L 486.311621 114.035463 
L 486.90686 110.610223 
L 487.65091 107.766203 
L 487.79972 108.354928 
L 488.39496 113.183065 
L 488.54377 113.465393 
L 488.69258 113.283257 
L 488.990199 112.021126 
L 489.436629 108.460587 
L 490.478299 99.147691 
L 490.775918 98.095548 
L 490.924728 98.041518 
L 491.222348 98.788887 
L 491.817588 101.220056 
L 492.115208 103.410094 
L 493.156877 117.623778 
L 493.900927 128.124358 
L 494.347356 133.77755 
L 495.240216 146.630966 
L 495.537836 149.392663 
L 496.133076 152.253671 
L 496.430695 153.311169 
L 496.728315 153.901958 
L 497.025935 154.01013 
L 497.174745 153.467507 
L 497.621175 149.449146 
L 498.960464 136.898707 
L 499.258084 135.770088 
L 499.406894 135.863699 
L 499.555704 136.150846 
L 500.002133 138.867443 
L 500.448563 143.145616 
L 501.341423 153.358212 
L 501.490233 153.084426 
L 501.787853 152.120824 
L 502.085472 151.294664 
L 502.383092 151.376305 
L 502.531902 151.060719 
L 502.978332 148.873263 
L 503.127142 148.184752 
L 503.275952 148.220274 
L 503.573572 149.288438 
L 503.871191 150.739121 
L 504.020001 150.896867 
L 504.168811 150.859229 
L 504.615241 151.510534 
L 504.912861 153.314675 
L 505.359291 159.422156 
L 505.95453 168.716423 
L 506.84739 178.759623 
L 507.14501 179.807352 
L 507.591439 180.850453 
L 508.037869 183.173683 
L 508.930729 189.608988 
L 509.079539 189.293212 
L 509.228349 188.509293 
L 509.674778 183.076375 
L 510.418828 173.056037 
L 511.014068 167.627187 
L 511.311687 165.876549 
L 512.055737 162.943011 
L 512.650977 159.801342 
L 513.097406 159.089849 
L 513.395026 159.829359 
L 513.543836 160.534867 
L 513.990266 165.308594 
L 514.734316 174.245552 
L 515.031935 175.445914 
L 515.627175 176.999856 
L 515.924795 178.024491 
L 516.817655 182.006916 
L 517.264084 186.621637 
L 517.859324 192.967874 
L 518.305754 195.395234 
L 518.454564 195.778747 
L 518.454564 195.778747 
" style="fill:none;stroke:#000000;stroke-linecap:square;stroke-width:1.5;"/>
   </g>
   <g id="patch_3">
    <path d="M 72 252 
L 72 34.56 
" style="fill:none;stroke:#000000;stroke-linecap:square;stroke-linejoin:miter;stroke-width:0.8;"/>
   </g>
   <g id="patch_4">
    <path d="M 518.4 252 
L 518.4 34.56 
" style="fill:none;stroke:#000000;stroke-linecap:square;stroke-linejoin:miter;stroke-width:0.8;"/>
   </g>
   <g id="patch_5">
    <path d="M 72 252 
L 518.4 252 
" style="fill:none;stroke:#000000;stroke-linecap:square;stroke-linejoin:miter;stroke-width:0.8;"/>
   </g>
   <g id="patch_6">
    <path d="M 72 34.56 
L 518.4 34.56 
" style="fill:none;stroke:#000000;stroke-linecap:square;stroke-linejoin:miter;stroke-width:0.8;"/>
   </g>
  </g>
 </g>
 <defs>
  <clipPath id="p9195a0af9e">
   <rect height="217.44" width="446.4" x="72" y="34.56"/>
  </clipPath>
 </defs>
</svg>
