<?xml version="1.0" encoding="utf-8" standalone="no"?>
<!DOCTYPE svg PUBLIC "-//W3C//DTD SVG 1.1//EN"
  "http://www.w3.org/Graphics/SVG/1.1/DTD/svg11.dtd">
<!-- Created with matplotlib (https://matplotlib.org/) -->
<svg height="288pt" version="1.1" viewBox="0 0 576 288" width="576pt" xmlns="http://www.w3.org/2000/svg" xmlns:xlink="http://www.w3.org/1999/xlink">
 <defs>
  <style type="text/css">
*{stroke-linecap:butt;stroke-linejoin:round;}
  </style>
 </defs>
 <g id="figure_1">
  <g id="patch_1">
   <path d="M 0 288 
L 576 288 
L 576 0 
L 0 0 
z
" style="fill:#ffffff;"/>
  </g>
  <g id="axes_1">
   <g id="patch_2">
    <path d="M 72 252 
L 518.4 252 
L 518.4 34.56 
L 72 34.56 
z
" style="fill:#ffffff;"/>
   </g>
   <g id="matplotlib.axis_1">
    <g id="xtick_1">
     <g id="line2d_1">
      <path clip-path="url(#p76619ac6a9)" d="M 126.821053 252 
L 126.821053 34.56 
" style="fill:none;stroke:#b0b0b0;stroke-linecap:square;stroke-width:0.8;"/>
     </g>
     <g id="line2d_2">
      <defs>
       <path d="M 0 0 
L 0 3.5 
" id="m27876a59fe" style="stroke:#000000;stroke-width:0.8;"/>
      </defs>
      <g>
       <use style="stroke:#000000;stroke-width:0.8;" x="126.821053" xlink:href="#m27876a59fe" y="252"/>
      </g>
     </g>
     <g id="text_1">
      <!-- 2.5 -->
      <defs>
       <path d="M 19.1875 8.296875 
L 53.609375 8.296875 
L 53.609375 0 
L 7.328125 0 
L 7.328125 8.296875 
Q 12.9375 14.109375 22.625 23.890625 
Q 32.328125 33.6875 34.8125 36.53125 
Q 39.546875 41.84375 41.421875 45.53125 
Q 43.3125 49.21875 43.3125 52.78125 
Q 43.3125 58.59375 39.234375 62.25 
Q 35.15625 65.921875 28.609375 65.921875 
Q 23.96875 65.921875 18.8125 64.3125 
Q 13.671875 62.703125 7.8125 59.421875 
L 7.8125 69.390625 
Q 13.765625 71.78125 18.9375 73 
Q 24.125 74.21875 28.421875 74.21875 
Q 39.75 74.21875 46.484375 68.546875 
Q 53.21875 62.890625 53.21875 53.421875 
Q 53.21875 48.921875 51.53125 44.890625 
Q 49.859375 40.875 45.40625 35.40625 
Q 44.1875 33.984375 37.640625 27.21875 
Q 31.109375 20.453125 19.1875 8.296875 
z
" id="DejaVuSans-50"/>
       <path d="M 10.6875 12.40625 
L 21 12.40625 
L 21 0 
L 10.6875 0 
z
" id="DejaVuSans-46"/>
       <path d="M 10.796875 72.90625 
L 49.515625 72.90625 
L 49.515625 64.59375 
L 19.828125 64.59375 
L 19.828125 46.734375 
Q 21.96875 47.46875 24.109375 47.828125 
Q 26.265625 48.1875 28.421875 48.1875 
Q 40.625 48.1875 47.75 41.5 
Q 54.890625 34.8125 54.890625 23.390625 
Q 54.890625 11.625 47.5625 5.09375 
Q 40.234375 -1.421875 26.90625 -1.421875 
Q 22.3125 -1.421875 17.546875 -0.640625 
Q 12.796875 0.140625 7.71875 1.703125 
L 7.71875 11.625 
Q 12.109375 9.234375 16.796875 8.0625 
Q 21.484375 6.890625 26.703125 6.890625 
Q 35.15625 6.890625 40.078125 11.328125 
Q 45.015625 15.765625 45.015625 23.390625 
Q 45.015625 31 40.078125 35.4375 
Q 35.15625 39.890625 26.703125 39.890625 
Q 22.75 39.890625 18.8125 39.015625 
Q 14.890625 38.140625 10.796875 36.28125 
z
" id="DejaVuSans-53"/>
      </defs>
      <g transform="translate(118.86949 266.598437)scale(0.1 -0.1)">
       <use xlink:href="#DejaVuSans-50"/>
       <use x="63.623047" xlink:href="#DejaVuSans-46"/>
       <use x="95.410156" xlink:href="#DejaVuSans-53"/>
      </g>
     </g>
    </g>
    <g id="xtick_2">
     <g id="line2d_3">
      <path clip-path="url(#p76619ac6a9)" d="M 182.760902 252 
L 182.760902 34.56 
" style="fill:none;stroke:#b0b0b0;stroke-linecap:square;stroke-width:0.8;"/>
     </g>
     <g id="line2d_4">
      <g>
       <use style="stroke:#000000;stroke-width:0.8;" x="182.760902" xlink:href="#m27876a59fe" y="252"/>
      </g>
     </g>
     <g id="text_2">
      <!-- 5.0 -->
      <defs>
       <path d="M 31.78125 66.40625 
Q 24.171875 66.40625 20.328125 58.90625 
Q 16.5 51.421875 16.5 36.375 
Q 16.5 21.390625 20.328125 13.890625 
Q 24.171875 6.390625 31.78125 6.390625 
Q 39.453125 6.390625 43.28125 13.890625 
Q 47.125 21.390625 47.125 36.375 
Q 47.125 51.421875 43.28125 58.90625 
Q 39.453125 66.40625 31.78125 66.40625 
z
M 31.78125 74.21875 
Q 44.046875 74.21875 50.515625 64.515625 
Q 56.984375 54.828125 56.984375 36.375 
Q 56.984375 17.96875 50.515625 8.265625 
Q 44.046875 -1.421875 31.78125 -1.421875 
Q 19.53125 -1.421875 13.0625 8.265625 
Q 6.59375 17.96875 6.59375 36.375 
Q 6.59375 54.828125 13.0625 64.515625 
Q 19.53125 74.21875 31.78125 74.21875 
z
" id="DejaVuSans-48"/>
      </defs>
      <g transform="translate(174.80934 266.598437)scale(0.1 -0.1)">
       <use xlink:href="#DejaVuSans-53"/>
       <use x="63.623047" xlink:href="#DejaVuSans-46"/>
       <use x="95.410156" xlink:href="#DejaVuSans-48"/>
      </g>
     </g>
    </g>
    <g id="xtick_3">
     <g id="line2d_5">
      <path clip-path="url(#p76619ac6a9)" d="M 238.700752 252 
L 238.700752 34.56 
" style="fill:none;stroke:#b0b0b0;stroke-linecap:square;stroke-width:0.8;"/>
     </g>
     <g id="line2d_6">
      <g>
       <use style="stroke:#000000;stroke-width:0.8;" x="238.700752" xlink:href="#m27876a59fe" y="252"/>
      </g>
     </g>
     <g id="text_3">
      <!-- 7.5 -->
      <defs>
       <path d="M 8.203125 72.90625 
L 55.078125 72.90625 
L 55.078125 68.703125 
L 28.609375 0 
L 18.3125 0 
L 43.21875 64.59375 
L 8.203125 64.59375 
z
" id="DejaVuSans-55"/>
      </defs>
      <g transform="translate(230.749189 266.598437)scale(0.1 -0.1)">
       <use xlink:href="#DejaVuSans-55"/>
       <use x="63.623047" xlink:href="#DejaVuSans-46"/>
       <use x="95.410156" xlink:href="#DejaVuSans-53"/>
      </g>
     </g>
    </g>
    <g id="xtick_4">
     <g id="line2d_7">
      <path clip-path="url(#p76619ac6a9)" d="M 294.640602 252 
L 294.640602 34.56 
" style="fill:none;stroke:#b0b0b0;stroke-linecap:square;stroke-width:0.8;"/>
     </g>
     <g id="line2d_8">
      <g>
       <use style="stroke:#000000;stroke-width:0.8;" x="294.640602" xlink:href="#m27876a59fe" y="252"/>
      </g>
     </g>
     <g id="text_4">
      <!-- 10.0 -->
      <defs>
       <path d="M 12.40625 8.296875 
L 28.515625 8.296875 
L 28.515625 63.921875 
L 10.984375 60.40625 
L 10.984375 69.390625 
L 28.421875 72.90625 
L 38.28125 72.90625 
L 38.28125 8.296875 
L 54.390625 8.296875 
L 54.390625 0 
L 12.40625 0 
z
" id="DejaVuSans-49"/>
      </defs>
      <g transform="translate(283.507789 266.598437)scale(0.1 -0.1)">
       <use xlink:href="#DejaVuSans-49"/>
       <use x="63.623047" xlink:href="#DejaVuSans-48"/>
       <use x="127.246094" xlink:href="#DejaVuSans-46"/>
       <use x="159.033203" xlink:href="#DejaVuSans-48"/>
      </g>
     </g>
    </g>
    <g id="xtick_5">
     <g id="line2d_9">
      <path clip-path="url(#p76619ac6a9)" d="M 350.580451 252 
L 350.580451 34.56 
" style="fill:none;stroke:#b0b0b0;stroke-linecap:square;stroke-width:0.8;"/>
     </g>
     <g id="line2d_10">
      <g>
       <use style="stroke:#000000;stroke-width:0.8;" x="350.580451" xlink:href="#m27876a59fe" y="252"/>
      </g>
     </g>
     <g id="text_5">
      <!-- 12.5 -->
      <g transform="translate(339.447639 266.598437)scale(0.1 -0.1)">
       <use xlink:href="#DejaVuSans-49"/>
       <use x="63.623047" xlink:href="#DejaVuSans-50"/>
       <use x="127.246094" xlink:href="#DejaVuSans-46"/>
       <use x="159.033203" xlink:href="#DejaVuSans-53"/>
      </g>
     </g>
    </g>
    <g id="xtick_6">
     <g id="line2d_11">
      <path clip-path="url(#p76619ac6a9)" d="M 406.520301 252 
L 406.520301 34.56 
" style="fill:none;stroke:#b0b0b0;stroke-linecap:square;stroke-width:0.8;"/>
     </g>
     <g id="line2d_12">
      <g>
       <use style="stroke:#000000;stroke-width:0.8;" x="406.520301" xlink:href="#m27876a59fe" y="252"/>
      </g>
     </g>
     <g id="text_6">
      <!-- 15.0 -->
      <g transform="translate(395.387488 266.598437)scale(0.1 -0.1)">
       <use xlink:href="#DejaVuSans-49"/>
       <use x="63.623047" xlink:href="#DejaVuSans-53"/>
       <use x="127.246094" xlink:href="#DejaVuSans-46"/>
       <use x="159.033203" xlink:href="#DejaVuSans-48"/>
      </g>
     </g>
    </g>
    <g id="xtick_7">
     <g id="line2d_13">
      <path clip-path="url(#p76619ac6a9)" d="M 462.46015 252 
L 462.46015 34.56 
" style="fill:none;stroke:#b0b0b0;stroke-linecap:square;stroke-width:0.8;"/>
     </g>
     <g id="line2d_14">
      <g>
       <use style="stroke:#000000;stroke-width:0.8;" x="462.46015" xlink:href="#m27876a59fe" y="252"/>
      </g>
     </g>
     <g id="text_7">
      <!-- 17.5 -->
      <g transform="translate(451.327338 266.598437)scale(0.1 -0.1)">
       <use xlink:href="#DejaVuSans-49"/>
       <use x="63.623047" xlink:href="#DejaVuSans-55"/>
       <use x="127.246094" xlink:href="#DejaVuSans-46"/>
       <use x="159.033203" xlink:href="#DejaVuSans-53"/>
      </g>
     </g>
    </g>
    <g id="xtick_8">
     <g id="line2d_15">
      <path clip-path="url(#p76619ac6a9)" d="M 518.4 252 
L 518.4 34.56 
" style="fill:none;stroke:#b0b0b0;stroke-linecap:square;stroke-width:0.8;"/>
     </g>
     <g id="line2d_16">
      <g>
       <use style="stroke:#000000;stroke-width:0.8;" x="518.4" xlink:href="#m27876a59fe" y="252"/>
      </g>
     </g>
     <g id="text_8">
      <!-- 20.0 -->
      <g transform="translate(507.267187 266.598437)scale(0.1 -0.1)">
       <use xlink:href="#DejaVuSans-50"/>
       <use x="63.623047" xlink:href="#DejaVuSans-48"/>
       <use x="127.246094" xlink:href="#DejaVuSans-46"/>
       <use x="159.033203" xlink:href="#DejaVuSans-48"/>
      </g>
     </g>
    </g>
    <g id="text_9">
     <!-- frequência(Hz) -->
     <defs>
      <path d="M 37.109375 75.984375 
L 37.109375 68.5 
L 28.515625 68.5 
Q 23.6875 68.5 21.796875 66.546875 
Q 19.921875 64.59375 19.921875 59.515625 
L 19.921875 54.6875 
L 34.71875 54.6875 
L 34.71875 47.703125 
L 19.921875 47.703125 
L 19.921875 0 
L 10.890625 0 
L 10.890625 47.703125 
L 2.296875 47.703125 
L 2.296875 54.6875 
L 10.890625 54.6875 
L 10.890625 58.5 
Q 10.890625 67.625 15.140625 71.796875 
Q 19.390625 75.984375 28.609375 75.984375 
z
" id="DejaVuSans-102"/>
      <path d="M 41.109375 46.296875 
Q 39.59375 47.171875 37.8125 47.578125 
Q 36.03125 48 33.890625 48 
Q 26.265625 48 22.1875 43.046875 
Q 18.109375 38.09375 18.109375 28.8125 
L 18.109375 0 
L 9.078125 0 
L 9.078125 54.6875 
L 18.109375 54.6875 
L 18.109375 46.1875 
Q 20.953125 51.171875 25.484375 53.578125 
Q 30.03125 56 36.53125 56 
Q 37.453125 56 38.578125 55.875 
Q 39.703125 55.765625 41.0625 55.515625 
z
" id="DejaVuSans-114"/>
      <path d="M 56.203125 29.59375 
L 56.203125 25.203125 
L 14.890625 25.203125 
Q 15.484375 15.921875 20.484375 11.0625 
Q 25.484375 6.203125 34.421875 6.203125 
Q 39.59375 6.203125 44.453125 7.46875 
Q 49.3125 8.734375 54.109375 11.28125 
L 54.109375 2.78125 
Q 49.265625 0.734375 44.1875 -0.34375 
Q 39.109375 -1.421875 33.890625 -1.421875 
Q 20.796875 -1.421875 13.15625 6.1875 
Q 5.515625 13.8125 5.515625 26.8125 
Q 5.515625 40.234375 12.765625 48.109375 
Q 20.015625 56 32.328125 56 
Q 43.359375 56 49.78125 48.890625 
Q 56.203125 41.796875 56.203125 29.59375 
z
M 47.21875 32.234375 
Q 47.125 39.59375 43.09375 43.984375 
Q 39.0625 48.390625 32.421875 48.390625 
Q 24.90625 48.390625 20.390625 44.140625 
Q 15.875 39.890625 15.1875 32.171875 
z
" id="DejaVuSans-101"/>
      <path d="M 14.796875 27.296875 
Q 14.796875 17.390625 18.875 11.75 
Q 22.953125 6.109375 30.078125 6.109375 
Q 37.203125 6.109375 41.296875 11.75 
Q 45.40625 17.390625 45.40625 27.296875 
Q 45.40625 37.203125 41.296875 42.84375 
Q 37.203125 48.484375 30.078125 48.484375 
Q 22.953125 48.484375 18.875 42.84375 
Q 14.796875 37.203125 14.796875 27.296875 
z
M 45.40625 8.203125 
Q 42.578125 3.328125 38.25 0.953125 
Q 33.9375 -1.421875 27.875 -1.421875 
Q 17.96875 -1.421875 11.734375 6.484375 
Q 5.515625 14.40625 5.515625 27.296875 
Q 5.515625 40.1875 11.734375 48.09375 
Q 17.96875 56 27.875 56 
Q 33.9375 56 38.25 53.625 
Q 42.578125 51.265625 45.40625 46.390625 
L 45.40625 54.6875 
L 54.390625 54.6875 
L 54.390625 -20.796875 
L 45.40625 -20.796875 
z
" id="DejaVuSans-113"/>
      <path d="M 8.5 21.578125 
L 8.5 54.6875 
L 17.484375 54.6875 
L 17.484375 21.921875 
Q 17.484375 14.15625 20.5 10.265625 
Q 23.53125 6.390625 29.59375 6.390625 
Q 36.859375 6.390625 41.078125 11.03125 
Q 45.3125 15.671875 45.3125 23.6875 
L 45.3125 54.6875 
L 54.296875 54.6875 
L 54.296875 0 
L 45.3125 0 
L 45.3125 8.40625 
Q 42.046875 3.421875 37.71875 1 
Q 33.40625 -1.421875 27.6875 -1.421875 
Q 18.265625 -1.421875 13.375 4.4375 
Q 8.5 10.296875 8.5 21.578125 
z
M 31.109375 56 
z
" id="DejaVuSans-117"/>
      <path d="M 56.203125 29.59375 
L 56.203125 25.203125 
L 14.890625 25.203125 
Q 15.484375 15.921875 20.484375 11.0625 
Q 25.484375 6.203125 34.421875 6.203125 
Q 39.59375 6.203125 44.453125 7.46875 
Q 49.3125 8.734375 54.109375 11.28125 
L 54.109375 2.78125 
Q 49.265625 0.734375 44.1875 -0.34375 
Q 39.109375 -1.421875 33.890625 -1.421875 
Q 20.796875 -1.421875 13.15625 6.1875 
Q 5.515625 13.8125 5.515625 26.8125 
Q 5.515625 40.234375 12.765625 48.109375 
Q 20.015625 56 32.328125 56 
Q 43.359375 56 49.78125 48.890625 
Q 56.203125 41.796875 56.203125 29.59375 
z
M 47.21875 32.234375 
Q 47.125 39.59375 43.09375 43.984375 
Q 39.0625 48.390625 32.421875 48.390625 
Q 24.90625 48.390625 20.390625 44.140625 
Q 15.875 39.890625 15.1875 32.171875 
z
M 28.171875 79.984375 
L 35.40625 79.984375 
L 47.359375 61.625 
L 40.578125 61.625 
L 31.78125 73.578125 
L 23 61.625 
L 16.21875 61.625 
z
" id="DejaVuSans-234"/>
      <path d="M 54.890625 33.015625 
L 54.890625 0 
L 45.90625 0 
L 45.90625 32.71875 
Q 45.90625 40.484375 42.875 44.328125 
Q 39.84375 48.1875 33.796875 48.1875 
Q 26.515625 48.1875 22.3125 43.546875 
Q 18.109375 38.921875 18.109375 30.90625 
L 18.109375 0 
L 9.078125 0 
L 9.078125 54.6875 
L 18.109375 54.6875 
L 18.109375 46.1875 
Q 21.34375 51.125 25.703125 53.5625 
Q 30.078125 56 35.796875 56 
Q 45.21875 56 50.046875 50.171875 
Q 54.890625 44.34375 54.890625 33.015625 
z
" id="DejaVuSans-110"/>
      <path d="M 48.78125 52.59375 
L 48.78125 44.1875 
Q 44.96875 46.296875 41.140625 47.34375 
Q 37.3125 48.390625 33.40625 48.390625 
Q 24.65625 48.390625 19.8125 42.84375 
Q 14.984375 37.3125 14.984375 27.296875 
Q 14.984375 17.28125 19.8125 11.734375 
Q 24.65625 6.203125 33.40625 6.203125 
Q 37.3125 6.203125 41.140625 7.25 
Q 44.96875 8.296875 48.78125 10.40625 
L 48.78125 2.09375 
Q 45.015625 0.34375 40.984375 -0.53125 
Q 36.96875 -1.421875 32.421875 -1.421875 
Q 20.0625 -1.421875 12.78125 6.34375 
Q 5.515625 14.109375 5.515625 27.296875 
Q 5.515625 40.671875 12.859375 48.328125 
Q 20.21875 56 33.015625 56 
Q 37.15625 56 41.109375 55.140625 
Q 45.0625 54.296875 48.78125 52.59375 
z
" id="DejaVuSans-99"/>
      <path d="M 9.421875 54.6875 
L 18.40625 54.6875 
L 18.40625 0 
L 9.421875 0 
z
M 9.421875 75.984375 
L 18.40625 75.984375 
L 18.40625 64.59375 
L 9.421875 64.59375 
z
" id="DejaVuSans-105"/>
      <path d="M 34.28125 27.484375 
Q 23.390625 27.484375 19.1875 25 
Q 14.984375 22.515625 14.984375 16.5 
Q 14.984375 11.71875 18.140625 8.90625 
Q 21.296875 6.109375 26.703125 6.109375 
Q 34.1875 6.109375 38.703125 11.40625 
Q 43.21875 16.703125 43.21875 25.484375 
L 43.21875 27.484375 
z
M 52.203125 31.203125 
L 52.203125 0 
L 43.21875 0 
L 43.21875 8.296875 
Q 40.140625 3.328125 35.546875 0.953125 
Q 30.953125 -1.421875 24.3125 -1.421875 
Q 15.921875 -1.421875 10.953125 3.296875 
Q 6 8.015625 6 15.921875 
Q 6 25.140625 12.171875 29.828125 
Q 18.359375 34.515625 30.609375 34.515625 
L 43.21875 34.515625 
L 43.21875 35.40625 
Q 43.21875 41.609375 39.140625 45 
Q 35.0625 48.390625 27.6875 48.390625 
Q 23 48.390625 18.546875 47.265625 
Q 14.109375 46.140625 10.015625 43.890625 
L 10.015625 52.203125 
Q 14.9375 54.109375 19.578125 55.046875 
Q 24.21875 56 28.609375 56 
Q 40.484375 56 46.34375 49.84375 
Q 52.203125 43.703125 52.203125 31.203125 
z
" id="DejaVuSans-97"/>
      <path d="M 31 75.875 
Q 24.46875 64.65625 21.28125 53.65625 
Q 18.109375 42.671875 18.109375 31.390625 
Q 18.109375 20.125 21.3125 9.0625 
Q 24.515625 -2 31 -13.1875 
L 23.1875 -13.1875 
Q 15.875 -1.703125 12.234375 9.375 
Q 8.59375 20.453125 8.59375 31.390625 
Q 8.59375 42.28125 12.203125 53.3125 
Q 15.828125 64.359375 23.1875 75.875 
z
" id="DejaVuSans-40"/>
      <path d="M 9.8125 72.90625 
L 19.671875 72.90625 
L 19.671875 43.015625 
L 55.515625 43.015625 
L 55.515625 72.90625 
L 65.375 72.90625 
L 65.375 0 
L 55.515625 0 
L 55.515625 34.71875 
L 19.671875 34.71875 
L 19.671875 0 
L 9.8125 0 
z
" id="DejaVuSans-72"/>
      <path d="M 5.515625 54.6875 
L 48.1875 54.6875 
L 48.1875 46.484375 
L 14.40625 7.171875 
L 48.1875 7.171875 
L 48.1875 0 
L 4.296875 0 
L 4.296875 8.203125 
L 38.09375 47.515625 
L 5.515625 47.515625 
z
" id="DejaVuSans-122"/>
      <path d="M 8.015625 75.875 
L 15.828125 75.875 
Q 23.140625 64.359375 26.78125 53.3125 
Q 30.421875 42.28125 30.421875 31.390625 
Q 30.421875 20.453125 26.78125 9.375 
Q 23.140625 -1.703125 15.828125 -13.1875 
L 8.015625 -13.1875 
Q 14.5 -2 17.703125 9.0625 
Q 20.90625 20.125 20.90625 31.390625 
Q 20.90625 42.671875 17.703125 53.65625 
Q 14.5 64.65625 8.015625 75.875 
z
" id="DejaVuSans-41"/>
     </defs>
     <g transform="translate(258.34375 280.676562)scale(0.1 -0.1)">
      <use xlink:href="#DejaVuSans-102"/>
      <use x="35.205078" xlink:href="#DejaVuSans-114"/>
      <use x="74.068359" xlink:href="#DejaVuSans-101"/>
      <use x="135.591797" xlink:href="#DejaVuSans-113"/>
      <use x="199.068359" xlink:href="#DejaVuSans-117"/>
      <use x="262.447266" xlink:href="#DejaVuSans-234"/>
      <use x="323.970703" xlink:href="#DejaVuSans-110"/>
      <use x="387.349609" xlink:href="#DejaVuSans-99"/>
      <use x="442.330078" xlink:href="#DejaVuSans-105"/>
      <use x="470.113281" xlink:href="#DejaVuSans-97"/>
      <use x="531.392578" xlink:href="#DejaVuSans-40"/>
      <use x="570.40625" xlink:href="#DejaVuSans-72"/>
      <use x="645.601562" xlink:href="#DejaVuSans-122"/>
      <use x="698.091797" xlink:href="#DejaVuSans-41"/>
     </g>
    </g>
   </g>
   <g id="matplotlib.axis_2">
    <g id="ytick_1">
     <g id="line2d_17">
      <path clip-path="url(#p76619ac6a9)" d="M 72 252 
L 518.4 252 
" style="fill:none;stroke:#b0b0b0;stroke-linecap:square;stroke-width:0.8;"/>
     </g>
     <g id="line2d_18">
      <defs>
       <path d="M 0 0 
L -3.5 0 
" id="m42e6ac1da8" style="stroke:#000000;stroke-width:0.8;"/>
      </defs>
      <g>
       <use style="stroke:#000000;stroke-width:0.8;" x="72" xlink:href="#m42e6ac1da8" y="252"/>
      </g>
     </g>
     <g id="text_10">
      <!-- 0.00 -->
      <g transform="translate(42.734375 255.799219)scale(0.1 -0.1)">
       <use xlink:href="#DejaVuSans-48"/>
       <use x="63.623047" xlink:href="#DejaVuSans-46"/>
       <use x="95.410156" xlink:href="#DejaVuSans-48"/>
       <use x="159.033203" xlink:href="#DejaVuSans-48"/>
      </g>
     </g>
    </g>
    <g id="ytick_2">
     <g id="line2d_19">
      <path clip-path="url(#p76619ac6a9)" d="M 72 220.937143 
L 518.4 220.937143 
" style="fill:none;stroke:#b0b0b0;stroke-linecap:square;stroke-width:0.8;"/>
     </g>
     <g id="line2d_20">
      <g>
       <use style="stroke:#000000;stroke-width:0.8;" x="72" xlink:href="#m42e6ac1da8" y="220.937143"/>
      </g>
     </g>
     <g id="text_11">
      <!-- 0.05 -->
      <g transform="translate(42.734375 224.736362)scale(0.1 -0.1)">
       <use xlink:href="#DejaVuSans-48"/>
       <use x="63.623047" xlink:href="#DejaVuSans-46"/>
       <use x="95.410156" xlink:href="#DejaVuSans-48"/>
       <use x="159.033203" xlink:href="#DejaVuSans-53"/>
      </g>
     </g>
    </g>
    <g id="ytick_3">
     <g id="line2d_21">
      <path clip-path="url(#p76619ac6a9)" d="M 72 189.874286 
L 518.4 189.874286 
" style="fill:none;stroke:#b0b0b0;stroke-linecap:square;stroke-width:0.8;"/>
     </g>
     <g id="line2d_22">
      <g>
       <use style="stroke:#000000;stroke-width:0.8;" x="72" xlink:href="#m42e6ac1da8" y="189.874286"/>
      </g>
     </g>
     <g id="text_12">
      <!-- 0.10 -->
      <g transform="translate(42.734375 193.673504)scale(0.1 -0.1)">
       <use xlink:href="#DejaVuSans-48"/>
       <use x="63.623047" xlink:href="#DejaVuSans-46"/>
       <use x="95.410156" xlink:href="#DejaVuSans-49"/>
       <use x="159.033203" xlink:href="#DejaVuSans-48"/>
      </g>
     </g>
    </g>
    <g id="ytick_4">
     <g id="line2d_23">
      <path clip-path="url(#p76619ac6a9)" d="M 72 158.811429 
L 518.4 158.811429 
" style="fill:none;stroke:#b0b0b0;stroke-linecap:square;stroke-width:0.8;"/>
     </g>
     <g id="line2d_24">
      <g>
       <use style="stroke:#000000;stroke-width:0.8;" x="72" xlink:href="#m42e6ac1da8" y="158.811429"/>
      </g>
     </g>
     <g id="text_13">
      <!-- 0.15 -->
      <g transform="translate(42.734375 162.610647)scale(0.1 -0.1)">
       <use xlink:href="#DejaVuSans-48"/>
       <use x="63.623047" xlink:href="#DejaVuSans-46"/>
       <use x="95.410156" xlink:href="#DejaVuSans-49"/>
       <use x="159.033203" xlink:href="#DejaVuSans-53"/>
      </g>
     </g>
    </g>
    <g id="ytick_5">
     <g id="line2d_25">
      <path clip-path="url(#p76619ac6a9)" d="M 72 127.748571 
L 518.4 127.748571 
" style="fill:none;stroke:#b0b0b0;stroke-linecap:square;stroke-width:0.8;"/>
     </g>
     <g id="line2d_26">
      <g>
       <use style="stroke:#000000;stroke-width:0.8;" x="72" xlink:href="#m42e6ac1da8" y="127.748571"/>
      </g>
     </g>
     <g id="text_14">
      <!-- 0.20 -->
      <g transform="translate(42.734375 131.54779)scale(0.1 -0.1)">
       <use xlink:href="#DejaVuSans-48"/>
       <use x="63.623047" xlink:href="#DejaVuSans-46"/>
       <use x="95.410156" xlink:href="#DejaVuSans-50"/>
       <use x="159.033203" xlink:href="#DejaVuSans-48"/>
      </g>
     </g>
    </g>
    <g id="ytick_6">
     <g id="line2d_27">
      <path clip-path="url(#p76619ac6a9)" d="M 72 96.685714 
L 518.4 96.685714 
" style="fill:none;stroke:#b0b0b0;stroke-linecap:square;stroke-width:0.8;"/>
     </g>
     <g id="line2d_28">
      <g>
       <use style="stroke:#000000;stroke-width:0.8;" x="72" xlink:href="#m42e6ac1da8" y="96.685714"/>
      </g>
     </g>
     <g id="text_15">
      <!-- 0.25 -->
      <g transform="translate(42.734375 100.484933)scale(0.1 -0.1)">
       <use xlink:href="#DejaVuSans-48"/>
       <use x="63.623047" xlink:href="#DejaVuSans-46"/>
       <use x="95.410156" xlink:href="#DejaVuSans-50"/>
       <use x="159.033203" xlink:href="#DejaVuSans-53"/>
      </g>
     </g>
    </g>
    <g id="ytick_7">
     <g id="line2d_29">
      <path clip-path="url(#p76619ac6a9)" d="M 72 65.622857 
L 518.4 65.622857 
" style="fill:none;stroke:#b0b0b0;stroke-linecap:square;stroke-width:0.8;"/>
     </g>
     <g id="line2d_30">
      <g>
       <use style="stroke:#000000;stroke-width:0.8;" x="72" xlink:href="#m42e6ac1da8" y="65.622857"/>
      </g>
     </g>
     <g id="text_16">
      <!-- 0.30 -->
      <defs>
       <path d="M 40.578125 39.3125 
Q 47.65625 37.796875 51.625 33 
Q 55.609375 28.21875 55.609375 21.1875 
Q 55.609375 10.40625 48.1875 4.484375 
Q 40.765625 -1.421875 27.09375 -1.421875 
Q 22.515625 -1.421875 17.65625 -0.515625 
Q 12.796875 0.390625 7.625 2.203125 
L 7.625 11.71875 
Q 11.71875 9.328125 16.59375 8.109375 
Q 21.484375 6.890625 26.8125 6.890625 
Q 36.078125 6.890625 40.9375 10.546875 
Q 45.796875 14.203125 45.796875 21.1875 
Q 45.796875 27.640625 41.28125 31.265625 
Q 36.765625 34.90625 28.71875 34.90625 
L 20.21875 34.90625 
L 20.21875 43.015625 
L 29.109375 43.015625 
Q 36.375 43.015625 40.234375 45.921875 
Q 44.09375 48.828125 44.09375 54.296875 
Q 44.09375 59.90625 40.109375 62.90625 
Q 36.140625 65.921875 28.71875 65.921875 
Q 24.65625 65.921875 20.015625 65.03125 
Q 15.375 64.15625 9.8125 62.3125 
L 9.8125 71.09375 
Q 15.4375 72.65625 20.34375 73.4375 
Q 25.25 74.21875 29.59375 74.21875 
Q 40.828125 74.21875 47.359375 69.109375 
Q 53.90625 64.015625 53.90625 55.328125 
Q 53.90625 49.265625 50.4375 45.09375 
Q 46.96875 40.921875 40.578125 39.3125 
z
" id="DejaVuSans-51"/>
      </defs>
      <g transform="translate(42.734375 69.422076)scale(0.1 -0.1)">
       <use xlink:href="#DejaVuSans-48"/>
       <use x="63.623047" xlink:href="#DejaVuSans-46"/>
       <use x="95.410156" xlink:href="#DejaVuSans-51"/>
       <use x="159.033203" xlink:href="#DejaVuSans-48"/>
      </g>
     </g>
    </g>
    <g id="ytick_8">
     <g id="line2d_31">
      <path clip-path="url(#p76619ac6a9)" d="M 72 34.56 
L 518.4 34.56 
" style="fill:none;stroke:#b0b0b0;stroke-linecap:square;stroke-width:0.8;"/>
     </g>
     <g id="line2d_32">
      <g>
       <use style="stroke:#000000;stroke-width:0.8;" x="72" xlink:href="#m42e6ac1da8" y="34.56"/>
      </g>
     </g>
     <g id="text_17">
      <!-- 0.35 -->
      <g transform="translate(42.734375 38.359219)scale(0.1 -0.1)">
       <use xlink:href="#DejaVuSans-48"/>
       <use x="63.623047" xlink:href="#DejaVuSans-46"/>
       <use x="95.410156" xlink:href="#DejaVuSans-51"/>
       <use x="159.033203" xlink:href="#DejaVuSans-53"/>
      </g>
     </g>
    </g>
    <g id="text_18">
     <!-- Densidade espectral(m²/s³) -->
     <defs>
      <path d="M 19.671875 64.796875 
L 19.671875 8.109375 
L 31.59375 8.109375 
Q 46.6875 8.109375 53.6875 14.9375 
Q 60.6875 21.78125 60.6875 36.53125 
Q 60.6875 51.171875 53.6875 57.984375 
Q 46.6875 64.796875 31.59375 64.796875 
z
M 9.8125 72.90625 
L 30.078125 72.90625 
Q 51.265625 72.90625 61.171875 64.09375 
Q 71.09375 55.28125 71.09375 36.53125 
Q 71.09375 17.671875 61.125 8.828125 
Q 51.171875 0 30.078125 0 
L 9.8125 0 
z
" id="DejaVuSans-68"/>
      <path d="M 44.28125 53.078125 
L 44.28125 44.578125 
Q 40.484375 46.53125 36.375 47.5 
Q 32.28125 48.484375 27.875 48.484375 
Q 21.1875 48.484375 17.84375 46.4375 
Q 14.5 44.390625 14.5 40.28125 
Q 14.5 37.15625 16.890625 35.375 
Q 19.28125 33.59375 26.515625 31.984375 
L 29.59375 31.296875 
Q 39.15625 29.25 43.1875 25.515625 
Q 47.21875 21.78125 47.21875 15.09375 
Q 47.21875 7.46875 41.1875 3.015625 
Q 35.15625 -1.421875 24.609375 -1.421875 
Q 20.21875 -1.421875 15.453125 -0.5625 
Q 10.6875 0.296875 5.421875 2 
L 5.421875 11.28125 
Q 10.40625 8.6875 15.234375 7.390625 
Q 20.0625 6.109375 24.8125 6.109375 
Q 31.15625 6.109375 34.5625 8.28125 
Q 37.984375 10.453125 37.984375 14.40625 
Q 37.984375 18.0625 35.515625 20.015625 
Q 33.0625 21.96875 24.703125 23.78125 
L 21.578125 24.515625 
Q 13.234375 26.265625 9.515625 29.90625 
Q 5.8125 33.546875 5.8125 39.890625 
Q 5.8125 47.609375 11.28125 51.796875 
Q 16.75 56 26.8125 56 
Q 31.78125 56 36.171875 55.265625 
Q 40.578125 54.546875 44.28125 53.078125 
z
" id="DejaVuSans-115"/>
      <path d="M 45.40625 46.390625 
L 45.40625 75.984375 
L 54.390625 75.984375 
L 54.390625 0 
L 45.40625 0 
L 45.40625 8.203125 
Q 42.578125 3.328125 38.25 0.953125 
Q 33.9375 -1.421875 27.875 -1.421875 
Q 17.96875 -1.421875 11.734375 6.484375 
Q 5.515625 14.40625 5.515625 27.296875 
Q 5.515625 40.1875 11.734375 48.09375 
Q 17.96875 56 27.875 56 
Q 33.9375 56 38.25 53.625 
Q 42.578125 51.265625 45.40625 46.390625 
z
M 14.796875 27.296875 
Q 14.796875 17.390625 18.875 11.75 
Q 22.953125 6.109375 30.078125 6.109375 
Q 37.203125 6.109375 41.296875 11.75 
Q 45.40625 17.390625 45.40625 27.296875 
Q 45.40625 37.203125 41.296875 42.84375 
Q 37.203125 48.484375 30.078125 48.484375 
Q 22.953125 48.484375 18.875 42.84375 
Q 14.796875 37.203125 14.796875 27.296875 
z
" id="DejaVuSans-100"/>
      <path id="DejaVuSans-32"/>
      <path d="M 18.109375 8.203125 
L 18.109375 -20.796875 
L 9.078125 -20.796875 
L 9.078125 54.6875 
L 18.109375 54.6875 
L 18.109375 46.390625 
Q 20.953125 51.265625 25.265625 53.625 
Q 29.59375 56 35.59375 56 
Q 45.5625 56 51.78125 48.09375 
Q 58.015625 40.1875 58.015625 27.296875 
Q 58.015625 14.40625 51.78125 6.484375 
Q 45.5625 -1.421875 35.59375 -1.421875 
Q 29.59375 -1.421875 25.265625 0.953125 
Q 20.953125 3.328125 18.109375 8.203125 
z
M 48.6875 27.296875 
Q 48.6875 37.203125 44.609375 42.84375 
Q 40.53125 48.484375 33.40625 48.484375 
Q 26.265625 48.484375 22.1875 42.84375 
Q 18.109375 37.203125 18.109375 27.296875 
Q 18.109375 17.390625 22.1875 11.75 
Q 26.265625 6.109375 33.40625 6.109375 
Q 40.53125 6.109375 44.609375 11.75 
Q 48.6875 17.390625 48.6875 27.296875 
z
" id="DejaVuSans-112"/>
      <path d="M 18.3125 70.21875 
L 18.3125 54.6875 
L 36.8125 54.6875 
L 36.8125 47.703125 
L 18.3125 47.703125 
L 18.3125 18.015625 
Q 18.3125 11.328125 20.140625 9.421875 
Q 21.96875 7.515625 27.59375 7.515625 
L 36.8125 7.515625 
L 36.8125 0 
L 27.59375 0 
Q 17.1875 0 13.234375 3.875 
Q 9.28125 7.765625 9.28125 18.015625 
L 9.28125 47.703125 
L 2.6875 47.703125 
L 2.6875 54.6875 
L 9.28125 54.6875 
L 9.28125 70.21875 
z
" id="DejaVuSans-116"/>
      <path d="M 9.421875 75.984375 
L 18.40625 75.984375 
L 18.40625 0 
L 9.421875 0 
z
" id="DejaVuSans-108"/>
      <path d="M 52 44.1875 
Q 55.375 50.25 60.0625 53.125 
Q 64.75 56 71.09375 56 
Q 79.640625 56 84.28125 50.015625 
Q 88.921875 44.046875 88.921875 33.015625 
L 88.921875 0 
L 79.890625 0 
L 79.890625 32.71875 
Q 79.890625 40.578125 77.09375 44.375 
Q 74.3125 48.1875 68.609375 48.1875 
Q 61.625 48.1875 57.5625 43.546875 
Q 53.515625 38.921875 53.515625 30.90625 
L 53.515625 0 
L 44.484375 0 
L 44.484375 32.71875 
Q 44.484375 40.625 41.703125 44.40625 
Q 38.921875 48.1875 33.109375 48.1875 
Q 26.21875 48.1875 22.15625 43.53125 
Q 18.109375 38.875 18.109375 30.90625 
L 18.109375 0 
L 9.078125 0 
L 9.078125 54.6875 
L 18.109375 54.6875 
L 18.109375 46.1875 
Q 21.1875 51.21875 25.484375 53.609375 
Q 29.78125 56 35.6875 56 
Q 41.65625 56 45.828125 52.96875 
Q 50 49.953125 52 44.1875 
z
" id="DejaVuSans-109"/>
      <path d="M 13.09375 38.1875 
L 33.796875 38.1875 
L 33.796875 32.625 
L 4.59375 32.625 
L 4.59375 37.984375 
Q 6.25 39.5 9.328125 42.234375 
Q 26.125 57.125 26.125 61.71875 
Q 26.125 64.9375 23.578125 66.90625 
Q 21.046875 68.890625 16.890625 68.890625 
Q 14.359375 68.890625 11.375 68.03125 
Q 8.40625 67.1875 4.890625 65.484375 
L 4.890625 71.484375 
Q 8.640625 72.859375 11.890625 73.53125 
Q 15.140625 74.21875 17.921875 74.21875 
Q 25 74.21875 29.25 71 
Q 33.5 67.78125 33.5 62.5 
Q 33.5 55.71875 17.328125 41.84375 
Q 14.59375 39.5 13.09375 38.1875 
z
" id="DejaVuSans-178"/>
      <path d="M 25.390625 72.90625 
L 33.6875 72.90625 
L 8.296875 -9.28125 
L 0 -9.28125 
z
" id="DejaVuSans-47"/>
      <path d="M 25.59375 54.6875 
Q 30.078125 53.8125 32.546875 51.140625 
Q 35.015625 48.484375 35.015625 44.484375 
Q 35.015625 38.421875 30.375 35.15625 
Q 25.734375 31.890625 17.09375 31.890625 
Q 14.3125 31.890625 11.25 32.390625 
Q 8.203125 32.90625 4.78125 33.890625 
L 4.78125 39.796875 
Q 7.328125 38.484375 10.234375 37.84375 
Q 13.140625 37.203125 16.40625 37.203125 
Q 21.734375 37.203125 24.65625 39.125 
Q 27.59375 41.0625 27.59375 44.484375 
Q 27.59375 48.09375 24.875 49.953125 
Q 22.171875 51.8125 16.890625 51.8125 
L 12.703125 51.8125 
L 12.703125 57.078125 
L 17.28125 57.078125 
Q 21.875 57.078125 24.234375 58.609375 
Q 26.609375 60.15625 26.609375 63.09375 
Q 26.609375 65.921875 24.171875 67.40625 
Q 21.734375 68.890625 17.09375 68.890625 
Q 15.140625 68.890625 12.640625 68.453125 
Q 10.15625 68.015625 6.203125 66.890625 
L 6.203125 72.515625 
Q 9.765625 73.34375 12.890625 73.78125 
Q 16.015625 74.21875 18.703125 74.21875 
Q 25.734375 74.21875 29.859375 71.328125 
Q 33.984375 68.453125 33.984375 63.625 
Q 33.984375 60.25 31.78125 57.90625 
Q 29.59375 55.5625 25.59375 54.6875 
z
" id="DejaVuSans-179"/>
     </defs>
     <g transform="translate(36.654687 211.6675)rotate(-90)scale(0.1 -0.1)">
      <use xlink:href="#DejaVuSans-68"/>
      <use x="77.001953" xlink:href="#DejaVuSans-101"/>
      <use x="138.525391" xlink:href="#DejaVuSans-110"/>
      <use x="201.904297" xlink:href="#DejaVuSans-115"/>
      <use x="254.003906" xlink:href="#DejaVuSans-105"/>
      <use x="281.787109" xlink:href="#DejaVuSans-100"/>
      <use x="345.263672" xlink:href="#DejaVuSans-97"/>
      <use x="406.542969" xlink:href="#DejaVuSans-100"/>
      <use x="470.019531" xlink:href="#DejaVuSans-101"/>
      <use x="531.542969" xlink:href="#DejaVuSans-32"/>
      <use x="563.330078" xlink:href="#DejaVuSans-101"/>
      <use x="624.853516" xlink:href="#DejaVuSans-115"/>
      <use x="676.953125" xlink:href="#DejaVuSans-112"/>
      <use x="740.429688" xlink:href="#DejaVuSans-101"/>
      <use x="801.953125" xlink:href="#DejaVuSans-99"/>
      <use x="856.933594" xlink:href="#DejaVuSans-116"/>
      <use x="896.142578" xlink:href="#DejaVuSans-114"/>
      <use x="937.255859" xlink:href="#DejaVuSans-97"/>
      <use x="998.535156" xlink:href="#DejaVuSans-108"/>
      <use x="1026.318359" xlink:href="#DejaVuSans-40"/>
      <use x="1065.332031" xlink:href="#DejaVuSans-109"/>
      <use x="1162.744141" xlink:href="#DejaVuSans-178"/>
      <use x="1202.832031" xlink:href="#DejaVuSans-47"/>
      <use x="1236.523438" xlink:href="#DejaVuSans-115"/>
      <use x="1288.623047" xlink:href="#DejaVuSans-179"/>
      <use x="1328.710938" xlink:href="#DejaVuSans-41"/>
     </g>
    </g>
   </g>
   <g id="line2d_33">
    <path clip-path="url(#p76619ac6a9)" d="M 71.478014 223.203907 
L 72.074825 234.298573 
L 72.671636 234.032284 
L 73.268447 244.883393 
L 73.865259 233.306417 
L 74.46207 236.695523 
L 75.058881 214.480912 
L 75.655692 244.339137 
L 76.252503 207.690146 
L 76.849314 200.009575 
L 77.446125 175.085218 
L 78.042936 241.484438 
L 78.639747 235.458257 
L 79.236558 233.420947 
L 79.83337 250.806674 
L 81.026992 112.985779 
L 82.220614 219.918326 
L 82.817425 250.360818 
L 83.414236 246.141532 
L 84.011047 232.440522 
L 84.607858 223.353825 
L 85.204669 192.144596 
L 85.80148 182.611679 
L 86.398292 198.394634 
L 86.995103 244.835071 
L 87.591914 238.247552 
L 88.188725 213.922514 
L 88.785536 83.19036 
L 89.382347 213.473359 
L 89.979158 156.73343 
L 90.575969 82.167773 
L 91.17278 100.832773 
L 91.418718 -1 
M 92.596834 -1 
L 92.963214 210.654091 
L 93.560025 181.240121 
L 94.156836 217.813129 
L 94.753647 209.161089 
L 95.350458 202.335282 
L 95.947269 137.075725 
L 96.54408 95.425105 
L 97.140891 124.346178 
L 97.737702 202.23656 
L 98.334514 191.95586 
L 98.931325 205.057753 
L 99.528136 247.498459 
L 100.124947 227.317712 
L 100.721758 247.245982 
L 101.91538 242.278591 
L 102.512191 217.581693 
L 103.109002 231.08789 
L 103.705813 212.04879 
L 104.302625 218.094319 
L 104.899436 185.24846 
L 105.496247 96.531003 
L 106.093058 179.792938 
L 106.689869 201.051245 
L 107.28668 234.886925 
L 107.883491 235.858958 
L 108.480302 240.354318 
L 109.077113 138.135712 
L 109.673924 186.459771 
L 110.270736 120.086767 
L 110.867547 234.539135 
L 111.464358 207.02027 
L 112.061169 249.690942 
L 112.65798 227.667117 
L 113.254791 243.830877 
L 113.851602 191.194727 
L 114.448413 218.251237 
L 115.045224 194.316233 
L 115.642035 175.674612 
L 116.238847 139.097001 
L 116.835658 212.565266 
L 117.432469 172.563203 
L 118.02928 214.206329 
L 118.626091 241.696909 
L 119.222902 234.362891 
L 119.819713 187.698331 
L 120.416524 214.059649 
L 121.013335 222.895235 
L 121.610146 240.775676 
L 122.206958 241.514542 
L 122.803769 227.590909 
L 123.40058 246.249077 
L 123.997391 212.367636 
L 124.594202 240.923247 
L 125.191013 240.91932 
L 125.787824 251.588397 
L 126.384635 182.517892 
L 126.981446 235.008752 
L 127.578257 241.082401 
L 128.175069 250.092647 
L 128.77188 230.96839 
L 129.368691 230.505577 
L 129.965502 247.059923 
L 130.562313 219.50481 
L 131.159124 251.36431 
L 131.755935 245.887475 
L 132.352746 227.834403 
L 132.949557 238.439494 
L 133.546368 242.774344 
L 134.14318 232.898647 
L 134.739991 246.412323 
L 135.336802 250.522694 
L 135.933613 247.696957 
L 136.530424 238.20246 
L 137.127235 250.242638 
L 137.724046 242.633692 
L 138.320857 249.866829 
L 138.917668 246.950849 
L 139.514479 237.14487 
L 140.111291 240.709969 
L 140.708102 195.635312 
L 141.304913 233.899269 
L 141.901724 213.708291 
L 142.498535 250.198204 
L 143.095346 244.58741 
L 143.692157 247.401065 
L 144.885779 172.475431 
L 145.48259 109.902891 
L 146.079402 89.487296 
L 146.676213 103.822773 
L 147.869835 237.739049 
L 148.466646 169.100033 
L 149.063457 227.372715 
L 149.660268 208.91622 
L 150.257079 245.808166 
L 150.85389 236.700719 
L 151.450701 239.850443 
L 152.047513 182.829156 
L 152.644324 243.334057 
L 153.241135 233.299803 
L 153.837946 246.104496 
L 154.434757 244.626591 
L 155.031568 249.029056 
L 155.628379 244.476694 
L 156.22519 238.499049 
L 156.822001 244.78878 
L 157.418812 206.525897 
L 158.612435 239.981135 
L 159.209246 251.967736 
L 159.806057 247.655289 
L 160.402868 239.516771 
L 160.999679 249.746014 
L 161.59649 246.516097 
L 162.193301 250.308499 
L 162.790112 241.28512 
L 163.386923 226.013721 
L 163.983735 241.991719 
L 164.580546 245.783345 
L 165.177357 251.696363 
L 165.774168 247.811613 
L 166.370979 248.058177 
L 166.96779 250.769867 
L 167.564601 249.288455 
L 168.161412 230.763195 
L 168.758223 203.648917 
L 169.355034 228.628608 
L 169.951846 232.005577 
L 170.548657 236.209097 
L 171.145468 250.140298 
L 171.742279 248.170649 
L 172.33909 247.842742 
L 172.935901 229.547234 
L 173.532712 219.719562 
L 174.129523 215.616312 
L 174.726334 239.74745 
L 175.323145 217.783976 
L 175.919957 233.96844 
L 176.516768 246.845271 
L 177.113579 239.547641 
L 177.71039 242.906154 
L 178.307201 234.152446 
L 178.904012 246.221297 
L 179.500823 251.44364 
L 180.694445 243.091703 
L 181.291256 244.18136 
L 181.888068 238.346789 
L 182.484879 236.48863 
L 183.08169 231.082303 
L 183.678501 242.779905 
L 184.275312 240.822321 
L 184.872123 232.347966 
L 185.468934 243.72465 
L 186.065745 234.399497 
L 186.662556 219.561443 
L 187.259367 240.309617 
L 187.856179 228.704284 
L 188.45299 234.336263 
L 189.049801 249.351896 
L 189.646612 251.300054 
L 190.243423 250.842718 
L 190.840234 249.708783 
L 191.437045 248.933503 
L 192.033856 250.15859 
L 192.630667 244.330714 
L 193.227478 248.374877 
L 193.82429 251.209513 
L 194.421101 241.728936 
L 195.017912 240.161281 
L 195.614723 245.876427 
L 196.211534 235.765526 
L 196.808345 243.636917 
L 197.405156 249.603075 
L 198.001967 245.549788 
L 198.598778 245.205467 
L 199.195589 246.853098 
L 199.7924 247.53038 
L 200.389212 251.401582 
L 200.986023 249.115298 
L 201.582834 250.93069 
L 202.179645 247.811986 
L 202.776456 249.632591 
L 203.373267 248.169293 
L 203.970078 243.640773 
L 204.566889 251.341681 
L 205.1637 248.317147 
L 205.760511 247.836723 
L 206.357323 244.462325 
L 206.954134 235.74303 
L 207.550945 236.703417 
L 208.147756 231.525739 
L 208.744567 244.850463 
L 209.341378 239.578446 
L 209.938189 245.934744 
L 210.535 250.522965 
L 211.131811 251.436703 
L 211.728622 245.827686 
L 212.325434 249.284237 
L 212.922245 243.078193 
L 213.519056 249.453597 
L 214.115867 237.569958 
L 214.712678 243.014815 
L 215.309489 251.285705 
L 215.9063 245.378875 
L 216.503111 248.407803 
L 217.099922 245.204461 
L 217.696733 248.283192 
L 218.293545 243.558277 
L 218.890356 251.070878 
L 219.487167 246.334522 
L 220.083978 239.389722 
L 220.680789 246.497186 
L 221.2776 247.789354 
L 221.874411 245.295861 
L 222.471222 240.266185 
L 223.068033 249.53519 
L 223.664844 250.385207 
L 224.261656 245.674908 
L 224.858467 242.306682 
L 225.455278 251.226311 
L 226.052089 251.27657 
L 226.6489 246.950702 
L 227.842522 250.873957 
L 228.439333 250.524999 
L 229.036144 251.874907 
L 229.632955 250.564294 
L 230.229767 251.523218 
L 230.826578 245.065407 
L 231.423389 248.174289 
L 232.0202 239.546581 
L 232.617011 241.569798 
L 233.213822 242.943634 
L 233.810633 244.779282 
L 234.407444 245.199758 
L 235.004255 250.715047 
L 235.601066 250.469182 
L 236.197878 250.563516 
L 236.794689 250.30754 
L 237.3915 251.202745 
L 237.988311 248.125863 
L 238.585122 248.427485 
L 239.181933 249.298021 
L 239.778744 244.752129 
L 240.375555 250.800977 
L 240.972366 249.69477 
L 241.569177 249.128541 
L 242.165989 251.702868 
L 242.7628 251.572195 
L 243.359611 249.842191 
L 243.956422 249.473337 
L 244.553233 250.329037 
L 245.150044 244.614629 
L 245.746855 245.168288 
L 246.343666 248.612772 
L 246.940477 236.369745 
L 247.537288 245.624323 
L 248.1341 251.267143 
L 248.730911 248.421998 
L 249.327722 251.410201 
L 249.924533 250.275508 
L 251.118155 248.438704 
L 251.714966 244.823601 
L 252.311777 247.835992 
L 252.908588 246.49209 
L 253.505399 245.811023 
L 254.102211 245.909942 
L 254.699022 250.06335 
L 255.295833 247.987974 
L 255.892644 251.928526 
L 256.489455 251.011185 
L 257.086266 251.877345 
L 257.683077 246.355627 
L 258.279888 251.560562 
L 258.876699 247.947937 
L 259.47351 248.323067 
L 260.070322 251.172946 
L 260.667133 250.130278 
L 261.263944 251.758014 
L 261.860755 250.567988 
L 262.457566 251.980443 
L 263.054377 251.15185 
L 263.651188 249.461448 
L 264.247999 247.154749 
L 264.84481 245.830108 
L 265.441621 246.241296 
L 266.038433 249.884986 
L 266.635244 245.694099 
L 267.232055 249.117981 
L 267.828866 250.578514 
L 268.425677 250.460935 
L 269.022488 251.032535 
L 269.619299 250.775804 
L 270.21611 251.823148 
L 270.812921 251.789452 
L 271.409732 250.574358 
L 272.006544 250.448638 
L 272.603355 248.876545 
L 273.200166 250.689372 
L 273.796977 251.885177 
L 274.393788 251.887663 
L 274.990599 251.560823 
L 275.58741 250.88551 
L 276.184221 248.266175 
L 276.781032 249.542561 
L 277.377843 246.631418 
L 277.974655 248.374718 
L 278.571466 241.078598 
L 279.168277 245.384373 
L 279.765088 248.872485 
L 280.361899 248.74033 
L 280.95871 250.105143 
L 281.555521 248.411935 
L 282.152332 250.924822 
L 282.749143 251.047432 
L 283.345954 251.630364 
L 283.942766 251.240524 
L 284.539577 251.050377 
L 285.136388 251.135521 
L 285.733199 250.40626 
L 286.33001 251.008129 
L 286.926821 249.876146 
L 288.120443 251.417325 
L 288.717254 251.190113 
L 289.314065 249.91489 
L 289.910877 248.904015 
L 290.507688 246.353674 
L 291.104499 247.804891 
L 292.298121 245.111945 
L 292.894932 248.287742 
L 293.491743 249.472542 
L 294.088554 250.374838 
L 294.685365 251.48096 
L 295.282176 251.548888 
L 295.878988 251.198542 
L 296.475799 247.217743 
L 297.07261 247.501011 
L 297.669421 247.28824 
L 298.266232 250.472709 
L 298.863043 248.417375 
L 299.459854 250.879857 
L 300.056665 250.967202 
L 300.653476 250.122439 
L 301.250287 251.229423 
L 301.847099 251.447716 
L 302.44391 251.285906 
L 303.040721 251.678391 
L 303.637532 251.314184 
L 304.234343 250.784737 
L 304.831154 250.05073 
L 306.024776 251.532286 
L 306.621587 251.721134 
L 307.218398 251.568686 
L 307.81521 251.687136 
L 308.412021 250.192582 
L 309.008832 250.671621 
L 309.605643 249.338357 
L 310.799265 245.527367 
L 311.396076 248.112574 
L 311.992887 246.631611 
L 312.589698 247.792651 
L 313.186509 250.881021 
L 313.783321 251.078268 
L 314.380132 251.916748 
L 314.976943 251.833951 
L 315.573754 250.94369 
L 316.170565 251.584742 
L 316.767376 251.272114 
L 317.364187 251.616361 
L 317.960998 251.711158 
L 318.557809 251.96101 
L 319.751431 251.933297 
L 320.348243 250.790504 
L 320.945054 251.178916 
L 321.541865 250.27513 
L 322.138676 248.545619 
L 322.735487 249.714345 
L 323.332298 247.496209 
L 323.929109 248.292098 
L 324.52592 248.178374 
L 325.122731 249.636877 
L 325.719542 249.872873 
L 326.316354 250.242333 
L 326.913165 251.223224 
L 328.106787 251.92866 
L 329.300409 251.476925 
L 329.89722 251.606235 
L 330.494031 250.921059 
L 331.090842 251.452657 
L 331.687653 251.088115 
L 332.284465 251.735114 
L 332.881276 251.78716 
L 334.074898 251.524859 
L 334.671709 249.624534 
L 335.26852 250.084901 
L 335.865331 249.405495 
L 336.462142 249.315619 
L 337.058953 248.050115 
L 337.655764 248.638155 
L 338.252576 249.024201 
L 338.849387 249.991487 
L 339.446198 250.272596 
L 340.043009 250.918906 
L 340.63982 250.943937 
L 341.236631 251.337096 
L 341.833442 250.295241 
L 342.430253 249.964884 
L 343.027064 251.167316 
L 343.623875 249.681433 
L 344.220687 249.498919 
L 344.817498 250.67802 
L 345.414309 251.180162 
L 346.01112 251.309626 
L 346.607931 251.888983 
L 347.801553 251.427554 
L 348.398364 251.529302 
L 348.995175 251.286143 
L 349.591986 250.908861 
L 350.188798 250.383534 
L 350.785609 250.573903 
L 351.38242 250.614016 
L 351.979231 250.871534 
L 352.576042 250.41448 
L 353.172853 250.170812 
L 353.769664 250.441676 
L 354.366475 250.054975 
L 354.963286 250.185436 
L 355.560097 249.776215 
L 356.156909 249.153678 
L 357.350531 248.98772 
L 357.947342 249.190105 
L 359.140964 251.346192 
L 359.737775 251.387597 
L 360.334586 251.989288 
L 361.528208 251.974026 
L 362.12502 251.614981 
L 362.721831 251.683707 
L 363.318642 251.501132 
L 363.915453 251.531865 
L 364.512264 251.835709 
L 365.705886 251.572212 
L 366.302697 251.07007 
L 366.899508 250.79294 
L 367.496319 249.587805 
L 368.093131 249.232057 
L 368.689942 249.478214 
L 369.286753 249.382498 
L 369.883564 248.690865 
L 370.480375 249.596183 
L 371.077186 248.741992 
L 371.673997 250.725261 
L 372.270808 250.358637 
L 372.867619 251.302675 
L 373.46443 251.339714 
L 375.254864 251.896955 
L 375.851675 251.751077 
L 376.448486 251.973589 
L 377.642108 251.94932 
L 378.238919 251.999642 
L 378.83573 251.607916 
L 379.432541 251.650816 
L 380.029353 250.831504 
L 380.626164 250.4915 
L 381.222975 250.360306 
L 381.819786 250.028988 
L 382.416597 250.437611 
L 383.013408 250.304065 
L 384.20703 250.481947 
L 384.803841 250.09291 
L 385.400652 250.053253 
L 385.997464 250.687955 
L 386.594275 250.166799 
L 387.191086 251.281276 
L 387.787897 251.088979 
L 388.384708 251.480615 
L 388.981519 251.416438 
L 389.57833 251.691254 
L 390.771952 251.773901 
L 391.368763 251.974148 
L 392.562386 251.888266 
L 393.159197 251.491111 
L 393.756008 251.491702 
L 394.352819 251.289098 
L 394.94963 250.956047 
L 395.546441 250.770118 
L 396.143252 250.722525 
L 396.740063 250.453403 
L 397.336874 250.426296 
L 397.933686 250.521722 
L 398.530497 249.887764 
L 399.127308 250.495065 
L 399.724119 250.055174 
L 400.32093 250.699324 
L 400.917741 250.08867 
L 401.514552 250.340109 
L 402.708174 251.331964 
L 403.304985 251.102646 
L 403.901797 251.559049 
L 404.498608 251.532529 
L 405.095419 251.628241 
L 405.69223 251.986181 
L 407.482663 251.876116 
L 408.079474 251.879529 
L 408.676285 251.645033 
L 409.273096 251.616777 
L 409.869908 250.91891 
L 410.466719 251.13378 
L 411.06353 250.38666 
L 411.660341 250.999644 
L 412.257152 249.927063 
L 412.853963 250.669911 
L 413.450774 250.434937 
L 414.644396 250.333353 
L 415.838019 250.753924 
L 416.43483 250.741107 
L 417.031641 251.20784 
L 417.628452 251.031611 
L 418.822074 251.436518 
L 419.418885 251.527115 
L 420.015696 251.834034 
L 420.612507 251.767502 
L 421.209318 251.963619 
L 422.402941 251.857336 
L 422.999752 251.730776 
L 423.596563 251.40976 
L 425.386996 251.261916 
L 425.983807 250.933536 
L 426.580618 250.860216 
L 427.177429 250.923647 
L 427.774241 250.484356 
L 428.371052 250.637383 
L 428.967863 250.458626 
L 429.564674 250.088083 
L 430.161485 249.925041 
L 431.355107 250.335318 
L 431.951918 250.470483 
L 432.548729 251.028426 
L 435.532785 251.990081 
L 436.726407 251.94809 
L 437.323218 251.84124 
L 438.51684 251.786832 
L 439.113651 251.669251 
L 439.710462 251.704491 
L 441.500896 250.883381 
L 442.694518 249.911939 
L 443.88814 249.682363 
L 444.484951 249.910008 
L 445.081762 250.331843 
L 445.678573 250.49362 
L 447.469007 251.469579 
L 448.662629 251.825256 
L 449.856251 251.855029 
L 450.453062 251.80097 
L 452.243496 251.995679 
L 453.437118 251.758077 
L 454.033929 251.656231 
L 455.824362 250.34071 
L 456.421173 250.273658 
L 457.017984 249.978989 
L 458.211607 250.429502 
L 458.808418 250.820244 
L 460.598851 251.347446 
L 461.792473 251.367164 
L 462.389284 251.323529 
L 462.986095 251.159069 
L 464.179718 251.33516 
L 464.776529 251.459495 
L 465.970151 251.862412 
L 466.566962 251.888667 
L 467.760584 251.602034 
L 469.551017 250.842029 
L 470.147829 250.650822 
L 471.341451 251.120931 
L 472.535073 251.410341 
L 474.922317 250.812657 
L 476.11594 250.347675 
L 476.712751 250.321935 
L 477.906373 250.818661 
L 479.099995 251.598357 
L 479.696806 251.84415 
L 480.293617 251.942889 
L 481.487239 251.826337 
L 482.680862 251.609399 
L 483.874484 251.642106 
L 484.471295 251.841882 
L 485.664917 251.765475 
L 486.858539 251.097403 
L 487.45535 250.590701 
L 488.052162 250.346357 
L 488.648973 249.955249 
L 489.842595 249.648333 
L 492.82665 251.842055 
L 494.020273 251.985864 
L 496.407517 251.860839 
L 498.19795 251.96459 
L 498.794761 251.83262 
L 499.988384 251.059969 
L 501.182006 250.354312 
L 501.778817 250.074576 
L 502.375628 249.953741 
L 502.972439 250.045047 
L 503.56925 250.312788 
L 505.359683 251.610771 
L 505.956495 251.829418 
L 507.150117 251.701221 
L 508.94055 251.430906 
L 510.134172 251.591137 
L 511.327794 251.804736 
L 511.924606 251.772137 
L 512.521417 251.609744 
L 513.715039 251.036622 
L 514.908661 250.657739 
L 515.505472 250.6275 
L 516.699094 251.019995 
L 517.892717 251.636186 
L 518.489528 251.732122 
L 518.489528 251.732122 
" style="fill:none;stroke:#000000;stroke-linecap:square;stroke-width:1.5;"/>
   </g>
   <g id="patch_3">
    <path d="M 72 252 
L 72 34.56 
" style="fill:none;stroke:#000000;stroke-linecap:square;stroke-linejoin:miter;stroke-width:0.8;"/>
   </g>
   <g id="patch_4">
    <path d="M 518.4 252 
L 518.4 34.56 
" style="fill:none;stroke:#000000;stroke-linecap:square;stroke-linejoin:miter;stroke-width:0.8;"/>
   </g>
   <g id="patch_5">
    <path d="M 72 252 
L 518.4 252 
" style="fill:none;stroke:#000000;stroke-linecap:square;stroke-linejoin:miter;stroke-width:0.8;"/>
   </g>
   <g id="patch_6">
    <path d="M 72 34.56 
L 518.4 34.56 
" style="fill:none;stroke:#000000;stroke-linecap:square;stroke-linejoin:miter;stroke-width:0.8;"/>
   </g>
  </g>
 </g>
 <defs>
  <clipPath id="p76619ac6a9">
   <rect height="217.44" width="446.4" x="72" y="34.56"/>
  </clipPath>
 </defs>
</svg>
