<?xml version="1.0" encoding="utf-8" standalone="no"?>
<!DOCTYPE svg PUBLIC "-//W3C//DTD SVG 1.1//EN"
  "http://www.w3.org/Graphics/SVG/1.1/DTD/svg11.dtd">
<!-- Created with matplotlib (https://matplotlib.org/) -->
<svg height="288pt" version="1.1" viewBox="0 0 576 288" width="576pt" xmlns="http://www.w3.org/2000/svg" xmlns:xlink="http://www.w3.org/1999/xlink">
 <defs>
  <style type="text/css">
*{stroke-linecap:butt;stroke-linejoin:round;}
  </style>
 </defs>
 <g id="figure_1">
  <g id="patch_1">
   <path d="M 0 288 
L 576 288 
L 576 0 
L 0 0 
z
" style="fill:#ffffff;"/>
  </g>
  <g id="axes_1">
   <g id="patch_2">
    <path d="M 72 252 
L 518.4 252 
L 518.4 34.56 
L 72 34.56 
z
" style="fill:#ffffff;"/>
   </g>
   <g id="matplotlib.axis_1">
    <g id="xtick_1">
     <g id="line2d_1">
      <path clip-path="url(#p63ba0e3e1f)" d="M 72 252 
L 72 34.56 
" style="fill:none;stroke:#b0b0b0;stroke-linecap:square;stroke-width:0.8;"/>
     </g>
     <g id="line2d_2">
      <defs>
       <path d="M 0 0 
L 0 3.5 
" id="m5273a8af6d" style="stroke:#000000;stroke-width:0.8;"/>
      </defs>
      <g>
       <use style="stroke:#000000;stroke-width:0.8;" x="72" xlink:href="#m5273a8af6d" y="252"/>
      </g>
     </g>
     <g id="text_1">
      <!-- 0 -->
      <defs>
       <path d="M 31.78125 66.40625 
Q 24.171875 66.40625 20.328125 58.90625 
Q 16.5 51.421875 16.5 36.375 
Q 16.5 21.390625 20.328125 13.890625 
Q 24.171875 6.390625 31.78125 6.390625 
Q 39.453125 6.390625 43.28125 13.890625 
Q 47.125 21.390625 47.125 36.375 
Q 47.125 51.421875 43.28125 58.90625 
Q 39.453125 66.40625 31.78125 66.40625 
z
M 31.78125 74.21875 
Q 44.046875 74.21875 50.515625 64.515625 
Q 56.984375 54.828125 56.984375 36.375 
Q 56.984375 17.96875 50.515625 8.265625 
Q 44.046875 -1.421875 31.78125 -1.421875 
Q 19.53125 -1.421875 13.0625 8.265625 
Q 6.59375 17.96875 6.59375 36.375 
Q 6.59375 54.828125 13.0625 64.515625 
Q 19.53125 74.21875 31.78125 74.21875 
z
" id="DejaVuSans-48"/>
      </defs>
      <g transform="translate(68.81875 266.598437)scale(0.1 -0.1)">
       <use xlink:href="#DejaVuSans-48"/>
      </g>
     </g>
    </g>
    <g id="xtick_2">
     <g id="line2d_3">
      <path clip-path="url(#p63ba0e3e1f)" d="M 146.4 252 
L 146.4 34.56 
" style="fill:none;stroke:#b0b0b0;stroke-linecap:square;stroke-width:0.8;"/>
     </g>
     <g id="line2d_4">
      <g>
       <use style="stroke:#000000;stroke-width:0.8;" x="146.4" xlink:href="#m5273a8af6d" y="252"/>
      </g>
     </g>
     <g id="text_2">
      <!-- 5 -->
      <defs>
       <path d="M 10.796875 72.90625 
L 49.515625 72.90625 
L 49.515625 64.59375 
L 19.828125 64.59375 
L 19.828125 46.734375 
Q 21.96875 47.46875 24.109375 47.828125 
Q 26.265625 48.1875 28.421875 48.1875 
Q 40.625 48.1875 47.75 41.5 
Q 54.890625 34.8125 54.890625 23.390625 
Q 54.890625 11.625 47.5625 5.09375 
Q 40.234375 -1.421875 26.90625 -1.421875 
Q 22.3125 -1.421875 17.546875 -0.640625 
Q 12.796875 0.140625 7.71875 1.703125 
L 7.71875 11.625 
Q 12.109375 9.234375 16.796875 8.0625 
Q 21.484375 6.890625 26.703125 6.890625 
Q 35.15625 6.890625 40.078125 11.328125 
Q 45.015625 15.765625 45.015625 23.390625 
Q 45.015625 31 40.078125 35.4375 
Q 35.15625 39.890625 26.703125 39.890625 
Q 22.75 39.890625 18.8125 39.015625 
Q 14.890625 38.140625 10.796875 36.28125 
z
" id="DejaVuSans-53"/>
      </defs>
      <g transform="translate(143.21875 266.598437)scale(0.1 -0.1)">
       <use xlink:href="#DejaVuSans-53"/>
      </g>
     </g>
    </g>
    <g id="xtick_3">
     <g id="line2d_5">
      <path clip-path="url(#p63ba0e3e1f)" d="M 220.8 252 
L 220.8 34.56 
" style="fill:none;stroke:#b0b0b0;stroke-linecap:square;stroke-width:0.8;"/>
     </g>
     <g id="line2d_6">
      <g>
       <use style="stroke:#000000;stroke-width:0.8;" x="220.8" xlink:href="#m5273a8af6d" y="252"/>
      </g>
     </g>
     <g id="text_3">
      <!-- 10 -->
      <defs>
       <path d="M 12.40625 8.296875 
L 28.515625 8.296875 
L 28.515625 63.921875 
L 10.984375 60.40625 
L 10.984375 69.390625 
L 28.421875 72.90625 
L 38.28125 72.90625 
L 38.28125 8.296875 
L 54.390625 8.296875 
L 54.390625 0 
L 12.40625 0 
z
" id="DejaVuSans-49"/>
      </defs>
      <g transform="translate(214.4375 266.598437)scale(0.1 -0.1)">
       <use xlink:href="#DejaVuSans-49"/>
       <use x="63.623047" xlink:href="#DejaVuSans-48"/>
      </g>
     </g>
    </g>
    <g id="xtick_4">
     <g id="line2d_7">
      <path clip-path="url(#p63ba0e3e1f)" d="M 295.2 252 
L 295.2 34.56 
" style="fill:none;stroke:#b0b0b0;stroke-linecap:square;stroke-width:0.8;"/>
     </g>
     <g id="line2d_8">
      <g>
       <use style="stroke:#000000;stroke-width:0.8;" x="295.2" xlink:href="#m5273a8af6d" y="252"/>
      </g>
     </g>
     <g id="text_4">
      <!-- 15 -->
      <g transform="translate(288.8375 266.598437)scale(0.1 -0.1)">
       <use xlink:href="#DejaVuSans-49"/>
       <use x="63.623047" xlink:href="#DejaVuSans-53"/>
      </g>
     </g>
    </g>
    <g id="xtick_5">
     <g id="line2d_9">
      <path clip-path="url(#p63ba0e3e1f)" d="M 369.6 252 
L 369.6 34.56 
" style="fill:none;stroke:#b0b0b0;stroke-linecap:square;stroke-width:0.8;"/>
     </g>
     <g id="line2d_10">
      <g>
       <use style="stroke:#000000;stroke-width:0.8;" x="369.6" xlink:href="#m5273a8af6d" y="252"/>
      </g>
     </g>
     <g id="text_5">
      <!-- 20 -->
      <defs>
       <path d="M 19.1875 8.296875 
L 53.609375 8.296875 
L 53.609375 0 
L 7.328125 0 
L 7.328125 8.296875 
Q 12.9375 14.109375 22.625 23.890625 
Q 32.328125 33.6875 34.8125 36.53125 
Q 39.546875 41.84375 41.421875 45.53125 
Q 43.3125 49.21875 43.3125 52.78125 
Q 43.3125 58.59375 39.234375 62.25 
Q 35.15625 65.921875 28.609375 65.921875 
Q 23.96875 65.921875 18.8125 64.3125 
Q 13.671875 62.703125 7.8125 59.421875 
L 7.8125 69.390625 
Q 13.765625 71.78125 18.9375 73 
Q 24.125 74.21875 28.421875 74.21875 
Q 39.75 74.21875 46.484375 68.546875 
Q 53.21875 62.890625 53.21875 53.421875 
Q 53.21875 48.921875 51.53125 44.890625 
Q 49.859375 40.875 45.40625 35.40625 
Q 44.1875 33.984375 37.640625 27.21875 
Q 31.109375 20.453125 19.1875 8.296875 
z
" id="DejaVuSans-50"/>
      </defs>
      <g transform="translate(363.2375 266.598437)scale(0.1 -0.1)">
       <use xlink:href="#DejaVuSans-50"/>
       <use x="63.623047" xlink:href="#DejaVuSans-48"/>
      </g>
     </g>
    </g>
    <g id="xtick_6">
     <g id="line2d_11">
      <path clip-path="url(#p63ba0e3e1f)" d="M 444 252 
L 444 34.56 
" style="fill:none;stroke:#b0b0b0;stroke-linecap:square;stroke-width:0.8;"/>
     </g>
     <g id="line2d_12">
      <g>
       <use style="stroke:#000000;stroke-width:0.8;" x="444" xlink:href="#m5273a8af6d" y="252"/>
      </g>
     </g>
     <g id="text_6">
      <!-- 25 -->
      <g transform="translate(437.6375 266.598437)scale(0.1 -0.1)">
       <use xlink:href="#DejaVuSans-50"/>
       <use x="63.623047" xlink:href="#DejaVuSans-53"/>
      </g>
     </g>
    </g>
    <g id="xtick_7">
     <g id="line2d_13">
      <path clip-path="url(#p63ba0e3e1f)" d="M 518.4 252 
L 518.4 34.56 
" style="fill:none;stroke:#b0b0b0;stroke-linecap:square;stroke-width:0.8;"/>
     </g>
     <g id="line2d_14">
      <g>
       <use style="stroke:#000000;stroke-width:0.8;" x="518.4" xlink:href="#m5273a8af6d" y="252"/>
      </g>
     </g>
     <g id="text_7">
      <!-- 30 -->
      <defs>
       <path d="M 40.578125 39.3125 
Q 47.65625 37.796875 51.625 33 
Q 55.609375 28.21875 55.609375 21.1875 
Q 55.609375 10.40625 48.1875 4.484375 
Q 40.765625 -1.421875 27.09375 -1.421875 
Q 22.515625 -1.421875 17.65625 -0.515625 
Q 12.796875 0.390625 7.625 2.203125 
L 7.625 11.71875 
Q 11.71875 9.328125 16.59375 8.109375 
Q 21.484375 6.890625 26.8125 6.890625 
Q 36.078125 6.890625 40.9375 10.546875 
Q 45.796875 14.203125 45.796875 21.1875 
Q 45.796875 27.640625 41.28125 31.265625 
Q 36.765625 34.90625 28.71875 34.90625 
L 20.21875 34.90625 
L 20.21875 43.015625 
L 29.109375 43.015625 
Q 36.375 43.015625 40.234375 45.921875 
Q 44.09375 48.828125 44.09375 54.296875 
Q 44.09375 59.90625 40.109375 62.90625 
Q 36.140625 65.921875 28.71875 65.921875 
Q 24.65625 65.921875 20.015625 65.03125 
Q 15.375 64.15625 9.8125 62.3125 
L 9.8125 71.09375 
Q 15.4375 72.65625 20.34375 73.4375 
Q 25.25 74.21875 29.59375 74.21875 
Q 40.828125 74.21875 47.359375 69.109375 
Q 53.90625 64.015625 53.90625 55.328125 
Q 53.90625 49.265625 50.4375 45.09375 
Q 46.96875 40.921875 40.578125 39.3125 
z
" id="DejaVuSans-51"/>
      </defs>
      <g transform="translate(512.0375 266.598437)scale(0.1 -0.1)">
       <use xlink:href="#DejaVuSans-51"/>
       <use x="63.623047" xlink:href="#DejaVuSans-48"/>
      </g>
     </g>
    </g>
    <g id="text_8">
     <!-- Tempo (s) -->
     <defs>
      <path d="M -0.296875 72.90625 
L 61.375 72.90625 
L 61.375 64.59375 
L 35.5 64.59375 
L 35.5 0 
L 25.59375 0 
L 25.59375 64.59375 
L -0.296875 64.59375 
z
" id="DejaVuSans-84"/>
      <path d="M 56.203125 29.59375 
L 56.203125 25.203125 
L 14.890625 25.203125 
Q 15.484375 15.921875 20.484375 11.0625 
Q 25.484375 6.203125 34.421875 6.203125 
Q 39.59375 6.203125 44.453125 7.46875 
Q 49.3125 8.734375 54.109375 11.28125 
L 54.109375 2.78125 
Q 49.265625 0.734375 44.1875 -0.34375 
Q 39.109375 -1.421875 33.890625 -1.421875 
Q 20.796875 -1.421875 13.15625 6.1875 
Q 5.515625 13.8125 5.515625 26.8125 
Q 5.515625 40.234375 12.765625 48.109375 
Q 20.015625 56 32.328125 56 
Q 43.359375 56 49.78125 48.890625 
Q 56.203125 41.796875 56.203125 29.59375 
z
M 47.21875 32.234375 
Q 47.125 39.59375 43.09375 43.984375 
Q 39.0625 48.390625 32.421875 48.390625 
Q 24.90625 48.390625 20.390625 44.140625 
Q 15.875 39.890625 15.1875 32.171875 
z
" id="DejaVuSans-101"/>
      <path d="M 52 44.1875 
Q 55.375 50.25 60.0625 53.125 
Q 64.75 56 71.09375 56 
Q 79.640625 56 84.28125 50.015625 
Q 88.921875 44.046875 88.921875 33.015625 
L 88.921875 0 
L 79.890625 0 
L 79.890625 32.71875 
Q 79.890625 40.578125 77.09375 44.375 
Q 74.3125 48.1875 68.609375 48.1875 
Q 61.625 48.1875 57.5625 43.546875 
Q 53.515625 38.921875 53.515625 30.90625 
L 53.515625 0 
L 44.484375 0 
L 44.484375 32.71875 
Q 44.484375 40.625 41.703125 44.40625 
Q 38.921875 48.1875 33.109375 48.1875 
Q 26.21875 48.1875 22.15625 43.53125 
Q 18.109375 38.875 18.109375 30.90625 
L 18.109375 0 
L 9.078125 0 
L 9.078125 54.6875 
L 18.109375 54.6875 
L 18.109375 46.1875 
Q 21.1875 51.21875 25.484375 53.609375 
Q 29.78125 56 35.6875 56 
Q 41.65625 56 45.828125 52.96875 
Q 50 49.953125 52 44.1875 
z
" id="DejaVuSans-109"/>
      <path d="M 18.109375 8.203125 
L 18.109375 -20.796875 
L 9.078125 -20.796875 
L 9.078125 54.6875 
L 18.109375 54.6875 
L 18.109375 46.390625 
Q 20.953125 51.265625 25.265625 53.625 
Q 29.59375 56 35.59375 56 
Q 45.5625 56 51.78125 48.09375 
Q 58.015625 40.1875 58.015625 27.296875 
Q 58.015625 14.40625 51.78125 6.484375 
Q 45.5625 -1.421875 35.59375 -1.421875 
Q 29.59375 -1.421875 25.265625 0.953125 
Q 20.953125 3.328125 18.109375 8.203125 
z
M 48.6875 27.296875 
Q 48.6875 37.203125 44.609375 42.84375 
Q 40.53125 48.484375 33.40625 48.484375 
Q 26.265625 48.484375 22.1875 42.84375 
Q 18.109375 37.203125 18.109375 27.296875 
Q 18.109375 17.390625 22.1875 11.75 
Q 26.265625 6.109375 33.40625 6.109375 
Q 40.53125 6.109375 44.609375 11.75 
Q 48.6875 17.390625 48.6875 27.296875 
z
" id="DejaVuSans-112"/>
      <path d="M 30.609375 48.390625 
Q 23.390625 48.390625 19.1875 42.75 
Q 14.984375 37.109375 14.984375 27.296875 
Q 14.984375 17.484375 19.15625 11.84375 
Q 23.34375 6.203125 30.609375 6.203125 
Q 37.796875 6.203125 41.984375 11.859375 
Q 46.1875 17.53125 46.1875 27.296875 
Q 46.1875 37.015625 41.984375 42.703125 
Q 37.796875 48.390625 30.609375 48.390625 
z
M 30.609375 56 
Q 42.328125 56 49.015625 48.375 
Q 55.71875 40.765625 55.71875 27.296875 
Q 55.71875 13.875 49.015625 6.21875 
Q 42.328125 -1.421875 30.609375 -1.421875 
Q 18.84375 -1.421875 12.171875 6.21875 
Q 5.515625 13.875 5.515625 27.296875 
Q 5.515625 40.765625 12.171875 48.375 
Q 18.84375 56 30.609375 56 
z
" id="DejaVuSans-111"/>
      <path id="DejaVuSans-32"/>
      <path d="M 31 75.875 
Q 24.46875 64.65625 21.28125 53.65625 
Q 18.109375 42.671875 18.109375 31.390625 
Q 18.109375 20.125 21.3125 9.0625 
Q 24.515625 -2 31 -13.1875 
L 23.1875 -13.1875 
Q 15.875 -1.703125 12.234375 9.375 
Q 8.59375 20.453125 8.59375 31.390625 
Q 8.59375 42.28125 12.203125 53.3125 
Q 15.828125 64.359375 23.1875 75.875 
z
" id="DejaVuSans-40"/>
      <path d="M 44.28125 53.078125 
L 44.28125 44.578125 
Q 40.484375 46.53125 36.375 47.5 
Q 32.28125 48.484375 27.875 48.484375 
Q 21.1875 48.484375 17.84375 46.4375 
Q 14.5 44.390625 14.5 40.28125 
Q 14.5 37.15625 16.890625 35.375 
Q 19.28125 33.59375 26.515625 31.984375 
L 29.59375 31.296875 
Q 39.15625 29.25 43.1875 25.515625 
Q 47.21875 21.78125 47.21875 15.09375 
Q 47.21875 7.46875 41.1875 3.015625 
Q 35.15625 -1.421875 24.609375 -1.421875 
Q 20.21875 -1.421875 15.453125 -0.5625 
Q 10.6875 0.296875 5.421875 2 
L 5.421875 11.28125 
Q 10.40625 8.6875 15.234375 7.390625 
Q 20.0625 6.109375 24.8125 6.109375 
Q 31.15625 6.109375 34.5625 8.28125 
Q 37.984375 10.453125 37.984375 14.40625 
Q 37.984375 18.0625 35.515625 20.015625 
Q 33.0625 21.96875 24.703125 23.78125 
L 21.578125 24.515625 
Q 13.234375 26.265625 9.515625 29.90625 
Q 5.8125 33.546875 5.8125 39.890625 
Q 5.8125 47.609375 11.28125 51.796875 
Q 16.75 56 26.8125 56 
Q 31.78125 56 36.171875 55.265625 
Q 40.578125 54.546875 44.28125 53.078125 
z
" id="DejaVuSans-115"/>
      <path d="M 8.015625 75.875 
L 15.828125 75.875 
Q 23.140625 64.359375 26.78125 53.3125 
Q 30.421875 42.28125 30.421875 31.390625 
Q 30.421875 20.453125 26.78125 9.375 
Q 23.140625 -1.703125 15.828125 -13.1875 
L 8.015625 -13.1875 
Q 14.5 -2 17.703125 9.0625 
Q 20.90625 20.125 20.90625 31.390625 
Q 20.90625 42.671875 17.703125 53.65625 
Q 14.5 64.65625 8.015625 75.875 
z
" id="DejaVuSans-41"/>
     </defs>
     <g transform="translate(270.720312 280.276563)scale(0.1 -0.1)">
      <use xlink:href="#DejaVuSans-84"/>
      <use x="44.083984" xlink:href="#DejaVuSans-101"/>
      <use x="105.607422" xlink:href="#DejaVuSans-109"/>
      <use x="203.019531" xlink:href="#DejaVuSans-112"/>
      <use x="266.496094" xlink:href="#DejaVuSans-111"/>
      <use x="327.677734" xlink:href="#DejaVuSans-32"/>
      <use x="359.464844" xlink:href="#DejaVuSans-40"/>
      <use x="398.478516" xlink:href="#DejaVuSans-115"/>
      <use x="450.578125" xlink:href="#DejaVuSans-41"/>
     </g>
    </g>
   </g>
   <g id="matplotlib.axis_2">
    <g id="ytick_1">
     <g id="line2d_15">
      <path clip-path="url(#p63ba0e3e1f)" d="M 72 244.071723 
L 518.4 244.071723 
" style="fill:none;stroke:#b0b0b0;stroke-linecap:square;stroke-width:0.8;"/>
     </g>
     <g id="line2d_16">
      <defs>
       <path d="M 0 0 
L -3.5 0 
" id="me21f7b3280" style="stroke:#000000;stroke-width:0.8;"/>
      </defs>
      <g>
       <use style="stroke:#000000;stroke-width:0.8;" x="72" xlink:href="#me21f7b3280" y="244.071723"/>
      </g>
     </g>
     <g id="text_9">
      <!-- −3 -->
      <defs>
       <path d="M 10.59375 35.5 
L 73.1875 35.5 
L 73.1875 27.203125 
L 10.59375 27.203125 
z
" id="DejaVuSans-8722"/>
      </defs>
      <g transform="translate(50.257812 247.870942)scale(0.1 -0.1)">
       <use xlink:href="#DejaVuSans-8722"/>
       <use x="83.789062" xlink:href="#DejaVuSans-51"/>
      </g>
     </g>
    </g>
    <g id="ytick_2">
     <g id="line2d_17">
      <path clip-path="url(#p63ba0e3e1f)" d="M 72 210.474482 
L 518.4 210.474482 
" style="fill:none;stroke:#b0b0b0;stroke-linecap:square;stroke-width:0.8;"/>
     </g>
     <g id="line2d_18">
      <g>
       <use style="stroke:#000000;stroke-width:0.8;" x="72" xlink:href="#me21f7b3280" y="210.474482"/>
      </g>
     </g>
     <g id="text_10">
      <!-- −2 -->
      <g transform="translate(50.257812 214.273701)scale(0.1 -0.1)">
       <use xlink:href="#DejaVuSans-8722"/>
       <use x="83.789062" xlink:href="#DejaVuSans-50"/>
      </g>
     </g>
    </g>
    <g id="ytick_3">
     <g id="line2d_19">
      <path clip-path="url(#p63ba0e3e1f)" d="M 72 176.877241 
L 518.4 176.877241 
" style="fill:none;stroke:#b0b0b0;stroke-linecap:square;stroke-width:0.8;"/>
     </g>
     <g id="line2d_20">
      <g>
       <use style="stroke:#000000;stroke-width:0.8;" x="72" xlink:href="#me21f7b3280" y="176.877241"/>
      </g>
     </g>
     <g id="text_11">
      <!-- −1 -->
      <g transform="translate(50.257812 180.67646)scale(0.1 -0.1)">
       <use xlink:href="#DejaVuSans-8722"/>
       <use x="83.789062" xlink:href="#DejaVuSans-49"/>
      </g>
     </g>
    </g>
    <g id="ytick_4">
     <g id="line2d_21">
      <path clip-path="url(#p63ba0e3e1f)" d="M 72 143.28 
L 518.4 143.28 
" style="fill:none;stroke:#b0b0b0;stroke-linecap:square;stroke-width:0.8;"/>
     </g>
     <g id="line2d_22">
      <g>
       <use style="stroke:#000000;stroke-width:0.8;" x="72" xlink:href="#me21f7b3280" y="143.28"/>
      </g>
     </g>
     <g id="text_12">
      <!-- 0 -->
      <g transform="translate(58.6375 147.079219)scale(0.1 -0.1)">
       <use xlink:href="#DejaVuSans-48"/>
      </g>
     </g>
    </g>
    <g id="ytick_5">
     <g id="line2d_23">
      <path clip-path="url(#p63ba0e3e1f)" d="M 72 109.682759 
L 518.4 109.682759 
" style="fill:none;stroke:#b0b0b0;stroke-linecap:square;stroke-width:0.8;"/>
     </g>
     <g id="line2d_24">
      <g>
       <use style="stroke:#000000;stroke-width:0.8;" x="72" xlink:href="#me21f7b3280" y="109.682759"/>
      </g>
     </g>
     <g id="text_13">
      <!-- 1 -->
      <g transform="translate(58.6375 113.481978)scale(0.1 -0.1)">
       <use xlink:href="#DejaVuSans-49"/>
      </g>
     </g>
    </g>
    <g id="ytick_6">
     <g id="line2d_25">
      <path clip-path="url(#p63ba0e3e1f)" d="M 72 76.085518 
L 518.4 76.085518 
" style="fill:none;stroke:#b0b0b0;stroke-linecap:square;stroke-width:0.8;"/>
     </g>
     <g id="line2d_26">
      <g>
       <use style="stroke:#000000;stroke-width:0.8;" x="72" xlink:href="#me21f7b3280" y="76.085518"/>
      </g>
     </g>
     <g id="text_14">
      <!-- 2 -->
      <g transform="translate(58.6375 79.884737)scale(0.1 -0.1)">
       <use xlink:href="#DejaVuSans-50"/>
      </g>
     </g>
    </g>
    <g id="ytick_7">
     <g id="line2d_27">
      <path clip-path="url(#p63ba0e3e1f)" d="M 72 42.488277 
L 518.4 42.488277 
" style="fill:none;stroke:#b0b0b0;stroke-linecap:square;stroke-width:0.8;"/>
     </g>
     <g id="line2d_28">
      <g>
       <use style="stroke:#000000;stroke-width:0.8;" x="72" xlink:href="#me21f7b3280" y="42.488277"/>
      </g>
     </g>
     <g id="text_15">
      <!-- 3 -->
      <g transform="translate(58.6375 46.287496)scale(0.1 -0.1)">
       <use xlink:href="#DejaVuSans-51"/>
      </g>
     </g>
    </g>
    <g id="text_16">
     <!-- Aceleração (m/s²) -->
     <defs>
      <path d="M 34.1875 63.1875 
L 20.796875 26.90625 
L 47.609375 26.90625 
z
M 28.609375 72.90625 
L 39.796875 72.90625 
L 67.578125 0 
L 57.328125 0 
L 50.6875 18.703125 
L 17.828125 18.703125 
L 11.1875 0 
L 0.78125 0 
z
" id="DejaVuSans-65"/>
      <path d="M 48.78125 52.59375 
L 48.78125 44.1875 
Q 44.96875 46.296875 41.140625 47.34375 
Q 37.3125 48.390625 33.40625 48.390625 
Q 24.65625 48.390625 19.8125 42.84375 
Q 14.984375 37.3125 14.984375 27.296875 
Q 14.984375 17.28125 19.8125 11.734375 
Q 24.65625 6.203125 33.40625 6.203125 
Q 37.3125 6.203125 41.140625 7.25 
Q 44.96875 8.296875 48.78125 10.40625 
L 48.78125 2.09375 
Q 45.015625 0.34375 40.984375 -0.53125 
Q 36.96875 -1.421875 32.421875 -1.421875 
Q 20.0625 -1.421875 12.78125 6.34375 
Q 5.515625 14.109375 5.515625 27.296875 
Q 5.515625 40.671875 12.859375 48.328125 
Q 20.21875 56 33.015625 56 
Q 37.15625 56 41.109375 55.140625 
Q 45.0625 54.296875 48.78125 52.59375 
z
" id="DejaVuSans-99"/>
      <path d="M 9.421875 75.984375 
L 18.40625 75.984375 
L 18.40625 0 
L 9.421875 0 
z
" id="DejaVuSans-108"/>
      <path d="M 41.109375 46.296875 
Q 39.59375 47.171875 37.8125 47.578125 
Q 36.03125 48 33.890625 48 
Q 26.265625 48 22.1875 43.046875 
Q 18.109375 38.09375 18.109375 28.8125 
L 18.109375 0 
L 9.078125 0 
L 9.078125 54.6875 
L 18.109375 54.6875 
L 18.109375 46.1875 
Q 20.953125 51.171875 25.484375 53.578125 
Q 30.03125 56 36.53125 56 
Q 37.453125 56 38.578125 55.875 
Q 39.703125 55.765625 41.0625 55.515625 
z
" id="DejaVuSans-114"/>
      <path d="M 34.28125 27.484375 
Q 23.390625 27.484375 19.1875 25 
Q 14.984375 22.515625 14.984375 16.5 
Q 14.984375 11.71875 18.140625 8.90625 
Q 21.296875 6.109375 26.703125 6.109375 
Q 34.1875 6.109375 38.703125 11.40625 
Q 43.21875 16.703125 43.21875 25.484375 
L 43.21875 27.484375 
z
M 52.203125 31.203125 
L 52.203125 0 
L 43.21875 0 
L 43.21875 8.296875 
Q 40.140625 3.328125 35.546875 0.953125 
Q 30.953125 -1.421875 24.3125 -1.421875 
Q 15.921875 -1.421875 10.953125 3.296875 
Q 6 8.015625 6 15.921875 
Q 6 25.140625 12.171875 29.828125 
Q 18.359375 34.515625 30.609375 34.515625 
L 43.21875 34.515625 
L 43.21875 35.40625 
Q 43.21875 41.609375 39.140625 45 
Q 35.0625 48.390625 27.6875 48.390625 
Q 23 48.390625 18.546875 47.265625 
Q 14.109375 46.140625 10.015625 43.890625 
L 10.015625 52.203125 
Q 14.9375 54.109375 19.578125 55.046875 
Q 24.21875 56 28.609375 56 
Q 40.484375 56 46.34375 49.84375 
Q 52.203125 43.703125 52.203125 31.203125 
z
" id="DejaVuSans-97"/>
      <path d="M 48.78125 52.59375 
L 48.78125 44.1875 
Q 44.96875 46.296875 41.140625 47.34375 
Q 37.3125 48.390625 33.40625 48.390625 
Q 24.65625 48.390625 19.8125 42.84375 
Q 14.984375 37.3125 14.984375 27.296875 
Q 14.984375 17.28125 19.8125 11.734375 
Q 24.65625 6.203125 33.40625 6.203125 
Q 37.3125 6.203125 41.140625 7.25 
Q 44.96875 8.296875 48.78125 10.40625 
L 48.78125 2.09375 
Q 45.015625 0.34375 40.984375 -0.53125 
Q 36.96875 -1.421875 32.421875 -1.421875 
Q 20.0625 -1.421875 12.78125 6.34375 
Q 5.515625 14.109375 5.515625 27.296875 
Q 5.515625 40.671875 12.859375 48.328125 
Q 20.21875 56 33.015625 56 
Q 37.15625 56 41.109375 55.140625 
Q 45.0625 54.296875 48.78125 52.59375 
z
M 36.078125 0 
Q 38.765625 -3.03125 40.078125 -5.59375 
Q 41.40625 -8.15625 41.40625 -10.5 
Q 41.40625 -14.84375 38.46875 -17.0625 
Q 35.546875 -19.28125 29.78125 -19.28125 
Q 27.546875 -19.28125 25.421875 -18.984375 
Q 23.296875 -18.703125 21.1875 -18.109375 
L 21.1875 -11.71875 
Q 22.859375 -12.546875 24.65625 -12.90625 
Q 26.46875 -13.28125 28.765625 -13.28125 
Q 31.640625 -13.28125 33.109375 -12.109375 
Q 34.578125 -10.9375 34.578125 -8.6875 
Q 34.578125 -7.234375 33.515625 -5.109375 
Q 32.46875 -2.984375 30.28125 0 
z
" id="DejaVuSans-231"/>
      <path d="M 34.28125 27.484375 
Q 23.390625 27.484375 19.1875 25 
Q 14.984375 22.515625 14.984375 16.5 
Q 14.984375 11.71875 18.140625 8.90625 
Q 21.296875 6.109375 26.703125 6.109375 
Q 34.1875 6.109375 38.703125 11.40625 
Q 43.21875 16.703125 43.21875 25.484375 
L 43.21875 27.484375 
z
M 52.203125 31.203125 
L 52.203125 0 
L 43.21875 0 
L 43.21875 8.296875 
Q 40.140625 3.328125 35.546875 0.953125 
Q 30.953125 -1.421875 24.3125 -1.421875 
Q 15.921875 -1.421875 10.953125 3.296875 
Q 6 8.015625 6 15.921875 
Q 6 25.140625 12.171875 29.828125 
Q 18.359375 34.515625 30.609375 34.515625 
L 43.21875 34.515625 
L 43.21875 35.40625 
Q 43.21875 41.609375 39.140625 45 
Q 35.0625 48.390625 27.6875 48.390625 
Q 23 48.390625 18.546875 47.265625 
Q 14.109375 46.140625 10.015625 43.890625 
L 10.015625 52.203125 
Q 14.9375 54.109375 19.578125 55.046875 
Q 24.21875 56 28.609375 56 
Q 40.484375 56 46.34375 49.84375 
Q 52.203125 43.703125 52.203125 31.203125 
z
M 28.8125 66.890625 
L 26.03125 69.578125 
Q 24.953125 70.5625 24.140625 71.015625 
Q 23.34375 71.484375 22.703125 71.484375 
Q 20.84375 71.484375 19.96875 69.703125 
Q 19.09375 67.921875 19 63.921875 
L 12.890625 63.921875 
Q 12.984375 70.515625 15.46875 74.09375 
Q 17.96875 77.6875 22.40625 77.6875 
Q 24.265625 77.6875 25.828125 77 
Q 27.390625 76.3125 29.203125 74.703125 
L 31.984375 72.015625 
Q 33.0625 71.046875 33.859375 70.578125 
Q 34.671875 70.125 35.296875 70.125 
Q 37.15625 70.125 38.03125 71.90625 
Q 38.921875 73.6875 39.015625 77.6875 
L 45.125 77.6875 
Q 45.015625 71.09375 42.53125 67.5 
Q 40.046875 63.921875 35.59375 63.921875 
Q 33.734375 63.921875 32.171875 64.59375 
Q 30.609375 65.28125 28.8125 66.890625 
z
" id="DejaVuSans-227"/>
      <path d="M 25.390625 72.90625 
L 33.6875 72.90625 
L 8.296875 -9.28125 
L 0 -9.28125 
z
" id="DejaVuSans-47"/>
      <path d="M 13.09375 38.1875 
L 33.796875 38.1875 
L 33.796875 32.625 
L 4.59375 32.625 
L 4.59375 37.984375 
Q 6.25 39.5 9.328125 42.234375 
Q 26.125 57.125 26.125 61.71875 
Q 26.125 64.9375 23.578125 66.90625 
Q 21.046875 68.890625 16.890625 68.890625 
Q 14.359375 68.890625 11.375 68.03125 
Q 8.40625 67.1875 4.890625 65.484375 
L 4.890625 71.484375 
Q 8.640625 72.859375 11.890625 73.53125 
Q 15.140625 74.21875 17.921875 74.21875 
Q 25 74.21875 29.25 71 
Q 33.5 67.78125 33.5 62.5 
Q 33.5 55.71875 17.328125 41.84375 
Q 14.59375 39.5 13.09375 38.1875 
z
" id="DejaVuSans-178"/>
     </defs>
     <g transform="translate(44.178125 187.551094)rotate(-90)scale(0.1 -0.1)">
      <use xlink:href="#DejaVuSans-65"/>
      <use x="66.658203" xlink:href="#DejaVuSans-99"/>
      <use x="121.638672" xlink:href="#DejaVuSans-101"/>
      <use x="183.162109" xlink:href="#DejaVuSans-108"/>
      <use x="210.945312" xlink:href="#DejaVuSans-101"/>
      <use x="272.46875" xlink:href="#DejaVuSans-114"/>
      <use x="313.582031" xlink:href="#DejaVuSans-97"/>
      <use x="374.861328" xlink:href="#DejaVuSans-231"/>
      <use x="429.841797" xlink:href="#DejaVuSans-227"/>
      <use x="491.121094" xlink:href="#DejaVuSans-111"/>
      <use x="552.302734" xlink:href="#DejaVuSans-32"/>
      <use x="584.089844" xlink:href="#DejaVuSans-40"/>
      <use x="623.103516" xlink:href="#DejaVuSans-109"/>
      <use x="720.515625" xlink:href="#DejaVuSans-47"/>
      <use x="754.207031" xlink:href="#DejaVuSans-115"/>
      <use x="806.306641" xlink:href="#DejaVuSans-178"/>
      <use x="846.394531" xlink:href="#DejaVuSans-41"/>
     </g>
    </g>
   </g>
   <g id="line2d_29">
    <path clip-path="url(#p63ba0e3e1f)" d="M 72 143.28 
L 72.29766 143.153663 
L 72.446489 143.075682 
L 72.595319 143.163743 
L 73.339468 144.455542 
L 73.488298 144.858053 
L 73.637127 144.907161 
L 73.934787 144.546993 
L 74.381276 144.48509 
L 74.530106 144.659615 
L 74.827766 145.466242 
L 74.976595 145.52946 
L 75.125425 145.184361 
L 75.423085 143.75341 
L 75.720744 141.517251 
L 76.018404 138.767441 
L 76.167233 138.614412 
L 76.316063 139.958969 
L 76.613723 146.405942 
L 76.911382 152.538978 
L 77.060212 151.871202 
L 77.506701 144.322672 
L 77.655531 142.598278 
L 77.953191 136.121795 
L 78.10202 135.447933 
L 78.39968 137.452526 
L 78.697339 134.354648 
L 78.846169 134.946631 
L 79.292659 140.751433 
L 79.739148 153.361158 
L 80.036807 153.916187 
L 80.632126 160.243706 
L 80.780956 158.623634 
L 82.269254 121.160968 
L 82.418084 122.085073 
L 82.715743 130.900071 
L 83.162232 148.492048 
L 83.311062 150.266558 
L 83.608722 146.679773 
L 83.757552 145.31364 
L 83.906381 145.481483 
L 84.352871 150.446752 
L 84.5017 148.763107 
L 84.79936 143.53107 
L 84.94819 144.420516 
L 85.394679 151.283459 
L 85.543509 150.164341 
L 85.989998 141.896222 
L 86.138828 141.14292 
L 86.287658 138.404382 
L 86.882977 117.407568 
L 87.180636 101.403345 
L 87.329466 101.744739 
L 87.627125 126.550961 
L 88.073615 170.794259 
L 88.222444 177.548394 
L 88.371274 178.850308 
L 88.520104 175.724405 
L 88.817764 160.953594 
L 89.264253 136.177838 
L 89.561912 127.812639 
L 89.710742 126.343843 
L 89.859572 126.131379 
L 90.008402 126.320433 
L 90.157231 126.776633 
L 90.306061 128.800514 
L 90.603721 141.829757 
L 90.90138 152.083883 
L 91.05021 151.627486 
L 91.34787 148.375391 
L 91.794359 135.081641 
L 92.092018 140.850507 
L 92.240848 140.690547 
L 92.538508 136.197541 
L 92.687337 136.454835 
L 92.836167 134.243067 
L 93.133827 127.16038 
L 93.431486 132.701602 
L 93.580316 132.903629 
L 93.729146 134.791922 
L 94.324465 163.657934 
L 94.473295 167.046944 
L 94.919784 188.943934 
L 95.217443 171.754288 
L 95.663933 134.431206 
L 96.110422 90.724661 
L 96.259252 82.541575 
L 96.408082 81.599477 
L 96.705741 102.800589 
L 97.59872 177.289379 
L 97.74755 177.561105 
L 98.045209 189.872232 
L 98.194039 188.861531 
L 98.640528 162.6242 
L 98.789358 161.185669 
L 98.938188 152.66046 
L 99.235847 125.3543 
L 99.384677 122.342063 
L 99.831166 136.61502 
L 100.277656 124.026801 
L 101.021804 162.493105 
L 101.319464 155.1353 
L 101.468294 158.464713 
L 101.765953 181.482956 
L 102.063613 187.196966 
L 102.361272 200.08925 
L 102.510102 188.638925 
L 102.807762 153.1448 
L 103.254251 121.715891 
L 103.403081 124.923242 
L 103.70074 142.820165 
L 104.147229 110.530592 
L 104.593719 134.34185 
L 104.891378 153.395798 
L 105.040208 148.242764 
L 105.337868 134.2758 
L 105.784357 152.358701 
L 105.933187 153.239497 
L 106.082016 155.631643 
L 106.379676 171.241436 
L 106.528506 181.219804 
L 106.677335 183.500065 
L 106.826165 173.001401 
L 107.272655 127.344403 
L 108.016803 85.368438 
L 108.165633 92.326265 
L 108.760952 161.744053 
L 109.058612 173.87086 
L 109.207441 176.545801 
L 109.356271 174.66839 
L 109.653931 157.164838 
L 109.95159 135.590331 
L 110.10042 135.061691 
L 110.844569 168.34605 
L 110.993399 166.319797 
L 111.291058 160.347829 
L 111.588718 171.57234 
L 111.737548 171.172117 
L 112.184037 139.17298 
L 112.332867 145.835802 
L 112.630526 164.447476 
L 112.779356 160.552354 
L 113.225845 124.423238 
L 113.672334 87.181034 
L 113.821164 82.674066 
L 113.969994 88.754671 
L 114.416483 125.209664 
L 114.565313 123.30191 
L 114.714143 125.015445 
L 115.011802 137.004233 
L 115.458292 123.44357 
L 115.904781 140.367639 
L 116.053611 135.592647 
L 116.35127 114.298265 
L 116.5001 114.531162 
L 116.79776 131.639057 
L 116.946589 125.990729 
L 117.095419 115.332183 
L 117.244249 113.407103 
L 117.541908 135.919074 
L 117.988398 171.137421 
L 118.137227 165.388655 
L 118.434887 144.728009 
L 118.732547 156.765546 
L 118.881376 155.102771 
L 119.030206 149.585624 
L 119.179036 148.455726 
L 119.327866 148.867074 
L 119.476695 141.291922 
L 119.923185 96.503847 
L 120.072014 93.034454 
L 120.220844 94.313302 
L 120.369674 101.094732 
L 120.667333 123.188972 
L 120.816163 121.776022 
L 121.262653 82.338257 
L 121.411482 90.139603 
L 122.453291 222.462297 
L 122.75095 252 
L 122.89978 243.970921 
L 123.346269 180.370996 
L 123.792759 113.055673 
L 123.941588 113.543256 
L 124.090418 112.907551 
L 124.388078 92.541992 
L 124.536907 93.162774 
L 124.834567 119.032678 
L 125.429886 183.930069 
L 125.727546 176.750865 
L 126.025205 186.316794 
L 126.174035 185.614255 
L 126.620524 159.864645 
L 127.067013 128.935826 
L 127.215843 133.03014 
L 127.513503 148.125829 
L 127.662332 148.20425 
L 127.811162 150.417538 
L 128.257652 182.681309 
L 128.406481 178.442498 
L 129.0018 124.07025 
L 129.29946 129.953432 
L 129.44829 128.495383 
L 129.597119 128.24625 
L 130.341268 157.464213 
L 130.638928 186.987353 
L 130.787758 189.606695 
L 131.085417 179.49837 
L 132.127225 124.88807 
L 132.276055 133.236661 
L 133.169034 222.02646 
L 133.466693 187.585236 
L 133.764353 156.228682 
L 134.062012 131.423963 
L 134.359672 108.987292 
L 134.806161 127.024927 
L 135.103821 111.56034 
L 135.252651 123.709304 
L 135.69914 177.127172 
L 135.84797 177.660991 
L 136.145629 164.95052 
L 136.294459 158.906845 
L 136.443289 159.242067 
L 136.740948 170.540097 
L 136.889778 171.802869 
L 137.038608 168.227385 
L 137.485097 147.505689 
L 137.633927 149.496505 
L 138.229246 167.728695 
L 138.378076 167.848654 
L 138.824565 139.686034 
L 138.973395 139.984489 
L 139.122224 135.926521 
L 139.271054 127.088288 
L 139.419884 127.190364 
L 140.015203 180.421164 
L 140.312863 202.415069 
L 140.461692 199.064809 
L 140.759352 179.39356 
L 141.057011 193.226831 
L 141.205841 188.343254 
L 141.80116 150.740059 
L 142.09882 122.518221 
L 142.24765 124.57048 
L 142.545309 140.059553 
L 142.842969 183.121519 
L 143.140628 217.710573 
L 143.289458 213.993882 
L 144.182436 126.527655 
L 144.480096 96.487344 
L 144.628926 95.866009 
L 144.777756 96.4662 
L 144.926585 94.214036 
L 145.075415 93.920073 
L 145.224245 100.951449 
L 145.670734 153.711375 
L 145.819564 168.439813 
L 145.968394 169.722736 
L 146.712543 103.369094 
L 146.861372 103.632951 
L 147.605521 153.541539 
L 147.903181 184.938247 
L 148.05201 183.997336 
L 148.34967 144.483609 
L 148.647329 101.543364 
L 148.796159 93.067071 
L 148.944989 91.435825 
L 149.093819 92.630751 
L 149.242649 96.363952 
L 149.837968 129.716855 
L 150.135627 125.941379 
L 150.284457 130.020194 
L 150.730946 158.565697 
L 150.879776 156.891837 
L 151.177435 144.071542 
L 151.623925 116.862363 
L 152.219244 135.702056 
L 152.516903 148.670194 
L 152.665733 146.211055 
L 152.814563 147.886042 
L 153.112222 174.951979 
L 153.261052 174.753852 
L 154.005201 102.862963 
L 154.154031 103.935157 
L 154.45169 117.583572 
L 154.60052 121.240883 
L 155.047009 148.488935 
L 155.195839 146.591645 
L 155.344669 148.802778 
L 155.791158 185.074501 
L 155.939988 181.172966 
L 156.535307 144.433909 
L 156.832967 150.40493 
L 156.981796 146.653771 
L 157.725945 106.433576 
L 157.874775 108.739308 
L 158.023605 115.296582 
L 158.470094 159.634993 
L 158.618924 158.666528 
L 158.767754 155.892636 
L 158.916583 168.980146 
L 159.214243 203.3726 
L 159.660732 163.19031 
L 159.809562 164.693786 
L 159.958392 162.972259 
L 160.107221 159.580944 
L 160.256051 161.254164 
L 160.404881 164.418034 
L 160.553711 162.488011 
L 160.85137 152.852905 
L 161.0002 140.331694 
L 161.29786 98.253504 
L 161.446689 96.979687 
L 161.744349 111.296577 
L 161.893179 114.705419 
L 162.339668 149.215912 
L 162.637327 135.880118 
L 162.786157 139.580668 
L 162.934987 138.927087 
L 163.083817 131.102803 
L 163.232647 130.55825 
L 163.530306 150.00602 
L 164.423285 102.679545 
L 164.572114 109.246888 
L 164.869774 139.532358 
L 165.167433 149.97568 
L 165.613923 173.472008 
L 166.060412 191.559007 
L 166.209242 190.051422 
L 166.358072 187.300158 
L 166.506901 182.302937 
L 166.953391 145.07673 
L 167.25105 147.832741 
L 167.54871 117.062861 
L 167.846369 98.51074 
L 168.144029 101.9335 
L 168.292859 106.41652 
L 168.888178 147.143632 
L 169.037007 148.219382 
L 169.185837 151.107963 
L 169.781156 176.946078 
L 170.078816 203.845093 
L 170.227646 195.345143 
L 170.674135 121.555254 
L 170.971794 102.798494 
L 171.120624 99.941557 
L 172.013603 148.913273 
L 172.311262 167.794393 
L 172.460092 171.738269 
L 172.757752 189.356049 
L 172.906581 186.304466 
L 173.353071 143.743868 
L 173.79956 162.75802 
L 173.94839 162.908919 
L 174.246049 168.373667 
L 174.692539 156.375833 
L 174.841368 161.827593 
L 174.990198 159.587092 
L 175.585517 95.010268 
L 175.734347 92.409052 
L 175.883177 96.738089 
L 176.180836 126.927527 
L 176.329666 128.917112 
L 176.627325 107.300574 
L 176.776155 114.920546 
L 177.222645 169.319532 
L 177.371474 171.795261 
L 177.669134 166.647571 
L 178.115623 179.917246 
L 178.710942 149.522324 
L 179.008602 123.756522 
L 179.157431 128.124103 
L 179.455091 143.509323 
L 180.05041 107.829509 
L 180.645729 73.391677 
L 180.943389 95.889199 
L 181.241048 131.203848 
L 181.836367 231.577244 
L 181.985197 230.711838 
L 182.431686 204.855895 
L 182.729346 175.702912 
L 183.473495 88.371632 
L 183.622324 91.15558 
L 184.217644 123.162529 
L 184.366473 125.294348 
L 184.515303 130.200273 
L 184.961792 158.490445 
L 185.110622 158.705337 
L 185.854771 129.274088 
L 186.15243 120.639616 
L 186.30126 123.422984 
L 186.59892 144.642538 
L 186.74775 146.751344 
L 187.194239 133.70795 
L 187.343069 132.594459 
L 187.640728 128.428511 
L 187.789558 129.516916 
L 187.938388 137.968951 
L 188.384877 183.618001 
L 188.682537 190.731824 
L 188.831366 190.038177 
L 188.980196 182.537932 
L 189.873175 102.595879 
L 190.022004 107.117353 
L 190.617323 157.070235 
L 190.914983 170.92283 
L 191.063813 171.464454 
L 191.212643 173.016501 
L 191.659132 190.116563 
L 191.807962 188.9773 
L 191.956791 182.206569 
L 192.254451 142.7096 
L 192.55211 105.773647 
L 193.147429 62.529624 
L 193.593919 103.507795 
L 193.742749 110.141189 
L 194.040408 150.067417 
L 194.338068 185.524629 
L 194.486897 193.277892 
L 194.635727 195.111316 
L 194.784557 187.748311 
L 195.082216 148.836893 
L 195.528706 78.806949 
L 195.677536 76.808785 
L 196.421684 152.356536 
L 196.719344 183.181656 
L 197.165833 209.838409 
L 197.314663 212.404349 
L 197.612322 206.205832 
L 197.761152 200.665812 
L 197.909982 185.55846 
L 198.505301 85.641028 
L 198.654131 94.214583 
L 199.24945 145.057435 
L 199.547109 161.367776 
L 199.695939 163.640461 
L 199.844769 167.73699 
L 200.142428 199.03393 
L 200.440088 233.119943 
L 200.588918 230.530202 
L 200.886577 211.461674 
L 201.035407 214.152671 
L 201.184237 211.931065 
L 201.779556 137.928686 
L 201.928386 132.886104 
L 202.226045 112.029751 
L 202.523705 122.222968 
L 202.672535 120.027217 
L 202.821364 121.310035 
L 203.267854 162.155146 
L 203.416683 162.887321 
L 203.714343 189.922496 
L 203.863173 200.330316 
L 204.012002 201.835215 
L 204.160832 202.112661 
L 204.309662 198.236132 
L 204.756151 138.042922 
L 204.904981 138.579831 
L 205.053811 142.636515 
L 205.202641 141.868655 
L 205.35147 143.414031 
L 205.79796 171.894832 
L 205.946789 173.700568 
L 206.095619 173.594319 
L 206.393279 170.572913 
L 206.542108 172.040781 
L 206.690938 171.226988 
L 207.137427 143.642611 
L 207.286257 144.660353 
L 207.435087 140.441216 
L 207.732747 126.651454 
L 207.881576 129.645888 
L 208.030406 126.482348 
L 208.328066 103.68025 
L 208.476895 107.246923 
L 208.774555 118.452631 
L 208.923385 120.416641 
L 209.072214 125.163073 
L 209.221044 126.343198 
L 209.369874 121.241838 
L 209.518704 120.617335 
L 209.965193 148.824426 
L 210.262853 143.529831 
L 210.411682 142.896224 
L 210.858172 126.398393 
L 211.304661 100.548261 
L 211.75115 128.722178 
L 211.89998 137.874279 
L 212.19764 168.958362 
L 212.346469 165.124082 
L 212.644129 141.935218 
L 213.239448 172.121561 
L 213.388278 172.949859 
L 213.537107 168.542001 
L 213.983597 141.828723 
L 214.430086 103.440926 
L 214.876575 94.53409 
L 215.769554 153.092133 
L 215.918384 170.631304 
L 216.067213 173.119479 
L 216.364873 161.277425 
L 216.513703 161.976408 
L 216.662533 164.830566 
L 216.960192 179.730436 
L 217.109022 186.602413 
L 217.257852 182.070096 
L 217.853171 127.319742 
L 218.29966 102.436162 
L 218.44849 104.358192 
L 218.746149 123.206249 
L 218.894979 122.261554 
L 219.043809 117.254102 
L 219.192639 118.273234 
L 219.936787 162.118294 
L 220.085617 161.912514 
L 220.234447 161.345434 
L 220.383277 159.135088 
L 220.680936 136.418289 
L 220.978596 116.029167 
L 221.276255 107.700799 
L 221.425085 112.765021 
L 222.466893 207.065893 
L 222.615723 206.532516 
L 222.913383 224.789808 
L 223.062212 223.141114 
L 223.955191 129.716465 
L 224.40168 92.486658 
L 224.55051 90.083321 
L 224.996999 101.271302 
L 225.294659 130.577618 
L 225.592318 150.394655 
L 226.038808 174.753032 
L 226.187638 170.047745 
L 226.782957 127.472401 
L 226.931786 128.398828 
L 227.378276 174.938639 
L 227.824765 189.801367 
L 228.122424 162.685618 
L 228.420084 146.535968 
L 228.866573 129.707957 
L 229.164233 133.236355 
L 229.461892 127.514716 
L 229.610722 128.989928 
L 229.759552 136.237774 
L 230.206041 174.248618 
L 230.503701 176.897086 
L 230.95019 198.394568 
L 231.24785 177.913789 
L 231.396679 179.704642 
L 231.545509 184.673219 
L 231.694339 178.597544 
L 231.991998 148.293721 
L 232.140828 147.382719 
L 232.438488 155.404384 
L 232.736147 152.895151 
L 232.884977 152.385668 
L 233.033807 145.701 
L 233.331466 121.534081 
L 233.480296 120.05177 
L 233.777956 131.283974 
L 234.224445 159.945744 
L 234.373275 158.968014 
L 234.670934 145.816709 
L 234.819764 144.02607 
L 235.117423 134.949928 
L 235.266253 136.555528 
L 235.563913 154.483894 
L 235.712743 154.422208 
L 235.861572 151.531291 
L 236.010402 152.688358 
L 236.159232 155.405045 
L 236.308062 154.092576 
L 236.456891 150.488866 
L 236.605721 150.584113 
L 236.903381 157.014328 
L 237.05221 150.508275 
L 237.4987 104.499831 
L 237.64753 111.927639 
L 237.945189 137.081388 
L 238.242849 131.252919 
L 238.838168 151.594232 
L 239.135827 166.719809 
L 239.582316 142.192741 
L 239.879976 157.849833 
L 240.028806 155.0277 
L 240.177636 155.083082 
L 240.475295 174.898473 
L 240.624125 175.524835 
L 240.772955 172.309994 
L 240.921784 175.214368 
L 241.070614 181.154049 
L 241.219444 178.255241 
L 241.517103 150.480297 
L 241.665933 147.64432 
L 241.814763 152.417769 
L 241.963593 152.876371 
L 242.410082 122.884395 
L 242.707742 123.022728 
L 243.005401 115.347201 
L 243.154231 119.736359 
L 243.89838 175.523987 
L 244.344869 139.836015 
L 244.493699 139.233802 
L 244.791358 133.309919 
L 244.940188 137.686809 
L 245.237848 164.322514 
L 245.386677 165.492108 
L 245.535507 162.022743 
L 245.684337 163.25292 
L 245.833167 165.975519 
L 245.981996 162.099343 
L 246.130826 154.635212 
L 246.279656 152.968962 
L 246.428486 154.884339 
L 246.577315 146.616529 
L 247.023805 80.33403 
L 247.172635 79.778063 
L 247.470294 100.380761 
L 248.065613 156.089619 
L 248.214443 160.1233 
L 248.363273 160.862867 
L 248.809762 151.816848 
L 249.107421 163.567818 
L 249.256251 163.481885 
L 249.553911 132.527458 
L 249.85157 112.242087 
L 250.29806 128.434885 
L 250.893379 117.251159 
L 251.042208 117.888035 
L 251.339868 136.08438 
L 251.935187 165.102753 
L 252.381676 183.123992 
L 252.530506 188.705422 
L 252.679336 189.658356 
L 253.125825 175.183126 
L 253.274655 177.45632 
L 253.423485 177.488505 
L 253.721144 173.267179 
L 253.869974 172.766647 
L 254.018804 168.866223 
L 255.060612 113.400358 
L 255.209442 115.740539 
L 255.507101 139.54631 
L 255.804761 159.684684 
L 256.10242 169.019543 
L 256.40008 180.278639 
L 256.69774 160.993457 
L 257.144229 130.056183 
L 257.590718 81.644836 
L 257.739548 83.610391 
L 258.037207 109.676924 
L 258.334867 143.375615 
L 258.930186 178.327068 
L 259.079016 175.646043 
L 259.376675 146.985669 
L 259.674335 140.098487 
L 260.120824 104.373852 
L 260.567313 115.281009 
L 260.716143 117.675171 
L 262.055611 190.820913 
L 262.204441 193.897505 
L 262.353271 186.440545 
L 263.097419 97.142708 
L 263.246249 93.031559 
L 263.692739 106.959894 
L 263.841568 113.498866 
L 264.585717 170.212332 
L 264.734547 165.793702 
L 265.032206 153.368085 
L 265.181036 152.15158 
L 265.329866 147.777333 
L 265.776355 121.561931 
L 265.925185 120.372257 
L 266.074015 120.63461 
L 266.222845 123.710728 
L 266.818164 156.697635 
L 267.115823 174.512504 
L 267.264653 167.93374 
L 267.562312 151.601384 
L 268.008802 169.849659 
L 268.157632 170.005186 
L 268.306461 171.662844 
L 268.455291 169.742056 
L 269.05061 128.963293 
L 269.19944 129.374295 
L 269.645929 122.912861 
L 269.794759 123.367233 
L 270.390078 115.263386 
L 270.538908 113.633378 
L 270.687738 113.60828 
L 270.836567 122.015673 
L 271.431886 182.335227 
L 271.580716 185.341319 
L 271.729546 184.502979 
L 272.027205 170.557661 
L 272.473695 135.197604 
L 272.771354 116.267007 
L 272.920184 116.732798 
L 273.217844 121.703044 
L 273.366673 119.264725 
L 273.664333 111.155313 
L 273.813163 112.34382 
L 274.557311 137.580481 
L 274.854971 130.790192 
L 275.003801 133.304484 
L 275.30146 144.859792 
L 275.45029 146.040369 
L 275.59912 148.451882 
L 275.896779 155.265364 
L 276.640928 125.283899 
L 276.938588 106.026558 
L 277.236247 124.362264 
L 277.533907 139.861 
L 277.831566 145.75122 
L 277.980396 145.144726 
L 278.129226 147.912461 
L 278.426885 161.498294 
L 278.575715 161.90984 
L 279.022204 153.985964 
L 279.915183 113.537718 
L 280.064013 114.349564 
L 280.361672 129.298808 
L 280.659332 141.673316 
L 280.808162 138.823203 
L 281.105821 122.636337 
L 281.254651 120.113168 
L 281.55231 124.365586 
L 281.70114 126.943656 
L 281.9988 139.624222 
L 282.445289 166.641116 
L 282.594119 164.149142 
L 283.040608 144.401589 
L 283.338268 140.583046 
L 283.487097 141.404128 
L 283.635927 144.195436 
L 283.784757 144.275856 
L 284.231246 131.530895 
L 284.380076 132.040034 
L 284.677736 128.468839 
L 284.826565 129.848836 
L 285.124225 140.439488 
L 285.273055 141.416355 
L 286.017203 131.258604 
L 286.166033 131.626333 
L 286.463693 135.770295 
L 286.612523 132.23847 
L 286.910182 121.357796 
L 287.059012 124.316319 
L 287.207842 129.606356 
L 287.356671 130.705319 
L 287.505501 129.193834 
L 287.654331 132.781941 
L 287.95199 153.019623 
L 288.10082 155.927526 
L 288.39848 151.783853 
L 288.844969 135.715782 
L 288.993799 142.28139 
L 289.291458 158.23824 
L 290.333267 112.52079 
L 290.482096 112.646315 
L 290.779756 119.53296 
L 291.077415 135.444291 
L 291.672735 188.034904 
L 291.821564 191.132106 
L 291.970394 189.544521 
L 292.119224 183.962296 
L 292.416883 159.07646 
L 292.863373 114.092665 
L 293.012202 107.331254 
L 293.161032 108.159215 
L 293.756351 144.903628 
L 293.905181 144.853567 
L 294.202841 137.355841 
L 294.5005 125.542928 
L 294.64933 125.291968 
L 295.095819 138.333451 
L 295.244649 138.382827 
L 295.542308 144.253081 
L 295.691138 143.822658 
L 295.988798 135.622107 
L 296.137628 136.54773 
L 296.286457 138.214856 
L 296.435287 137.757068 
L 296.584117 139.133201 
L 297.030606 161.895117 
L 297.625925 156.91518 
L 297.923585 143.871115 
L 298.072414 142.539957 
L 298.221244 144.324723 
L 298.370074 142.756691 
L 298.965393 118.724475 
L 299.263053 115.627033 
L 299.411882 116.770787 
L 299.560712 123.710066 
L 300.156031 164.338324 
L 300.75135 172.254089 
L 300.90018 172.417516 
L 301.04901 168.8456 
L 301.346669 144.836719 
L 301.644329 123.237551 
L 301.793159 123.765632 
L 302.090818 128.586602 
L 302.239648 127.542682 
L 302.388478 127.473642 
L 302.686137 133.194467 
L 302.983797 140.976451 
L 303.727946 170.875813 
L 304.025605 174.854496 
L 304.323265 176.244355 
L 304.472094 175.907632 
L 304.620924 171.68326 
L 305.513903 126.359519 
L 305.662733 128.612211 
L 305.811562 133.256674 
L 305.960392 134.083787 
L 306.406881 123.035652 
L 306.704541 125.761236 
L 306.853371 124.899931 
L 307.0022 125.421166 
L 307.29986 137.783366 
L 307.59752 149.829777 
L 308.044009 160.11266 
L 308.192839 161.735484 
L 308.341668 160.421623 
L 308.639328 146.012611 
L 308.936987 131.263129 
L 309.085817 129.484913 
L 309.234647 130.614461 
L 309.681136 138.335333 
L 309.829966 136.577633 
L 309.978796 138.119813 
L 310.425285 164.971195 
L 310.722945 154.43657 
L 310.871774 154.28171 
L 311.020604 154.599665 
L 311.318264 145.743361 
L 311.467093 147.393149 
L 311.615923 151.657181 
L 311.764753 150.373575 
L 312.211242 133.136884 
L 312.508902 124.737921 
L 312.657732 126.258928 
L 313.55071 166.548911 
L 313.69954 165.078438 
L 314.146029 146.618539 
L 314.294859 146.349154 
L 314.592519 148.763505 
L 314.741348 146.615431 
L 315.039008 137.218908 
L 315.187838 135.90581 
L 315.336667 136.740601 
L 315.485497 139.634221 
L 316.080816 163.671803 
L 316.527305 153.282251 
L 316.676135 152.134243 
L 316.824965 150.003215 
L 317.122625 136.56753 
L 317.271454 128.906937 
L 317.420284 127.831759 
L 317.717944 135.524719 
L 318.015603 127.801408 
L 318.164433 129.474124 
L 318.462092 140.505703 
L 318.759752 146.39938 
L 319.057411 153.244204 
L 319.355071 151.946435 
L 319.503901 153.139825 
L 319.652731 153.067081 
L 320.09922 140.460328 
L 320.396879 142.567575 
L 320.545709 139.455141 
L 320.843369 125.382583 
L 320.992198 126.723515 
L 321.289858 141.261553 
L 321.438688 142.589172 
L 321.587518 142.011693 
L 321.736347 144.539931 
L 322.034007 152.774558 
L 322.182837 152.18851 
L 322.480496 143.68746 
L 322.778156 135.318241 
L 322.926985 134.986278 
L 323.075815 135.209363 
L 323.373475 133.408219 
L 323.522304 135.168473 
L 324.117624 147.985597 
L 324.266453 149.371192 
L 324.415283 149.215335 
L 324.564113 150.267506 
L 324.861772 157.278558 
L 325.010602 156.973934 
L 325.159432 155.475363 
L 325.308262 157.034613 
L 325.457091 160.399216 
L 325.605921 160.215609 
L 326.64773 125.856234 
L 326.945389 122.362429 
L 327.094219 121.266802 
L 327.243049 122.136042 
L 327.540708 134.191647 
L 327.689538 139.893817 
L 327.838368 140.643554 
L 327.987197 138.709921 
L 328.136027 140.014799 
L 328.582517 156.942123 
L 328.880176 153.899148 
L 329.177836 156.735601 
L 329.326665 153.388772 
L 329.921984 123.578676 
L 330.368474 127.267731 
L 330.517303 129.999091 
L 330.963793 147.320917 
L 331.410282 164.931159 
L 331.559112 164.419244 
L 331.856771 159.945206 
L 332.45209 141.919929 
L 332.60092 140.872105 
L 332.74975 138.665224 
L 332.89858 140.546002 
L 333.345069 169.715607 
L 333.493899 171.404234 
L 333.642729 170.831893 
L 333.791558 168.425034 
L 334.089218 158.358386 
L 334.238048 157.681093 
L 334.386877 158.865795 
L 334.535707 156.31986 
L 334.833367 144.590811 
L 334.982196 142.783052 
L 335.131026 142.472488 
L 335.279856 142.700153 
L 335.428686 144.771632 
L 336.024005 158.460722 
L 336.172835 158.31109 
L 336.470494 149.447551 
L 336.619324 153.56728 
L 336.916983 169.743552 
L 337.065813 168.010537 
L 338.107622 131.858356 
L 338.405281 116.775821 
L 338.554111 117.202594 
L 339.0006 128.521904 
L 339.29826 142.187498 
L 339.595919 143.512689 
L 340.042408 157.509449 
L 340.637728 140.982775 
L 340.786557 140.407775 
L 340.935387 141.00277 
L 341.084217 140.535267 
L 341.530706 131.610013 
L 341.679536 131.619672 
L 341.828366 131.24922 
L 341.977195 130.466244 
L 342.126025 130.91925 
L 342.423685 132.976703 
L 342.572515 132.784355 
L 342.721344 133.465141 
L 343.019004 135.764187 
L 343.167834 135.429937 
L 343.316663 136.418264 
L 344.209642 158.154693 
L 344.358472 159.931849 
L 344.507301 159.154932 
L 345.40028 138.247357 
L 345.54911 140.004021 
L 345.846769 146.664239 
L 345.995599 146.868987 
L 346.144429 148.78656 
L 346.442088 158.894109 
L 346.590918 159.783532 
L 346.739748 158.834678 
L 346.888578 159.990296 
L 347.037407 162.744478 
L 347.186237 163.112543 
L 347.483897 152.90393 
L 347.930386 137.988225 
L 348.228046 133.736394 
L 348.525705 125.396462 
L 348.674535 125.90073 
L 349.418684 154.874821 
L 349.567514 155.049283 
L 350.014003 147.045716 
L 350.162833 147.217586 
L 350.311662 148.401016 
L 350.460492 147.934308 
L 350.906981 140.645524 
L 351.353471 143.630914 
L 351.79996 147.389048 
L 351.94879 146.608743 
L 352.09762 146.543076 
L 352.246449 147.914698 
L 352.395279 147.623452 
L 352.841768 133.307514 
L 352.990598 133.776049 
L 353.139428 135.074185 
L 353.288258 134.46031 
L 353.585917 130.500741 
L 353.734747 130.820701 
L 354.627726 148.333161 
L 354.776555 151.093295 
L 354.925385 150.679111 
L 355.074215 148.972852 
L 355.223045 149.196882 
L 355.520704 152.600024 
L 355.669534 150.861546 
L 356.116023 142.722093 
L 356.264853 142.66516 
L 356.413683 142.346128 
L 356.562513 139.994927 
L 357.009002 130.036939 
L 357.157832 131.376325 
L 357.753151 142.813426 
L 357.90198 141.732352 
L 358.05081 141.602096 
L 358.497299 148.704859 
L 358.794959 142.091511 
L 358.943789 141.856823 
L 359.390278 148.939167 
L 359.539108 148.444465 
L 360.283257 142.567589 
L 360.878576 145.676357 
L 361.325065 151.823905 
L 361.622725 145.956709 
L 361.771554 145.977628 
L 361.920384 146.434808 
L 362.366873 139.294916 
L 362.664533 141.353153 
L 362.813363 141.652141 
L 363.111022 144.097472 
L 363.259852 143.257156 
L 363.706341 133.989497 
L 363.855171 133.686396 
L 364.004001 135.144488 
L 364.45049 145.916708 
L 364.59932 146.92659 
L 364.74815 148.810759 
L 365.045809 154.175722 
L 365.194639 152.005161 
L 365.492298 144.09991 
L 365.641128 144.290077 
L 366.087618 151.716938 
L 366.236447 149.794036 
L 366.534107 142.56774 
L 366.682937 142.664091 
L 366.980596 147.602326 
L 367.129426 148.059322 
L 367.575915 144.640624 
L 367.724745 145.023434 
L 367.873575 144.866613 
L 368.171234 142.756661 
L 368.617724 145.361656 
L 369.213043 141.424742 
L 369.361872 139.657723 
L 369.510702 140.735421 
L 369.808362 148.654095 
L 370.254851 151.846918 
L 370.403681 152.663896 
L 370.552511 150.710046 
L 370.85017 144.806221 
L 371.14783 144.079406 
L 371.445489 142.179899 
L 371.594319 143.850509 
L 372.040808 154.411127 
L 372.189638 154.729452 
L 372.338468 152.801065 
L 372.636127 144.963234 
L 373.082617 130.423627 
L 373.231446 128.50462 
L 373.380276 128.780081 
L 373.529106 131.103173 
L 374.124425 147.177707 
L 374.273255 148.16507 
L 374.422084 148.33769 
L 374.570914 148.028635 
L 374.719744 148.033249 
L 375.166233 152.747075 
L 375.315063 150.424553 
L 375.761552 139.525767 
L 375.910382 139.974317 
L 376.356871 144.804477 
L 376.505701 144.705797 
L 376.654531 144.847012 
L 377.10102 146.971175 
L 377.39868 149.956163 
L 377.54751 149.074127 
L 377.993999 140.837357 
L 378.142829 139.885368 
L 378.589318 132.949034 
L 378.886977 138.026209 
L 379.035807 138.294341 
L 379.184637 137.754869 
L 379.333467 138.309201 
L 379.928786 145.35243 
L 380.077616 144.524481 
L 380.375275 140.065458 
L 380.672935 139.474821 
L 380.970594 135.936659 
L 381.268254 132.732152 
L 381.565913 131.733461 
L 381.714743 132.53347 
L 382.012402 137.739132 
L 382.458892 151.105175 
L 382.607722 152.092223 
L 383.054211 148.127011 
L 383.35187 143.97329 
L 383.5007 141.816741 
L 383.64953 141.571923 
L 384.096019 145.215756 
L 384.244849 145.03952 
L 384.393679 145.785595 
L 384.691338 148.439906 
L 384.840168 147.218187 
L 385.286657 139.551792 
L 385.435487 140.036345 
L 385.881976 147.232679 
L 386.179636 146.745262 
L 386.626125 151.575725 
L 386.774955 150.042984 
L 387.221444 142.104795 
L 387.519104 140.274802 
L 387.667934 140.031521 
L 387.816763 140.20772 
L 387.965593 141.178989 
L 388.263253 146.208402 
L 388.709742 155.430116 
L 388.858572 155.66464 
L 389.156231 153.167531 
L 389.453891 154.516726 
L 389.602721 153.240396 
L 389.90038 149.172114 
L 390.04921 148.681793 
L 390.495699 143.507254 
L 390.793359 146.505903 
L 390.942188 145.04136 
L 391.239848 140.310319 
L 391.835167 142.25639 
L 392.132827 145.921565 
L 392.281656 145.808413 
L 392.430486 144.752999 
L 392.579316 144.666635 
L 393.025805 149.188659 
L 393.174635 149.324197 
L 393.323465 148.620218 
L 393.918784 144.151564 
L 394.216443 146.033928 
L 394.365273 145.685463 
L 394.662933 143.012481 
L 394.811762 143.345497 
L 395.109422 145.846403 
L 395.258252 145.910825 
L 395.407081 144.748556 
L 396.0024 134.388694 
L 396.15123 135.570713 
L 397.044209 149.649137 
L 397.341868 148.753565 
L 397.490698 149.430434 
L 397.788358 151.48842 
L 397.937187 149.733033 
L 398.681336 130.092883 
L 399.574315 142.123137 
L 399.723145 142.851617 
L 399.871974 142.801557 
L 400.020804 143.380366 
L 400.616123 151.223526 
L 400.764953 150.222717 
L 401.360272 142.864811 
L 401.509102 142.062109 
L 401.657932 141.973819 
L 401.955591 143.687782 
L 402.104421 142.56486 
L 402.40208 137.465118 
L 402.55091 137.302255 
L 403.146229 141.681227 
L 403.295059 143.179723 
L 403.443889 142.918485 
L 403.741548 139.875341 
L 403.890378 140.053299 
L 404.039208 140.618853 
L 404.188038 140.172503 
L 404.485697 137.947812 
L 404.634527 138.538664 
L 405.676335 150.942148 
L 406.569314 143.58198 
L 406.866973 142.955924 
L 407.015803 141.807551 
L 407.611122 133.915478 
L 407.759952 134.949008 
L 408.355271 146.799881 
L 408.504101 147.201213 
L 408.652931 147.158762 
L 408.95059 146.297313 
L 409.09942 146.375855 
L 409.843569 150.242389 
L 409.992398 151.038102 
L 410.141228 150.468234 
L 410.438888 145.828552 
L 410.885377 135.705646 
L 411.034207 136.467276 
L 411.480696 146.789788 
L 411.629526 147.529727 
L 411.778356 147.463811 
L 411.927185 147.734792 
L 412.224845 149.640714 
L 412.373675 149.800561 
L 412.671334 147.028615 
L 412.968994 143.918621 
L 413.117824 143.26104 
L 413.266653 143.176422 
L 413.564313 143.491788 
L 413.713143 143.839366 
L 414.010802 145.449082 
L 414.159632 145.520267 
L 414.308462 144.937168 
L 414.457291 144.92962 
L 414.903781 149.147741 
L 415.052611 148.503423 
L 415.64793 143.211868 
L 415.945589 139.675652 
L 416.094419 139.598297 
L 416.689738 143.733002 
L 416.987397 149.697902 
L 417.285057 154.346577 
L 417.433887 154.308162 
L 417.582717 154.475808 
L 417.880376 156.639997 
L 418.029206 155.550203 
L 418.773355 140.748918 
L 419.071014 141.15218 
L 419.219844 141.028082 
L 419.368674 141.147978 
L 419.815163 145.187999 
L 420.112823 142.855563 
L 420.261652 142.996098 
L 420.708142 147.634309 
L 420.856971 147.310486 
L 421.154631 143.495689 
L 421.45229 139.724083 
L 421.60112 140.177364 
L 421.74995 141.184648 
L 421.89878 141.15636 
L 422.345269 136.471307 
L 422.494099 136.870735 
L 422.940588 142.227201 
L 423.387077 148.659857 
L 423.535907 148.206409 
L 423.684737 147.109014 
L 423.833567 147.099663 
L 423.982396 147.712057 
L 424.131226 146.963983 
L 424.428886 142.405794 
L 424.875375 140.205281 
L 425.024205 139.953498 
L 425.768354 148.673264 
L 426.066013 153.575374 
L 426.214843 153.531958 
L 426.512503 150.100239 
L 426.958992 142.867438 
L 427.554311 136.858187 
L 427.85197 138.783703 
L 428.0008 138.340207 
L 428.29846 137.242212 
L 428.447289 137.517632 
L 428.596119 138.152132 
L 428.744949 139.949136 
L 429.042609 145.955731 
L 429.191438 146.847689 
L 429.340268 146.492853 
L 429.489098 147.049403 
L 429.786757 151.291414 
L 429.935587 151.769247 
L 430.233247 148.932925 
L 430.679736 142.893506 
L 430.977395 137.831747 
L 431.126225 137.525571 
L 431.423885 141.445059 
L 431.870374 146.326134 
L 432.019204 147.0085 
L 432.168034 146.787581 
L 432.614523 144.62977 
L 433.061012 143.662593 
L 433.209842 143.795548 
L 433.358672 143.759084 
L 433.805161 140.989365 
L 434.25165 144.899089 
L 434.54931 144.143346 
L 434.846969 144.706138 
L 435.144629 143.329574 
L 435.442288 141.958531 
L 435.739948 140.056636 
L 435.888778 141.329364 
L 436.186437 146.4358 
L 436.484097 147.65163 
L 436.632927 147.950193 
L 436.781756 147.983032 
L 437.228246 146.653714 
L 437.674735 143.975038 
L 437.972394 146.341152 
L 438.121224 145.992258 
L 438.418884 144.024852 
L 438.716543 145.558455 
L 438.865373 144.970282 
L 439.014203 143.870874 
L 439.163033 143.820071 
L 439.609522 146.977872 
L 439.907181 144.53573 
L 440.204841 142.663419 
L 440.353671 142.927416 
L 440.65133 146.202574 
L 440.94899 150.497542 
L 441.09782 151.130058 
L 441.246649 150.705661 
L 441.544309 148.865122 
L 441.841968 145.17846 
L 442.139628 142.259849 
L 442.288458 143.357028 
L 442.734947 148.172436 
L 443.181436 152.817264 
L 443.330266 152.422771 
L 443.925585 145.851855 
L 444.520904 142.356057 
L 444.669734 142.233204 
L 445.116223 143.75801 
L 445.413883 141.255803 
L 445.562713 140.063356 
L 445.711542 139.984928 
L 446.158032 142.510583 
L 446.455691 142.229831 
L 446.90218 143.585503 
L 447.05101 143.325592 
L 447.19984 143.402336 
L 447.34867 143.828505 
L 447.497499 143.850809 
L 447.795159 142.529526 
L 447.943989 142.573751 
L 448.241648 143.438044 
L 448.390478 143.112358 
L 448.836967 140.160188 
L 448.985797 140.469729 
L 449.581116 147.863035 
L 449.729946 147.652133 
L 450.176435 144.394876 
L 450.622925 139.879916 
L 450.771754 139.941843 
L 450.920584 140.193733 
L 451.069414 139.892692 
L 451.367073 138.825913 
L 451.515903 138.87738 
L 451.664733 139.558109 
L 452.111222 143.244819 
L 452.408882 141.709096 
L 452.557712 141.817773 
L 452.706541 141.578875 
L 453.004201 138.203875 
L 453.153031 138.627471 
L 453.45069 141.399851 
L 453.74835 139.79369 
L 454.194839 142.679357 
L 454.492498 146.139746 
L 454.641328 147.846916 
L 454.790158 148.014626 
L 455.087818 147.269164 
L 455.236647 147.021032 
L 455.534307 145.458162 
L 455.683137 146.081478 
L 455.980796 147.863831 
L 456.278456 147.416554 
L 456.427285 147.552711 
L 456.576115 147.468456 
L 457.022605 146.016844 
L 457.320264 144.164995 
L 457.617924 143.792295 
L 457.915583 142.689575 
L 458.213243 143.338881 
L 458.362072 142.746492 
L 458.808562 139.493813 
L 459.106221 138.167775 
L 459.255051 138.301213 
L 459.552711 139.484425 
L 459.70154 139.642375 
L 459.85037 140.210955 
L 460.14803 142.091976 
L 460.296859 141.944724 
L 460.594519 140.697043 
L 460.743349 140.960623 
L 461.189838 144.698695 
L 461.487497 144.911978 
L 461.933987 147.483191 
L 462.082817 147.400021 
L 462.380476 147.78439 
L 462.529306 146.642113 
L 462.826965 143.182638 
L 463.124625 141.490669 
L 463.422284 139.402697 
L 463.719944 140.75826 
L 464.017604 139.260272 
L 464.166433 140.101334 
L 464.761752 147.103114 
L 464.910582 148.435253 
L 465.059412 147.957554 
L 465.505901 142.801954 
L 466.25005 145.562391 
L 466.696539 144.556145 
L 467.440688 148.083312 
L 467.589518 147.870289 
L 468.482496 140.590201 
L 468.631326 140.909867 
L 468.780156 141.98039 
L 468.928986 142.192366 
L 469.226645 140.418926 
L 469.673135 142.206479 
L 469.821964 141.966351 
L 469.970794 142.753575 
L 470.268454 144.887099 
L 470.863773 140.265838 
L 471.161432 139.969682 
L 471.310262 140.138313 
L 471.607922 142.348844 
L 472.054411 145.46748 
L 472.35207 146.542389 
L 472.5009 146.255248 
L 473.096219 142.583515 
L 473.542709 141.064972 
L 473.840368 139.905123 
L 473.989198 139.7982 
L 474.286857 141.64773 
L 474.584517 143.103078 
L 474.882176 144.436252 
L 475.179836 146.014508 
L 475.328666 146.071525 
L 475.626325 143.555463 
L 475.775155 142.536071 
L 475.923985 143.09507 
L 476.370474 147.259953 
L 476.519304 147.35119 
L 476.668134 146.678065 
L 477.412282 139.415835 
L 477.561112 139.675915 
L 478.156431 145.281272 
L 478.305261 145.057055 
L 478.602921 145.536175 
L 478.75175 144.584974 
L 479.19824 140.281949 
L 479.347069 139.743331 
L 479.495899 139.693042 
L 479.942388 141.108556 
L 480.091218 140.963648 
L 480.240048 141.283596 
L 480.537708 144.338338 
L 480.984197 149.084542 
L 481.133027 149.360259 
L 481.579516 148.901383 
L 481.728346 148.279509 
L 482.323665 144.319042 
L 482.918984 141.976751 
L 483.216643 142.78445 
L 483.365473 142.681001 
L 483.663133 140.998367 
L 483.960792 138.787848 
L 484.109622 138.518952 
L 484.407281 140.50127 
L 484.704941 142.378466 
L 484.853771 142.859727 
L 485.002601 142.874205 
L 485.30026 141.894389 
L 485.44909 142.574626 
L 485.895579 147.703003 
L 486.044409 148.209013 
L 486.193239 148.136325 
L 486.490898 146.381784 
L 487.235047 141.286319 
L 487.830366 140.053876 
L 487.979196 140.114361 
L 488.276855 141.25094 
L 488.425685 141.362461 
L 488.574515 141.275814 
L 488.723345 141.438512 
L 489.467493 144.199142 
L 489.616323 144.42951 
L 489.765153 144.32708 
L 490.509302 140.761477 
L 490.806961 139.00279 
L 491.253451 141.343712 
L 491.55111 140.88327 
L 491.9976 141.453961 
L 492.146429 141.425991 
L 492.295259 141.736281 
L 492.741748 143.702744 
L 492.890578 143.703517 
L 493.039408 143.523362 
L 493.188238 143.603291 
L 493.634727 144.51613 
L 493.932386 144.872791 
L 494.081216 144.464545 
L 494.378876 143.390274 
L 494.676535 145.097677 
L 494.825365 144.619667 
L 495.271854 139.690516 
L 495.420684 139.823424 
L 495.867173 140.796369 
L 496.611322 147.308224 
L 496.760152 147.019747 
L 497.206641 145.671044 
L 497.355471 145.863193 
L 497.504301 145.699095 
L 497.95079 142.536343 
L 498.24845 143.55578 
L 498.397279 143.19305 
L 498.694939 142.096202 
L 498.992599 141.936488 
L 499.141428 142.458384 
L 499.439088 144.493061 
L 499.587918 144.602769 
L 499.736747 144.402228 
L 500.034407 144.565171 
L 500.183237 143.790549 
L 500.778556 138.271627 
L 500.927385 138.04933 
L 501.225045 141.197704 
L 501.671534 145.474827 
L 501.820364 146.199479 
L 501.969194 145.745338 
L 502.564513 140.757507 
L 502.713343 140.150387 
L 502.862172 140.179262 
L 503.755151 144.021689 
L 504.052811 143.53064 
L 504.35047 144.416001 
L 504.4993 143.953972 
L 505.094619 140.120745 
L 505.243449 140.290201 
L 505.541108 142.057904 
L 505.689938 142.271622 
L 505.838768 142.188437 
L 505.987598 142.527672 
L 506.434087 144.753818 
L 506.582917 144.914052 
L 506.880576 144.732999 
L 507.178236 144.925173 
L 507.327065 144.442309 
L 507.624725 142.482822 
L 507.773555 142.464322 
L 507.922384 142.845368 
L 508.071214 142.792829 
L 508.220044 142.398588 
L 508.368874 142.499797 
L 508.666533 144.047533 
L 508.815363 144.070933 
L 509.113023 143.574212 
L 509.261852 143.445264 
L 509.410682 142.622117 
L 509.857171 138.508311 
L 510.006001 138.442573 
L 510.154831 138.826318 
L 510.303661 139.658476 
L 511.04781 146.18982 
L 511.345469 147.235017 
L 511.494299 146.732806 
L 512.089618 142.2502 
L 512.387277 141.755653 
L 512.684937 142.011587 
L 512.982597 142.907688 
L 513.726745 145.239454 
L 513.875575 145.213077 
L 514.173235 144.375884 
L 514.322064 144.271934 
L 514.470894 143.989292 
L 514.768554 142.936133 
L 514.917383 142.956074 
L 515.066213 143.119033 
L 515.363873 143.091664 
L 515.810362 143.92266 
L 515.959192 143.897405 
L 516.405681 144.706653 
L 516.703341 142.546624 
L 517.001 140.832017 
L 517.596319 140.274677 
L 517.745149 140.417994 
L 518.042809 141.427468 
L 518.489298 143.318197 
L 518.489298 143.318197 
" style="fill:none;stroke:#000000;stroke-linecap:square;stroke-width:1.5;"/>
   </g>
   <g id="patch_3">
    <path d="M 72 252 
L 72 34.56 
" style="fill:none;stroke:#000000;stroke-linecap:square;stroke-linejoin:miter;stroke-width:0.8;"/>
   </g>
   <g id="patch_4">
    <path d="M 518.4 252 
L 518.4 34.56 
" style="fill:none;stroke:#000000;stroke-linecap:square;stroke-linejoin:miter;stroke-width:0.8;"/>
   </g>
   <g id="patch_5">
    <path d="M 72 252 
L 518.4 252 
" style="fill:none;stroke:#000000;stroke-linecap:square;stroke-linejoin:miter;stroke-width:0.8;"/>
   </g>
   <g id="patch_6">
    <path d="M 72 34.56 
L 518.4 34.56 
" style="fill:none;stroke:#000000;stroke-linecap:square;stroke-linejoin:miter;stroke-width:0.8;"/>
   </g>
  </g>
 </g>
 <defs>
  <clipPath id="p63ba0e3e1f">
   <rect height="217.44" width="446.4" x="72" y="34.56"/>
  </clipPath>
 </defs>
</svg>
