<?xml version="1.0" encoding="utf-8" standalone="no"?>
<!DOCTYPE svg PUBLIC "-//W3C//DTD SVG 1.1//EN"
  "http://www.w3.org/Graphics/SVG/1.1/DTD/svg11.dtd">
<!-- Created with matplotlib (https://matplotlib.org/) -->
<svg height="288pt" version="1.1" viewBox="0 0 576 288" width="576pt" xmlns="http://www.w3.org/2000/svg" xmlns:xlink="http://www.w3.org/1999/xlink">
 <defs>
  <style type="text/css">
*{stroke-linecap:butt;stroke-linejoin:round;}
  </style>
 </defs>
 <g id="figure_1">
  <g id="patch_1">
   <path d="M 0 288 
L 576 288 
L 576 0 
L 0 0 
z
" style="fill:#ffffff;"/>
  </g>
  <g id="axes_1">
   <g id="patch_2">
    <path d="M 72 252 
L 518.4 252 
L 518.4 34.56 
L 72 34.56 
z
" style="fill:#ffffff;"/>
   </g>
   <g id="matplotlib.axis_1">
    <g id="xtick_1">
     <g id="line2d_1">
      <path clip-path="url(#pa7cc3277a8)" d="M 72 252 
L 72 34.56 
" style="fill:none;stroke:#b0b0b0;stroke-linecap:square;stroke-width:0.8;"/>
     </g>
     <g id="line2d_2">
      <defs>
       <path d="M 0 0 
L 0 3.5 
" id="me4a9673adf" style="stroke:#000000;stroke-width:0.8;"/>
      </defs>
      <g>
       <use style="stroke:#000000;stroke-width:0.8;" x="72" xlink:href="#me4a9673adf" y="252"/>
      </g>
     </g>
     <g id="text_1">
      <!-- 0 -->
      <defs>
       <path d="M 31.78125 66.40625 
Q 24.171875 66.40625 20.328125 58.90625 
Q 16.5 51.421875 16.5 36.375 
Q 16.5 21.390625 20.328125 13.890625 
Q 24.171875 6.390625 31.78125 6.390625 
Q 39.453125 6.390625 43.28125 13.890625 
Q 47.125 21.390625 47.125 36.375 
Q 47.125 51.421875 43.28125 58.90625 
Q 39.453125 66.40625 31.78125 66.40625 
z
M 31.78125 74.21875 
Q 44.046875 74.21875 50.515625 64.515625 
Q 56.984375 54.828125 56.984375 36.375 
Q 56.984375 17.96875 50.515625 8.265625 
Q 44.046875 -1.421875 31.78125 -1.421875 
Q 19.53125 -1.421875 13.0625 8.265625 
Q 6.59375 17.96875 6.59375 36.375 
Q 6.59375 54.828125 13.0625 64.515625 
Q 19.53125 74.21875 31.78125 74.21875 
z
" id="DejaVuSans-48"/>
      </defs>
      <g transform="translate(68.81875 266.598437)scale(0.1 -0.1)">
       <use xlink:href="#DejaVuSans-48"/>
      </g>
     </g>
    </g>
    <g id="xtick_2">
     <g id="line2d_3">
      <path clip-path="url(#pa7cc3277a8)" d="M 161.28 252 
L 161.28 34.56 
" style="fill:none;stroke:#b0b0b0;stroke-linecap:square;stroke-width:0.8;"/>
     </g>
     <g id="line2d_4">
      <g>
       <use style="stroke:#000000;stroke-width:0.8;" x="161.28" xlink:href="#me4a9673adf" y="252"/>
      </g>
     </g>
     <g id="text_2">
      <!-- 10 -->
      <defs>
       <path d="M 12.40625 8.296875 
L 28.515625 8.296875 
L 28.515625 63.921875 
L 10.984375 60.40625 
L 10.984375 69.390625 
L 28.421875 72.90625 
L 38.28125 72.90625 
L 38.28125 8.296875 
L 54.390625 8.296875 
L 54.390625 0 
L 12.40625 0 
z
" id="DejaVuSans-49"/>
      </defs>
      <g transform="translate(154.9175 266.598437)scale(0.1 -0.1)">
       <use xlink:href="#DejaVuSans-49"/>
       <use x="63.623047" xlink:href="#DejaVuSans-48"/>
      </g>
     </g>
    </g>
    <g id="xtick_3">
     <g id="line2d_5">
      <path clip-path="url(#pa7cc3277a8)" d="M 250.56 252 
L 250.56 34.56 
" style="fill:none;stroke:#b0b0b0;stroke-linecap:square;stroke-width:0.8;"/>
     </g>
     <g id="line2d_6">
      <g>
       <use style="stroke:#000000;stroke-width:0.8;" x="250.56" xlink:href="#me4a9673adf" y="252"/>
      </g>
     </g>
     <g id="text_3">
      <!-- 20 -->
      <defs>
       <path d="M 19.1875 8.296875 
L 53.609375 8.296875 
L 53.609375 0 
L 7.328125 0 
L 7.328125 8.296875 
Q 12.9375 14.109375 22.625 23.890625 
Q 32.328125 33.6875 34.8125 36.53125 
Q 39.546875 41.84375 41.421875 45.53125 
Q 43.3125 49.21875 43.3125 52.78125 
Q 43.3125 58.59375 39.234375 62.25 
Q 35.15625 65.921875 28.609375 65.921875 
Q 23.96875 65.921875 18.8125 64.3125 
Q 13.671875 62.703125 7.8125 59.421875 
L 7.8125 69.390625 
Q 13.765625 71.78125 18.9375 73 
Q 24.125 74.21875 28.421875 74.21875 
Q 39.75 74.21875 46.484375 68.546875 
Q 53.21875 62.890625 53.21875 53.421875 
Q 53.21875 48.921875 51.53125 44.890625 
Q 49.859375 40.875 45.40625 35.40625 
Q 44.1875 33.984375 37.640625 27.21875 
Q 31.109375 20.453125 19.1875 8.296875 
z
" id="DejaVuSans-50"/>
      </defs>
      <g transform="translate(244.1975 266.598437)scale(0.1 -0.1)">
       <use xlink:href="#DejaVuSans-50"/>
       <use x="63.623047" xlink:href="#DejaVuSans-48"/>
      </g>
     </g>
    </g>
    <g id="xtick_4">
     <g id="line2d_7">
      <path clip-path="url(#pa7cc3277a8)" d="M 339.84 252 
L 339.84 34.56 
" style="fill:none;stroke:#b0b0b0;stroke-linecap:square;stroke-width:0.8;"/>
     </g>
     <g id="line2d_8">
      <g>
       <use style="stroke:#000000;stroke-width:0.8;" x="339.84" xlink:href="#me4a9673adf" y="252"/>
      </g>
     </g>
     <g id="text_4">
      <!-- 30 -->
      <defs>
       <path d="M 40.578125 39.3125 
Q 47.65625 37.796875 51.625 33 
Q 55.609375 28.21875 55.609375 21.1875 
Q 55.609375 10.40625 48.1875 4.484375 
Q 40.765625 -1.421875 27.09375 -1.421875 
Q 22.515625 -1.421875 17.65625 -0.515625 
Q 12.796875 0.390625 7.625 2.203125 
L 7.625 11.71875 
Q 11.71875 9.328125 16.59375 8.109375 
Q 21.484375 6.890625 26.8125 6.890625 
Q 36.078125 6.890625 40.9375 10.546875 
Q 45.796875 14.203125 45.796875 21.1875 
Q 45.796875 27.640625 41.28125 31.265625 
Q 36.765625 34.90625 28.71875 34.90625 
L 20.21875 34.90625 
L 20.21875 43.015625 
L 29.109375 43.015625 
Q 36.375 43.015625 40.234375 45.921875 
Q 44.09375 48.828125 44.09375 54.296875 
Q 44.09375 59.90625 40.109375 62.90625 
Q 36.140625 65.921875 28.71875 65.921875 
Q 24.65625 65.921875 20.015625 65.03125 
Q 15.375 64.15625 9.8125 62.3125 
L 9.8125 71.09375 
Q 15.4375 72.65625 20.34375 73.4375 
Q 25.25 74.21875 29.59375 74.21875 
Q 40.828125 74.21875 47.359375 69.109375 
Q 53.90625 64.015625 53.90625 55.328125 
Q 53.90625 49.265625 50.4375 45.09375 
Q 46.96875 40.921875 40.578125 39.3125 
z
" id="DejaVuSans-51"/>
      </defs>
      <g transform="translate(333.4775 266.598437)scale(0.1 -0.1)">
       <use xlink:href="#DejaVuSans-51"/>
       <use x="63.623047" xlink:href="#DejaVuSans-48"/>
      </g>
     </g>
    </g>
    <g id="xtick_5">
     <g id="line2d_9">
      <path clip-path="url(#pa7cc3277a8)" d="M 429.12 252 
L 429.12 34.56 
" style="fill:none;stroke:#b0b0b0;stroke-linecap:square;stroke-width:0.8;"/>
     </g>
     <g id="line2d_10">
      <g>
       <use style="stroke:#000000;stroke-width:0.8;" x="429.12" xlink:href="#me4a9673adf" y="252"/>
      </g>
     </g>
     <g id="text_5">
      <!-- 40 -->
      <defs>
       <path d="M 37.796875 64.3125 
L 12.890625 25.390625 
L 37.796875 25.390625 
z
M 35.203125 72.90625 
L 47.609375 72.90625 
L 47.609375 25.390625 
L 58.015625 25.390625 
L 58.015625 17.1875 
L 47.609375 17.1875 
L 47.609375 0 
L 37.796875 0 
L 37.796875 17.1875 
L 4.890625 17.1875 
L 4.890625 26.703125 
z
" id="DejaVuSans-52"/>
      </defs>
      <g transform="translate(422.7575 266.598437)scale(0.1 -0.1)">
       <use xlink:href="#DejaVuSans-52"/>
       <use x="63.623047" xlink:href="#DejaVuSans-48"/>
      </g>
     </g>
    </g>
    <g id="xtick_6">
     <g id="line2d_11">
      <path clip-path="url(#pa7cc3277a8)" d="M 518.4 252 
L 518.4 34.56 
" style="fill:none;stroke:#b0b0b0;stroke-linecap:square;stroke-width:0.8;"/>
     </g>
     <g id="line2d_12">
      <g>
       <use style="stroke:#000000;stroke-width:0.8;" x="518.4" xlink:href="#me4a9673adf" y="252"/>
      </g>
     </g>
     <g id="text_6">
      <!-- 50 -->
      <defs>
       <path d="M 10.796875 72.90625 
L 49.515625 72.90625 
L 49.515625 64.59375 
L 19.828125 64.59375 
L 19.828125 46.734375 
Q 21.96875 47.46875 24.109375 47.828125 
Q 26.265625 48.1875 28.421875 48.1875 
Q 40.625 48.1875 47.75 41.5 
Q 54.890625 34.8125 54.890625 23.390625 
Q 54.890625 11.625 47.5625 5.09375 
Q 40.234375 -1.421875 26.90625 -1.421875 
Q 22.3125 -1.421875 17.546875 -0.640625 
Q 12.796875 0.140625 7.71875 1.703125 
L 7.71875 11.625 
Q 12.109375 9.234375 16.796875 8.0625 
Q 21.484375 6.890625 26.703125 6.890625 
Q 35.15625 6.890625 40.078125 11.328125 
Q 45.015625 15.765625 45.015625 23.390625 
Q 45.015625 31 40.078125 35.4375 
Q 35.15625 39.890625 26.703125 39.890625 
Q 22.75 39.890625 18.8125 39.015625 
Q 14.890625 38.140625 10.796875 36.28125 
z
" id="DejaVuSans-53"/>
      </defs>
      <g transform="translate(512.0375 266.598437)scale(0.1 -0.1)">
       <use xlink:href="#DejaVuSans-53"/>
       <use x="63.623047" xlink:href="#DejaVuSans-48"/>
      </g>
     </g>
    </g>
    <g id="text_7">
     <!-- Tempo (s) -->
     <defs>
      <path d="M -0.296875 72.90625 
L 61.375 72.90625 
L 61.375 64.59375 
L 35.5 64.59375 
L 35.5 0 
L 25.59375 0 
L 25.59375 64.59375 
L -0.296875 64.59375 
z
" id="DejaVuSans-84"/>
      <path d="M 56.203125 29.59375 
L 56.203125 25.203125 
L 14.890625 25.203125 
Q 15.484375 15.921875 20.484375 11.0625 
Q 25.484375 6.203125 34.421875 6.203125 
Q 39.59375 6.203125 44.453125 7.46875 
Q 49.3125 8.734375 54.109375 11.28125 
L 54.109375 2.78125 
Q 49.265625 0.734375 44.1875 -0.34375 
Q 39.109375 -1.421875 33.890625 -1.421875 
Q 20.796875 -1.421875 13.15625 6.1875 
Q 5.515625 13.8125 5.515625 26.8125 
Q 5.515625 40.234375 12.765625 48.109375 
Q 20.015625 56 32.328125 56 
Q 43.359375 56 49.78125 48.890625 
Q 56.203125 41.796875 56.203125 29.59375 
z
M 47.21875 32.234375 
Q 47.125 39.59375 43.09375 43.984375 
Q 39.0625 48.390625 32.421875 48.390625 
Q 24.90625 48.390625 20.390625 44.140625 
Q 15.875 39.890625 15.1875 32.171875 
z
" id="DejaVuSans-101"/>
      <path d="M 52 44.1875 
Q 55.375 50.25 60.0625 53.125 
Q 64.75 56 71.09375 56 
Q 79.640625 56 84.28125 50.015625 
Q 88.921875 44.046875 88.921875 33.015625 
L 88.921875 0 
L 79.890625 0 
L 79.890625 32.71875 
Q 79.890625 40.578125 77.09375 44.375 
Q 74.3125 48.1875 68.609375 48.1875 
Q 61.625 48.1875 57.5625 43.546875 
Q 53.515625 38.921875 53.515625 30.90625 
L 53.515625 0 
L 44.484375 0 
L 44.484375 32.71875 
Q 44.484375 40.625 41.703125 44.40625 
Q 38.921875 48.1875 33.109375 48.1875 
Q 26.21875 48.1875 22.15625 43.53125 
Q 18.109375 38.875 18.109375 30.90625 
L 18.109375 0 
L 9.078125 0 
L 9.078125 54.6875 
L 18.109375 54.6875 
L 18.109375 46.1875 
Q 21.1875 51.21875 25.484375 53.609375 
Q 29.78125 56 35.6875 56 
Q 41.65625 56 45.828125 52.96875 
Q 50 49.953125 52 44.1875 
z
" id="DejaVuSans-109"/>
      <path d="M 18.109375 8.203125 
L 18.109375 -20.796875 
L 9.078125 -20.796875 
L 9.078125 54.6875 
L 18.109375 54.6875 
L 18.109375 46.390625 
Q 20.953125 51.265625 25.265625 53.625 
Q 29.59375 56 35.59375 56 
Q 45.5625 56 51.78125 48.09375 
Q 58.015625 40.1875 58.015625 27.296875 
Q 58.015625 14.40625 51.78125 6.484375 
Q 45.5625 -1.421875 35.59375 -1.421875 
Q 29.59375 -1.421875 25.265625 0.953125 
Q 20.953125 3.328125 18.109375 8.203125 
z
M 48.6875 27.296875 
Q 48.6875 37.203125 44.609375 42.84375 
Q 40.53125 48.484375 33.40625 48.484375 
Q 26.265625 48.484375 22.1875 42.84375 
Q 18.109375 37.203125 18.109375 27.296875 
Q 18.109375 17.390625 22.1875 11.75 
Q 26.265625 6.109375 33.40625 6.109375 
Q 40.53125 6.109375 44.609375 11.75 
Q 48.6875 17.390625 48.6875 27.296875 
z
" id="DejaVuSans-112"/>
      <path d="M 30.609375 48.390625 
Q 23.390625 48.390625 19.1875 42.75 
Q 14.984375 37.109375 14.984375 27.296875 
Q 14.984375 17.484375 19.15625 11.84375 
Q 23.34375 6.203125 30.609375 6.203125 
Q 37.796875 6.203125 41.984375 11.859375 
Q 46.1875 17.53125 46.1875 27.296875 
Q 46.1875 37.015625 41.984375 42.703125 
Q 37.796875 48.390625 30.609375 48.390625 
z
M 30.609375 56 
Q 42.328125 56 49.015625 48.375 
Q 55.71875 40.765625 55.71875 27.296875 
Q 55.71875 13.875 49.015625 6.21875 
Q 42.328125 -1.421875 30.609375 -1.421875 
Q 18.84375 -1.421875 12.171875 6.21875 
Q 5.515625 13.875 5.515625 27.296875 
Q 5.515625 40.765625 12.171875 48.375 
Q 18.84375 56 30.609375 56 
z
" id="DejaVuSans-111"/>
      <path id="DejaVuSans-32"/>
      <path d="M 31 75.875 
Q 24.46875 64.65625 21.28125 53.65625 
Q 18.109375 42.671875 18.109375 31.390625 
Q 18.109375 20.125 21.3125 9.0625 
Q 24.515625 -2 31 -13.1875 
L 23.1875 -13.1875 
Q 15.875 -1.703125 12.234375 9.375 
Q 8.59375 20.453125 8.59375 31.390625 
Q 8.59375 42.28125 12.203125 53.3125 
Q 15.828125 64.359375 23.1875 75.875 
z
" id="DejaVuSans-40"/>
      <path d="M 44.28125 53.078125 
L 44.28125 44.578125 
Q 40.484375 46.53125 36.375 47.5 
Q 32.28125 48.484375 27.875 48.484375 
Q 21.1875 48.484375 17.84375 46.4375 
Q 14.5 44.390625 14.5 40.28125 
Q 14.5 37.15625 16.890625 35.375 
Q 19.28125 33.59375 26.515625 31.984375 
L 29.59375 31.296875 
Q 39.15625 29.25 43.1875 25.515625 
Q 47.21875 21.78125 47.21875 15.09375 
Q 47.21875 7.46875 41.1875 3.015625 
Q 35.15625 -1.421875 24.609375 -1.421875 
Q 20.21875 -1.421875 15.453125 -0.5625 
Q 10.6875 0.296875 5.421875 2 
L 5.421875 11.28125 
Q 10.40625 8.6875 15.234375 7.390625 
Q 20.0625 6.109375 24.8125 6.109375 
Q 31.15625 6.109375 34.5625 8.28125 
Q 37.984375 10.453125 37.984375 14.40625 
Q 37.984375 18.0625 35.515625 20.015625 
Q 33.0625 21.96875 24.703125 23.78125 
L 21.578125 24.515625 
Q 13.234375 26.265625 9.515625 29.90625 
Q 5.8125 33.546875 5.8125 39.890625 
Q 5.8125 47.609375 11.28125 51.796875 
Q 16.75 56 26.8125 56 
Q 31.78125 56 36.171875 55.265625 
Q 40.578125 54.546875 44.28125 53.078125 
z
" id="DejaVuSans-115"/>
      <path d="M 8.015625 75.875 
L 15.828125 75.875 
Q 23.140625 64.359375 26.78125 53.3125 
Q 30.421875 42.28125 30.421875 31.390625 
Q 30.421875 20.453125 26.78125 9.375 
Q 23.140625 -1.703125 15.828125 -13.1875 
L 8.015625 -13.1875 
Q 14.5 -2 17.703125 9.0625 
Q 20.90625 20.125 20.90625 31.390625 
Q 20.90625 42.671875 17.703125 53.65625 
Q 14.5 64.65625 8.015625 75.875 
z
" id="DejaVuSans-41"/>
     </defs>
     <g transform="translate(270.720312 280.276563)scale(0.1 -0.1)">
      <use xlink:href="#DejaVuSans-84"/>
      <use x="44.083984" xlink:href="#DejaVuSans-101"/>
      <use x="105.607422" xlink:href="#DejaVuSans-109"/>
      <use x="203.019531" xlink:href="#DejaVuSans-112"/>
      <use x="266.496094" xlink:href="#DejaVuSans-111"/>
      <use x="327.677734" xlink:href="#DejaVuSans-32"/>
      <use x="359.464844" xlink:href="#DejaVuSans-40"/>
      <use x="398.478516" xlink:href="#DejaVuSans-115"/>
      <use x="450.578125" xlink:href="#DejaVuSans-41"/>
     </g>
    </g>
   </g>
   <g id="matplotlib.axis_2">
    <g id="ytick_1">
     <g id="line2d_13">
      <path clip-path="url(#pa7cc3277a8)" d="M 72 231.976716 
L 518.4 231.976716 
" style="fill:none;stroke:#b0b0b0;stroke-linecap:square;stroke-width:0.8;"/>
     </g>
     <g id="line2d_14">
      <defs>
       <path d="M 0 0 
L -3.5 0 
" id="m1af9be2789" style="stroke:#000000;stroke-width:0.8;"/>
      </defs>
      <g>
       <use style="stroke:#000000;stroke-width:0.8;" x="72" xlink:href="#m1af9be2789" y="231.976716"/>
      </g>
     </g>
     <g id="text_8">
      <!-- −4 -->
      <defs>
       <path d="M 10.59375 35.5 
L 73.1875 35.5 
L 73.1875 27.203125 
L 10.59375 27.203125 
z
" id="DejaVuSans-8722"/>
      </defs>
      <g transform="translate(50.257812 235.775935)scale(0.1 -0.1)">
       <use xlink:href="#DejaVuSans-8722"/>
       <use x="83.789062" xlink:href="#DejaVuSans-52"/>
      </g>
     </g>
    </g>
    <g id="ytick_2">
     <g id="line2d_15">
      <path clip-path="url(#pa7cc3277a8)" d="M 72 187.628358 
L 518.4 187.628358 
" style="fill:none;stroke:#b0b0b0;stroke-linecap:square;stroke-width:0.8;"/>
     </g>
     <g id="line2d_16">
      <g>
       <use style="stroke:#000000;stroke-width:0.8;" x="72" xlink:href="#m1af9be2789" y="187.628358"/>
      </g>
     </g>
     <g id="text_9">
      <!-- −2 -->
      <g transform="translate(50.257812 191.427577)scale(0.1 -0.1)">
       <use xlink:href="#DejaVuSans-8722"/>
       <use x="83.789062" xlink:href="#DejaVuSans-50"/>
      </g>
     </g>
    </g>
    <g id="ytick_3">
     <g id="line2d_17">
      <path clip-path="url(#pa7cc3277a8)" d="M 72 143.28 
L 518.4 143.28 
" style="fill:none;stroke:#b0b0b0;stroke-linecap:square;stroke-width:0.8;"/>
     </g>
     <g id="line2d_18">
      <g>
       <use style="stroke:#000000;stroke-width:0.8;" x="72" xlink:href="#m1af9be2789" y="143.28"/>
      </g>
     </g>
     <g id="text_10">
      <!-- 0 -->
      <g transform="translate(58.6375 147.079219)scale(0.1 -0.1)">
       <use xlink:href="#DejaVuSans-48"/>
      </g>
     </g>
    </g>
    <g id="ytick_4">
     <g id="line2d_19">
      <path clip-path="url(#pa7cc3277a8)" d="M 72 98.931642 
L 518.4 98.931642 
" style="fill:none;stroke:#b0b0b0;stroke-linecap:square;stroke-width:0.8;"/>
     </g>
     <g id="line2d_20">
      <g>
       <use style="stroke:#000000;stroke-width:0.8;" x="72" xlink:href="#m1af9be2789" y="98.931642"/>
      </g>
     </g>
     <g id="text_11">
      <!-- 2 -->
      <g transform="translate(58.6375 102.730861)scale(0.1 -0.1)">
       <use xlink:href="#DejaVuSans-50"/>
      </g>
     </g>
    </g>
    <g id="ytick_5">
     <g id="line2d_21">
      <path clip-path="url(#pa7cc3277a8)" d="M 72 54.583284 
L 518.4 54.583284 
" style="fill:none;stroke:#b0b0b0;stroke-linecap:square;stroke-width:0.8;"/>
     </g>
     <g id="line2d_22">
      <g>
       <use style="stroke:#000000;stroke-width:0.8;" x="72" xlink:href="#m1af9be2789" y="54.583284"/>
      </g>
     </g>
     <g id="text_12">
      <!-- 4 -->
      <g transform="translate(58.6375 58.382502)scale(0.1 -0.1)">
       <use xlink:href="#DejaVuSans-52"/>
      </g>
     </g>
    </g>
    <g id="text_13">
     <!-- Aceleração (m/s²) -->
     <defs>
      <path d="M 34.1875 63.1875 
L 20.796875 26.90625 
L 47.609375 26.90625 
z
M 28.609375 72.90625 
L 39.796875 72.90625 
L 67.578125 0 
L 57.328125 0 
L 50.6875 18.703125 
L 17.828125 18.703125 
L 11.1875 0 
L 0.78125 0 
z
" id="DejaVuSans-65"/>
      <path d="M 48.78125 52.59375 
L 48.78125 44.1875 
Q 44.96875 46.296875 41.140625 47.34375 
Q 37.3125 48.390625 33.40625 48.390625 
Q 24.65625 48.390625 19.8125 42.84375 
Q 14.984375 37.3125 14.984375 27.296875 
Q 14.984375 17.28125 19.8125 11.734375 
Q 24.65625 6.203125 33.40625 6.203125 
Q 37.3125 6.203125 41.140625 7.25 
Q 44.96875 8.296875 48.78125 10.40625 
L 48.78125 2.09375 
Q 45.015625 0.34375 40.984375 -0.53125 
Q 36.96875 -1.421875 32.421875 -1.421875 
Q 20.0625 -1.421875 12.78125 6.34375 
Q 5.515625 14.109375 5.515625 27.296875 
Q 5.515625 40.671875 12.859375 48.328125 
Q 20.21875 56 33.015625 56 
Q 37.15625 56 41.109375 55.140625 
Q 45.0625 54.296875 48.78125 52.59375 
z
" id="DejaVuSans-99"/>
      <path d="M 9.421875 75.984375 
L 18.40625 75.984375 
L 18.40625 0 
L 9.421875 0 
z
" id="DejaVuSans-108"/>
      <path d="M 41.109375 46.296875 
Q 39.59375 47.171875 37.8125 47.578125 
Q 36.03125 48 33.890625 48 
Q 26.265625 48 22.1875 43.046875 
Q 18.109375 38.09375 18.109375 28.8125 
L 18.109375 0 
L 9.078125 0 
L 9.078125 54.6875 
L 18.109375 54.6875 
L 18.109375 46.1875 
Q 20.953125 51.171875 25.484375 53.578125 
Q 30.03125 56 36.53125 56 
Q 37.453125 56 38.578125 55.875 
Q 39.703125 55.765625 41.0625 55.515625 
z
" id="DejaVuSans-114"/>
      <path d="M 34.28125 27.484375 
Q 23.390625 27.484375 19.1875 25 
Q 14.984375 22.515625 14.984375 16.5 
Q 14.984375 11.71875 18.140625 8.90625 
Q 21.296875 6.109375 26.703125 6.109375 
Q 34.1875 6.109375 38.703125 11.40625 
Q 43.21875 16.703125 43.21875 25.484375 
L 43.21875 27.484375 
z
M 52.203125 31.203125 
L 52.203125 0 
L 43.21875 0 
L 43.21875 8.296875 
Q 40.140625 3.328125 35.546875 0.953125 
Q 30.953125 -1.421875 24.3125 -1.421875 
Q 15.921875 -1.421875 10.953125 3.296875 
Q 6 8.015625 6 15.921875 
Q 6 25.140625 12.171875 29.828125 
Q 18.359375 34.515625 30.609375 34.515625 
L 43.21875 34.515625 
L 43.21875 35.40625 
Q 43.21875 41.609375 39.140625 45 
Q 35.0625 48.390625 27.6875 48.390625 
Q 23 48.390625 18.546875 47.265625 
Q 14.109375 46.140625 10.015625 43.890625 
L 10.015625 52.203125 
Q 14.9375 54.109375 19.578125 55.046875 
Q 24.21875 56 28.609375 56 
Q 40.484375 56 46.34375 49.84375 
Q 52.203125 43.703125 52.203125 31.203125 
z
" id="DejaVuSans-97"/>
      <path d="M 48.78125 52.59375 
L 48.78125 44.1875 
Q 44.96875 46.296875 41.140625 47.34375 
Q 37.3125 48.390625 33.40625 48.390625 
Q 24.65625 48.390625 19.8125 42.84375 
Q 14.984375 37.3125 14.984375 27.296875 
Q 14.984375 17.28125 19.8125 11.734375 
Q 24.65625 6.203125 33.40625 6.203125 
Q 37.3125 6.203125 41.140625 7.25 
Q 44.96875 8.296875 48.78125 10.40625 
L 48.78125 2.09375 
Q 45.015625 0.34375 40.984375 -0.53125 
Q 36.96875 -1.421875 32.421875 -1.421875 
Q 20.0625 -1.421875 12.78125 6.34375 
Q 5.515625 14.109375 5.515625 27.296875 
Q 5.515625 40.671875 12.859375 48.328125 
Q 20.21875 56 33.015625 56 
Q 37.15625 56 41.109375 55.140625 
Q 45.0625 54.296875 48.78125 52.59375 
z
M 36.078125 0 
Q 38.765625 -3.03125 40.078125 -5.59375 
Q 41.40625 -8.15625 41.40625 -10.5 
Q 41.40625 -14.84375 38.46875 -17.0625 
Q 35.546875 -19.28125 29.78125 -19.28125 
Q 27.546875 -19.28125 25.421875 -18.984375 
Q 23.296875 -18.703125 21.1875 -18.109375 
L 21.1875 -11.71875 
Q 22.859375 -12.546875 24.65625 -12.90625 
Q 26.46875 -13.28125 28.765625 -13.28125 
Q 31.640625 -13.28125 33.109375 -12.109375 
Q 34.578125 -10.9375 34.578125 -8.6875 
Q 34.578125 -7.234375 33.515625 -5.109375 
Q 32.46875 -2.984375 30.28125 0 
z
" id="DejaVuSans-231"/>
      <path d="M 34.28125 27.484375 
Q 23.390625 27.484375 19.1875 25 
Q 14.984375 22.515625 14.984375 16.5 
Q 14.984375 11.71875 18.140625 8.90625 
Q 21.296875 6.109375 26.703125 6.109375 
Q 34.1875 6.109375 38.703125 11.40625 
Q 43.21875 16.703125 43.21875 25.484375 
L 43.21875 27.484375 
z
M 52.203125 31.203125 
L 52.203125 0 
L 43.21875 0 
L 43.21875 8.296875 
Q 40.140625 3.328125 35.546875 0.953125 
Q 30.953125 -1.421875 24.3125 -1.421875 
Q 15.921875 -1.421875 10.953125 3.296875 
Q 6 8.015625 6 15.921875 
Q 6 25.140625 12.171875 29.828125 
Q 18.359375 34.515625 30.609375 34.515625 
L 43.21875 34.515625 
L 43.21875 35.40625 
Q 43.21875 41.609375 39.140625 45 
Q 35.0625 48.390625 27.6875 48.390625 
Q 23 48.390625 18.546875 47.265625 
Q 14.109375 46.140625 10.015625 43.890625 
L 10.015625 52.203125 
Q 14.9375 54.109375 19.578125 55.046875 
Q 24.21875 56 28.609375 56 
Q 40.484375 56 46.34375 49.84375 
Q 52.203125 43.703125 52.203125 31.203125 
z
M 28.8125 66.890625 
L 26.03125 69.578125 
Q 24.953125 70.5625 24.140625 71.015625 
Q 23.34375 71.484375 22.703125 71.484375 
Q 20.84375 71.484375 19.96875 69.703125 
Q 19.09375 67.921875 19 63.921875 
L 12.890625 63.921875 
Q 12.984375 70.515625 15.46875 74.09375 
Q 17.96875 77.6875 22.40625 77.6875 
Q 24.265625 77.6875 25.828125 77 
Q 27.390625 76.3125 29.203125 74.703125 
L 31.984375 72.015625 
Q 33.0625 71.046875 33.859375 70.578125 
Q 34.671875 70.125 35.296875 70.125 
Q 37.15625 70.125 38.03125 71.90625 
Q 38.921875 73.6875 39.015625 77.6875 
L 45.125 77.6875 
Q 45.015625 71.09375 42.53125 67.5 
Q 40.046875 63.921875 35.59375 63.921875 
Q 33.734375 63.921875 32.171875 64.59375 
Q 30.609375 65.28125 28.8125 66.890625 
z
" id="DejaVuSans-227"/>
      <path d="M 25.390625 72.90625 
L 33.6875 72.90625 
L 8.296875 -9.28125 
L 0 -9.28125 
z
" id="DejaVuSans-47"/>
      <path d="M 13.09375 38.1875 
L 33.796875 38.1875 
L 33.796875 32.625 
L 4.59375 32.625 
L 4.59375 37.984375 
Q 6.25 39.5 9.328125 42.234375 
Q 26.125 57.125 26.125 61.71875 
Q 26.125 64.9375 23.578125 66.90625 
Q 21.046875 68.890625 16.890625 68.890625 
Q 14.359375 68.890625 11.375 68.03125 
Q 8.40625 67.1875 4.890625 65.484375 
L 4.890625 71.484375 
Q 8.640625 72.859375 11.890625 73.53125 
Q 15.140625 74.21875 17.921875 74.21875 
Q 25 74.21875 29.25 71 
Q 33.5 67.78125 33.5 62.5 
Q 33.5 55.71875 17.328125 41.84375 
Q 14.59375 39.5 13.09375 38.1875 
z
" id="DejaVuSans-178"/>
     </defs>
     <g transform="translate(44.178125 187.551094)rotate(-90)scale(0.1 -0.1)">
      <use xlink:href="#DejaVuSans-65"/>
      <use x="66.658203" xlink:href="#DejaVuSans-99"/>
      <use x="121.638672" xlink:href="#DejaVuSans-101"/>
      <use x="183.162109" xlink:href="#DejaVuSans-108"/>
      <use x="210.945312" xlink:href="#DejaVuSans-101"/>
      <use x="272.46875" xlink:href="#DejaVuSans-114"/>
      <use x="313.582031" xlink:href="#DejaVuSans-97"/>
      <use x="374.861328" xlink:href="#DejaVuSans-231"/>
      <use x="429.841797" xlink:href="#DejaVuSans-227"/>
      <use x="491.121094" xlink:href="#DejaVuSans-111"/>
      <use x="552.302734" xlink:href="#DejaVuSans-32"/>
      <use x="584.089844" xlink:href="#DejaVuSans-40"/>
      <use x="623.103516" xlink:href="#DejaVuSans-109"/>
      <use x="720.515625" xlink:href="#DejaVuSans-47"/>
      <use x="754.207031" xlink:href="#DejaVuSans-115"/>
      <use x="806.306641" xlink:href="#DejaVuSans-178"/>
      <use x="846.394531" xlink:href="#DejaVuSans-41"/>
     </g>
    </g>
   </g>
   <g id="line2d_23">
    <path clip-path="url(#pa7cc3277a8)" d="M 72 148.62915 
L 72.267894 126.253463 
L 72.892979 182.731333 
L 72.982276 180.260934 
L 73.25017 165.641972 
L 73.428766 162.109524 
L 73.518064 163.568453 
L 73.696659 172.046345 
L 73.785957 171.398246 
L 74.053851 148.425759 
L 74.411042 101.497044 
L 74.50034 101.622962 
L 74.678936 138.351717 
L 74.946829 213.423775 
L 75.036127 206.450606 
L 75.482617 118.166769 
L 75.661212 95.523497 
L 75.839808 109.399336 
L 76.018404 93.69471 
L 76.107702 97.989951 
L 76.375595 130.379148 
L 76.643489 191.747108 
L 76.822084 192.521605 
L 77.179276 216.399423 
L 77.357872 191.036577 
L 77.715063 123.266503 
L 77.982957 85.813163 
L 78.161552 63.13858 
L 78.25085 67.583831 
L 78.518744 121.731361 
L 78.786637 166.2621 
L 79.054531 149.715568 
L 79.143829 150.159636 
L 79.411722 164.866602 
L 79.679616 144.009855 
L 79.768914 146.557345 
L 80.036807 165.51183 
L 80.126105 162.193025 
L 80.393999 139.59974 
L 80.483297 137.656106 
L 80.661892 117.582261 
L 81.108382 40.64114 
L 81.19768 42.466259 
L 81.376275 103.448955 
L 81.733467 221.877235 
L 81.822765 224.121608 
L 82.00136 201.603132 
L 82.44785 117.189794 
L 82.626445 107.699839 
L 82.715743 107.553706 
L 82.894339 109.461625 
L 82.983637 113.850151 
L 83.340828 160.610478 
L 83.430126 159.583684 
L 83.608722 153.078828 
L 83.876615 127.869552 
L 84.055211 138.780939 
L 84.144509 138.519977 
L 84.323105 130.449458 
L 84.412402 131.004523 
L 84.680296 114.900386 
L 84.769594 119.638354 
L 84.94819 125.389706 
L 85.037487 128.74562 
L 85.394679 177.243224 
L 85.483977 182.629245 
L 85.75187 217.409763 
L 85.930466 188.911872 
L 86.644849 49.254812 
L 86.912743 102.123561 
L 87.44853 192.819169 
L 87.627125 209.840332 
L 87.716423 208.026493 
L 87.984317 170.297039 
L 88.073615 168.148985 
L 88.430806 114.831716 
L 88.520104 122.013116 
L 88.6987 134.369598 
L 88.966593 117.946843 
L 89.413083 167.912186 
L 89.591678 158.324797 
L 89.680976 162.452617 
L 89.94887 194.277709 
L 90.038168 197.632681 
L 90.216763 212.899179 
L 90.752551 117.608441 
L 90.841848 121.530287 
L 91.020444 142.740287 
L 91.288338 105.375593 
L 91.556231 133.076632 
L 91.734827 154.723211 
L 92.002721 133.230669 
L 92.359912 154.200501 
L 92.44921 156.764327 
L 92.627806 173.541294 
L 92.806401 186.434576 
L 92.984997 155.30714 
L 93.252891 117.949111 
L 93.610082 83.454007 
L 93.69938 90.858462 
L 94.145869 168.706937 
L 94.324465 176.545801 
L 94.413763 174.66839 
L 94.592358 157.164838 
L 94.770954 135.590331 
L 94.860252 135.061691 
L 95.306741 168.34605 
L 95.574635 160.347829 
L 95.753231 171.57234 
L 95.842529 171.172117 
L 96.110422 139.17298 
L 96.378316 164.447476 
L 96.467614 160.552354 
L 97.092699 82.674066 
L 97.181996 88.754671 
L 97.44989 125.209664 
L 97.539188 123.30191 
L 97.628486 125.015445 
L 97.807081 137.004233 
L 98.074975 123.44357 
L 98.342869 140.367639 
L 98.432166 135.592647 
L 98.610762 114.298265 
L 98.70006 114.531162 
L 98.878656 131.639057 
L 99.146549 113.407103 
L 99.414443 149.633018 
L 99.593039 171.137421 
L 99.682336 165.388655 
L 99.860932 144.728009 
L 100.039528 156.765546 
L 100.128826 155.102771 
L 100.307421 148.455726 
L 100.396719 148.867074 
L 100.575315 124.372572 
L 100.843209 93.034454 
L 100.932507 94.313302 
L 101.111102 113.048434 
L 101.2004 123.188972 
L 101.289698 121.776022 
L 101.557592 82.338257 
L 101.736187 107.307838 
L 102.45057 252 
L 102.539868 243.970921 
L 103.254251 112.907551 
L 103.432847 92.541992 
L 103.522144 93.162774 
L 103.790038 135.947105 
L 104.057932 183.930069 
L 104.236527 176.750865 
L 104.415123 186.316794 
L 104.504421 185.614255 
L 104.861612 148.503011 
L 105.040208 128.935826 
L 105.129506 133.03014 
L 105.308102 148.125829 
L 105.397399 148.20425 
L 105.486697 150.417538 
L 105.754591 182.681309 
L 105.843889 178.442498 
L 106.20108 124.07025 
L 106.379676 129.953432 
L 106.558272 128.24625 
L 107.004761 157.464213 
L 107.272655 189.606695 
L 107.45125 179.49837 
L 108.076335 124.88807 
L 108.254931 149.773707 
L 108.70142 222.02646 
L 109.237207 131.423963 
L 109.415803 108.987292 
L 109.683697 127.024927 
L 109.862292 111.56034 
L 110.040888 147.333109 
L 110.219484 177.127172 
L 110.308782 177.660991 
L 110.576675 158.906845 
L 110.665973 159.242067 
L 110.933867 171.802869 
L 111.112462 160.752566 
L 111.291058 147.505689 
L 111.380356 149.496505 
L 111.737548 167.728695 
L 111.826845 167.848654 
L 112.094739 139.686034 
L 112.184037 139.984489 
L 112.362633 127.088288 
L 112.45193 127.190364 
L 112.89842 191.867983 
L 112.987718 202.415069 
L 113.077015 199.064809 
L 113.255611 179.39356 
L 113.434207 193.226831 
L 113.7021 172.893473 
L 113.791398 166.236028 
L 114.059292 122.518221 
L 114.14859 124.57048 
L 114.327185 140.059553 
L 114.684377 217.710573 
L 114.773675 213.993882 
L 115.577355 95.866009 
L 115.666653 96.4662 
L 115.845249 93.920073 
L 116.023845 115.100442 
L 116.381036 169.722736 
L 116.827526 103.369094 
L 116.916823 103.632951 
L 117.363313 153.541539 
L 117.541908 184.938247 
L 117.631206 183.997336 
L 117.8991 119.662897 
L 118.077696 93.067071 
L 118.166993 91.435825 
L 118.256291 92.630751 
L 118.434887 104.500081 
L 118.702781 129.716855 
L 118.881376 125.941379 
L 118.970674 130.020194 
L 119.238568 158.565697 
L 119.327866 156.891837 
L 119.506461 144.071542 
L 119.774355 116.862363 
L 120.310142 148.670194 
L 120.39944 146.211055 
L 120.488738 147.886042 
L 120.667333 174.951979 
L 120.756631 174.753852 
L 121.203121 102.862963 
L 121.292418 103.935157 
L 121.828206 148.488935 
L 121.917504 146.591645 
L 122.006801 148.802778 
L 122.274695 185.074501 
L 122.363993 181.172966 
L 122.721184 144.433909 
L 122.89978 150.40493 
L 122.989078 146.653771 
L 123.435567 106.433576 
L 123.524865 108.739308 
L 123.703461 128.594115 
L 123.882056 159.634993 
L 123.971354 158.666528 
L 124.060652 155.892636 
L 124.328546 203.3726 
L 124.596439 163.19031 
L 124.685737 164.693786 
L 124.864333 159.580944 
L 124.953631 161.254164 
L 125.042929 164.418034 
L 125.132226 162.488011 
L 125.310822 152.852905 
L 125.489418 117.36517 
L 125.668014 96.979687 
L 126.203801 149.215912 
L 126.382396 135.880118 
L 126.471694 139.580668 
L 126.560992 138.927087 
L 126.739588 130.55825 
L 126.918184 150.00602 
L 127.453971 102.679545 
L 127.543269 109.246888 
L 127.811162 144.165021 
L 128.257652 179.852946 
L 128.436247 191.559007 
L 128.614843 187.300158 
L 128.704141 182.302937 
L 128.972034 145.07673 
L 129.061332 147.067186 
L 129.15063 147.832741 
L 129.507822 98.51074 
L 129.597119 99.769198 
L 129.775715 106.41652 
L 130.222204 148.219382 
L 130.4008 157.529418 
L 130.668694 176.946078 
L 130.847289 203.845093 
L 130.936587 195.345143 
L 131.293779 111.208267 
L 131.472374 99.941557 
L 132.008162 148.913273 
L 132.186757 167.794393 
L 132.365353 180.525231 
L 132.454651 189.356049 
L 132.543949 186.304466 
L 132.811842 143.743868 
L 133.079736 162.75802 
L 133.169034 162.908919 
L 133.34763 168.373667 
L 133.615523 156.375833 
L 133.704821 161.827593 
L 133.794119 159.587092 
L 134.240608 92.409052 
L 134.329906 96.738089 
L 134.5978 128.917112 
L 134.776395 107.300574 
L 134.865693 114.920546 
L 135.133587 169.319532 
L 135.222885 171.795261 
L 135.40148 166.647571 
L 135.669374 179.917246 
L 136.026565 149.522324 
L 136.205161 123.756522 
L 136.294459 128.124103 
L 136.473055 143.509323 
L 137.09814 74.099659 
L 137.187437 73.391677 
L 137.366033 95.889199 
L 137.633927 157.090439 
L 137.90182 231.577244 
L 137.991118 230.711838 
L 138.34831 192.124687 
L 138.884097 88.371632 
L 138.973395 91.15558 
L 139.419884 125.294348 
L 139.59848 139.888774 
L 139.777075 158.490445 
L 139.866373 158.705337 
L 140.40216 124.97306 
L 140.491458 120.639616 
L 140.580756 123.422984 
L 140.84865 146.751344 
L 141.205841 132.594459 
L 141.384437 128.428511 
L 141.473735 129.516916 
L 141.65233 153.983348 
L 141.920224 188.759107 
L 142.009522 190.731824 
L 142.09882 190.038177 
L 142.277415 167.59558 
L 142.723905 102.595879 
L 142.813203 107.117353 
L 143.259692 165.897226 
L 143.438288 171.464454 
L 143.527586 173.016501 
L 143.795479 190.116563 
L 143.884777 188.9773 
L 143.974075 182.206569 
L 144.688458 62.529624 
L 145.492138 193.277892 
L 145.581436 195.111316 
L 145.670734 187.748311 
L 145.938628 123.551853 
L 146.206521 76.808785 
L 147.188798 212.404349 
L 147.367393 206.205832 
L 147.456691 200.665812 
L 147.635287 156.661707 
L 147.903181 85.641028 
L 148.081776 109.663583 
L 148.528266 161.367776 
L 148.706861 167.73699 
L 148.885457 199.03393 
L 149.064053 233.119943 
L 149.153351 230.530202 
L 149.331946 211.461674 
L 149.421244 214.152671 
L 149.510542 211.931065 
L 149.867734 137.928686 
L 149.957031 132.886104 
L 150.135627 112.029751 
L 150.314223 122.222968 
L 150.403521 120.027217 
L 150.492819 121.310035 
L 150.760712 162.155146 
L 150.85001 162.887321 
L 151.296499 202.112661 
L 151.385797 198.236132 
L 151.653691 138.042922 
L 151.742989 138.579831 
L 151.832286 142.636515 
L 151.921584 141.868655 
L 152.010882 143.414031 
L 152.368074 173.700568 
L 152.457371 173.594319 
L 152.635967 170.572913 
L 152.725265 172.040781 
L 152.814563 171.226988 
L 153.082456 143.642611 
L 153.171754 144.660353 
L 153.261052 140.441216 
L 153.439648 126.651454 
L 153.528946 129.645888 
L 153.618244 126.482348 
L 153.796839 103.68025 
L 153.886137 107.246923 
L 154.064733 118.452631 
L 154.154031 120.416641 
L 154.332627 126.343198 
L 154.511222 120.617335 
L 154.779116 148.824426 
L 154.957712 143.529831 
L 155.047009 142.896224 
L 155.314903 126.398393 
L 155.582797 100.548261 
L 155.939988 137.874279 
L 156.118584 168.958362 
L 156.207882 165.124082 
L 156.386477 141.935218 
L 156.832967 172.949859 
L 157.011562 160.317845 
L 157.279456 126.501308 
L 157.458052 103.440926 
L 157.725945 94.53409 
L 158.261732 153.092133 
L 158.440328 173.119479 
L 158.618924 161.277425 
L 158.708222 161.976408 
L 158.886817 170.395272 
L 159.065413 186.602413 
L 159.154711 182.070096 
L 159.6012 120.406846 
L 159.779796 102.436162 
L 159.869094 104.358192 
L 160.04769 123.206249 
L 160.136987 122.261554 
L 160.226285 117.254102 
L 160.315583 118.273234 
L 160.762072 162.118294 
L 160.85137 161.912514 
L 160.940668 161.345434 
L 161.029966 159.135088 
L 161.565753 107.542583 
L 161.655051 112.586796 
L 162.280136 208.064194 
L 162.369434 207.611608 
L 162.54803 226.410584 
L 162.637327 224.84212 
L 163.530306 88.191688 
L 163.7982 99.59617 
L 164.423285 176.327251 
L 164.60188 160.838522 
L 164.869774 126.566263 
L 164.959072 127.523963 
L 165.316263 182.435072 
L 165.494859 192.947852 
L 166.119944 128.648684 
L 166.29854 132.422399 
L 166.477135 126.189738 
L 166.566433 127.767439 
L 166.745029 149.525728 
L 167.012923 179.112844 
L 167.10222 180.077832 
L 167.370114 203.860815 
L 167.54871 181.454475 
L 167.638008 183.484118 
L 167.727305 189.031636 
L 167.816603 182.370399 
L 168.084497 147.839927 
L 168.263093 156.792951 
L 168.441688 154.026103 
L 168.530986 153.470814 
L 168.709582 131.101478 
L 168.888178 117.139018 
L 169.156071 138.951268 
L 169.334667 162.16606 
L 169.423965 161.082739 
L 169.691858 144.130169 
L 169.870454 133.761281 
L 169.959752 135.585328 
L 170.138348 156.135983 
L 170.227646 156.082941 
L 170.316943 152.774292 
L 170.406241 154.120684 
L 170.495539 157.270343 
L 170.584837 155.773277 
L 170.674135 151.620966 
L 170.763433 151.742897 
L 170.942028 159.237445 
L 171.031326 151.689937 
L 171.29922 97.972058 
L 171.477816 125.690635 
L 171.567113 136.007803 
L 171.745709 129.130673 
L 172.281496 171.086268 
L 172.54939 141.984826 
L 172.727986 160.684202 
L 172.817283 157.332532 
L 172.906581 157.41837 
L 173.174475 182.065607 
L 173.263773 178.247095 
L 173.442368 189.026589 
L 173.531666 185.583848 
L 173.79956 148.580811 
L 173.978156 154.967916 
L 174.246049 118.335592 
L 174.335347 118.46351 
L 174.424645 118.435978 
L 174.603241 108.927387 
L 174.692539 114.285133 
L 175.139028 183.265924 
L 175.496219 138.234383 
L 175.674815 130.812764 
L 175.764113 136.276207 
L 176.032006 171.209939 
L 176.121304 166.880191 
L 176.2999 171.936746 
L 176.746389 147.522214 
L 177.103581 62.09172 
L 177.282176 88.2803 
L 177.639368 159.794128 
L 177.817964 166.010737 
L 178.085857 154.362248 
L 178.264453 169.690101 
L 178.353751 169.614725 
L 178.710942 102.594643 
L 178.80024 111.127252 
L 178.978836 123.739497 
L 179.336027 108.8279 
L 179.425325 109.624242 
L 180.407602 205.696928 
L 180.675495 186.394844 
L 180.854091 189.638785 
L 181.032687 184.030967 
L 181.121984 183.406371 
L 181.30058 167.037999 
L 181.836367 102.165281 
L 181.925665 105.332816 
L 182.55075 190.623816 
L 182.640048 194.829838 
L 182.997239 144.378081 
L 183.354431 56.44645 
L 183.443729 59.098943 
L 183.622324 95.741599 
L 183.890218 153.921031 
L 184.068814 178.87305 
L 184.158112 193.275431 
L 184.247409 189.514952 
L 184.515303 142.893177 
L 184.604601 138.709925 
L 184.872494 87.160435 
L 185.49758 138.547472 
L 185.676175 164.939372 
L 185.944069 204.361921 
L 186.122665 217.723594 
L 186.211962 206.844655 
L 186.74775 68.658418 
L 187.104941 98.807473 
L 187.55143 183.778174 
L 187.99792 150.089692 
L 188.265813 110.258247 
L 188.355111 108.401049 
L 188.444409 108.752662 
L 188.533707 113.401407 
L 188.890898 163.88014 
L 189.069494 191.364528 
L 189.337387 156.144729 
L 189.605281 184.527499 
L 189.694579 184.82651 
L 189.783877 187.464699 
L 189.873175 184.531691 
L 190.230366 120.837562 
L 190.319664 121.451591 
L 190.587558 111.17552 
L 190.676855 111.848189 
L 191.123345 96.157979 
L 191.212643 96.052648 
L 191.391238 138.182789 
L 191.659132 205.875188 
L 191.74843 210.786696 
L 191.837728 209.532995 
L 192.016323 187.242019 
L 192.462813 99.441659 
L 192.55211 100.137794 
L 192.730706 108.117631 
L 192.909302 96.249853 
L 192.9986 90.710556 
L 193.087898 92.585206 
L 193.534387 133.875282 
L 193.712983 122.613464 
L 193.80228 126.750889 
L 194.070174 147.872909 
L 194.338068 163.305272 
L 194.784557 113.002744 
L 194.963153 80.429481 
L 195.49894 147.484041 
L 195.588238 146.456674 
L 195.677536 151.18263 
L 195.945429 175.193583 
L 196.302621 150.648673 
L 196.74911 91.690615 
L 196.838408 93.029171 
L 197.195599 140.473743 
L 197.284897 135.484895 
L 197.552791 102.591439 
L 197.820684 114.468419 
L 197.99928 136.814585 
L 198.267173 184.767448 
L 198.356471 180.393329 
L 198.624365 145.282929 
L 198.802961 138.450416 
L 198.892258 139.916112 
L 199.070854 145.070769 
L 199.338748 122.064461 
L 199.428046 122.955659 
L 199.606641 116.423777 
L 199.695939 118.892253 
L 199.963833 139.881966 
L 200.410322 121.208576 
L 200.49962 121.854042 
L 200.678216 129.434619 
L 200.946109 102.694326 
L 201.035407 108.122874 
L 201.214003 119.902823 
L 201.303301 117.056536 
L 201.392599 123.709206 
L 201.660492 166.956177 
L 201.839088 159.243426 
L 202.106981 129.021268 
L 202.374875 171.594177 
L 202.99996 84.48859 
L 203.089258 84.64727 
L 203.267854 97.702056 
L 203.446449 128.199079 
L 203.892939 236.018819 
L 203.982236 233.06644 
L 204.160832 202.598145 
L 204.607321 72.833132 
L 204.696619 74.360147 
L 205.053811 146.483874 
L 205.143109 146.389398 
L 205.321704 131.541243 
L 205.589598 107.488031 
L 205.857491 133.396499 
L 205.946789 133.48158 
L 206.125385 145.232379 
L 206.214683 144.370294 
L 206.393279 127.851247 
L 206.75047 134.878763 
L 207.018364 181.150634 
L 207.107662 178.885468 
L 207.375555 171.173719 
L 207.643449 141.75977 
L 207.732747 145.429093 
L 207.822044 142.202009 
L 208.179236 92.415547 
L 208.357832 85.84042 
L 208.447129 88.139774 
L 208.625725 128.354102 
L 208.893619 187.386887 
L 209.340108 204.733417 
L 209.429406 197.274768 
L 209.786597 100.714749 
L 209.875895 101.77876 
L 210.054491 111.944748 
L 210.233087 109.477633 
L 210.50098 128.629608 
L 210.768874 169.445975 
L 211.126065 209.295182 
L 211.393959 215.057484 
L 211.483257 214.422872 
L 211.661852 187.943804 
L 212.108342 106.025922 
L 212.376235 122.948161 
L 212.644129 98.335353 
L 212.822725 104.278437 
L 212.912022 102.30416 
L 213.00132 103.41094 
L 213.715703 184.940626 
L 213.805001 182.028461 
L 213.983597 149.474192 
L 214.25149 111.879404 
L 214.340788 114.410499 
L 214.608682 131.962273 
L 214.69798 127.91783 
L 214.787277 131.436176 
L 215.055171 193.273845 
L 215.323065 168.742425 
L 215.412362 169.514655 
L 215.590958 149.004984 
L 215.680256 152.852442 
L 215.769554 162.803083 
L 215.858852 159.834569 
L 216.216043 109.137946 
L 216.305341 99.706545 
L 216.394639 103.225374 
L 216.930426 198.494724 
L 217.019724 195.077215 
L 217.287618 151.246069 
L 217.376915 150.613452 
L 217.555511 156.418698 
L 217.644809 151.282917 
L 217.912703 125.512876 
L 218.002 127.50233 
L 218.091298 134.47159 
L 218.44849 192.821771 
L 218.716383 167.681706 
L 218.894979 159.727647 
L 219.25217 105.277291 
L 219.430766 124.14901 
L 219.609362 104.990853 
L 219.69866 109.081237 
L 219.966553 142.472319 
L 220.234447 168.168695 
L 220.323745 166.233943 
L 220.413043 164.987228 
L 220.50234 168.010635 
L 220.591638 167.862238 
L 220.859532 136.1683 
L 220.94883 138.298116 
L 221.038128 141.478152 
L 221.127425 133.592833 
L 221.306021 97.825587 
L 221.395319 101.172835 
L 221.663213 141.515734 
L 221.752511 140.036448 
L 221.931106 159.366415 
L 222.020404 167.66248 
L 222.109702 166.189224 
L 222.556191 121.803393 
L 222.645489 122.352074 
L 222.824085 117.61045 
L 223.002681 131.408005 
L 223.359872 159.25122 
L 223.44917 158.864154 
L 223.538468 161.652251 
L 223.717063 180.188624 
L 223.806361 179.43555 
L 223.895659 175.52361 
L 224.074255 188.667591 
L 224.163553 188.243103 
L 224.877936 90.710818 
L 225.056531 84.020171 
L 225.145829 86.281199 
L 225.503021 136.133274 
L 225.592318 130.874508 
L 225.681616 134.404303 
L 225.94951 180.572135 
L 226.128106 172.346523 
L 226.306701 180.212685 
L 226.395999 171.064871 
L 226.753191 88.827968 
L 227.021084 98.839585 
L 227.19968 120.250307 
L 227.646169 203.956657 
L 227.735467 202.604231 
L 227.914063 190.178367 
L 228.271254 139.43127 
L 228.44985 130.184841 
L 228.539148 135.511083 
L 228.896339 223.642183 
L 228.985637 222.11601 
L 229.164233 200.519476 
L 229.342829 184.715957 
L 229.432126 188.186899 
L 229.521424 180.903502 
L 229.789318 141.840196 
L 229.878616 140.937154 
L 229.967914 141.595346 
L 230.146509 158.345687 
L 230.414403 187.69202 
L 230.503701 187.315278 
L 230.682296 161.398714 
L 230.771594 173.543376 
L 230.95019 221.347327 
L 231.039488 216.33617 
L 231.664573 109.210384 
L 231.843169 64.001152 
L 231.932466 65.169478 
L 232.20036 98.890318 
L 232.468254 142.717438 
L 232.557552 143.983779 
L 232.825445 186.497041 
L 233.271934 134.495919 
L 233.361232 136.305919 
L 233.45053 134.862516 
L 233.807722 107.321487 
L 233.986317 103.654772 
L 234.075615 105.002609 
L 234.254211 111.2853 
L 234.343509 110.642779 
L 234.432807 112.717402 
L 234.611402 119.811434 
L 234.7007 118.733707 
L 234.789998 121.794329 
L 235.415083 195.929306 
L 235.504381 193.542518 
L 236.040168 127.212749 
L 236.129466 132.806574 
L 236.308062 154.129582 
L 236.397359 154.801951 
L 236.486657 160.982586 
L 236.754551 196.557005 
L 236.843849 193.563569 
L 236.933147 197.374286 
L 237.111742 207.659858 
L 237.290338 174.607696 
L 237.558232 125.982478 
L 237.736827 111.99765 
L 237.915423 84.497956 
L 238.004721 86.076192 
L 238.540508 182.342184 
L 238.808402 155.830487 
L 238.8977 156.42151 
L 238.986997 160.394869 
L 239.076295 158.856673 
L 239.344189 134.426391 
L 239.879976 157.204525 
L 240.058572 154.368449 
L 240.14787 159.05129 
L 240.237167 158.080724 
L 240.505061 109.15616 
L 240.594359 110.71427 
L 240.683657 115.123376 
L 240.772955 112.974997 
L 240.95155 99.247734 
L 241.040848 100.290621 
L 241.665933 170.501813 
L 241.755231 169.094549 
L 241.844529 163.169188 
L 241.933827 163.980567 
L 242.112422 175.977215 
L 242.291018 157.36474 
L 242.469614 141.311821 
L 242.558912 141.107964 
L 242.64821 139.976347 
L 242.826805 116.180827 
L 243.005401 96.170997 
L 243.094699 100.876787 
L 243.45189 141.60873 
L 243.630486 137.253045 
L 243.89838 162.847069 
L 244.166273 138.125309 
L 244.434167 163.862727 
L 244.523465 162.089529 
L 244.969954 140.667271 
L 245.327145 152.117382 
L 245.595039 174.919906 
L 245.773635 153.219952 
L 245.862933 153.311534 
L 245.95223 155.027904 
L 246.220124 128.378449 
L 246.666613 146.358066 
L 246.755911 143.193865 
L 247.023805 108.103478 
L 247.113103 106.90545 
L 247.2024 112.391066 
L 247.64889 164.42529 
L 247.827485 185.052387 
L 248.006081 158.92752 
L 248.095379 146.436502 
L 248.184677 147.174004 
L 248.452571 175.941294 
L 248.631166 152.652764 
L 248.720464 140.511186 
L 248.809762 140.882417 
L 249.077656 161.962289 
L 249.345549 148.620827 
L 249.434847 150.132958 
L 249.524145 149.525193 
L 249.702741 141.214325 
L 249.970634 151.530772 
L 250.417123 128.823001 
L 250.506421 133.110146 
L 250.774315 170.136067 
L 250.863613 172.067261 
L 251.042208 181.097686 
L 251.577996 141.406728 
L 251.667293 138.803282 
L 251.756591 145.604833 
L 252.113783 190.19618 
L 252.292378 168.315698 
L 252.738868 82.144729 
L 252.828166 83.201242 
L 253.006761 110.199375 
L 253.274655 159.542057 
L 253.453251 164.44035 
L 253.542549 163.174892 
L 253.631846 163.221857 
L 253.89974 183.163875 
L 254.078336 153.940723 
L 254.256931 127.375811 
L 254.346229 129.25659 
L 254.614123 149.774111 
L 254.703421 149.362176 
L 254.792719 149.973844 
L 255.14991 165.635997 
L 255.239208 171.997141 
L 255.328506 168.237695 
L 255.596399 132.714674 
L 255.685697 128.576599 
L 255.953591 98.346255 
L 256.221484 121.504869 
L 256.310782 119.115212 
L 256.40008 121.50948 
L 256.757271 152.407066 
L 256.846569 148.768347 
L 257.114463 126.966321 
L 257.203761 126.40525 
L 257.739548 91.64703 
L 257.828846 95.157772 
L 258.007441 118.399471 
L 258.364633 183.070192 
L 258.721824 157.759175 
L 258.989718 135.49223 
L 259.257612 152.142635 
L 259.346909 151.346939 
L 259.436207 154.783436 
L 259.614803 167.035431 
L 259.704101 161.435977 
L 259.971994 126.020429 
L 260.061292 128.242813 
L 260.329186 161.680521 
L 260.418484 160.773249 
L 260.507782 159.456294 
L 260.775675 182.166942 
L 260.954271 160.794401 
L 261.222164 132.057165 
L 261.40076 127.903952 
L 261.490058 128.717776 
L 261.668654 143.101341 
L 262.115143 202.554178 
L 262.293739 190.734166 
L 262.472334 197.35925 
L 262.918824 162.198591 
L 263.097419 144.384378 
L 263.276015 159.000336 
L 263.454611 136.59466 
L 263.543909 128.747953 
L 263.9011 138.243135 
L 264.079696 156.314412 
L 264.168994 155.77339 
L 264.34759 150.150666 
L 264.704781 173.395076 
L 264.883377 163.287301 
L 265.15127 147.652759 
L 265.329866 157.135213 
L 265.419164 155.398852 
L 265.59776 141.928482 
L 265.687057 143.611351 
L 265.954951 156.644966 
L 266.133547 138.057272 
L 266.40144 97.796659 
L 266.580036 115.362183 
L 267.026525 176.178999 
L 267.115823 174.41385 
L 267.205121 171.631543 
L 267.473015 185.974557 
L 267.562312 176.890814 
L 268.008802 74.11667 
L 268.544589 137.161836 
L 268.633887 141.011317 
L 268.723185 140.742687 
L 268.812482 143.813006 
L 269.169674 185.69971 
L 269.34827 168.812495 
L 269.616163 141.0474 
L 269.794759 136.236753 
L 269.973355 145.484967 
L 270.062653 139.407714 
L 270.330546 110.77725 
L 270.777035 142.730971 
L 270.866333 141.297914 
L 271.044929 124.561381 
L 271.134227 125.515166 
L 271.223525 128.608539 
L 271.312823 126.123946 
L 271.491418 113.759986 
L 271.580716 116.994634 
L 272.205801 186.172275 
L 272.830886 142.586551 
L 272.920184 141.445604 
L 273.09878 121.554296 
L 273.366673 89.904434 
L 273.455971 95.729427 
L 273.90246 165.816706 
L 273.991758 165.603655 
L 274.170354 160.693933 
L 274.259652 161.172016 
L 274.795439 188.491325 
L 274.884737 185.228473 
L 275.063333 158.193922 
L 275.331226 98.770734 
L 275.420524 103.190761 
L 275.777716 168.426458 
L 275.867013 168.070767 
L 275.956311 169.713065 
L 276.224205 182.131842 
L 276.402801 165.677619 
L 276.670694 143.166245 
L 276.759992 142.65769 
L 277.027886 146.654753 
L 277.295779 156.852276 
L 277.474375 153.301696 
L 277.742268 179.076013 
L 277.920864 167.572348 
L 278.188758 142.861469 
L 278.367353 121.077305 
L 278.456651 120.569332 
L 278.813843 146.089892 
L 279.171034 212.305873 
L 279.260332 212.161709 
L 279.34963 213.305853 
L 279.528226 227.074146 
L 279.617524 220.345719 
L 280.064013 127.272388 
L 280.242609 129.785413 
L 280.331906 128.978571 
L 280.421204 129.721214 
L 280.689098 155.464669 
L 280.867694 140.561976 
L 280.956991 141.459414 
L 281.224885 171.319351 
L 281.314183 169.270121 
L 281.492779 144.674707 
L 281.671374 120.22255 
L 281.84997 129.655489 
L 281.939268 129.452388 
L 282.207161 98.761913 
L 282.296459 101.315392 
L 282.653651 151.916238 
L 282.832246 178.798834 
L 282.921544 175.850217 
L 283.10014 168.60326 
L 283.189438 172.704025 
L 283.278736 167.771562 
L 283.546629 132.300221 
L 283.814523 120.98026 
L 284.261012 179.686131 
L 284.439608 212.969823 
L 284.528906 212.772232 
L 284.707502 189.638927 
L 285.243289 102.827538 
L 285.332587 99.203543 
L 285.511182 112.333721 
L 285.779076 101.551015 
L 285.868374 103.399271 
L 285.957672 107.741332 
L 286.136267 142.050599 
L 286.314863 168.143375 
L 286.404161 165.701572 
L 286.493459 169.622072 
L 286.761352 202.853496 
L 287.029246 171.529878 
L 287.475735 102.447722 
L 288.011522 169.957716 
L 288.10082 168.411841 
L 288.458012 150.641665 
L 288.636607 146.044181 
L 288.725905 147.009931 
L 288.815203 146.750932 
L 289.083097 126.615341 
L 289.35099 155.108182 
L 289.440288 152.486764 
L 289.529586 149.604648 
L 289.708182 153.756532 
L 289.976075 139.056065 
L 290.243969 119.403075 
L 290.422565 149.347829 
L 290.60116 173.816766 
L 290.869054 178.45727 
L 291.226245 161.664305 
L 291.404841 148.522109 
L 291.583437 166.431895 
L 291.672735 163.82163 
L 291.85133 148.936896 
L 292.029926 160.632142 
L 292.29782 147.410186 
L 292.565713 171.677332 
L 292.922905 138.518712 
L 293.012202 140.55354 
L 293.190798 165.942428 
L 293.458692 204.405207 
L 293.637287 194.691889 
L 293.815883 175.266697 
L 294.083777 135.259022 
L 294.262372 160.188438 
L 294.708862 218.998467 
L 294.79816 215.967215 
L 295.244649 156.444561 
L 295.512543 135.8525 
L 295.60184 134.853218 
L 295.869734 147.144056 
L 296.226925 116.495721 
L 296.494819 136.999655 
L 296.673415 134.684226 
L 296.941308 145.791004 
L 297.030606 143.655251 
L 297.119904 144.288307 
L 297.2985 147.997718 
L 297.477095 137.060128 
L 297.566393 137.418546 
L 297.744989 144.595319 
L 297.834287 141.88287 
L 298.10218 117.171062 
L 298.191478 119.728899 
L 298.54867 181.901128 
L 298.637968 180.174984 
L 298.905861 152.727289 
L 299.173755 114.348117 
L 299.263053 114.835656 
L 299.35235 116.94551 
L 299.530946 108.743998 
L 299.620244 105.115758 
L 299.709542 105.504405 
L 299.888138 123.955828 
L 300.066733 142.976463 
L 300.245329 129.68864 
L 300.334627 130.611352 
L 300.423925 128.521112 
L 300.602521 99.117442 
L 300.691818 102.746584 
L 300.870414 126.854416 
L 301.04901 112.737904 
L 301.316903 137.996085 
L 301.674095 185.162615 
L 302.120584 162.682119 
L 302.388478 184.280967 
L 302.477776 181.819594 
L 302.567073 180.382962 
L 302.656371 181.657401 
L 302.745669 180.952822 
L 303.013563 167.998996 
L 303.281456 149.233018 
L 303.370754 147.932745 
L 303.54935 137.902769 
L 303.727946 143.817742 
L 303.817243 138.40088 
L 304.174435 101.865844 
L 304.263733 96.201649 
L 304.353031 97.366853 
L 304.620924 109.594895 
L 304.79952 124.98426 
L 304.888818 132.232807 
L 304.978116 130.846314 
L 305.156711 119.161498 
L 305.246009 121.592639 
L 305.603201 157.245802 
L 305.692498 158.645984 
L 305.960392 183.020367 
L 306.04969 182.28806 
L 306.228286 186.045665 
L 306.853371 106.108997 
L 307.031966 119.037404 
L 307.210562 104.529267 
L 307.29986 112.5947 
L 307.746349 193.392532 
L 307.835647 188.812061 
L 308.103541 138.607228 
L 308.55003 165.744982 
L 308.817924 155.893118 
L 309.264413 191.085097 
L 309.353711 189.028365 
L 309.889498 116.248606 
L 309.978796 119.428064 
L 310.157391 132.304159 
L 310.335987 114.327328 
L 310.603881 132.371205 
L 310.693179 129.912577 
L 310.961072 159.701671 
L 311.318264 112.309367 
L 311.407562 111.359839 
L 311.496859 109.171891 
L 311.586157 110.864478 
L 312.211242 177.269208 
L 312.30054 174.32064 
L 312.747029 131.727468 
L 313.193519 106.447328 
L 313.997199 173.181334 
L 314.265093 135.278209 
L 314.354391 141.28811 
L 314.622284 186.326928 
L 314.711582 187.374839 
L 314.80088 180.135323 
L 315.247369 101.07779 
L 315.336667 103.863622 
L 315.693859 165.28881 
L 315.783157 162.850116 
L 315.961752 168.195504 
L 316.140348 138.114053 
L 316.408242 103.951968 
L 316.49754 103.337402 
L 316.765433 118.999078 
L 316.854731 117.342789 
L 316.944029 120.894373 
L 317.211922 177.475193 
L 317.479816 212.027364 
L 317.74771 207.103952 
L 317.926305 186.893971 
L 318.283497 147.15862 
L 318.55139 128.297386 
L 318.729986 137.567161 
L 318.819284 136.364989 
L 318.99788 116.867056 
L 319.265773 87.934778 
L 319.444369 110.888708 
L 319.712262 138.360505 
L 319.80156 138.523391 
L 319.980156 126.993177 
L 320.069454 134.977348 
L 320.426645 201.619932 
L 320.515943 200.839348 
L 320.783837 167.887284 
L 321.408922 110.069187 
L 321.49822 104.454847 
L 321.587518 105.129898 
L 321.855411 120.07481 
L 321.944709 118.992593 
L 322.034007 120.93326 
L 322.569794 157.34601 
L 322.659092 156.110402 
L 323.284177 90.357992 
L 323.55207 119.222408 
L 323.641368 115.733033 
L 323.730666 113.418901 
L 323.99856 120.43436 
L 324.087858 120.052252 
L 324.177155 123.912847 
L 324.534347 148.622895 
L 324.623645 146.354402 
L 324.712943 147.369815 
L 325.070134 161.863014 
L 325.159432 163.569922 
L 325.427325 144.690593 
L 325.605921 166.595732 
L 325.695219 160.488043 
L 325.963113 96.980828 
L 326.05241 98.63329 
L 326.320304 111.066578 
L 326.766793 195.890739 
L 326.945389 185.096742 
L 327.123985 174.681982 
L 327.213283 177.252575 
L 327.302581 175.138602 
L 327.570474 133.445487 
L 327.74907 146.937193 
L 328.195559 125.339393 
L 328.374155 147.280567 
L 328.552751 161.041858 
L 328.642048 158.369944 
L 328.820644 160.608934 
L 328.99924 130.035277 
L 329.267133 75.278497 
L 329.356431 72.16171 
L 329.624325 139.007715 
L 329.892218 183.306021 
L 329.981516 177.126659 
L 330.428006 100.014589 
L 330.517303 100.354297 
L 331.053091 153.633502 
L 331.231686 146.788489 
L 331.410282 159.226038 
L 331.49958 152.753663 
L 331.856771 98.625038 
L 331.946069 100.961604 
L 332.213963 128.947662 
L 332.303261 127.743808 
L 332.392559 132.557265 
L 332.74975 166.699235 
L 332.928346 164.162209 
L 333.106941 166.989765 
L 333.196239 160.054109 
L 333.464133 131.459298 
L 333.553431 136.972636 
L 333.642729 136.200378 
L 333.732026 130.453456 
L 333.821324 131.910524 
L 334.089218 154.853882 
L 334.446409 133.599517 
L 334.714303 72.773854 
L 334.803601 71.703341 
L 334.982196 89.545566 
L 335.517984 196.901529 
L 335.607281 202.535001 
L 335.696579 195.082537 
L 336.143069 121.908729 
L 336.232366 120.219125 
L 336.321664 121.389101 
L 336.50026 129.21995 
L 337.036047 173.295569 
L 337.125345 172.9326 
L 337.393239 158.559285 
L 337.571834 144.913323 
L 337.661132 137.961149 
L 337.75043 138.262649 
L 337.839728 140.783297 
L 337.929026 140.324886 
L 338.018324 140.350666 
L 338.286217 153.317455 
L 338.375515 152.93638 
L 338.643409 165.686245 
L 339.179196 100.962908 
L 339.357792 95.553517 
L 339.447089 97.766428 
L 339.714983 124.522812 
L 340.25077 177.585288 
L 340.429366 153.270297 
L 340.786557 114.406252 
L 340.875855 112.786606 
L 341.411642 148.484405 
L 341.679536 124.70889 
L 341.768834 123.066804 
L 342.036727 99.642062 
L 342.215323 110.914325 
L 342.393919 133.247106 
L 342.75111 188.199842 
L 342.840408 181.970027 
L 343.108302 147.020932 
L 343.1976 149.390306 
L 343.286897 146.361483 
L 343.465493 126.546937 
L 343.554791 129.063175 
L 343.733387 140.617003 
L 343.822685 138.183113 
L 343.911982 138.433794 
L 344.179876 162.523377 
L 344.358472 151.193527 
L 344.44777 152.150328 
L 344.626365 160.874282 
L 344.804961 152.725501 
L 344.983557 160.975926 
L 345.072855 158.101136 
L 345.340748 138.165598 
L 345.519344 144.610139 
L 345.69794 142.294731 
L 345.787237 144.970854 
L 346.144429 171.007258 
L 346.323025 176.474247 
L 346.412322 175.791951 
L 347.126705 125.992966 
L 347.216003 128.051705 
L 347.483897 165.909991 
L 347.662492 157.184169 
L 347.75179 157.480498 
L 347.841088 155.877712 
L 348.019684 135.483935 
L 348.108982 137.317354 
L 348.466173 178.498752 
L 348.555471 172.999033 
L 349.091258 65.340995 
L 349.44845 83.750028 
L 349.894939 156.595243 
L 350.073535 171.055604 
L 350.520024 102.477132 
L 350.609322 105.625744 
L 350.877215 156.765003 
L 350.966513 153.067567 
L 351.145109 157.089146 
L 351.323705 149.708539 
L 351.5023 184.696004 
L 351.591598 200.533905 
L 351.680896 198.684222 
L 351.94879 170.630333 
L 352.127385 182.186291 
L 352.216683 177.741771 
L 352.484577 145.685505 
L 352.573875 149.268603 
L 352.663173 149.052552 
L 352.841768 142.603174 
L 353.020364 141.310566 
L 353.109662 143.744056 
L 353.377556 171.741972 
L 353.556151 168.588754 
L 353.824045 180.238757 
L 354.002641 161.069776 
L 354.181236 140.760621 
L 354.717023 184.609073 
L 355.342108 119.596493 
L 355.610002 166.040941 
L 355.6993 164.634061 
L 355.788598 165.012582 
L 355.877896 166.388338 
L 355.967193 160.055568 
L 356.324385 82.66399 
L 356.413683 83.529716 
L 356.94947 193.754783 
L 357.038768 202.208718 
L 357.128066 200.950848 
L 357.395959 178.891037 
L 357.753151 114.171599 
L 358.021044 133.645188 
L 358.110342 131.790563 
L 358.19964 127.963946 
L 358.288938 131.907504 
L 358.556831 156.428581 
L 358.735427 151.966232 
L 358.824725 150.839353 
L 359.092619 121.460234 
L 359.181916 121.477579 
L 359.44981 127.001489 
L 359.628406 144.113068 
L 359.717704 140.60056 
L 359.985597 100.303567 
L 360.074895 104.916813 
L 360.432086 169.672103 
L 360.69998 219.238915 
L 360.878576 182.932818 
L 361.146469 138.26773 
L 361.235767 136.177636 
L 361.592959 142.128479 
L 361.682256 141.157333 
L 361.860852 123.756465 
L 362.039448 105.725513 
L 362.218044 121.140356 
L 362.575235 161.443374 
L 362.664533 162.310215 
L 362.843129 135.180954 
L 363.021724 108.746778 
L 363.20032 111.725946 
L 363.378916 103.88742 
L 363.557512 122.294788 
L 364.004001 156.468561 
L 364.093299 159.443399 
L 364.182597 159.437555 
L 364.361192 160.856412 
L 364.539788 147.796053 
L 364.896979 112.193547 
L 364.986277 112.929779 
L 365.164873 100.355242 
L 365.254171 103.314871 
L 365.611362 168.328772 
L 365.879256 170.348371 
L 366.057852 172.815416 
L 366.147149 170.20512 
L 366.682937 126.096055 
L 367.040128 89.165514 
L 367.218724 94.919133 
L 367.308022 97.861017 
L 367.397319 105.885021 
L 367.933107 193.271396 
L 368.736787 95.514217 
L 368.826085 90.387751 
L 368.915383 94.890291 
L 369.183277 123.757549 
L 369.272575 125.920264 
L 369.540468 141.64049 
L 369.719064 125.573377 
L 369.89766 115.936859 
L 369.986957 118.592252 
L 370.076255 116.156961 
L 370.254851 101.332203 
L 370.344149 105.512557 
L 370.879936 168.422358 
L 371.058532 173.080515 
L 371.326425 165.7164 
L 371.415723 170.370632 
L 371.505021 169.734838 
L 371.862212 126.132492 
L 371.95151 125.453108 
L 372.040808 122.227304 
L 372.130106 122.813978 
L 372.219404 126.4605 
L 372.308702 125.27321 
L 372.398 121.626969 
L 372.487297 128.595679 
L 372.665893 161.530507 
L 372.755191 159.910287 
L 372.844489 155.687062 
L 373.112382 192.879831 
L 374.094659 70.790592 
L 374.183957 74.179424 
L 374.362553 115.831537 
L 374.630446 190.420777 
L 374.719744 191.195204 
L 374.809042 193.88055 
L 375.076935 218.423011 
L 375.255531 192.348527 
L 375.523425 160.460405 
L 375.612723 152.769833 
L 376.059212 52.298258 
L 376.14851 61.335489 
L 376.684297 143.927312 
L 376.95219 178.401452 
L 377.041488 177.340625 
L 377.309382 143.135908 
L 377.39868 144.635926 
L 377.577275 158.397898 
L 377.845169 204.105982 
L 378.113063 185.901871 
L 378.20236 186.574503 
L 378.380956 139.190285 
L 378.559552 92.321102 
L 378.827445 71.430663 
L 378.916743 78.96858 
L 379.363233 172.572978 
L 379.541828 194.401042 
L 379.631126 195.523886 
L 379.720424 191.920494 
L 379.89902 163.517249 
L 380.166913 104.430717 
L 380.434807 81.691693 
L 380.524105 84.115799 
L 381.059892 160.804145 
L 381.238488 137.543941 
L 381.327786 127.569979 
L 381.417083 133.659586 
L 381.684977 175.491765 
L 382.310062 109.588447 
L 382.39936 110.839801 
L 382.667253 134.049802 
L 382.756551 133.6667 
L 382.845849 133.854753 
L 383.024445 144.472079 
L 383.292338 176.268686 
L 383.381636 175.54769 
L 383.560232 167.904969 
L 383.64953 168.603547 
L 383.738828 167.665092 
L 384.006721 159.140307 
L 384.631806 98.836328 
L 384.8997 113.247562 
L 385.078296 105.200697 
L 385.256891 120.950833 
L 385.614083 162.869044 
L 385.703381 163.467655 
L 385.971274 178.235357 
L 386.14987 157.934188 
L 386.507061 111.827417 
L 386.685657 107.373217 
L 386.953551 123.962603 
L 387.132146 114.713067 
L 387.310742 146.169478 
L 387.40004 162.028791 
L 387.489338 160.237885 
L 387.757231 136.675372 
L 387.935827 134.51881 
L 388.114423 139.313107 
L 388.203721 137.466158 
L 388.471614 121.280632 
L 388.739508 124.879406 
L 388.828806 125.004153 
L 388.918104 124.303471 
L 389.096699 116.933991 
L 389.185997 118.642078 
L 389.453891 146.7419 
L 389.632486 132.23687 
L 389.721784 135.064277 
L 389.90038 148.786296 
L 390.257572 131.366193 
L 390.525465 122.301418 
L 390.614763 124.649166 
L 390.882657 144.508447 
L 390.971954 140.380875 
L 391.15055 119.497578 
L 391.239848 119.495274 
L 391.329146 121.777417 
L 391.418444 121.040541 
L 391.507742 124.65112 
L 391.775635 160.058554 
L 391.954231 150.720031 
L 392.043529 152.475594 
L 392.222124 140.924405 
L 392.311422 142.576017 
L 392.490018 157.370235 
L 392.668614 127.448291 
L 392.757912 134.796985 
L 393.025805 175.739235 
L 393.115103 173.433353 
L 393.204401 173.787625 
L 393.293699 173.299767 
L 393.472294 170.510597 
L 393.561592 170.547433 
L 393.65089 162.194028 
L 394.008082 90.978045 
L 394.097379 91.606154 
L 394.275975 104.222114 
L 394.454571 95.464978 
L 394.543869 98.824316 
L 394.990358 175.467133 
L 395.079656 171.683225 
L 395.258252 161.73547 
L 395.34755 166.883202 
L 395.436847 162.15086 
L 395.883337 79.839688 
L 395.972635 68.761247 
L 396.061932 74.819871 
L 396.59772 165.725633 
L 396.954911 197.874302 
L 397.133507 167.329525 
L 397.669294 72.802411 
L 397.84789 89.801218 
L 398.294379 148.552085 
L 398.740868 170.571576 
L 398.919464 177.035661 
L 399.187357 136.28638 
L 399.276655 138.749169 
L 399.723145 180.492947 
L 399.991038 189.174293 
L 400.080336 188.343062 
L 400.258932 184.296528 
L 400.34823 178.400982 
L 400.884017 103.5961 
L 400.973315 99.22534 
L 401.062613 105.14629 
L 401.419804 155.035851 
L 401.776995 176.273847 
L 401.866293 173.016413 
L 402.223485 132.868246 
L 402.491378 93.59199 
L 402.580676 92.719007 
L 402.669974 97.603206 
L 402.84857 151.106938 
L 403.027165 194.558166 
L 403.205761 190.31787 
L 403.295059 186.78931 
L 403.830846 118.26904 
L 403.920144 122.569574 
L 404.09874 141.715844 
L 404.188038 141.287013 
L 404.277335 146.677061 
L 404.455931 165.657206 
L 404.634527 159.312466 
L 404.723825 164.39989 
L 404.813123 163.07089 
L 405.170314 112.734032 
L 405.34891 97.393576 
L 405.438208 98.850662 
L 405.884697 175.004522 
L 405.973995 173.991772 
L 406.152591 181.503516 
L 406.241888 177.980023 
L 406.509782 141.284919 
L 406.688378 157.02616 
L 406.866973 147.541173 
L 407.045569 158.151416 
L 407.134867 157.123337 
L 407.492058 140.541991 
L 407.670654 128.857675 
L 407.84925 148.375315 
L 407.938548 147.259597 
L 408.206441 134.830587 
L 408.295739 133.454732 
L 408.385037 136.725089 
L 408.831526 188.66084 
L 408.920824 189.496187 
L 409.09942 187.415179 
L 409.188718 191.567966 
L 409.278016 191.440921 
L 409.635207 134.10711 
L 409.724505 134.826148 
L 409.903101 110.318263 
L 409.992398 110.860857 
L 410.438888 195.609582 
L 410.528186 191.595093 
L 410.706781 175.409375 
L 410.885377 184.816895 
L 410.974675 179.227161 
L 411.421164 117.732154 
L 411.510462 119.49118 
L 411.689058 112.820778 
L 411.778356 117.956743 
L 411.956951 136.977375 
L 412.135547 128.540373 
L 412.671334 167.882171 
L 412.84993 125.948219 
L 413.117824 74.644473 
L 413.207121 67.54412 
L 413.296419 70.729018 
L 413.564313 106.568927 
L 413.653611 107.137038 
L 413.832206 127.221607 
L 414.278696 187.306992 
L 414.367994 185.348032 
L 414.457291 179.81255 
L 414.546589 180.672578 
L 414.814483 198.287547 
L 414.993079 189.776693 
L 415.260972 151.122941 
L 415.618164 82.381319 
L 415.707461 82.536923 
L 416.153951 160.703136 
L 416.332547 131.465882 
L 416.511142 110.364849 
L 416.689738 142.111809 
L 416.957632 181.932181 
L 417.046929 179.832278 
L 417.493419 132.006117 
L 417.672014 138.011318 
L 417.761312 136.806782 
L 417.939908 131.502599 
L 418.029206 131.386521 
L 418.118504 134.186828 
L 418.475695 171.894705 
L 418.564993 170.007992 
L 419.011482 139.929131 
L 419.190078 119.014939 
L 419.279376 118.779415 
L 419.636567 146.073529 
L 419.904461 174.072993 
L 420.083057 171.054877 
L 420.172354 172.129286 
L 420.529546 193.242145 
L 420.708142 172.619384 
L 420.976035 136.177835 
L 421.154631 141.439431 
L 421.422525 127.310117 
L 421.511822 128.288685 
L 421.60112 126.272744 
L 421.779716 116.838286 
L 421.958312 134.520681 
L 422.315503 186.187042 
L 422.404801 184.849052 
L 422.672695 172.362715 
L 422.761992 170.639174 
L 423.119184 151.411746 
L 423.29778 162.678789 
L 423.387077 168.725239 
L 423.476375 168.354443 
L 423.744269 145.017608 
L 424.012162 117.831069 
L 424.280056 142.887629 
L 424.369354 143.528303 
L 424.54795 162.869776 
L 424.726545 175.725351 
L 424.815843 175.547201 
L 425.083737 191.714988 
L 425.173035 191.169697 
L 425.262332 193.365043 
L 425.35163 198.624023 
L 425.440928 196.923925 
L 426.333907 53.675693 
L 426.423205 56.737926 
L 426.780396 150.782564 
L 426.958992 166.795568 
L 427.137588 153.467802 
L 427.226885 156.055375 
L 427.405481 174.868991 
L 427.494779 174.860806 
L 427.584077 177.105591 
L 427.762673 185.493097 
L 428.030566 155.457056 
L 428.29846 106.902615 
L 428.387758 109.270901 
L 428.566353 125.878806 
L 428.655651 125.897232 
L 428.744949 130.097882 
L 428.923545 144.992984 
L 429.10214 134.305806 
L 429.191438 136.319263 
L 429.370034 146.265728 
L 429.727225 131.635701 
L 429.816523 134.303722 
L 429.995119 158.94256 
L 430.173715 179.819585 
L 430.35231 160.461399 
L 430.709502 128.406305 
L 431.155991 99.274414 
L 431.245289 101.472532 
L 431.423885 121.633618 
L 431.781076 159.612601 
L 431.959672 175.352073 
L 432.138268 155.179963 
L 432.406161 129.057628 
L 432.495459 125.675941 
L 432.674055 130.988497 
L 432.763353 130.392879 
L 433.031246 118.715007 
L 433.209842 131.832361 
L 433.477736 153.681107 
L 433.656331 132.420259 
L 433.924225 95.811314 
L 434.102821 123.659756 
L 434.281416 141.291895 
L 434.460012 137.654152 
L 434.638608 141.315081 
L 434.727906 139.344906 
L 434.817203 139.595735 
L 434.995799 144.575905 
L 435.085097 143.501051 
L 435.174395 144.973727 
L 435.442288 162.468095 
L 435.710182 136.474425 
L 436.067373 167.474428 
L 436.156671 165.670823 
L 436.335267 144.349651 
L 436.513863 128.145904 
L 436.692458 138.076468 
L 436.871054 127.048706 
L 436.960352 131.083079 
L 437.228246 163.950641 
L 437.317544 161.857271 
L 437.496139 139.396197 
L 437.764033 84.109246 
L 437.853331 83.635193 
L 438.29982 120.153384 
L 438.478416 144.880091 
L 438.657011 143.627029 
L 438.924905 183.997144 
L 439.014203 183.396283 
L 439.192799 170.246522 
L 439.282096 170.228567 
L 439.371394 172.230182 
L 439.460692 172.038529 
L 439.54999 165.885648 
L 439.817884 125.969002 
L 439.996479 149.993559 
L 440.085777 160.755791 
L 440.175075 158.71676 
L 440.353671 144.147269 
L 440.442969 148.100635 
L 440.621564 193.534212 
L 440.80016 246.536172 
L 440.889458 249.605712 
L 441.157351 213.312714 
L 441.425245 166.839086 
L 441.514543 161.74901 
L 441.693139 124.110188 
L 441.871734 97.855415 
L 441.961032 99.580333 
L 442.139628 87.459298 
L 442.228926 89.497126 
L 442.764713 171.695238 
L 442.943309 134.532487 
L 443.121904 109.61284 
L 443.389798 114.721452 
L 444.193479 204.010993 
L 444.282777 199.84767 
L 444.55067 150.697825 
L 444.639968 153.349547 
L 444.997159 205.657576 
L 445.175755 167.305566 
L 445.354351 141.730868 
L 445.443649 146.844776 
L 445.532947 144.431655 
L 445.622244 135.668091 
L 445.711542 136.149027 
L 445.979436 166.932916 
L 446.068734 173.256615 
L 446.336627 211.489417 
L 446.872414 130.176664 
L 446.961712 125.1353 
L 447.05101 125.161976 
L 447.229606 123.550435 
L 447.408202 147.582149 
L 447.854691 219.606338 
L 448.569074 118.882542 
L 448.658372 120.217318 
L 448.836967 116.751824 
L 448.926265 122.898419 
L 449.194159 150.155082 
L 449.55135 124.145163 
L 449.729946 112.897039 
L 449.908542 125.794688 
L 450.176435 161.121205 
L 450.444329 189.089929 
L 450.533627 184.026423 
L 450.890818 135.647662 
L 450.980116 137.764515 
L 451.069414 136.215752 
L 451.515903 113.860291 
L 451.605201 119.291729 
L 451.873095 158.58405 
L 451.962392 158.652882 
L 452.140988 151.296589 
L 452.319584 139.634976 
L 452.49818 149.458953 
L 452.587477 149.389064 
L 452.676775 146.685877 
L 452.766073 151.666874 
L 452.944669 170.925592 
L 453.033967 169.509483 
L 453.123265 169.831998 
L 453.30186 181.390856 
L 453.926945 103.975506 
L 454.016243 104.524641 
L 454.373435 140.669809 
L 454.730626 188.235922 
L 454.819924 185.878946 
L 455.177115 133.227779 
L 455.266413 136.784473 
L 455.355711 135.362293 
L 455.891498 108.891421 
L 455.980796 109.226573 
L 456.159392 129.768595 
L 456.337988 146.688858 
L 456.605881 128.413215 
L 456.784477 144.408419 
L 457.141668 191.09259 
L 457.320264 195.023879 
L 457.49886 181.827966 
L 457.677455 172.9568 
L 457.766753 169.871298 
L 458.213243 122.330119 
L 458.302541 123.603081 
L 458.481136 129.649574 
L 458.570434 129.499098 
L 458.74903 127.320749 
L 458.838328 127.654692 
L 458.927626 125.816547 
L 459.016923 127.113611 
L 459.284817 169.734602 
L 459.374115 163.863993 
L 459.552711 153.03505 
L 459.642008 154.391517 
L 459.820604 141.066957 
L 459.909902 143.094146 
L 460.177796 169.828722 
L 460.356391 175.929277 
L 460.534987 171.936102 
L 460.713583 185.028231 
L 460.802881 184.602378 
L 460.981476 167.455343 
L 461.160072 171.69374 
L 461.517263 92.932083 
L 461.606561 92.96391 
L 461.695859 96.315842 
L 461.874455 121.186436 
L 462.231646 194.672998 
L 462.320944 194.030827 
L 462.49954 171.68139 
L 462.767433 142.215679 
L 462.856731 139.478172 
L 463.481816 87.925783 
L 463.74971 130.554911 
L 464.285497 205.07515 
L 464.374795 209.229308 
L 464.464093 206.096755 
L 464.821284 156.770923 
L 464.99988 162.390065 
L 465.178476 148.473895 
L 465.267774 149.604937 
L 465.446369 158.341631 
L 465.892859 93.245343 
L 466.071454 87.494503 
L 466.160752 92.696378 
L 466.785837 165.694769 
L 466.875135 167.795408 
L 467.053731 160.958815 
L 467.321624 151.568293 
L 467.857411 93.331347 
L 467.946709 101.003796 
L 468.214603 133.619386 
L 468.571794 149.674026 
L 468.839688 160.176695 
L 469.018284 143.527847 
L 469.107582 145.80506 
L 469.286177 160.344176 
L 469.554071 139.209547 
L 469.643369 141.076597 
L 469.732667 141.833115 
L 470.00056 132.413579 
L 470.179156 126.175874 
L 470.357752 149.77749 
L 470.536347 169.597015 
L 470.625645 167.281799 
L 470.982837 131.20553 
L 471.340028 158.232487 
L 471.429326 156.504041 
L 471.607922 137.233643 
L 471.786517 116.615834 
L 471.875815 116.485295 
L 472.054411 142.387232 
L 472.322304 185.009995 
L 472.411602 184.96587 
L 472.5009 178.944433 
L 473.036687 96.401647 
L 473.125985 97.48081 
L 473.483177 117.082342 
L 473.840368 188.814104 
L 474.018964 198.396157 
L 474.376155 150.918217 
L 474.644049 123.91388 
L 474.733347 124.318566 
L 474.911942 116.249217 
L 475.00124 117.770925 
L 475.44773 145.728285 
L 475.537027 147.127976 
L 475.626325 150.672373 
L 475.804921 176.746318 
L 475.894219 173.394859 
L 476.072815 155.393898 
L 476.25141 174.327551 
L 476.430006 161.482488 
L 476.608602 140.590686 
L 476.787197 105.958628 
L 476.965793 118.0337 
L 477.055091 116.114963 
L 477.144389 113.168188 
L 477.322985 130.228171 
L 477.412282 128.619081 
L 477.50158 121.791423 
L 477.590878 125.399965 
L 477.858772 152.422837 
L 477.94807 152.412442 
L 478.037367 151.815364 
L 478.215963 144.121912 
L 478.305261 148.117484 
L 478.483857 162.671717 
L 478.662452 157.076557 
L 478.841048 142.307933 
L 479.019644 128.448496 
L 479.19824 132.52237 
L 479.555431 92.164268 
L 479.644729 95.39131 
L 479.823325 112.217491 
L 480.091218 100.5238 
L 480.359112 116.85905 
L 480.537708 124.948911 
L 480.627005 122.113547 
L 480.805601 105.84522 
L 481.073495 133.911243 
L 481.162793 131.777322 
L 481.25209 130.251267 
L 481.430686 148.63753 
L 481.69858 171.844917 
L 481.877175 159.475565 
L 482.412963 94.08057 
L 482.50226 92.890495 
L 482.859452 147.224324 
L 482.94875 142.212471 
L 483.038048 141.08886 
L 483.395239 156.685719 
L 483.484537 156.395618 
L 483.663133 128.587816 
L 483.841728 102.029032 
L 483.931026 104.88487 
L 484.288218 133.120388 
L 484.556111 148.007168 
L 484.645409 147.793951 
L 484.734707 146.190197 
L 484.824005 151.495966 
L 485.091898 178.466457 
L 485.359792 167.862765 
L 485.716983 119.061575 
L 485.806281 116.418168 
L 485.984877 95.791 
L 486.074175 101.722161 
L 486.520664 185.216859 
L 486.609962 187.977467 
L 486.69926 187.958831 
L 486.788558 187.480095 
L 486.877856 181.577565 
L 487.145749 136.937732 
L 487.413643 160.023638 
L 487.681536 188.965314 
L 487.770834 183.759478 
L 488.038728 149.249379 
L 488.306621 137.012369 
L 488.485217 123.625055 
L 488.574515 129.933033 
L 488.842408 160.845621 
L 489.021004 157.201268 
L 489.110302 157.826272 
L 489.378196 148.054099 
L 489.467493 147.285311 
L 489.735387 129.792814 
L 489.824685 133.416749 
L 489.913983 131.190149 
L 490.44977 81.322438 
L 490.628366 120.769572 
L 490.896259 178.715381 
L 491.074855 188.738579 
L 491.253451 185.609546 
L 491.342749 180.127662 
L 492.057131 80.591948 
L 492.146429 78.021986 
L 492.325025 87.882119 
L 492.503621 116.082821 
L 492.771514 161.641206 
L 492.95011 146.228404 
L 493.039408 148.870202 
L 493.218004 159.603944 
L 493.307301 159.772651 
L 493.575195 152.804909 
L 493.753791 155.362282 
L 493.932386 148.450667 
L 494.20028 165.302944 
L 494.557471 145.136735 
L 494.825365 79.931981 
L 494.914663 83.886338 
L 495.182557 117.591693 
L 495.45045 172.733867 
L 495.539748 173.231396 
L 495.807642 158.038779 
L 495.896939 154.060682 
L 495.986237 157.616174 
L 496.164833 169.560185 
L 496.343429 162.289491 
L 496.432727 162.877479 
L 496.522024 163.25267 
L 496.70062 140.49449 
L 496.968514 106.949466 
L 497.057812 103.581617 
L 497.147109 104.587165 
L 497.325705 114.875005 
L 497.504301 139.289235 
L 497.682897 168.604681 
L 497.772194 165.695447 
L 498.040088 145.659521 
L 498.307982 136.392577 
L 498.397279 136.778531 
L 498.486577 135.828823 
L 498.754471 125.806043 
L 498.933067 129.867241 
L 499.022364 129.503368 
L 499.20096 119.74531 
L 499.290258 121.677077 
L 499.736747 193.391622 
L 499.826045 190.291867 
L 500.093939 142.218196 
L 500.45113 89.336371 
L 500.629726 105.76591 
L 501.254811 175.404143 
L 501.344109 182.67549 
L 501.7013 164.726872 
L 502.504981 88.07581 
L 502.594279 88.163167 
L 502.862172 125.499216 
L 502.95147 124.236402 
L 503.040768 132.553659 
L 503.308662 174.303319 
L 503.487257 161.006644 
L 503.844449 172.99266 
L 503.933747 172.209775 
L 504.112342 167.22781 
L 504.290938 178.113148 
L 504.380236 171.318344 
L 504.64813 124.033011 
L 504.737427 123.531994 
L 504.916023 138.527509 
L 505.273215 177.004172 
L 505.45181 155.451447 
L 505.719704 117.028381 
L 505.987598 56.229091 
L 506.166193 92.453168 
L 506.612683 209.79644 
L 506.70198 208.819204 
L 506.880576 164.496307 
L 507.059172 112.216835 
L 507.14847 114.190295 
L 507.594959 171.433654 
L 507.862853 195.745239 
L 507.95215 204.58821 
L 508.041448 200.798047 
L 508.39864 123.557111 
L 508.487938 124.380712 
L 508.666533 121.868159 
L 508.845129 129.114942 
L 509.023725 119.447057 
L 509.113023 123.281479 
L 509.380916 143.049841 
L 509.470214 149.12704 
L 509.738108 201.319587 
L 510.184597 182.977927 
L 510.45249 143.65205 
L 510.541788 145.725895 
L 510.720384 154.721901 
L 511.166873 113.790504 
L 511.256171 100.918114 
L 511.345469 101.822019 
L 511.881256 192.633781 
L 512.14915 166.545348 
L 512.327746 193.889316 
L 512.417043 190.700676 
L 512.774235 121.197479 
L 512.863533 123.628509 
L 513.042128 138.474168 
L 513.220724 131.995056 
L 513.488618 142.116121 
L 513.667213 136.157717 
L 513.935107 148.438387 
L 514.203001 133.858161 
L 514.292298 136.079712 
L 514.470894 141.732922 
L 514.738788 119.131007 
L 514.917383 135.970814 
L 515.095979 153.52274 
L 515.185277 151.504631 
L 515.542468 118.070211 
L 515.631766 116.047102 
L 515.810362 105.699298 
L 515.89966 106.446745 
L 516.167554 127.318331 
L 516.346149 120.971622 
L 516.435447 124.008984 
L 516.703341 141.757297 
L 517.060532 107.860445 
L 517.14983 109.423445 
L 517.417724 123.939898 
L 517.596319 125.138216 
L 517.864213 122.735802 
L 518.042809 125.142853 
L 518.221404 116.303801 
L 518.310702 118.152378 
L 518.4 128.517854 
L 518.4 128.517854 
" style="fill:none;stroke:#0000ff;stroke-linecap:square;stroke-width:1.5;"/>
   </g>
   <g id="patch_3">
    <path d="M 72 252 
L 72 34.56 
" style="fill:none;stroke:#000000;stroke-linecap:square;stroke-linejoin:miter;stroke-width:0.8;"/>
   </g>
   <g id="patch_4">
    <path d="M 518.4 252 
L 518.4 34.56 
" style="fill:none;stroke:#000000;stroke-linecap:square;stroke-linejoin:miter;stroke-width:0.8;"/>
   </g>
   <g id="patch_5">
    <path d="M 72 252 
L 518.4 252 
" style="fill:none;stroke:#000000;stroke-linecap:square;stroke-linejoin:miter;stroke-width:0.8;"/>
   </g>
   <g id="patch_6">
    <path d="M 72 34.56 
L 518.4 34.56 
" style="fill:none;stroke:#000000;stroke-linecap:square;stroke-linejoin:miter;stroke-width:0.8;"/>
   </g>
   <g id="text_14">
    <!--  Aceleração do solo -->
    <defs>
     <path d="M 45.40625 46.390625 
L 45.40625 75.984375 
L 54.390625 75.984375 
L 54.390625 0 
L 45.40625 0 
L 45.40625 8.203125 
Q 42.578125 3.328125 38.25 0.953125 
Q 33.9375 -1.421875 27.875 -1.421875 
Q 17.96875 -1.421875 11.734375 6.484375 
Q 5.515625 14.40625 5.515625 27.296875 
Q 5.515625 40.1875 11.734375 48.09375 
Q 17.96875 56 27.875 56 
Q 33.9375 56 38.25 53.625 
Q 42.578125 51.265625 45.40625 46.390625 
z
M 14.796875 27.296875 
Q 14.796875 17.390625 18.875 11.75 
Q 22.953125 6.109375 30.078125 6.109375 
Q 37.203125 6.109375 41.296875 11.75 
Q 45.40625 17.390625 45.40625 27.296875 
Q 45.40625 37.203125 41.296875 42.84375 
Q 37.203125 48.484375 30.078125 48.484375 
Q 22.953125 48.484375 18.875 42.84375 
Q 14.796875 37.203125 14.796875 27.296875 
z
" id="DejaVuSans-100"/>
    </defs>
    <g transform="translate(236.724375 28.56)scale(0.12 -0.12)">
     <use xlink:href="#DejaVuSans-32"/>
     <use x="31.787109" xlink:href="#DejaVuSans-65"/>
     <use x="98.445312" xlink:href="#DejaVuSans-99"/>
     <use x="153.425781" xlink:href="#DejaVuSans-101"/>
     <use x="214.949219" xlink:href="#DejaVuSans-108"/>
     <use x="242.732422" xlink:href="#DejaVuSans-101"/>
     <use x="304.255859" xlink:href="#DejaVuSans-114"/>
     <use x="345.369141" xlink:href="#DejaVuSans-97"/>
     <use x="406.648438" xlink:href="#DejaVuSans-231"/>
     <use x="461.628906" xlink:href="#DejaVuSans-227"/>
     <use x="522.908203" xlink:href="#DejaVuSans-111"/>
     <use x="584.089844" xlink:href="#DejaVuSans-32"/>
     <use x="615.876953" xlink:href="#DejaVuSans-100"/>
     <use x="679.353516" xlink:href="#DejaVuSans-111"/>
     <use x="740.535156" xlink:href="#DejaVuSans-32"/>
     <use x="772.322266" xlink:href="#DejaVuSans-115"/>
     <use x="824.421875" xlink:href="#DejaVuSans-111"/>
     <use x="885.603516" xlink:href="#DejaVuSans-108"/>
     <use x="913.386719" xlink:href="#DejaVuSans-111"/>
    </g>
   </g>
  </g>
 </g>
 <defs>
  <clipPath id="pa7cc3277a8">
   <rect height="217.44" width="446.4" x="72" y="34.56"/>
  </clipPath>
 </defs>
</svg>
